/* XPM */
static char *xpm_[] = {
/* columns rows colors chars-per-pixel */
"60 60 171 2 ",
"   c #040405",
".  c #0A0405",
"X  c #060807",
"o  c #0A0907",
"O  c #050509",
"+  c #0B070A",
"@  c #070909",
"#  c #0C0B0C",
"$  c #100709",
"%  c #120D0D",
"&  c #180C0E",
"*  c #13100F",
"=  c #1A100F",
"-  c #0E0D10",
";  c #130E11",
":  c #190F11",
">  c #151212",
",  c #1B1514",
"<  c #1B1916",
"1  c #1B1719",
"2  c #1D1919",
"3  c #201516",
"4  c #211917",
"5  c #211719",
"6  c #231C1B",
"7  c #2A1E1E",
"8  c #26211E",
"9  c #29211E",
"0  c #251E20",
"q  c #281E21",
"w  c #262121",
"e  c #2B2423",
"r  c #2E2925",
"t  c #2F2929",
"y  c #312424",
"u  c #312A27",
"i  c #322729",
"p  c #332D2A",
"a  c #3A2D2D",
"s  c #36312D",
"d  c #39322E",
"f  c #3F2F30",
"g  c #373332",
"h  c #3C3432",
"j  c #3E3935",
"k  c #3F3D39",
"l  c #423635",
"z  c #423936",
"x  c #433638",
"c  c #4A363A",
"v  c #443B39",
"b  c #493C3C",
"n  c #503C3E",
"m  c #46433C",
"M  c #47423E",
"N  c #45413C",
"B  c #47443F",
"V  c #45413C",
"C  c #49413E",
"Z  c #48433F",
"A  c #49443E",
"S  c #4B413F",
"D  c #7D3546",
"F  c #7F3846",
"G  c #7E3648",
"H  c #7F3B4D",
"J  c #7C3C51",
"K  c #484340",
"L  c #494440",
"P  c #484540",
"I  c #494641",
"U  c #4B4640",
"Y  c #4B4642",
"T  c #4C4743",
"R  c #4C4341",
"E  c #4B4841",
"W  c #4B4843",
"Q  c #4D4842",
"!  c #4D4944",
"~  c #4D4A45",
"^  c #4E4B44",
"/  c #4F4A44",
"(  c #4F4A46",
")  c #4F4C45",
"_  c #4F4C47",
"`  c #524645",
"'  c #504B46",
"]  c #504D46",
"[  c #514E47",
"{  c #504D46",
"}  c #504D48",
"|  c #514E49",
" . c #524F4A",
".. c #534E4A",
"X. c #544F49",
"o. c #544F4B",
"O. c #524F4A",
"+. c #594E4C",
"@. c #535049",
"#. c #53504B",
"$. c #54514A",
"%. c #55504A",
"&. c #55524B",
"*. c #52514C",
"=. c #53524D",
"-. c #54514C",
";. c #56534C",
":. c #56534E",
">. c #55554D",
",. c #57544D",
"<. c #57544F",
"1. c #53524D",
"2. c #58554C",
"3. c #58554E",
"4. c #59564F",
"5. c #565550",
"6. c #595651",
"7. c #5A5750",
"8. c #585752",
"9. c #595951",
"0. c #5B5851",
"q. c #5C5952",
"w. c #5D5A53",
"e. c #5B5A55",
"r. c #5C5954",
"t. c #5D5A55",
"y. c #5E5B54",
"u. c #5E5B56",
"i. c #5F5C57",
"p. c #5D5D55",
"a. c #5D5A53",
"s. c #7E4254",
"d. c #77465D",
"f. c #77485C",
"g. c #605B55",
"h. c #615E57",
"j. c #605D58",
"k. c #625F5A",
"l. c #61605B",
"z. c #704860",
"x. c #6B6660",
"c. c #6A6762",
"v. c #6C6761",
"b. c #ED0707",
"n. c #ED0805",
"m. c #EC070A",
"M. c #EE0808",
"N. c #F70405",
"B. c #FE0101",
"V. c #F10907",
"C. c #F2060A",
"Z. c #F80309",
"A. c #F10809",
"S. c #813646",
"D. c #8C3646",
"F. c #823847",
"G. c #8D3947",
"H. c #843749",
"J. c #8D3649",
"K. c #84394B",
"L. c #8D3A4C",
"P. c #953645",
"I. c #9A3444",
"U. c #933847",
"Y. c #933749",
"T. c #9D3349",
"R. c #92384A",
"E. c #853E52",
"W. c #8A3C51",
"Q. c #814255",
"!. c #814258",
/* pixels */
"# # # # . . .             # # % # . .       .   # # # # # . .         .           # % X .       . .   .         # % # # ",
"# # # # > > > < < < < < < # # # # * > < < < < < * # # # * > > , < < < < < < < < < # # ; > < < < , > > , 1 < < 2 # # # # ",
"# #   > p h v =.e.6.4.w.l.,     o e j j.6.6.r.c.g       8 d z K 0.0.w.r.w.9.<.0.c.w   8 h 0.i.j.$.z v z $.0.0.c.w   # # ",
"# # > 8 h v Q @.<.;.4.]  .8 > 2 w j I 4.;.<.' o.j < < > p h A / <. ./ / / @.<. .o.s < p h / / ' P j P I =.5. .@.d < # # ",
". > h j C @.g.;.$.;.4.T v h d I  .i.0.$.$.;.M j M o.j p k B 0.0.<./ v v z ;.r.) j C / I M v v v N v  .h.>.<./ h M  .<   ",
"X % 9 r d k W @.<.;.r.j e w 9 p j I / <.;.;.j p g s p u j N I Q w.M 8 p d V / v p h s d d h d r u s v T  .r.I p s h > . ",
"# # < 8 u d k ] <.<.j.d % 1 4 e p j I 6.<.6.d e r u p u j N j N j.v $ 9 p h M h e u r r r p r , 8 r h k  .r.M e t p * . ",
"# # 4 w u h v ] 4.) I u , 6 4 6 8 p h I M I e 6 2 > 2 w u s v v W d , 6 6 p s r 4 6 w , > > > ; , 6 r d v / s 4 , - # # ",
"# % 6 e a z v =.w.] M u 4 6 6 5 6 r d v v v w 4 , O , 6 e p M M M d , 6 4 u s e 4 6 6 ; # # # - * 4 r p z I d 3 ;   # # ",
"# # > 2 6 p j I  .M j w > , 1 4 6 u s M j j 6 , > # > 1 9 r h j j u 4 1 , 6 w 4 , < , > ; % % - > , 6 y p h r 1 ; # # # ",
"# # . @ . 6 p z M h s 2 + # - 4 w u h I d p > # # ; - # 1 6 u p p r 6 > # # # # o # X # $ % * # # # , 6 , , : # # # # # ",
"# # # # # 4 w p j r 1 > # - - > , w u z e , > ; > : > - > , 9 w e 6 > > ; ; # , e 6 8 8 8 * # > ; % > > w r e w > . # # ",
"# # # # # , 6 r d 2   % > ; ; - > 2 9 s < . > = > : ; - # # 1 4 6 , # % > % # 4 h p d d p % % ; ; % # # e s p h ,   # # ",
"# # # # ; > > > , > * % > % - - ; > > , > ; > > > > ; % 0 r u e > % % ; % 1 4 4 6 r p p u r 6 % > # , 2 r p u p e e > @ ",
"# # # # > % # # # % > > > % ; % # - # # ; > % > > > > % r h d e % > % > % < 6 4 1 e p u u s u % > % 1 6 r p u p a h > . ",
"% # X # * ; % # # % ; % # 2 6 # # ; ; ; 1 6 > ; : # , 6 r p u u u 6 # , 6 4 4 4 1 e u h x b h # > 6 4 < e u a z z b , . ",
"# # # # * > > , , , 1 > # < 4 , > * > ; 1 6 > % > * 1 6 r p p a d w # , 6 6 6 4 6 r p x b h t # , 4 6 6 p p d b h h > . ",
"# # % * % 1 6 p s p d 2 # # > h u o # % # % % % , w 6 < e p x v ` u . < 7 4 , 8 u s b b b > # - % # w h b C b T 8 # # # ",
"# # % ; - 1 6 w e r s 8 2 > % 8 6 < < < 6 4 > # > 1 6 w p h x h u 6 # > < 6 8 r h h v a e > % ; ; # < 8 y i y p 2 % # # ",
"# # > % # 1 9 1 > 6 u u a 1 % . * h d a a d , # % # w a x b R h + # > % # u h x R b K , . # # # # # + + # # % $ ; > # # ",
"# # # # % > > 8 r u h s h < % > < 8 e p u p , % ; # e x z x e 4 % % ; % % < 2 6 w q w > * 6 8 8 w 8 6 8 > % % , % # # # ",
"# # @ # > % # r d h v b b < # 6 6 , 8 p u p 1 ; ; . u R v x % # , F K.F ; # # # # % # $ > p d p a p s K.K.D , > # X # % ",
"# # # # # # ; > % w C r , > % 2 6 r a j h z 1 # ; ; 1 3 2 1 % > r E.E.E.r < < , ; > % 1 6 r p p p u u E.E.E.6 % # @ # # ",
"# # # # # # % # O 0 +.9 . % > , 6 u a b x b 1 # * > % % # # $ 1 l G.Y.J.f y e 2 ; ; % 2 6 p p p p p a D.Y.G.y & % # # # ",
"# % % # # # > % # 2 s 2 ; # * 6 e a h z x b 3 # * * > ; > 5 F K.D.C.N.C.D.E.F 4 , > % 2 6 w r p K.K.D.A.N.C.D.K.F ; # # ",
"# # # # . # % # % + . % > - ; d h v z j b R 4 % > > % # < 9 E.!.G.B.B.B.L.Q.E., e , % 2 6 3 6 a E.s.L.B.B.B.Y.E.L.: # # ",
"# # # # # < w 8 8 w w , % ; ; , 8 v x v u 6 > % % % , 4 6 y G.L.I.N.B.N.I.L.D.5 5 , > 6 7 7 6 y G.L.I.Z.B.N.Y.E.K.: # # ",
"# # # # $ 8 h p p p d 6 # ; > . > v b K 6 . ; > > % 4 F K.D.C.N.N.B.B.B.N.N.C.D.K.K.K.K.K.K.H J.m.N.N.B.B.Z.Y.E.K.: # # ",
"# # . % 2 e p u u u p r e , % * > , , , > % ; % , 4 q L.E.Y.B.B.B.B.B.B.B.B.B.L.s.E.E.E.E.E.s.L.B.B.B.B.B.N.Y.E.K.: # # ",
"# # X > 6 e p u u p p p s 2 % > ; % % % % : ; # , 6 7 K.E.R.N.B.B.B.B.B.B.B.Z.I.L.R.R.Y.Y.R.L.I.N.B.B.B.B.Z.U.E.K.& # # ",
"# # 4 4 4 4 4 r p u u u p , ; # , a r p 2 # ; > ; # w W.E.R.N.B.B.B.B.B.B.B.B.N.N.N.N.N.N.N.N.Z.B.B.B.B.B.Z.Y.E.K.% # # ",
"@ % 6 4 6 6 6 u a p a p d , % % 1 u p d 6 > > > > # 6 L.E.Y.N.B.B.B.B.B.B.B.B.B.B.B.B.B.B.B.B.B.B.B.B.B.B.N.R.E.K.# # # ",
"@ % 6 6 4 y p l z z z b K 1 # 6 6 , 6 p r p 1 % > > , K.K.Y.N.B.B.B.B.B.B.B.B.B.B.B.B.B.B.B.B.B.B.B.B.B.B.Z.Y.E.K.> # # ",
"# # 5 S.L.K.d h x x z a u , # , 5 9 r h s s 3 % ; > > K.E.Y.N.B.B.B.B.B.B.B.B.B.B.B.B.B.B.B.B.B.B.B.B.B.B.Z.R.E.K.% # # ",
"X # + E.E.E.b x j b ` 6   % ; $ > u s b b T 4 % % # ; J s.L.N.B.B.B.B.B.B.B.B.B.B.B.B.B.B.B.B.B.B.B.B.B.B.N.L.s.K.. # % ",
"% % : J.Y.J.n b v a 0 6 , > ; # , h l b a 7 3 ; 4 e y D.G.I.N.B.B.B.B.B.B.B.B.B.B.B.B.B.B.B.B.B.B.B.B.B.B.N.I.L.D.e > % ",
"D J J.n.Z.C.U.E.K.i   , 8 > % # 1 S K.K.K.F.K.K.K.K.J.A.N.B.B.B.B.B.B.B.B.B.B.B.B.B.B.B.B.B.B.B.B.B.B.B.B.B.Z.N.C.J.K.F ",
"W.E.U.B.B.B.L.!.E.< % > > * = ; > 4 E.E.E.E.E.E.K.!.L.B.B.B.B.B.B.B.B.B.B.B.B.B.B.B.B.B.B.B.B.B.B.B.B.B.B.B.B.B.B.U.E.L.",
"F J D.C.N.C.I.L.D.3 % : % % ; , , : D.Y.R.Y.Y.Y.Y.L.I.C.N.N.B.B.B.B.B.B.B.B.B.B.B.B.B.B.B.B.B.B.B.B.B.B.B.B.B.B.N.R.E.K.",
"% ; > D.G.I.C.N.C.D.K.F 6 6 6 F H D.C.N.N.N.N.N.N.Z.V.I.E.I.N.B.B.B.B.B.B.B.B.B.B.B.B.B.B.B.B.B.B.B.B.B.B.B.B.B.N.R.E.H.",
"# % ; K.!.L.B.B.B.L.!.E.a d p E.!.W.B.B.B.B.B.B.B.B.B.E.z.E.Z.B.B.B.B.B.B.B.B.B.B.B.B.B.B.B.B.B.B.B.B.B.B.B.B.B.Z.Y.E.H.",
"# # % F E.D.C.N.C.I.L.G.a p a D.L.I.Z.B.B.B.B.B.B.B.Z.I.E.I.N.B.B.B.B.B.B.B.B.B.B.B.B.B.B.B.B.B.B.B.B.B.B.B.B.B.N.R.E.K.",
"# # # : > 5 D.L.I.C.N.b.D.s.J.C.N.Z.B.B.B.B.B.B.B.B.B.N.N.N.B.B.B.B.B.B.B.B.B.B.B.B.B.B.B.B.B.B.B.B.B.B.B.B.B.B.N.Y.E.K.",
"# # # # % , E.!.L.B.B.B.L.d.L.B.B.B.B.B.B.B.B.B.B.B.B.B.B.B.B.B.B.B.B.B.B.B.B.B.B.B.B.B.B.B.B.B.B.B.B.B.B.B.B.B.N.Y.E.K.",
"# # # # * 6 H.K.D.C.N.C.T.E.I.N.B.B.B.B.B.B.B.B.B.B.B.B.B.B.B.B.B.B.B.B.B.B.B.B.B.B.B.B.B.B.B.B.B.B.B.B.B.B.B.B.N.Y.E.K.",
"X # # , 4 4 7 7 7 D.L.I.C.N.N.B.B.B.B.B.B.B.B.B.B.B.B.B.B.B.B.B.B.B.B.B.B.B.B.B.B.B.B.B.B.B.B.B.B.B.B.B.B.B.B.B.N.Y.E.K.",
"# # > , 6 6 6 2 2 E.!.L.B.B.B.B.B.B.B.B.B.B.B.B.B.B.B.B.B.B.B.B.B.B.B.B.B.B.B.B.B.B.B.B.B.B.B.B.B.B.B.B.B.B.B.B.B.Y.E.L.",
"# # 6 6 6 6 4 4 7 S.H D.C.N.N.B.B.B.B.B.B.B.B.B.B.B.B.B.B.B.B.B.B.B.B.B.B.B.B.B.B.B.B.B.B.B.B.B.B.B.B.B.B.B.B.N.M.J.K.D ",
"# # 6 6 4 6 6 4 4 7 e a G.L.I.Z.B.B.B.B.B.B.B.B.B.B.B.B.B.B.B.B.B.B.B.B.B.B.B.B.B.B.B.B.B.B.B.B.B.B.B.B.B.N.I.L.G.x , # ",
". % 6 6 4 4 4 4 3 w p h Q.s.L.B.B.B.B.B.B.B.B.B.B.B.B.B.B.B.B.B.B.B.B.B.B.B.B.B.B.B.B.B.B.B.B.B.B.B.B.B.B.B.L.!.E.b > . ",
"# # > , 6 4 4 e e u h x K.E.D.C.N.N.B.B.B.B.B.B.B.B.B.B.B.B.B.B.B.B.B.B.B.B.B.B.B.B.B.B.B.B.B.B.B.B.B.Z.N.C.U.s.K.b > . ",
"X # # > 6 4 4 r p s b x x c c G.R.I.N.B.B.B.B.B.B.B.B.B.B.B.B.B.B.B.B.B.B.B.B.B.B.B.B.B.B.B.B.B.B.B.Z.I.L.J.c x x b > . ",
"# # # > 6 6 4 r r a v x j v h K.!.L.Z.B.B.B.B.B.B.B.B.B.B.B.B.B.B.B.B.B.B.B.B.B.B.B.B.B.B.B.B.B.B.B.B.G.!.E.j x x b > . ",
"# # # > w 6 3 r r s v x v b b H.E.R.N.B.B.N.N.Z.B.B.B.Z.N.N.B.B.B.B.B.B.B.B.B.N.N.N.Z.N.N.N.Z.N.Z.N.C.G.E.K.b x v C ,   ",
"# # X # 1 6 9 p h s z x z u y K.E.U.N.B.N.I.E.I.N.B.N.I.E.I.N.B.B.B.B.B.B.B.N.I.L.R.Y.R.R.R.Y.R.Y.R.D.a x b x b a i > # ",
"# # X # + e j z b z j b R , $ L.E.Y.B.B.B.L.f.L.B.B.B.L.f.L.B.B.B.B.B.B.B.B.B.L.!.E.E.E.E.E.E.E.E.E.K.$ h R b T w . # X ",
"# # # # # , 2 h b x b u 6 > % F H D.C.Z.C.D.J D.C.N.C.R.!.Y.C.N.N.N.N.N.N.N.A.Y.E.L.K.K.K.K.K.K.K.K.G , 6 w w e , # # # ",
"# # # # # # + g C b C 6 . # # % % : D.R.D., % : D.Y.Y.L.E.L.U.Y.Y.Y.Y.Y.U.Y.R.L.E.K.$ % % ; % % % # > > % % $ $ # @ % # ",
"# # # # # # # * > > , # # # # # # # E.E.E.% # # E.E.E.L.L.L.E.E.E.E.E.E.E.E.W.L.L.J.# # # # # # # # # # # # # # # # # # ",
"# # # # # # # .   . . @ # # # # # ; F K.F ; # * G K.K.H.K.F.H.K.K.H.K.K.K.K.K.K.K.F ; # % # # # # # # # # # # # # # # # "
};
