/* XPM */
static char *xpm_[] = {
/* columns rows colors chars-per-pixel */
"60 60 191 2 ",
"   c #020202",
".  c #090505",
"X  c #060807",
"o  c #0A0905",
"O  c #060609",
"+  c #0A070A",
"@  c #070909",
"#  c #0C0B0C",
"$  c #100F01",
"%  c #120D0D",
"&  c #110708",
"*  c #0E100E",
"=  c #131205",
"-  c #13110F",
";  c #1B1A0E",
":  c #1A100F",
">  c #0E0E11",
",  c #130E11",
"<  c #180F11",
"1  c #0E1011",
"2  c #151212",
"3  c #1B1515",
"4  c #1C1A15",
"5  c #14161B",
"6  c #1B1719",
"7  c #161A1D",
"8  c #1C1A19",
"9  c #121816",
"0  c #201E0F",
"q  c #221616",
"w  c #211A16",
"e  c #201719",
"r  c #231C1B",
"t  c #1F2012",
"y  c #1C201F",
"u  c #222215",
"i  c #25211D",
"p  c #28211E",
"a  c #27291E",
"s  c #2A2B1E",
"d  c #1B1E21",
"f  c #251E21",
"g  c #281F20",
"h  c #262221",
"j  c #2B2523",
"k  c #2D2925",
"l  c #2F2929",
"z  c #312725",
"x  c #312A27",
"c  c #302728",
"v  c #332D2A",
"b  c #392F2E",
"n  c #36312D",
"m  c #39322E",
"M  c #37392D",
"N  c #392F30",
"B  c #373332",
"V  c #3C3432",
"C  c #3E3935",
"Z  c #3F3D39",
"A  c #780E24",
"S  c #413635",
"D  c #413936",
"F  c #403738",
"G  c #443B39",
"H  c #493E3D",
"J  c #45413D",
"K  c #45413D",
"L  c #48423F",
"P  c #4A413E",
"I  c #484540",
"U  c #4A4641",
"Y  c #4C4341",
"T  c #4E4A45",
"R  c #4D4943",
"E  c #504443",
"W  c #504D46",
"Q  c #524E4A",
"!  c #544F4A",
"~  c #524F4A",
"^  c #594E4C",
"/  c #53504A",
"(  c #54514A",
")  c #56534C",
"_  c #55524D",
"`  c #57544D",
"'  c #53524D",
"]  c #58554E",
"[  c #595751",
"{  c #5A5851",
"}  c #5D5A53",
"|  c #5D5A55",
" . c #5D5B55",
".. c #565550",
"X. c #615D56",
"o. c #615E59",
"O. c #61605B",
"+. c #6B6761",
"@. c #676B6C",
"#. c #696C6C",
"$. c #616568",
"%. c #666F71",
"&. c #6E7374",
"*. c #707475",
"=. c #767877",
"-. c #73777A",
";. c #757A7C",
":. c #797C7D",
">. c #797778",
",. c #8A3445",
"<. c #883348",
"1. c #965464",
"2. c #995264",
"3. c #7D807E",
"4. c #797E81",
"5. c #7C8283",
"6. c #788389",
"7. c #848785",
"8. c #83878B",
"9. c #83898B",
"0. c #868B88",
"q. c #848F94",
"w. c #818D99",
"e. c #839099",
"r. c #8E9899",
"t. c #8D9DA6",
"y. c #92A1A8",
"u. c #A6B3BE",
"i. c #FACFAF",
"p. c #EDCEB5",
"a. c #F1CEB8",
"s. c #EBD0B3",
"d. c #F6DEBF",
"f. c #FFDEBE",
"g. c #F3D5BB",
"h. c #E7C5AC",
"j. c #A5B3C1",
"k. c #AFBECD",
"l. c #B3BFCD",
"z. c #AFC1CD",
"x. c #B1C0CE",
"c. c #B4C4D4",
"v. c #B9C9D6",
"b. c #B7C6D9",
"n. c #BCCCDC",
"m. c #B9C8D7",
"M. c #BED0DE",
"N. c #BECDE0",
"B. c #C0CEDC",
"V. c #C1D2DF",
"C. c #C7D9DE",
"Z. c #CADADD",
"A. c #FCDCC5",
"S. c #FFE3C4",
"D. c #FFE8C4",
"F. c #FFF1CE",
"G. c #C4D4E5",
"H. c #CADAE2",
"J. c #C6D7E9",
"K. c #C7D9E9",
"L. c #CADAEB",
"P. c #C9D7E0",
"I. c #D0DFF4",
"U. c #CEE1E5",
"Y. c #D2E3E7",
"T. c #D9E6EC",
"R. c #D6EAEE",
"E. c #D8EAEE",
"W. c #D4E7ED",
"Q. c #CFE2F3",
"!. c #D1E2F4",
"~. c #D7EAF0",
"^. c #DAEBF2",
"/. c #DEEFFF",
"(. c #DEF2F6",
"). c #DEF2F9",
"_. c #EDEFEF",
"`. c #E3EFED",
"'. c #EDF0EE",
"]. c #E6F0EF",
"[. c #E1EFF5",
"{. c #EEEFF1",
"}. c #E1EFF8",
"|. c #E4F4F5",
" X c #E8F6F7",
".X c #E3F6FC",
"XX c #E5F9FF",
"oX c #EBFEFF",
"OX c #EDF7F8",
"+X c #F2FFFF",
"@X c #FCFFFE",
/* pixels */
"# # # # . . .             # # % # . .       .   # # # # # . . O       .           # % X .       . .   .         # % # # ",
"# # # # 2 2 2 4 4 8 4 4 8 # # # # - 2 4 4 8 4 4 - # # # - 2 2 3 4 8 4 4 4 4 8 8 8 # # , 2 4 4 8 3 2 2 3 6 8 8 8 # # # # ",
"# #   2 v V G ' | [ ] } O.3     o j Z o.[ [ | +.B       i m D I { { } | } { ] { +.j   i V {  . .( D G D ) } { +.h   # # ",
"# # 2 i V G R / ` ) ] W ~ i 2 8 j C U ] ) ` W ! C 4 8 3 v V L T ` ~ T T T ( ] ~ ! n 4 v V T T W I C I U ' ../ / m 4 # # ",
". 2 V C L / X.) ( ) ] R G V m U ~  .{ ( ( ) J C J ! C v Z L { { ` T G G C ) | T C L T U J G G G K G ~ o.` ` T V J ~ 4   ",
"X % p k m Z R / ` ) | C j h p v C U T ` ) ) C v B m v z C K U R } J i v m K T G b V m m m V m k x m G R ~ | U v m V 2 . ",
"# # 4 i z m Z W ` ` o.m % 3 e j v C U [ ` [ m j k x v x C K C K o.G & p v V J V j z k k k v k 3 i k V Z ~ | J j l v - . ",
"# # e h x V G W ] T U x 3 r e r i v V U J U j r 8 2 8 h z m G G R m 3 r r v m k e r h 3 2 3 2 , 3 r k m G T m e 3 2 # # ",
"# % r j b D G ' } W J x q r r e r k m G G G h q 3 O 3 r j v J J J m 3 r q z m j q r r , # # # > - e k v D U m q ,   # # ",
"# # 2 8 r v C U ~ J C h 2 3 3 q r x m J C C r 3 2 # 2 3 p k V C C z q 3 3 r h r 3 8 3 2 , % % > 2 3 r z v V k 3 , # # # ",
"# # . # . r v D J V m 8 + # > e h x V U m v 2 @ # , > # 3 r z v v k r 2 # # # # o # X # & % - # # # 3 r 3 3 < # # # # # ",
"# # # # # e h v C k 6 2 % > > 2 3 h z D j 3 2 , 2 < 2 > 2 3 h h j r 2 2 , , # 3 j r i i i - # 2 , % 2 2 h k j h 2 . # # ",
"# # # # # 3 r k m 8 O % 2 , , > 2 8 p m 8 . 2 : 2 < , > # # 3 e r 3 # % 2 - # e V v m m v % % , , % # # j m v V 3   # # ",
"# # # # , 2 2 2 3 2 - % 2 % > > , 2 2 3 2 , 2 2 2 2 , % f k x j 2 % % , % 4 q e r k v v z k r % 2 # 3 8 k v z v j j 2 @ ",
"# # # # 2 % # # # % 2 2 2 % , % # > # # , 3 % 2 2 2 2 % k V m j % 2 - 2 % 4 r e 3 j v x x m z % 2 % 3 r k v x v b V 2 . ",
"% # X # - , % # # % , % # 8 r # # , , , 3 r 3 , < # 3 r k v z z z r # 3 r r e e 3 j z V D H V # 3 r e 4 j x b D D H 3 . ",
"# # # # - 2 2 3 3 3 3 2 # 4 e 3 2 - 2 , 3 r 2 % 2 - 3 r k v v b V h X 3 r e r r r k v D G V l # 3 e r r x v V G V V 2 . ",
"# # % - % 3 r v m v m 8 # # 2 V x + # % # % % % 3 h r 4 j v D D E v . 3 g q 3 i x m G H G 3 # > % # h V G L G E i + # # ",
"# # % , > 3 r h j k n i 8 2 % i r 4 4 4 r e 2 # 2 3 r h v V D V x r # 3 3 p i z V V G b j 2 % , , # 8 h k x c x e % # # ",
"# # 2 % # 3 p 3 3 r z x b 3 %   - V m b b m 3 # % # i b D G Y V + # % % # k V D Y H I 3 . # # # # # # . # # % # , 3 # # ",
"# # # # % 2 2 i k x V m V 4 % 3 4 i j v z v 3 % , # j D D C j e % , 2 % # 4 8 e h g h 2 - r i i i r i h 3 , , 2 % # # # ",
"# # @ # 2 % # k m V G G H 4 # r r 3 i v z v 3 , , . l E G D % # %       # # # # # % # & 2 v m v v b v .     , 3 # . # # ",
"# # # # # # , 2 % h L k 3 2 % 8 r k b C V D 3 # , , 3 e 8 4 % 3 k       j e e 3 , , % 3 r k v v z x x       r % % @ # # ",
"# # # # # # % # O f ^ p . % 2 3 r z b G D G 3 # - 3 % % # # . 2 x X @ # c r r 4 , , % 8 r v v v k k j - 1 2 r & # X # % ",
"# % % # # # 2 % # 8 m 8 , # - r j b V D D G 3 # % 2 2 % 3 3     # @.;.@.#     3 3 2 , 3 r h k k .   1 C.{.C.>     + # # ",
"# # # # . # % # % + . % 2 > , m V G D C G Y e % 2 2 % & 8 p       &.9.&.      3 j 3 # 4 r 3 r v     . .X@X.X2     % # # ",
"# # # # # 4 h i i h h 3 % , , 3 i G D G z r 3 % 2 % 3 3 8 8 # O * >.0.=.1 @ # % 3 , > 3 e q e r 2 1 y T.@XT.1     % # # ",
"# # # # & i V v v v m r # , 2 . 2 G G I r . , 2 2 # 3     + @.&.;.p.d.p.>.&.@.X               > P.[.T.A.S.s.%     # # # ",
"# # X - 8 j v z z x v k j 3 % - , 3 3 3 3 % , # 3 r 8     X -.5.7.f.F.f.3.;.&.                # oX@X+XS.D.i.%     % # # ",
"# # X 2 r j v z z v v v m 8 % 2 , % % % % < , # 3 r e     # &.;.3.p.d.a.7.6.;.5 > * 2 2 > X . 9 Y. X(.g.d.h.#     # # # ",
"# # r e e e q k v z z z v 3 , # 3 b k v 8 # , 2 , # r     O &.5.;.:.;.7.E.|.(.R.~.T.~.^.Y.;.#.&.5.5.5.3.7.=.@     X # # ",
"@ % r e r r r x b v b v m 3 % % 3 z v m r 3 3 3 2 # 8     @ @.;.&.%.$.-.oX@X+X+X@X@X+X@XoX5.&.;.*.&.&.&.;.%.X     # # # ",
"# # r 4 3 i x D G D D G Y 8 # r r 3 r x x v 6 % 2 3 %     @ ;.9.5.5.;.9.~.|..X).(.(.XXoX(.9.;.5.;.;.;.;.5.&.@     # # # ",
"# # 3     . v C D D G m k 3 # 3 q f k V N m 6 % 2 - ,     2 U.OX}.).|.T.8.;.5.5.;.8.).oXXX(.|.~.5.&.;.;.5.&.@     # # # ",
"# # #       G D C D E r   % , # 2 x m G G R e % , # #       (.@XoXoX@XoX:.#.&.&.#.;..X+XoXoX+X.X:.@.&.;.5.&.        # # ",
"# # # # # # V V F b r e 3 , % % 3 m V D k e 3 # 3 i r * - d ~.+XXX(.|.R.5.&.;.;.&.5.~..X).XXoX).9.;.5.;.5.&.# # . 8 # # ",
"    O @.:.@.#   # j   3 p 3 2 # 6 G . O           O - C.[.R.XXoX).9.;.5.;.;.;.;.;.;.5.;.9.(.oXXX(.|.T.5.-.;.*.;.#.#     ",
"    # 4.r.:.      3 % 2 3 - , 2 2 e                   .X@X+XXXoX(.;.#.&.4.5.5.4.5.:.*.@.;.(.oXXXoX+X.X9.-.4.8.q.4.#     ",
"    . @.5.#.5 2 > # # % % % % < % & 1 # 1 > 1 > # # 7 R.+XXXXXoX(.5.&.;.*.&.&.*.&.*.-.&.5.).oXXXXXoX).;.#.*.&.;.#.@     ",
"# # X O # 3 Z.'.P.>     8 r e     > Z.|.T.~.E.W.c.k.c..XoXXXXXoX).5.;.*.a w u u w a *.=.5.).oXXXXX+XT.n ; u u u u       ",
"# # #     # oX@XoX.     n n x     . .X@X+X+X+X+XK.G.K..XXXXXXXoX).;.&.#.; o = = $ ; #.&.;..X+XoXXX+XR.;   o o $ o       ",
"# # #     * Z._.Z.7 2 - j z j # # 7 ~.+XXXXXXX.Xn.m.M..XXXXXXXoX.X9.5.;.k 4 u u 4 k ;.5.8.T.|.[.XXoX^.M u k k s a       ",
"# # # # 2 % > 2 d H.{.P.*   > j.m.c..XXXXXXXXX.Xn.m.M..XoXXXXXXXXX(..XR.;.#.&.&.#.;.R.|.T.1.,.2.^.oX.X~.T.T.^.].H.#     ",
"# # # # % 3       +X@XoXX     v.!.K..XXXXXXXoX.Xn.c.n..XXXXXXXXXXXoX+X.X5.&.-.;.&.5..X+X|.,.A <.^.oXoXoX+X+X+X@X).2     ",
"# # # # % 3 O   > P._.P.7 > 7 c.G.n..XXX.XXXoX.XG.m.V..XoXXX.XXX.XXXoX(.9.;.5.5.;.9..XoX[.1.<.1.[.oXXX.XXXXXXX+XR.#     ",
"# # # 2 r e e 8 3 - # 8 j.m.x.n.m.B..XoXXXXXXXXX.X.X.XXX.XXXXXXXXXXXXXXX(.(.(.(.(.(.XXXXXX^.^.[.XXXXXXXXXXXXXX+X~.*     ",
"# # 2 3 r e e r 4       G./.!.n.m.V..XoXXXXXXX.XoXoXoXoXoXoXXXXXXX.XXXXXoXoXoXoXoXoX+X+X+X+X+X+X+X+X+XXXXXoX+X@X.X1     ",
"# # r r r r r r q     # j.m.l.m.n.n..X.X.XXXXXXXXXXXXX.X.X.XXXXXXXXX.XXXXXXXXXXXXX.X^.R.~.~.R.~.~.~.~.XX.XXX~.`.Z.1     ",
"# # r r e r r e e r r j # # 8 z.J.n.B.n.G..XoXXXXXXX.XV.m.G..XXXXXXXXXXXXXXXXXXXoX^.M u a s s s s u M ~.@X~.d * 2 v - . ",
". % r r e e e e 3 p x V       m.!.G.n.b.n.XXoXXXXXoX.Xn.c.n.XXoXXXXXXXXXXXXXXXXX+XT.u   = = = = = . u XX@X.X      G 2   ",
"# # 2 3 r e e j j z V V + . > u.m.x.n.n.B..XXX.X.XXX.Xn.b.n..XXX.XXXXXXXXXXXXXXX+X~.a = 4 4 w 4 ; = s H.'.Z.#   X D 2 . ",
"X # # 2 r r e k v m G D V V b 1 > 8 x.G.n.M.M.n.M.M.M.n.n.n.n.n.V..XoXXXXXXXXXXX+X^.k = 4 4 4 t t 0 4 2 1 2 V V V G 3 . ",
"# # # 2 r r e k x b D D C D V       k.J.n.G.G.G.N.n.n.m.n.n.m.b.n.XXoXXXXXXXXXoX+X^.k = t w w t t u 4       V D D G 2 . ",
"# # # 2 j r q j k b G D D H D     # x.K.m.l.x.x.m.v.v.n.n.n.n.m.M..XXX.X.X.X.X.XoXR.a = ; 4 ; 4 4 4 ; O   . V D G Y 3   ",
"# # X # 6 r p v b V D D C v h     # k.Q.x.7 # 3 e.t.t.m.n.n.n.n.n.n.M.M.M.M.M.M.K.c.*               . j V D D G b z , . ",
"# # X # + h V D G D C G Y 3 .     > m.).m.      e.y.t.G.L.J.J.K.G.G.G.G.G.G.G.G.I.v.#                 X V Y H E h . # # ",
"# # # # # 3 8 V G D G z r - #     # j.G.j.#   @ 6.w.w.k.c.k.k.k.k.k.k.k.k.k.k.k.m.u.#                 % r h g j 3 # # # ",
"# # # # # # + B L G Y r   # # # # X # > > # # . # # # # # # # # # # # # # # # # # #   . # # # X X . # 2 % & & & # @ % # ",
"# # # # # # # - 2 2 3 # # # # # # #       # # #                                     # # # % # # # # # # # # # # # # # # ",
"# # # # # # # . . . . @ # # # # # #       # # #                                     # # # % # # # # # # # # # # # # # # "
};
