/* XPM */
static char *xpm_[] = {
/* columns rows colors chars-per-pixel */
"60 60 184 2 ",
"   c #020202",
".  c #0A0605",
"X  c #060806",
"o  c #0B0A06",
"O  c #060608",
"+  c #0A0709",
"@  c #070909",
"#  c #0C0B0C",
"$  c #100E01",
"%  c #120D0D",
"&  c #0E100E",
"*  c #141305",
"=  c #13100F",
"-  c #1A140D",
";  c #1A1B0E",
":  c #0E0E11",
">  c #130E11",
",  c #180F11",
"<  c #0E1111",
"1  c #151212",
"2  c #1B1515",
"3  c #1C1916",
"4  c #141618",
"5  c #161A1C",
"6  c #1D1A19",
"7  c #1B1718",
"8  c #211917",
"9  c #201719",
"0  c #231C1B",
"q  c #281E1C",
"w  c #231717",
"e  c #1E2112",
"r  c #222317",
"t  c #25211D",
"y  c #29201E",
"u  c #2A2A1E",
"i  c #27291E",
"p  c #1B1F20",
"a  c #251E20",
"s  c #281F20",
"d  c #262221",
"f  c #2B2523",
"g  c #2D2925",
"h  c #2F2929",
"j  c #302626",
"k  c #312A26",
"l  c #302728",
"z  c #332D2A",
"x  c #392F2E",
"c  c #2F3325",
"v  c #36312D",
"b  c #39322E",
"n  c #383A2E",
"m  c #382F30",
"M  c #373332",
"N  c #3C3432",
"B  c #3E3935",
"V  c #3F3D39",
"C  c #750F25",
"Z  c #413635",
"A  c #413936",
"S  c #413738",
"D  c #443C39",
"F  c #493D3D",
"G  c #45413D",
"H  c #45413D",
"J  c #4A423F",
"K  c #4A3E40",
"L  c #484540",
"P  c #4A4641",
"I  c #4B4341",
"U  c #4E4A45",
"Y  c #4D4943",
"T  c #504444",
"R  c #504D46",
"E  c #524E4A",
"W  c #544F4A",
"Q  c #524F4A",
"!  c #594E4C",
"~  c #53504A",
"^  c #54514A",
"/  c #56534C",
"(  c #55524D",
")  c #57544D",
"_  c #53524D",
"`  c #58554E",
"'  c #595751",
"]  c #5A5851",
"[  c #5D5A53",
"{  c #5D5A55",
"}  c #5D5B55",
"|  c #565550",
" . c #615D56",
".. c #615E59",
"X. c #61605B",
"o. c #5E6668",
"O. c #6B6761",
"+. c #676B6D",
"@. c #696C6C",
"#. c #6A6D72",
"$. c #6E7374",
"%. c #6D7578",
"&. c #727475",
"*. c #74777B",
"=. c #757A7C",
"-. c #787B7D",
";. c #747877",
":. c #8A3345",
">. c #8C3349",
",. c #98515F",
"<. c #965264",
"1. c #7E807D",
"2. c #77807F",
"3. c #7B7E81",
"4. c #777C80",
"5. c #7C8283",
"6. c #76858A",
"7. c #7F9098",
"8. c #878686",
"9. c #83868A",
"0. c #83898B",
"q. c #868C89",
"w. c #848E94",
"e. c #819095",
"r. c #8F9897",
"t. c #8E9BA1",
"y. c #9CABB2",
"u. c #A5B2BF",
"i. c #A9B3BE",
"p. c #EDCEB5",
"a. c #F7CEB2",
"s. c #F6DEBF",
"d. c #F4D6BC",
"f. c #E6C6AD",
"g. c #A3B3C1",
"h. c #AFBFCD",
"j. c #B2BFCE",
"k. c #B1C0CD",
"l. c #B4C3D2",
"z. c #B9C6D6",
"x. c #B9C9D6",
"c. c #BCCCDC",
"v. c #B7C5D8",
"b. c #BED0DE",
"n. c #BECEE1",
"m. c #C1CEDF",
"M. c #C1D1DF",
"N. c #C7D9DE",
"B. c #C8DADE",
"V. c #FEDEC0",
"C. c #F7DEC0",
"Z. c #FFE4C4",
"A. c #FEF0CB",
"S. c #C3D4E4",
"D. c #C9DAE1",
"F. c #C6D5E8",
"G. c #C6D8E9",
"H. c #C9DAE9",
"J. c #C7DAE0",
"K. c #D1E2E7",
"L. c #D5E4EA",
"P. c #D6EAEF",
"I. c #D9E9EE",
"U. c #CFE2F5",
"Y. c #D1E2F5",
"T. c #D7EAF1",
"R. c #DAEBF2",
"E. c #D7E9FD",
"W. c #DEF1F7",
"Q. c #DEF3FA",
"!. c #DDF8FF",
"~. c #E3EFEF",
"^. c #F0EFED",
"/. c #E1EEF5",
"(. c #E0EEF9",
"). c #F0EEF1",
"_. c #E3F3F4",
"`. c #E2F5FC",
"'. c #E5F9FE",
"]. c #EBFEFE",
"[. c #E7F7F7",
"{. c #F2FFFE",
"}. c #FCFFFE",
"|. c gray94",
/* pixels */
"# # # # . . .             # # % # . .       .   # # # # # . . O       .           # % X .       . . O . O       # % # # ",
"# # # # 1 1 1 3 3 6 3 3 6 # # # # = 1 3 3 6 3 3 = # # # = 1 1 2 3 6 3 3 3 3 3 3 6 # # > 1 3 3 6 2 1 1 2 4 6 6 6 # # # # ",
"# #   1 z N D _ { ' ` [ X.2     o f V ..' ' { O.M       t b Z L ] ] [ { [ ] ` ] O.f   t N ] } } ^ A D A ^ ] ] O.d   # # ",
"# # 1 t N D Y ~ ) / ` R Q t 1 6 f B P ` / ) R W B 3 6 2 z N J U ) Q U U U ^ ` Q W v 3 z N U U R L B L P _ | Q ~ b 3 # # ",
". 1 N B J ~  ./ ^ / ` Y D N b P Q } ] ^ ^ / G B G W B z V G ] ] ) U D D Z / { U B J U P G D D D H D Q ..) ) U N G Q 3   ",
"X % y g b V Y ~ ) / { B f d y z B P U ) / / B z M b z j B H P Y [ G t z b H U D z N b b b N b g k b D Y W { P z b N 1 . ",
"# # 3 t j b V R ) ) ..b % 2 9 f z B P ' ) ' b f g k z k B G B H ..D % y z N G N f j g g g z g 2 t g N V Q { G f h z = . ",
"# # 9 d k N D R ` U P k 2 0 9 0 t z N P G P f 0 6 1 6 d j b D D Y b 2 q 0 z b g 9 0 d 2 1 2 1 > 2 q g b D U b 9 2 1 # # ",
"# % 0 f x Z D _ [ R G k 8 q 0 9 0 g b D D D d 8 2 O 2 q f z G G G b 2 0 8 j b f 8 0 0 > # # # : = 9 g z Z P b w >   # # ",
"# # 1 6 0 z B P Q G B d 1 2 2 8 0 k b G B B 0 2 1 # 1 2 y g N B B j 8 2 2 0 d 9 2 3 2 1 > % % : 1 2 q j z N g 2 > # # # ",
"# # . @ . 0 z Z G N b 6 + # : 9 d k N P b z 1 @ # > : # 2 0 j z z g q 1 # # # # o # X # % % = # # # 2 q 2 2 , # # # # # ",
"# # # # # 9 d z B g 7 1 % : : 1 2 d k Z f 2 1 > 1 , 1 : 1 2 y d f 0 1 1 > > # 2 f 0 t t t = # 1 > % 1 1 d g f d 1 . # # ",
"# # # # # 2 0 g b 6 O % 1 > > : 1 6 y b 6 . 1 - 1 , > : # # 2 9 0 2 # % 1 % # 9 N z b b z % % > > % # # f b z N 2   # # ",
"# # # # > 1 1 1 2 1 = % 1 % : : > 1 1 2 1 > 1 1 1 1 > % a g k f 1 % % > % 2 8 9 0 g z z j g q % 1 # 2 6 g z j z f f 1 @ ",
"# # # # 1 % # # # % 1 1 1 % > % # : # # > 2 % 1 1 1 1 % g N b f % 1 = 1 % 3 q 9 2 f z k k b j % 1 % 2 q g z k z x N 1 . ",
"% # X # = > % # # % > % # 6 0 # # > > > 2 q 2 > , # 2 0 g z j j j 0 # 2 0 0 9 9 2 f j N S F N # 2 q 9 3 f j x Z Z F 2 . ",
"# # # # = 1 1 2 2 2 2 1 # 3 9 2 1 = 1 > 2 0 1 % 1 1 2 0 g z z z N d o 2 q 0 9 0 0 g z S D N h # 1 9 0 t k x N D N N 1 . ",
"# # % = % 2 0 z b z b 6 # # 1 N k o # % # % % % 2 d 0 3 f z S Z T z . 2 y 8 3 t k b D F D 2 # : % # d N D J F Y t o # # ",
"# # % > : 2 0 d f g v t 6 1 % t q 3 3 3 0 9 1 # 1 2 0 d z N S N z 0 # 2 2 q t g N N D x f 1 % > > # 6 d g l j k 9 % # # ",
"# # 1 % # 2 y 2 2 q j k x 2 %   = N b x x b 2 # % # t x B D I N o # % # # g N B I F L 2 . # # # # # + . # % % # > 2 # # ",
"# # # # % 1 1 t g k N b N 3 % 2 3 t f z j z 2 % > # d S Z S f 9 = 1 1 % # 3 9 0 d s s 1 = 0 t t d 0 q d 2 % 1 1 % # # # ",
"# # @ # 1 % # g b N D D F 3 # q q 2 t z j z 2 > > . h T D B % # % > > % # # # # # % # % 1 z b z z x x b 2 o % 2 # . # # ",
"# # # # # # > 1 % d J g 2 1 % 6 0 g x B N Z 2 # > > 2 9 6 3 % 2 g f g f f 0 3 2 > > % 2 0 g z z j z j z f g 0 % % # # # ",
"# # # # # # % # O a ! y . % 1 2 0 j x D S D 2 # = 1 % % # # o 1 b x z x x y q 3 > > % 6 q z z z z k z k z b t # # @ # # ",
"# % % # # # 1 % # 6 b 6 > # = q f x N Z S D 2 # , 1 > 1 2 2 3 0 g .   . g 9 2 2 2 2 % 3 0 d g j k k j .   O t 0 1 # # # ",
"# # # # . # % # % + . % 1 : > b N D Z B D I 9 % % 1 % # 3 q b b j       b 2 . 2 f 2 % 6 0 2 0 x z k g       z N q % # # ",
"# # # # # 3 d t t d d 3 % > > 2 t D S D j q 2 % 1 % 2 2 9 0 q d f o @ # 2 1 # 1 2 > % 9 0 9 0 s d j f 1 1 1 f z 6 % # # ",
"# # # # % t N z z z b 0 # > 1 . 1 D D L q . > 1 = % 6 q 0 6     # +.4.@.O     > # # # 6 0 9 6 2 .   & B.^.B.<     % # # ",
"# # . = 6 f z j j k z g f 2 % = 1 2 2 2 2 % > # 2 0 8 8 f g       $.0.$.      f g 6 % 1 1 2 q f       !.}.'.<     # # # ",
"# # X 1 q f z j j z z z b 6 % 1 > % % % % , > # 2 0 q 8 g k # # & ;.q.;.< . X g b 9 % # # 6 q g = & 6 P.}.L.:     # # # ",
"# # 9 9 9 9 8 g z j j j z 2 > # 2 x g z 6 # > 1 1 # 0 .   # @.$.-.p.s.p.;.%.+.X .             < D._.I.V.Z.p.#     . # # ",
"@ % q 9 0 0 0 k x z x z b 2 % % 2 j z b 0 2 2 2 > # 6     X =.5.8.V.A.V.5.=.$.                # '.}.}.Z.Z.a.#     @ # # ",
"X # q 9 2 f z N D Z S D J 8 # 0 q 2 0 j k z 2 % 1 1 %     # $.=.1.p.s.p.9.5.-.4 & < : # & @ . 4 K.[._.d.C.f.%     # # # ",
"# # 2 9 y j b B S S D x j 1 # 2 6 q g b b b 2 % > 1 %     @ $.3.=.1.-.8.R.[.R.T.R.T.P.R.K.=.+.&.5.5.3.1.8.;.@     # # # ",
"# # # 0 B S D S S D T q   % > # 1 z b F F Y 9 % % o #     O @.=.$.#.o.*.].}.{.{.}.{.{.}.].5.&.;.&.$.$.%.=.#.X       # # ",
"# # @ 1 2 h D S D x a 9 2 1 > # 2 b b D j 9 1 # 2 d 0     @ =.0.5.5.-.0.T.`.W.W.W.Q.'.].W.0.-.5.=.=.=.=.5.$.X     6 # # ",
"# # X     . D Z L g   2 d 2 =     . . O         6 N z     # K.[.W.W.[.P.0.-.5.5.=.0.`.].'._.`.P.5.$.-.=.5.$.@     z 1 . ",
"# # #       6 6 0 2 = = 2 2 1                   9 0 f       W.}.].{.}.].=.@.&.$.+.-.`.{.].].{.'.=.+.$.=.5.&.      Z 1 O ",
"# # O . # X # # % % o % # % % : & < : # # : : # 3 2 t < < p P.{.'.Q._.T.5.$.=.=.$.5.P.[.W.'.].`.0.=.5.=.5.$.# # # D 1 . ",
"    O +.4.@.@     1 9 6     & B._.P.P.P.P.l.z.u.#   1 B.~.P.'.].`.0.=.3.=.=.=.=.=.=.5.=.0.W.].'.Q._.P.5.$.=.$.=.+.X     ",
"    # 4.r.4.      3 N z     . Q.}.{.{.{.{.H.Y.x.    . `.}.].'.].W.=.+.$.4.5.-.4.5.4.$.+.=.W.].'.].{.'.9.;.2.9.w.4.#     ",
"    . +.4.@.4 1 : t g f # : 5 R.{.'.'.].`.c.S.l.6 # 5 R.{.'.'.].W.5.&.=.&.$.&.$.&.&.=.$.5.W.].'.'.].W.4.@.&.&.=.@.X     ",
"# # # @ @ 4 B.).D.<   # u.v.l.`.'.'.'.'.`.c.c.x.l.h.l.`.].'.'.].W.5.=.&.i 3 r r e u &.=.5.W.].'.'.{.R.c - r r r r       ",
"# # #     # {.}.].X     x.Y.H.`.'.'.'.'.`.c.z.x.F.F.H.'.'.'.'.].W.=.$.@.; $ * * $ ; @.$.=.'.].].'.{.P.;   o o $ o       ",
"# # @     & N.|.D.5 : 6 k.S.n.`.].'.'.'.`.M.c.c.c.x.M.`.'.'.'.].`.0.5.=.u 3 r r 3 u =.4.0.P._./.'.{.R.n e g u g i       ",
"# # # 1 9 2 < > 5 i.x.j.x.x.c.`.'.'.'.'.'.`.'.`.b.v.c.'.'.'.'.'.'.W.`.P.=.@.$.$.#.=.T.[.I.<.>.<.R.].`.R.P.T.P._.B.:     ",
"# # = 2 0 9       S.Q.Y.n.x.b.'.].].'.'.'.'.].'.c.v.c.'.].'.'.'.'.].{.'.5.$.=.*.$.5.'.}.`.:.C :.R.].'.].{.{.}.}.].=     ",
". # 0 0 9 9     # g.x.h.c.c.c.`.'.`.'.'.'.'.'.`.S.x.S.`.'.`.'.'.'.'.].Q.0.=.5.5.=.0.Q.].(.,.:.<./.].'.'.'.'.T.~.N.&     ",
"# # 0 9 9 0 3 9 3 # : 4 k.F.c.b.c.S.`.'.'.'.'.'.`.'.Q.S.c.S.`.'.'.'.'.'.W.W.W.W.W.W.'.'.'./.R./.'.'.'.'.{.R.6 = 1 z = . ",
"# # q 0 9 9 0 9 2       x.Y.F.c.v.c.'.].'.'.'.].].].'.c.v.c.'.].'.'.'.'.].].].].].].{.{.{.{.{.{.{.{.{.{.}.`..     D 1 O ",
"# # 1 2 q 9 9 f d .   : g.x.j.c.c.b.Q.'.`.`.`.`.`.'.Q.c.x.c.`.`.`.'.'.'.'.'.'.'.'.'.R.R.R.R.R.P.R.R.P.P.~.D.1 . X S 1 . ",
"X # # 1 0 0 9 g z z S b : # 5 k.F.c.c.c.n.m.c.b.c.c.c.c.x.c.b.c.M.`.].'.'.'.'.'.].R.n r u g g u g g u 1 < 1 N N N D 2 . ",
"# # # 1 0 0 9 g g x D S O     h.F.c.S.F.S.c.c.c.F.S.S.c.c.c.x.v.c.'.].].'.'.].].}.'.r . * * * * * * *       N S S D 1 . ",
"# # . 1 f 9 2 f g x D N O   # k.G.c.l.j.j.x.x.x.k.k.j.c.n.x.c.x.c.`.'.`.`.'.`.I./.N.u * ; 3 3 3 ; 8 3 .   @ N B D I 2 O ",
"# # X % 2 0 d z b b Z N O   # j.U.l.5 # 4 e.y.e.2 # 5 k.F.c.x.c.c.c.c.M.c.H.l.5 # &                   f N B S Z x j > . ",
"# # X # + f N Z D S B S     # c.Q.x.      7.y.e.      x.Y.F.F.G.G.S.F.F.F.U.z.                        + N T F T d . # # ",
"# # # # # 2 6 N D S D g O   # g.F.u.#   . 6.t.6.#   : i.x.h.j.h.k.h.h.h.j.x.u.&                       % 0 d s f 2 # # # ",
"# # # # # # + M J D I 0   @ # # : # # # # @ # # X # # # # : # # # # : # # # : N K 2   X # # # # # . # 1 % % % % # @ % # ",
"# # # # # # # = 1 1 2 # # # #       # # #       # # #                         1 2 # # # # # # # # # # # # # # # # # # # ",
"# # # # # # # . . . . @ # # #       # # #       # # #                           . # # # # # # # # # # # # # # @ # # # # "
};
