/* XPM */
static char *xpm_[] = {
/* columns rows colors chars-per-pixel */
"60 60 185 2 ",
"   c #020202",
".  c #0A0605",
"X  c #060807",
"o  c #0A0906",
"O  c #070709",
"+  c #0A0709",
"@  c #070909",
"#  c #0C0B0C",
"$  c #120F02",
"%  c #120D0D",
"&  c #0E100E",
"*  c #141404",
"=  c #13110E",
"-  c #1A1C0D",
";  c #1A100F",
":  c #0E0E10",
">  c #120E11",
",  c #180F11",
"<  c #0E1111",
"1  c #151212",
"2  c #1A1515",
"3  c #1B1916",
"4  c #1B1718",
"5  c #15191C",
"6  c #1C1A1A",
"7  c #161719",
"8  c #211616",
"9  c #211A16",
"0  c #201718",
"q  c #231C1B",
"w  c #281E1C",
"e  c #232316",
"r  c #25211E",
"t  c #29211E",
"y  c #29291D",
"u  c #26281B",
"i  c #281F20",
"p  c #262121",
"a  c #2B2523",
"s  c #2E2926",
"d  c #2F2A29",
"f  c #302625",
"g  c #302A27",
"h  c #302728",
"j  c #332D2A",
"k  c #382E2D",
"l  c #2D3025",
"z  c #36312D",
"x  c #39322E",
"c  c #373332",
"v  c #3C3432",
"b  c #3E3A35",
"n  c #3F3D39",
"m  c #791328",
"M  c #413636",
"N  c #413936",
"B  c #403738",
"V  c #443C39",
"C  c #493D3D",
"Z  c #45413D",
"A  c #45423C",
"S  c #48423F",
"D  c #4A413E",
"F  c #484540",
"G  c #4A4641",
"H  c #4C4441",
"J  c #4E4A45",
"K  c #4D4943",
"L  c #504D46",
"P  c #524E4A",
"I  c #544F4A",
"U  c #524C49",
"Y  c #524544",
"T  c #53504A",
"R  c #54514A",
"E  c #56534C",
"W  c #55524D",
"Q  c #57544D",
"!  c #53514C",
"~  c #58554E",
"^  c #595751",
"/  c #5B5851",
"(  c #595951",
")  c #5D5A53",
"_  c #5D5A55",
"`  c #5D5B56",
"'  c #565550",
"]  c #615D56",
"[  c #615E59",
"{  c #61605B",
"}  c #6B6761",
"|  c #666C6D",
" . c #696D6D",
".. c #6A6F72",
"X. c #6E7474",
"o. c #6F7579",
"O. c #717475",
"+. c #797977",
"@. c #75767A",
"#. c #757A7C",
"$. c #787C7D",
"%. c #747877",
"&. c #8A3547",
"*. c #8A354A",
"=. c #944F62",
"-. c #965162",
";. c #7B817F",
":. c #7A7E81",
">. c #7B8283",
",. c #76848B",
"<. c #7C898E",
"1. c #79848A",
"2. c #7F8C93",
"3. c #838684",
"4. c #83878B",
"5. c #82898B",
"6. c #818C95",
"7. c #858F98",
"8. c #859296",
"9. c #85929B",
"0. c #8B969A",
"q. c #8C9BA2",
"w. c #92A3A7",
"e. c #95A5AB",
"r. c #9CADB2",
"t. c #E6C6AD",
"y. c #EECEB6",
"u. c #EFD0B3",
"i. c #F6DDBF",
"p. c #FEDEBF",
"a. c #F6D3B8",
"s. c #FFE1BF",
"d. c #A6B5C1",
"f. c #A8B5C3",
"g. c #AEBFCD",
"h. c #B2BFCF",
"j. c #AFC1CE",
"k. c #B2C1CE",
"l. c #AFC1D1",
"z. c #B2C1D1",
"x. c #B8C8D7",
"c. c #B7C8D9",
"v. c #BCCCDC",
"b. c #B6C7D9",
"n. c #BED0DE",
"m. c #BFD0E0",
"M. c #CADCDF",
"N. c #F9DEC3",
"B. c #FFE5C3",
"V. c #FFEDC8",
"C. c #C4D5E4",
"Z. c #CADBE2",
"A. c #C5D6E9",
"S. c #C6D9E9",
"D. c #CCDCEC",
"F. c #C8D5E8",
"G. c #CDE0EF",
"H. c #D3E5EB",
"J. c #DAE7EE",
"K. c #D6EAEE",
"L. c #D9EBED",
"P. c #D0E3E7",
"I. c #DCF0EF",
"U. c #CEE0F1",
"Y. c #D0E1F3",
"T. c #D7EAF0",
"R. c #D9EBF2",
"E. c #D7ECFF",
"W. c #D9EBFD",
"Q. c #DEF1F6",
"!. c #DEF2F9",
"~. c #DFF8FE",
"^. c #EEF0EF",
"/. c #E1F1EE",
"(. c #E0EEF4",
"). c #E6EFF4",
"_. c #E3F3F4",
"`. c #ECF0F1",
"'. c #E3F5FC",
"]. c #E5F9FF",
"[. c #EBFEFE",
"{. c #E4F8F7",
"}. c #F3FFFF",
"|. c #FDFFFE",
" X c #F3F7F8",
/* pixels */
"# # # # . . .             # # % # . .       .   # # # # # . .         .           # % X .       . .   .         # % # # ",
"# # # # 1 1 1 3 3 6 3 3 6 # # # # = 1 3 3 6 3 3 = # # # = 1 1 2 3 6 3 3 3 3 3 3 6 # # > 1 3 3 6 2 1 1 2 5 6 6 6 # # # # ",
"# #   1 j v V W _ ^ ~ ) { 2     o a n [ ^ ^ _ } c       r z N F / / ) _ ) / ~ / } a   r v / ` [ R N V N R ) / } p   # # ",
"# # 1 r v V K T Q E ~ L P r 1 6 a b G ~ E Q L I b 3 6 2 j v S J Q P J J J R ~ P I z 3 j v J J L F b F G W ' T T z 3 # # ",
". 1 v b D T ] E R E ~ K V v z G P ` / R R E A b A I b j n S / / Q J V V N E _ J b D J G A V V V A V P [ Q Q J v A P 3   ",
"X % t s x n K T Q E _ b a p t j v G J Q E E b j c x j g b A G K ) A r j z A J V k v x z z v z s g x V K I _ G j x v 1 . ",
"# # 3 r g x n L Q Q [ k % 4 q a j b G ^ Q ^ z a s g j g b A b A [ V % t j v A v a g s s s j s 2 r s v n P _ A a g j = . ",
"# # q p g v V L ~ J G g 2 q q q r j v G A G a q 6 1 6 p g x V V K z 2 q q j x s q q p 2 1 1 1 > 2 q s z V J x q 2 1 # # ",
"X % q a z b A R _ P V g q q q 3 q s z V V V p 9 2 . 2 q s j V A A z 4 q 0 g x a 0 q q > # # # : = q s j N G z 8 >   # # ",
"# # 2 6 q j b G P A M p 1 4 2 0 q g x A b v q 2 1 # 1 2 t s v v b j 8 0 2 q p q 2 3 2 1 > % % : 1 2 q f j v s 4 > # # # ",
"# # . # . q j b A v z 6 @ # : q p g v G x j 1 # # > : # 2 q g g j a q 1 # : # # o # X # % % = # # # 2 q 2 2 , # # # # # ",
"% # # # # q p j v s 6 1 : > > 1 2 r f N a 2 1 > 1 > > : 1 2 i p a q 1 1 > % # 2 a q r r r = # 1 > % 1 1 p s a p 1 . # # ",
"# # # # # 2 q s k       = > % : 1 6 t v 4 . 1 ; 1 1 >       2 0 q 2 # 1 1 % # q v j z z j % % > > % # # a x j v 2   # # ",
"# # # # : 1 1 1 2       = > % # > 1 1 2 1 > 1 1 1 1 >       s a % 1 > > % 3 0 q q s j j g s q % 1 # 2 6 s j g j a a 1 @ ",
"# # # # 1 % # # # : # : > > = % # : # # % 1 % 1 > > > . X # g a % 1 , % % q q q 4 a j g g x g % 1 % 4 q s j g j k v 1 . ",
"% # X # = %     # Z.^.M.#     # # > 1 > 4 q 1 >     . | $. .#     q # 2 q q q q 4 a g v M C v # 1 q q 3 a g k N N C 2 . ",
"# # # % % %     # ~.|.'..     2 2 % % > 2 q 1 1       X.4.o.      p o 2 q q q q q s j M V v d # 1 q q r g k v V v v 1 . ",
"# # = = % 2     # K.|.J.6 # # j s . # % # # % % X . # +.5.+.# . # s . 2 q q 2 t g x V C V 1 # : % # p v V D C K r . # # ",
"# # > = # 2     % y.B.N.L._.Z.:               O | X.+.y.i.y.%.X. .+     2 r t s v v V k a 1 % > > # 6 p s h g g 0 % # # ",
"# # 1 > # 2     o a.B.s.}.|.].#                 @.:.3.p.V.p.3.>.%..     # s v N H C F 2 . # # # # # + . # % % # > 2 # # ",
"# # # # > 1     % t.N.a.Q.{.H.7 O @ : # < % & 2 X.#.:.u.i.u.;.#.X.O     % 2 q q p i i 1 = q r r p q q p 1 % 1 1 % # # # ",
"# # X # 1 #     X %.3.>.>.>.:.X. .#.P.I.T.T.Q.P.>.O.+.:.>.$.#.>.X.O     # # # # # % # % 1 j z j j k k x 4 o % 2 # . # # ",
"% # # # # #     . ..#.O.X.X.o.:.#.4.[.}.}.[.}.[.$. .O.o.o.o.%.:.X..     a q q 2 > > % 4 q g j j g j g j a s q % % # # # ",
"# # % # # %     X X.:.#.#.%.#.%.O.>.Q.[.].].[.!.4.$.>.#.%.%.%.>.X..     j p q 0 > > % 6 q j j j j g j g j x r # # @ # # ",
"# # % # # #     . X.>.#.%.#.#.%.O.>.!.[.].].].]._.{.T.>.X.+.#.>.X..     s 6 2 4 2 1 % 4 q p a g d g g g j j a q 1 # # # ",
"# # # # # #       X.:.#.%.%.#.X. .$.Q.[.].[.[.[.}.}.[.$. .X.O.#. .      x 2 . 2 a 4 % 0 q 4 q k j g j g j s j v q % # # ",
"% # # # # 2 # X : X.>.%.#.%.#.>.$.5.!.[.]._.Q.Q.Q.{.T.4.#.>.>.4.#.2 % < 2 1 % , 2 1 # 4 q 3 q q a j g g j g j k q % # # ",
"% # #     # | %.X.%.%.%.#.X.>.K.{.Q.].[.Q.4.$.>.>.$.4.R.{.Q.Q.!.!.R.(.Z.:     % # # # q q       q j s g s g s j 6 % # # ",
"# # .     . @.>.>.:.:.:.O. .$.].}.[.[.}.].>.O.@.X. .:.[.}.[.[.[.[.}.|.{.<     p s 6 # > 1       g N b v b v M V i % # # ",
"# # #     . X.>.%.O.X.X.>.$.4.!.[.]._.{.K.$. .O.%.@.>.R.{.!.].].].].[.T.#     g v q # # # O # # j B b N M V M V q % # # ",
"@ # q     . X.>.O.y * l H.'.Q.].[.Q.5.;.$.y - y X.:.%.>.$.4.Q.[.].].}.T.&     j K i     + | $.| #   . v V F j % # @ # # ",
". % q     .  .:.X.9 o u Q.}.[.].[.Q.#.X.X.9 * 3 X.:.%.X. .$.Q.[.].].[.T.#     j M q     @ $.0.:.      N x v p # # # # # ",
"+ # w     . @.5.#.e * y R.[.].].[.!.>.@.O.e * e O.:.%.#.O.>._.[.].].}.T.#     s . %     . | :. .7 # = V 2 # # O # # # # ",
"X # 2     & P. XP.a o y K.}.].].[.!.>.@.O.e * e O.:.#.+.X.>.Q.[.].].}.K.#           % 4 3 @ # 2 Z.`.Z.#     % # # # # # ",
"@ # +     < ].|.[.e   9 R.[.].[.[.].$.X...3 $ 9 O.>.@.O. .$._.[.].].}.J..           X s x     @ {.|.~.1     # # +   # # ",
"# # +     < M.`.Z.x 3 x L.}.].(._.J.4.;.#.u - y X.$.#.>.$.4.!.[.].'.[.H.6 # & # # : q a a     > T.|.T.:     r r q q # # ",
"# # # +   p 1 > 6 Z./.R.].].(.-.&.=.J.[.R.$...X.%.O.>.T.{.Q.].].'.m.v.C.H.R.R.R._.Z.<         & T.|.R.:     z z j x 1 . ",
"# # @ # > 1       [.|.}.].[.R.*.m *.'.}.].>.O.#.O. .#.].[.[.[.[.].v.z.v.[.}.[.}.|.{..         . {.|.~.&     a j x N 1 . ",
"% # # # 1 #     & Z._.R.].].(.-.&.-.Q.}.Q.5.%.>.>.$.5.Q.[.].].'.{.v.c.v.'.[.].].[.T.5 : # # # 3 Z.`.Z.#     q s b Y 1 . ",
"# # # # # > > % % # # 6 R.}.].R.(.(.].].].!.Q.Q.Q.Q.!.].].].n.v.v.v.x.n.'.].].].[.'.k.g.k.l.x.f.6 : # 1 q q s v g g % . ",
"# # # # . > 1 % .       '.|.}.[.[.[.[.].].[.[.[.[.[.[.[.[.].v.x.x.v.c.v.'.[.].].[.].S.C.C.D.W.C.      . d v M U i . # # ",
"# # # # # % % q q     < Z._.L.~.].].'.'.].'.'.'.].'.'.'.].'.n.x.v.n.v.C.'.[.].].]._.v.x.v.z.x.d.#     # 6 q q p 2 # # # ",
"# # # # 1 % % s v j s a < & 5 z.D.v.n.n.v.n.n.v.n.n.v.n.n.v.v.x.n.{.].].].].'.n.v.v.x.A.z.5 # # % # % % % % % % # @ # # ",
"# # # # % 2 0 q q p j s       h.C.x.x.x.x.x.x.x.v.x.x.x.x.x.v.x.n.].[.[.].[.].v.b.v.C.Y.x.      4 s a a a s q % # @ # # ",
"# # # % % 4 r q 4 i k g     # j.C.v.v.v.v.v.v.v.v.v.v.v.v.v.v.x.n.'.].{.].].'.v.v.x.z.x.d.#     3 x j j j z p % % # # # ",
"# # # 1 q q q q 3 t z s     # k.C.v.v.v.v.v.v.v.v.v.x.v.v.v.v.v.v.v.n.n.v.n.v.v.C.k.5 # # % 1 4 p z j j g g g k 1   # # ",
"# # 1 4 q q q q 0 t g s     # x.U.C.v.x.v.x.v.v.v.x.v.v.v.v.v.v.v.x.v.x.v.x.x.v.D.g.      % 1 q p g s s g j j z q # # # ",
"@ # q q q q q q q q 2 r .   # f.x.z.x.v.v.v.v.v.v.v.v.v.v.v.v.v.v.v.v.v.x.v.v.v.C.l.#     % 1 q q 0 q 0 s j g g g j 1 . ",
"# # q q q q q q q q r g k j g # # 7 z.C.v.v.x.v.v.v.v.v.v.v.v.v.v.v.v.v.v.v.v.v.C.h.#     % 1 2 6 q q 0 g g j x z v 1 . ",
". % q q q q q q 2 r g v V N N       z.D.v.C.F.C.v.v.v.C.C.C.C.C.C.v.v.v.C.A.C.v.A.z.#     2 % # 1 q 0 3 a s z V V V 1 . ",
"# # 1 2 q q q a a g v b N M v     # g.C.c.g.h.z.x.v.v.z.h.h.j.k.k.c.x.x.k.z.z.v.S.h.#     2 > # 1 q t a z v v M M V 1 . ",
"X # # 1 q q q s j x V N M M v     # 9.e.8.7 # 2 z.D.k.5 # # # # 7 7.e.7.7 # 5 k.U.h.#     1 > # 1 q s k M V N M M V 1 . ",
"# # # 1 q q q s g x V M V M v     X <.w.<.      g.Y.h.            <.w.<.      j.U.h.#     = % % = # s N M M M M M V 1 . ",
"# # # 1 p q 8 a s j V M M C V     @ 6.e.2.#   # l.U.z.#         # 2.e.2.@   # g.G.k.#     = = % =   g Y N b M M V H 2 . ",
"# # X # 4 q t j k v N M b g p     @ 2.e.2.@   # h.D.h.#         # 2.e.6.#   # z.U.z.#     # # % % # q g v N M V k f > . ",
"# # X # + p v N V M M V F 1 .     # 8.r.9.X   # x.E.x.#         # 9.r.9.#   # x.W.x.#     # # 1 > 1 % + v H C H p . # # ",
"# # # # # 2 6 v V M V g q = #     # 1.q.,.#   # d.C.d.#         # ,.0.,.#   # d.C.d.#     # # # # # % = q p i a 2 # # # ",
"# # # # # # + c D V H q   # # # # # @ # @ # # # # # # # @ X @ 1 g # # # v M v : # #   @ # % # X # + # 1 % # % % # # % # ",
"# # # # # # # = 1 1 2 # # # # # # #       # # #       # # # # # =       1 1 1       # # # # # # # # # # # # # # # # # # ",
"# # # # # # # . . .   @ # # # # # #       # # #       # # # # # O       . . .       # # # % # # # # # # # # # # # # # # "
};
