/* XPM */
static char *xpm_[] = {
/* columns rows colors chars-per-pixel */
"60 60 190 2 ",
"   c #020202",
".  c #090606",
"X  c #060806",
"o  c #0A0906",
"O  c #060709",
"+  c #090709",
"@  c #070909",
"#  c #0C0B0C",
"$  c #110F02",
"%  c #120D0D",
"&  c #0E100F",
"*  c #151306",
"=  c #13110E",
"-  c #1B1A0E",
";  c #0E0E10",
":  c #120E10",
">  c #180F10",
",  c #0E1110",
"<  c #151212",
"1  c #1A1514",
"2  c #1B1A16",
"3  c #141719",
"4  c #1B1719",
"5  c #15191C",
"6  c #1C1A19",
"7  c #211716",
"8  c #211916",
"9  c #20171A",
"0  c #231C1B",
"q  c #291F1D",
"w  c #232215",
"e  c #26211E",
"r  c #29211E",
"t  c #292A1E",
"y  c #262A1C",
"u  c #1A1E21",
"i  c #251E21",
"p  c #281F20",
"a  c #262121",
"s  c #2B2522",
"d  c #2E2926",
"f  c #2F2A29",
"g  c #29272A",
"h  c #302625",
"j  c #312A27",
"k  c #302728",
"l  c #332D2A",
"z  c #382E2D",
"x  c #2F3022",
"c  c #36322D",
"v  c #39312E",
"b  c #373332",
"n  c #3C3432",
"m  c #3E3A35",
"M  c #3F3D39",
"N  c #791329",
"B  c #413636",
"V  c #413937",
"C  c #403738",
"Z  c #443B39",
"A  c #493D3D",
"S  c #45413D",
"D  c #45413C",
"F  c #48423F",
"G  c #4A413F",
"H  c #484540",
"J  c #4A4641",
"K  c #4C4442",
"L  c #4E4A45",
"P  c #4D4A44",
"I  c #504D46",
"U  c #524E4A",
"Y  c #544F4A",
"T  c #544848",
"R  c #524544",
"E  c #53504A",
"W  c #54514A",
"Q  c #56534C",
"!  c #55524D",
"~  c #57544D",
"^  c #53524D",
"/  c #58554E",
"(  c #595751",
")  c #5A5851",
"_  c #5D5A53",
"`  c #5D5A55",
"'  c #5D5B55",
"]  c #565550",
"[  c #615D56",
"{  c #615E59",
"}  c #61605B",
"|  c #6B6761",
" . c #666C6D",
".. c #696D6E",
"X. c #67706F",
"o. c #6B6D70",
"O. c #676C70",
"+. c #6E7475",
"@. c #6E7579",
"#. c #6E787A",
"$. c #717475",
"%. c #767977",
"&. c #72767A",
"*. c #757A7B",
"=. c #797C7D",
"-. c #893549",
";. c #893545",
":. c #955163",
">. c #995162",
",. c #7C807F",
"<. c #777C80",
"1. c #7A7E81",
"2. c #7B8183",
"3. c #76848B",
"4. c #7C898D",
"5. c #79848A",
"6. c #7F8C93",
"7. c #818585",
"8. c #83878A",
"9. c #82898A",
"0. c #888D89",
"q. c #818C95",
"w. c #858F98",
"e. c #859296",
"r. c #85929B",
"t. c #8B969A",
"y. c #8C9BA2",
"u. c #92A3A7",
"i. c #95A5AB",
"p. c #9CADB2",
"a. c #A6B4BF",
"s. c #EAC8AF",
"d. c #F0CEB6",
"f. c #F8CFB3",
"g. c #F6DFBF",
"h. c #FFDEBD",
"j. c #F6D6BD",
"k. c #A7B5C1",
"l. c #AEBECD",
"z. c #A8B4C2",
"x. c #B2BFCE",
"c. c #B2BFD0",
"v. c #AFC1CE",
"b. c #B2C0CE",
"n. c #B2C1D1",
"m. c #B9C8D7",
"M. c #B7C8D8",
"N. c #BCCCDC",
"B. c #B8C7DA",
"V. c #BED0DE",
"C. c #BFCFE1",
"Z. c #BFD0E2",
"A. c #C1CFDC",
"S. c #CCDCDF",
"D. c #C0D2DE",
"F. c #FEDEC1",
"G. c #F6DCC1",
"H. c #FEEBC4",
"J. c #FFE4C7",
"K. c #C4D5E5",
"L. c #C9DBE2",
"P. c #C5D7E8",
"I. c #C6D9E9",
"U. c #CDDDED",
"Y. c #C7D7E8",
"T. c #CEE1ED",
"R. c #CBE0E5",
"E. c #D3E4E9",
"W. c #D8E7EE",
"Q. c #D6EAEE",
"!. c #D8EAEE",
"~. c #CEE0F1",
"^. c #D0E2F2",
"/. c #D7EAF0",
"(. c #DAEBF2",
"). c #D9ECFE",
"_. c #DEF1F6",
"`. c #DEF2F8",
"'. c #DFF8FE",
"]. c #E2F1EE",
"[. c #E0EEF5",
"{. c #E3F1F2",
"}. c #EBF1F3",
"|. c #E3F5FC",
" X c #E8F4FB",
".X c #E5F9FF",
"XX c #EBFEFE",
"oX c #F2FFFE",
"OX c #FCFFFE",
"+X c #F9FBF8",
/* pixels */
"# # # # . . .             # # % # . .       .   # # # # # . .         .           # % X .       . .   .         # % # # ",
"# # # # < < < 2 2 6 2 2 6 # # # # = < 2 2 6 2 2 = # # # = < < 1 2 6 2 2 2 2 2 2 6 # # : < 2 2 6 1 < < 1 5 6 6 6 # # # # ",
"# #   < l n Z ^ ` ( / _ } 1     o s M { ( ( ` | b       e v B H ) ) _ ` _ ) / ) | s   e n ) ' { W V Z V W _ ) | a   # # ",
"# # < e n Z P E ~ Q / I U e < 6 s m J / Q ~ I Y m 2 6 1 l n F L ~ U L L L W / U Y c 2 l n L L I H m H J ^ ] E E v 2 # # ",
". < n m G E [ Q W Q / P Z n v J U ' ) W W Q D m D Y m l M F ) ) ~ L Z Z B Q ` L m G L J D Z Z Z D Z U { ~ ~ L n D U 2   ",
"X % r d v M P E ~ Q ` m s a r l m J L ~ Q Q m l b v l j m D J P _ D e l v D L Z z n v v v n v d j v Z P Y ` J l v n < . ",
"# # 2 e j c M I ~ ~ { v % 4 9 s l m J ( ~ ( v s d j l j m D m D { Z % r l n D n s j d d d l d 1 e d n M U ` D s j l = . ",
"# # 9 a j n Z I / L J j 1 0 9 0 e l n J D J s 0 6 < 6 a j v Z Z P v 1 q 0 l v d 9 0 a 1 < < < : 1 q d v Z L v 9 1 < # # ",
". % 0 s l B D ^ _ I Z j 9 q 0 7 0 d v Z Z D a 9 1 O 1 0 d c Z Z G z 4 0 9 j v s 8 0 0 : # # # ; = 9 d l B J v 7 :   # # ",
"# # < 6 0 l m J L .     = 1 1 2 0 j v D m n 0 1 1 # <       c n m j 2 2 1 i a 0 1 2 1 < : % % ; < 1 q h l n d 4 : # # # ",
"# # . # . 0 l n D       O # ; 9 a j n J n l < @ # ; #       d l j s 0 1 # # # # o # X # % % = # # # 1 q 1 1 > # # # # # ",
"# # # # # 6 a j c & = # % # : < 1 e d B s 4 < : % = % X . @ 9 r a 0 < < : : # 1 s 0 e e e = # < : % < < a d s a < . # # ",
"# # # # # 1     , L.}.L.#     # < 6 q v 4 O < >     O  .=. .#     1 # : < % o 0 n l v v l % % : : % # # s v l n 1   # # ",
"# # # # < :     = |.OX'.      # = < < 1 < % < >       @.9.+.      < < : % 4 8 0 0 d l l j d q % < # 1 6 d l j l s s < @ ",
"# # # # : #     # !.+X!.6 : # # % # # # % < < % O # ; %.0.%.; . . : : % = 9 q 0 4 s l j j v j % < % 4 q d l j l z n < . ",
"# # # # < %     # d.J.F.!.{.L.#               O  .+.%.d.g.d.%.+. .@     9 9 0 9 4 s j n B A n # < q 9 2 s j z B B A 1 . ",
"# # # # % %     # f.H.F.oXOX.X#                 %.2.8.h.H.h.7.2.%..     0 9 0 0 0 d l B Z n f # < 9 0 e j z n Z n n < . ",
"# # = % % 1     % s.G.j.(. XT.1 . @ # # # % # 1 +.*.,.d.g.d.,.*.+.@     0 9 4 q j v Z A Z < # ; % # a n Z G A P e . # # ",
"# # : % # 1     O %.7.=.2.2.2.@. .*.E._.Q./._.E.,.$.*.=.,.,.*.2.+..     1 e r d n n Z z s < % : : # 6 a d k j j 9 % # # ",
"# # < % # 1     . X.*.@.+.+.$.=.*.9.XXoXoXoXoXXX=.O.+.@.&.#.%.1.+..     # d n m K A H 1 . # # # # # O . # % % # % 1 # # ",
"# # # % % <     . $.1.*.*.%.%.%.$.2._.XX.X.XXX_.9.=.2.*.*.*.%.1.+..     # 2 6 0 a p a < = 0 e e a 0 q a < % < < % # # # ",
"% # # # < #     X +.,.*.%.*.%.*.$.2._.XX.X.X.X.X`.|.!.2.$.*.*.2.$..     # # # # # % # % < l v l l z z v 4 o % 1 # . # # ",
"# # # # # #       +.1.*.%.*.%.$.O.<._.XX.XXXXXXXoXoXXX1. .$.$.%. .      s 9 6 1 : : % 4 0 d l j j l j l s d 0 % % # # # ",
"# # # # @ # O . # +.1.*.%.*.*.2.=.4._.XX.X_._._._.|./.9.=.2.2.9.%.1 # # f q 0 8 : : % 6 q l l l l j l j l v e # # @ # # ",
"# # #     .  .*.+.*.%.%.%.@.2./.|.`..XXX_.9.=.2.2.=.9./.|.|._.|._./.{.L.,     1 1 < : 6 0 a s l j j j l j l s 0 < # # # ",
"# # #     . %.7.,.1.1.1.$.O.*..XXXXXXXXX.X2.+.%.$. .1.XXoXXXXXXXXXoXOX|.#     < r 1 % 6 0 4 0 v l j l j l d l n q % # # ",
"# # #     O +.2.%.+.$.$.2.=.9.`.XX.X|.|./.=.o.$.*.+.2.Q.|._..X.X.X.XoX/.#     % 1 < # 8 0 2 0 e s j j j l j j l 9 % # # ",
"# # #     . +.7.$.y * x E. X`..XXX_.9.2.=.t - t +.=.*.2.=.9._.XX.X.XXX/.;     % % # ; 6 0 0 9 4 q l j j d f d l 6 % # # ",
"# # .     #  .1. .2 o y |.oXXX.XXX_.1.o.O.2 * - +.1.*.+. .1._.XX.X.XoXQ.#     a d 6 % < < 6 q d l B B n m n B Z i % # # ",
"# # X     . *.9.<.w $ t (.XX.X.XXX_.2.*.+.w * w $.1.%.%.$.2.`.XX.X.XXX/.&     j n 0 % ; # 9 q l z C m Z B Z B Z q # # # ",
"# # 0     & E.+XE.t o t (.oX.X.XXX`.2.*.$.w * w $.1.*.%.$.2.`.XX.X.XXX/.;     z K a % % < d v Z .   . n Z K l % # @ # # ",
"O # 0     , .XOXXXw   w /.XX.XXXXX.X=.+. .8 $ 2 $.1.*.$. .=._.XX.XoXOX|.,     l m q % : < a d z       m v n a # # # # # ",
"O % q     ; L.}.L.c - c (.oX|.[.{.!.8.2.*.y - t &.=.%.2.=.8.`.XX.X/.{.S.#   . d X : < % % # # . X O # B 4 % # X # # # # ",
"# # 1 0 0 s , # 6 R.{.(..XXX(.:.-.:./.|./.=. .$.%.$.2./.|.|..XoX/.u : ;             : 9 2 .   .  .1. .#     # # # # # # ",
"X # O 6 B n       XXOXOXXXXX(.-.N ;. XoX.X1.$.*.+.o.=..XoXXXXXoX/.                  X d v     # =.e.=.      % % O   # % ",
"# # # < 4 l .   < L.{.Q..XXX[.>.-.>.(.oX_.9.=.2.2.%.9._.XX.X.XXXQ.5 # # , & # ; # # 0 s d     O O.1. .< < & 0 q 0 0 # # ",
"% # # #   g Z B B % # 6 !.oX.X[.[.[..X.X.X_._.`.`.`.`..XXX.XK.N.N.n.x.n.W.(././.{.L.;           X @ 3 L.}.L.,     v < . ",
"# # # # : 1 8 9 9     . |.OXoXXXXXXXXX.XXXXXXXXXXXXXXXXXXX.XN.M.N.K.K.Y.XXoXXXXXOX|.                  XXOXXX<     B < . ",
"# # # # < % # ; %     # L.]./.'.|.|..X|..X|.|.|.|.|..X|..X|.N.N.N.N.N.K..XXX.X.XoX/.6 # # # # # ; ; 6 L.}.L.&   . R 1 . ",
"# # # # # % = = : < 6 2 & ; 5 n.Y.N.V.C.N.V.N.N.N.N.N.Z.A.C.N.N.N.|..X|..X.XXX.X.X.Xb.l.n.x.x.n.Q.{.S.6 # # a v f j : . ",
"# # # # . : < % . 6 n l       l.K.N.N.N.N.N.N.N.N.N.N.N.N.N.N.m.N..XXXXX.X.X.X.XXX.XI.K.Y.T.U.^.OXOXXX      n T i . # # ",
"# # # # # % = 9 e s l d     # n.Y.N.N.N.N.N.N.N.N.N.N.N.N.N.N.N.D.|.XX.X.X.X.X|..X|.N.N.N.n.x.n.W.{.L.#     0 a 1 # # # ",
"# # # # < % % d n l j d     # n.Y.N.N.N.N.N.N.N.N.N.N.N.N.N.|..X.X.X.X.X.XXX|.K.N.N.N.Y.n.5 # # # & ; % # # # % # @ # # ",
"# # # # % 1 0 0 0 s l d     # b.Y.N.N.N.N.N.N.N.N.N.N.N.N.V..XXXXX.X.XXXXXXX.XN.M.N.Y.~.N.            s s d 0 % # @ # # ",
"# # # % % 4 e 0 8 e l d     # b.Y.N.N.N.N.N.N.N.N.N.N.N.N.N.|.|.|.|.|.|.|..X|.N.N.N.n.N.a.#         . l l v e % % # # # ",
"# # # < 0 0 9 0 8 a z d     # v.Y.N.N.N.N.N.N.N.N.N.N.N.N.N.N.V.V.V.N.V.V.N.N.N.K.n.3 # # % < 4 q l f l l j j z <   # # ",
"# # < 4 q 9 9 9 8 a j d     # m.~.K.N.N.N.N.N.N.N.N.N.N.N.N.N.N.N.N.N.N.N.N.N.N.Y.x.      % = 9 r f d d d j l v 0 # # # ",
"@ # 0 9 9 0 9 9 9 9 1 e .   # k.N.n.N.N.N.N.N.N.N.N.N.N.N.N.N.N.N.N.N.N.N.N.N.N.P.n.#     % = i 0 2 8 9 d l d d j l < . ",
"# # 0 0 9 0 0 9 9 0 e j z l j # # 3 n.K.N.N.N.N.N.N.N.N.N.N.N.N.N.N.N.N.N.N.N.N.Y.x.#     % < 1 6 0 0 8 j j l v v n < . ",
". % q 0 9 9 9 9 1 e j n Z B B       n.I.N.Y.Y.Y.N.N.N.Y.Y.Y.Y.Y.Y.N.N.N.Y.P.Y.N.P.n.#     1 % # < q 8 2 s d v Z Z Z < . ",
"# # < 1 q 9 9 s s j n m B B n     # l.K.M.l.x.n.N.N.N.n.x.x.v.b.b.M.N.m.b.n.n.N.I.x.#     1 : # < 0 r s v n n B B Z < . ",
"X # # < 0 9 9 d l v Z B B B n     # r.i.e.3 # 1 n.U.b.5 # # # # 3 w.i.w.3 # 5 b.~.x.#     < : # < 0 d z B Z B B B Z < . ",
"# # # < 0 0 9 d j v Z B Z B v     X 4.u.4.      l.~.x.            4.u.4.      v.~.x.#     = % % = # d B B B B B B Z < . ",
"# # # < s 0 7 s d l Z B B A Z     @ q.i.6.#   # v.~.n.#         # 6.i.6.@   # l.T.b.#     = = % =   j R B m B B Z K 1 . ",
"# # X # 4 0 r l v n B B m j a     @ 6.i.6.@   # x.U.x.#         # 6.i.q.#   # n.~.n.#     # # % % # 0 j n B B Z z h : . ",
"# # X # + a n B Z B B Z H 1 .     # e.p.r.X   # m.).N.#         # r.p.r.#   # N.).m.#     # # < : < % O n K A K a . # # ",
"# # # # # 1 6 n Z B Z j 0 = #     # 5.y.3.#   # k.K.k.#         # 3.t.3.#   # k.K.k.#     # # # # # % = 0 a p s 1 # # # ",
"# # # # # # O b G Z K 0   # # # # # @ # @ # # # # # # # @ X @ < j # # # n B n ; # #   @ # % # X # O # < % # % % # # % # ",
"# # # # # # # = 1 < 1 # # # # # # #       # # #       # # # # # =       < < <       # # # # # # # # # # # # # # # # # # ",
"# # # # # # # . . .   @ # # # # # #       # # #       # # # # # O       . . .       # # # % # # # # # # # # # # # # # # "
};
