/* XPM */
static char *xpm_[] = {
/* columns rows colors chars-per-pixel */
"60 60 183 2 ",
"   c #020202",
".  c #090605",
"X  c #060807",
"o  c #0A0906",
"O  c #060609",
"+  c #0A0709",
"@  c #070909",
"#  c #0C0B0C",
"$  c #120F02",
"%  c #120D0D",
"&  c #0E100E",
"*  c #141404",
"=  c #13110E",
"-  c #1A1C0D",
";  c #1A100F",
":  c #0E0D10",
">  c #130E11",
",  c #180F11",
"<  c #0E1111",
"1  c #151213",
"2  c #1A1515",
"3  c #1B1916",
"4  c #131619",
"5  c #1B1718",
"6  c #15191C",
"7  c #1C1A1A",
"8  c #211616",
"9  c #211A16",
"0  c #201718",
"q  c #231C1B",
"w  c #281E1C",
"e  c #232316",
"r  c #25211E",
"t  c #29221E",
"y  c #29291D",
"u  c #26281B",
"i  c #261E21",
"p  c #281F20",
"a  c #262121",
"s  c #2B2523",
"d  c #2E2926",
"f  c #2E2828",
"g  c #302625",
"h  c #312A26",
"j  c #302728",
"k  c #332D2A",
"l  c #382E2D",
"z  c #2D3025",
"x  c #36322D",
"c  c #39322E",
"v  c #373332",
"b  c #3B3432",
"n  c #3E3A35",
"m  c #3F3D39",
"M  c #791328",
"N  c #413636",
"B  c #413936",
"V  c #443B39",
"C  c #493D3D",
"Z  c #45413D",
"A  c #45423C",
"S  c #48423F",
"D  c #4A413D",
"F  c #484540",
"G  c #4A4641",
"H  c #4C4442",
"J  c #4E4A45",
"K  c #4D4943",
"L  c #504D46",
"P  c #524E4A",
"I  c #544F4A",
"U  c #514E4A",
"Y  c #534443",
"T  c #53504A",
"R  c #54514A",
"E  c #56534C",
"W  c #55524D",
"Q  c #57544D",
"!  c #53514C",
"~  c #58554E",
"^  c #595751",
"/  c #5B5851",
"(  c #595951",
")  c #5D5A53",
"_  c #5D5A55",
"`  c #5D5B56",
"'  c #565550",
"]  c #615D56",
"[  c #615E59",
"{  c #61605B",
"}  c #6B6761",
"|  c #676D6D",
" . c #696D6D",
".. c #6A6F72",
"X. c #6E7474",
"o. c #6F7579",
"O. c #717475",
"+. c #797977",
"@. c #75767A",
"#. c #757A7C",
"$. c #787C7D",
"%. c #747877",
"&. c #8A3547",
"*. c #8A354A",
"=. c #944F62",
"-. c #965162",
";. c #7B817F",
":. c #7A7E81",
">. c #7B8283",
",. c #76848B",
"<. c #7C898E",
"1. c #79848A",
"2. c #7F8C93",
"3. c #838684",
"4. c #83878B",
"5. c #82898B",
"6. c #818C95",
"7. c #858F98",
"8. c #859296",
"9. c #85929B",
"0. c #8C969B",
"q. c #8C9BA2",
"w. c #92A3A7",
"e. c #95A5AB",
"r. c #9CADB2",
"t. c #A6B4BF",
"y. c #E6C6AD",
"u. c #EECEB6",
"i. c #EFD0B3",
"p. c #F6DDBF",
"a. c #FEDEBF",
"s. c #F6D3B8",
"d. c #FFE1BF",
"f. c #A7B5C1",
"g. c #A8B4C3",
"h. c #AFBFCE",
"j. c #B2BFCF",
"k. c #AEBDD0",
"l. c #AFC1CE",
"z. c #B2C0CE",
"x. c #B2C1D1",
"c. c #B8C8D7",
"v. c #B7C8D8",
"b. c #BCCCDC",
"n. c #BED0DE",
"m. c #BFD0E0",
"M. c #C9DBDF",
"N. c #F9DEC3",
"B. c #FFE5C3",
"V. c #FFEDC8",
"C. c #C4D5E5",
"Z. c #CADBE2",
"A. c #C5D7E8",
"S. c #C6D9E9",
"D. c #CCDDEC",
"F. c #C7D7E8",
"G. c #CDE0EF",
"H. c #D3E5EB",
"J. c #DAE7EE",
"K. c #D6EAEE",
"L. c #D9EBED",
"P. c #D0E3E7",
"I. c #DCF0EF",
"U. c #CEE0F1",
"Y. c #D0E2F2",
"T. c #D7EAF0",
"R. c #D9EBF2",
"E. c #D9ECFE",
"W. c #DEF1F6",
"Q. c #DEF2F8",
"!. c #DFF8FE",
"~. c #EEF0EF",
"^. c #E1F1EE",
"/. c #E1EEF4",
"(. c #E6EFF4",
"). c #E3F3F4",
"_. c #E3F5FC",
"`. c #E5F9FF",
"'. c #EBFEFE",
"]. c #E4F8F7",
"[. c #F3FFFF",
"{. c #FDFFFF",
"}. c #F3F7F8",
/* pixels */
"# # # # . . .             # # % # . .       .   # # # # # . .         .           # % X .       . .   .         # % # # ",
"# # # # 1 1 1 3 3 3 3 3 3 # # # # = 1 3 3 3 3 3 = # # # = 1 1 2 3 3 3 3 3 3 3 3 7 # # > 1 3 3 3 2 1 1 2 6 3 3 7 # # # # ",
"# #   1 k b V W _ ^ ~ ) { 2     o s m [ ^ ^ _ } v       r x B F / / ) _ ) / ~ / } s   r b / ` [ R B V B E ) / } a   # # ",
"# # 1 r b V K T Q E ~ L P r 1 7 s n G ~ E Q L I n 3 7 2 k b S J Q P J J J R ~ P I x 3 k b J J L G n F G W ' T T x 3 # # ",
". 1 b n S T ] E R E ~ K V b x G P ` / R R E A n A I n k m S / / Q J V V B E _ J n S J G A V V V A V P [ Q Q J b A P 3   ",
"X % t d c m K T Q E _ n s a t k n G J Q E E n k v c k h n A G K ) A r k x A J V l b c x x b x d h c V K I _ G k c b 1 . ",
"# # 3 r h c m L Q Q [ l % 5 q s k n G ^ Q ^ x s d h k h n A n A [ V % t k b A b s h d d d k d 2 r d b m P _ A s f k = . ",
"# # q a h b V L ~ J G h 2 q q q r k b G A G s q 7 1 7 a h c V V K x 2 w q k x d q q a 2 1 1 1 > 2 w d x V J c q 2 1 # # ",
"X % q s x n A R _ P V h q q w 3 q d x V V V a 9 2 . 2 w d k V A A x 5 q 0 h c s 0 q q > # # # : = q d k B G x 8 >   # # ",
"# # 2 7 q k n G P A N a 1 5 2 0 q h c A n b q 2 1 # 1 2 t d b b n k 8 0 2 q a q 2 3 2 1 > % % : 1 2 w g k b d 5 > # # # ",
"# # . # . q k n A b x 7 @ # : q a h b G c k 1 # # > : # 2 q h h k s w 1 # : # # o # X # % % = # # # 2 w 2 2 , # # # # # ",
"% # # # # q a k b d 7 1 : > > 1 2 r g B s 2 1 > 1 > > : 1 2 p a s q 1 1 > % # 2 s q r r r = # 1 > % 1 1 a d s a 1 . # # ",
"# # # # # 2 q d l       = > % : 1 7 t b 5 . 1 ; 1 1 >       2 0 q 2 # 1 1 % # q b k x x k % % > > % # # s c k b 2   # # ",
"# # # # : 1 1 1 2       = > % # > 1 1 2 1 > 1 1 1 1 >       d s % 1 > > % 3 0 q q d k k h d w % 1 # 2 7 d k h k s s 1 # ",
"# # # # 1 % # # # : # : > > = % # : # # % 1 % 1 > > > . X # h s % 1 , % % q w q 5 s k h h c h % 1 % 5 w d k h k l b 1 . ",
"% # X # = %     # Z.~.M.#     # # > 1 > 5 w 1 >     . | $. .#     q # 2 q q q q 5 s h b N C b # 1 w q 3 s h l B B C 2 . ",
"# # # % % %     # !.{._..     2 2 % % > 2 q 1 1       X.4.o.      a o 2 w q q q q d k N V b f # 1 q q r h l b V b b 1 . ",
"# # = = % 2     # K.{.J.7 # # k d . # % # # % % X . # +.5.+.# . # d . 2 w q 2 t h c V C V 1 # : % # a b V S C K r . # # ",
"# # > = # 2     % u.B.N.L.).Z.:               O | X.+.u.p.u.%.X. .+     2 r t d b b V l s 1 % > > # 7 a d j h h 0 % # # ",
"# # 1 > # 2     o s.B.d.[.{.`.#                 @.:.3.a.V.a.3.>.%..     # d b B H C F 2 . # # # # # + . # % % # > 2 # # ",
"# # # # > 1     % y.N.s.W.].H.4 O @ : # < % & 2 X.#.:.i.p.i.;.#.X.O     % 2 q q a p p 1 = q r r a q w a 1 % 1 1 % # # # ",
"# # X # 1 #     X %.3.>.>.>.:.X. .#.P.I.T.T.W.P.>.O.+.:.>.$.#.>.X.O     # # # # # % # % 1 k x k k l l c 5 o % 2 # . # # ",
"% # # # # #     . ..#.O.X.X.o.:.#.4.'.[.[.'.[.'.$. .O.o.o.o.%.:.X..     s q q 2 > > % 5 q d k k h k h k s d q % % # # # ",
"# # % # # %     X X.:.#.#.%.#.%.O.>.W.'.`.`.'.Q.4.$.>.#.%.%.%.>.X..     k a w 0 > > % 7 w k k k k h k h k c r # # @ # # ",
"# # % # # #     . X.>.#.%.#.#.%.O.>.Q.'.`.`.`.`.).].T.>.X.+.#.>.X..     d 7 2 5 2 1 > 7 w s d k k k h k h k s q 1 # # # ",
"# # # # # #       X.:.#.%.%.#.X. .$.W.'.`.'.'.'.[.[.'.$. .X.O.$. .      c 2 . 2 t 2 % 7 q 5 q k k h k h h h k b w % # # ",
"% # # # # 2 # X : X.>.%.#.%.#.>.$.5.Q.'.`.).W.W.W.].T.4.#.>.>.4.#.2 % < 2 1 % , 2 1 # 0 q 3 q r s k h d k h k k q % # # ",
"% # #     # | %.X.%.%.%.#.X.>.K.].W.`.'.W.4.$.>.>.$.4.R.].W.W.Q.Q.R./.Z.:     % % # # 7 q q q 5 r k d h h d h k 7 % # # ",
"# # .     . @.>.>.:.:.:.O. .$.`.[.'.'.[.`.>.O.@.X. .:.'.[.'.'.'.'.[.{.].<     a s 7 % 1 1 5 q d k B b n b b n V p % # # ",
"# # #     . X.>.%.O.X.X.>.$.4.Q.'.`.).].K.$. .O.%.@.>.R.].Q.`.`.`.`.'.T.#     h b q % : # q w k b V V N V V N V w % # # ",
"@ # q     . X.>.O.y * z H._.W.`.'.W.5.;.$.y - y X.:.%.>.$.4.W.'.`.`.[.T.&     k H a % > 1 d c V V N N N V F k % # @ # # ",
". % w     .  .:.X.9 o u W.[.'.`.'.W.#.X.X.9 * 3 X.:.%.X. .$.W.'.`.`.'.T.#     k N w % > 2 a d l b N N N b b a + # # # # ",
"+ # w     . @.5.#.e * y R.'.`.`.'.Q.>.@.O.e * e O.:.%.#.O.>.).'.`.`.[.T.#     d . > 1 % % # % O i Y V D 7 % # . # # # # ",
"X # 2     & P.}.P.s o y K.[.`.`.'.Q.>.@.O.e * e O.:.#.+.X.>.W.'.`.`.[.K.#           % 0 q q 5 # 7 k j h 2 %       # # # ",
"@ # +     < `.{.'.e   9 R.'.`.'.'.`.$.X...3 $ 9 O.>.@.O. .$.).'.`.`.[.J..           # d b b d % % # % % % #         # # ",
"# # +     < M.~.Z.c 3 c L.[.`./.).J.4.;.$.y - y X.$.#.>.$.4.Q.'.`._.'.H.7 # & # % > q d j d s w 3 > % % q q # @ + 7 # # ",
"# # # +   a 1 > 7 Z.^.R.`.`./.-.&.=.J.'.R.$...X.%.O.>.T.].W.`.`._.m.b.C.H.R.R.R.).Z.:                     X  .$. .#     ",
"# # @ # > 1       '.{.[.`.'.R.*.M *._.[.`.>.O.#.O. .#.`.'.'.'.'.`.b.x.b.'.[.'.[.{.]..                       :.0.$.#     ",
"% # # # 1 #     & Z.).R.`.`./.-.&.-.W.[.W.5.%.>.>.$.5.W.'.`.`._.].b.v.b._.'.`.`.'.R.6 # # # : # # # # 1 # 4 | :.| #     ",
"# # # # # > > % % # # 7 R.[.`.R././.`.`.`.Q.W.W.W.W.Q.`.`.`.n.b.b.b.c.n._.`.`.`.'._.x.h.j.l.k.z.H.R.K.T./.Z.2 + # a # X ",
"# # # # . > 1 % .       _.{.[.'.'.'.'.`.`.'.'.'.'.'.'.'.'.`.b.c.c.b.v.b._.'.`.`.'.`.S.C.F.G.D.Y.{.{.{.{.{.'.#     . # # ",
"# # # # # % % q q     < Z.).L.!.`.`._._.`._._._.`._._._.`._.n.c.b.n.b.C._.'.`.`.`._.b.b.c.x.j.x.H.R.R.K.).M.:     # # # ",
"# # # # 1 % % d b k d s < & 6 x.D.b.n.b.b.n.n.b.n.n.b.n.n.b.b.c.n.].`.`.`.`._.n.b.b.b.F.x.6 # # # & : 1 # : # % # @ # # ",
"# # # # % 2 0 q w a k d       j.C.c.c.c.c.c.c.c.b.c.c.c.c.c.b.c.n.`.'.'.`.'.`.b.v.c.F.U.c.                  7 % # # # # ",
"# # # % % 5 r q 5 p l h     # l.F.b.b.b.b.b.b.b.b.b.b.b.b.b.b.c.n._.`.].`.`._.b.b.b.x.c.t.#       .       . r % % # # # ",
"# # # 1 q q q q 3 t x d     # z.F.b.b.b.b.b.b.b.b.b.c.b.b.b.b.b.b.b.n.n.b.n.b.b.C.x.4 # # % 1 5 q k h h f d h l 2   # # ",
"# # 1 5 w q q q 0 t h d     # c.U.F.b.c.b.c.b.b.b.c.b.b.c.b.c.b.b.c.b.c.b.c.c.b.F.j.      % = q r d f d h h h x 7 # # # ",
"@ # q q q q q q q q 2 r .   # g.c.x.c.b.b.b.b.b.b.b.b.b.b.b.b.b.b.b.b.b.c.b.b.b.A.x.#     % = i q q q 3 d k h d d l = . ",
"# # q q q q q q q q r h l k h # # 4 x.C.b.b.c.b.b.b.b.b.b.b.b.b.b.b.b.b.b.b.b.b.F.j.#     % 1 2 7 q q 0 h h k c x b 1 . ",
". % w q q q q q 2 r h b V B B       x.D.b.F.F.F.b.b.b.F.F.F.F.F.F.b.b.b.F.A.F.b.A.x.#     2 % # 1 w 0 3 s d x V V V 1 . ",
"# # 1 2 w q q s s h b n B N b     # h.C.v.h.j.x.c.b.b.x.j.j.l.z.z.v.c.c.z.x.x.c.S.j.#     2 > # 1 q t s x b b N N V 1 . ",
"X # # 1 q q q d k c V B N N b     # 9.e.8.4 # 2 x.D.z.6 # # # # 4 7.e.7.4 # 6 z.U.j.#     1 > # 1 q d l N V B N N V 1 . ",
"# # # 1 q q q d h c V N V N c     X <.w.<.      h.Y.j.            <.w.<.      l.U.j.#     = % % = # d B N N N N N V 1 . ",
"# # # 1 a q 8 s d k V N N C V     @ 6.e.2.#   # l.U.x.#         # 2.e.2.@   # h.G.z.#     = = % =   h Y B n N N V H 2 . ",
"# # X # 5 q t k c b B N n h a     @ 2.e.2.@   # j.D.j.#         # 2.e.6.#   # x.U.x.#     # # % % # q h b B N V l g > . ",
"# # X # + a b B V N N V F 2 .     # 8.r.9.X   # c.E.c.#         # 9.r.9.#   # c.E.c.#     # # 1 > 1 % + b H C H a . # # ",
"# # # # # 2 7 b V N V h q = #     # 1.q.,.#   # f.C.f.#         # ,.0.,.#   # f.C.f.#     # # # # # % = q a p s 2 # # # ",
"# # # # # # + v S V H q   # # # # # @ # @ # # # # # # # @ X # 1 h # # # b N b : # #   @ # % # X # + # 1 % # % % # # % # ",
"# # # # # # # = 1 1 2 # # # # # # #       # # #       # # # # # =       1 1 1       # # # # # # # # # # # # # # # # # # ",
"# # # # # # # . . .   @ # # # # # #       # # #       # # # # # O       . . .       # # # % # # # # # # # # # # # # # # "
};
