/* XPM */
static char *xpm_[] = {
/* columns rows colors chars-per-pixel */
"60 60 178 2 ",
"   c #020202",
".  c #0A0506",
"X  c #060807",
"o  c #0A0907",
"O  c #060609",
"+  c #0A0709",
"@  c #070909",
"#  c #0C0B0C",
"$  c #120D0D",
"%  c #0E100E",
"&  c #13100F",
"*  c #1A100F",
"=  c #0E0E10",
"-  c #130E10",
";  c #180F10",
":  c #0D1011",
">  c #151212",
",  c #1B1515",
"<  c #1B1917",
"1  c #161719",
"2  c #1B1619",
"3  c #15191C",
"4  c #1D1A19",
"5  c #221616",
"6  c #211917",
"7  c #211719",
"8  c #231C1B",
"9  c #281E1C",
"0  c #26211E",
"q  c #29211F",
"w  c #281F20",
"e  c #231F20",
"r  c #262221",
"t  c #2B2523",
"y  c #2E2926",
"u  c #2F2929",
"i  c #312625",
"p  c #312A26",
"a  c #302728",
"s  c #332D2A",
"d  c #36312D",
"f  c #39322F",
"g  c #373331",
"h  c #3B3432",
"j  c #3E3A35",
"k  c #3F3D39",
"l  c #791329",
"z  c #413636",
"x  c #413936",
"c  c #443B39",
"v  c #493D3D",
"b  c #45413D",
"n  c #45423D",
"m  c #48423F",
"M  c #4A413F",
"N  c #484540",
"B  c #4A4641",
"V  c #4C4441",
"C  c #4E4A45",
"Z  c #4D4A44",
"A  c #514544",
"S  c #504D46",
"D  c #524F4A",
"F  c #514E49",
"G  c #544F4A",
"H  c #524F4A",
"J  c #53504A",
"K  c #54514A",
"L  c #55524B",
"P  c #56534C",
"I  c #55524D",
"U  c #57544D",
"Y  c #53524D",
"T  c #58554E",
"R  c #595751",
"E  c #5B5851",
"W  c #595951",
"Q  c #5D5A53",
"!  c #5D5A55",
"~  c #5D5C56",
"^  c #565550",
"/  c #615D56",
"(  c #615E59",
")  c #61605B",
"_  c #6B6761",
"`  c #666D6D",
"'  c #696D6E",
"]  c #6A6D71",
"[  c #6E7375",
"{  c #707476",
"}  c #767976",
"|  c #737679",
" . c #757A7B",
".. c #797C7D",
"X. c #883546",
"o. c #8A3248",
"O. c #974F63",
"+. c #955161",
"@. c #985064",
"#. c #7D807F",
"$. c #757C81",
"%. c #7B7E81",
"&. c #7B8183",
"*. c #76848B",
"=. c #7C858A",
"-. c #7D898E",
";. c #7E8C93",
":. c #828685",
">. c #828688",
",. c #82898B",
"<. c #898E8C",
"1. c #828D95",
"2. c #859196",
"3. c #84929B",
"4. c #8B9A9F",
"5. c #8C9BA2",
"6. c #94A4AC",
"7. c #98A6AF",
"8. c #93A2A7",
"9. c #9BADB3",
"0. c #A7B3BF",
"q. c #EECFB3",
"w. c #F0CEB5",
"e. c #EED0B6",
"r. c #F7DDBF",
"t. c #FDDDBE",
"y. c #F7D3B7",
"u. c #E9C7AC",
"i. c #FEE0BE",
"p. c #A7B5C1",
"a. c #AEBECD",
"s. c #A8B4C2",
"d. c #B1BFCD",
"f. c #AFC1CE",
"g. c #B2C1CE",
"h. c #B2C2D2",
"j. c #B6C7D9",
"k. c #B7C8D9",
"l. c #BCCCDC",
"z. c #BBCCD6",
"x. c #BED0DE",
"c. c #BED0E1",
"v. c #C1D1DF",
"b. c #CADBDD",
"n. c #F9DEC3",
"m. c #FFE6C4",
"M. c #FDEEC7",
"N. c #C4D5E5",
"B. c #C9DBE2",
"V. c #C9D6E9",
"C. c #CDDEED",
"Z. c #C7DAE9",
"A. c #CDDFF1",
"S. c #CCE4E8",
"D. c #D1E4E6",
"F. c #D3E5EC",
"G. c #D9E7EE",
"H. c #D7EAEE",
"J. c #D9EAEE",
"K. c #DBF1EE",
"L. c #CEE0F3",
"P. c #D1E2F2",
"I. c #D7EAF0",
"U. c #DBECF2",
"Y. c #D7ECFF",
"T. c #D9EAFC",
"R. c #DDF1F5",
"E. c #DFF2F8",
"W. c #E3EFEF",
"Q. c #E1EEF4",
"!. c #EEEFF3",
"~. c #E3F4F5",
"^. c #E3F8F7",
"/. c #E3F5FD",
"(. c #E5F9FE",
"). c #EBFEFE",
"_. c #F2FFFF",
"`. c #FCFEFE",
/* pixels */
"# # # # . . .             # # $ # . .       .   # # # # # . . O       .           # $ X .       . .   .         # $ # # ",
"# # # # > > > < < < < < < # # # # & > < < < < < & # # # & > > , < < < < < < < < 4 # # - > < < < , > > , 3 < < 4 # # # # ",
"# #   > s h c Y ! R T Q ) ,     o t k ( R R ~ _ g       0 d x N E E Q ~ Q E T E _ t   0 g E ~ ( K x c x K Q E _ r   # # ",
"# # > 0 h c Z J U P T S D 0 > 4 t j B T P U S G j < 4 , s h m C U D C C C K T D G d < s h C C S B j N B Y ^ J J d < # # ",
". > h j M J / P K P T Z c h d B D ~ E K K P n j n G j s k m E E U C c c x P ~ C j M C B n c c c b c D ( U U C h n D <   ",
"X $ q y f k Z J U P ~ j t r q s j B C U P P j s g f s p j b B Z Q n 0 s d n C c s g f d d h d y p f c Z G ~ B s f h > . ",
"# # < 0 p f k S U U ( d $ , 7 t s j B R U R d t y p s p j n j b ( c $ q s h n h t p y y y s y , 0 y h k D ~ n t p s & . ",
"# # 7 r p h c S T C B p , 8 7 8 0 s h B n B t 8 4 > 4 r p f c c Z d , 9 8 s f y 7 8 r , > > > - , 9 y d c C f 7 , > # # ",
"# $ 8 t s x c Y ~ C n p 6 8 8 2 8 y d c c c r 6 2 . , 8 y s c c n d , 8 6 p f t 6 8 8 - # # # = & 7 y s x B d 5 -   # # ",
"# # > 4 8 s j B D n j r > , , 6 8 p f n j j 8 , > # > , q y h h j p 6 , , 8 r 7 , < , > - $ $ = > , 9 i s h y , - # # # ",
"# # . # . 8 s x n h d 4 O = $ 7 r p h B f s > @ # = = # , 8 p s s y 9 > # # # # o # X # $ $ & # # # , 9 , , ; # # # # # ",
"# # # # # 7 r s h y 4 > # = - > , r p x t , > - - - - # > , w r t 8 > > - - # , t 8 0 0 0 & # > - $ > > r y t r > . # # ",
"# # # # # , 8 y f 8 O # > $ - = > 4 q f < . > * > > $ # # # , 6 8 , # $ > $ # 7 h s d d s $ $ - - $ # # t f s h ,   # # ",
"# # # # - > > > , > > > > $ = = - > > , > - > > $ - - $ r y p t > $ $ - $ , 6 7 8 y s s p y 9 $ > # , 4 y s p s t t > # ",
"# # # # > $ # # # # > > > > > $ # = # # - > $ > > > - $ y d d t $ > & > $ < 9 7 , t s p p f p $ > $ , 9 y s p s s g > . ",
"$ # X # & - $ # #       $ 4 8 $ # - - - 5 9 > - > # ,     X y p p 8 # , 8 8 7 7 , t p h z v g # > 9 7 < t p s x x v , . ",
"# # # # $ > > , ,       # 2 7 , > $ & $ , 7 > & > & <       s s h q X , 9 7 8 8 8 y s z c h u # > 7 8 0 p s h c h g > . ",
"# # - $ $ , 8 u p > = % + # = f p o # # $ $ $ $ , q , X # X f z N s . 7 9 7 , 9 p f c v c > # = $ # r g c M v Z 0 . # # ",
"# # - - # ,     $ B.!.B.#     8 9 6 4 4 7 7 > #     # ' $.` # X . 8 # > < 0 0 y g h c s t > $ - - # 4 r y a p p 7 $ # # ",
"# # > $ # ,     % /.`./.      . & h g s s g , #       [ -.[ O     # $ $ # p h z V v N , . # # # # # + . # $ $ # $ , # # ",
"# # # $ - >     = J.`.J.4 # # > , r 0 y y y , # . # # } <.} = . . - - $ # 4 4 8 r w r > & 8 0 0 r 8 9 r > $ > > $ # # # ",
"# # X # > #     # q.m.n.J.Q.B.=               . ` [  .w.r.q.} [ ` +     # # # # # $ # $ > s d s s s s f , o $ , # . # # ",
"# # # # # #     # y.m.i.`.`.).#                 | &.:.t.M.t.:.&.| O     r 7 4 , - - $ , 8 p s s p s p s t y 8 $ $ # # # ",
"$ # $ # @ $     # u.r.y.Q.^.D.1 . # # % % # # , [  ...e.r.q.#.$.[ +     s q 9 < - - $ 4 9 s s s s p s p s f 0 # # @ # # ",
"# # $ # # $     #  .:.&.&.&.&.{ ]  .F.K.I.I.R.F.&.[  .%.#.%. .&.[ X     y 7 , , , > - 4 9 t y s s s p s p s t 7 > # # # ",
"# # # # # #     . '  .{ [ [ { .. .,.)._._.)._.)...' [ [ [ |  .%.[ .     d , . , q , $ 4 8 , 8 s s p s p p p s h 9 $ # # ",
"# # # # # ,     X [ &. . . . . .[ &.R.).(.(.).R.,...&. .|  . .&.[ X     < > $ > , > # 6 8 < 8 0 t s p y s p s s 7 $ # # ",
"# # # # # 0     . [ %. . . . . .{ &.R.).(.(.(.(.E.^.I.&.{  . .&.[ +     + - $ $ $ # # 4 8 8 7 , 0 s y p p y p s 4 $ # # ",
"# # . > , t       [ &. . . . .{ '  .R.).(.).).).)._.)...' { [  .'       + 9 u t t 4 $ > > 2 8 y s x h j h h j c w $ # # ",
"# # # & 8 0 # . # [ &. . . . .&. .,.R.).(.R.E.E.R.^.J.,...&.=.>. .1 # = X t d s g 8 $ = # 7 9 s h c c z c c z c 9 # # # ",
"X # 7 X   X ' | [  . . . .{ &.J.^.R.(.).U.,. .&.&. .,.I.~.R.U.~.R.J.W.B.#   X s V r $ - > y f c c z z z c N s $ # @ # # ",
"# # 9     #  .>.&. . . .{ '  ./._.).)._.~. .' [ { ' %.(._.).).).)._.`./.-     s z 9 $ - , t p s g z z z g h r + # # # # ",
"O % 9     X [ #. . . . .&. .,.E.).(.~.^.H.&.{  . .{ &.I.^.E.(.(.(.(._.I.%   . a . $ > $ $ # $ O e A c M 7 # # O # # # # ",
"# # ,     . [ &. . .{ &.I.^.E.(.).~.,...&. . . . . . .&. .,.R.).(.(._.H.%     9 $ & - 7 8 9 , # 7 s i p , - $ # # # # # ",
"# # #     X '  .[ { ] ../._.).(.).E...' {  . . . . . .[ '  .U.).(.(.).I.%     # $ $ X y g g p $ $ # $ # # # # $ #   # # ",
"# # #     .  .>.&.&. .,.R.).(.(.).R.&.{ .. . . . . . . .[ &.R.).(.(._.I.#     > , 7 0 p s p p q 4 - - $ 8 0 0 9 8 8 # # ",
"# # X     = S.).R.R.R.E.(.(.(.(.).R.&.{  . . . . . . . .[ &.R.).(.(._.I.#         . d p p s s h r $ - $ p h d s s f > . ",
"$ # #     : ).`._.).).).(.(.(.)._.(. .' {  . . . . . .[ '  .U.).(.(._.I..           8 y s s p s 0 # , 7 8 8 t s f c > . ",
"# # #     # b.W.I./.(.(.(.(.(.Q.~.G.,...&. . . . . . .&. .,.R.).(.(.).H.3 % = = # # > r y t y f 8   2 q , , 8 t h V , . ",
"# # # # # $ # : 4 I._.(.(.).R.+.X.O.G.^.I.&.{  . .{ &.I.^.E.(.(./.c.z.c.H.U.H.I.~.b.= . O                       X y & . ",
"# # # # . #       /.`._.(.).U.X.l X./._./...' { [ '  ./._.).).).(.l.j.l.)._._._.`./..                             . # # ",
"# # # # # -     # B.~.I.(.).U.@.o.+.Q.).R.,...&.&. .,.E.).(./././.l.k.l./.).(.(.).I.3 # # # # = = # = # # # X X # # # # ",
"# # # # > & # y s = % 4 I._./.Q.Q.Q./.(.(.E.R.E.E.~.~.(.(./.v.l.l.l.l.l./.(.(.(.(./.g.f.d.h.d.h.H.U.I.H.R.D. .[ ` .     ",
"# # # # $ , 7 8 8       /.`._.).).).).(.).).).).).).).(.)./.l.j.l.l.l.l./.(.(.(.).(.Z.N.V.A.C.P._.`.`.`.`._.<.=.$.@     ",
"# # # # & , 9 7 ,     = B.~.J././././././././././.(././././.l.l.l.l.l.N./.).(./.(./.l.l.l.g.a.h.H.U.I.I.R.D. .[ ` O     ",
"# # # , 8 8 8 7 6 9 s y # # 3 h.V.l.l.x.c.l.l.l.l.x.l.l.v.l.l.l.l./.(./.(.(./.x.l.l.l.N.h.1 # # : # = # # # . O +   # # ",
"# # > , 8 8 8 7 < r p y       j.C.N.l.l.l.l.l.l.l.l.l.l.l.l.l.l.l.(.).).(.)./.l.j.l.N.L.l.                        # # # ",
"@ # 8 8 8 8 7 7 7 6 , 0 .   # 0.l.h.l.l.l.l.l.l.l.l.l.l.l.l.l.l.l./.(././././.l.l.l.h.l.p.#                     . p & O ",
"# # 8 8 7 8 8 7 7 8 0 p s s p # # 1 h.N.l.l.l.l.l.l.l.l.l.l.l.l.l.l.x.l.l.l.l.l.N.h.1 # # $ $ , , 7 7 , t u u s s g > . ",
". $ 9 8 7 7 7 7 , 0 p h c x x O     h.Z.l.N.V.N.l.l.l.N.N.N.N.N.N.l.l.l.N.N.N.l.N.d.      , - # > 9 6 < t y s c c c > . ",
"# # > , 9 7 7 t t p h j x z h     # a.N.k.a.d.h.l.l.l.h.d.d.f.g.h.k.l.l.g.h.h.l.N.g.#     > - # > 8 q t d h h z z c > . ",
"X # # > 8 7 7 y s f c x z z h X   # 3.7.2.1 # , h.C.g.3 # # # # 1 2.7.1.1 # 3 g.A.a.#     > $ # > 8 y s z c c z z c > . ",
"# # # > 8 8 7 y p f c z c z f     X -.8.-.      a.L.d.            -.8.-.      d.A.g.#     $ $ $ & # y x z z x x z c > . ",
"# # # > t 8 5 t y s c z z v c     @ 1.6.;.#   # f.L.h.#         # ;.6.;.#   = g.L.h.#     $ > $ &   s A x j z z c V > . ",
"# # X # 2 8 q s f h x z j p r     @ ;.6.;.@   # d.C.d.#         # ;.7.1.@   # g.A.h.#     # $ $ $ # 8 s h c x c s i - . ",
"# # X # + r j x c z z c N , .     # 2.9.3.X   # k.Y.l.#         X 3.9.3.@   # l.T.l.#     # # > > > $ + h V v A r . # # ",
"# # # # # , 4 g c z c p 8 & #     # *.5.*.#   # p.N.p.#         # *.4.*.#   # p.N.p.#     # # # # # $ & 8 r w t , # # # ",
"# # # # # # + g M c V 8   # # # # # @ # @ # # # # # # # @ X @ > p # # # h z h = # #   @ # $ # X # . # > $ # $ $ # # $ # ",
"# # # # # # # & , > , # # # # # # #       # # #       # # # # # &       > > >       # # # # # # # # # # # # # # # # # # ",
"# # # # # # # . . .   @ # # # # # #       # $ #       # # # # # O       . . .       # # # $ # # # # # # # # # # # # # # "
};
