/* XPM */
static char *xpm_[] = {
/* columns rows colors chars-per-pixel */
"60 60 184 2 ",
"   c #020202",
".  c #090605",
"X  c #060807",
"o  c #0A0906",
"O  c #070609",
"+  c #0A0709",
"@  c #070909",
"#  c #0C0B0C",
"$  c #120F02",
"%  c #120D0D",
"&  c #0E100E",
"*  c #141404",
"=  c #13110E",
"-  c #1A100F",
";  c #1A1C0D",
":  c #0E0D10",
">  c #130E11",
",  c #180F11",
"<  c #0E1111",
"1  c #151212",
"2  c #1A1515",
"3  c #1B1916",
"4  c #161619",
"5  c #1B1718",
"6  c #15191C",
"7  c #1C1A1A",
"8  c #211616",
"9  c #211A16",
"0  c #201718",
"q  c #231C1B",
"w  c #281E1C",
"e  c #232316",
"r  c #26211E",
"t  c #29211E",
"y  c #29291D",
"u  c #26281B",
"i  c #281F20",
"p  c #262121",
"a  c #2B2523",
"s  c #2E2925",
"d  c #2F2929",
"f  c #302625",
"g  c #302A26",
"h  c #302728",
"j  c #332D2A",
"k  c #382E2D",
"l  c #2D3025",
"z  c #36322D",
"x  c #39322E",
"c  c #373332",
"v  c #3B3432",
"b  c #3E3A36",
"n  c #3F3D39",
"m  c #791328",
"M  c #413636",
"N  c #413936",
"B  c #443B39",
"V  c #493D3C",
"C  c #45413D",
"Z  c #45423C",
"A  c #48423F",
"S  c #4A413E",
"D  c #484540",
"F  c #4A4641",
"G  c #4C4441",
"H  c #4E4A45",
"J  c #4D4943",
"K  c #504D46",
"L  c #524E4A",
"P  c #544F4A",
"I  c #514E4A",
"U  c #534544",
"Y  c #53504A",
"T  c #54514A",
"R  c #56534C",
"E  c #55524D",
"W  c #57544D",
"Q  c #53514C",
"!  c #58554E",
"~  c #595751",
"^  c #5B5851",
"/  c #595951",
"(  c #5D5A53",
")  c #5D5A55",
"_  c #5D5B56",
"`  c #565550",
"'  c #615D56",
"]  c #615E59",
"[  c #61605B",
"{  c #6B6761",
"}  c #666D6D",
"|  c #696D6D",
" . c #6A6F72",
".. c #6E7474",
"X. c #6F7579",
"o. c #717475",
"O. c #797977",
"+. c #75767A",
"@. c #757A7C",
"#. c #787C7D",
"$. c #747877",
"%. c #8A3547",
"&. c #8A354A",
"*. c #944F62",
"=. c #965162",
"-. c #7B817F",
";. c #7A7E81",
":. c #7B8283",
">. c #76848B",
",. c #7C898E",
"<. c #79848A",
"1. c #7F8C93",
"2. c #838684",
"3. c #83878B",
"4. c #82898B",
"5. c #818C95",
"6. c #858F98",
"7. c #859296",
"8. c #85929B",
"9. c #8D969B",
"0. c #8C9BA2",
"q. c #92A3A7",
"w. c #95A5AB",
"e. c #9CADB2",
"r. c #E6C6AD",
"t. c #EECEB6",
"y. c #EFD0B3",
"u. c #F6DDBF",
"i. c #FEDEBF",
"p. c #F6D3B8",
"a. c #FFE1BF",
"s. c #A6B5C1",
"d. c #A8B5C2",
"f. c #AEBFCD",
"g. c #B2BFCF",
"h. c #AFC1CE",
"j. c #B1C0CE",
"k. c #AFC2D1",
"l. c #B2C1D1",
"z. c #B8C8D7",
"x. c #B7C8D9",
"c. c #BCCCDC",
"v. c #B6C7D9",
"b. c #BED0DE",
"n. c #BFD0E0",
"m. c #C9DBDF",
"M. c #F9DEC3",
"N. c #FFE5C3",
"B. c #FFEDC8",
"V. c #C4D5E4",
"C. c #CADCE2",
"Z. c #C5D6E9",
"A. c #C6D9E9",
"S. c #CCDCEC",
"D. c #C8D9E4",
"F. c #CDE0EF",
"G. c #D3E5EB",
"H. c #DAE7EE",
"J. c #D6EAEE",
"K. c #D9EBED",
"L. c #D0E3E7",
"P. c #DCF0EF",
"I. c #CEE0F1",
"U. c #D0E1F3",
"Y. c #D7EAF0",
"T. c #D9EBF2",
"R. c #D7ECFF",
"E. c #D9EBFD",
"W. c #DEF1F6",
"Q. c #DEF2F8",
"!. c #DFF8FE",
"~. c #E2F1EE",
"^. c #EEF0EF",
"/. c #E1EEF4",
"(. c #E1EFF8",
"). c #EBEFF0",
"_. c #E3F2F3",
"`. c #E3F5FC",
"'. c #E5F9FF",
"]. c #EBFEFE",
"[. c #E4F8F7",
"{. c #F3FFFF",
"}. c #FDFFFE",
"|. c #F3F7F8",
/* pixels */
"# # # # . . .             # # % # . .       .   # # # # # . .         .           # % X .       . .   .         # % # # ",
"# # # # 1 1 1 3 3 7 3 3 7 # # # # = 1 3 3 7 3 3 = # # # = 1 1 4 3 7 3 3 3 3 3 3 7 # # > 1 3 3 7 2 1 1 4 6 7 7 7 # # # # ",
"# #   1 j v B E ) ~ ! ( [ 2     o a n ] ~ ~ ) { c       r z N D ^ ^ ( ) ( ^ ! ^ { a   r v ^ _ ] T N B N T ( ^ { p   # # ",
"# # 1 r v B J Y W R ! K L r 1 7 a b F ! R W K P b 3 7 2 j v A H W L H H H T ! L P z 3 j v H H K F b D F E ` L Y z 3 # # ",
". 1 v b S Y ' R T R ! J B v z F L _ ^ T T R Z b Z P b j n A ^ ^ W H B B N R ) H b S H F Z B B B Z B L ] W W H v Z L 3   ",
"X % t s x n J Y W R ) b a p t j v F H W R R b j c x j g b Z F J ( Z r j z Z H B k v x z z v z s g x B J P ) F j x v 1 . ",
"# # 3 r g x n K W W ] k % 5 q a j b F ~ W ~ z a s g j g b Z b Z ] B % t j v Z v a g s s s j s 2 r s v n L ) Z a d j = . ",
"# # q p g v B K ! H F g 2 q q q r j v F Z F a q 7 1 7 p g x B B J z 2 q q j x s q q p 2 1 1 1 > 2 q s z B H x q 2 1 # # ",
"X % q a z b Z T ) L B g q q q 3 q s z B B B p 9 2 . 2 q s j B Z Z z 5 q 0 g x a 0 q q > # # # : = q s j N F z 8 >   # # ",
"# # 2 7 q j b F L Z M p 1 5 2 0 q g x Z b v q 2 1 # 1 2 t s v v b j 8 0 4 q p q 2 3 2 1 > % % : 1 2 q f j v s 5 > # # # ",
"# # . # . q j b Z v z 7 @ # : q p g v F x j 1 # # > : # 2 q g g j a q 1 # : # # o # X # % % = # # # 2 q 2 2 , # # # # # ",
"% # # # # q p j v s 7 1 : > > 1 2 r f N a 2 1 > 1 > > : 1 2 i p a q 1 1 > % # 2 a q r r r = # 1 > % 1 1 p s a p 1 . # # ",
"# # # # # 2 q s k       = > % : 1 7 t v 5 . 1 - 1 1 >       2 0 q 2 # 1 1 % # q v j z z j % % > > % # # a x j v 2   # # ",
"# # # # : 1 1 1 4       = > % # > 1 1 4 1 > 1 1 1 1 >       s a % 1 > > % 3 0 q q s j j g s q % 1 # 2 7 s j g j a a 1 # ",
"# # # # 1 % # # # : # : > > = % # : # # % 1 % 1 > > > . X # g a % 1 , % % q q q 5 a j g g x g % 1 % 5 q s j g j k v 1 . ",
"% # X # = %     # C.^.m.#     # # > 1 > 5 q 1 >     . } #.| #     q # 2 q q q q 5 a g v M V v # 1 q q 3 a g k N N V 2 . ",
"# # # % % %     # !.}.`..     2 2 % % > 2 q 1 1       ..3.X.      p o 2 q q q q q s j M B v d # 1 q q r g k v B v v 1 . ",
"# # = = % 2     # J.}.H.7 # # j s . # % # # % % X . # O.4.O.# . # s . 2 q q 2 t g x B V B 1 # : % # p v B S V J r + # # ",
"# # > = # 2     % t.N.M.K._.C.:               O } ..O.t.u.t.$...| +     2 r t s v v B k a 1 % > > # 7 p s h g g 0 % # # ",
"# # 1 > # 2     o p.N.a.{.}.'.#                 +.;.2.i.B.i.2.:.$..     # s v N G V D 2 . # # # # # + . # % % # % 2 # # ",
"# # # # > 1     % r.M.p.W.[.G.4 O @ : # < % & 4 ..@.;.y.u.y.-.@...O     % 2 q q p i i 1 = q r r p q q p 1 % 1 1 % # # # ",
"# # X # 1 #     X $.2.:.:.:.;...| @.L.P.Y.Y.W.L.:.o.O.;.:.#.@.:...O     # # # # # % # % 1 j z j j k k x 5 o % 2 # . # # ",
"% # # # # #     .  .@.o.....X.;.@.3.].{.{.].{.].#.| o.X.X.X.$.;....     a q q 2 > > % 5 q g j j g j g j a s q % % # # # ",
"# # % # # %     X ..;.@.@.$.@.$.o.:.W.].'.'.].Q.3.#.:.@.$.$.$.:....     j p q 0 > > % 7 q j j j j g j g j x r # # @ # # ",
"# # % # # #     . ..:.@.$.@.@.$.o.:.Q.].'.'.'.'._.[.Y.:...O.@.:....     s 7 2 5 2 1 > 7 q a s j j j g j g j a q 1 # # # ",
"# # # # # #       ..;.@.$.$.@...| #.W.].'.].].].{.{.].#.| ..o.#.|       x 2 . 2 t 5 % 7 q 5 q j j g j g g g j v q % # # ",
"% # # # # 2 # X : ..:.$.@.$.@.:.#.4.Q.].'._.W.W.W.[.Y.3.@.:.:.3.@.4 % < 2 1 % , 2 1 # 0 q 3 q r a j g s j g j j q % # # ",
"% # #     # } $...$.$.$.@...:.J.[.W.'.].W.3.#.:.:.#.3.T.[.W.W.Q.Q.T./.C.:     % % # # 7 q q q 5 r j s g g s g j 7 % # # ",
"# # .     . +.:.:.;.;.;.o.| #.'.{.].].{.'.:.o.+...| ;.].{.].].].].{.}.[.<     p a 7 % 1 1 5 q s j N v b v v b B i % # # ",
"# # #     . ..:.$.o.....:.#.3.Q.].'._.[.J.#.| o.$.+.:.T.[.Q.'.'.'.'.].Y.#     g v q % : # q q j v B B M B B M B q % # # ",
"@ # q     . ..:.o.y * l G.`.W.'.].W.4.-.#.y ; y ..;.$.:.#.3.W.].'.'.{.Y.&     j G p % > 1 s x B B M M M B D j % # @ # # ",
". % q     . | ;...9 o u W.{.].'.].W.@.....9 * 3 ..;.$...| #.W.].'.'.].Y.#     j M q % , 2 p s k v M M M v v p + # # # # ",
"+ # w     . +.4.@.e * y T.].'.'.].Q.:.+.o.e * e o.;.$.@.o.:._.].'.'.{.Y.#     s X > - % % % # O q D b V 5 # # @ # % # # ",
"X # 2     & L.|.L.a o y J.{.'.'.].Q.:.+.o.e * e o.;.@.O...:.W.].'.'.{.J.#           % 7 q q 0 #             % # # # # % ",
"@ # +     < '.}.].e   9 T.].'.].].'.#... .3 $ 9 o.:.+.o.| #._.].'.'.{.H..           # a v v s #             # # .   # # ",
"# # +     < m.).C.x 3 x K.{.'./._.H.3.-.#.y ; y ..#.@.:.#.3.Q.].'.`.].G.7 # & # % : q s g s a q # < # : & # q q q q # # ",
"# # # +   p 1 > 7 C.~.T.'.'.(.=.%.*.H.].T.#. ...$.o.:.Y.[.W.'.'.`.n.c.V.G.T.T.T.~.C.1         # C._.T.J._.m.1   . j 1 . ",
"# # @ # > 1       ].}.{.'.].T.&.m &.`.{.'.:.o.@.o.| @.'.].].].].'.c.l.c.].{.].{.}.`.          O ].}.}.}.}.].#     M 1   ",
"% # # # 1 #     & D._.T.'.'.(.=.%.=.W.{.W.4.$.:.:.#.4.W.].'.'.`.[.c.x.c.`.].'.'.{.Y.6 : # # : 7 C._.Y.Y./.C.4 # # V 1 . ",
"# # # # # > > % % # # 7 T.{.'.T.(.(.'.'.'.Q.W.W.W.W.Q.'.'.'.b.c.c.c.z.b.`.'.'.'.].`.l.f.j.h.z.d.7 # : : # 1 | #.} X     ",
"# # # # . > 1 % .       `.}.{.].].].].'.'.].].].].].].].].'.c.z.z.c.x.c.`.].'.'.].'.A.V.V.S.E.V.            #.9.;.@     ",
"# # # # # % % q q     < C._.K.!.'.'.`.`.'.`.`.`.'.`.`.`.'.`.b.z.c.b.c.V.`.].'.'.'._.c.z.c.l.z.s.#         # | #.} .     ",
"# # # # 1 % % s v j s a < & 6 l.S.c.b.b.c.b.b.c.b.b.c.b.b.c.c.z.b.[.'.'.'.'.`.b.c.c.z.Z.l.6 # # % # % % # # . @ X . # # ",
"# # # # % 2 0 q q p j s       g.V.z.z.z.z.z.z.z.c.z.z.z.z.z.c.z.b.'.].].'.].'.c.v.c.V.U.z.      3 s a a a s       @ # # ",
"# # # % % 5 r q 5 i k g     # h.V.c.c.c.c.c.c.c.c.c.c.c.c.c.c.z.b.`.'.[.'.'.`.c.c.z.l.z.s.#     3 v j j k j       @ # # ",
"# # # 1 q q q q 3 t z s     # j.V.c.c.c.c.c.c.c.c.c.z.c.c.c.c.c.c.c.b.b.c.b.c.c.V.j.6 # # % 1 5 r z j j s g s j 1   # # ",
"# # 1 5 q q q q 0 t g s     # z.I.V.c.z.c.z.c.c.c.z.c.c.c.c.c.c.c.z.c.z.c.z.z.c.S.f.      % 1 q t g g s g g g x q % # # ",
"@ # q q q q q q q q 2 r .   # d.z.l.z.c.c.c.c.c.c.c.c.c.c.c.c.c.c.c.c.c.z.c.c.c.V.k.#     % 1 q q 3 q 3 s j g g g k = O ",
"# # q q q q q q q q r g k j g # # 4 l.V.c.c.z.c.c.c.c.c.c.c.c.c.c.c.c.c.c.c.c.c.V.g.#     % 1 2 7 q q 0 g g j x z v 1 . ",
". % q q q q q q 2 r g v B N N       l.S.c.V.Z.V.c.c.c.V.V.V.V.V.V.c.c.c.V.Z.V.c.Z.l.#     2 % # 1 q 0 3 a s z B B B 1 . ",
"# # 1 2 q q q a a g v b N M v     # f.V.x.f.g.l.z.c.c.l.g.g.h.j.j.x.z.z.j.l.l.c.A.g.#     2 > # 1 q t a z v v M M B 1 . ",
"X # # 1 q q q s j x B N M M v     # 8.w.7.4 # 4 l.S.j.6 # # # # 4 6.w.6.4 # 6 j.I.g.#     1 > # 1 q s k M B N M M B 1 . ",
"# # # 1 q q q s g x B M B M x     X ,.q.,.      f.U.g.            ,.q.,.      h.I.g.#     = % % = # s N M M M M M B 1 . ",
"# # # 1 p q 8 a s j B M M V B     @ 5.w.1.#   # k.I.l.#         # 1.w.1.@   # f.F.j.#     = = % =   g U N b M M B G 4 . ",
"# # X # 5 q t j x v N M b g p     @ 1.w.1.@   # g.S.g.#         # 1.w.5.#   # l.I.l.#     # # % % # q g v N M B k f > . ",
"# # X # + p v N B M M B D 1 .     # 7.e.8.X   # z.R.z.#         # 8.e.8.#   # z.E.z.#     # # 1 > 1 % + v G V G p . # # ",
"# # # # # 4 7 v B M B g q = #     # <.0.>.#   # s.V.s.#         # >.9.>.#   # s.V.s.#     # # # # # % = q p i a 2 # # # ",
"# # # # # # + c S B G q   # # # # # @ # @ # # # # # # # @ X @ 1 g # # # v M v : # #   @ # % # X # + # 1 % # % % # # % # ",
"# # # # # # # = 4 1 4 # # # # # # #       # # #       # # # # # =       1 1 1       # # # # # # # # # # # # # # # # # # ",
"# # # # # # # . . .   @ # # # # # #       # # #       # # # # # O       . . .       # # # % # # # # # # # # # # # # # # "
};
