/* XPM */
static char *xpm_[] = {
/* columns rows colors chars-per-pixel */
"60 60 190 2 ",
"   c #020202",
".  c #0A0606",
"X  c #060807",
"o  c #0A0906",
"O  c #060709",
"+  c #090709",
"@  c #070909",
"#  c #0C0B0C",
"$  c #110F02",
"%  c #120D0D",
"&  c #0E100F",
"*  c #151306",
"=  c #13110E",
"-  c #1B1A0E",
";  c #0E0E10",
":  c #120E11",
">  c #180F10",
",  c #0E1111",
"<  c #151212",
"1  c #1A1514",
"2  c #1B1A16",
"3  c #151719",
"4  c #1B1718",
"5  c #15191B",
"6  c #1D1A19",
"7  c #211716",
"8  c #211916",
"9  c #231C1B",
"0  c #291E1E",
"q  c #20171A",
"w  c #232215",
"e  c #26211E",
"r  c #29211E",
"t  c #292A1E",
"y  c #262A1C",
"u  c #1A1E21",
"i  c #281F20",
"p  c #231F20",
"a  c #262121",
"s  c #2B2522",
"d  c #2E2926",
"f  c #2F2929",
"g  c #29272A",
"h  c #302625",
"j  c #312A27",
"k  c #302728",
"l  c #332D2A",
"z  c #382E2D",
"x  c #2F3022",
"c  c #36322D",
"v  c #39322E",
"b  c #373332",
"n  c #3C3432",
"m  c #3E3A35",
"M  c #3F3D39",
"N  c #791329",
"B  c #413736",
"V  c #413937",
"C  c #443C39",
"Z  c #493D3D",
"A  c #45413D",
"S  c #45413C",
"D  c #48423F",
"F  c #4A413F",
"G  c #484540",
"H  c #4A4641",
"J  c #4C4442",
"K  c #4E4A45",
"L  c #4D4A44",
"P  c #504D46",
"I  c #524E4A",
"U  c #544F4A",
"Y  c #574948",
"T  c #534544",
"R  c #53504A",
"E  c #54514A",
"W  c #56534C",
"Q  c #55524D",
"!  c #57544D",
"~  c #53524D",
"^  c #58554E",
"/  c #595751",
"(  c #5B5851",
")  c #595951",
"_  c #5D5A53",
"`  c #5D5A55",
"'  c #5D5B55",
"]  c #565550",
"[  c #615D56",
"{  c #615E59",
"}  c #61605B",
"|  c #6B6761",
" . c #666C6E",
".. c #696D6E",
"X. c #67706F",
"o. c #6B6D70",
"O. c #6E7375",
"+. c #6E7579",
"@. c #6E787A",
"#. c #717475",
"$. c #767977",
"%. c #72767A",
"&. c #757A7B",
"*. c #797C7D",
"=. c #893549",
"-. c #893545",
";. c #955163",
":. c #995162",
">. c #7C807F",
",. c #777C80",
"<. c #7A7E81",
"1. c #7B8183",
"2. c #76848B",
"3. c #7C898D",
"4. c #79848A",
"5. c #7F8C93",
"6. c #818585",
"7. c #828689",
"8. c #82898A",
"9. c #888D89",
"0. c #838D94",
"q. c #858F98",
"w. c #859296",
"e. c #85929B",
"r. c #8B9A9F",
"t. c #8C9BA2",
"y. c #92A3A7",
"u. c #95A5AB",
"i. c #9CADB2",
"p. c #EAC8AF",
"a. c #F0CEB6",
"s. c #F8CFB3",
"d. c #F6DFBF",
"f. c #FFDEBD",
"g. c #F6D6BD",
"h. c #A7B4C2",
"j. c #A8B5C3",
"k. c #AEBECD",
"l. c #B2BFCE",
"z. c #AFC1CE",
"x. c #B2C0CE",
"c. c #B3C1D1",
"v. c #B9C8D7",
"b. c #B7C9D8",
"n. c #BCCCDC",
"m. c #B9C7D8",
"M. c #BED0DE",
"N. c #BFCFE1",
"B. c #BFD0E2",
"V. c #C1CFDC",
"C. c #C1D2DF",
"Z. c #CCDBDE",
"A. c #FEDEC1",
"S. c #F6DCC1",
"D. c #FFE4C7",
"F. c #FEEBC4",
"G. c #C4D5E5",
"H. c #C5D8E7",
"J. c #C9DBE1",
"K. c #C5D6E8",
"L. c #C6D9E9",
"P. c #CDDDED",
"I. c #C8D5E8",
"U. c #CCDFF0",
"Y. c #CEE2EC",
"T. c #CBE0E5",
"R. c #D2E4E9",
"E. c #D6EAEE",
"W. c #D8EAEE",
"Q. c #CEE0F1",
"!. c #D0E1F2",
"~. c #D7EAF0",
"^. c #DAEBF2",
"/. c #D7ECFF",
"(. c #DAEBFD",
"). c #DDF1F5",
"_. c #DEF2F8",
"`. c #DFF8FE",
"'. c #E2F1EE",
"]. c #E0EEF5",
"[. c #E3F1F2",
"{. c #EAF2F3",
"}. c #E3F5FC",
"|. c #E8F4FB",
" X c #E5F9FF",
".X c #EBFEFE",
"XX c #F6F7F9",
"oX c #F2FFFE",
"OX c #FDFEFF",
"+X c #FBFEF7",
/* pixels */
"# # # # . . .             # # % # . .       .   # # # # # . .         .           # % X .       . .   .         # % # # ",
"# # # # < < < 2 2 6 2 2 6 # # # # = < 2 2 6 2 2 = # # # = < < 1 2 6 2 2 2 2 2 2 6 # # : < 2 2 6 1 < < 1 5 6 6 6 # # # # ",
"# #   < l n C ~ ` / ^ _ } 1     o s M { / / ` | b       e v B G ( ( _ ` _ ( ^ ( | s   e n ( ' { E V C V E _ ( | a   # # ",
"# # < e n C L R ! W ^ P I e < 6 s m H ^ W ! P U m 2 6 1 l n D K ! I K K K E ^ I U c 2 l n K K P G m G H ~ ] R R v 2 # # ",
". < n m F R [ W E W ^ L C n v H I ' ( E E W S m S U m l M D ( ( ! K C C B W ` K m F K H S C C C S C I { ! ! K n S I 2   ",
"X % r d v M L R ! W ` m s a r l m H K ! W W m l b v l j m S H L _ S e l v S K C z n v v v n v d j v C L U ` H l v n < . ",
"# # 2 e j c M P ! ! { v % 4 q s l m H / ! / v s d j l j m S m S { C % r l n S n s j d d d l d 1 e d n M I ` S s f l = . ",
"# # q a j n C P ^ K H j 1 9 q 9 e l n H S H s 9 6 < 6 a j v C C L v 1 0 9 l v d q 9 a 1 < < < : 1 0 d v C K v q 1 < # # ",
". % 9 s l B S ~ _ P C j q 0 9 7 9 d v C C S a q 1 O 1 9 d c C C F z 4 9 q j v s 8 9 9 : # # # ; = q d l B H v 7 :   # # ",
"# # < 6 9 l m H K .     = 1 1 2 9 j v S m n 9 1 1 # <       c n m j 2 2 1 p a 9 1 2 1 < : % % ; < 1 0 h l n d 4 : # # # ",
"# # . # . 9 l n S       O # ; q a j n H n l < @ # ; #       d l j s 9 1 # # # # o # X # % % = # # # 1 0 1 1 > # # # # # ",
"# # # # # 6 a j c & = # % # : < 1 e d B s 4 < : % = % X . @ q r a 9 < < : : # 1 s 9 e e e = # < : % < < a d s a < . # # ",
"# # # # # 1     , J.{.J.#     # < 6 0 v 4 O < >     O  .*. .#     1 # : < % o 9 n l v v l % % : : % # # s v l n 1   # # ",
"# # # # < :     = }.OX`.      # = < < 1 < % < >       +.8.O.      < < : % 4 8 9 9 d l l j d 0 % < # 1 6 d l j l s s < # ",
"# # # # : #     # W.+XW.6 : # # % # # # % < < % O # ; $.9.$.; . . : : % = q 0 9 4 s l j j v j % < % 4 0 d l j l z n < . ",
"# # # # < %     # a.D.A.W.[.J.#               O  .O.$.a.d.a.$.O. .@     q q 9 q 4 s j n B Z n # < 0 q 2 s j z B B Z 1 . ",
"# # # # % %     # s.F.A.oXOX X#                 $.1.7.f.F.f.7.1.$..     9 q 9 9 9 d l B C n f # < q 9 e j z n C n n < . ",
"# # = % % 1     % p.S.g.^.|.Y.1 . @ # # # % # 1 O.&.>.a.d.a.>.&.O.@     9 q 4 0 j v C Z C < # ; % # a n C F Z L e . # # ",
"# # : % # 1     O $.6.*.1.1.1.+. .&.R.).E.~.).R.>.#.&.*.>.>.&.1.O..     1 e r d n n C z s < % : : # 6 a d k j j q % # # ",
"# # < % # 1     . X.&.+.O.+.#.*.&.8..XoXoXoXoX.X*.o.O.+.%.@.$.<.O..     # d n m J Z G 1 . # # # # # O . # % % # % 1 # # ",
"# # # % % <     . #.<.&.&.$.$.$.#.1.)..X X X.X).8.*.1.&.&.&.$.<.O..     # 2 6 9 a i a < = 9 e e a 9 0 a < % < < % # # # ",
"% # # # < #     X O.>.&.$.&.$.&.#.1.)..X X X X X_.}.W.1.#.&.&.1.#..     # # # # # % # % < l v l l z z v 4 o % 1 # . # # ",
"# # # # # #       O.<.&.$.&.$.#.o.,.)..X X.X.X.XoXoX.X<. .#.#.$. .      s q 6 1 : : % 4 9 j l j j l j l s d 9 % % # # # ",
"# # % # @ # O . # O.<.&.$.&.&.1.*.3.)..X X).).).).}.~.8.*.1.1.8.$.1 # # f 0 9 8 : : % 6 0 l l l l j l j l v e # # @ # # ",
"# # #     .  .&.O.&.$.$.$.+.1.~.}._. X.X).8.*.1.1.*.8.~.}.}.).}.).~.[.J.,     1 1 < : 6 9 a s l l j l j j l s 9 < # # # ",
"# # #     . $.7.>.<.<.<.#.o.&. X.X.X.X.X X1.O.$.#. .<..XoX.X.X.X.XoXOX}.#     < r 1 % 6 9 4 9 v l l j j j j l n 0 % # # ",
"# # #     O O.1.$.O.#.#.1.*.8._..X X}.}.~.*.o.#.&.O.1.E.}.). X X X XoX~.#     % 1 < # 8 9 2 9 e s l l l j j j z 6 % # # ",
"# # #     . O.7.#.y * x R.|._. X.X).8.1.*.t - t O.*.&.1.*.8.)..X X X.X~.;     % % # ; 6 9 9 q 4 e l j d d j j l 9 % # # ",
"# # .     #  .<. .2 o y }.oX.X X.X).<.o.O.2 * - O.<.&.O. .<.)..X X XoXE.#     a d 6 % < < 6 0 d l B n n n n m C i % # # ",
"# # X     . &.8.,.w $ t ^..X X X.X).1.&.O.w * w #.<.$.$.#.1._..X X X.X~.&     j n 9 % ; # q 0 l z B m m m m n B 9 # # # ",
"# # 9     & R.XXR.t o t ^.oX X X.X_.1.&.#.w * w #.<.&.$.#.1._..X X X.X~.;     z J a % % 1 d v C .                 # # # ",
"O # 9     ,  XOX.Xw   w ~..X X.X.X X*.O. .8 $ 2 #.<.&.#. .*.)..X XoXOX}.,     l m 0 % : < s d z                   # % # ",
"O % 0     ; J.{.J.c - c ^.oX}.].{.W.7.1.&.y - t %.*.$.1.*.7._..X X~.[.Z.#   . d . : < % : % %   ; # & & # # @ . . # # # ",
"# # 1 9 9 s , # 6 T.[.^. X.X^.;.=.;.~.}.~.*. .#.$.#.1.~.}.}. XoX~.u : ;             % 6 6 .   # J.[.~.W.).R.&.O. ..     ",
"X # O 6 B n       .XOXOX.X.X^.=.N -.|.oX X<.#.&.O.o.*. XoX.X.XoX~.                  X d v     . .XOXOXOXOXoX0.7.<.X     ",
"# # # < 4 l .   < J.[.E. X.X].:.=.:.^.oX).8.*.1.1.$.8.)..X X X.XE.5 # # , & # ; # ; 9 s s # # 6 J.[.~.W.).R.$.O. ..     ",
"% # # #   g C B B % # 6 W.oX X].].]. X X X).)._._._._. X.X XG.n.n.c.l.c.E.^.~.~.[.J.,   # h.C.h.5 % ; & # ; O @ # l = . ",
"# # # # : 1 8 q q     . }.OXoX.X.X.X.X X.X.X.X.X.X.X.X.X.X Xn.b.n.G.G.K..XoX.X.XOX}..     G.}.C.                  B < . ",
"# # # # < % # ; %     # J.'.~.`.}.}. X}. X}.}.}.}.}. X}. X}.n.n.n.n.n.G. X.X X XoX~.5 # 3 j.G.h.#               . J 1 . ",
"# # # # # % = = : < 6 2 & ; 5 c.K.n.M.N.n.M.n.n.n.n.n.B.V.N.n.n.n.}. X}. X X.X X X}.c.m.h.3 # # 6 < 1 1 9 0 s v f j < # ",
"# # # # . : < % . 6 n l       k.G.n.n.n.n.n.n.n.n.n.n.n.n.n.n.m.n. X.X.X X X X X.X XL.U.n.      < d 1 . f n m Y i . # # ",
"# # # # # % = q e s l d     # c.K.n.n.n.n.n.n.n.n.n.n.n.n.n.n.n.C.}..X X X X X}. X}.n.K.k.#     < 1 < : 6 9 9 s 1 # # # ",
"# # # # < % % d n l j d     # c.K.n.n.n.n.n.n.n.n.n.n.n.n.n.}. X X X X X X.X}.G.n.n.n.K.c.#     % % % % % % # % # @ # # ",
"# # # # % 1 9 9 9 s l d     # x.K.n.n.n.n.n.n.n.n.n.n.n.n.M. X.X.X X X.X.X.X Xn.n.n.K.!.n.#     1 d s s s d 9 % # @ # # ",
"# # # % % 4 e 9 8 e l d     # z.K.n.n.n.n.n.n.n.n.n.n.n.n.n.}.}.}.}.}.}.}. X}.n.n.n.x.n.h.#     6 n l z l v a % % # # # ",
"# # # < 9 9 q 9 8 a z d     # z.K.n.n.n.n.n.n.n.n.n.n.n.n.n.n.M.M.M.n.M.M.n.n.n.K.x.3 # # % < 4 a z l l j l j z <   # # ",
"# # < 4 0 q q q 8 a j d     # v.Q.G.n.n.n.n.n.n.n.n.n.n.n.n.n.n.n.n.n.n.n.n.n.n.H.l.      = < 8 a d d d d l l v 9 # # # ",
"@ # 9 q q 9 q q q q 1 e .   # h.n.c.n.n.n.n.n.n.n.n.n.n.n.n.n.n.n.n.n.n.n.n.n.n.K.c.#     % < 0 q 2 q q d l j d j l < . ",
"# # 9 9 q 9 9 q q 9 e j z l j # # 3 c.G.n.n.n.n.n.n.n.n.n.n.n.n.n.n.n.n.n.n.n.n.K.l.#     % < 1 6 9 9 8 j j l v v n < . ",
". % 0 9 q q q q 1 e j n C B B       c.L.n.K.I.K.n.n.n.K.K.K.K.K.K.n.n.n.K.K.K.n.K.c.#     1 % # < 0 8 2 s d v C C C < . ",
"# # < 1 0 q q s s j n m B B n     # k.G.b.k.l.c.n.n.n.c.l.l.z.x.x.b.n.v.x.c.c.n.L.l.#     1 : # < 9 r s v n n B B C < . ",
"X # # < 9 q q d l v C B B B n     # e.u.w.3 # 1 c.P.x.5 # # # # 3 q.u.q.3 # 5 x.Q.l.#     < : # < 9 d z B C B B B C < . ",
"# # # < 9 9 q d j v C B C B v     X 3.y.3.      k.Q.l.            3.y.3.      z.Q.l.#     = % % = # d B B B B B B C < . ",
"# # # < s 9 7 s d l C B B Z C     @ 0.u.5.#   # z.Q.c.#         # 5.u.5.@   # k.Y.x.#     = = % =   j T B m B B C J 1 . ",
"# # X # 4 9 r l v n B B m j a     @ 5.u.5.@   # l.P.l.#         # 5.u.0.#   # c.Q.c.#     # # % % # 9 j n B B C z h : . ",
"# # X # + s n B C B B C G 1 .     # w.i.e.X   # m./.n.#         # e.i.e.#   # n.(.v.#     # # < : < % O n J Z J a . # # ",
"# # # # # 1 6 n C B C j 9 = #     @ 4.t.2.#   # h.G.h.#         # 2.r.2.#   # h.G.h.#     # # # # # % = 9 a i s 1 # # # ",
"# # # # # # O b F C J 9   # # # # # @ # @ # # # # # # # @ X # < j # # # n B n ; # #   @ # % # X # O # < % # % % # # % # ",
"# # # # # # # = < < 1 # # # # # # #       # # #       # # # # # =       < < <       # # # # # # # # # # # # # # # # # # ",
"# # # # # # # . . .   @ # # # # # #       # % #       # # # # # O       . . .       # # # % # # # # # # # # # # # # # # "
};
