/* XPM */
static char *xpm_[] = {
/* columns rows colors chars-per-pixel */
"60 60 184 2 ",
"   c #020202",
".  c #0A0505",
"X  c #060807",
"o  c #0A0906",
"O  c #070709",
"+  c #0A0709",
"@  c #070909",
"#  c #0C0B0C",
"$  c #120F02",
"%  c #120D0D",
"&  c #0E100F",
"*  c #141404",
"=  c #13110E",
"-  c #1A100F",
";  c #1A1C0D",
":  c #0E0D10",
">  c #130E11",
",  c #180F11",
"<  c #0E1111",
"1  c #151212",
"2  c #1A1515",
"3  c #1B1916",
"4  c #161618",
"5  c #1B1718",
"6  c #151A1C",
"7  c #1C1A19",
"8  c #211616",
"9  c #211A16",
"0  c #201718",
"q  c #231C1B",
"w  c #281E1C",
"e  c #232316",
"r  c #26211E",
"t  c #29211E",
"y  c #29291D",
"u  c #26281B",
"i  c #281F20",
"p  c #262221",
"a  c #2B2523",
"s  c #2E2926",
"d  c #2F2929",
"f  c #302625",
"g  c #302A26",
"h  c #302728",
"j  c #332D2A",
"k  c #382E2D",
"l  c #2D3025",
"z  c #36322D",
"x  c #39322E",
"c  c #373332",
"v  c #3B3432",
"b  c #3E3A35",
"n  c #3F3D39",
"m  c #791328",
"M  c #413636",
"N  c #413936",
"B  c #443C39",
"V  c #483D3D",
"C  c #45413D",
"Z  c #45423C",
"A  c #48423F",
"S  c #4A413E",
"D  c #484540",
"F  c #4A4641",
"G  c #4C4441",
"H  c #4E4A45",
"J  c #4D4943",
"K  c #504D46",
"L  c #524E4A",
"P  c #544F4A",
"I  c #534C49",
"U  c #524544",
"Y  c #53504A",
"T  c #54514A",
"R  c #56534C",
"E  c #55524D",
"W  c #57544D",
"Q  c #53514C",
"!  c #58554E",
"~  c #595751",
"^  c #5B5851",
"/  c #595951",
"(  c #5D5A53",
")  c #5D5A55",
"_  c #5D5B56",
"`  c #565550",
"'  c #615D56",
"]  c #615E59",
"[  c #61605B",
"{  c #6B6761",
"}  c #666C6D",
"|  c #696D6D",
" . c #6A6F72",
".. c #6E7474",
"X. c #6F7579",
"o. c #717475",
"O. c #797977",
"+. c #75767A",
"@. c #757A7C",
"#. c #787C7D",
"$. c #747877",
"%. c #8A3547",
"&. c #8A354A",
"*. c #944F62",
"=. c #965162",
"-. c #7B817F",
";. c #7A7E81",
":. c #7B8283",
">. c #76848B",
",. c #7C898E",
"<. c #79848A",
"1. c #7F8C93",
"2. c #838684",
"3. c #83878B",
"4. c #82898B",
"5. c #818C95",
"6. c #858F98",
"7. c #859296",
"8. c #85929B",
"9. c #8C959A",
"0. c #8C9BA2",
"q. c #92A3A7",
"w. c #95A5AB",
"e. c #9CADB2",
"r. c #E6C6AD",
"t. c #EECEB6",
"y. c #EFD0B3",
"u. c #F6DDBF",
"i. c #FEDEBF",
"p. c #F6D3B8",
"a. c #FFE1BF",
"s. c #A7B4C2",
"d. c #A8B5C3",
"f. c #AFBFCE",
"g. c #B2BFCE",
"h. c #AFC1CE",
"j. c #B2C0CE",
"k. c #B3C2D1",
"l. c #B8C8D7",
"z. c #B7C8D9",
"x. c #BCCCDC",
"c. c #B7C6D9",
"v. c #BED0DE",
"b. c #BFD0E0",
"n. c #C9DBDE",
"m. c #F9DEC3",
"M. c #FFE5C3",
"N. c #FFEDC8",
"B. c #C4D5E5",
"V. c #CADBE2",
"C. c #C5D6E8",
"Z. c #C6D9E9",
"A. c #CCDCEC",
"S. c #C7D7E8",
"D. c #CCDFF0",
"F. c #CDE0EF",
"G. c #D3E5EB",
"H. c #DAE7EE",
"J. c #D6EAEE",
"K. c #D9EBED",
"L. c #D0E3E7",
"P. c #DCF0EF",
"I. c #CEE0F1",
"U. c #D1E2F2",
"Y. c #D7EAF0",
"T. c #DAEBF2",
"R. c #D6EBFF",
"E. c #DAEBFD",
"W. c #DEF1F6",
"Q. c #DEF2F8",
"!. c #DFF8FE",
"~. c #EEF0EF",
"^. c #E1F1EE",
"/. c #E0EEF4",
"(. c #E1EFF8",
"). c #EBEFF0",
"_. c #E3F3F4",
"`. c #E3F5FC",
"'. c #E5F9FF",
"]. c #EBFEFE",
"[. c #E9F4F4",
"{. c #F3FFFF",
"}. c #FDFEFF",
"|. c #F3F7F8",
/* pixels */
"# # # # . . .             # # % # . .       .   # # # # # . .         .           # % X .       . .   .         # % # # ",
"# # # # 1 1 1 3 3 7 3 3 7 # # # # = 1 3 3 7 3 3 = # # # = 1 1 4 3 7 3 3 3 3 3 3 7 # # > 1 3 3 7 2 1 1 4 6 7 7 7 # # # # ",
"# #   1 j v B E ) ~ ! ( [ 2     o a n ] ~ ~ ) { c       r z N D ^ ^ ( ) ( ^ ! ^ { a   r v ^ _ ] T N B N T ( ^ { p   # # ",
"# # 1 r v B J Y W R ! K L r 1 7 a b F ! R W K P b 3 7 2 j v A H W L H H H T ! L P z 3 j v H H K D b D F E ` L Y z 3 # # ",
". 1 v b S Y ' R T R ! J B v z F L _ ^ T T R Z b Z P b j n A ^ ^ W H B B N R ) H b S H F Z B B B Z B L ] W W H v Z L 3   ",
"X % t s x n J Y W R ) b a p t j v F H W R R b j c x j g b Z F J ( Z r j z Z H B k v x z z v z s g x B J P ) F j x v 1 . ",
"# # 3 r g z n K W W ] k % 5 q a j b F ~ W ~ z a s g j g b Z b Z ] B % t j v Z v a g s s s j s 2 r s v n L ) Z a g j = . ",
"# # q p g v B K ! H F g 2 q q q r j v F Z F a q 7 1 7 p g x B B J z 2 q q j x s q q p 2 1 1 1 > 2 q s z B H x q 2 1 # # ",
"X % q a z b Z T ) L B g q q q 3 q s z B B B p 9 2 . 2 q s j B Z Z z 5 q 0 g x a 0 q q > # # # : = q s j N F z 8 >   # # ",
"# # 2 7 q j b F L Z M p 1 5 2 0 q g x Z b v q 2 1 # 1 2 t s v v b j 8 0 4 q p q 2 3 2 1 > % % : 1 2 q f j v s 5 > # # # ",
"# # . # . q j b Z v z 7 @ # : q p g v F x j 1 # # > : # 2 q g g j a q 1 # : # # o # X # % % = # # # 2 q 2 2 , # # # # # ",
"% # # # # q p j v s 7 1 : > > 1 2 r f N a 2 1 > 1 > > : 1 2 i p a q 1 1 > % # 2 a q r r r = # 1 > % 1 1 p s a p 1 . # # ",
"# # # # # 2 q s k       = > % : 1 7 t v 5 . 1 - 1 1 >       2 0 q 2 # 1 1 % # q v j z z j % % > > % # # a x j v 2   # # ",
"# # # # : 1 1 1 4       = > % # > 1 1 4 1 > 1 1 1 1 >       s a % 1 > > % 3 0 q q s j j g s q % 1 # 2 7 s j g j a a 1 @ ",
"# # # # 1 % # # # : # : > > = % # : # # % 1 % 1 > > > . X # g a % 1 , % % q q q 5 a j g g x g % 1 % 5 q s j g j k v 1 . ",
"% # X # = %     # V.~.n.#     # # > 1 > 5 q 1 >     . } #.| #     q # 2 q q q q 5 a g v M V v # 1 q q 3 a g k N N V 2 . ",
"# # # % % %     # !.}.`..     2 2 % % > 2 q 1 1       ..3.X.      p o 2 q q q q q s j M B v d # 1 q q q g j x B v v 1 . ",
"# # = = % 2     # J.}.H.7 # # j s . # % # # % % X . # O.4.O.# . # s . 2 q q 2 t g x B V B 1 # : % % p v B S V J r . # # ",
"# # > = # 2     % t.M.m.K._.V.:               O } ..O.t.u.t.$...| +     2 r t s v v B k a 1 % > % # 7 p s h g j 0 % # # ",
"# # 1 > # 2     o p.M.a.{.}.'.#                 +.;.2.i.N.i.2.:.$..     # s v N G V D 2 . # # # # # +   # # % # > 2 # # ",
"# # # # > 1     % r.m.p.W._.G.4 O @ : # < % & 4 ..@.;.y.u.y.-.@...O     % 2 q q p i i 1 = q r r q q q p 1 > 1 1 % # # # ",
"# # X # 1 #     X $.2.:.:.:.;...| @.L.P.Y.Y.W.L.:.o.O.;.:.#.@.:...O     # # # # # % # % 1 j z j j k k x 2 o 1 2 # . # # ",
"% # # # # #     .  .@.o.....X.;.@.3.].{.{.].{.].#.| o.X.X.X.$.;....     a q q 2 > > % 5 q g j j g g g g s s q % % # # # ",
"# # % # # %     X ..;.@.@.$.@.$.o.:.W.].'.'.].Q.3.#.:.@.$.$.$.:....     j p q 0 > > % 7 q j j j s s s j j v r # # @ # # ",
"# # % # # #     . ..:.@.$.@.@.$.o.:.Q.].'.'.'.'._.`.Y.:...O.@.:....     s 7 2 5 2 1 % 5 q p s s .     s g j a q 1 # # # ",
"# # # # # #       ..;.@.$.$.@...| #.W.].'.].].].{.{.].#.| ..o.#.|       x 2 . 2 a 2 % 7 q 5 q j       g j s j v q % # # ",
"% # # # # 2 # X : ..:.$.@.$.@.:.#.4.Q.].'._.W.W.W.`.Y.3.@.:.:.3.@.4 % < 2 1 % , 2 1 : 0 q q 0 q # # # a s s g j q % # # ",
"% # #     # } $...$.$.$.@...:.J.`.W.'.].W.3.#.:.:.#.3.T._.W.W.Q.Q.T./.V.:     % # % # 3 q     # } ;.| #     s j 7 % # # ",
"# # .     . +.:.:.;.;.;.o.| #.'.{.].].{.'.:.o.+...| ;.].{.].].].].{.}.`.<     p a 5 % 1 1       ;.9.;.#     b V i % # # ",
"# # #     . ..:.$.o.....:.#.3.Q.].'._._.J.#.| o.$.+.:.T.`.Q.'.'.'.'.].Y.#     g v q % # # : # 1 | #.| #   . B B q % # # ",
"@ # q     . ..:.o.y * l G.`.W.'.].W.4.-.#.y ; y ..;.$.:.#.3.W.].'.'.{.Y.&     j J q     # n.).V.4 @ # k N B k % # @ # # ",
". % q     . | ;...9 o u W.{.].'.].W.@.....9 * 3 ..;.$...| #.W.].'.'.].Y.#     j M q     & `.}.`.#     M x v p o # # # # ",
"+ # w     . +.4.@.e * y T.].'.'.].Q.:.+.o.e * e o.;.$.@.o.:._.].'.'.{.Y.#     s . >     & J.}.Y.&     B 0 % # X # # # # ",
"X # 2     & L.|.L.a o y J.{.'.'.].Q.:.+.o.e * e o.;.@.O...:.W.].'.'.{.J.#               # Y.}.Y.#     h 1 % % # # # # # ",
"@ # +     < '.}.].e   9 T.].'.].].'.#... .3 $ 9 o.:.+.o.| #._.].'.'.{.H..               # T.}.Y.#     # # # # % +   # # ",
"# # +     < n.).V.z 3 z K.{.'./._.H.3.-.#.y ; y ..#.@.:.#.3.Q.].'.`.].G.7 # & # # #     # J.}.J.#     % q p q r q q # # ",
"# # # +   p 1 > 7 V.^.T.'.'.(.=.%.*.H.].T.#. ...$.o.:.Y.`.W.'.'.`.b.x.B.G.T.T.T.W.V.:   # k.U.k.#     % s v z j j x 1 . ",
"# # @ # > 1       ].}.{.'.].T.&.m &.`.{.'.:.o.@.o.| @.'.].].].].'.x.k.x.].{.].{.}._.      c.R.l.#     5 q q p j x N 1 . ",
"% # # # 1 #     & V._.T.'.'./.=.%.=.W.{.W.4.$.:.:.#.4.W.].'.'.`.`.x.z.x.`.].'.'.{.T.6 # 4 d.B.s.#     i 0 1 r s b U 1 . ",
"# # # # # > > % % # # 7 T.{.'.T././.'.'.'.Q.W.W.W.W.Q.'.'.'.v.x.x.x.l.v.`.'.'.'.].`.k.l.d.4 # # 7 1 4 2 q t s v j g % . ",
"# # # # . > 1 % .       `.}.{.].].].].'.'.].].].].].].].].'.x.l.l.x.z.x.`.].'.'.].'.Z.D.l.      1 s 2 . d v b I i . # # ",
"# # # # # % % q q     < V._.K.!.'.'.`.`.'.`.`.`.'.`.`.`.'.`.v.l.x.v.x.B.`.].'.'.'.`.x.S.f.#     1 2 1 > 7 q q a 4 # # # ",
"# # # # 1 % % s v j s a < & 6 k.A.x.v.x.x.v.v.x.v.v.x.v.v.x.x.l.v.`.'.'.'.'.`.v.x.x.x.C.k.#     % % % % % % # % # @ # # ",
"# # # # % 2 0 q q p j s       g.B.l.l.l.l.l.l.l.x.l.l.l.l.l.x.l.v.'.].].'.].'.x.l.l.S.U.l.#     2 s a a a s q % # @ # # ",
"# # # % % 5 r q 5 i k g     # h.S.x.x.x.x.x.x.x.x.x.x.x.x.x.x.l.v.`.'.`.'.'.`.x.x.l.j.l.d.#     7 v j k j x p % % # # # ",
"# # # 1 q q q q 3 t z s     # j.S.x.x.x.x.x.x.x.x.x.l.x.x.x.x.x.x.x.v.v.x.v.x.x.S.j.4 # # % 1 5 p k j j g j g k 1   # # ",
"# # 1 5 q q q q 0 t g s     # l.I.S.x.l.x.l.x.x.x.l.x.x.l.x.l.x.x.l.x.l.x.l.l.x.C.g.      = 1 0 p s s s s j j z q # # # ",
"@ # q q q q q q q q 2 r .   # d.l.k.l.x.x.x.x.x.x.x.x.x.x.x.x.x.x.x.x.x.l.x.x.x.S.k.#     % 1 q q 3 q q s j g s g j 1 . ",
"# # q q q q q q q q r g k j g # # 4 k.B.x.x.l.x.x.x.x.x.x.x.x.x.x.x.x.x.x.x.x.x.S.g.#     % 1 2 7 q q 0 g g j x z v 1 . ",
". % q q q q q q 2 r g v B N N       k.A.x.S.S.S.x.x.x.S.S.S.S.S.S.x.x.x.S.C.S.x.C.k.#     2 % # 1 q 0 3 a s z B B B 1 . ",
"# # 1 2 q q q a a g v b N M v     # f.B.z.f.g.k.l.x.x.k.g.g.h.j.j.z.l.l.j.k.k.l.Z.g.#     2 > # 1 q t a z v v M M B 1 . ",
"X # # 1 q q q s j x B N M M v     # 8.w.7.4 # 4 k.A.j.6 # # # # 4 6.w.6.4 # 6 j.I.g.#     1 > # 1 q s k M B N M M B 1 . ",
"# # # 1 q q q s g x B M B M x     X ,.q.,.      f.U.g.            ,.q.,.      h.I.g.#     = % % = # s N M M M M M B 1 . ",
"# # # 1 p q 8 a s j B M M V B     @ 5.w.1.#   # h.I.k.#         # 1.w.1.@   # f.F.j.#     = = % =   g U N b M M B G 4 . ",
"# # X # 5 q t j x v N M b g p     @ 1.w.1.@   # g.A.g.#         # 1.w.5.#   # k.I.k.#     # # % % # q g v N M B k f > . ",
"# # X # + p v N B M M B D 1 .     # 7.e.8.X   # l.R.l.#         # 8.e.8.#   # l.E.l.#     # # 1 > 1 % + v G V G p . # # ",
"# # # # # 4 7 v B M B g q = #     # <.0.>.#   # s.B.s.#         # >.9.>.#   # s.B.s.#     # # # # # % = q p i a 2 # # # ",
"# # # # # # + c S B G q   # # # # # @ # @ # # # # # # # @ X @ 1 g # # # v M v : # #   @ # % # X # + # 1 % # % % # # % # ",
"# # # # # # # = 1 1 4 # # # # # # #       # # #       # # # # # =       1 1 1       # # # # # # # # # # # # # # # # # # ",
"# # # # # # # . . .   @ # # # # # #       # # #       # # # # # O       . . .       # # # % # # # # # # # # # # # # # # "
};
