/* XPM */
static char *xpm_[] = {
/* columns rows colors chars-per-pixel */
"60 60 187 2 ",
"   c #020202",
".  c #0A0506",
"X  c #060807",
"o  c #0A0906",
"O  c #060608",
"+  c #0A0709",
"@  c #070909",
"#  c #0C0B0C",
"$  c #120D0D",
"%  c #0E100F",
"&  c #121204",
"*  c #13110E",
"=  c #1A100F",
"-  c #1B1A0E",
";  c #0E0D10",
":  c #130E11",
">  c #180F10",
",  c #0D1112",
"<  c #151212",
"1  c #1B1515",
"2  c #171810",
"3  c #1B1916",
"4  c #161719",
"5  c #1B1618",
"6  c #14181B",
"7  c #1C1A19",
"8  c #211716",
"9  c #211A16",
"0  c #201719",
"q  c #231C1B",
"w  c #281E1D",
"e  c #1E2012",
"r  c #232215",
"t  c #26211E",
"y  c #29211E",
"u  c #27291C",
"i  c #282A1D",
"p  c #281F20",
"a  c #262121",
"s  c #2B2522",
"d  c #2E2925",
"f  c #2E2929",
"g  c #302625",
"h  c #312A27",
"j  c #302728",
"k  c #332D2A",
"l  c #382E2D",
"z  c #36312D",
"x  c #39322E",
"c  c #373332",
"v  c #3B3432",
"b  c #3E3A35",
"n  c #3F3D39",
"m  c #791329",
"M  c #413636",
"N  c #413937",
"B  c #403738",
"V  c #443C3A",
"C  c #493E3D",
"Z  c #45413D",
"A  c #45423D",
"S  c #48423F",
"D  c #4A413E",
"F  c #484540",
"G  c #4A4641",
"H  c #4C4441",
"J  c #4E4A45",
"K  c #4D4A44",
"L  c #524544",
"P  c #504D46",
"I  c #524F4A",
"U  c #514E49",
"Y  c #544F4A",
"T  c #544D49",
"R  c #53504A",
"E  c #54514A",
"W  c #55524B",
"Q  c #56534C",
"!  c #55524D",
"~  c #57544D",
"^  c #53524D",
"/  c #58554E",
"(  c #595751",
")  c #5B5851",
"_  c #595951",
"`  c #5D5A53",
"'  c #5D5A55",
"]  c #5D5C56",
"[  c #565550",
"{  c #615D56",
"}  c #615E59",
"|  c #61605B",
" . c #6B6761",
".. c #666C6C",
"X. c #6A6D6E",
"o. c #6B706C",
"O. c #696D70",
"+. c #6E7375",
"@. c #707475",
"#. c #767976",
"$. c #727578",
"%. c #757A7B",
"&. c #797C7D",
"*. c #8A3449",
"=. c #893447",
"-. c #955163",
";. c #7E807F",
":. c #757C81",
">. c #7A7E81",
",. c #7B8183",
"<. c #76848B",
"1. c #7C868A",
"2. c #7D898E",
"3. c #7E8C93",
"4. c #828685",
"5. c #818689",
"6. c #828A8B",
"7. c #888D89",
"8. c #828D95",
"9. c #859196",
"0. c #84929B",
"q. c #8B9A9F",
"w. c #8C9BA2",
"e. c #94A4AC",
"r. c #98A6AF",
"t. c #93A2A7",
"y. c #9BADB3",
"u. c #EECFB3",
"i. c #F0CEB5",
"p. c #EED0B6",
"a. c #F7DDBF",
"s. c #FDDDBE",
"d. c #F7D3B7",
"f. c #E9C7AC",
"g. c #FEE0BE",
"h. c #A6B5C2",
"j. c #AFBFCE",
"k. c #A8B4C2",
"l. c #B2BFCE",
"z. c #AFC1CF",
"x. c #B1C0CF",
"c. c #B3C2D2",
"v. c #BAC7D7",
"b. c #B7C8D9",
"n. c #BCCCDC",
"m. c #B9CAD8",
"M. c #BED0DE",
"N. c #BFD0E1",
"B. c #C1D1DF",
"V. c #F9DEC3",
"C. c #FFE6C4",
"Z. c #FDEEC7",
"A. c #C4D5E5",
"S. c #CADBE2",
"D. c #C9D6E8",
"F. c #C7D8E8",
"G. c #CDDDED",
"H. c #C5D6E8",
"J. c #CEDFF1",
"K. c #CEE1EC",
"L. c #CEE0E4",
"P. c #D3E5EB",
"I. c #D6E9EF",
"U. c #D9EAEE",
"Y. c #D0E3E7",
"T. c #DCF1EF",
"R. c #CEE1F2",
"E. c #D0E1F1",
"W. c #D7EAF0",
"Q. c #DAECF2",
"!. c #D7EBFE",
"~. c #D9EAFC",
"^. c #DEF1F6",
"/. c #DEF2F8",
"(. c #E3EFEF",
"). c #EBEFEE",
"_. c #E1EEF4",
"`. c #EEEFF3",
"'. c #E3F3F4",
"]. c #E8F6F6",
"[. c #E3F5FC",
"{. c #E5F9FE",
"}. c #EBFEFE",
"|. c #E3F9F7",
" X c #F2FFFF",
".X c #FCFFFE",
"XX c #F3F8F7",
/* pixels */
"# # # # O O O             # # $ # O O       O   # # # # # O O O       O           # $ X O       O O O O O       # $ # # ",
"# # # # < < < 3 3 7 3 3 7 # # # # * < 3 3 7 3 3 * # # # * < < 1 3 7 3 3 3 3 3 3 7 # # : < 3 3 7 1 < < 1 7 7 7 7 # # # # ",
"# #   < k v V ^ ' ( / ` | 1     o s n } ( ( ]  .c       t z M F ) ) ` ] ` ) / )  .s   t c ) ] } E N V N E ) )  .a   # # ",
"# # < t v V K R ~ Q / P I t < 7 s b G / Q ~ P Y b 3 7 1 k v S J ~ I J J J E / I Y z 3 k v J J P G b G G ^ [ I R z 3 # # ",
"O < v b D E { Q E Q / K V v z G I ] ) E E Q A b A Y b k n S ) ) ~ J V V M Q ] J b D J G A V V V Z V I } ^ ~ J v A I 3   ",
"X $ y d x n K R ~ Q ] b s a y k v G J ~ Q Q b k c x k h b Z G K ` A t k z Z J V l c x z z v z d h x V K I ] G k x v < O ",
"# # 3 t h x n P ~ ~ } z $ 1 0 s k b G ( ~ ( z s d h k h b A b Z } V $ y k v A v s h d d d k d 1 t d v n I ] A s h k * O ",
"# # 0 a h v V P / J G h 1 q 0 q t k v G A G s q 7 < 7 a h x V V K z 1 w q k x d 0 q a 1 < < < : 1 w d z V J x 0 1 < # # ",
"# $ q s l M V ^ ] J V h 9 q q 5 q d z V V V a 9 5 O 1 q d k V V A z 1 q 9 h x s 9 q q : # # # ; * 0 d k M G z 8 :   # # ",
"# # < 7 q k b G I A b a < 1 1 9 q h x A b v q 1 < # < 1 y d v v b h 9 1 1 q a 0 1 3 1 < : $ $ ; < 1 w g k v d 1 : # # # ",
"# # O # O q k M A v z 7 O ; $ 0 a h v G x k < @ # ; ; # 1 q h k k d w < # # # # o # X # $ $ * # # # 1 w 1 1 > # # # # # ",
"# # # # # 0 a k v d 7 < # ; : < 1 a g M s 1 < : : : : # < 1 p a s q < < : : # 1 s q t t t * # < : $ < < a d s a < O # # ",
"# # # # # 1 q d x q O # < $ : ; < 7 y x 7 O < = < < $ # # # 1 9 q 1 # $ < $ # 0 v k z z k $ $ : : $ # # d x k v 1   # # ",
"# # # # : < < < 1 < < < < $ ; ; : < < 1 < : < < $ : : $ a d h s < $ $ : $ 1 9 0 q d k k h d w $ < # 1 7 d k h k d s < # ",
"# # # # < $ # # # # < < < < < $ # ; # # : < $ < < < : $ d z z s $ < * < $ 3 w 0 1 s k h h x h $ < $ 1 w d k h k l c < O ",
"$ # X # * : $ # #       $ 7 q $ # : : : 8 w < : < # 1     X d h h q # 1 q q 0 0 1 s h v M C x # < w 0 3 s h l M M C 1 O ",
"# # # # $ < < 1 1       # 5 0 1 < $ * $ 1 0 < * < * 3       k l v y X 1 w 0 q q q d k M V v f # < 0 q t h l v V v c < O ",
"# # : $ $ 1 q f h < ; % + # ; x h o # # $ $ $ $ 1 y 1 X # X x M F k + 0 w 0 1 w h x V C V < # ; $ # a c V D C K t . # # ",
"# # : : # 1     $ S.`.S.#     q w 9 7 7 0 0 < #     # X.:...# X O q # < 3 t t d c v V l d < $ : : # 7 a d j h h 0 $ # # ",
"# # < $ # 1     % [..X[.      + * v c k k c 1 #       +.2.+.O     # $ $ # h v M H C F 1 + # # # # # + O # $ $ $ $ 1 # # ",
"# # # $ : <     ; U..XU.7 # # < 1 a t d d d 1 # + # # #.7.#.; O O : : $ # 7 7 q a p a < * q t t a q w a < $ < < $ # # # ",
"# # X # < #     # u.C.V.U._.S.;               O ..+.%.i.a.u.#.+...+     # # # # # $ # $ < k z k k l l x 1 o $ 1 # O # # ",
"# # # # # #     # d.C.g..X.X}.#                 %.,.4.s.Z.s.4.,.%.O     a 0 7 1 : : $ 1 q d k k h k h k s d q $ $ # # # ",
"$ # $ # @ $     # f.a.d._.|.Y.< + # # % % # # 1 +.%.&.p.a.u.;.:.+.+     k y w 3 : : $ 7 w k k k k h k h k x t # # @ # # ",
"# # $ # # $     O %.4.,.,.,.,.+.O.%.Y.T.Q.Q.T.Y.,.+.%.>.;.>.%.,.+.X     d 0 1 1 1 < $ 7 w a d h k k h h f k s q < # # # ",
"# # # # # #     X X.%.@.+.+.@.,.%.6.}. X X}. X}.&.X.+.+.+.$.%.>.+.O     z 1 + 1 s 1 $ 0 q 3 q z k k d k k d k v w $ # # ",
"# # # # # 1     O +.,.%.%.%.%.%.@.,./.}.{.{.}.^.6.&.,.%.%.%.%.,.+.X     3 < $ < 1 < # 9 q 3 0 w s k h k h k k l 0 $ # # ",
"# # # # # t     O +.>.%.%.%.%.%.@.,.^.}.{.{.{.{./.|.W.,.@.%.%.,.+.+     + : $ $ # # # 7 q       q k d d h d d k 7 $ # # ",
"# # O < 8 s       +.,.%.%.%.%.@.X.&.^.}.{.}.}.}.}. X}.&.X.@.+.%.X.      + w f d d 5 ; : <       k M M v b v M V p $ # # ",
"# # # * q t # O # +.,.%.%.%.%.,.%.6.^.}.{.'././.^.|.U.6.&.,.1.5.%.4 # ; + s k k v q # ; # # # # k B v V M V M V w $ # # ",
"X # 0 X   X X.#.+.%.%.%.%.@.,.U.|.^.{.}._.6.%.,.,.%.6.Q.].^.Q.'.^.U.(.S.#   X l K p     # ..&...#   + b V F k $ # @ # # ",
"# # w     # %.5.,.&.>.>.@.X.&.[. X}.}.}.[.,.@.%.@.X.>.{. X}.}.}.}. X.X[.:     k M q     X +.1.+.+     M c v a . # # # # ",
"O # w     O +.>.%.@.+.@.,.&.6.^.}.{.'.|.W.&.X.@.%.$.,.Q.[./.{.{.{.{. XW.%   O j . :     X %.7.%.X   X C 0 $ # X # # # # ",
"+ # 1     X +.1.@.u & d Y.].^.{.}.'.6.,.&.i - u +.&.%.,.&.6.^.}.{.{. XI.%     w # :     # P.XXK.#     h < : $ # # # # # ",
"# # +     # X.>.+.9 o u ^. X}.{.}.Q.&.+.X.9 & e $.>.%.@.X.&.^.}.{.{.}.W.%     # $ $     # Q..X^.#     # $ # $ $ +   # # ",
"# # #     O %.6.%.r o d Q.}.{.{.}.^.,.%.$.r & r @.>.%.%.+.,./.}.{.{. XW.#     < 1 1     % Q..XU.#     $ 7 a w t q q # # ",
"# $ #     ; Y.XXY.i o i Q.}.{.{.}.^.,.%.+.r & r @.>.%.%.+.,./.}.{.{. XW.#               # W..XI.#     $ d v l z k x < O ",
"# # X     ; {..X}.r   r Q.}.{.}.}.[.&.+.o.9 & 3 $.>.%.@.X.&.^.}.{.{. XQ.O               ; Q..XQ.%     0 q w a k x N < O ",
"# # #     # B.).S.z 2 x Q.}.{.Q.'.U.6.>.&.i - u +.&.%.,.&.6.^.}.{.{.}.I.6 % ; ; # #     ; W. XI.%     a 3 1 w d b L < O ",
"# # # # # $ ; % 6 L.'.Q.{.{._.-.=.-.U.].W.&.X.@.%.$.,.Q.[./.{.{.[.N.m.N.I.Q.I.Q.'.S.;   # c.E.c.#     1 t a d v h h $ O ",
"# # # # + #     O }..X.X{.}.Q.*.m *.[. X[.,.@.%.+.X.&.[. X}.}.}.{.n.b.n.}. X X X.X[.O     b.!.v.#     + f c M T p . # # ",
"# # # # # :     # S.'.U.{.{.'.-.*.-._. X^.6.&.,.,.%.6./.}.{.[.[.[.n.b.n.[.}.{.{. XQ.6 # 6 h.A.h.#     # 7 0 w s 1 # # # ",
"# # # # < * # d l , ; 7 U.}.{._._._.[.{.{.^./././.'.'.{.{.[.B.n.n.n.n.n.[.{.{.{.}.[.b.b.h.4 # # $ # $ $ $ $ # $ # # # # ",
"# # # # $ 1 0 q q     O [..X X}.}.}.}.{.}.}.}.}.}.}.}.{.}.[.n.b.n.n.n.n.[.{.{.{.}.{.F.J.n.      3 d s s s d q $ # # # # ",
"# # # # $ 1 t 0 1 X   $ S.'.Q.[.[.[.[.[.[.[.[.[.[.{.[.[.[.[.n.n.n.n.n.A.[.}.{.[.[.[.n.A.j.;     0 c k k l x a $ $ # # # ",
"# # # 1 q q q 0 8 y k s % # 7 c.D.n.n.n.n.n.n.n.n.M.n.n.B.n.n.n.n.[.{.[.{.{.[.M.n.n.n.H.c.#     t z k k k h h l <   # # ",
"# # < 1 q q q 0 0 a h f       b.K.A.n.n.n.n.n.n.n.n.n.n.n.n.n.n.n.{.}.}.{.}.[.n.v.n.A.R.n.#     w h d d d h k z q # # # ",
"@ # q q q q 0 0 0 q 1 t O   # h.n.c.n.n.n.n.n.n.n.n.n.n.n.n.n.n.n.[.{.[.[.[.[.n.n.n.l.n.h.#   O 0 9 9 9 d k h h h k < O ",
"# # q q 0 q q 0 0 q t h l k h # # 4 c.A.n.n.n.n.n.n.n.n.n.n.n.n.n.n.M.n.n.n.n.n.A.c.4 # # $ $ 1 7 q q 9 h h k x z x < O ",
"O $ w q 0 0 0 0 1 t h v V M M O     c.F.n.A.D.A.n.n.n.A.A.A.A.A.A.n.n.n.A.A.A.n.A.l.      1 $ # < w 9 3 s d z V V V < O ",
"# # < 1 w 0 0 s s h v b M M v     # j.A.b.j.l.c.n.n.n.c.l.l.z.x.c.b.n.n.x.c.c.n.A.x.#     < : # < q y s z v v M M V < O ",
"X # # < q 0 0 d k x V M M M v X   # 0.r.9.< # 1 c.G.x.6 # # # # < 9.r.8.< # 6 x.J.j.#     < $ # < q d l M V M M M V < O ",
"# # # < q q 0 d h x V M V M x     X 2.t.2.      j.R.l.            2.e.2.      l.J.x.#     $ $ $ * # d M M M M M M V < O ",
"# # # < s q 8 s d k V M M C V     @ 8.e.3.#   # z.R.c.#         # 3.e.3.#   ; x.R.x.#     $ < $ *   h L M b M M V H 1 O ",
"# # X # 5 q y k x v M M b h a     @ 3.e.3.@   # l.G.l.#         # 3.r.8.@   # x.J.c.#     # $ $ $ # q h v M M V l g : O ",
"# # X # + a b M V M M V F < O     # 9.y.0.X   # v.!.n.#         X 0.y.0.@   # n.~.n.#     # # * : < $ + v H C H a . # # ",
"# # # # # 1 7 c V M V h q * #     # <.w.<.#   # h.A.h.#         # <.q.<.#   # h.A.k.#     # # # # # $ * q a p s 1 # # # ",
"# # # # # # + c D V H q   # # # # # @ # @ # # # # # # # @ X @ < h # # # v M v ; # #   @ # $ # X # + # < $ # $ $ # # $ # ",
"# # # # # # # * 1 < 1 # # # # # # #       # # #       # # # # # *       < < <       # # # # # # # # # # # # # # # # # # ",
"# # # # # # # O O O   @ # # # # # #       # $ #       # # # # # O       O O O       # # # $ # # # # # # # # # # # # # # "
};
