/* XPM */
static char *_1465_06a858ef24ca6fba14529eff4f50672d5b8ab1f2312aa7977e18a2201614bf63[] = {
/* columns rows colors chars-per-pixel */
"60 60 144 2 ",
"   c #163F15",
".  c #193F16",
"X  c #193F18",
"o  c #164216",
"O  c #194017",
"+  c #1C4519",
"@  c #1E4B1C",
"#  c #1F541E",
"$  c #214B1E",
"%  c #22531F",
"&  c #224E20",
"*  c #245423",
"=  c #2A5525",
"-  c #265B24",
";  c #295E26",
":  c #285A29",
">  c #2B6226",
",  c #2C6926",
"<  c #2C6329",
"1  c #2F6E2A",
"2  c #316B2C",
"3  c #396D2F",
"4  c #33752D",
"5  c #366632",
"6  c #357730",
"7  c #3A7431",
"8  c #357F30",
"9  c #3B7B33",
"0  c #437737",
"q  c #44773C",
"w  c #398233",
"e  c #3B8C35",
"r  c #3F923A",
"t  c #46823C",
"y  c #4B873D",
"u  c #448D3C",
"i  c #4B8D3E",
"p  c #46923D",
"a  c #4A943E",
"s  c #449A3C",
"d  c #49983D",
"f  c #50913F",
"g  c #41A038",
"h  c #48A73F",
"j  c #46A93C",
"k  c #48AC3F",
"l  c #4C8541",
"z  c #458C40",
"x  c #4C8D41",
"c  c #4F8C49",
"v  c #518E42",
"b  c #479241",
"n  c #4B9440",
"m  c #4C9942",
"M  c #539142",
"N  c #5C9446",
"B  c #5D9841",
"V  c #649D45",
"C  c #699E44",
"Z  c #639D48",
"A  c #6A9F4E",
"S  c #47A044",
"D  c #4BA243",
"F  c #4DAD46",
"G  c #4EAD49",
"H  c #55A546",
"J  c #50AD46",
"K  c #50AD4A",
"L  c #4EB244",
"P  c #4FBF43",
"I  c #4FB049",
"U  c #52B646",
"Y  c #52BB46",
"T  c #52B249",
"R  c #53BC49",
"E  c #58BF4A",
"W  c #65A245",
"Q  c #69A446",
"!  c #6CA34C",
"~  c #73AE4B",
"^  c #75B14D",
"/  c #79B34F",
"(  c #7FB84F",
")  c #6DA450",
"_  c #73A355",
"`  c #75AD51",
"'  c #79AB56",
"]  c #73A359",
"[  c #77AB58",
"{  c #78A85C",
"}  c #77B351",
"|  c #7BB354",
" . c #7EB851",
".. c #7EB458",
"X. c #52C345",
"o. c #55CB47",
"O. c #55C24A",
"+. c #58C44B",
"@. c #57CD4A",
"#. c #59CD4C",
"$. c #57D24A",
"%. c #59D34C",
"&. c #5BDC4D",
"*. c #5CCB52",
"=. c #5DDD50",
"-. c #60DF52",
";. c #5DE04F",
":. c #5EE150",
">. c #60E150",
",. c #81B657",
"<. c #81BA55",
"1. c #81B759",
"2. c #83B95B",
"3. c #88BE5C",
"4. c #82B361",
"5. c #86BA61",
"6. c #8BBC62",
"7. c #8EBE6A",
"8. c #90BF61",
"9. c #91BE6B",
"0. c #87C057",
"q. c #8AC256",
"w. c #8DC45C",
"e. c #8FC95A",
"r. c #91C65D",
"t. c #92CA5C",
"y. c #8EC362",
"u. c #8FC861",
"i. c #8EC06B",
"p. c #91C464",
"a. c #94CC61",
"s. c #99CE65",
"d. c #93C36B",
"f. c #96C96B",
"g. c #9ACC6E",
"h. c #9CD06C",
"j. c #97C772",
"k. c #99C672",
"l. c #9CCD71",
"z. c #9FD173",
"x. c #A0CF74",
"c. c #A3D476",
"v. c #A5D579",
"b. c #A8D67B",
/* pixels */
"t.t.t.3.1.1.w.a.a.s.c.c.b.v.v.c.f.~ ~ ~ c.7.4.{ ] ] _ ! A ) ` ` ` W B N V 1.t.a.1.1.,.2.2.2.3.t.t.e.3.2.1.2.2.2.3.t.t.t.",
"t.t.t.3.1.1.3.a.a.t.c.v.v.v.v.v.f.^ ~ ~ 5.H X.R X.O.O.O.O.X.O.R O.X.O.O.O.H 3.a.2.1.1.2.2.2.3.t.t.t.2.2.2.2.2.2.0.t.t.e.",
"t.t.t.3.2.2.w.a.a.s.c.v.v.v.b.c.f.~ ~ ~ m &.>.>.=.>.;.>.;.:.:.:.:.:.:.&.>.%.M t.1.1.1.1.2.2.3.t.t.t.2.2.2.1.2.1.0.t.t.t.",
"t.t.t.w.5.5.y.e.a.a.c.v.v.h.s.s.u...| | m &.;.&.=.:.>.&.&.=.:.:.&.;.:.;.;.&.a t.1.2.1.2.2.1.y.z.z.h.2.2.2.w.w.w.e.t.t.t.",
"t.t.t.y.6.6.6.t.t.t.v.v.v.s.t.t.u...2.2.d &.=.;.&.;.;.:.&.;.;.:.;.;.;.&.:.%.v t.2.2.2.2.2.1.y.b.b.c.5.2.2.w.t.t.t.t.t.e.",
"t.t.t.y.6.6.3.t.t.t.v.v.v.s.t.t.u.2.1.2.d &.&.X.P X.X.%.;.;.;.$.Y P X.X.&.%.a t.2.2.2.2.2.2.y.v.v.c.2.2.1.w.t.t.t.t.t.t.",
"t.t.t.8.6.6.6.t.w.r.g.l.g.s.s.s.p.6.6.6.m &.$.; * * * L &.;.:.k * * * < %.&.f q.0.3.3.w.3.3.a.l.z.h.0.w.3.e.t.t.t.w.w.w.",
"t.t.t.6.6.6.6.1.2.2.1.2.2.g.b.c.l.d.7.9.d &.&.; * # # L &.;.;.S # * * < $.%.i <.t.t.t.t.a.a.a.t.t.t.t.e.t.t.t.t.w.2.2.2.",
"t.t.t.8.6.6.5.1.2.2.2.2.2.k.b.v.l.9.9.d.a &.$.; * @ o k &.&.&.g o @ * < $.$.i 3.t.t.t.a.a.t.a.t.t.t.t.t.t.t.t.t.t.2.2.2.",
"e.e.t.3.6.6.5.1.2.1.6.3.3.g.v.b.x.9.9.9.d &.&.1 < # # j $.@.$.s @ # < 1 $.$.i 1.t.w.t.t.a.a.a.t.t.t.s.a.t.t.t.t.q.1.2.2.",
"~ ~ ~ ,.2.2.2.2.1.2.x.c.c.v.v.b.x.9.9.9.n &.&.%.@.@.o.w < < > e o.o.#.%.;.=.n e.2.3.3.2.2.2.y.v.c.v.v.v.c.s.e.t.w.2.2.2.",
"~ ~ ~ ,.2.2.2.2.2.6.c.v.v.v.v.c.x.9.9.7.a =.=.%.&.&.&.8 * * * e &.&.&.;.&.$.v t.1.1.2.2.2.2.i.v.v.v.v.v.v.s.e.t.q.2.2.2.",
"~ ~ ~ ,.1.2.2.2.2.6.c.v.v.b.v.v.x.9.9.9.a &.&.=.&.p 4 % @ + + * 6 u &.&.&.%.M t.2.3.2.2.1.2.y.v.v.v.v.v.b.s.t.t.r.2.1.1.",
"q.q.3.8.6.6.2.} } | d.d.d.f.s.s.a.3.6.2.d %.&.=.$.4 = + X X X @ = 4 &.&.=.%.f r.1.2.1.d.l.l.g.y.8.8.k.k.k.p.7.8.y.w.u.e.",
"t.t.t.8.9.9.3.~ ~ ^ 6.6.3.r.t.t.w.1.1.1.d &.&.&.$.1 + O . X X O + > =.&.&.$.a t.2.2.2.g.v.v.l.1.1.1.9.9.9.6.6.6.w.t.t.t.",
"t.t.t.r.9.9.6.~ ~ ^ 6.2.6.r.t.t.w.1.1.1.d $.$.$.$., . . . . . . . ; %.%.%.#.n t.2.2.2.g.b.c.f.<.1.2.9.9.9.6.6.6.6.t.t.t.",
"t.t.t.r.p.p.8.,.( <.3.y.8.y.w.w.3...,...b %.$.%.#.2 $ 4 e e e 1 $ , %.%.%.#.n 3.<.2.1.d.l.g.i.1...5.y.y.6.6.u.y.y.w.r.w.",
"t.t.t.t.t.t.t.t.t.t.t.t.t.3.2.2.,./ } } c *.%.#.o.6 - k $.%.#.h * 4 $.%.#.+.y ~ 1.1.,.2.2.2.1.3.2...2...2.u.a.a.t.1.2.2.",
"t.t.t.t.t.t.t.t.t.t.t.t.t.3.2.2.1.| | | ) D U R Y w 2 D U Y Y s 3 9 Y Y R D V / 1.1.1.2.2.1.2.1.2.2.2.2.2.u.a.a.w.2.2.1.",
"t.t.t.t.t.t.t.t.t.t.t.t.t.3.1.2.1.} | | ..b R X.Y X.Y O.X.O.E X.Y X.O.Y O.R n Q 1.1.1.2.2.2.2.3.2.2.2.2.2.y.a.a.y.2.2.2.",
"v.c.v.s.t.t.s.v.v.c.6.6.6.3.2.2.1.2.2.2.B L %.@.%.@.#.$.@.#.@.%.#.#.@.$.#.%.L ` 6.6.6.l.v.c.c.a.a.a.u.t.t.t.a.a.a.a.t.s.",
"v.v.v.s.t.t.s.v.v.c.6.6.6.2.2.2.2.1.2.2.B U *.@.#.#.#.#.#.#.#.@.#.@.@.#.#.#.O.v 6.6.6.l.v.b.z.a.a.a.t.t.t.a.a.a.t.a.a.a.",
"v.v.v.f.t.t.s.b.v.x.7.3.6.2.2.2.2.2.2.2.i *.@.#.#.@.@.#.#.@.@.@.%.@.#.#.#.@.o.a 6.6.6.l.v.c.z.a.a.a.t.t.e.a.a.a.a.a.a.a.",
"h.s.s.0.<.<.0.s.s.s.r.t.w.w.e.w.w.2.2.2.d o.$.@.#.#.$.#.@.#.@.%.#.#.@.%.#.#.#.a 1.2.2.y.d.j.p.t.t.t.a.a.u.w.w.5.w.2.w.w.",
"t.t.t.<.} | <.t.t.t.t.t.t.t.t.t.w.2.2.2.m #.#.#.#.#.#.#.#.#.#.%.%.@.%.@.#.#.#.a 1.,.,.6.6.6.p.t.t.t.a.a.a.w.2...2.2.2.2.",
"t.t.t.<.} } <.t.t.t.t.t.t.t.t.t.r.2.1.1.d @.@.@.#.@.#.#.#.#.#.#.@.*.+.%.@.%.#.d ,.,.,.3.6.3.6.t.t.a.a.a.a.0.2.2.2.2.2.2.",
"t.t.t.0.3.<.0.t.t.t.w.w.w.e.a.a.y.1.2.2.a +.@.#.@.#.@.@.#.@.#.#.#.#.*.@.*.$.+.a ..2.1.3.6.9.y.w.e.w.e.y.y.y.i.a.6.2.2.2.",
"e.t.t.t.t.a.t.t.t.e.2.2.1.e.a.t.u.2.2.2.d #.@.@.@.@.@.@.#.+.#.#.@.@.@.@.@.+.@.s 2...,.6.9.9.7.1.2.2.1.2.2.l.b.c.l.2.2.2.",
"t.t.t.t.a.a.a.t.e.e.3.2.2.e.a.a.u.2.2.2.p +.+.+.@.O.+.+.@.+.O.O.#.+.O.O.O.@.O.b 1...2.6.9.9.7.1.2.2.2.2.2.l.c.v.l.1.2.2.",
"t.t.t.t.a.a.t.t.s.e.2.2.2.y.a.a.w.3.2.2.p X.X.O.O.O.O.O.E O.O.O.+.O.+.E O.O.+.n 2.1.1.5.7.7.6.1.2...2.2...l.c.z.g.2.2.2.",
"2.3.3.w.t.t.s.b.c.z.2.2.2.y.u.t.a.a.a.a.p R O.R O.R O.R O.R O.X.O.R R O.O.R R b 9.7.9...~ ^ } 2.2.2.2.2.2.6.i.y.6.t.t.r.",
"2.1.2.e.t.t.s.v.v.c.5.2.2.u.a.a.a.a.a.a.b O.R O.O.O.O.O.R +.O.O.R O.O.O.+.R E b 9.9.9.' ~ ~ } 2.2.2.2.2.2.5.6.6.3.t.t.t.",
"2.2.2.w.t.t.g.v.v.c.2.1.2.y.a.a.a.a.a.a.p U R O.O.O.O.O.X.O.R O.R X.R O.X.R R p 9.9.d...~ ^ } 2.2.2.2.1.2.2.6.6.6.t.t.t.",
"6.7.6.6.0.3.f.v.c.c.a.w.w.w.w.w.3.3.5.w.d R R R R R E R R R R X.E R R E R O.R b 6.5.5.w.q.0.3.2.2.2.5.6.6.y.r.r.r.6.6.w.",
"9.9.7.5.2.2.y.v.v.c.t.t.t.5...2.2.2.2.2.p U R P R R R P R E R R R R Y R R R R p 2.2.2.w.a.a.p.1.2.2.6.6.6.w.t.t.r.6.6.6.",
"9.d.i.5.2.1.i.v.v.v.t.t.t.w.2...2.2.2.2.p R R R R R R U R R R R R R R U R U R p 2.1.2.y.a.a.a.1.2.2.6.6.6.r.t.t.r.6.6.6.",
"k.k.j.y.w.w.y.l.l.g.e.w.w.0...2.3.3.3.0.b R R R R R U E U R Y R U O.U R R R R z 1.1.1.e.t.a.e.3.3.w.d.p.f.t.t.t.r.2.6.6.",
"v.b.c.h.a.u.u.2.2.2...2...2.2.2.3.t.e.t.p R R R R R R E R Y R R R U E O.R R U p 2.3.1.w.t.t.t.a.a.s.v.v.v.s.t.t.r.1.2.2.",
"v.v.c.h.a.a.w.2.1.2...2...2.2.2.3.t.t.t.p U R R R R R R R R Y R R R R R R R U p 2.2.2.e.t.t.t.a.t.s.c.v.v.s.t.e.q.2.2.2.",
"v.v.b.f.a.a.y.2.1.2.2...2.2.2.2.3.t.t.u.u R R R R R U R R R R R R R R U R R R p 2.2.1.w.t.t.t.f.a.a.v.v.c.s.t.t.w.2.2.2.",
"2.2.2.w.a.a.a.9.i.i.3.1.2.w.t.t.w.<.1.1.p U R R R R R R R R R R R R R U U P I p 2.2.3.g.v.v.h.3.6.6.f.a.a.t.t.t.r.6.8.6.",
"2.2.2.p.a.t.a.9.7.9.1.3.1.w.t.t.w.1.1...l U I R T R T R T R R U R T R U R R F N 2.2.1.l.v.v.l.6.5.y.t.t.s.t.t.t.r.6.6.6.",
"2.2.2.t.a.a.f.9.d.9.2.1.2.w.t.t.w.<.1...Z S U T T T T T I T I I T I T T L K D ! 2.1.2.g.v.v.l.6.6.6.a.a.t.t.t.t.r.6.6.6.",
"2.2.,.<.,.,.3.x.x.l.r.w.w.w.0.w.y.l.l.j.Z m G T G I G T I I I I K G K T T F D ~ g.l.l.d.p.p.p.p.p.t.a.a.a.p.y.y.3.| } | ",
"1.2.2.} ~ ~ 2.v.v.c.t.t.e.3.1.2.y.v.v.v.Q r H F G G K G I L G F G G G G G F p 3.v.v.b.p.2.2.3.t.t.t.s.a.a.8.6.6.1.~ ~ ~ ",
"2.2.2./ ~ ~ 3.v.v.v.t.t.t.3.2.1.p.v.c.b.! u S D D D D D D b b D D D D D D m v <.v.v.b.d.2.2.3.t.t.t.a.a.t.9.6.6.2.~ ~ ~ ",
"2.2.2...} } 2.l.l.l.a.p.p.w.0.w.p.v.v.c.t G K T I T K G G b b G G I K K L G H u v.v.v.y.2.2.3.t.t.t.h.g.h.y.2.2.../ ~ ` ",
"2.2.1.2.2.2.1.2.2.1.7.7.d.p.t.e.s.v.v.v.u F T F K J K G F p p G F T K K J J F u v.v.v.y.1.1.0.t.t.a.v.v.v.3.| } ..1.1.1.",
"2.2.2.2.2.2.2.2.1.6.7.7.9.a.t.t.s.b.c.v.y K J F G F F K K p p G F I F G G L G z v.v.b.y.1.1.3.t.a.s.c.v.v.6.| } | ,.1.1.",
"2.2.2.2.2.2.2.2.1.5.7.7.9.d.t.t.s.v.v.v.i J J J K K F F F b u F I F F F F G G i c.c.c.6.,.1.3.a.a.a.c.v.c.3.| | ..1.1.1.",
"t.t.e.3.6.6.6.2.2.2.2.2.1.g.v.v.x.9.9.9.u F K F F F K G F p b F F G F G F G G i 6.2.3.} ~ ` ..d.d.d.a.a.t.3.2.2...~ ^ ^ ",
"t.t.t.p.6.6.3.2.2.1.3.2.2.l.v.v.x.9.9.9.u G T I G F F K G p b G T F K J G G G b 2.2.1./ ~ ~ ..9.9.i.t.t.t.3.2.2...^ ~ ~ ",
"t.t.t.r.6.6.2.2.2.2.2.2.2.g.v.b.x.9.9.7.y F F F F G F J G b u F F F F F G G G x 2.2.2./ ~ ~ ,.9.9.9.t.t.t.0.2.2...^ ^ ^ ",
"t.t.t.f.l.l.f.6.6.6.2.2.2.6.p.d.y.5.6.6.u F F G G G J F F p z G G G F F J F G u | ,.,.' ~ ~ } 6.5.3.t.t.t.3.2.2.1...} ..",
"t.t.t.z.v.v.x.9.9.7.2.2.2.2.2.1.1.1.2.1.7 % & ; ; * # - < u u * * > ; * * < < 7 | } ' ^ ~ ~ } 1.1.2.t.t.t.3.2.2.2.2.2.2.",
"t.t.t.c.v.b.x.9.9.9.2.2.2.2.2.2.2.2.2.1.7 o X * * + X & = u u + + * & . X * * 7 } | } ^ ~ ~ } 1.2.2.w.t.t.3.2.2.2.1.2.1.",
"e.t.t.a.r.p.a.8.p.8.2.2.2.2.2.2.2.0.3.3.7 $ % $ + $ $ @ @ l l * $ + $ & $ @ @ 7 ......( <.( <.3.6.6.t.s.s.3.2.2.2.6.5.6.",
"e.t.t.,.~ ~ ,.t.t.t.2.2.1.2.2.2.3.t.t.t.0 - * O O % % + O Z N : $ O + * * . + q 2.1.1.e.t.t.r.9.d.j.v.b.v.p.2.2.6.9.9.9.",
"t.e.t.<.~ ~ <.t.t.t.2.2.2.2.2.1.3.t.t.t.W 3 2 > > 2 2 < < ! A 2 2 ; < 2 2 < 5 6.2.2.1.w.t.t.p.9.9.9.v.v.b.9.2.2.5.9.9.9.",
"e.t.t.( ~ ~ <.t.t.t.3.2.2.2.1.1.3.t.t.t.^ Q W ^ <.<.<.<.<.w.6.[ ' | <.<.2.9.d.c.2.2.1.e.t.t.p.9.9.9.v.v.v.p.2.2.6.9.9.9."
};
