/* XPM */
static char *_5590_e2c53f1ee5c0dd553bcd963e3f3a25b8a8100d4920c5bde5695e5b2c8be40fbe[] = {
/* columns rows colors chars-per-pixel */
"60 60 137 2 ",
"   c #1B3F16",
".  c #1B3F19",
"X  c #164013",
"o  c #194216",
"O  c #174018",
"+  c #1C431A",
"@  c #1E491C",
"#  c #214B1E",
"$  c #22541E",
"%  c #205A1D",
"&  c #224C21",
"*  c #255423",
"=  c #255A22",
"-  c #295D25",
";  c #28522A",
":  c #276124",
">  c #296125",
",  c #2C6B26",
"<  c #2D6429",
"1  c #2E692B",
"2  c #32672C",
"3  c #326B2C",
"4  c #2F712A",
"5  c #31742B",
"6  c #317A29",
"7  c #397C2F",
"8  c #346D31",
"9  c #3C6D35",
"0  c #367432",
"q  c #3F7335",
"w  c #3C7D39",
"e  c #417537",
"r  c #3F8F38",
"t  c #448D3D",
"y  c #4D8D3F",
"u  c #558B3F",
"i  c #45933E",
"p  c #49943E",
"a  c #479B3D",
"s  c #4A9A3F",
"d  c #42A23B",
"f  c #4BA73E",
"g  c #47AD3D",
"h  c #4BAB3F",
"j  c #49B13C",
"k  c #478B40",
"l  c #598F41",
"z  c #4A9541",
"x  c #4A9B42",
"c  c #5F9E43",
"v  c #639E44",
"b  c #669D4D",
"n  c #47A640",
"m  c #4BA243",
"M  c #4DAD45",
"N  c #4EAD49",
"B  c #50A643",
"V  c #51AD46",
"C  c #51AE49",
"Z  c #4EB244",
"A  c #4DBC42",
"S  c #4FB049",
"D  c #50B346",
"F  c #52BB46",
"G  c #50B149",
"H  c #53BC49",
"J  c #66A145",
"K  c #69A344",
"L  c #6CA44A",
"P  c #70A64E",
"I  c #73AE4B",
"U  c #75B04D",
"Y  c #79B34F",
"T  c #7FB84F",
"R  c #6BA550",
"E  c #71A754",
"W  c #74AA53",
"Q  c #79AB52",
"!  c #74A758",
"~  c #75A859",
"^  c #79AC5D",
"/  c #76B252",
"(  c #7CB454",
")  c #7EB853",
"_  c #7FB558",
"`  c #7FB859",
"'  c #4DC041",
"]  c #53C246",
"[  c #54CB47",
"{  c #55C24A",
"}  c #56CC4A",
"|  c #59CD4B",
" . c #56D34A",
".. c #5AD34C",
"X. c #5CDC4D",
"o. c #5DDC50",
"O. c #60DA53",
"+. c #5CE14E",
"@. c #5EE050",
"#. c #61E052",
"$. c #81B756",
"%. c #81B954",
"&. c #88BF57",
"*. c #81B759",
"=. c #83B95B",
"-. c #88BE5C",
";. c #83AF62",
":. c #83B762",
">. c #88B766",
",. c #86BA61",
"<. c #8BBC62",
"1. c #8EBE6A",
"2. c #90BF61",
"3. c #91BE6B",
"4. c #87C057",
"5. c #8AC256",
"6. c #8DC45C",
"7. c #91C65D",
"8. c #92CA5C",
"9. c #8EC262",
"0. c #8FC861",
"q. c #8FC26C",
"w. c #91C464",
"e. c #94CC61",
"r. c #99CE65",
"t. c #93C36B",
"y. c #96C96B",
"u. c #9ACC6E",
"i. c #9CD06C",
"p. c #97C772",
"a. c #99C672",
"s. c #9CCD71",
"d. c #9FD173",
"f. c #A0CE73",
"g. c #A3D376",
"h. c #A5D579",
"j. c #A8D67B",
/* pixels */
"8.8.7.-.*.*.6.e.e.r.g.h.h.h.h.h.y.I I I g.g.>.^ ~ ~ Q R L E / / / L v J L / 8.e.=.*.*.=.=.=.6.e.8.7.=.=.=.*.-.*.4.8.8.8.",
"8.8.8.-.*.=.4.e.e.8.h.h.h.h.h.h.y.U I I g.b D { ] ] { ] { ] ] { { ] ] { { A L 6.*.*.*.=.*.=.=.8.8.7.=.*.=.-.=.=.4.8.8.8.",
"8.8.8.-.=.=.4.e.e.r.g.h.h.h.h.h.y.I I I q.Z +.+.O.@.+.X.@.X.o.@.+.X.+.+.@.X.m -.*.$.*.=.=.=.4.8.8.8.-.=.*.*.*.=.4.8.8.8.",
"8.8.8.6.,.,.9.e.e.e.h.h.h.i.r.r.6.` ( ( =.D @.@.+.@.+.@.@.@.+.#.+.X.+.+.X.o.n $.=.` =.=.=.*.9.g.i.i.=.=.=.6.6.6.6.8.8.8.",
"8.8.8.9.<.<.-.8.8.8.h.h.h.r.8.8.6.=.*.-.` Z @.+.X.+.+.+.#.+.#.o.#.+.@.+.+.+.f $.=.=.=.=.=.=.9.h.h.d.,.` =.6.8.8.8.8.8.8.",
"8.8.8.w.<.>.7.8.8.8.g.h.j.r.8.8.6.=.*.=.` Z +.[ h M h F +.X.+.o.j M h j  .X.f $.=.=.=.=.=.=.q.h.h.h.=.` =.7.8.8.8.8.8.8.",
"8.8.8.2.<.<.<.6.7.7.u.s.u.r.r.r.w.<.<.<.( Z +.d % * * 0 o.X.+.X., * = * G X.f ) 4.6.-.4.4.9.9.i.d.i.6.9.4.5.8.8.8.7.6.6.",
"8.8.8.<.<.<.<.*.=.=.*.=.=.u.h.h.d.3.1.3.W Z X.d * $ # 5 X.X.O...> # $ * j X.f I 6.8.8.8.e.e.e.8.8.8.8.8.8.8.8.8.6.*.*.=.",
"8.8.8.7.<.<.,.*.=.=.=.=.=.s.h.h.f.3.3.3.W Z X.d ; * o , +.X.X...$ o $ * Z +.m W 8.8.8.e.e.8.8.8.8.8.8.8.8.8.8.8.8.*.=.=.",
"7.5.7.2.2.<.,.*.=.=.<.=.-.u.h.h.f.3.3.3.W Z X.Z 5 , : 6 A A ] ' 5 = 4 5 F X.m Q 7.8.8.8.e.e.e.8.8.r.8.8.8.8.8.8.6.%.=.=.",
"I I I $.=.=.=.=.=.=.f.g.g.h.h.h.f.3.3.t.W j o.X.X...X.Z = - * > ] X...o.X.X.f %.=.=.-.=.=.=.9.g.j.h.j.h.h.r.7.8.6.=.=.=.",
"I I I $.=.=.=.=.=.<.g.h.h.h.h.h.g.3.3.3.W Z X.X.o.X.} Z * * * = A ..X.X.X.X.B $.=.=.=.=.=.=.q.h.j.h.h.h.h.8.8.8.6.=.=.=.",
"I I I _ *.=.=.=.=.<.g.h.h.j.g.h.s.3.3.t.W Z X.X.O.F > % . o O + = < { X.X.X.f %.=.=.=.$.=.=.w.h.j.g.g.h.h.r.8.8.6.*.*.=.",
"5.5.5.-.<.<.=./ / ( w.t.t.y.r.r.w.=.<.=.( D X.X.X.A ; & . o O   * = [ o.o.X.B %.=.=.=.y.u.u.y.1.w.2.p.a.a.y.w.2.6.6.0.6.",
"8.8.8.w.3.3.<.I I U <.<.-.w.8.7.6.*.*.*.%.h X.X...j o o o o O . o + ] o.o...m %.=.=.=.u.h.h.s.*.*.*.3.3.3.>.1.<.9.8.8.8.",
"8.8.8.w.3.3.=.I U U =.<.<.7.8.8.6.*.*.$.%.V  .....h o o + + + + o + F ......x %.=.=.*.u.j.h.u.*.*.*.1.3.2.>.<.<.6.8.8.8.",
"7.8.8.w.w.2.7.%.T %.-.w.<.9.7.6.5.$._ _ _ V  . ...M & , h Z M h % * ] .. . .f Y =.=.*.t.u.s.w.*.*.*.<.q.<.q.9.9.6.8.6.6.",
"8.8.8.8.8.8.8.8.8.8.8.8.8.-.=.=.$./ / / Q x |  .| M - 0  .| ..[ 1 = H } | | p L %.*.*.=.*.=.=.=.=.=.*.=.*.6.e.e.0.=.=.=.",
"8.8.8.8.8.8.8.8.8.8.8.8.8.4.=.=._ Q ( ( =.b x V V n t i V V M M i t m C M x v U *.*.*.=.=.=.*.=.=.=.=.=.=.6.e.e.6.*.=.=.",
"8.8.8.8.8.8.8.8.8.8.8.8.8.-.=.=.` ( ( ( Q s | | | } } | | } } } } | } | | { p P *.*.*.=.=.=.=.=.=.=.=.=.*.8.e.e.0.=.=.=.",
"g.h.h.r.8.8.r.j.h.g.<.<.<.=.=.=.=.=.=.=.J M [  .} ..| | [  .| | } } } } } | B %.2.<.<.s.h.h.d.e.e.e.8.8.8.e.e.e.e.8.e.e.",
"g.h.h.r.8.8.r.h.h.g.<.<.<.=.=.=.=.=.=.*.J M | } } } | | } } | } ..| ..| ..} x %.<.<.<.s.h.h.d.e.e.e.8.8.8.8.e.e.e.e.e.e.",
"h.h.h.r.8.8.r.h.h.f.1.-.9.=.=.=.=.=.=.=.v M } ..| | | ..| | | | } | | | } | n %.<.<.<.s.h.h.d.e.e.e.8.8.8.e.e.e.e.e.e.e.",
"i.r.e.6.$.=.4.r.r.r.7.8.6.6.6.6.6.*.=.=.*.M } } | | | ..| | | ..| ..| | | | m %.*.=.=.<.t.y.y.8.8.8.e.e.e.0.=.6.-.-.-.-.",
"7.8.8.%./ Y ) 8.8.8.8.8.8.8.8.8.7.=.=.*.1.M | | | | | ..| | | .. .| | | } } m %.*.*.$.<.<.<.w.8.8.8.e.e.e.4.=.=.=.=.=.$.",
"8.8.8.` / ) %.8.8.8.8.8.8.8.8.8.6.=.=.=.1.M | } | | } | | | | | } | | | ..| m %.*.*.*.=.=.<.7.8.8.8.e.e.e.6.` =.=.=.=.=.",
"8.8.8.4.4.%.5.8.8.8.6.6.5.8.8.8.0.=.*.=.:.M } } | | | | | | | [ | | | } } | m $.*.*.*.<.2.<.<.6.6.6.0.6.0.9.q.9.<.=.=.*.",
"8.8.8.8.e.e.8.8.8.8.=.=.-.6.e.e.0.=.=.=.W n } } | [ | { | | { | { } } } } { x $.*.*.=.>.3.3.1.*.=.=.=.=.*.d.h.j.s.=.=.=.",
"8.8.8.e.e.e.8.8.8.6.-.*.*.0.e.e.0.=.=.=.I m { { { { { { ] { { { { { { { { { m %.*.*.*.1.3.3.1.=.=.=.=.=.=.u.h.h.s.*.=.=.",
"8.8.8.8.e.e.e.8.e.8.=.*.=.6.e.e.6.=.=.=.W m { { { H { { H H { ] { A { { { H a %.*.*.*.=.1.1.<.$.=.=.=.=.*.u.g.d.u.=.=.,.",
"=.=.=.6.e.8.r.h.h.d.=.=.=.0.e.e.e.e.e.e.P m { { H { { { { { { { F { { { { H z ~ 3.1.3._ I U / =.=.` =.=.=.<.1.1.w.8.8.8.",
"=.=.-.5.8.8.r.h.h.g.,.=.*.0.e.8.e.e.e.e.W B ] { { { { { { { { ] { { { { { { z W 3.3.3.( I I / =.=.=.=.=.=.=.<.<.-.7.8.8.",
"=.=.=.6.8.8.r.g.h.g.,.*.=.0.e.e.e.e.0.0.W m H H H H H H ] H { H H ] H H H { s Q 3.3.3._ I Y / =.=.=.*.*.*.=.=.2.<.8.8.8.",
"9.<.<.<.4.-.y.h.h.g.8.6.6.6.4.=.9.4.9.4./ m F { H { H H H H H H H H H H H H s W =.<.,.6.4.4.4.*.=.-.<.<.<.0.w.7.7.<.<.9.",
"3.3.q.,.=.=.q.h.h.g.8.8.8.,.,.=.=.=.=.=._ x H H F H H H F H H H H H H H H D s P =.=.=.6.e.e.w.*.*.=.<.<.<.8.8.8.7.<.<.<.",
"3.3.q.,.=.$.q.h.h.h.e.8.8.4.=.=.=.=.=.=._ m F F H H H H H H H H H H H H H H s P =.=.=.w.e.e.e.=.*.*.<.<.<.6.8.8.7.<.<.<.",
"a.a.p.9.,.4.9.s.s.u.6.6.6.4.=.` =.4.6.=.( m H H H F H { H F H H H H H H H H p P =.%.*.7.8.e.6.6.-.6.t.t.t.8.8.8.7.=.=.<.",
"h.h.h.i.e.e.6.-.=.*.*.*.$.=.=.=.=.8.8.8.R m H H H H H H H H H H H H H H F H s P =.=.=.6.8.8.8.e.e.r.g.h.h.e.8.8.6.=.=.=.",
"h.h.h.i.e.e.0.*.=.=.*.*.` =.=.=.6.8.8.8.W x H H H F F H H H H H F H H H H H s Q =.=.=.6.8.8.8.e.e.r.g.h.h.r.8.8.6.*.=.*.",
"j.h.h.r.e.e.w.*.*.=.=._ ` =.*.,.=.8.8.e.W m A H H F H D H F H F H H H H H H p Q =.=.*.6.e.8.8.e.e.r.h.g.g.r.8.8.6.*.*.-.",
"=.=.=.6.e.e.w.3.q.q.=.-.*.6.8.8.7.$.` *.L m H H G H H H S H H H H H D F H H z W =.=.=.u.g.h.d.-.<.<.w.e.e.8.8.8.7.<.<.<.",
"=.=.=.w.e.8.r.3.3.2.=.=.*.6.8.8.6.$.` $.L x S S G G Z S S S S S Z G D G C M z W =.=.=.u.h.h.s.<.,.9.8.e.r.8.8.8.7.<.<.<.",
"=.=.*.8.e.e.y.3.3.3.=.=.*.6.8.8.6._ *.` L x S S Z S S Z Z S S S N Z G G C M p W =.*.=.u.h.h.s.1.<.<.e.e.8.8.8.8.7.<.<.<.",
"*.=.=.%.$.) 6.f.f.s.w.5.6.6.6.4.9.s.i.u.L x S N N N C S S S N S C N C G C Z z $.u.s.s.t.w.w.w.7.w.8.e.e.e.e.9.9.<.( ( / ",
"=.=.=./ I I =.h.h.g.8.8.8.4.=.*.q.h.h.h.K k N S G M G V S S S N S S S M G M y &.h.h.h.w.*.=.-.8.8.8.e.e.8.1.<.<.*.I I I ",
"=.=.=.Y I I -.g.h.h.8.8.8.-.=.*.9.h.h.h.U l z m m m m m m x m m m m m m m z P 8.h.h.j.w.=.=.-.8.8.8.e.e.e.9.<.<.*.I I I ",
"*.=.=.) / / =.s.u.s.e.w.w.6.4.9.t.h.h.h.P t M C N S M M N x m C N S N N C B p &.h.h.h.q.=.=.4.8.8.8.i.i.i.6.=.,.$.Y I / ",
"=.=.=.*.=.=.*.=.=.=.1.1.1.e.8.7.e.h.h.h.W x N C M C N M N x m N M N N N M V p %.h.h.h.9.*.*.4.e.e.r.g.h.g.<.Q ( ( *.*.*.",
"=.=.=.=.=.=.=.=.*.=.3.1.3.w.8.8.r.j.j.j.P a V M N N N n C z m N S N N N N N p $.h.h.h.9.*.*.-.e.8.e.h.h.h.<./ / ( *.=.*.",
"=.=.=.=.=.=.=.=.=.,.1.1.t.w.e.8.8.j.g.j.Q z M C N N N N N x m S M N N N N N p $.g.g.g.9._ *.-.e.e.e.g.h.g.-.( ( _ *.*.*.",
"8.8.8.7.<.<.,.*.=.=.,.=.=.u.h.g.f.3.3.t.W z N C M M N M S x m N S M N N C N z t.<.=.=.( Q I _ t.p.t.e.e.8.-.=.=.( I U U ",
"8.8.8.2.<.<.,.=.*.=.=.=.=.f.h.h.f.3.3.3.W x N N N N N N N x m S N S N N M N z t.=.=.=.Y I I _ 1.1.1.8.8.8.-.=.=._ I I I ",
"8.8.8.7.<.<.,.*.=.=.=.=.*.s.h.h.s.3.3.t.W z N S N M N N N x m N N N N M M N z t.=.=.=.Y I I $.3.3.t.8.8.8.4.=.=._ I I I ",
"8.8.8.u.s.s.y.1.<.<.=.=.=.9.t.9.9.<.,.,.L z N M M N N M N x m C N N N M C N i ~ ( $.$.Q I I ( =.<.=.8.8.8.-.=.=.=._ _ _ ",
"8.8.8.d.g.h.f.3.3.1.=.=.=.*.=.=.=.=.=.=.J 1 * : 1 < = - 1 w 8 * * 1 < = - 3 7 J ( / / Q I I ( =.*.=.6.8.8.-.=.=.=.=.=.*.",
"8.8.8.g.h.j.s.3.3.3.=.=.=.=.=.*.=.=.=.=.J - . @ * $ O + * 0 - . @ * @   + * 0 K / ( / I I I / *.=.=.8.8.8.-.=.=.=.*.=.*.",
"8.8.8.8.y.y.w.7.2.2.*.=.=.=.=.=.=.6.=.4.K < # # # # # # @ 5 2 # @ @ @ # # # 3 ~ ( $.( ) %.%.%.=.<.<.e.r.r.-.=.=.=.<.,.<.",
"7.8.8.$.I I %.8.8.8.=.=.=.=.=.=.=.8.8.8.K 3 $ #   + $ # . 3 0 * # o @ * * o 9 y.=.=.=.6.8.8.8.3.t.t.h.j.h.t.=.=.<.3.3.3.",
"8.8.8.T I I T 8.8.8.-.*.*.=.=.=.-.8.8.8.I u 8 1 1 > 3 3 - e e 3 3 > 1 3 3 2 ;.h.*.=.*.8.8.8.w.3.3.3.h.j.j.2.=.=.,.3.t.1.",
"8.8.8.T I I T 8.8.8.=.=.=.=.=.*.-.8.8.8.I I b / $._ ) $.) -.*.W ~ Q T ) $.t.h.h.=.=.*.6.8.8.w.3.3.3.h.g.j.w.=.=.<.3.3.3."
};
