/* XPM */
static char *_742_2fb8c529806ef83c4a533cb7171d331d317cf2c90efd8e9c84941b973861f73e[] = {
/* columns rows colors chars-per-pixel */
"60 60 145 2 ",
"   c #193E17",
".  c #1A3F18",
"X  c #174114",
"o  c #1A4216",
"O  c #1C451A",
"+  c #1D4A1C",
"@  c #214C1E",
"#  c #22501F",
"$  c #224E20",
"%  c #255423",
"&  c #2A5625",
"*  c #265A22",
"=  c #295C26",
"-  c #295729",
";  c #275928",
":  c #2C5E29",
">  c #296324",
",  c #2A6C26",
"<  c #2D672A",
"1  c #2E6C29",
"2  c #306D2B",
"3  c #2F7127",
"4  c #2E712A",
"5  c #31742B",
"6  c #337A2C",
"7  c #367C31",
"8  c #477F38",
"9  c #35802E",
"0  c #378331",
"q  c #398332",
"w  c #3D9435",
"e  c #478237",
"r  c #4B8339",
"t  c #438B3B",
"y  c #4B8C3C",
"u  c #528B3D",
"i  c #44933D",
"p  c #4B913D",
"a  c #439B3B",
"s  c #52923E",
"d  c #46A63C",
"f  c #48A43F",
"g  c #46AB3C",
"h  c #49AC3F",
"j  c #4D8E41",
"k  c #568B43",
"l  c #598F43",
"z  c #5B8E4C",
"x  c #469340",
"c  c #4E9141",
"v  c #459941",
"b  c #4A9A43",
"n  c #539342",
"m  c #5A9443",
"M  c #569B43",
"N  c #599B45",
"B  c #5B9248",
"V  c #5B994A",
"C  c #619B46",
"Z  c #609948",
"A  c #4DA545",
"S  c #4DAC45",
"D  c #4DA548",
"F  c #4EAD49",
"G  c #50A547",
"H  c #5EA046",
"J  c #50AD47",
"K  c #50A748",
"L  c #5FA149",
"P  c #50AE4A",
"I  c #4EB345",
"U  c #4EBA43",
"Y  c #4FB249",
"T  c #51B546",
"R  c #52BB47",
"E  c #51B44A",
"W  c #5AB54C",
"Q  c #54BC4A",
"!  c #66A143",
"~  c #69A146",
"^  c #63A54D",
"/  c #6CA44C",
"(  c #73AE4B",
")  c #75B04C",
"_  c #79B34F",
"`  c #7FB84F",
"'  c #6CA651",
"]  c #66A850",
"[  c #73A652",
"{  c #76AF50",
"}  c #77A75C",
"|  c #77B351",
" . c #7BB354",
".. c #7EB851",
"X. c #7FB558",
"o. c #7EAF60",
"O. c #54C247",
"+. c #55C34A",
"@. c #58C34C",
"#. c #56CC4A",
"$. c #59CD4C",
"%. c #56D747",
"&. c #55D24B",
"*. c #5AD34C",
"=. c #5CDC4D",
"-. c #5CCE50",
";. c #5DDD50",
":. c #61DD52",
">. c #5CE04F",
",. c #5FE050",
"<. c #60E150",
"1. c #81B656",
"2. c #81BA54",
"3. c #81B759",
"4. c #83B95B",
"5. c #88BE5C",
"6. c #82B065",
"7. c #86BA60",
"8. c #8BBC62",
"9. c #8EBE6A",
"0. c #90BF61",
"q. c #91BE6B",
"w. c #87C057",
"e. c #8AC256",
"r. c #8DC45C",
"t. c #91C65D",
"y. c #92CA5C",
"u. c #8EC262",
"i. c #8FC861",
"p. c #8EC06B",
"a. c #91C464",
"s. c #94CC61",
"d. c #99CE65",
"f. c #93C36B",
"g. c #96C96B",
"h. c #9ACC6D",
"j. c #9CD06C",
"k. c #97C772",
"l. c #99C672",
"z. c #9CCD71",
"x. c #9FD173",
"c. c #A0CE73",
"v. c #A3D476",
"b. c #A5D579",
"n. c #A8D67B",
/* pixels */
"y.y.t.5.3.3.r.s.s.d.v.v.n.b.b.b.g.( ( ( b.b.b.k.9.9.9.3.4.4.a.s.s...( ) ..y.s.s.X.X.3.4.4.4.r.s.y.y.4.4.4.4.4.4.w.y.y.y.",
"y.y.y.5.3.4.w.s.s.y.v.b.b.b.b.b.g.) ( ( b.b.X.k c k j x y x p n c y y t p n / s.X.4.X.4.3.4.4.y.y.t.4.4.4.4.4.4.r.y.y.y.",
"y.y.y.5.4.4.w.s.s.d.v.b.b.b.n.b.g.( ( ( v.6.W =.;.;.;.%.=.=.;.=.=.=.=.=.=.%.Q ' 3.3.3.3.4.4.w.y.y.y.5.4.4.4.4.4.w.y.y.y.",
"y.y.y.r.7.7.u.s.s.s.v.b.b.j.s.d.i. .X. .h.B &.=.;.;.;.>.;.>.=.=.<.=.;.<.,.=.=.M 4.4.3.4.3.3.u.v.j.j.4.4.4.w.r.r.r.y.y.y.",
"y.y.y.t.8.8.8.y.y.y.n.b.n.d.y.y.i.X.4.4.s.l $.<.,.=.>.=.:.=.>.,.,.=.,.=.>.;.=.M 4.4.4.4.4.X.p.b.n.v.7.3.4.r.y.y.y.y.y.y.",
"y.y.y.8.8.8.5.y.y.y.v.b.n.d.y.y.i.4.3.4.y.m *.,.;.=.<.=.>.>.>.=.>.>.>.>.>.<.%.M 4.4.4.7.4.4.u.n.v.v.7.3.4.r.y.y.y.y.y.y.",
"y.y.y.u.8.8.8.t.r.t.g.h.h.g.d.d.a.8.8.8.a.l #.%.0 1 5 2 g =.=.<.U 4 4 1 7 =.*.M w.r.w.w.w.u.u.j.x.j.w.r.e.r.y.y.y.e.r.t.",
"y.y.y.8.8.8.8.4.4.4.4.4.4.h.b.v.z.f.q.q.4.u #.%.5 % # & a =.>.=.I % % % < =.=.M r.y.y.s.s.s.s.y.y.y.y.y.y.y.y.y.r.4.4.4.",
"y.y.y.5.8.8.8.3.3.4.4.4.3.z.n.b.c.q.q.q.3.u #.*.2 % @ O w =.=.=.h o + & < %.=.n y.y.y.s.s.s.y.y.y.y.y.y.y.y.y.y.r.4.4.4.",
"y.y.y.0.0.8.7.3.4.4.5.8.5.h.b.n.c.q.q.q.4.u $.*.4 % O   w =.=.=.g X + * < =.%.M t.y.y.y.y.s.s.y.y.s.d.y.y.y.y.y.r.4.4.4.",
") ( ( 1.5.3.4.4.4.7.z.v.v.b.b.b.v.q.q.q.7.k #.=.U g d f w 0 q 0 i d g h U =.*.H 4.w.4.4.4.8.p.b.b.b.b.b.v.d.y.y.r.3.4.4.",
"( ( (  .3.4.4.4.4.8.v.b.v.b.n.b.c.q.q.q.3.y #.=.:.;.=.=.a & * # 9 =.=.=.=.=.*.N 4.4.4.4.4.3.u.b.n.b.b.b.b.d.y.y.r.3.4.4.",
") ( ( 1.3.4.3.4.4.7.v.b.b.n.b.b.c.q.q.q.4.u @.;.=.=.I a 5 + @ @ > a h =.;.=.*.N 3.4.4.4.4.3.a.n.b.b.b.b.n.d.t.y.t.4.4.4.",
"e.e.e.5.9.8.4.|  . .f.f.f.g.d.d.s.4.4.8.y.s $.;.>.=.0 - + X   O O % q =.=.=.=.G 4.4.4.f.z.z.g.u.0.0.l.l.l.a.0.0.r.r.r.r.",
"y.y.y.0.q.q.3.( ( ) 7.8.5.t.y.y.r.3.3.4.y.m #.=.=.=.6 + O   o o o @ 6 *.=.;.%.M 4.4.4.h.b.b.z.3.3.4.9.q.q.9.8.8.u.y.y.y.",
"y.y.y.a.q.q.8.( ( ) 8.4.8.t.y.y.r.3.3.1.y.s +.*.*.*.3 o         . o 1 *.*.*.*.N 4.4.3.h.b.b.g.3.3.4.9.0.9.8.7.8.r.r.y.y.",
"y.y.y.t.a.a.5.2.` 2.r.8.a.r.i.r.w.1.1.1.r.n +.*.*.*.5 @ # > , , > @ 3 $.*.*.$.n 2.4.3.f.h.z.a.3.3.4.8.u.8.p.i.u.i.r.t.r.",
"y.y.y.y.y.y.y.y.y.y.y.y.y.4.4.4.3.|  . .4.k O.*.*.*.7 % a *.*.*.h # 7 $.*.*.#.s 4.3.1.4.4.4.4.4.4.4.4.4.X.i.s.s.i.4.3.4.",
"y.y.y.y.y.y.y.y.y.y.y.y.y.5.4.4.1. .{  .4.[ G +.@.@.0 < i +.+.+.f : q $.O.#.G C 3.3.3.4.4.3.3.5.4.4.4.4.3.i.s.s.r.4.4.4.",
"y.y.y.y.y.y.y.y.y.y.y.y.y.5.3.4.X.|  .| 3.m S R R R T h T R R R T T T h R T e ( 3.3.3.4.4.4.4.4.4.4.4.4.4.r.s.s.r.4.3.4.",
"b.b.b.d.y.y.d.b.b.v.8.8.7.4.4.4.3.3.4.4./ A $.$.$.#.*.#.*.$.*.$.$.#.*.$.*.#.A 1.8.8.8.z.b.b.x.s.s.s.r.y.s.y.s.s.s.s.s.s.",
"b.b.b.d.y.y.d.n.b.v.8.8.u.7.4.4.3.7.4.4.! S $.&.$.$.$.#.$.$.$.#.*.#.$.#.$.#.I / 8.8.8.z.b.b.x.s.s.s.y.y.y.y.s.s.y.s.s.s.",
"b.b.b.g.y.y.d.b.b.c.9.5.8.4.4.4.4.4.4.7.p +.#.#.$.#.#.$.#.*.#.*.#.#.$.$.$.$.$.N 8.8.8.z.b.v.x.s.s.s.y.y.t.y.s.s.s.s.s.s.",
"d.d.d.5.2.2.e.d.h.d.t.t.y.r.r.r.r.3.4.3.H $.$.#.#.$.*.#.$.#.$.#.*.#.$.$.*.$.$.N 3.4.4.8.g.f.g.y.y.y.s.s.s.u.r.5.5.5.5.r.",
"y.y.y.2.|  .2.y.y.y.y.y.y.y.y.y.r.4.3.4.] +.$.-.*.$.$.$.$.$.$.$.$.*.#.$.*.#.$.s 1.1.3.4.8.8.u.y.s.y.s.s.s.w.4.4.4.4.4.4.",
"y.y.y.2.| | 2.y.y.y.y.y.y.y.y.y.r.4.4.4.] $.#.$.#.$.$.#.$.$.$.$.$.#.-.#.*.#.$.N 1.4.3.8.5.5.8.y.y.y.s.s.s.r.4.X.4.4.4.4.",
"y.y.y.w.4.2.e.y.y.y.r.r.e.y.y.y.i.4.4.4.^ O.#.$.$.$.$.#.-.$.$.$.$.-.#.#.$.$.@.n 3.3.3.7.0.8.u.r.t.r.r.r.i.i.g.u.u.3.4.4.",
"y.y.y.y.s.s.y.y.y.i.w.4.4.r.s.s.i.4.4.4.N +.#.#.$.$.#.#.#.$.#.$.#.-.#.#.#.#.$.N 3.3.1.9.q.q.9.3.4.4.4.4.4.k.b.n.h.4.4.4.",
"y.y.y.y.s.s.y.y.y.y.4.4.4.r.s.s.i.3.4.4.M Q +.#.#.+.#.+.@.+.+.#.+.#.+.+.#.+.+.M 3.3.3.9.9.q.9.3.4.4.4.4.4.x.v.b.z.4.3.4.",
"t.y.y.y.s.s.s.y.s.s.4.4.4.r.s.s.i.4.4.4.M Q +.+.@.Q @.+.@.O.Q @.@.+.O.@.Q O.Q M 3.3.1.8.9.9.8.3.4.4.4.4.X.k.v.x.z.4.4.7.",
"4.5.5.r.y.y.d.n.x.x.u.4.4.y.s.s.s.s.y.a.M Q Q +.Q Q Q +.O.Q Q O.+.Q Q +.@.O.Q n 9.9.9.X.( )  .4.4.X.4.4.4.u.p.8.0.t.t.y.",
"3.4.5.e.y.y.d.n.n.x.X.4.X.i.s.s.s.s.s.s.M Q @.Q @.O.+.Q +.Q @.O.Q +.O.Q O.+.E k q.q.q.X.( ( | 4.4.4.4.4.3.7.8.8.5.y.y.y.",
"4.3.4.r.y.y.d.b.b.v.4.5.4.i.s.s.s.s.s.a.N R +.Q @.+.+.Q Q Q +.O.+.Q O.+.Q O.R n q.q.f.X.( ( | 3.4.4.3.3.3.4.8.8.8.y.y.y.",
"8.p.8.r.5.5.g.b.v.v.r.r.r.r.w.4.u.4.w.u.H R Q Q Q Q R Q Q Q Q Q R Q Q Q +.Q Q s 5.8.4.5.r.w.5.4.4.4.8.8.8.i.t.t.t.8.r.u.",
"q.9.q.7.4.3.9.b.v.v.s.y.r.u.7.4.4.4.4.4.H R Q Q R O.R Q Q Q Q Q Q R Q R Q Q Q n 3.4.4.u.s.s.s.3.4.4.8.8.8.r.y.y.0.8.8.8.",
"q.9.p.8.4.4.u.b.b.b.s.y.y.w.4.X.4.4.4.4.H Y Q Q Q Q R Q Q Q R Q Q Q Q Q R Q E y 4.4.4.i.s.s.a.3.3.4.8.8.8.t.y.y.t.8.8.8.",
"l.l.k.i.u.w.u.z.z.j.r.r.e.w.4.X.4.w.r.4.N Q Q Q Q R Q Q Q Q Q Q Q Q Q Q Q Q Q n 4.2.4.t.y.s.y.4.w.u.a.f.f.t.y.y.t.4.5.4.",
"n.n.x.j.s.s.i.4.X.4.4.X.3.7.4.4.5.y.y.y.M Y Q Q Q R R Q Q Q Q Q Q Q R Q Q Q Q n 4.4.4.t.y.y.y.s.s.d.b.b.b.s.y.y.r.4.4.4.",
"v.v.b.h.s.s.i.4.4.4.X.4.X.4.4.4.4.y.y.y.N E Q Q R Q Q R Q Q Q E Q Q Q Q Q Q Q n 4.4.4.r.y.y.y.s.s.d.v.b.b.d.y.y.r.4.4.4.",
"n.b.b.h.s.s.r.4.3.4.4.X.4.4.X.7.5.y.y.y.M Q R R Q Q Q Q Q Q Q Q Q Q Q Q Q Q T s 4.4.4.r.y.y.y.d.y.d.b.b.v.d.y.y.r.3.4.4.",
"4.4.4.r.s.d.s.q.p.p.4.4.3.r.y.y.r.2.3.1.n R Q Q Q Q Q Q Q Q Q Q Q Q Q Q Q Q E n 4.4.4.h.b.b.j.8.8.8.g.s.s.y.y.y.t.8.8.8.",
"4.4.4.u.s.y.a.q.q.9.3.5.5.r.y.y.r.3.3.3.B K E T Y E Q E Y Q E E E E E E R E a / 4.4.3.z.b.b.x.8.7.u.y.y.s.y.y.y.t.8.8.8.",
"4.4.4.s.y.d.g.q.q.q.4.4.4.r.y.y.r.3.3.3.[ b E E Y Y E F P E E I E I E Y E P a [ 4.3.3.h.b.b.z.8.8.8.s.s.s.y.y.y.t.8.8.8.",
"4.4.3.2.2...5.c.v.h.r.r.e.r.w.w.i.g.x.k./ a P J E F P P E F F Y P Y P E P P i | h.z.z.f.u.f.u.y.a.y.s.s.s.a.i.u.8. . .| ",
"4.4.4.| ( ( 4.b.b.v.y.y.y.5.4.4.u.b.v.b.( e A D D D A D A A A A D D D D A A y r.b.b.n.p.4.4.5.y.y.y.s.s.s.a.8.8.4.( ( ( ",
"3.4.4._ ( ( 5.b.b.v.y.y.y.5.4.3.u.b.n.v.~ y A D D A A D A i i D D A A A A G u 2.b.b.n.a.4.4.5.y.y.y.s.s.s.8.8.8.3.( ( ( ",
"4.3.4. .| | 4.z.z.z.a.s.a.r.w.u.g.b.b.b.n S P P S P E S F x i J P J E F E P I m b.b.b.a.4.4.w.y.y.y.d.j.d.u.3.8. ._ ( { ",
"4.5.3.4.4.4.3.4.3.4.9.9.9.s.y.t.d.b.b.b.M S I S S S S J J p t D J S S J h J S s b.b.b.u.3.3.w.s.d.s.b.b.b.8.|  .X.3.3.3.",
"3.4.4.4.4.4.4.4.3.3.q.9.q.a.y.y.d.b.v.b.m D J P F S F P F x x F J F F F F F F n v.b.b.u.3.3.5.y.y.d.v.b.b.8.|  .X.3.3.3.",
"4.5.5.4.3.4.4.4.4.7.f.9.a.f.y.s.d.b.b.n.m J S E F F F J S x i S F S J P S F F m v.v.v.8.X.3.5.g.s.s.v.v.b.5. . . .3.3.3.",
"y.y.t.5.8.5.7.4.4.4.7.4.4.z.b.c.c.q.q.q.m S S P E P F F F x x S S E S F P P F V 5.8.4. .{ ( X.f.f.f.s.s.y.5.4.3. .{ ) ) ",
"y.y.y.a.8.9.4.4.4.3.4.4.4.z.b.n.c.q.q.q.V J S S S S F F F x x S P S P S S F D V 4.4.4. .( (  .q.f.9.s.y.y.5.4.4.X.( ( ( ",
"y.y.y.a.8.8.7.3.4.4.4.3.4.z.b.b.z.q.9.f.m S F S F F F P F x x S F F F F S F K V 3.4.4.| ( (  .q.f.p.t.y.y.r.3.4.X.( ) ) ",
"y.y.y.d.z.z.g.8.8.8.5.4.4.8.a.a.u.7.8.7.c i w x v i i w i x t t i v x w i a x c X. .1.{ ( (  .8.8.5.y.y.y.w.3.4.X.X. .X.",
"y.y.y.x.b.b.c.q.q.9.4.3.4.4.3.4.4.4.3.4.e O . % & O   $ - t x O O % $ . O % * e  .{  .{ ( ( | 3.3.4.t.y.y.5.4.4.4.4.4.4.",
"y.y.t.v.b.n.c.q.q.q.4.4.4.4.4.4.3.4.4.4.r + O $ $ O O $ - w e @ + % @ O O % % e  .{  .( ( ( { 4.4.4.t.y.y.5.4.4.4.4.4.4.",
"y.e.y.s.g.f.s.0.a.0.4.4.3.4.4.4.4.4.r.4.u & # @ X # # @ O k l & $ X O % % . + 8 1.1.X. .2.` 2.5.8.8.s.d.g.r.3.4.4.8.5.8.",
"y.y.y.2.( ( 2.y.y.y.4.4.3.4.4.4.r.y.y.y.m < = @ @ # # # @ Z s : % + % : * @ * } 4.3.4.t.y.y.t.q.f.f.b.n.n.a.4.3.8.q.q.q.",
"y.y.y.` ( ( ` y.y.y.4.4.4.4.4.4.5.y.y.y.( s e y s s s s u 0.3.u u u y u s z } v.4.3.4.r.y.y.a.q.q.q.b.b.b.a.3.4.7.q.q.q.",
"y.y.y.` ( ( ` y.y.y.4.4.4.4.4.4.5.y.y.y.) ( ) e.y.s.s.y.a.s.0.0.8.t.y.y.d.b.b.b.4.4.1.y.y.y.a.q.q.q.b.b.b.f.4.4.7.q.q.q."
};
