/* XPM */
static char *_0318_1542599dd301e0d84a56b4b79b39b6b10906420b61a49f2be759ab4e2374631d[] = {
/* columns rows colors chars-per-pixel */
"60 60 129 2 ",
"   c #193F15",
".  c #1B3F19",
"X  c #174014",
"o  c #194216",
"O  c #1C431A",
"+  c #1D481B",
"@  c #214C1E",
"#  c #23511F",
"$  c #234E21",
"%  c #245422",
"&  c #2A5623",
"*  c #265924",
"=  c #29532B",
"-  c #276323",
";  c #2A6425",
":  c #2C6229",
">  c #2D6A29",
",  c #346C2D",
"<  c #2E7028",
"1  c #34722D",
"2  c #37792F",
"3  c #356B32",
"4  c #3B6C35",
"5  c #357230",
"6  c #3A7432",
"7  c #367831",
"8  c #477C38",
"9  c #4A7D3B",
"0  c #3C8536",
"q  c #418A3A",
"w  c #4B8B3F",
"e  c #46933D",
"r  c #49943E",
"t  c #479C3F",
"y  c #4A993F",
"u  c #45A33B",
"i  c #4AA33F",
"p  c #47AA3D",
"a  c #4AB13C",
"s  c #488A40",
"d  c #479142",
"f  c #499441",
"g  c #479E40",
"h  c #4B9C42",
"j  c #559642",
"k  c #5E9A44",
"l  c #639C45",
"z  c #4CA343",
"x  c #4DAC45",
"c  c #4EAD49",
"v  c #51A246",
"b  c #50AD47",
"n  c #51AE49",
"m  c #4EB146",
"M  c #4EBB43",
"N  c #4FB049",
"B  c #50B246",
"V  c #52BB46",
"C  c #51B14A",
"Z  c #53BC49",
"A  c #65A045",
"S  c #6BA446",
"D  c #6DA947",
"F  c #6DA44B",
"G  c #6FA84A",
"H  c #70A64D",
"J  c #73AE4B",
"K  c #75B04D",
"L  c #79B34F",
"P  c #7FB84F",
"I  c #6FA551",
"U  c #75AB53",
"Y  c #79AF57",
"T  c #7CAD5B",
"R  c #77B351",
"E  c #7BB354",
"W  c #7EB952",
"Q  c #7FB558",
"!  c #7EAC61",
"~  c #52C245",
"^  c #54CD47",
"/  c #55C24A",
"(  c #56CC4A",
")  c #59CD4C",
"_  c #56D149",
"`  c #59D24C",
"'  c #5CDC4D",
"]  c #5DDC50",
"[  c #60DB52",
"{  c #5CE14D",
"}  c #5FE050",
"|  c #60E04F",
" . c #81B657",
".. c #82BA55",
"X. c #81B759",
"o. c #83B95B",
"O. c #88BE5C",
"+. c #85B564",
"@. c #88B465",
"#. c #86BB60",
"$. c #8BBC62",
"%. c #8EBE6A",
"&. c #90BF61",
"*. c #91BE6B",
"=. c #87C057",
"-. c #8AC256",
";. c #8DC45C",
":. c #91C65D",
">. c #92CA5C",
",. c #8EC362",
"<. c #8FC861",
"1. c #8EC06B",
"2. c #91C464",
"3. c #94CC61",
"4. c #99CE65",
"5. c #93C36B",
"6. c #98C66E",
"7. c #96C96B",
"8. c #9ACC6E",
"9. c #9CD06C",
"0. c #96C671",
"q. c #99C672",
"w. c #96C871",
"e. c #9CCD71",
"r. c #9FD173",
"t. c #A0CF73",
"y. c #A3D476",
"u. c #A5D579",
"i. c #A8D67B",
/* pixels */
">.>.:.O.X.X.;.3.3.4.y.y.i.u.u.y.7.K G K u.u.6.+.T ! U U I U  . ...G l A G ..3.3.X.X...o.o.o.O.>.>.:.o.o.X.O.X.o.=.>.>.>.",
">.>.>.O.X.o.=.3.3.3.y.u.u.u.u.u.7.K J K u.@.z x x x x x x x p x b x x x x z U >.X.X.X.o.o.o.O.<.>.:.o.o.o.X.o.o.=.>.>.>.",
">.>.>.O.o.o.,.3.3.4.y.u.u.u.i.y.7.J J J 6.h ' { ' } { | { | [ | { ] { ' { ' z O.X.X.X.X.o.o.=.>.>.>.O.o.X.X.o.o.=.>.>.>.",
">.>.>.;.+.o.,.>.>.3.u.u.u.9.4.4.<.Q Q E O.x { ' ' [ { [ { ' { | { | { { { ' B ..o.X.X.o.o.o.,.r.9.9.O.o.o.;.;.;.;.>.>.>.",
">.>.>.;.$.$.O.>.>.>.y.u.u.4.>.>.;.Q o.o.X.x ' { { { { { } ' { } { ' { { { ] a ..o.o.o.o.X.X.,.i.i.y.#.o.o.;.>.>.>.>.>.>.",
">.>.>.,.$.$.,.>.>.>.u.u.u.4.>.>.<.Q o.o. .x { ' ~ ~ ~ / ' } } ] ( ~ / ~ ' ' B ..o.o.o.o.o.o.2.u.i.r.o.Q o.;.>.>.>.>.>.>.",
">.>.>.2.$.$.$.;.;.:.8.e.8.4.4.4.3.$.$.$. .z ' m * * # , [ [ { ' 1 % % = p ' b P =.=.#.;.=.,.,.9.r.9.-.,.=.;.>.>.>.;.-.:.",
">.>.>.$.$.$.$. .o.o.o.o.o.e.u.u.e.*.%.*.U z ' m * % % > ` ' ' ' < % % % p ' B H >.>.>.3.3.3.3.>.>.>.>.>.>.>.>.>.;.o.o.o.",
">.>.>.&.O.$.$. .o.o.o.o.o.8.u.u.t.*.5.*.U z ' a = % o * ' ] ' ] - X # % p { b U >.>.>.>.3.3.3.>.>.>.>.>.>.>.>.>.:.o.o.o.",
":.:.:.O.$.$.+.o.o.o.O.O.$.8.u.u.t.*.*.*.U z ' M > - % - / ^ ^ ^ < % ; > x ' b U >.;.>.>.>.3.3.>.>.3.4.>.>.>.>.>.;.o.o.o.",
"K J K ..o.o.+.o.o.o.t.y.y.y.u.u.t.*.*.*.U z ] ' _ ( _ V - : - - a _ ` ` ' ' a ..o.o.o.O.o.#.1.y.u.u.u.u.u.4.:.>.;.X.o.o.",
"J G J ..o.o.o.o.o.$.y.u.u.u.u.u.t.*.*.*.U i ` ' ] ' ] / = % * * M ' ' ' ' ' b ..o.o.o.o.O.X.,.i.u.u.u.u.u.>.>.>.;.o.o.o.",
"K J J  .X. .o.o.o.$.y.u.u.u.u.u.t.*.*.*.U z ' ' ] ( , - O O O O - > / ' ' ' x ..o.o.X.o.o.o.,.i.u.u.u.u.u.4.>.>.;.o.X.o.",
"-.-.O.O.$.%.o.R R E *.5.5.4.4.4.3.O.O.+. .x ] ] ] ^ * % . X     $ % ~ ] ] ' a ..o.o.O.5.e.8.7.,.&.2.0.q.q.2.2.$.;.;.,.;.",
">.>.>.2.*.*.o.J J R $.$.$.:.>.>.;.X. .X...z ` ' ` ~ O o X . O   O o M ' ` ] x ..X.o.X.8.u.u.8.X.X.o.*.*.*.%.$.$.;.>.>.>.",
">.>.>.:.*.*.O.J J J o.$.$.:.>.>.;.X.X. ...z ` ` ` V O X o o O . o O B ` ` ` x ..o.o.o.8.u.y.e... . .%.*.*.$.$.$.;.>.>.>.",
">.>.>.3.2.2.:...P W ;.,.$.;.,.;.-.X. .X.X.v ) ` ` ~ % * u u z u - $ M ` _ ` b U  .o.o.2.e.8.1.X.Q #.$.,.$.,.,.,.,.>.;.;.",
">.:.>.>.>.>.:.>.:.>.>.>.>.;.o.o. .R U E T f ( ` ) Z % 3 ) ) ` _ 1 * B ` ` ( h F  .o. . .X.O.o.o.o.Q o.o.Q <.3.3.,.o.o.o.",
":.>.>.>.:.>.>.>.>.>.>.>.>.O.o.o.Q E R E  .I h b n z 0 q x x c x q 2 z x b h l J X.X.o.o.o.X.X.X.o.o.o.o.o.<.3.3.;.o.o.o.",
">.>.>.>.>.>.>.>.>.>.>.>.>.O.X.o.Q R E E  .j / ( ) ( ) ) ) / ) ) ( ) ( ) ) / r G o.o.X.o.o.o.o.O.o.o.o.o.X.<.3.3.>.X.o.X.",
"y.u.u.4.>.>.4.u.u.y.$.$.$.o.o.o.o.o.Q #.F t ( _ ( ` ( ) ( _ ( ` ` ) ) ` ( ` x ..$.$.$.e.u.y.r.3.3.3.<.>.>.>.3.3.3.3.>.3.",
"u.u.u.4.>.>.4.u.u.y.%.$.$.o.o.o.o.X.o.o.A z ( ( ( ) ) ) ( ) ` ( ) ) ) ) ) ) z ..$.$.$.e.u.i.r.3.3.3.>.>.>.3.3.3.3.3.3.3.",
"y.y.u.4.>.>.4.y.y.y.$.$.#.#.Q =.o.o.o.o.S h ( ` ` ( ) ` ) ` ) ) ) ) ) ) _ ) x ..$.$.$.e.u.u.r.3.3.3.>.>.>.3.3.3.3.3.3.3.",
"9.4.4.;...X.-.4.4.4.:.:.>.;.<.;.;.o.o.Q o.h ) ` ` ( ) ` ( ) ) ) ` ) ) ) ` ) z ..X.o.o.$.5.5.7.>.>.3.>.3.<.;.,.=.#.O.,.=.",
">.>.>...E R W >.>.:.>.>.>.>.>.>.,.X.o.o.6.i ) ) ( ) ) ) ) ) ) ` ) ) ) _ ) _ z ..X.X. .@.$.$.2.>.>.>.3.3.3.;.Q o.o.o.o.X.",
">.:.>.W E R ..>.>.>.>.>.>.>.>.>.:.o.o.o.5.y ) ) ( ( ( ) ` ) ) ) ) ( ) ) ) ( x ..X.X. .O.$.O.,.>.>.>.3.3.3.=.o.o.o.X.o.o.",
">.>.>.=.W =.=.>.>.>.>.;.-.>.>.>.;.o. .O.$.h ) ) ` ( ) ( ) ) ) ( ) ) ) ) ) ( z .. .X.X.$.$.$.$.;.>.;.,.;.<.<.7.1.,.o.o.o.",
">.>.>.>.3.3.>.>.>.>.o.o.o.;.3.3.,.o.o. .U h ) ) ( ( / ) ( / ) ( / ) ) ) ( ( z ..X.X.X.$.*.*.%.X.o.o.o.o.o.8.y.y.e.X.o.o.",
">.>.>.3.4.3.>.>.>.:.o.o.o.;.3.3.,.o.o.o.U y / / Z ) / / / / / / / / / / / / z X.X.X.X.%.%.%.%.X.o.o.o.o.o.e.y.u.e.X.X.o.",
":.:.>.>.3.3.>.3.3.3.o.X.o.,.3.3.>.o.o.o.Y y / / V V / / / Z / / / V / / / Z z Q X.X.Q O.%.%.$...o.o.o.o.o.w.y.r.8.o.O.o.",
"o.=.=.<.>.>.4.u.u.r.O.o.o.<.3.>.>.3.3.3.U y / V / / / / V / / / / / Z / / Z h Y %.%.*.Q K K E o.o.Q o.o.o.;.%.%.$.>.>.:.",
"o.o.o.-.>.>.9.u.y.y.o.o.o.,.3.3.3.3.3.3.L y / / / / / / / / / / / / / / / / h U *.*.*.E K G R o.o.o.o.X.o.+.$.$.;.>.>.:.",
"X.o.o.;.3.>.4.u.u.y.o.Q o.<.3.3.3.<.3.<.U h Z Z Z Z Z / Z / Z Z / Z Z Z Z Z v Y *.*.5.Q J J R o.o.o.X.o.o.o.$.$.$.>.>.>.",
"$.1.$.,.-.O.5.u.y.y.>.:.>.=.#.,.,.=.=.,.E h V Z V Z Z Z Z Z Z Z Z Z Z Z Z Z h H O.O.#.-.O.-.O.o.X.o.$.O.$.,.:.:.;.$.;.,.",
"*.%.%.$.o.o.,.i.y.y.3.>.;.,.Q Q o.X.o.X...h V Z Z Z Z Z V Z Z Z Z Z Z Z Z Z h H o.o.o.,.3.3.2.X.X.O.$.$.$.:.>.>.:.$.$.$.",
"*.%.%.#.o.X.1.y.i.y.3.:.>.;.o.o.o.o.o.X...h V V Z Z Z Z V Z Z Z Z Z Z Z Z Z h H o.o.o.,.3.>.3.o.o.o.+.$.$.:.>.>.:.$.$.$.",
"q.q.w.,.,.=.,.e.r.8.>.;.-.=.Q Q O.O.O.O.E h Z Z Z Z Z Z Z Z Z / Z Z Z Z Z Z z H o.o.o.;.3.>.>.O.;.;.5.5.5.:.>.>.:.@.O.$.",
"u.i.r.9.3.3.<.o.Q o.Q Q W #.#.#.O.>.>.>.U h Z Z Z Z Z Z Z Z Z Z V Z Z Z V Z h H X.o.o.:.>.>.>.3.3.4.y.u.u.4.>.>.-.X.o.o.",
"u.u.y.8.3.3.;.o.o.o.Q o.Q Q Q o.O.>.>.>.H f Z Z V Z Z Z Z Z Z Z Z Z Z Z Z Z v U o.o.Q ;.>.>.>.3.>.4.u.u.u.4.>.>.;.X.o.o.",
"u.u.u.9.3.4.,.o.o.o.o.Q o.#.W #.O.>.>.>.U y N Z Z V Z Z Z Z Z N Z Z Z Z Z Z h U o.o.o.;.>.>.3.3.3.3.u.u.y.4.>.>.;.o.o.o.",
"o.o.o.>.3.3.2.*.1.1.o.o.o.;.>.>.-.X.X.X.H h V V N Z Z V Z Z C Z Z C V V C Z y U o.o.X.8.u.u.9.$.O.$.4.3.3.>.>.>.;.$.$.$.",
"o.X.o.2.3.3.4.*.%.%.o.o.o.;.>.>.;.X.X...F f B C N m N N N N N N C C C B B B y U X.o.o.8.u.u.r.$.+.,.>.3.3.>.>.>.:.$.$.$.",
"o.o.o.;.3.3.2.*.*.%.o.o.o.;.>.>.;.X.X.Q F f m n m N N N N N N N C m C m C b r U o.X.o.8.u.u.e.$.$.$.3.3.3.>.>.>.:.%.$.$.",
"o.o.o. ...W ;.e.y.e.;.;.;.-.O.-.,.8.e.e.F f m c N N N N N N c N c c n C c B h E 9.e.e.5.,.5.2.:.,.3.3.3.3.2.,.;.O.R E E ",
"o.o.o.R J J o.u.u.y.>.>.>.-.o.o.2.u.y.u.H s n N m x x N N c N N C x N N n x f O.u.u.i.,.X.o.-.>.>.>.3.3.3.&.$.$. .J J J ",
"X.o.o.R J J O.u.u.y.>.>.>.O.o.X.2.u.y.u.J l d z z z z z z h h z z z z z z r H >.u.i.i.5.o.o.O.>.>.>.3.3.3.&.$.$.o.J J J ",
" .o.o...R R O.e.e.e.3.2.2.;.O.O.5.u.u.u.H w x n x C c c c z h N C c c c n n r ..u.u.u.,.o.X.=.3.>.>.4.9.9.,.o.o. .L J R ",
"o.o.o. .o.X.X.X.o.o.%.%.5.2.>.>.4.u.u.u.U e n n x x x x c g z c b c c N c n y ..u.u.u.,...X.O.3.3.4.u.u.u.$.R Y E X.X.X.",
"o.o.o.o.o.o.o.o.o.$.%.%.*.2.>.>.4.i.i.u.U r B b c c c c c g h c c n c c c x t ..u.u.u.,.X.X.O.3.3.4.y.u.u.$.R R Q X.X.X.",
"o.O.o.o.o.o.o.o.o.o.%.%.*.3.>.>.4.u.y.i.U w c B x c c c x z h N c c c c c c h ..y.y.y.$.X.X.O.3.3.4.y.u.u.O.E E E X.X.X.",
":.>.:.;.$.$.+.X.o.o.+.o.o.e.u.u.t.*.*.*.U f c c c c c c c h h c c x c c n c h *.$.o.O.E J K  .*.1.5.3.3.>.O.o.o.Q K K K ",
">.>.>.2.$.$.O.o.o.o.o.o. .e.u.u.t.*.*.*.U e c c c c x c c g z n x n c c n c h 5.o.o.o.L J J E *.*.1.>.>.>.O.o.o.E K G J ",
">.>.>.2.$.$.+.o.X.o.o.o.o.e.u.i.t.%.*.*.Y f x x c c c c c h h c c x c c n c f 5.o.o.o.L J J E *.*.*.>.>.>.-.o.o.Q K K K ",
">.>.>.4.e.e.7.,.$.$.o.o.o.,.2.2.$.$.O.$.F q n x z c z x c h g x z c c x z n h Y  .E E U J J R $.$.O.>.>.>.O.o.o.Q Q E E ",
">.>.>.9.u.u.e.*.*.%.o.o.o.X.o.X.o.o.o.X.S 1 $ % - : % $ * 6 3 # * : * % % : 1 F R E R U J J R o.X.o.:.>.>.O.o.o.o.o.X.o.",
">.>.>.y.u.i.t.*.*.%.o.o.o.o.o.o.o.o.o.X.S , . O % %   O * 7 , X O % + O O % 5 A E R E J J J R X.o.o.;.>.>.O.o.o.O.X.o.X.",
">.>.>.3.5.2.2.3.*.&. .o.X.o.o.o.o.-.O.O.S 1 @ @ O @ @ @   : 5 @ + O O $ @ @ , U E E  .W ..P ..$.$.$.3.4.4.$.X.o.O.$.O.$.",
":.>.>.W J J ..>.>.>.o.o.X.o.o.o.O.>.>.>.S 6 * % X o & & @ : 6 = % X + * % O 4 6.o.o.o.;.>.>.:.*.5.5.u.u.u.5.o.X.+.5.*.%.",
">.>.>.W J J P >.>.>.o.o.o.o.o.o.O.>.>.>.J l 8 1 1 , 6 6 5 8 9 6 1 , 5 6 6 4 @.u.o.o. .:.>.>.:.*.*.5.u.u.u.&.o.o.+.*.5.*.",
">.>.>.P J J P >.>.>.O.o.o.o.X.X.O.>.>.>.J J S L ..O... .o.O.o. . . .....o.q.u.u.o.o.o.;.>.>.2.*.*.*.u.u.i.2.o.o.$.*.*.*."
};
