/* XPM */
static char *xpm_[] = {
/* columns rows colors chars-per-pixel */
"60 60 190 2 ",
"   c #020202",
".  c #0A0506",
"X  c #060807",
"o  c #0A0906",
"O  c #050508",
"+  c #090709",
"@  c #060909",
"#  c #0C0B0B",
"$  c #120D0D",
"%  c #110F00",
"&  c #0E100F",
"*  c #0F1002",
"=  c #141407",
"-  c #13100E",
";  c #1A1A0D",
":  c #1A100F",
">  c #0E0E11",
",  c #130F11",
"<  c #190F11",
"1  c #0E1111",
"2  c #151212",
"3  c #1B1515",
"4  c #151817",
"5  c #1C1916",
"6  c #151618",
"7  c #1A1719",
"8  c #16191C",
"9  c #1C1A1A",
"0  c #211917",
"q  c #231C1B",
"w  c #201618",
"e  c #1F2112",
"r  c #232316",
"t  c #26211E",
"y  c #29211E",
"u  c #292A1E",
"i  c #1A1C21",
"p  c #281F20",
"a  c #241E20",
"s  c #262221",
"d  c #2B2523",
"f  c #2D2925",
"g  c #2E2A28",
"h  c #272820",
"j  c #312A27",
"k  c #332D2A",
"l  c #392E2D",
"z  c #302625",
"x  c #2F3126",
"c  c #36312D",
"v  c #39322E",
"b  c #37392D",
"n  c #382F32",
"m  c #373332",
"M  c #3C3432",
"N  c #3E3A35",
"B  c #3F3D39",
"V  c #7A0E26",
"C  c #413636",
"Z  c #413936",
"A  c #423638",
"S  c #443B39",
"D  c #493D3D",
"F  c #45413D",
"G  c #45413D",
"H  c #49423F",
"J  c #4B483F",
"K  c #484540",
"L  c #4A4641",
"P  c #4C4442",
"I  c #4E4A45",
"U  c #4D4943",
"Y  c #514443",
"T  c #504D46",
"R  c #524E4A",
"E  c #544F4A",
"W  c #544D49",
"Q  c #594E4C",
"!  c #53504A",
"~  c #54514A",
"^  c #56534C",
"/  c #57544D",
"(  c #53524D",
")  c #58554E",
"_  c #595751",
"`  c #5A5851",
"'  c #5D5A53",
"]  c #5D5A55",
"[  c #5D5B55",
"{  c #565550",
"}  c #615D56",
"|  c #615E59",
" . c #61605B",
".. c #6B6761",
"X. c #676B6C",
"o. c #696C6C",
"O. c #6A6E72",
"+. c #6E7374",
"@. c #6D7479",
"#. c #717375",
"$. c #797875",
"%. c #737679",
"&. c #79777A",
"*. c #757A7C",
"=. c #797D7D",
"-. c #737975",
";. c #873547",
":. c #883346",
">. c #975264",
",. c #995264",
"<. c #7D807F",
"1. c #7B7F82",
"2. c #767980",
"3. c #7C8183",
"4. c #7A888D",
"5. c #778389",
"6. c #7D8B92",
"7. c #858686",
"8. c #81868A",
"9. c #828A8B",
"0. c #898F8D",
"q. c #828E93",
"w. c #818F98",
"e. c #84939A",
"r. c #839096",
"t. c #919699",
"y. c #8D9DA3",
"u. c #96A5AC",
"i. c #9AA9B2",
"p. c #9DAFB9",
"a. c #A0AEB7",
"s. c #A4B1BE",
"d. c #FACFAF",
"f. c #EDCEB5",
"g. c #F7DFBF",
"h. c #FFDEBF",
"j. c #F1D5BD",
"k. c #E8C4AC",
"l. c #A4B3C1",
"z. c #AFBFCE",
"x. c #A8B4C2",
"c. c #B1BECD",
"v. c #AFBED1",
"b. c #AEC0CE",
"n. c #B1C0CE",
"m. c #B4C4D3",
"M. c #B9C8D7",
"N. c #BCCCDC",
"B. c #B8C7D7",
"V. c #BED0DE",
"C. c #C0D0DF",
"Z. c #C6D9DE",
"A. c #CADBDF",
"S. c #FADEC2",
"D. c #FFE7C8",
"F. c #FEE4C3",
"G. c #FFF0C9",
"H. c #C0CFE2",
"J. c #C4D5E5",
"K. c #C7D9E3",
"L. c #C9DBE1",
"P. c #C6D5E8",
"I. c #C6D9E9",
"U. c #C8DAEB",
"Y. c #CFE3E4",
"T. c #D1E3E7",
"R. c #D3E5EB",
"E. c #D9E6EB",
"W. c #D6E9EE",
"Q. c #DAEAED",
"!. c #CFE3F7",
"~. c #D1E2F4",
"^. c #D7EAF0",
"/. c #DBECF1",
"(. c #DCEFFF",
"). c #D3E4F8",
"_. c #DEF1F6",
"`. c #DEF2F9",
"'. c #E4EFEE",
"]. c #EEEFEE",
"[. c #E1EDF3",
"{. c #EFEEF1",
"}. c #E2F4F6",
"|. c #E9F6F6",
" X c #E2F5FC",
".X c #E5F9FE",
"XX c #EBFEFE",
"oX c #F2FFFF",
"OX c #FDFFFF",
"+X c #F4F8F7",
/* pixels */
"# # # # . . .             # # $ # . .       .   # # # # # . . O       .           # $ X .       . . O . O       # $ # # ",
"# # # # 2 2 2 5 5 5 5 5 5 # # # # - 2 5 5 5 5 5 - # # # - 2 2 3 5 5 5 5 5 5 5 5 9 # # , 2 5 5 5 3 2 2 3 8 5 5 9 # # # # ",
"# #   2 k M S ( ] _ ) '  .3     o d B | _ _ ] ..m       t v C K ` ` ' ] ' ` ) ` ..d   t M ` [ | ~ Z S Z ~ ' ` ..s   # # ",
"# # 2 t M S U ! / ^ ) T R t 2 9 d N L ) ^ / T E N 5 9 2 k M H I / R I I I ~ ) R E c 5 k M I I T K N K L ( { R ! v 5 # # ",
". 2 M N H ! } ^ ~ ^ ) U S M v L R [ ` ~ ~ ^ F N F E N k B H ` ` / I S S N ^ ] I N H I L F S S S G S R | / / I M F R 5   ",
"X $ y f v B U ! / ^ ] N d s y k N L I / ^ ^ N k m v k z N G L U ' F t k v G I S l M v v v M v f j v S U E ] L k v M 2 . ",
"# # 5 t z v B T / / | l $ 3 q d k N L _ / _ v d f j k j N G N G | S $ y k M F M d z f f f k f 2 t f M B R ] F d j k - . ",
"# # q s j M S T ) I L z 3 q q q t k M L F L d q 9 2 9 s z v S S U v 3 q q k v f q q s 3 2 2 2 , 3 q f v S I v q 2 2 # # ",
"# $ q d l C S ( ' T F j 0 q q w q f v S S S s 0 3 . 3 q d k S F H v 3 q q z v d 0 q q # # # > > 2 q d k C J v 0 ,   # # ",
"# # 2 9 q k N L R F N s 2 3 3 0 q j v H N N q 6 2 # 6 3 t f M N B z 5 5 3 q s q 3 3 3 2 $ $ , > 2 3 q d k M f 3 , # # # ",
"# # . # . q k C F M v 9 + # , q s j M L v k 2 # # > # # 3 q z k j d q 2 # # # # # # # # # , $ $ # # 3 q 3 3 < # # # # # ",
"# # # # # q s k N f 7 2 $ , > 2 3 s z C d 3 2 , 2 , 2 > 2 2 s s d q 2 2 , , # 3 s t t t q 2 $ , , $ 2 2 y f s d 2 . # # ",
"# # # # # 3 q f v 9 O $ 2 , , > 2 9 y v 5 . 2 : < < , > # #       3 # , 6 $ o q M v v v k $ # $       # d v k M 3   # # ",
"# # # # , 2 2 2 3 2 - $ 2 $ > > , 2 2 3 2 , 2 2 2 < - $ q f       2 2 , $ 3 q q q f k z z f q $       q f k g g d d 2 @ ",
"# # # # 2 $ # # # $ 2 2 2 $ , $ # > # # , 2 $ 2 2 2 , $ d j + # + , , $ - q q q 3 d k j j v d $ & , & q d z j j l M 2 . ",
"$ # X # - , $ # # $ , $ # 9 q # # , , , 3 q 2 , 2 # 3     # X.1.X.#     q q q 0 3 d k M N . . > Z.{.L.>   O j S C D 2 . ",
"# # # # - 2 2 2 3 3 3 2 # 5 q 3 2 $ , , 3 q 2 - 2 - 5       @.9.@.      q q q q q f v C A     O  XOX X2     v S M M 2 . ",
"# # $ - $ 3 q k v k v 9 # # 2 v j . # # # $ $ $ 2 t 3 # X 1 &.0.$.> @ + q 5 3 q f l C S M # 1 8 Q.OXE.1   . C Y t . # # ",
"# # $ , > 3 q s d f c t 9 2 $ t t q 5 5 q q 2 #     # o.@.$.f.g.f.&.+.X.#         O O O 2 Z.[.E.S.D.f.$     d k q $ # # ",
"# # 2 $ # 3 y 3 2 q z j l 3 $ . - M v l l v 3 #     # &.5.7.h.G.h.7.3.%.                # XXOXOXF.F.d.$     # $ , 6 # # ",
"# # # # $ 2 2 t f j M v M 5 $ 3 0 y d k z k 3 #     X +.*.1.f.g.f.=.2.+.4 2 1 # , > # @ 6 T.|._.j.S.k.#     - 2 $ # # # ",
"# # @ # 2 $ # f v M S S D 5 # q q 2 t k z k 3 ,     X +.<.*.<.3.<.*.+.3.T./.W.^.Q.Y.*.o.+.3.3.3.<.7.-.#     , < # . # # ",
"# # # # # # , 2 $ s H f 3 2 $ 9 q f k C M C 3 #     # +.3.*.@.#.@.+.X.=.XXoXoXoXOXXX9.*.1.+.+.#.+.*.X.@     9 , $ # # # ",
"# # # # # # $ # O a Q y + $ 2 2 q z l S C S 3 #     @ #.3.*.*.*.*.3.*.9. XXX.X.XXX_.3.#.*.*.*.*.*.3.#.X     q # # @ # # ",
"# $ $ # # # 2 $ # 9 n 9 $ , 2 q d l M C N S 3 #     @ +.3.*.*.+.3.^.}._..X.X.X.XXX`.3.+.*.*.*.*.*.3.+.@     t q 2 # # # ",
"# # # # . # $ # $ # . $ 2 # 2 k M S C C S P q $       o.*.+.+.o.=.XXOXoXXXXXXX.XXX_.=.o.+.*.&.*.*.<.+.      k M q $ # # ",
"# # # # # 5 s t q q s 3 $ $ $ 3 t S C D j q 3 $ > - 4 *.9.3.3.=.9.W.}._._._._..XXX_.9.*.3.*.*.*.*.3.+.& . # d k 9 $ # # ",
"# # # # $ t M k v v M 9       . 2 S S P q     # L.'.Q._._._.`.}.^.9.=.3.3.*.9.`.XX.X_.}.^.3.+.*.*.*.*.+.*.o.#     $ # # ",
"# # . $ 9 d k z j f k f       $ < 3 3 5 2     2  XOXoXXXXXXXoXOXXX*.X.#.&.+.3..XoXXXXXoX X=.X.#.1.1.1.3.8.*.X     $ # # ",
"# # X 2 q d k z f f f f # @ + , , # $ # $     & ^.oX.X.X.X.X_.}.W.3.#.*.+.o.=.W. X_..XXX_.9.=.3.#.#.#.*.3.+.X     # # # ",
"# # q q q q 0 f f .   # X.<.o.#   . f k 3     & W.XX.X.XXX}.9.*.3.*.=.+.u ; h *.3.9. XXX.X_.|.T.x = u #.8.+.+     @ # # ",
"@ $ q q q q q j k       =.t.1.#     f v t     & W.oX.X.XXX_.*.X.+.*.1.#.5 * 5 o.+.*.`.XX.XXXOX_.u o 5 o.3.o..     @ # # ",
"@ # q q 3 s g v M 2 2 3 X.=.X.#     q f u     & W.oX.X.XXX_.3.+.*.*.3.#.r = r %.%.3.}.XX.X.XoX^.h o r *.0.*.@     # # # ",
"# # 3 q y z .   2 L.{.L.3 @ . 2 5 q . O       > ^.oX.X.XXX_.3.+.*.*.=.#.r = r #.*.3.`.XX.X.XoX^.f . u T.+XT.#     # # # ",
"X # # 9 M N     1  XOX.X@     # 2 j             ^.oX.X.XXX`.*.X.#.*.3.#.e % 5 o.+.=..XXXXX.XoX^.r   r XXOXXX1       # # ",
"# # # 2 3 k .   > W.OXW.1     # 3 l 2 2 > 1 & 8 W.XX X.XXX X9.*.3.*.1.#.u ; u =.3.9.E.}.[..XoX/.b 2 b L.].A.&   . q # # ",
"# # + #   g .   1 W.OX^.&         2 A.'.^.W./.W.J.N.J. X.X.X}.}.Q.3.#.*.+.o.*.W.}.E.,.;.>.[.XX.X^.[.A.i 1 2 j k k v 2 . ",
"# # # # $ 2     2  XOX X.         .  XOXoXoXoXXXN.B.N..XXXXXXXoX.X=.o.#.*.+.3..XOX X:.V :.[.XXXXoXOXXX.     p k v C 2 . ",
"# # # # 2 $     > L.].L.8 > # # # 8 ^.oX.X.XXX XC.B.N.`..X X XXX X9.*.3.3.*.9. XXX/.>.;.>./.XX.X^.'.L.-     q f N Y 2 . ",
"# # # # # $ - - $ # & 8 x.M.z.c.z.m. X.X.X.X.X XV.M.N.V.N.J. XXX.X_._._.`._._..X.X.X[./.[..XoX^.9 & # 2 q q f v j z - + ",
"# # # # . , 2 $ +       J.(.~.I.J.U..XXX.X.XXX XN.B.M.M.B.N. XXXXXXXXXXXXXXXXXXX.XXXXXXXXXoXOX X      . g M C W a . # # ",
"# # # # # $ $ q q .   # s.M.m.N.N.N. X.X X.X.X.XJ.N.N.N.M.C. X.X X X X X X X X X.X.X X X XQ.[.Z.#     # 9 q q d 3 # # # ",
"# # # # 2 $ $ f M j f d 1 > 8 c.J.M.N.N.C. X.X.X X.X XN.M.N.N.N.C.C.V.N.N.N.N.N.V.N.N.U.m.i - # $ # $ $ # $ $ $ # @ # # ",
"# # # # $ 2 q q q s k f       M.!.J.M.B.N..XXX.XXXXXXXN.M.N.M.N.M.M.M.M.M.M.M.M.N.N.N.J.z.      3 f d d d f q $ # @ # # ",
"# # # $ $ 3 t q 5 y k g . O # s.M.c.N.M.J.`..X X X.X`.V.M.M.N.N.N.N.N.M.M.N.N.N.N.N.N.J.z.>     5 M k k k v s $ $ # # # ",
"# # # 2 q q q q 9 s v j z f d > 1 8 c.J.M.N.C.H.N.N.N.N.M.N.N.N.N.N.N.N.N.N.N.N.N.N.N.I.z.#     q v k k k f z k 2   # # ",
"# # 2 3 q q q q q s z f k z z       c.I.N.N.M.M.M.M.M.N.N.N.N.N.N.N.N.N.N.N.N.N.M.N.J.~.M.>     q f f f f k k v q # # # ",
"@ # q q q q q q q 0 3 s z f f     # z.J.N.N.N.N.N.N.N.M.N.N.N.M.N.N.N.N.N.N.N.N.N.M.m.M.s.#   . q 5 q q f k f f z k 2 . ",
"# # q q q q q q q q t j M l k     # z.J.M.N.N.N.N.N.N.N.N.N.N.N.N.N.N.M.N.N.N.N.J.b.8 > # $ $ 3 9 q q 0 z j k v v M 2 . ",
". $ q q q q q q 3 t k M S S N .   > z.J.N.J.J.I.J.N.J.J.P.I.J.J.J.N.M.N.P.P.J.J.U.m.      2 , # 2 q 0 5 d f v S S S 2 . ",
"# # 2 3 q q q d d f M N S C M     # n.I.N.n.n.v.M.M.B.n.c.b.z.z.n.N.N.M.c.n.n.M.J.z.#     2 , > 2 q y d v M M C C S 2 . ",
"X # # 2 q q q f k v S C C C M .   # z.~.m.8 # 3 r.i.w.6 # # # # 8 c.~.n.8 # 6 r.i.w.#     2 , # 2 q f l C S C C C S 2 . ",
"# # # 2 q q q f g l C C N S M     # z.).c.      4.u.4.            z.~.z.      6.u.4.#     2 $ $ - # f C C C C C C S 2 . ",
"# # # 2 s q w d f v S C C D A     # b.~.c.#   # 6.u.6.#         # z.!.b.#   # 6.u.6.#     $ $ $ -   j Y C N C C S P 3 . ",
"# # X # 7 q y k v M C C S j s     > z.~.z.#   @ 9.u.4.#         # z.~.c.#   # 6.u.6.X     # $ $ $ # q j M C C S l z , . ",
"# # X # + s M C S C C S P 2 .     > M.(.M.#   # e.p.e.#         > N.`.M.#   # e.a.e.#     . # 2 , 2 $ + M P D P s . # # ",
"# # # # # 3 9 M S C S z q - #     # l.J.l.#   @ 5.y.5.#         > l.J.x.# O # 5.y.5.@     # # # # # $ - q s p d 3 # # # ",
"# # # # # # + m H S P q   # # @ # X # > > # # + # # @ # X # @ 2 z > > > M C M # # #   . # # # # # + # 2 $ # $ $ # # $ # ",
"# # # # # # # - 3 2 3 # # # # # # #       # # #       # # # # # 2       2 3 2       # # # $ # # # # # # # # # # # # # # ",
"# # # # # # # . . . . @ # # # # # #       # # #       @ $ # # # O       . . .       # # # # # # # # # # # # # # # # # # "
};
