/* XPM */
static char *xpm_[] = {
/* columns rows colors chars-per-pixel */
"60 60 195 2 ",
"   c #020202",
".  c #0A0605",
"X  c #060806",
"o  c #0A0906",
"O  c #060609",
"+  c #0A070A",
"@  c #06090A",
"#  c #0C0B0B",
"$  c #120D0D",
"%  c #0D100F",
"&  c #0D1000",
"*  c #141407",
"=  c #13110E",
"-  c #1B130F",
";  c #181C0D",
":  c #0D0E11",
">  c #130F11",
",  c #180F10",
"<  c #0E1111",
"1  c #151212",
"2  c #1B1515",
"3  c #1C1916",
"4  c #151619",
"5  c #1A1719",
"6  c #16191C",
"7  c #1C1A1A",
"8  c #121816",
"9  c #211917",
"0  c #201719",
"q  c #231C1B",
"w  c #241A19",
"e  c #1E2012",
"r  c #222316",
"t  c #26211E",
"y  c #28211E",
"u  c #292A1E",
"i  c #272B1D",
"p  c #1B1D21",
"a  c #251E21",
"s  c #281F20",
"d  c #262121",
"f  c #2B2523",
"g  c #2D2925",
"h  c #2F2A29",
"j  c #2A2725",
"k  c #312A26",
"l  c #332D2A",
"z  c #392F2D",
"x  c #302625",
"c  c #36322D",
"v  c #39312E",
"b  c #343628",
"n  c #382F30",
"m  c #373332",
"M  c #3C3432",
"N  c #3E3A35",
"B  c #3F3D39",
"V  c #750E23",
"C  c #413636",
"Z  c #413936",
"A  c #443C39",
"S  c #493E3D",
"D  c #423638",
"F  c #45413D",
"G  c #45413D",
"H  c #48423F",
"J  c #4A423E",
"K  c #484540",
"L  c #4A4641",
"P  c #4C4441",
"I  c #4E4A45",
"U  c #4D4943",
"Y  c #504D46",
"T  c #524E4A",
"R  c #544F4A",
"E  c #554C4A",
"W  c #544847",
"Q  c #53504A",
"!  c #54514A",
"~  c #56534C",
"^  c #55524D",
"/  c #57544D",
"(  c #53524D",
")  c #58554E",
"_  c #595751",
"`  c #5A5851",
"'  c #5D5A53",
"]  c #5D5A55",
"[  c #5D5B55",
"{  c #565550",
"}  c #615D56",
"|  c #615E59",
" . c #61605B",
".. c #6B6761",
"X. c #676B6C",
"o. c #6A6B6C",
"O. c #6E7374",
"+. c #697478",
"@. c #717375",
"#. c #797776",
"$. c #767976",
"%. c #727679",
"&. c #757A7C",
"*. c #797C7D",
"=. c #8A3445",
"-. c #8A3248",
";. c #965364",
":. c #985163",
">. c #77807F",
",. c #7C807E",
"<. c #7A7E81",
"1. c #7B8183",
"2. c #75838A",
"3. c #7A888D",
"4. c #768487",
"5. c #7D8B92",
"6. c #838987",
"7. c #83878A",
"8. c #82898B",
"9. c #8B8F8E",
"0. c #818785",
"q. c #828E93",
"w. c #818F98",
"e. c #84939A",
"r. c #839096",
"t. c #919797",
"y. c #8D9DA3",
"u. c #96A5AC",
"i. c #9AA9B2",
"p. c #9DAFB9",
"a. c #A0AEB7",
"s. c #A5B3BE",
"d. c #E8C5AF",
"f. c #FACFAF",
"g. c #ECCEB6",
"h. c #EDCDB8",
"j. c #F6DFBF",
"k. c #FFDEBE",
"l. c #F4D5B9",
"z. c #A4B3C1",
"x. c #AFBECD",
"c. c #B1BECD",
"v. c #AFBED1",
"b. c #AEC0CE",
"n. c #B2C1CE",
"m. c #B3C3D2",
"M. c #B6C6D9",
"N. c #BCCCDC",
"B. c #B8C8D8",
"V. c #BED0DE",
"C. c #BFCEE1",
"Z. c #C1CEDE",
"A. c #C1D2DF",
"S. c #CADADD",
"D. c #C9D8DD",
"F. c #FBDDC3",
"G. c #FFE3C3",
"H. c #FFEFC9",
"J. c #FFE9C2",
"K. c #C4D4E5",
"L. c #C7DAE1",
"P. c #CADBE1",
"I. c #C6D6E8",
"U. c #C6D8E9",
"Y. c #CBDBEC",
"T. c #CFE2E6",
"R. c #CFE1EB",
"E. c #D4E6EB",
"W. c #DAE6EB",
"Q. c #D6E9EE",
"!. c #DAEAEE",
"~. c #D2E4E6",
"^. c #DBF1EF",
"/. c #CEE3F6",
"(. c #D1E2F4",
"). c #D6EAF0",
"_. c #DCECF3",
"`. c #D2E5F8",
"'. c #DAEAFB",
"]. c #DEF1F6",
"[. c #DEF2F9",
"{. c #E3EFEF",
"}. c #EBEFEE",
"|. c #F0EEEF",
" X c #E2EEF2",
".X c #EEEFF1",
"XX c #E3F4F5",
"oX c #E3F5FD",
"OX c #E8F7FB",
"+X c #E5F9FE",
"@X c #EBFEFE",
"#X c #E9F4F3",
"$X c #F2FEFF",
"%X c #FDFEFE",
"&X c #F5F6F8",
/* pixels */
"# # # # . . .             # # $ # . .       .   # # # # # . . O       .           # $ X .       . .   .         # $ # # ",
"# # # # 1 1 1 3 3 3 3 3 3 # # # # = 1 3 3 3 3 3 = # # # = 1 1 2 3 3 3 3 3 3 3 3 3 # # > 1 3 3 3 2 1 1 2 6 3 3 7 # # # # ",
"# #   1 l M A ( ] _ ) '  .2     o f B | _ _ ] ..m       t v C K ` ` ' ] ' ` ) ` ..f   t M ` [ | ! Z A Z ~ ' ` ..d   # # ",
"# # 1 t M A U Q / ~ ) Y T t 1 3 f N L ) ~ / Y R N 3 3 2 l M H I / T I I I ! ) T R c 3 l M I I Y K N K L ( { Q Q v 3 # # ",
". 1 M N H Q } ~ ! ~ ) U A M v L T [ ` ! ! ~ F N F R N l B H ` ` / I A A C ~ ] I N H I L F A A A G A T | / / I M F T 3   ",
"X $ y g v B U Q / ~ ] N f d y l M L I / ~ ~ N l m v l k N G L U ' F t l v F I A z M v v v M v g k v A U R ] L l v M 1 . ",
"# # 3 t k c B Y / / | v $ 2 0 f l N L _ / _ v f g k l k N G N G | A $ y l M F M f k g g g l g 2 t g M B T ] F f h l = . ",
"# # 0 d k M A Y ) I L k 2 q 0 q t l M L F L f q 3 1 3 d k v A A U v 2 q q l v g 0 q d 2 1 1 1 > 2 q g v A I v 0 2 1 # # ",
"# $ q f z C A ( ' Y F k 9 q q 0 w g v A A A d w 2 O 2 q g l A F F l 2 q 0 k v f 9 q q : # # : # 1 w f l A L v 0 >   # # ",
"# # 1 3 q l N L T F N d 1 2 2 9 q k v F N M q 2 1 : 1 2 d g . . . g 2 3 2 q d q 2 5 2 1 $ $ 1 #     . f l M j 2 > # # # ",
"# # . # . q l C F M v 3 + # > 0 d k M L v l 1 # # $ : # 2 w       f q 1 # # # + # # o # # > > $       q 2 - $ # # # # # ",
"# # # # # 0 d l N g 5 1 $ > > 1 2 t x C f 2 1 > > $ : # = 1 @ # # 3 = 1 > 1 # 2 d t t t q = # $ % 1 # = t f d d 1 . # # ",
"# # # # # 2 q g v 7 O $ 1 > > : 1 3 y M 5 . 1 - 1 1 $     O X.*.X.#     , $ # q M z l v g     : D..XL.:   . k M 2   # # ",
"# # # # > 1 1 1 2 1 = $ 1 $ : : > 1 1 2 1 > 1 1 1 1 >       +.8.O.      $ 2 3 0 q g l k g       oX%X+X1     g h j f 1 @ ",
"# # # # 1 $ # # # $ 1 1 1 $ > $ # : # # $ 1 $ 1 > > > O . < #.9.%.% # + $ 9 q 3 2 t g k f 1 % 7 W.%XW.<     g k z M 1 . ",
"$ # X # = > $ # # $ > $ # 3 q # # > 1 > 2 q 1 >     @ X.O.$.h.j.g.#.+.X.#             O 1 S. XW.F.G.g.#     l C C S 2 . ",
"# # # # = 1 1 2 2 2 2 1 # 3 0 2 1 $ > > 2 q 1 $     # %.1.7.k.H.k.6.1.%.                # +X%X%XG.J.f.$     z A M M 1 . ",
"# # $ = $ 2 q l v l v 3 # # 1 M k . $ # $ $ $ $     . O.&.*.g.j.g.,.&.O.8 % < < < : # X 4 T.OX Xl.j.d.$   . A U t . # # ",
"# # $ > : 2 w d f g c t 3 1 $ t t 0 3 3 q q 1 #     . @.1.%.*.1.,.&.@.1.R.^.).Q.!.T.&.X.@.1.1.1.,.0.#.+     j l 0 $ # # ",
"# # 1 $ # 2 y 2 1 q k k z 2 $ . = M v v z v 2 #     X O.1.%.O.O.O.O.X.*.@X%X$X$X$X@X6.%.>.%.O.O.O.&.X..     # # > 2 # # ",
"# # # # $ 1 1 t g k M v M 3 $ 1 9 t f l k l 2 $     X @.1.&.&.&.&.1.*.8.[.@X+X+X@X[.1.@.&.%.&.&.&.1.O.@     $ 1 $ # # # ",
"# # @ # 1 $ # g v M A A S 3 # q q 2 t l k k 2 $     @ O.1.%.$.O.1.Q.XX[.OX+X+X+X@X].1.@.%.%.&.%.&.1.@..     $ 2 # . # # ",
"# # # # # # > 1 $ d H g 2 1 $ 3 q g l C M C 2 #       X.&.%.O.X.&.@X%X$X@X@X@X+X@X].%.o.O.%.&.%.&.1.O.      q > $ @ # # ",
"# # # # # # $ # O a E y . $ 1 2 q k v A A C 2 # % : 4 &.8.1.1.&.8.Q.XX].].].].+X@X[.7.&.1.&.&.&.%.1.O.# # X q + # X # $ ",
"# $ $ # # # 1 $ # 3 n 0 $ $ = q g z M C M +   : L.{.Q.].].].].XX!.8.*.1.1.&.8.[.@X+X[.XXQ.1.O.%.%.&.&.O.%.o.#     # # # ",
"# # # # . # $ # # # . $ 1 : > c N A C M C     < oX%X$X@X@X@X$X%X@X*.X.O.%.O.<.+X$X@X@X@X+X&.X.O.<.<.<.1.7.%..     $ # # ",
"# # # # # 3 d t t d f 2 $ > > 2 t A C A g     % Q.$X+X+X+X+XXXXX).1.O.&.O.o.&.).XX].+X@X[.8.*.1.@.@.O.&.1.O.X     $ # # ",
"# # # # $ t M l z l M q # = = O 1 A A P 0     % !.$X+X+X@X].8.*.1.&.*.@.u ; u &.1.8.].@X+X].OX~.b * i @.7.O.O     $ # # ",
"# # . $ 3 f l k k l l g g 2 $ 1 1 2 2 3 1     < Q.$X+X+X@X].&.o.@.&.1.@.3 & 3 o.O.&.[.@X+X@X$X].u . e o.<.X.@     $ # # ",
"# # X 1 q f l k k g g k v 3 $ 1 > # $ # $     : Q.$X+X+X@X[.1.@.%.%.1.@.r * r O.&.1.].@X+X+X$X!.u o r &.9.&.#     # # # ",
"# $ 0 0 0 0 9 g g . . . g 2 $ # 2 l g l 2     % ).$X+X+X@X[.1.O.&.%.1.@.r * r @.&.1.[.@X+X+X@X_.g . j ~.&XT.%     @ # # ",
"@ $ q 0 q q q k l       v 2 $ $ 2 k k z t     < oX%X$X+X@X[.&.X.@.&.1.O.e o e o.O.&.+X@X@X+X$X).r   r @X%X@X<     # # # ",
"# $ q q 2 y h M M # # # A 2 # q w 2 q g f     # L. X).+X@X[.8.&.1.%.<.O.j ; u &.1.8.W.XX X+X$X_.b 1 c P.}.L.:     $ # # ",
"X # 2 q t g .   # X.1.o.#     2 3 q . O         % % 7 !.$X+X].XX).1.@.%.@.o.&.).XXW.:.=.;._.@X+X_.XXP.7 > % $ # # # # # ",
"@ # + q M C       <.t.*.@     # 1 k                   ).$X+X@X$X+X*.X.O.%.O.1.+X$XoX=.V =._.@X+X%X%X@X      # $ .   # # ",
"# # # = 2 g < < 4 o.*.X.O     # 2 v < = < : < % # # 6 E.$XoX+X@X[.8.&.1.1.&.8.].$X_.;.-.;._.@X+X).{.L.%   O t d q q # # ",
"$ # X     $ S.|.L.8 @ @           1 L.{.Q.)._.E.n.x.n.N.N.K.oX+X+X].].[.].].].+X+X+X_._. X+X$X).7 1 $ # j n v l l M 1 . ",
"# # X     1 @X%X@X                . oX%X$X$X$X@XU.K.K.B.M.N.+X@X+X@X@X@X@X@X@X@X+X@X@X@X@X$X%XoX      7 q q f l v Z 1 . ",
"# # X     : S..XP.p 1 : : # # # # 6 ).$X+X+X+XoXK.N.N.N.B.V.oX+XoXoXoXoX+XoXoX+XoXoX+X+X[.Q. XS.<     y 0 - q g N W 1 . ",
"# # # # # # : > p S. XE.m.x.x.c.x.m.oX+X+X+X+X+XoX+XoXZ.B.N.Z.V.N.V.V.Z.N.V.V.N.N.N.N.Y.n.p % % 3 > 1 2 q t g M k k = . ",
"# # # # X #       @X%X%X`.Y.(.U.K.Y.+X@X+X+X+X+X@X@X+XN.M.B.B.B.B.B.B.B.B.B.B.B.B.B.B.K.x.      1 g 1 O h v N W a . # # ",
"# # # # # >     < D. XE.m.x.c.N.N.N.oX+XoX+X+X+X+X+XoXA.N.N.N.N.N.N.N.N.N.N.N.N.N.N.N.I.n.#     1 2 1 : 3 0 q f 2 # # # ",
"# # # # 1 = # j l 1 1 : # # 6 n.K.N.A.N.K.oX+X+X+X+X+XoX+XoXN.B.N.N.N.N.N.N.N.N.N.N.N.I.x.:     $ $ $ $ $ $ # $ # @ # # ",
"# # # # $ 2 0 q q             B.`.K.B.M.N.+X@X@X@X+X+X@X@X@XN.B.N.N.N.N.N.N.N.N.N.N.N.I.x.#     2 g f j f g q $ # @ # # ",
"# # # # = 2 q 0 2 .       O # s.B.c.N.B.N.[.+XoXoXoXoXoX+XoXK.B.N.N.N.N.N.N.N.N.N.N.N.K.n.#     3 M l z l v d , $ # # # ",
"# # # 2 q q 0 0 0 t l g g g j : < 6 n.K.B.V.N.C.V.V.N.N.V.N.N.N.N.N.N.N.N.N.N.N.N.N.N.U.x.:     q z l l k l g z 1   # # ",
"# # 1 2 q q q 0 3 d k g k k k       c.U.N.N.B.B.B.B.B.N.B.B.N.N.N.N.N.N.N.N.N.N.B.N.K.(.B.:     q g g g k k l v q # # # ",
"# $ q q 0 q q 0 q 0 2 f k g g     : x.I.N.N.N.N.N.N.N.N.N.N.N.N.N.N.N.N.N.N.N.N.N.B.x.B.z.#   . 3 3 0 9 g l k g k l 1 . ",
"# # q q 0 q q 0 0 q t k M z l     # x.K.B.N.N.N.N.N.N.N.N.N.N.N.N.N.N.B.N.N.N.N.K.b.6 : # $ $ 2 3 q q 9 k k l v v M 1 . ",
". $ q q 0 0 0 0 2 t l M A A N .   : x.K.N.K.K.U.K.N.K.K.I.U.K.K.K.N.B.N.I.I.K.K.Y.m.      1 > # 1 q 9 3 f g v A A A 1 . ",
"# # 1 2 q 0 0 f f g M N A C M     # n.U.N.n.n.v.B.B.B.n.c.b.x.x.n.N.N.B.c.n.n.B.K.x.#     1 > : 1 q y f v M M C C A 1 . ",
"X # # 1 q 0 0 g l v A C C C M .   # x.(.m.6 # 2 r.i.w.8 # # # # 6 c.(.n.6 # 2 r.i.w.#     1 > # 1 q g z C A C C C A 1 . ",
"# # # 1 q w 0 g h z C C N A M     # x.`.c.      3.u.3.            x.(.x.      5.u.3.#     1 $ $ = # g C C C C C C A 1 . ",
"# # # 1 f w 9 f g v A C C S D     # b.(.c.#   # 5.u.5.#         # x./.b.#   # 5.u.5.#     $ $ $ =   k W C N C C A P 2 . ",
"# # X # 5 q y l v M C C C k d     : x.(.x.#   @ 8.u.3.#         # x.(.c.#   # 5.u.5.X     # $ $ $ # q k M C C A z x > . ",
"# # X # + j N C A C C A P 2 .     : B.'.B.#   # e.p.e.#         : N.[.B.#   # e.a.e.#     . # 1 > 1 $ + M P S P d . # # ",
"# # # # # 2 3 M A C A k q = #     # z.K.z.#   @ 2.y.4.#         : z.K.z.# O # 2.y.4.@     # # # # # $ = q d s f 2 # # # ",
"# # # # # # + m H A P q   # # # # X # : : # # . # # @ # . # @ 1 k : : : M C M # # #   . # # # # # + # 1 $ # $ $ # # $ # ",
"# # # # # # # = 1 1 2 # # # # # # #       # # #       # # # # # 1       1 2 1       # # # $ # # # # # # # # # # # # # # ",
"# # # # # # # . . . . @ # # # # # #       # # #       # $ # # # O       . . .       # # # # # # # # # # # # # # # # # # "
};
