/* XPM */
static char *xpm_[] = {
/* columns rows colors chars-per-pixel */
"60 60 191 2 ",
"   c #020202",
".  c #0A0505",
"X  c #060807",
"o  c #0A0906",
"O  c #050509",
"+  c #0A0709",
"@  c #070909",
"#  c #0C0B0B",
"$  c #120D0D",
"%  c #110F00",
"&  c #0E100F",
"*  c #0F1002",
"=  c #141407",
"-  c #13100E",
";  c #1A1A0D",
":  c #1A100F",
">  c #0E0E11",
",  c #130F11",
"<  c #190F11",
"1  c #0E1111",
"2  c #151212",
"3  c #1B1515",
"4  c #151817",
"5  c #1C1A16",
"6  c #141619",
"7  c #1A1719",
"8  c #16191B",
"9  c #1C1A1A",
"0  c #211917",
"q  c #231C1B",
"w  c #201618",
"e  c #1F2112",
"r  c #232316",
"t  c #26211E",
"y  c #29211E",
"u  c #292A1E",
"i  c #1A1C21",
"p  c #281F20",
"a  c #241E20",
"s  c #262221",
"d  c #2B2523",
"f  c #272820",
"g  c #2D2925",
"h  c #2F2A28",
"j  c #312A27",
"k  c #332D2A",
"l  c #392E2D",
"z  c #302625",
"x  c #2F3126",
"c  c #36312D",
"v  c #39322E",
"b  c #37392D",
"n  c #373332",
"m  c #3C3432",
"M  c #3E3A35",
"N  c #3F3D39",
"B  c #7A0E26",
"V  c #413636",
"C  c #413936",
"Z  c #423638",
"A  c #443B39",
"S  c #493E3D",
"D  c #45413D",
"F  c #45413D",
"G  c #4A423F",
"H  c #4B483F",
"J  c #484540",
"K  c #4A4641",
"L  c #4C4442",
"P  c #4E4A45",
"I  c #4D4943",
"U  c #524544",
"Y  c #504D46",
"T  c #524E4A",
"R  c #544F4A",
"E  c #544D49",
"W  c #594E4C",
"Q  c #53504A",
"!  c #54514A",
"~  c #56534C",
"^  c #55524D",
"/  c #57544D",
"(  c #53524D",
")  c #58554E",
"_  c #595751",
"`  c #5A5851",
"'  c #5D5A53",
"]  c #5D5A55",
"[  c #5D5B55",
"{  c #565550",
"}  c #615D56",
"|  c #615E59",
" . c #61605B",
".. c #6B6761",
"X. c #676B6C",
"o. c #696C6C",
"O. c #6A6E72",
"+. c #6E7374",
"@. c #6D7479",
"#. c #717375",
"$. c #797875",
"%. c #737679",
"&. c #79777A",
"*. c #757A7C",
"=. c #797C7D",
"-. c #737975",
";. c #873547",
":. c #883346",
">. c #975264",
",. c #995264",
"<. c #7D807F",
"1. c #7B7F82",
"2. c #767980",
"3. c #7C8183",
"4. c #7A888D",
"5. c #778389",
"6. c #7D8B92",
"7. c #858686",
"8. c #81868A",
"9. c #828A8B",
"0. c #898F8D",
"q. c #828E93",
"w. c #818F98",
"e. c #84939A",
"r. c #839096",
"t. c #919699",
"y. c #8D9DA3",
"u. c #96A5AC",
"i. c #9AA9B2",
"p. c #9DAFB9",
"a. c #A0AEB7",
"s. c #A4B2BF",
"d. c #FACFAF",
"f. c #EDCEB5",
"g. c #F7DFBF",
"h. c #FFDEBF",
"j. c #F1D5BD",
"k. c #E8C4AC",
"l. c #A5B3C1",
"z. c #AFBECD",
"x. c #B1BECD",
"c. c #AFBED1",
"v. c #AEC0CE",
"b. c #B1C1CE",
"n. c #B4C4D3",
"m. c #B8C9D7",
"M. c #BCCCDC",
"N. c #B8C7D7",
"B. c #BED0DE",
"V. c #C0D0DF",
"C. c #C7D9DD",
"Z. c #CCDBDF",
"A. c #FADEC2",
"S. c #FFE7C8",
"D. c #FEE4C3",
"F. c #FFF0C9",
"G. c #C0CFE2",
"H. c #C4D5E5",
"J. c #C7DAE2",
"K. c #C9DAE1",
"L. c #C6D5E8",
"P. c #C6D8E9",
"I. c #C8DAEB",
"U. c #CDDFF3",
"Y. c #CFE3E4",
"T. c #D1E3E7",
"R. c #D3E5EA",
"E. c #D9E6EB",
"W. c #D6E9EE",
"Q. c #DAEAED",
"!. c #CFE3F7",
"~. c #D1E2F4",
"^. c #D7EAF0",
"/. c #DBECF1",
"(. c #D4E5F8",
"). c #DCEFFF",
"_. c #DEF1F6",
"`. c #DEF2F9",
"'. c #E4EFEF",
"]. c #EDEFEE",
"[. c #E4F0EE",
"{. c #E2EDF2",
"}. c #EEEFF1",
"|. c #E2F4F6",
" X c #E9F6F6",
".X c #E2F5FC",
"XX c #E5F9FE",
"oX c #EBFEFE",
"OX c #F2FFFF",
"+X c #FCFFFF",
"@X c #F4F8F7",
/* pixels */
"# # # # . . .             # # $ # . .       .   # # # # # . . O       .           # $ o .       . .   .         # $ # # ",
"# # # # 2 2 2 5 5 5 5 5 5 # # # # - 2 5 5 5 5 5 - # # # - 2 2 3 5 5 5 5 5 5 5 5 5 # # , 2 5 5 5 3 2 2 3 8 5 5 9 # # # # ",
"# #   2 k m A ( ] _ ) '  .3     o d N | _ _ ] ..n       t v V J ` ` ' ] ' ` ) ` ..d   t m ` [ | ! C A C ~ ' ` ..s   # # ",
"# # 2 t m A I Q / ~ ) Y T t 2 5 d M K ) ~ / Y R M 5 5 2 k m G P / T P P P ! ) T R c 5 k m P P Y J M J K ( { Q Q v 5 # # ",
". 2 m M G Q } ~ ! ~ ) I A m v K T [ ` ! ! ~ D M D R M k N D ` ` / P A A M ~ ] P M G P K D A A A F A T | / / P m D T 5   ",
"X $ y g v N I Q / ~ ] M d s y k M K P / ~ ~ M k n v k j M F K I ' D t k v F P A k m v v v m v g j v A I R ] K k v m 2 . ",
"# # 5 t j v N Y / / | l $ 3 q d k M K _ / _ v d g j k j M D M F | A $ y k m D m d j g g g k g 2 t g m N T ] D d j k - . ",
"# # q s j m A Y ) P K j 3 q q q t k m K D K d q 5 2 5 s j v A A I v 3 q q k v g q q s 3 2 2 2 , 3 q g v A P v q 2 2 # # ",
"# $ q d l V A ( ' Y D j 0 q q w q g v A A A s 0 3 . 3 q d l A D G v 3 q q j v d 0 q q # # # > > 2 q d k V H v 0 ,   # # ",
"# # 2 5 q k M K T D M s 2 3 3 0 q j v D M M q 3 2 # 3 3 t g m M N j 5 5 3 q s q 3 3 3 2 $ $ , > 2 3 q d k m g 3 , # # # ",
"# # . @ . q k V D m v 5 + # > q s j m K v k 2 # # > # # 3 q j k j d q 2 # # # # # # # # # , $ $ # # 3 q 3 3 < # # # # # ",
"# # # # # q s k M g 7 2 $ , > 2 3 s z V d 3 2 , 2 , 2 > 2 2 s s d q 2 2 , , # 3 s t t t q 2 $ , , $ 2 2 y g s d 2 . # # ",
"# # # # # 3 q g v 9 O $ 2 , , > 2 5 y v 5 . 2 : < < , > # #     O 3 # , 3 $ o q m v v v k $ # $       # d v k m 3   # # ",
"# # # # , 2 2 2 3 2 - $ 2 $ > > , 2 2 3 2 , 2 2 2 < - $ q g       2 2 , $ 3 q q q g k j j g q $       q g k h h d d 2 @ ",
"# # # # 2 $ # # # $ 2 2 2 $ , $ # > # # , 2 $ 2 2 2 , $ d j + # + , , $ - q q q 3 d k j j v d $ & , & q d j j j l m 2 . ",
"$ # o # - , $ # # $ , $ # 5 q # # , , , 3 q 2 , 2 # 3     # X.1.X.#     q q q 0 3 d k m M .   > C.}.J.>   @ j A V S 2 . ",
"# # # # - 2 2 2 3 3 3 2 # 5 q 3 2 $ , , 3 q 2 - 2 - 5       @.9.@.      q q q q q g v V Z       .X+X.X2     v A m m 2 . ",
"# # $ - $ 3 q k v k v 5 # # 2 m j . # # # $ $ $ 2 t 3 # X 1 &.0.$.> @ + q 5 3 q g l V A m # 1 8 Q.+XE.1   . V U t . # # ",
"# # $ , > 3 q s d g c t 5 2 $ t t q 5 5 q q 2 #     # X.@.$.f.g.f.&.+.X.#             O 2 C.{.E.A.S.f.$     d k q $ # # ",
"# # 2 $ # 3 y 3 2 q j j l 3 $ . - m v l l v 3 #     @ &.5.7.h.F.h.7.3.%.                # oX+X+XD.D.d.$     # $ , 3 # # ",
"# # # # $ 2 2 t g j m v m 5 $ 3 0 y d k j k 3 #     o +.*.1.f.g.f.=.2.+.4 2 1 # , > # @ 6 T. X_.j.A.k.#     - 2 $ # # # ",
"# # @ # 2 $ # g v m A A S 5 # q q 2 t k j k 3 ,     X +.<.*.<.3.<.*.+.3.T./.W.^.Q.Y.*.o.+.3.3.3.<.7.-.#     , < # . # # ",
"# # # # # # , 2 $ s G g 3 2 $ 5 q g k V m V 3 #     # +.3.*.@.#.@.+.X.=.XXOXOXOX+XoX9.*.1.+.+.#.+.*.X.@     5 , $ # # # ",
"# # # # # # $ # O a W y . $ 2 2 q j l A V A 3 #     @ #.3.*.*.*.*.3.*.9..XoXXXXXoX`.3.#.*.*.*.*.*.3.#.X     q # # @ # # ",
"# $ $ # # # 2 $ # 5 v 5 , # - q d l m V V A 3 #     # +.3.*.*.+.3.^.|._.XXXXXXXXoX`.3.+.*.*.*.*.*.3.+.@     t q 2 # # # ",
"# # # # . # $ # $ + . $ 2 > , v m A V V A G q $       o.*.+.+.o.=.oX+XOXoXoXoXXXoX_.=.o.+.*.&.*.*.<.+.      k m q $ # # ",
"# # # # # 5 s t t s s 3 $ , , 3 t A V A j q 2 $ > - 4 *.9.3.3.=.9.W.|._._._._.XXoX_.9.*.3.*.*.*.*.3.+.& . # d k 5 $ # # ",
"# # # # $ t m k k k v q # , 2 . 2 A A G q     $ J.'.Q._._._.`.|.^.9.=.3.3.*.9.`.oXXX_.|.^.3.+.*.*.*.*.+.*.X.#     $ # # ",
"# # . $ 5 d k j j j k g d 3 $ - 2 3 3 3 2     1 .X+XOXoXoXoXOX+XoX*.X.#.&.+.3.XXOXoXoXOX.X=.X.#.1.1.1.3.8.*.X     $ # # ",
"# # o 2 q d k j j k k k v 5 $ 2 2 $ $ $ ,     1 ^.OXXXXXXXXX_.|.W.3.#.*.+.o.=.W..X_.XXoX_.9.=.3.#.#.#.*.3.+.X     # # # ",
"# # q q q q 0 g k j j j k 3 , # 3 k j k 7     & W.oXXXXXoX|.9.*.3.*.=.+.u ; f *.3.9..XoXXX_. XT.x = u #.8.+.+     @ # # ",
"@ $ q q q q q j l k l k v 2 $ $ 3 j j v t     & W.OXXXXXoX_.*.X.+.*.1.#.5 * 5 o.+.*.`.oXXXoX+X_.u o 5 o.3.X..     @ # # ",
"@ $ p 0 3 t h M A V V A G 0 $ q q 3 q g u     & W.OXXXXXoX_.3.+.*.*.3.#.r = r %.%.3.|.oXXXXXOX^.f o r *.0.*.@     # # # ",
"X # 2     . c M V V A l h 2 $ 3 5 q . O       & ^.OXXXXXoX_.3.+.*.*.=.#.r = r #.*.3.`.oXXXXXOX^.g   u T.@XT.#     # # # ",
"# # #       V V M A U q   $ , # 2 j             ^.OXXXXXoX`.*.X.#.*.3.#.e % 5 o.+.=.XXoXoXXXOX^.r   r oX+XoX2       # # ",
"# # # + # # m m V k q 5 3 , $ # 3 l 1 2 > > 1 9 W.oX.XXXoX.X9.*.3.*.1.#.u ; u =.3.9.E.|.{.XXOX/.b 2 b K.].J.&     q # # ",
"    . o.3.X.# . O                 2 J.'.W.W.Q.W.H.M.H..XXXXX|.|.Q.3.#.*.+.o.*.W.|.E.,.;.>.{.oXXX^.{.Z.i 1 2 j k k v 2 . ",
"    @ 1.t.=.                        .X+XOXOXOXoXM.N.M.XXoXXXoXOXXX=.X.#.*.+.3.XX+X.X:.B :.{.oXXXOX+XoX.     p k v V 2 . ",
"    X X.1.o.6 & 1 & 1 & # > > > # 8 ^.OXXXXXoX.XV.N.M.`.XX.X.XoX.X9.*.3.3.*.9..XoX/.>.;.>./.oXXX^.'.J.-     q g M U 2 . ",
"# # o @ @ 6 Z.[.^.^.^.W.b.z.b.z.z.n..XoXXXXXXX.XB.M.M.B.M.H..XXXXX_._._.`._._.XXXXXX{./.{.XXOX^.9 & # 2 q q g v j j - . ",
"# # #     # OX+X+X+X+X+X(.U.~.P.H.I.XXoXXXXXXX.XM.N.M.M.N.M..XoXoXoXoXoXoXoXoXoXXXoXoXoXoXOX+X.X      . h m V E a . # # ",
"# # o     > C.{.^.W.Q.R.n.z.x.M.M.M..XXX.XXXXXXXH.M.M.M.M.B..XXX.X.X.X.X.X.X.X.XXXXX.X.X.XQ.{.C.#     # 5 q q d 3 # # # ",
"# # # # 2 $ # - > 1 1 # # > 8 x.H.M.M.M.V..XXXXX.XXX.XM.M.M.M.M.M.M.M.M.M.M.M.M.B.M.M.I.n.i - # $ # $ $ # $ $ $ # @ # # ",
"$ # # # $ 3                   m.!.H.M.N.M.XXoXXXoXoXXXM.M.M.M.M.M.M.M.M.M.M.M.M.M.M.M.H.z.      3 g d d d g q $ # @ # # ",
"# # # # , 7 .               # l.M.x.M.M.V.`.XX.X.XXX`.B.M.M.M.M.M.M.M.M.M.M.M.M.M.M.M.H.z.>     5 m k k k v s $ $ # # # ",
"# # # 2 q q 0 5 3 q k j g g d > 1 8 x.H.M.M.M.G.M.M.M.M.M.M.M.M.M.M.M.M.M.M.M.M.M.M.M.L.z.#     q v k k k g j k 2   # # ",
"# # 2 2 q q 0 q 0 y g j j j j       x.P.M.M.M.M.M.M.M.M.M.M.M.M.M.M.M.M.M.M.M.M.M.M.H.~.M.>     q g g g g k k v q # # # ",
"@ # q q q q q q q 5 3 t j g d     # z.H.M.M.M.M.M.M.M.M.M.M.M.M.M.M.M.M.M.M.M.M.M.M.n.m.s.#     q 5 q q g k g g j k 2 . ",
"# # q q q q q q q q t j m l k     # z.H.M.M.M.M.M.M.M.M.M.M.M.M.M.M.M.M.M.M.M.M.H.v.8 > # $ $ 3 5 q q 0 j j k v v m 2 . ",
". $ q q q q q q 3 t k m A A M .   > z.H.M.H.H.P.H.M.H.H.L.P.H.H.H.M.M.M.L.L.H.H.I.n.      2 , # 2 q 0 5 d g v A A A 2 . ",
"# # 2 3 q q q d d g m M A V m     # b.P.M.b.b.c.m.M.m.b.x.v.z.z.b.M.M.M.x.b.b.N.H.z.#     2 , > 2 q y d v m m V V A 2 . ",
"o # # 2 q q q g k v A V V V m .   # z.~.b.8 # 3 r.i.w.6 # # # # 8 x.~.b.8 # 3 r.i.w.#     2 , # 2 q g l V A V V V A 2 . ",
"# # # 2 q q q g h l V V M A m     # z.(.x.      4.u.4.            z.~.z.      6.u.4.#     2 $ $ - # g V V V V V V A 2 . ",
"# # # 2 s q w d g v A V V S Z     # v.~.x.#   # 6.u.6.#         # z.!.v.#   # 6.u.6.#     $ $ $ -   j U V M V V A L 3 . ",
"# # o # 7 q y k v m V V A j s     > z.~.z.#   @ 9.u.4.#         # z.~.x.#   # 6.u.6.o     # $ $ $ # q j m V V A l z , . ",
"# # X # + s m V A V V A L 2 .     # M.).M.#   # e.p.e.#         > M.`.M.#   # e.a.e.#     . # 2 , 2 $ + m L S L s . # # ",
"# # # # # 3 5 m A V A j q - #     # l.H.l.#   @ 5.y.5.#         # l.H.l.# O # 5.y.5.@     # # # # # $ - q s p d 3 # # # ",
"# # # # # # + n G A L q   # # @ # o # > > # # . # # @ # o # @ 2 j > > > m M m # # #   . # # # # # + # 2 $ # $ $ # # $ # ",
"# # # # # # # - 3 2 3 # # # # # # #       # # #       # # # # # 2       2 3 2       # # # $ # # # # # # # # # # # # # # ",
"# # # # # # # . . . . @ # # # # # #       # # #       @ $ # # # @       . . .       # # # # # # # # # # # # # # # # # # "
};
