/* XPM */
static char *xpm_[] = {
/* columns rows colors chars-per-pixel */
"60 60 182 2 ",
"   c #020202",
".  c #0A0506",
"X  c #060807",
"o  c #090806",
"O  c #060608",
"+  c #0A0709",
"@  c #070909",
"#  c #0C0B0B",
"$  c #120D0D",
"%  c #0E100E",
"&  c #13100E",
"*  c #1A100F",
"=  c #0E0E11",
"-  c #130E11",
";  c #180F10",
":  c #0D1012",
">  c #151212",
",  c #1B1515",
"<  c #1B1916",
"1  c #14161A",
"2  c #1A1719",
"3  c #17181C",
"4  c #1D1A19",
"5  c #131917",
"6  c #201615",
"7  c #211917",
"8  c #201718",
"9  c #231C1B",
"0  c #1E201F",
"q  c #26211E",
"w  c #29211E",
"e  c #1B1E20",
"r  c #241E20",
"t  c #281F20",
"y  c #262121",
"u  c #2B2523",
"i  c #2E2926",
"p  c #2F2A29",
"a  c #2F2629",
"s  c #312726",
"d  c #312A26",
"f  c #332D2A",
"g  c #382E2D",
"h  c #36312E",
"j  c #39322E",
"k  c #373332",
"l  c #3C3432",
"z  c #3E3A35",
"x  c #3F3D39",
"c  c #780E24",
"v  c #413736",
"b  c #413936",
"n  c #443B39",
"m  c #493E3D",
"M  c #433739",
"N  c #45413D",
"B  c #45423D",
"V  c #48423F",
"C  c #4A413F",
"Z  c #484540",
"A  c #4A4641",
"S  c #4C4341",
"D  c #4E4A45",
"F  c #4D4943",
"G  c #514443",
"H  c #504D46",
"J  c #524F4A",
"K  c #514E49",
"L  c #544F4A",
"P  c #544C4B",
"I  c #594E4C",
"U  c #53504A",
"Y  c #54514A",
"T  c #55524B",
"R  c #56534C",
"E  c #55524D",
"W  c #57544D",
"Q  c #53524D",
"!  c #58554E",
"~  c #595751",
"^  c #5B5851",
"/  c #595951",
"(  c #5D5A53",
")  c #5D5A55",
"_  c #5D5B55",
"`  c #565550",
"'  c #615D56",
"]  c #615E59",
"[  c #61605B",
"{  c #6B6761",
"}  c #666C6D",
"|  c #696B6D",
" . c #6E7374",
".. c #6D7678",
"X. c #717375",
"o. c #787775",
"O. c #747877",
"+. c #757A7C",
"@. c #797B7D",
"#. c #767878",
"$. c #873345",
"%. c #8A3548",
"&. c #965263",
"*. c #7B817F",
"=. c #777F81",
"-. c #7B7F81",
";. c #7C8183",
":. c #75838A",
">. c #7A888D",
",. c #798388",
"<. c #7E8C92",
"1. c #858786",
"2. c #82898B",
"3. c #848A89",
"4. c #8B8F90",
"5. c #818F98",
"6. c #839096",
"7. c #84939A",
"8. c #8D9DA3",
"9. c #96A5AC",
"0. c #98A7AE",
"q. c #9AA7B0",
"w. c #9BACB6",
"e. c #A0AEB7",
"r. c #F8D0AD",
"t. c #EECEB5",
"y. c #EDCDB8",
"u. c #F7DEBF",
"i. c #FEDEBF",
"p. c #F4D6BC",
"a. c #E5C6AA",
"s. c #A4B3C1",
"d. c #AFBECD",
"f. c #B1BECD",
"g. c #AFC1CE",
"h. c #B1C0CE",
"j. c #AFC0D0",
"k. c #B4C4D3",
"l. c #BAC7D7",
"z. c #B7C9D7",
"x. c #B7C6D9",
"c. c #BCCCDC",
"v. c #BBC8D7",
"b. c #BED0DE",
"n. c #C0D1DF",
"m. c #C7D9DF",
"M. c #CAD9DE",
"N. c #FBDDC3",
"B. c #F7E0C0",
"V. c #FEE3C5",
"C. c #FFE8C2",
"Z. c #FEEFC8",
"A. c #C2CFE0",
"S. c #C4D4E5",
"D. c #C8D9E2",
"F. c #C5D6E8",
"G. c #C7D9EB",
"H. c #C9DAEB",
"J. c #CDDFF3",
"K. c #CFE2E6",
"L. c #D0E2E5",
"P. c #D3E4EB",
"I. c #DAE6ED",
"U. c #D6EAEE",
"Y. c #D9EBEE",
"T. c #CEE3F6",
"R. c #D2E3F4",
"E. c #D7EAF0",
"W. c #DBEBF2",
"Q. c #DEF1F6",
"!. c #DEF2F9",
"~. c #E3EDEF",
"^. c #EEF0EF",
"/. c #E2EEF2",
"(. c #E3F5F5",
"). c #E8F6F7",
"_. c #E2F6FC",
"`. c #E9F7FC",
"'. c #E5F9FE",
"]. c #EBFEFF",
"[. c #F3FFFF",
"{. c #FDFFFE",
/* pixels */
"# # # # . . .             # # $ # . .       .   # # # # # . . O       .           # $ o .       . .   .         # $ # # ",
"# # # # > > > < < < < < < # # # # & > < < < < < & # # # & > > , < < < < < < < < 4 # # - > < < < , > > , 3 < < 4 # # # # ",
"# #   > f l n Q ) ~ ! ( [ ,     o u x ] ~ ~ ) { k       q h v Z ^ ^ ( ) ( ^ ! ^ { u   q l ^ _ ] Y b n b R ( ^ { y   # # ",
"# # > q l n F U W R ! H K q > 4 u z A ! R W H L z < 4 , f l V D W K D D D Y ! K L h < f l D D H Z z Z A Q ` U U h < # # ",
". > l z V U ' R Y R ! F n l h A K _ ^ Y Y R B z B L z f x V ^ ^ W D n n v R ) D z V D A B n n n N n K ] W W D l B K <   ",
"X $ w i j x F U W R ) z u y w f z A D W R R z f k j f s z B A F ( B q f h B D n f l j h h l h i d j n F L ) A f j l > . ",
"# # < q s h x H W W ] h $ , 8 u f z A ~ W ~ h u i d f d z B z N ] n $ w f l B l u s i i i f i , q i l x K ) B u p f & . ",
"# # 8 y d l n H ! D A d , 9 8 9 q f l A B A u 9 4 > 4 y s j n n F h , 9 9 f h i 8 9 y , > > > - , 9 i h n D j 8 , > # # ",
"# $ 9 u g v n Q ( H B d 7 9 9 8 9 i h n n n y 7 , O , 9 i g n B B g , 9 7 s j i 6 9 9 - # # # = & 9 u f x F h 7 -   # # ",
"# # > 4 9 f z A U B z y > , , 7 9 d j B z z 9 , > # , , q i l l z d 6 8 , 9 y 9 , , , > - $ $ = > , 9 u f l u , - # # # ",
"# # . # . 9 f v B l j 4 + # = 8 y d l A j f > # # = # # , 9 s f f u 9 > # # # # o # o # # $ $ # = # , 9 , , > # # # # # ",
"# # # # # 8 y f z i 2 > $ - - > , y s v u , > - > - > = > , q y y 9 > > - - # , y q q q q & # > - = > > y i u u > . # # ",
"# # # # # , 9 i h 4 O $ > - - = > 4 w j < . > * > > - = # # , 4 9 , # > > $ o 8 l f f h f $ $ - $ $ # # u h f l ,   # # ",
"# # # # - > > > , > & $ > $ = = - > > , > - > > ; $ > # y i s w ; > - - $ < 7 4 9 i f f s i 9 $ - $ , , i f s d u u > @ ",
"# # # # > $ # # # $ > > > $ - $ # = # # - > $ > > > - $ i h h i - > ; $ $ 4 9 9 , u f d d j s $ > - < q i f d d g l > . ",
"$ # o # & - $ # # $ - $ # 4 9 # # - - - 6 9 > - > # , 8 i d .   . 9 # , 9 9 9 8 , u s l v m l #     . , u i g v v m , . ",
"# # # # & > > , , , , > # < 8 , > & > - , 8 > $ > & 8 9 i d       q # , 9 8 8 9 9 i g v n l p #       9 d f j n l l > . ",
"# # $ & $ , 9 f j f h 4 # # > l d + # $ # $ $ $ , q 4 < q i o # # i . , q 7 , 9 p l n m n & # # = & > f v n n G q + # # ",
"# # $ - = , 9 y u i h q 4 > $ q q 8 < < 9 8 > # > , 8 O . # } -.} +     , q q u h l n f y     = D.^.m.>   . i d 8 $ # # ",
"# # > $ # , w , > 9 s d g , $ . & l h g g h , # $ # 9       ..2. .      # i l v G m V , .       _.{.'.&     # # $ , # # ",
"# # # # $ > > q i d l j l < $ > 7 q u f s f , $ - # q # o : #.4.o.= # . # , < 8 r 9 9 & $ : % 0 I.{.Y.:     - & $ # # # ",
"# # @ # > $ # i h l n n m < # 9 9 , q f s f , $     # }  .o.t.B.y.o. .} #               = m./.Y.N.V.t.$     $ > # . # # ",
"# # # # # # - > $ y V i , > $ 4 9 i g v l v , #     # O.;.1.i.Z.i.1.,.O.                # '.{.{.V.C.r.$     8 $ $ # # # ",
"# # # # # # $ # O r I w . $ > , 9 s g n v n , #     .  .+.*.t.u.t.;.+. .5 & % : : # # X , P.)./.p.u.a.#   O 9 # # @ # # ",
"# $ $ # # # > $ # 4 j 4 - # & 9 u g l v v n 4 #     X  .;.+.@.;.;.+. .;.P.Y.U.Y.Y.L.+.} X.;.;.;.;.1.+.+     y 9 > # # # ",
"# # # # . # $ # $ + . $ > = - h l n v v n S 8 #     X  .;.+... ... .| +.].[.[.[.[.].2.#.-.X. . . .+.} @     s j 9 $ # # ",
"# # # # # < y q q y y < $ - - , q n v n d 9 , -     .  .;.+.+.+.+.;.+.2.!.].'.'.].Q.;.X.+.+.+.+.+.;. ..   . i g 8 $ # # ",
"# # # # $ q l f f f j 9 # - > . , n n Z 9 . - ;     O  .;.+.+.X.;.U.(.Q.'.'.`.'.].!.;. .+.@.+.+.+.;. .#     i f 9 $ # # ",
"# # . & 4 u f s s d f i u , $ & $ , , < > ; $ #       } +. .X.| +.].{.[.].].].'.].Q.+.}  .+.+.+.+.;. .      l n r $ # # ",
"# # o > 9 u f s s f f f j 4 $ > > $ # $ $ $ $ # # % 5 +.2.;.;.+.2.Y.).!.Q.Q.Q.'.].Q.2.+.;.+.+.+.+.*. .# # # j v 9 # # # ",
"# # 8 8 8 8 7 i f s s s f , - # , f s f <     # D.~.Y.Q.!.Q.!.(.U.2.+.;.;.+.2.!.].'.(.(.Y.;. .+.+.+.+. .+.} #     # # # ",
"@ $ 9 8 9 9 9 d g f g f h , $ $ < d s h 9     : _.{.[.].].].[.{.].+.|  .X.} +.'.[.].].[.'.+.} X.+.+.+.;.2.+.#     # $ # ",
"# # q 9 , u f v n v v n S 4 $ 9 9 , 9 f i     : U.[.'.'.'.'.Q._.U.;. .+.+. .;.U._.Q.'.].!.2.+.;.+.+.+.+.;. .@     $ # # ",
"@ # , 8 w f j z v v v f i > # , 4 w i j f     # U.[.'.'.].!.2.+.;.+.+.+.+.+.+.;.@.2._.].'.Q._.E.;.X.+.+.;. .#     # # # ",
"# # + 9 z z n v v n G 9   # - # , d j n n .   = U.[.'.'.].Q.+.|  .+.@.+.+.@.+. .| +.Q.].'.].[._.@.}  . .+.| #       # $ ",
"# # # > 2 f n v n g 9 8 , > - # , l j M u     = U.[.'.'.].!.;.X.+.+.+.+.+.+.+.+. .;.!.].'.'.].!.2.+.;.;.2.+.X     9 # # ",
"# # . # O a Z v V i   , q , > # 4 n . O       = U.[.'.'.].!.;. .+.+.+.+.+.+.+.+.X.;.Q.].'.'.'.'.!.W.Q.!.).P.#     j > O ",
"# # # # # > 4 4 8 , $ > > > - > > 8             E.[.'.'.].Q.+.|  .+.@.+.+.@.+. .} +.'.[.].'.'.'.].].].[.{.].:     v > . ",
"# # + # > # # # $ $ # # $ $ $ > $ # = & > : % e E.]._.'.].!.2.+.;.+.+.+.+.+.+.;.+.2.I.(.W.'.'.'.'.'.'.E./.m.:   . G > . ",
"$ # #               O             : M./.U.U.W.U.S.v.n._.].'.!.(.U.;. .+.+. .;.U.).I.&.%.&./.].'.'.[.E.4 > > y j p s > . ",
"# # #                             . _.{.[.[.[.].c.z.c.'.].].].]._.@.}  . .} @._.{._.%.c $./.].'.[.{._.      l P r . # # ",
"# # # O . # = & = : & > # # # # # 3 Y.[.'.'.'._.c.x.n._.'._.'.].!.2.+.;.;.+.2.!.].W.&.$.&./.].'.E./.D.#     8 u , # # # ",
"    X }  .+.L.Q.U.E.Y.P.k.d.d.f.f.k._.'.'.'.]._.c.c.c.c.c.S._.'.'.(.Q.Q.Q.Q.Q.'.'.'./.W./.'.[.E.4 % # $ # $ # $ # @ # # ",
"    # =.2.4.[.{.{.{.{.{.R.J.R.F.S.H.'.].'.'.'._.c.z.c.c.x.c.'.].'.].].].].].].'.'.'.].].].[.{._.      y u s 9 - # @ # # ",
"    X }  .+.L.Y.E.E.Y.P.k.d.h.c.c.S._.'._.'.]._.S.c.c.c.c.c._.'._._._._._._._._.!._._._._.E./.m.=   . d f j u - $ # # # ",
"@ # # # # o % % # = > # = # 3 h.F.c.c.c.S._.'.'._.'._.c.c.c.c.b.c.c.c.c.c.c.c.c.c.c.A.F.k.e & > 9 f i f f f s f >   # # ",
"# # >                         c.R.F.c.x.c.'.].'.].].'.c.c.c.c.c.c.c.c.c.c.c.c.c.c.c.S.R.z.      9 i i i i d f h 9 # # # ",
"X # 9                       # s.c.h.c.c.b.!.'._._.'._.b.c.c.c.c.c.c.c.c.c.c.c.c.c.c.h.c.s.#   O 7 4 8 4 i f i i s f > . ",
"# # 9 7 8 < < 8 7 9 9 i g f d # = 3 k.F.c.c.c.b.c.c.c.c.c.c.c.c.c.c.c.c.c.c.c.c.F.g.3 = # $ $ , 4 9 9 7 s d f j h l > . ",
". $ 9 9 8 8 8 8 , q d l n n n O     d.F.c.F.F.F.c.c.c.F.H.F.G.F.F.c.c.c.F.F.F.S.H.k.      > - # > 9 7 < u i h n n n > . ",
"# # > , 9 8 8 y u d l z v v l O   # g.G.c.h.f.h.z.c.z.h.f.g.h.d.h.c.c.c.f.h.h.l.S.d.#     > - = > 9 w u h l l v v n > . ",
"o # # > 9 8 8 i f j n v v v l .   # h.R.f.3 # 1 7.q.6.1 = = # # 3 f.R.h.3 # , 6.q.5.#     > - # > 9 i g v n v v v n > . ",
"# # # > 9 9 8 i p j n v v v l     # d.R.f.      >.9.>.            d.R.d.      <.9.>.#     > $ $ & # i v v v v v v n > . ",
"# # . > w 9 6 u i f n v v m n     # g.R.d.#   # <.0.<.#         # d.T.g.#   # <.0.<.#     $ $ $ &   d G v z v v n S , . ",
"# # o $ 2 9 w f g l v v v f y     = d.R.j.#   # >.0.<.+         # d.R.f.#   # <.0.<.o     # $ $ $ # 9 d l v v n g s - . ",
"# # o # + u z v n v v n S , .     = c.!.c.#   # 7.w.7.#         = c.!.c.#   # 7.e.7.#     . # > - > $ + l S m S y . # # ",
"# # # # # , 4 l n v n s 9 & #     # s.F.s.#   @ :.8.:.#         # s.F.s.# O # :.8.,.@     # # # # # $ & 9 y t u , # # # ",
"# # # # # # + k V n S 9   # # @ # o # = = # # . # # @ # . # @ > d = = = l z l # # #   . # # # # # + # > $ # $ $ # # $ # ",
"# # # # # # # & , > , # # # # # # #       # # #       # # # # # >       > , >       # # # $ # # # # # # # # # # # # # # ",
"# # # # # # # . . . . @ # # # # # #       # # #       # $ # # # O       . . .       # # # # # # # # # # # # # # # # # # "
};
