/* XPM */
static char *xpm_[] = {
/* columns rows colors chars-per-pixel */
"60 60 191 2 ",
"   c #020202",
".  c #0A0506",
"X  c #060807",
"o  c #090906",
"O  c #050509",
"+  c #0A0709",
"@  c #070909",
"#  c #0C0B0B",
"$  c #120D0D",
"%  c #110F00",
"&  c #0E100E",
"*  c #0F1002",
"=  c #141407",
"-  c #13100E",
";  c #1A1A0D",
":  c #1A100F",
">  c #0E0E11",
",  c #130E11",
"<  c #190F11",
"1  c #0E1011",
"2  c #151212",
"3  c #1B1515",
"4  c #151817",
"5  c #1C1A16",
"6  c #151619",
"7  c #1A1719",
"8  c #161A1C",
"9  c #1C1A1A",
"0  c #211917",
"q  c #231C1B",
"w  c #201618",
"e  c #1F2112",
"r  c #232316",
"t  c #26211E",
"y  c #29211E",
"u  c #292A1E",
"i  c #1A1C21",
"p  c #281F20",
"a  c #241E20",
"s  c #262221",
"d  c #2B2523",
"f  c #272820",
"g  c #2D2925",
"h  c #2F2A28",
"j  c #312A27",
"k  c #332D2A",
"l  c #392E2D",
"z  c #302625",
"x  c #2F3126",
"c  c #36312D",
"v  c #39322E",
"b  c #37392D",
"n  c #373331",
"m  c #3C3432",
"M  c #3E3A35",
"N  c #3F3D39",
"B  c #7A0E26",
"V  c #413635",
"C  c #413936",
"Z  c #423638",
"A  c #443B39",
"S  c #493E3D",
"D  c #45413D",
"F  c #45413D",
"G  c #49423F",
"H  c #4B483F",
"J  c #484540",
"K  c #4A4641",
"L  c #4C4441",
"P  c #4E4A45",
"I  c #4D4943",
"U  c #514443",
"Y  c #504D46",
"T  c #524E4A",
"R  c #544F4A",
"E  c #544D49",
"W  c #594E4C",
"Q  c #53504A",
"!  c #54514A",
"~  c #56534C",
"^  c #55524D",
"/  c #57544D",
"(  c #53524D",
")  c #58554E",
"_  c #595751",
"`  c #5A5851",
"'  c #5D5A53",
"]  c #5D5A55",
"[  c #5D5B55",
"{  c #565550",
"}  c #615D56",
"|  c #615E59",
" . c #61605B",
".. c #6B6761",
"X. c #676B6C",
"o. c #696C6C",
"O. c #6A6E72",
"+. c #6E7374",
"@. c #6D7479",
"#. c #717375",
"$. c #797875",
"%. c #737679",
"&. c #79777A",
"*. c #757A7C",
"=. c #797C7D",
"-. c #737975",
";. c #873547",
":. c #883346",
">. c #975264",
",. c #995264",
"<. c #77807F",
"1. c #7D807F",
"2. c #7B7F82",
"3. c #767980",
"4. c #7C8183",
"5. c #75838A",
"6. c #7A888D",
"7. c #798388",
"8. c #7D8B92",
"9. c #858686",
"0. c #81868A",
"q. c #828A8B",
"w. c #898F8D",
"e. c #828E93",
"r. c #818F98",
"t. c #84939A",
"y. c #839096",
"u. c #929898",
"i. c #8D9DA3",
"p. c #96A5AC",
"a. c #9AA9B2",
"s. c #9DAFB9",
"d. c #A0AEB7",
"f. c #A4B2BE",
"g. c #FACFAF",
"h. c #EDCEB5",
"j. c #F7DFBF",
"k. c #FFDEBF",
"l. c #F1D5BD",
"z. c #E8C4AC",
"x. c #A5B3C1",
"c. c #AFBFCE",
"v. c #B1BECD",
"b. c #AFBED1",
"n. c #AEC0CE",
"m. c #B1C0CE",
"M. c #B5C4D3",
"N. c #BAC9D7",
"B. c #BCCCDC",
"V. c #B8C7D7",
"C. c #BED0DE",
"Z. c #C0D0DF",
"A. c #C7D9DE",
"S. c #C9DBDE",
"D. c #FADEC2",
"F. c #FFE7C8",
"G. c #FEE4C3",
"H. c #FFF0C9",
"J. c #C0CFE2",
"K. c #C4D5E5",
"L. c #C7DAE2",
"P. c #CADBE1",
"I. c #C6D5E8",
"U. c #C6D8E9",
"Y. c #C8DAEB",
"T. c #CFE3E4",
"R. c #D1E3E7",
"E. c #D2E4EA",
"W. c #D9E6EB",
"Q. c #D6E9EE",
"!. c #DAEAED",
"~. c #CFE3F7",
"^. c #D1E2F4",
"/. c #D6EAF1",
"(. c #DBECF1",
"). c #DBEFFF",
"_. c #D3E4F8",
"`. c #DEF1F6",
"'. c #DEF2F9",
"]. c #E3EFEF",
"[. c #EDEFEE",
"{. c #E2EEF2",
"}. c #EEEFF1",
"|. c #E2F4F6",
" X c #E9F6F6",
".X c #E2F5FC",
"XX c #E5F9FE",
"oX c #EBFEFE",
"OX c #F2FFFF",
"+X c #FCFFFF",
"@X c #F4F8F7",
/* pixels */
"# # # # . . .             # # $ # . .       .   # # # # # . . O       .           # $ o .       . .   .         # $ # # ",
"# # # # 2 2 2 5 5 9 5 5 9 # # # # - 2 5 5 9 5 5 - # # # - 2 2 3 5 9 5 5 5 5 5 5 9 # # , 2 5 5 9 3 2 2 3 8 9 9 9 # # # # ",
"# #   2 k m A ( ] _ ) '  .3     o d N | _ _ ] ..n       t v V J ` ` ' ] ' ` ) ` ..d   t n ` [ | ! C A C ! ' ` ..s   # # ",
"# # 2 t m A I Q / ~ ) Y T t 2 9 d M K ) ~ / Y R M 5 9 2 k m G P / T P P P ! ) T R c 5 k m P P Y K M J K ( { Q Q v 5 # # ",
". 2 m M G Q } ~ ! ~ ) I A m v K T [ ` ! ! ~ D M D R M k N D ` ` / P A A M ~ ] P M G P K D A A A F A T | / / P m D T 5   ",
"X $ y g v N I Q / ~ ] M d s y k M K P / ~ ~ M k n v k j M F K I ' D t k v F P A k n v v v m v g j v A I R ] K k v m 2 . ",
"# # 5 t j v N Y / / | l $ 3 q d k M K _ / _ v d g j k j M D M F | A $ y k m D m d j g g g k g 2 t g m N T ] D d j k - . ",
"# # q s j m A Y ) P K j 3 q q q t k m K D K d q 9 2 9 s j v A A I v 3 q q k v g q q s 3 2 2 2 , 3 q g v A P v q 2 2 # # ",
"# $ q d l V A ( ' Y D j 0 q q w q g v A A A s 0 3 . 3 q d l A D G v 3 q q j v d 0 q q # # # > > 2 q d k V H v 0 ,   # # ",
"# # 2 9 q k M K T D M s 2 3 3 0 q j v D M M q 3 2 # 3 3 t g m M N j 5 5 3 q s q 3 3 3 2 $ $ , > 2 3 q d k n g 3 , # # # ",
"# # . # . q k V D m v 9 + # > q s j m K v k 2 # # > # # 3 q j k j d q 2 # # # # # # # # # , $ $ # # 3 q 3 3 < # # # # # ",
"# # # # # q s k M g 7 2 $ , > 2 3 s z V d 3 2 , 2 , 2 > 2 2 s s d q 2 2 , , # 3 s t t t q 2 $ , , $ 2 2 y g s d 2 . # # ",
"# # # # # 3 q g v 9 O $ 2 , , > 2 9 y v 9 . 2 : < < , > # #     O 3 # , 3 $ o q m v v v k $ # $       # d v k m 3   # # ",
"# # # # , 2 2 2 3 2 - $ 2 $ > > , 2 2 3 2 , 2 2 2 < - $ q g       2 2 , $ 3 q q q g k j j g q $       q g k h h d d 2 # ",
"# # # # 2 $ # # # $ 2 2 2 $ , $ # > # # , 2 $ 2 2 2 , $ d j + # + , , $ - q q q 3 d k j j v d $ & , & q d j j j l n 2 . ",
"$ # o # - , $ # # $ , $ # 9 q # # , , , 3 q 2 , 2 # 3     # X.2.X.#     q q q 0 3 d k m M .   > A.}.L.>   @ j A V S 2 . ",
"# # # # - 2 2 2 3 3 3 2 # 5 q 3 2 $ , , 3 q 2 - 2 - 5       @.q.@.      q q q q q g v V Z       .X+X.X2     v A m n 2 . ",
"# # $ - $ 3 q k v k v 9 # # 2 n j + # # # $ $ $ 2 t 3 # X 1 &.w.$.> @ + q 5 3 q g l V A m # 1 8 !.+XW.1   . V U t + # # ",
"# # $ , > 3 q s d g c t 9 2 $ t t q 5 5 q q 2 #     # X.@.$.h.j.h.&.+.X.#             O 2 A.{.W.D.F.h.$     d k q $ # # ",
"# # 2 $ # 3 y 3 2 q j j l 3 $ . - m v l l v 3 #     @ &.7.9.k.H.k.9.4.%.                # oX+X+XG.G.g.$     # $ , 3 # # ",
"# # # # $ 2 2 t g j m v m 5 $ 3 0 y d k j k 3 #     o +.*.2.h.j.h.=.3.+.4 2 1 # , > # @ 6 R. X`.l.D.z.#     - 2 $ # # # ",
"# # @ # 2 $ # g v m A A S 5 # q q 2 t k j k 3 ,     X +.1.*.1.4.1.*.+.4.R.(.Q./.!.T.*.o.+.4.4.4.1.9.-.#     , < # . # # ",
"# # # # # # , 2 $ s G g 3 2 $ 9 q g k V m V 3 #     # +.4.*.@.#.@.+.X.=.XXOXOXOX+XoXq.*.2.+.+.#.+.*.X.@     9 , $ # # # ",
"# # # # # # $ # O a W y . $ 2 2 q j l A V A 3 #     @ #.4.*.*.*.*.4.*.q..XoXXXXXoX'.4.#.*.*.*.*.*.4.#.X     q # # @ # # ",
"# $ $ # # # 2 $ # 9 v 9 , # - q d l m V V A 3 #     # +.4.*.*.+.4./.|.`.XXXXXXXXoX'.4.+.*.*.*.*.*.4.+.@     t q 2 # # # ",
"# # # # . # $ # $ + . $ 2 > , v m A V V A G q $       o.*.+.+.o.=.oX+XOXoXoXoXXXoX`.=.o.+.*.&.*.*.1.+.      k m q $ # # ",
"# # # # # 5 s t t s s 3 $ , , 3 t A V A j q 2 $ > - 4 *.q.4.4.=.q.Q.|.`.`.`.`.XXoX`.q.*.4.*.*.*.*.4.+.& . # d k 9 $ # # ",
"# # # # $ t m k k k v q # , 2 . 2 A A G q     $ L.].!.`.`.`.'.|./.q.=.4.4.*.q.'.oXXX`.|.(.4.+.*.*.*.*.+.*.X.#     $ # # ",
"# # . $ 9 d k j j j k g d 3 $ - 2 3 3 3 2     1 .X+XOXoXoXoXOX+XoX*.X.#.&.+.4.XXOXoXoXOX.X=.X.#.2.2.2.4.0.*.X     $ # # ",
"# # o 2 q d k j j k k k v 9 $ 2 2 $ $ $ ,     1 /.OXXXXXXXXX`.|.Q.4.#.*.+.o.=.Q..X`.XXoX`.q.=.4.#.#.#.*.4.+.X     # # # ",
"# # q q q q 0 g k j j j k 3 , # 3 k j k 7     & Q.oXXXXXoX|.q.*.4.*.=.+.u ; f *.4.q..XoXXX`. XE.x = u #.0.+.+     # # # ",
"@ $ q q q q q j l k l k v 2 $ $ 3 j j v t     & Q.OXXXXXoX`.*.X.+.*.2.#.5 * 5 o.+.*.'.oXXXoX+X`.u o 5 o.4.X..     @ # # ",
"+ # q q 3 d h v m M m V L 0 $ q q 3 q g u     & Q.OXXXXXoX`.4.+.*.*.4.#.r = r %.%.4.|.oXXXXXOX(.f o r *.w.*.@     # # # ",
"# # 3 q s g .         . g 3 # 3 5 q . O       & /.OXXXXXoX`.4.+.*.*.=.#.r = r #.*.4.'.oXXXXXOX(.g   u E.@XR.#     # # # ",
"# # # q m V             O # > $ 2 j             /.OXXXXXoX'.*.X.#.*.4.#.e % 5 o.+.=.XXoXoXXXOX/.e   r oX+XoX2       # # ",
"# # # 2 3 g 2 2 & 1 # 2 2 , , # 3 l 1 2 > > 1 9 Q.oX.XXXoX.Xq.*.4.*.2.#.u ; u =.4.q.W.|.{.XXOX(.b 2 b P.[.L.&     q # # ",
"# # @     1 A.{.Q.(.{.A.#         2 L.].Q.Q.!.Q.K.B.K..XXXXX|.|.!.4.#.*.+.o.*.Q.|.W.,.;.>.(.oXXX(.{.S.i 1 2 j k k v 2 . ",
"# # #     # OX+X+X+X+XoX.           .X+XOXOXOXoXB.V.B.XXoXXXoXOXXX=.X.#.*.+.4.XX+X.X:.B :.{.oXXXOX+XoX.     p k v V 2 . ",
"# # + . # 4 P.{./.Q.].A.8 > > # # 9 /.OXXXXXoX.XZ.V.B.'.XX.X.XoX.Xq.*.4.4.*.q..XoX(.>.;.>.(.oXXX(.].L.-     q g M U 2 . ",
"    @ X.<.o.6 & > 1 & 9 x.N.c.c.c.M..XoXXXXXXX.XC.B.B.C.B.K..XXXXX`.`.`.'.`.`.XXXXXX{.(.{.XXOX/.9 & # 2 q q g v j j - . ",
"    @ 2.u.=.            K.).^.U.K.Y.XXoXXXXXXX.XB.V.B.B.V.B..XoXoXoXoXoXoXoXoXoXXXoXoXoXoXOX+X.X      . h n V E a . # # ",
"    X X.=.o..         # f.N.v.B.B.B..XXX.XXXXXXXK.B.B.B.B.C..XXX.X.X.X.X.X.X.X.XXXXX.X.X.X!.{.A.#     # 9 q q d 3 # # # ",
"# # # X @ o # g n k g d # > 9 m.K.B.B.B.Z..XXXXX.XXX.XB.B.B.B.B.B.B.B.B.B.B.B.B.C.B.B.Y.M.i - # $ # $ $ # $ $ $ # @ # # ",
"# # #       9 q q s k j       B.~.K.B.V.B.XXoXXXoXoXXXB.B.B.B.B.B.B.B.B.B.B.B.B.B.B.B.K.c.      3 g d d d g q $ # @ # # ",
"# # o       q q 5 p k g . . # f.B.v.B.B.Z.'.XX.X.XXX'.C.B.B.B.B.B.B.B.B.B.B.B.B.B.B.B.K.c.>     5 n k k k v s $ $ # # # ",
"# # # 2 9 9 q q 9 s l k j g d > 1 8 v.K.B.B.B.J.B.B.B.B.B.B.B.B.B.B.B.B.B.B.B.B.B.B.B.I.c.#     q v k k k g j k 2   # # ",
"# # 2 2 q q q q q t j j j h h       v.U.B.B.B.B.B.B.B.B.B.B.B.B.B.B.B.B.B.B.B.B.B.B.K.^.B.>     q g g g g k k v q # # # ",
"# # q q q q q q q 0 3 t j h d     # c.K.B.B.B.B.B.B.B.B.B.B.B.B.B.B.B.B.B.B.B.B.B.B.M.V.f.#     q 5 q q g k g g j k 2 . ",
"# # q q q q q q q q t j n l k     # c.K.B.B.B.B.B.B.B.B.B.B.B.B.B.B.B.B.B.B.B.B.K.n.9 > # $ $ 3 9 q q 0 j j k v v n 2 . ",
". $ q q q q q q 3 t k m A A M .   > c.K.B.K.K.U.K.B.K.K.I.U.K.K.K.B.B.B.I.I.K.K.Y.M.      2 , # 2 q 0 5 d g v A A A 2 . ",
"# # 2 3 q q q d d g m M A V m     # m.U.B.m.m.b.V.B.V.m.v.n.c.c.m.B.B.B.v.m.m.N.K.c.#     2 , > 2 q y d v m m V V A 2 . ",
"o # # 2 q q q g k v A V V V m .   # c.^.m.8 # 3 y.a.r.6 # # # # 8 v.^.m.8 # 3 y.a.r.#     2 , # 2 q g l V A V V V A 2 . ",
"# # # 2 q q q g h l V V M A m     # c._.v.      6.p.6.            c.^.c.      8.p.6.#     2 $ $ - # g V V V V V V A 2 . ",
"# # # 2 s q w d g v A V V S Z     # n.^.v.#   # 8.p.8.#         # c.~.n.#   # 8.p.8.#     $ $ $ -   j U V M V V A L 3 . ",
"# # o # 7 q y k v m V V A j s     > c.^.c.#   @ q.p.6.#         # c.^.v.#   # 8.p.8.o     # $ $ $ # q j m V V A l z , . ",
"# # X # + s m V A V V A L 2 .     # B.).B.#   # t.s.t.#         > B.'.B.#   # t.d.t.#     . # 2 , 2 $ + m L S L s . # # ",
"# # # # # 3 9 n A V A j q - #     # x.K.x.#   @ 5.i.5.#         # x.K.x.# O # 5.i.7.@     # # # # # $ - q s p d 3 # # # ",
"# # # # # # + n G A L q   # # @ # o # > > # # . # # @ # . # @ 2 j > > > m M m # # #   . # # # # # + # 2 $ # $ $ # # $ # ",
"# # # # # # # - 3 2 3 # # # # # # #       # # #       # # # # # 2       2 3 2       # # # $ # # # # # # # # # # # # # # ",
"# # # # # # # . . . . @ # # # # # #       # # #       # $ # # # @       . . .       # # # # # # # # # # # # # # # # # # "
};
