/* XPM */
static char *xpm_[] = {
/* columns rows colors chars-per-pixel */
"60 60 192 2 ",
"   c #020202",
".  c #0A0505",
"X  c #060806",
"o  c #0A0906",
"O  c #060609",
"+  c #0A070A",
"@  c #070909",
"#  c #0C0B0B",
"$  c #120D0D",
"%  c #0D100F",
"&  c #0D1000",
"*  c #141407",
"=  c #13110E",
"-  c #1B130F",
";  c #181C0D",
":  c #0D0E11",
">  c #130E11",
",  c #180F10",
"<  c #0E1111",
"1  c #151212",
"2  c #1B1515",
"3  c #1C1916",
"4  c #151619",
"5  c #1A171A",
"6  c #16191B",
"7  c #1C1A1A",
"8  c #121816",
"9  c #211917",
"0  c #201718",
"q  c #231C1B",
"w  c #201615",
"e  c #1E2012",
"r  c #222316",
"t  c #26211E",
"y  c #29211E",
"u  c #292A1E",
"i  c #272B1D",
"p  c #1B1C20",
"a  c #251E20",
"s  c #281F20",
"d  c #262221",
"f  c #2B2522",
"g  c #2E2925",
"h  c #2F2A28",
"j  c #2A2725",
"k  c #312A26",
"l  c #332D2A",
"z  c #392F2D",
"x  c #302625",
"c  c #36312D",
"v  c #39312E",
"b  c #343628",
"n  c #382F30",
"m  c #373332",
"M  c #3C3432",
"N  c #3E3A35",
"B  c #3F3D39",
"V  c #750E23",
"C  c #413636",
"Z  c #413936",
"A  c #443B39",
"S  c #493E3D",
"D  c #423638",
"F  c #45413D",
"G  c #45413D",
"H  c #49423F",
"J  c #484540",
"K  c #4A4641",
"L  c #4C4441",
"P  c #4E4A45",
"I  c #4D4943",
"U  c #504D46",
"Y  c #524E4A",
"T  c #544F4A",
"R  c #554C4A",
"E  c #544847",
"W  c #53504A",
"Q  c #54514A",
"!  c #56534C",
"~  c #55524D",
"^  c #57544D",
"/  c #53524D",
"(  c #58554E",
")  c #595751",
"_  c #5A5851",
"`  c #5D5A53",
"'  c #5D5A55",
"]  c #5D5B55",
"[  c #565550",
"{  c #615D56",
"}  c #615E59",
"|  c #61605B",
" . c #6B6761",
".. c #676B6C",
"X. c #6A6B6C",
"o. c #6E7374",
"O. c #697478",
"+. c #717375",
"@. c #797776",
"#. c #767976",
"$. c #727679",
"%. c #757A7C",
"&. c #797C7D",
"*. c #8A3445",
"=. c #8A3248",
"-. c #965364",
";. c #985163",
":. c #77807F",
">. c #7C807E",
",. c #7A7F81",
"<. c #7C8183",
"1. c #75838A",
"2. c #7A888D",
"3. c #768487",
"4. c #7D8B92",
"5. c #838987",
"6. c #83878A",
"7. c #82898B",
"8. c #8B8F8E",
"9. c #818785",
"0. c #8B918F",
"q. c #828E93",
"w. c #818F98",
"e. c #84939A",
"r. c #839096",
"t. c #8D9DA3",
"y. c #96A5AC",
"u. c #9AA9B2",
"i. c #9DAFB9",
"p. c #A0AEB7",
"a. c #A5B2BD",
"s. c #E8C5AF",
"d. c #FACFAF",
"f. c #ECCEB6",
"g. c #EDCDB8",
"h. c #F6DFBF",
"j. c #FFDEBE",
"k. c #F4D5B9",
"l. c #A5B3C1",
"z. c #AFBECD",
"x. c #B1BECD",
"c. c #AFBED1",
"v. c #AEC0CE",
"b. c #B1C1CE",
"n. c #B4C4D3",
"m. c #B6C6D9",
"M. c #B9C7D9",
"N. c #BCCCDC",
"B. c #B8C8D7",
"V. c #BED0DE",
"C. c #C1CEDE",
"Z. c #C1D2DE",
"A. c #C7DADE",
"S. c #CCD9DE",
"D. c #FBDDC3",
"F. c #FFE3C3",
"G. c #FFECC5",
"H. c #C0CFE2",
"J. c #C4D4E4",
"K. c #C6D9E4",
"L. c #CADBE1",
"P. c #C6D6E9",
"I. c #C6D8EA",
"U. c #CADAEB",
"Y. c #CFE2E6",
"T. c #CFE1EB",
"R. c #D1E3E5",
"E. c #D3E6EB",
"W. c #DAE6EB",
"Q. c #D6E9EE",
"!. c #D9EAEE",
"~. c #DCF1EF",
"^. c #CFE2F5",
"/. c #D1E2F4",
"(. c #D6EAF0",
"). c #DCECF3",
"_. c #D8EAFC",
"`. c #DDF1F5",
"'. c #DEF2F9",
"]. c #E2EFEE",
"[. c #EBEFEE",
"{. c #E1EEF2",
"}. c #EEEFF1",
"|. c #E3F4F5",
" X c #E3F5FD",
".X c #E8F7FB",
"XX c #E5F9FE",
"oX c #EBFEFE",
"OX c #E2F8F6",
"+X c #F2FFFF",
"@X c #FDFEFE",
"#X c #F5F6F8",
/* pixels */
"# # # # . . .             # # $ # . .       .   # # # # # . . O       .           # $ X .       . .   .         # $ # # ",
"# # # # 1 1 1 3 3 3 3 3 3 # # # # = 1 3 3 3 3 3 = # # # = 1 1 2 3 3 3 3 3 3 3 3 3 # # > 1 3 3 3 2 1 1 2 6 3 3 7 # # # # ",
"# #   1 l M A / ' ) ( ` | 2     o f B } ) ) '  .m       t v C J _ _ ` ' ` _ ( _  .f   t M _ ] } Q Z A Z ! ` _  .d   # # ",
"# # 1 t M A I W ^ ! ( U Y t 1 3 f N K ( ! ^ U T N 3 3 2 l M H P ^ Y P P P Q ( Y T c 3 l M P P U J N J K / [ W W v 3 # # ",
". 1 M N H W { ! Q ! ( I A M v K Y ] _ Q Q ! F N F T N l B H _ _ ^ P A A C ! ' P N H P K F A A A G A Y } ^ ^ P M F Y 3   ",
"X $ y g v B I W ^ ! ' N f d y l M K P ^ ! ! N l m v l k N G K I ` F t l v F P A z M v v v M v g k v A I T ' K l v M 1 . ",
"# # 3 t k c B U ^ ^ } v $ 2 0 f l N K ) ^ ) v f g k l k N G N G } A $ y l M F M f k g g g l g 2 t g M B Y ' F f h l = . ",
"# # 0 d k M A U ( P K k 2 q 0 q t l M K F K f q 3 1 3 d k v A A I v 2 q q l v g 0 q d 2 1 1 1 > 2 q g v A P v 0 2 1 # # ",
"# $ q f z C A / ` U F k 9 q q 0 q g v A A A d 9 2 O 2 q g l A F F l 2 q 0 k v f 9 q q : # # : # 1 q f l A K v 0 >   # # ",
"# # 1 3 q l N K Y F N d 1 2 2 9 q k v F N M q 2 1 : 1 2 d g . . . g 2 3 2 q d q 2 5 2 1 $ $ 1 #     . f l M j 2 > # # # ",
"# # . # . q l C F M v 3 + # > 0 d k M K v l 1 # # $ : # 2 q       f q 1 # # # + # # o # # > > $       q 2 - $ # # # # # ",
"# # # # # 0 d l N g 5 1 $ > > 1 2 t k C f 2 1 > > $ : # = 1 @ # # 3 = 1 > 1 # 2 d t t t q = # $ % 1 # = t f d d 1 . # # ",
"# # # # # 2 q g v 7 O $ 1 > > : 1 3 y M 5 . 1 - 1 1 $     O ..&...#     , $ # q M z l v g     : A.}.L.:   . k M 2   # # ",
"# # # # > 1 1 1 2 1 = $ 1 $ : : > 1 1 2 1 > 1 1 1 1 >       O.7.o.      $ 2 3 0 q g l k g        X@XXX1     g h j f 1 # ",
"# # # # 1 $ # # # $ 1 1 1 $ > $ # : # # $ 1 $ 1 > > > O . < @.8.$.% # + $ 9 q 3 2 t g k f 1 % 7 W.@XW.<     g k z M 1 . ",
"$ # X # = > $ # # $ > $ # 3 q # # > 1 > 2 q 1 >     @ ..o.#.g.h.f.@.O...#             O 1 S.{.W.D.F.f.#     l C C S 2 . ",
"# # # # = 1 1 2 2 2 2 1 # 3 0 2 1 $ > > 2 q 1 $     # $.<.6.j.G.j.5.<.$.                # XX@X@XF.G.d.$     z A M M 1 . ",
"# # $ = $ 2 q l v l v 3 # # 1 M k + $ # $ $ $ $     . o.%.&.f.h.f.>.%.o.8 % < < < : # X 5 Y..X{.k.h.s.$     A I t + # # ",
"# # $ > : 2 q d f g c t 0 1 $ t t 0 3 3 q q 1 #     . +.<.$.&.<.>.%.+.<.T.~.(.Q.!.Y.%...+.<.<.<.>.9.@.#     j l 0 $ # # ",
"# # 1 $ # 2 y 2 1 q k k z 0 $   = M v v z v 2 #     X o.<.$.o.o.o.o...&.oX@X+X+X+XoX9.$.:.$.o.+.o.%....     # # > 2 # # ",
"# # # # $ 1 1 t g k M v M 3 $ 1 9 t f l k l 2 $     X +.<.%.%.%.%.<.&.7.'.oXXXXXoX'.<.+.%.$.%.%.%.<.o.@     $ 1 $ # # # ",
"# # @ # 1 $ # g v M A A S 3 # q q 2 t l k k 2 $     @ o.<.$.#.o.<.Q.OX'..XXXXXXXoX`.<.+.$.$.%.$.%.<.+..     $ 2 # . # # ",
"# # # # # # > 1 $ d H g 2 1 $ 3 q g l C M C 2 #       ..%.$.o...%.oX@X+XoXoXoXXXoX`.$.X.o.$.%.$.%.<.o.      q > $ @ # # ",
"# # # # # # $ # O a R y . $ 1 2 q k v A A C 2 # % : 5 %.7.<.<.%.7.Q.OX`.`.`.`.XXoX'.6.%.<.%.%.%.$.<.o.# # X q + # X # $ ",
"# # $ # # $ 1 > # 0 z q > $ = q g z M C M +   : L.].Q.`.`.`.`.OX!.7.&.<.<.%.7.'.oXXX'.OXQ.<.o.$.$.%.%.o.$.X.#     # # # ",
"# # # # # # # $ $ # . $ 1 # 1 v N A C M C     <  X@X+XoXoXoX+X@XoX&...o.$.o.,.XX+XoXoXoXXX%...o.,.,.,.<.6.$..     $ # # ",
"$ # # # # 3 d t q q d 2 $ > > 2 t A C A g     % Q.+XXXXXXXXX|.OX(.<.o.%.o.X.%.(.|.`.XXoX'.7.&.<.+.+.o.%.<.o.X     $ # # ",
"$ # # $ $ t M l z c M 0 # $ $ . 1 A A L 0     % !.+XXXXXoX`.7.&.<.%.&.+.u ; u %.<.7.`.oXXX`..XE.b * i +.6.o.O     $ # # ",
"# # . > 0 f l k k h l k f 2 $ 1 1 2 2 3 1     < Q.+XXXXXoX`.%.X.+.%.<.+.3 & 3 X.o.%.'.oXXXoX+X`.u . e X.,...@     $ # # ",
"# # X = q d g g g g g k v 3 $ 1 > # $ # $     : Q.+XXXXXoX'.<.+.$.$.<.+.r * r o.%.<.`.oXXXXX+X!.u o r %.8.%.#     # # # ",
". # 3                   h 2 $ # 2 l g l 2     % (.+XXXXXoX'.<.o.%.$.<.+.r * r +.%.<.'.oXXXXXoX).g   j R.#XY.%     @ # # ",
"# # q                   z 2 $ > 2 k k z t     <  X@X+XXXoX'.%...+.%.<.o.e o e X.o.%.XXoXoXXX+X(.r   r oX@XoX<     # # # ",
"# $ 0 # X X < > < % : 1 A 2 # q q 2 q g u     % L.{.(.XXoX'.7.%.<.$.,.o.j ; u %.<.7.W.|.{.XX+X).b 1 c L.[.L.:     $ # # ",
"    # ..o.%.Y.`.!.(.].A.#     2 3 a O           % % 6 !.+XXX`.|.(.<.+.$.+.X.%.(.|.W.;.*.-.).oXXX).|.L.6 > % $ # # # # # ",
"    # &.9.0.+X@X@X@X@XoX.     # 1 k                   (.+XXXoX+XXX&...o.$.o.<.XX+X X*.V *.).oXXX@X@XoX      # $ .   # # ",
"    . ..o.%.R.~.Q.(.].L.6 : # # 2 z 1 = < : < # # # 6 E.+X XXXoX'.7.%.<.<.%.7.`.+X).-.=.-.).oXXX(.].L.%   O t d q q # # ",
"# # X # . # : < % : > 6 a.P.a.#   1 L.].Q.(.!.E.b.z.b.N.N.J. XXXXX`.`.'.`.`.`.XXXXXX).).{.XX+X(.7 1 $ # j n v l l M 1 . ",
"# # #                   P.XXJ.O   .  X@X+X+X+XoXI.J.J.B.m.N.XXoXXXoXoXoXoXoXoXoXXXoXoXoXoX+X@X X      7 q q f l v Z 1 . ",
"# # #                 # l.J.l.6 # 6 (.+XXXXXXX XJ.N.N.N.B.V. XXX X X X XXX X XXX X XXXXX'.Q.{.S.<     y 0 - q g N E 1 . ",
"# # # # # $ > = $ 1 3 2 # : 6 l.M.n. XXXXXXXXXXX XXX XC.B.N.C.V.N.V.V.C.N.V.V.N.N.N.N.U.b.p % % 3 > 1 2 q t g M k k = . ",
"# # # # . > 2 $ . 3 M l       B.^.U.XXoXXXXXXXXXoXoXXXN.m.B.B.B.B.B.B.B.B.B.B.B.B.B.B.J.z.      1 g 1 O h v N E a . # # ",
"# # # # # $ = q t f l g     # b.J.V. XXX XXXXXXXXXXX XZ.N.N.N.N.N.N.N.N.N.N.N.N.N.N.N.P.b.#     1 2 1 : 3 0 q f 2 # # # ",
"# # # # 1 $ $ g M l k g     : z.P.N.N.N.J. XoXXXXXXXXX XXX XN.B.N.N.N.N.N.N.N.N.N.N.N.P.z.:     $ $ $ $ $ $ # $ # @ # # ",
"# # # # $ 2 q q q d l f     : B.^.J.B.m.N.XXoXXXoXXXXXoXoXoXN.B.N.N.N.N.N.N.N.N.N.N.N.P.z.#     2 g f j f g q $ # @ # # ",
"# # # $ $ 2 t q 2 s l g     : a.B.x.B.B.Z.'.XX X X X X XXX XJ.B.N.N.N.N.N.N.N.N.N.N.N.J.b.#     3 M l z l v d , $ # # # ",
"# # # 1 q q 0 q 0 d v l h g j < < 6 b.P.N.V.N.H.V.V.N.N.V.N.N.N.N.N.N.N.N.N.N.N.N.N.N.I.z.:     q z l l k l g z 1   # # ",
"# # 1 2 q 0 0 0 9 t g k k k k       x.I.N.B.B.B.B.B.M.N.B.B.N.N.N.N.N.N.N.N.N.N.B.N.J./.B.:     q g g g k k l v q # # # ",
"@ # q 0 0 q 0 0 q 0 2 d k g g     # z.P.N.N.B.N.N.N.N.N.N.N.N.N.N.N.N.N.N.N.N.N.N.B.z.B.l.#   . 3 3 0 9 g l k g k l 1 . ",
"# # q q 0 q q 0 0 q t k M z l     # z.J.B.N.N.N.N.N.N.N.N.N.N.N.N.N.N.B.N.N.N.N.J.v.6 : # $ $ 2 3 q q 9 k k l v v M 1 . ",
". $ q q 0 0 0 0 2 t l M A A N .   : z.J.N.J.J.I.J.N.J.J.P.I.J.J.J.N.B.N.P.P.J.J.U.n.      1 > # 1 q 9 3 f g v A A A 1 . ",
"# # 1 2 q 0 0 f f g M N A C M     # b.I.N.b.b.c.B.B.B.b.x.v.z.z.b.N.N.B.x.b.b.M.J.z.#     1 > : 1 q y f v M M C C A 1 . ",
"X # # 1 q q 0 g l v A C C C M .   # z./.n.6 # 2 r.u.w.4 # # # # 6 x./.b.6 # 5 r.u.w.#     1 > # 1 q g z C A C C C A 1 . ",
"# # # 1 q q 0 g h z C C N A M     # z./.x.      2.y.2.            z./.z.      4.y.2.#     1 $ $ = # g C C C C C C A 1 . ",
"# # # 1 f q 0 f g v A C C S D     # v./.x.#   # 4.y.4.#         # z.^.v.#   # 4.y.4.#     $ $ $ =   k E C N C C A L 2 . ",
"# # X # 5 q y l v M C C C k d     : z./.z.#   @ 7.y.2.#         # z./.x.#   # 4.y.4.X     # $ $ $ # q k M C C A z x > . ",
"# # X # + d M C A C C A L 2 .     : B.'.B.#   # e.i.e.#         : N.'.B.#   # e.p.e.#     . # 1 > 1 $ + M L S L d . # # ",
"# # # # # 2 3 M A C A k q = #     # l.J.l.#   @ 1.t.3.#         : l.J.l.# O # 1.t.3.@     # # # # # $ = q d s f 2 # # # ",
"# # # # # # + m H A L q   # # # # X # : : # # . # # @ # . # @ 1 k : : : M C M # # #   . # # # # # + # 1 $ # $ $ # # $ # ",
"# # # # # # # = 1 1 2 # # # # # # #       # # #       # # # # # 1       1 2 1       # # # $ # # # # # # # # # # # # # # ",
"# # # # # # # . . . . @ # # # # # #       # # #       # $ # # # O       . . .       # # # # # # # # # # # # # # # # # # "
};
