/* XPM */
static char *xpm_[] = {
/* columns rows colors chars-per-pixel */
"60 60 190 2 ",
"   c #020202",
".  c #0A0506",
"X  c #060807",
"o  c #090906",
"O  c #060508",
"+  c #0A0709",
"@  c #070909",
"#  c #0C0B0B",
"$  c #120D0D",
"%  c #110F00",
"&  c #0E100F",
"*  c #0F1002",
"=  c #141407",
"-  c #12100E",
";  c #1A1A0D",
":  c #1A100F",
">  c #0E0E11",
",  c #130F10",
"<  c #190F11",
"1  c #0E1112",
"2  c #151212",
"3  c #1B1515",
"4  c #151817",
"5  c #1C1A16",
"6  c #151619",
"7  c #1A171B",
"8  c #16191C",
"9  c #1C1A1A",
"0  c #201616",
"q  c #211917",
"w  c #231C1B",
"e  c #20171A",
"r  c #1F2112",
"t  c #232316",
"y  c #25211D",
"u  c #29211E",
"i  c #292A1E",
"p  c #1B1D21",
"a  c #281F20",
"s  c #262221",
"d  c #2B2522",
"f  c #272820",
"g  c #2D2925",
"h  c #2F2A28",
"j  c #2F2629",
"k  c #312A27",
"l  c #332D2A",
"z  c #392E2D",
"x  c #302625",
"c  c #2F3126",
"v  c #36312E",
"b  c #39312E",
"n  c #37392D",
"m  c #373332",
"M  c #3C3532",
"N  c #3E3A35",
"B  c #3F3D39",
"V  c #7A0E26",
"C  c #413635",
"Z  c #413936",
"A  c #423638",
"S  c #443B39",
"D  c #493D3D",
"F  c #45413D",
"G  c #45413D",
"H  c #49423F",
"J  c #4B483F",
"K  c #484540",
"L  c #4A4641",
"P  c #4C4341",
"I  c #4E4A45",
"U  c #4D4943",
"Y  c #514443",
"T  c #514C46",
"R  c #524E4A",
"E  c #544F4A",
"W  c #544D49",
"Q  c #53504A",
"!  c #54514A",
"~  c #56534C",
"^  c #57544D",
"/  c #53524D",
"(  c #58554E",
")  c #595751",
"_  c #5A5851",
"`  c #5D5A53",
"'  c #5D5A55",
"]  c #5D5B55",
"[  c #565550",
"{  c #615D56",
"}  c #615E59",
"|  c #61605B",
" . c #6B6761",
".. c #676B6C",
"X. c #696B6C",
"o. c #6A6E72",
"O. c #6E7374",
"+. c #6D7479",
"@. c #717375",
"#. c #797875",
"$. c #737679",
"%. c #79777A",
"&. c #757A7C",
"*. c #787C7D",
"=. c #737975",
"-. c #873547",
";. c #883346",
":. c #975264",
">. c #995264",
",. c #7D807F",
"<. c #7B7F82",
"1. c #767980",
"2. c #7C8183",
"3. c #7A888D",
"4. c #778389",
"5. c #7D8B92",
"6. c #858686",
"7. c #81868A",
"8. c #828A8B",
"9. c #898F8D",
"0. c #828E93",
"q. c #818F98",
"w. c #84939A",
"e. c #899398",
"r. c #8D9DA3",
"t. c #96A5AC",
"y. c #9AA9B2",
"u. c #9DAFB9",
"i. c #A0AEB7",
"p. c #A6B2BD",
"a. c #FACFAF",
"s. c #EDCEB5",
"d. c #F7DFBF",
"f. c #FFDEBF",
"g. c #F1D5BD",
"h. c #E8C4AC",
"j. c #A5B3C1",
"k. c #AFBFCE",
"l. c #B1BECD",
"z. c #AFBED1",
"x. c #AEC0CE",
"c. c #B1C0CE",
"v. c #B4C4D4",
"b. c #B6C8D6",
"n. c #B8C8D7",
"m. c #BCCCDC",
"M. c #B9C7D9",
"N. c #BED0DF",
"B. c #C0CCDC",
"V. c #C7D9DD",
"C. c #CCDCDE",
"Z. c #C0D0DF",
"A. c #FADEC2",
"S. c #FFE7C8",
"D. c #FEE4C3",
"F. c #FFF0C9",
"G. c #C0CFE2",
"H. c #C4D5E4",
"J. c #C7D9E2",
"K. c #C9DAE1",
"L. c #C6D6E8",
"P. c #C6D9EA",
"I. c #C8DAEB",
"U. c #CFE3E4",
"Y. c #D1E3E7",
"T. c #D3E4EA",
"R. c #D9E6EB",
"E. c #D6E9EE",
"W. c #DAEAED",
"Q. c #CFE2F4",
"!. c #D1E2F4",
"~. c #D7EAF1",
"^. c #DAECF1",
"/. c #DAEEFF",
"(. c #D3E4F8",
"). c #DEF1F6",
"_. c #DEF2F9",
"`. c #E3EFEF",
"'. c #EDEFEE",
"]. c #ECF0EF",
"[. c #E2EDF2",
"{. c #EEEFF1",
"}. c #E2F4F6",
"|. c #E9F6F6",
" X c #E2F5FC",
".X c #E5F9FE",
"XX c #EBFEFE",
"oX c #F2FFFF",
"OX c #FCFFFF",
"+X c #F4F8F7",
/* pixels */
"# # # # . . .             # # $ # . .       .   # # # # # . . O       .           # $ o .       . . O . O       # $ # # ",
"# # # # 2 2 2 5 5 9 5 5 9 # # # # - 2 5 5 9 5 5 - # # # - 2 2 3 5 9 5 5 5 5 5 5 9 # # , 2 5 5 9 3 2 2 3 8 9 9 9 # # # # ",
"# #   2 l M S / ' ) ( ` | 3     o d B } ) ) '  .m       y b C K _ _ ` ' ` _ ( _  .d   y M _ ] } ! Z S Z ! ` _  .s   # # ",
"# # 2 y M S U Q ^ ~ ( T R y 2 9 d N L ( ~ ^ T E N 5 9 2 l M H I ^ R I I I ! ( R E v 5 l M I I T K N K L / [ R Q b 5 # # ",
". 2 M N H Q { ~ ! ~ ( U S M b L R ] _ ! ! ~ F N F E N l B H _ _ ^ I S S N ~ ' I N H I L F S S S G S R } ^ ^ I M F R 5   ",
"X $ u g b B U Q ^ ~ ' N d s u l N L I ^ ~ ~ N l m b l k N G L U ` F y l b G I S l M b b b M b g k b S U E ' L l b M 2 . ",
"# # 5 y k v B T ^ ^ } b $ 3 e d l N L ) ^ ) b d g k l k N G N G } S $ u l M F M d k g g g l g 2 y g M B R ' F d k l - . ",
"# # e s k M S T ( I L k 3 w e w y l M L F L d w 9 2 9 s k b S S U b 3 w w l b g e w s 3 2 2 2 , 3 w g b S I b e 2 2 # # ",
"# $ w d z C S / ` T F k q w w e w g b S S S s q 3 . 3 w d l S F H b 3 w e k b d q w w # # # > > 2 w d l C J b q ,   # # ",
"# # 2 9 w l N L R F N s 2 3 3 q w k b F N N w 6 2 # 6 3 y g M N B k 5 5 3 w s w 3 3 3 2 $ $ , > 2 3 w d l M g 3 , # # # ",
"# # . # . w l C F M b 9 + # , e s k M L b l 2 # # > # # 3 w k l k d w 2 # # # # # # # # # , $ $ # # 3 w 3 3 < # # # # # ",
"# # # # # e s l N g 7 2 $ , , 2 3 s x C d 3 2 , 2 , 2 > 2 2 s s d w 2 2 , , # 3 s y y y w 2 $ , , $ 2 2 u g s d 2 . # # ",
"# # # # # 3 w g b 9 O $ 2 , , > 2 9 u b 9 . 2 : < < , > # #     O 3 # , 6 $ o w M b b b l $ # $       # d b l M 3   # # ",
"# # # # , 2 2 2 3 2 - $ 2 $ > > , 2 2 3 2 , 2 2 2 < - $ w g       2 2 , $ 3 e e w g l k k g w $       e g l h h d d 2 @ ",
"# # # # 2 $ # # # $ 2 2 2 $ , $ # > # # , 2 $ 2 2 2 , $ d k + # + , , $ - e w w 3 d l k k b d $ & , & w d k k k z M 2 . ",
"$ # o # - , $ # # $ , $ # 9 w # # , , , 3 w 2 , 2 # 3     # ..<.X.#     e e w q 3 d l M N . . > V.{.K.>   O k S C D 2 . ",
"# # # # - 2 2 2 3 3 3 2 # 5 e 3 2 $ , , 3 e 2 - 2 - 5       +.8.+.      w e w w w g b C A     O  XOX X1     b D M M 2 . ",
"# # $ - $ 3 w l b z b e + # , b k . # # # $ $ $ 2 y 3 # X 1 %.9.#.> @ + w 5 3 w g z C S M # 1 8 W.OXR.1   . C Y y . # # ",
"# # $ , > 3 w s d g l u 9 2 , y y e 5 5 w w 2 #     # X.+.#.s.d.s.%.O...#         O O O 2 V.[.R.A.S.s.#     d l e $ # # ",
"# # 2 $ # 3 u 3 2 w k k b 0 $ . - M b z z b 3 #     # %.4.6.f.F.f.6.2.$.                # XXOXOXD.D.a.$     # $ , 6 # # ",
"# # # # $ 2 2 y g h N b M 3 $ 2 q u d l k l 3 #     o O.&.<.s.d.s.*.1.O.4 2 1 # , > # @ 6 Y.|.).g.A.h.#     - 2 $ # # # ",
"# # @ # 2 $ # g b M S D H 5 # w w 2 y l k l 3 ,     X O.,.&.,.2.,.&.O.2.Y.^.E.~.W.U.&.X.O.2.2.2.,.6.=.#     , < # . # # ",
"# # # # # # , 2 $ s P g 3 2 , 9 w g l C M C 3 #     # O.2.&.+.@.+.O...*.XXoXoXoXOXXX8.&.<.O.O.@.O.&...@     9 , $ # # # ",
"# # # # # # $ # O w T w . $ 2 3 w k z D C D 3 #     @ @.2.&.&.&.&.2.&.8. XXX.X.XXX).2.@.&.&.&.&.&.2.@.X     w # # @ # # ",
"$ # # # # > 2 $ # O     $ $ 2 w d b M C C D 3 #     @ O.2.&.&.O.2.~.}.)..X.X X.XXX_.2.O.&.&.&.&.&.2.O.@     y e 2 # # # ",
"# # # # # # # $ #       2 # , l M D C C S P e $       X.&.O.O.X.*.XXOXoXXXXXXX.XXX).*.X.O.&.%.&.&.,.O.      l M w $ # # ",
"# # # # # 9 s w w o # X $ $ $ 3 y D C D k e 3 $ > - 4 &.8.2.2.*.8.E.}.).).).)..XXX).8.&.2.&.&.&.&.2.O.& . # d l 9 $ # # ",
"# # # # $ s .   # X.<....     O 2 S D P w     # K.`.W.).).)._.}.~.8.*.2.2.&.8._.XX.X).}.^.2.O.&.&.&.&.O.&.X.#     $ # # ",
"# # X $ q d     @ 2.e.*.      2 < 3 3 3 2     1  XOXoXXXXXXXoXOXXX&...@.%.O.2..XoXXXXXoX X*...@.<.<.<.2.7.&.X     $ # # ",
"# # # 2 w d .   # ..<...6 $ > $ , # $ # $     & ~.oX.X.X.X.X).}.E.2.@.&.O.X.*.E. X)..XXX).8.*.2.@.@.@.&.2.O.X     # # # ",
"# # w e w e 3 d g # # 4 C.].V.&   . g l 3     & E.XX.X.XXX}.8.&.2.&.*.O.i ; f &.2.8. XXX.X).|.Y.c = i @.7.O.+     @ # # ",
"@ # w w e w w k b     #  XOX X2     g b y     & E.oX.X.XXX).&...O.&.<.@.5 * 5 X.O.&._.XX.XXXOX).i o 5 X.2.X..     @ # # ",
"# # y w 3 s l M C     # E.OXE.2     e g d     > E.oX.X.XXX).2.O.&.&.2.@.t = t $.$.2.}.XX.X.XoX^.f o t &.9.&.@     # # # ",
"@ # 3 e u k b N M     > E.OXE.-         .     & ~.oX.X.XXX).2.O.&.&.*.@.t = t @.&.2._.XX.X.XoX^.g . i Y.+XY.#     # # # ",
"# # + w N M S C M O   # ^.OX^.1                 ~.oX.X.XXX_.&...@.&.2.@.r % 5 X.O.*..XXXXX.XoX~.r   t XXOXXX1       # # ",
"# # # 2 3 z D C C     1 T.OXR.1     & 1 1 # & p T.XX X.XXX X8.&.2.&.<.@.i ; i *.2.8.R.}.[..XoX^.n 2 n K.'.K.&   . w # # ",
"# # o # O j H S S     # v.!.v.#   > K.[.E.E.^.E.H.m.H. X.X.X}.}.W.2.@.&.O.X.&.E.}.R.>.-.:.[.XX.X^.[.C.p 1 2 k l l b 2 . ",
"# # o # $ 2 9 9 3     # n./.b.    .  XOXoXoXoXoXm.n.m..XXXXXXXoX.X*.X.@.&.O.2..XOX X;.V ;.[.XXXXoXOXXX.     d l b C 2 . ",
"# # # # 2 $ # $ $     # j.H.p.7 # 8 ^.oX.X.X.X XZ.M.m._..X X XXX X8.&.2.2.&.8. XXX^.:.-.:.^.XX X^.`.K.-     e g N Y 2 . ",
"# # # # # , 2 $ 2 2 9 5 # # 8 j.M.v. XXX.X.X.X XN.n.m.N.m.H. XXX.X).).)._.).)..X.X.X[.^.[..XoX~.9 & # 2 w w g b k k - . ",
"# # # # . , 2 $ . 9 M l       n.Q.I..XXX.X.XXX Xm.n.n.n.n.m. XXXXXXXXXXXXXXXXXXX.XXXXXXXXXoXOX X      . h M C W a . # # ",
"# # # # # $ - w y d l g     # c.H.m. X X X.XXX XH.m.m.m.n.H. X.X X X X X X X X X X.X X X XW.[.V.#     # 9 e w d 3 # # # ",
"# # # # 2 $ $ g M l k g     > k.H.m.m.m.H. X.X.X X.X Xm.n.m.m.m.Z.Z.N.m.m.m.m.m.N.m.m.I.v.p - # $ # $ $ # $ $ $ # @ # # ",
"# # # # $ 2 w w w s l d     > n.!.H.n.n.m. XXX.XXXXXXXm.n.m.n.n.n.n.n.n.n.n.n.n.m.m.m.H.k.      3 g d d d g e $ # @ # # ",
"# # # $ $ 3 y w 3 a l g .   > p.n.l.m.m.m. X.X X X.X_.N.n.n.m.m.m.m.m.n.n.m.m.m.m.m.m.H.k.>     5 M l l l b s $ $ # # # ",
"# # # 2 w w e w e s b l h g d 1 > 8 c.H.m.N.m.G.m.m.m.m.n.m.m.m.m.m.m.m.m.m.m.m.m.m.m.L.k.#     w b l l l g k l 2   # # ",
"# # 2 3 w e e e q y g k k k k       l.P.n.m.n.n.n.n.n.m.m.m.m.m.m.m.m.m.m.m.m.m.n.m.H.!.n.>     w g g g g l l b w # # # ",
"@ # w e e w e e w e 2 s k g g     # k.L.B.m.m.m.m.m.m.n.m.m.m.n.m.m.m.m.m.m.m.m.m.n.v.n.p.#   . e 5 e e g l g g k l 2 . ",
"# # w w e w w e e w y k M z l     # k.H.n.m.m.m.m.m.m.m.m.m.m.m.m.m.m.m.m.m.m.m.H.x.8 > # $ $ 3 9 w w q k k l b b M 2 . ",
". $ w w e e e e 3 y l M D S N .   > k.H.m.H.H.P.H.m.H.H.L.P.H.H.H.m.n.m.L.L.H.H.I.v.      2 , # 2 w q 5 d g b S C D 2 . ",
"# # 2 3 w e e d d g M N S C M     # c.P.m.c.c.z.n.n.b.c.l.x.k.k.c.m.m.n.l.c.c.M.H.k.#     2 , > 2 w u d b M M C C D 2 . ",
"o # # 2 w w e g l b D C C C M .   # k.!.v.8 # 3 w.y.q.6 # # # # 7 l.!.c.8 # 3 q.y.q.#     2 , # 2 w g z C D C C N D 2 . ",
"# # # 2 w w e g h z C C N D M     # k.(.l.      3.t.3.            k.!.k.      5.t.3.#     2 $ $ - # g C C C C C C D 2 . ",
"# # # 2 d w 0 d g b S C C D A     # x.!.l.#   # 5.t.5.#         # k.Q.x.#   # 5.t.5.#     $ $ $ -   k Y C N C C D P 3 . ",
"# # o # 5 w u l b M C C C k s     > k.!.k.#   @ 8.t.3.#         # k.!.l.#   # 5.t.5.o     # $ $ $ # w k M C C S z x , . ",
"# # X # + s N C D C C D P 2 .     # n./.n.#   # w.u.w.#         > m._.n.#   # w.i.w.#     . # 2 , 2 $ + M P D P s . # # ",
"# # # # # 3 9 M S C D k w - #     # j.H.j.#   @ 4.r.4.#         > j.H.j.# O # 4.r.4.@     # # # # # $ - w s a d 3 # # # ",
"# # # # # # + m H D P w   # # # # o # > > # # . # # @ # o # @ 2 k > > > M C M # # #   . # # # # # + # 2 $ # $ $ # # $ # ",
"# # # # # # # - 2 2 3 # # # # # # #       # # #       # # # # # 2       2 3 2       # # # $ # # # # # # # # # # # # # # ",
"# # # # # # # . . . . @ # # # # # #       # # #       @ $ # # # O       . . .       # # # # # # # # # # # # # # # # # # "
};
