/* XPM */
static char *xpm_[] = {
/* columns rows colors chars-per-pixel */
"60 60 191 2 ",
"   c #020202",
".  c #0A0505",
"X  c #060807",
"o  c #0A0906",
"O  c #060508",
"+  c #090709",
"@  c #070909",
"#  c #0C0B0B",
"$  c #110F02",
"%  c #120D0D",
"&  c #0E100E",
"*  c #13110E",
"=  c #191A0C",
"-  c #171208",
";  c #0E0E11",
":  c #130E11",
">  c #180F11",
",  c #0E1012",
"<  c #151212",
"1  c #1B1515",
"2  c #1C1A16",
"3  c #151619",
"4  c #1A1719",
"5  c #16181C",
"6  c #1D1A19",
"7  c #131917",
"8  c #201615",
"9  c #211917",
"0  c #201718",
"q  c #231C1B",
"w  c #1E2018",
"e  c #212214",
"r  c #25221D",
"t  c #29211E",
"y  c #27291C",
"u  c #2A2A1E",
"i  c #1A1E20",
"p  c #241E20",
"a  c #281F20",
"s  c #262121",
"d  c #2B2523",
"f  c #2D2925",
"g  c #2F2A29",
"h  c #2F2629",
"j  c #312726",
"k  c #312A26",
"l  c #332D2A",
"z  c #382E2D",
"x  c #36312E",
"c  c #39322E",
"v  c #35362B",
"b  c #372E31",
"n  c #373332",
"m  c #3C3432",
"M  c #3E3A35",
"N  c #3F3D39",
"B  c #780E25",
"V  c #413636",
"C  c #413936",
"Z  c #403738",
"A  c #443B3A",
"S  c #493E3D",
"D  c #45413D",
"F  c #45423D",
"G  c #48423F",
"H  c #4A413F",
"J  c #484540",
"K  c #4A4641",
"L  c #4C4441",
"P  c #4E4A45",
"I  c #4D4943",
"U  c #514443",
"Y  c #504D46",
"T  c #524E4A",
"R  c #544F4A",
"E  c #544D49",
"W  c #594E4C",
"Q  c #53504A",
"!  c #54514A",
"~  c #56534C",
"^  c #55524D",
"/  c #57544D",
"(  c #53524D",
")  c #58554E",
"_  c #595751",
"`  c #5A5851",
"'  c #5D5A53",
"]  c #5D5A55",
"[  c #5D5B55",
"{  c #565550",
"}  c #615D56",
"|  c #615E59",
" . c #61605B",
".. c #6B6761",
"X. c #666B6D",
"o. c #696C6C",
"O. c #686D70",
"+. c #6E7375",
"@. c #6D7578",
"#. c #717475",
"$. c #787775",
"%. c #74777A",
"&. c #757A7C",
"*. c #797C7D",
"=. c #767976",
"-. c #873344",
";. c #893449",
":. c #975262",
">. c #995262",
",. c #7C817F",
"<. c #7B7F82",
"1. c #777C80",
"2. c #7B8283",
"3. c #75838A",
"4. c #7E8589",
"5. c #7A888D",
"6. c #768487",
"7. c #7E8C92",
"8. c #838886",
"9. c #82898B",
"0. c #898F8D",
"q. c #858789",
"w. c #858F95",
"e. c #839096",
"r. c #84939A",
"t. c #8D9DA3",
"y. c #96A5AC",
"u. c #98A7AE",
"i. c #9AAAB4",
"p. c #A0AEB7",
"a. c #F8D0AD",
"s. c #EECEB5",
"d. c #EDCDB8",
"f. c #F7DEBF",
"g. c #FEDEBF",
"h. c #F4D6BC",
"j. c #E5C6AA",
"k. c #A5B3C1",
"l. c #AFBECD",
"z. c #A8B4C4",
"x. c #B2BFCD",
"c. c #AFC1CE",
"v. c #B1C1CE",
"b. c #AFC0D0",
"n. c #B4C4D3",
"m. c #B9C6D7",
"M. c #B6C6D9",
"N. c #BBC7DA",
"B. c #BCCCDC",
"V. c #B9CAD8",
"C. c #BED0DE",
"Z. c #C1CEDE",
"A. c #C0D1DF",
"S. c #C7D9DF",
"D. c #C9D9DD",
"F. c #FBDDC3",
"G. c #F7E0C0",
"H. c #FEE3C5",
"J. c #FEEFC8",
"K. c #FFE8C2",
"L. c #C4D4E5",
"P. c #C9DAE2",
"I. c #C5D5E8",
"U. c #C7D9EB",
"Y. c #C9DAEB",
"T. c #C5D8E7",
"R. c #CFE2E6",
"E. c #CFE2E9",
"W. c #D3E4EB",
"Q. c #D8E7ED",
"!. c #D6EAEE",
"~. c #D9EAEE",
"^. c #DDF0EE",
"/. c #CEE2F4",
"(. c #D2E3F4",
"). c #D7EAF0",
"_. c #DBECF2",
"`. c #DBEEFD",
"'. c #DDF1F6",
"]. c #DEF2F9",
"[. c #E8EEEF",
"{. c #EEF0EF",
"}. c #E1EEF3",
"|. c #E3F4F5",
" X c #E8F6F7",
".X c #E2F6FD",
"XX c #E5F9FE",
"oX c #EBFEFE",
"OX c #F3FEFE",
"+X c #FDFFFE",
"@X c #F5F7F6",
/* pixels */
"# # # # . . .             # # % # . .       .   # # # # # . . O       .           # % X .       . .   .         # % # # ",
"# # # # < < < 2 2 6 2 2 6 # # # # * < 2 2 6 2 2 * # # # * < < 1 2 6 2 2 2 2 2 2 6 # # : < 2 2 6 1 < < 1 5 6 6 6 # # # # ",
"# #   < l m A ( ] _ ) '  .1     o d N | _ _ ] ..n       r x V J ` ` ' ] ' ` ) ` ..d   r m ` [ | ! C A C ! ' ` ..s   # # ",
"# # < r m A I Q / ~ ) Y T r < 6 d M K ) ~ / Y R M 2 6 1 l m G P / T P P P ! ) T R x 2 l m P P Y J M J K ( { Q Q x 2 # # ",
". < m M G Q } ~ ! ~ ) I A m x K T [ ` ! ! ~ F M F R M l N G ` ` / P A A V ~ ] P M G P K F A A A D A T | / / P m F T 2   ",
"X % t f c N I Q / ~ ] M d s t l M K P / ~ ~ M l n c l j M F K I ' F r l x F P A z m c x x m x f k c A I R ] K l c m < . ",
"# # 2 r j x N Y / / | z % 1 q d l M K _ / _ x d f k l k M F M D | A % t l m F m d j f f f l f 1 r f m N T ] F d g l * . ",
"# # q s k m A Y ) P K j 1 q q q r l m K F K d q 6 < 6 s j c A A I x 1 q q l x f q q s 1 < < < : 1 q f x A P c q 1 < # # ",
"# % q d z V A ( ' Y F k 9 q q 0 q f x A A A s 9 1 O 1 q f z A F F z 1 q 9 j c f 8 q q : # # # ; * q d l N I x 9 :   # # ",
"# # < 6 q l M K T F M s < 1 1 9 q k c F M M q 1 < # 1 1 r f m m M k 8 0 1 q s q 1 1 1 < : % % ; < 1 q d l m d 1 : # # # ",
"# # . # . q l V F m c 6 + # ; q s k m K c l < # # ; # # 1 q k l l d q < # # # # o # X # # % % # ; # 1 q 1 1 < # # # # # ",
"# # # # # q s l M f 4 < % : : < 1 s j V d 1 < : < : < ; < 1 r s s q < < : : # 1 s r r r r * # < : ; < < s f d d < . # # ",
"# # # # # 1 q f x 6 O % < : : ; < 6 t c 6 . < > < < : ; # # 1 6 q 1 # < < % o q m l l x l % % : % % # # d x l m 1   # # ",
"# # # # : < < < 1 < * % < % ; ; : < < 1 < : < < > % < # s f j t > < : : % 2 9 6 q f l l j f q % : % 1 1 f l j k d d < @ ",
"# # # # < % # # # % < < < % : % # ; # # : < % < < < : % f x x f : < > % % 6 q q 1 d l k k c j % < : 2 r f l k k z m < . ",
"% # X # * : % # # % : % # 6 q # # : : : 8 q < : < # 1 q f k .   . q # 1 q q q q 1 d j m V S m #       1 d f z V V S 1 . ",
"# # # # * < < 1 1 1 1 < # 2 q 1 < * < : 1 q < % < * 0 q f k       t # 1 q q q q q f z V A m g #       q k l c A m m < . ",
"# # % * % 1 q l c l x 6 # # < m k o # % # % % % 1 r 6 2 r f X # # f . 1 r 9 1 q g m A S A * # # ; * < l V A A U r o # # ",
"# # % : ; 1 q s d f x r 6 < % r r q 2 2 q q < # < 1 q O . # X.<.X.+     1 r r d x m A l s     ; P.{.S.<   . f k q % # # ",
"# # < % # 1 t 1 < q j k z 8 %   * m x z z x 1 # % # q       @.9.+.      # f m V U S G 1 .       .X+XXX*     # # % 1 # # ",
"# # # # % < < r f k m c m 2 % < 9 r d l j l 1 % : # r # X , =.0.$.; + . # 1 2 q p q q * % , & w Q.+X~.,     : * % # # # ",
"# # @ # < % # f x m A A S 2 # q q 1 r l j l 1 %     # X.+.$.s.G.d.=.+.X.#               ; S.}.~.F.H.s.%     % < # . # # ",
"# # # # # # : < % s G f 1 < % 6 q f z V m V 1 #     # =.2.8.g.J.g.8.4.%.                # XX+X+XH.K.a.%     q % % # # # ",
"# # # # # # % # O p W t . % < 1 q j z A V A 1 #     . +.&.,.s.f.s.2.&.+.7 * & , , # # X 1 W. X}.h.f.j.#   O q # # @ # # ",
"# % % # # # < % # 6 b 6 % : : q d c m V V A 0 %     X +.2.&.*.2.2.&.#.2.W.^.!._.~.R.&.X.+.2.2.2.2.8.%.+     r q < # # # ",
"# # # # . # % # % # . % < # < l m A V V A L 6 #     X +.2.%.@.+.@.+.o.*.oX+XOXOXOXoX9.&.2.#.+.+.@.&.O..     j m q % # # ",
"# # # # # 2 s r q t s 1 % % % 1 s A V A j q 1 %     . +.2.&.&.&.&.2.&.9.].oXXXXXoX'.2.+.&.&.&.&.&.2.+..     f x q % # # ",
"# # # # % r m l z l m 6       O < A A J q . : <     O +.2.&.&.#.2.!.|.'.XXXXXXXXoX'.2.+.&.*.&.&.&.2.+.#     f l q % # # ",
"# # . % 6 d l j l f l d       % < 1 1 6 < % : %       X.&.+.#.o.&.oX+XOXoXoXoXXXoX'.&.X.+.&.&.&.&.2.+.      m A p % # # ",
"# # X < q d l j j f f f X # . : : # % # * < % % # & 7 &.9.2.2.&.9.!. X'.'.'.'.XXoX'.9.*.2.&.&.&.&.2.+.# # # z V q # # # ",
"# # q q q q 9 f l     # X.*.o..   . f l 2     # P.}.~.'.'.'.'.|.!.9.&.2.2.&.9.'.oX.X|.|.!.<.+.&.&.&.%.+.&.X.#     # # # ",
"@ % q q q q q k z     @ +.9.#.@     f x q     , .X+XOXoXoXoXOX+XoX&.X.+.%.+.2.XXOXoXoXOXXX*.X.#.<.<.2.2.9.%.#     # % # ",
"# # r q 1 s l m A     @ &.0.&.#     q g d     , W.OXXXXXXXXX'..X~.2.+.&.+.o.&._. X'..XoX'.9.1.,.#.+.#.&.2.+.#     % # # ",
"@ # 1 q t k c M A O   ; E.@XE.&     d m l     # !.OXXXXXoX'.9.&.2.&.<.#.u = u &.2.9.'.oXXX'. XW.k - y #.4.#..     # # # ",
"# # + q M m A V M O   , _.+X_.&     c A A .   & !.OXXXXXoX'.&.o.+.&.2.#.2 $ 2 o.+.&.'.oXXXoXOX'.y   w o.*.o.#       # # ",
"# # # < 1 z A V C     & ~.+X!.&   O z V d     & !.OXXXXXoX'.2.#.&.&.<.#.e - e +.%.4.'.oXXXXXOX).f o y &.0.&.@     q # # ",
"# # X # O h G A G     & ).+X).,               < !.OXXXXXoX'.2.+.&.&.<.#.e - e +.&.2.'.oXXXXXoX_.u . u W.@XR.#     c < O ",
"# # X # % < 6 6 q     , _.+X_.;                 _.OXXXXXoX'.&.o.+.&.2.#.2 $ 2 o.+.&.XXOXoXXXOX).e   e oX+XoX<     V < . ",
"# # # # < % # % %     , W.+XW.<     ; < ; , , 6 ).oX.XXXoX'.9.&.2.&.<.#.u = u &.2.9.Q.|.}..XOX_.v < v P.{.D.;   . U < . ",
"# # # # # : < % %     ; v.(.v.;   , D.}.~.!._.Q.L.V.A..XoX.X'.|.~.2.+.&.+.o.&._. XQ.:.;.:._.oXXX_.|.P.6 < : s x g j < . ",
"# # # # . : < % .     # m.`.M.    . .X+XOXOXOXoXB.m.B.XXoXoXoXoX.X*.X.+.%.+.2.XX+X.X;.B -.}.XXXX+X+XoX.     m E p . # # ",
"# # # # # % % q q     ; k.L.z.3 # 5 ~.OXXXXXXX.XB.M.A..XXX.XXXoX'.9.&.2.2.&.9.'.oX_.:.-.>.}.oXXX~.}.D.&   O q d 1 # # # ",
"# # # # < % % f m j f d # & 5 z.N.v..XXXXXXXXX.XB.V.V.B.B.L..XXXXX|.'.'.'.'.|.XXXXXX_.}.}..XOX_.i & , % # # # % # @ # # ",
"# # # # % 1 q q q s l g .     V./.Y.XXoXXXXXXX.XB.m.V.V.M.B.XXoXXXOXoXoXoXoXoXXXXXXXoXoXoXOX+X.X.     d d f q % # @ # # ",
"# # # % % 1 r q 1 t k f     # v.T.Z..XXX.XXXXX.XL.B.B.B.V.B..XXX.X.X.X.X.X.X.X.X]..X.X.X.X!.}.P.;   . j l m s % % # # # ",
"# # # < q q 9 q 9 s z j     # l.T.B.C.B.L..XoXXX.XXX.XB.V.B.B.C.B.B.B.Z.Z.B.B.B.B.B.L.T.n.i & < q l f l l k j z <   # # ",
"# # < 1 q q q q 6 r f d     ; V.(.T.B.m.B.XXoXXXoXoXXXB.B.V.V.B.V.V.V.V.V.B.V.V.V.V.L.(.m.      q k f f f l l c q # # # ",
"@ # q q q q q q q q 1 r .   ; k.N.c.V.B.B.'.XX.X.XXX.XC.V.B.B.B.B.B.B.B.B.B.B.B.B.B.x.V.k.#   O q 2 q q f l j f j l < . ",
"# # q q q q q q q q r k z l k # ; 5 n.T.B.B.B.C.B.B.B.B.B.B.B.B.B.B.B.V.B.B.B.B.T.c.5 ; # % % 1 6 q q 9 j k l c x m < . ",
". % q q q q q q 1 r k m A A Z O     l.T.B.T.T.I.B.B.B.T.Y.T.T.T.T.B.V.B.I.I.T.L.Y.n.      < : # < q 9 2 d f x A A A < . ",
"# # < 1 q q q d d k m M V V m .   # c.U.B.v.x.v.m.V.V.v.x.c.v.l.v.B.B.V.x.v.v.m.L.l.#     < : ; < q t d x m m V V A < . ",
"X # # < q q q f z c A V V V m     # v.(.x.5 # 3 r.u.e.3 ; ; # # 5 x.(.v.5 # 1 e.i.e.#     < : # < q f z V A V V V A < . ",
"# # # < q q q f j c A V V V m     # l.(.x.      5.y.5.            l.(.l.      7.y.5.#     < % % * # f V V V V V V A < . ",
"# # # < s q 8 d f l A V M S A     # c.(.l.#   # 7.u.7.#         # l./.c.#   # 7.u.7.#     % % % *   k U V M V V A L 1 . ",
"# # X # 4 q t l c m V V V l s     ; l.(.b.#   # 5.u.7.+         # l.(.x.#   # 7.u.7.X     # % % % # q k m V V A z j : . ",
"# # X # + s m V A V V A J 1 .     ; V.].V.#   # r.i.r.#         ; B.].V.#   # r.p.r.#     . # < : < % + m L S L s . # # ",
"# # # # # 1 6 m A V A j q * #     # k.T.k.#   @ 3.t.6.#         ; k.I.z.# O # 3.t.6.@     # # # # # % * q s a d 1 # # # ",
"# # # # # # + n G A L q   # # @ # X # ; ; # # . # # @ # . # @ < k ; ; ; m M m # # #   . # # # # # + # < % # % % # # % # ",
"# # # # # # # * 1 < 1 # # # # # # #       # # #       # # # # # <       < 1 <       # # # % # # # # # # # # # # # # # # ",
"# # # # # # # . . . . @ # # # # # #       # # #       # % # # # O       . . .       # # # # # # # # # # # # # # # # # # "
};
