/* XPM */
static char *xpm_[] = {
/* columns rows colors chars-per-pixel */
"60 60 244 2 ",
"   c #040405",
".  c #0A0505",
"X  c #0A0907",
"o  c #0A0709",
"O  c #070908",
"+  c #0C0B0B",
"@  c #050508",
"#  c #120D0D",
"$  c #10070C",
"%  c #13100F",
"&  c #19100F",
"*  c #0D0C12",
"=  c #040A1C",
"-  c #050618",
";  c #130E11",
":  c #180F10",
">  c #160A1A",
",  c #0D121D",
"<  c #0B1318",
"1  c #151212",
"2  c #1B1515",
"3  c #1B1916",
"4  c #13141C",
"5  c #1C1619",
"6  c #1D1A1A",
"7  c #17181C",
"8  c #211616",
"9  c #211917",
"0  c #221619",
"q  c #231C1B",
"w  c #2B1E1E",
"e  c #26211E",
"r  c #29211E",
"t  c #070C23",
"y  c #140923",
"u  c #031324",
"i  c #0C1423",
"p  c #031429",
"a  c #0C1828",
"s  c #141A25",
"d  c #1A1B25",
"f  c #151D2B",
"g  c #1C1C2B",
"h  c #161527",
"j  c #1C1D31",
"k  c #0A1C30",
"l  c #281F20",
"z  c #251D2A",
"x  c #221C32",
"c  c #2F132D",
"v  c #19232A",
"b  c #1D2633",
"n  c #082128",
"m  c #262222",
"M  c #2B2523",
"N  c #2E2926",
"B  c #23232A",
"V  c #2E2B2A",
"C  c #2E2629",
"Z  c #322525",
"A  c #302A26",
"S  c #332D2A",
"D  c #392F2D",
"F  c #31242B",
"G  c #36312D",
"H  c #39322E",
"J  c #282833",
"K  c #342E31",
"L  c #362635",
"P  c #373232",
"I  c #3C3432",
"U  c #3E3935",
"Y  c #38373A",
"T  c #2B3D31",
"R  c #4B132A",
"E  c #641C36",
"W  c #462936",
"Q  c #562B39",
"!  c #413636",
"~  c #423936",
"^  c #443B3A",
"/  c #493D3C",
"(  c #463638",
")  c #57393D",
"_  c #672D3B",
"`  c #70313C",
"'  c #45413D",
"]  c #45413D",
"[  c #49423E",
"{  c #391D42",
"}  c #373C40",
"|  c #463D43",
" . c #51324C",
".. c #6E3340",
"X. c #773547",
"o. c #6C2B4B",
"O. c #3F494B",
"+. c #494540",
"@. c #4C4442",
"#. c #4E4A45",
"$. c #4D4943",
"%. c #484749",
"&. c #524445",
"*. c #504C46",
"=. c #534E4A",
"-. c #5D4849",
";. c #56534C",
":. c #57544D",
">. c #54514B",
",. c #58554E",
"<. c #595751",
"1. c #5A5851",
"2. c #5D5A54",
"3. c #575854",
"4. c #4A4F56",
"5. c #615E59",
"6. c #675B55",
"7. c #55605C",
"8. c #666158",
"9. c #76675C",
"0. c #75735A",
"q. c #6B6761",
"w. c #797667",
"e. c #736F63",
"r. c #A52B36",
"t. c #892E46",
"y. c #8B3745",
"u. c #9D3B49",
"i. c #8F3657",
"p. c #A63F49",
"a. c #B7364D",
"s. c #B23F70",
"d. c #8E3865",
"f. c #D13A4F",
"g. c #EC3C56",
"h. c #F13B51",
"j. c #D33D60",
"k. c #915351",
"l. c #A6444D",
"z. c #B6424E",
"x. c #B74A54",
"c. c #AD4E52",
"v. c #916F5D",
"b. c #984266",
"n. c #9F487C",
"m. c #BA486E",
"M. c #A34D7C",
"N. c #AC4D7B",
"B. c #AA4675",
"V. c #B44E7A",
"C. c #B84974",
"Z. c #AA537B",
"A. c #B9537A",
"S. c #AB4C67",
"D. c #887966",
"F. c #947769",
"G. c #B3696C",
"H. c #B3665E",
"J. c #D94A57",
"K. c #CC4D56",
"L. c #EE4856",
"P. c #ED4C5C",
"I. c #E74659",
"U. c #F64B56",
"Y. c #F24D5B",
"T. c #F94757",
"R. c #E6525A",
"E. c #FD545D",
"W. c #F6575B",
"Q. c #C9645C",
"!. c #F6635E",
"~. c #C74567",
"^. c #D54C65",
"/. c #D94666",
"(. c #CA556C",
"). c #D85268",
"_. c #C8557A",
"`. c #D15672",
"'. c #C64D70",
"]. c #E44E67",
"[. c #EA576A",
"{. c #FF5562",
"}. c #FD5B63",
"|. c #FD5B6A",
" X c #F55867",
".X c #E85874",
"XX c #F75974",
"oX c #DD7677",
"OX c #D2716E",
"+X c #EE6464",
"@X c #F36362",
"#X c #FD6B63",
"$X c #F96867",
"%X c #FF726A",
"&X c #FE7D6C",
"*X c #F67568",
"=X c #F17C73",
"-X c #988869",
";X c #8B856F",
":X c #AA9775",
">X c #B8987A",
",X c #A88C73",
"<X c #BDA67C",
"1X c #D6876B",
"2X c #C2997E",
"3X c #DF917E",
"4X c #FB866C",
"5X c #FB8973",
"6X c #FD9374",
"7X c #FC9977",
"8X c #FF936D",
"9X c #C4A27F",
"0X c #FBA67C",
"qX c #FFBA7F",
"wX c #E8A177",
"eX c #AA4F83",
"rX c #AE6181",
"tX c #CD5683",
"yX c #F67A84",
"uX c #759092",
"iX c #B8A884",
"pX c #ABAC8B",
"aX c #89AAB1",
"sX c #D5AB85",
"dX c #FBAC81",
"fX c #FCB783",
"gX c #E0A289",
"hX c #E89384",
"jX c #E7C98C",
"kX c #FEC88A",
"lX c #ECCA91",
"zX c #E6D495",
"xX c #F7D596",
"cX c #F9D191",
"vX c #DADBAB",
"bX c #E4DBA7",
"nX c #E3DEB1",
"mX c #FFDBAB",
"MX c #FEF9B3",
"NX c #F5EAB2",
"BX c #DFCA93",
"VX c #FEFFC8",
"CX c #FEFFD7",
"ZX c #FCFDF3",
/* pixels */
"+ + + + . . .             + + + + . .       .   + + + + O . .         .           + # X .       . .   .         + + + + ",
"+ + + + 1 1 1 3 3 3 3 3 3 + + + + % 1 3 3 3 3 3 % + + + % 1 1 2 3 3 3 3 3 3 3 3 3 + + ; 1 3 3 3 2 1 1 2 7 3 3 6 + + + + ",
"+ +   1 S I ^ ;.2.<.,.2.8.2     X M U 5.<.<.2.q.Y       e H ! +.1.1.2.2.2.1.:.1.q.m   e I 1.2.5.>.~ ^ ~ >.1.1.q.m   + + ",
"+ + 1 e I ^ $.>.:.;.,.*.=.e 1 3 M U +.,.;.:.*.=.U 3 3 1 S I [ #.:.=.#.#.#.>.:.=.=.G 3 S I #.#.*.+.U +.+.;.:.=.>.H 3 + + ",
". 1 I U [ >.2.;.>.;.,.$.^ I H +.=.2.1.>.>.;.' U ' =.U S U ' 1.1.:.#.^ ^ ! ;.2.#.U [ #.+.' ^ ^ ^ ] ^ =.5.;.:.#.I ' =.3   ",
"O % r N H U $.>.:.;.2.U M m r S U +.#.:.;.;.U S P H S A U ] +.$.2.' e S H ] #.^ S I H H H I H N A H ^ $.=.2.+.S H I 1 . ",
"+ + 3 e A H U *.:.:.5.D # 2 q M S U +.<.:.<.H M N A S A U ' U ] 5.^ # r S I ' I M A N N N S N 2 e N I U =.2.' M V S % . ",
"+ + q m A I ^ *.,.#.+.A 2 q q q e S I +.' +.M q 3 1 3 m A H ^ ^ $.H 2 q q S H N q q m 2 1 1 1 ; 2 q N H ^ #.H q 2 * + + ",
"+ # q M D ! ^ ;.2.*.] A 9 q q 0 q N H ^ ^ ^ m 9 2 . 3 q N S ^ ' [ H 2 q 9 A H M 9 q q ; + + + * % q N S ! +.H 8 ;   + + ",
"+ + 1 3 q S U +.=.' U m 1 2 2 9 q A H ' U U q 2 1 + 1 2 w A I U U A 9 2 2 q m q 2 3 2 1 ; # # * 1 2 q Z S I N 2 ; + + + ",
"+ + . O . q S ! ' I H 3 o + * q m A I +.H S 1 + + * * + 2 q N S S M q 1 + + + + X + X + # # % + + + 2 q 2 2 : + + + + + ",
"+ + + + + q m S U N 3 1 # ; * 1 2 m A ! M 2 1 ; 1 ; ; * 1 2 r m M 3 1 1 # ; + 2 M q e e e % + 1 ; # 1 1 m N M m 1 . + + ",
"+ + + + + 2 q N H 6   # 1 ; ; * 1 3 r H 3 . 1 & 1 : ; * + + 2 q q 2 + ; 1 # + q I S H H S # # ; ; # + + M H S I 2   + + ",
"+ + + + ; 1 1 1 2 1 % # 1 # * * ; 1 1 2 1 ; 1 1 1 1 ; + m N A M 1 1 ; 1 ; 2 3 q q N S S A N q # 1 + 2 3 N S A S M M 1 O ",
"+ + + + 1 + + + + # 1 1 1 # ; # + * + + ; 1 # 1 1 1 1 # N H H M ; 1 1 1 ; 3 q q 2 M S A A H A # 1 # 2 q N S A S D I 1 . ",
"# + X + % ; # + + # ; # + 3 q + + ; ; ; 2 q 1 ; 1 + 2 q N S A A A q + 2 q q q q 2 M A I ! / I + 1 q q 3 M A D ! ! / 2 . ",
"+ + + + % 1 1 2 2 2 2 1 + 2 q 2 2 # # 1 w Z 2 # 1 1 2 5 m B B B V d * 7 6 q q Z w Z D ! ! ! A + 1 q q e A D I ( I I 1 . ",
"+ + # % # 2 q S H S H 3 o + + I A + # % # # ; # 2 d , i j x B x x J f u a d 2 e ! ( / ^ ^ : + * # + m I ( [ / $.e X + + ",
"+ + # ; * 2 q m M N S e 3 1 ; q e q w 3 q q 1 - = c L _ p.K.z.z.z.Q.k.W a u h N D ) -.S M 1 ; ; ; + 3 m N C A A q # + + ",
"+ + 1 # + 2 r 2 1 q A A H 2 ; . 0 I D H S B < d ) x.x.J. XE.{.E.{.&X4XQ.u.Q s v | / &.0 . + + # + + o . + # $ + ; 2 + + ",
"+ + + + # 1 1 e M A I H I 3 # q 3 m M M d z L k.1X%X$XXX.X.X[.Y.T.&X7X5X}.J.` h s q r 0 2 e e q m q q m 1 # 1 1 # + + + ",
"+ + O + 1 # + N H I ( ( / 3 ; q q 2 6 s j t.R.&X6X*XW.].tXrX_.I.T.4X7X#X{.|.R.` h * + + 1 S H H S D D H 2 X # 2 + . + + ",
"+ + + + + + ; 1 # m @.N 2 1 ; 3 q M s F u.R. X`.A.yX$Xr.R i.].%X5XdX8XR.'._.[.K.L u < 5 q N S A A S A S M N q # # + + + ",
"+ + + + + + # + @ q ;.l + # 1 2 q f j y.}.XX_.N.N._.k.( Y c t.1XcXdX#X/.N.M._. Xp.z = 7 w S D V S A S A S H e + + O + + ",
"+ # # + + + 1 # + 5 H q ; # 1 q m a _ R.|.C.M.eXV.o.4.uXaX%.v 8.qX=X/.~.V.M.A..XJ.Q a i 3 M Z A S S A S A S M q 1 + + + ",
"+ + + + . + # + # + . # 1 + 1 D J g l. X`.N.Z.A.b.y uXZXZXiXT z R.).V.N.V.Z._.).u.-.O.J 7 2 q S S A S A A A S I q # + + ",
"+ + + + + 3 m e e q M 3 # ; ; 2 s f z.XXA.Z.`.].a.y uXZXmXD.n c f./.V.M.Z.M._.J.R %.e.&.s 5 q m M S A N S A S S q # + + ",
"+ + + + # e I S D G H q + % ; - a L K. X(.).P.T.R...4.w.0.b L l. X X^.C.M.A.).f.h >.F.@.s 3 q 5 e S N A A N A S 3 # + + ",
"+ + . # 3 M S A A S A N N 2 # < f X.I.{.P.Y.U.#X6XOXW - v h l.5X5X4X!./.m..XP.p.%.w.F.} , 3 q M S ! I U I I U ^ l # + + ",
"+ + X 1 q M S A S V S S H 0 # * d k.+X{.h.g.W.6XfX6Xx.E E a. X%X*X5X4X!.Y.T.R.v.D.iX,X| , 5 e S I ( ( ( ( ( ! ^ q # + + ",
"+ + q q q q 9 N S A A V A 8 # * h k.0X0X@XW.#X4X=X XP.J.J.E.E.Y.Y.@X6X7X%X{.K.D.>XlX>XJ i m H ^ ^ ! ! ! ( +.S # + O + + ",
"O # q q q q q A D S S S H 2 # * h k.wXkXfX0X=X).~.I.E.}.|.[.^./.L.L.4XkXdXc.k.:XlXjXD.i 4 m Z D I ! ! ! I I m o + + + + ",
"+ + e q 2 m S I ( ^ ! ^ @.3 # 7 f X.(.hXkXxX3Xm.s.].E.Y.(.N.M.'. Xh.$XdX1X/ 7.bXMX<XY - 4 # ;   q $./ [ 8 $ + . + + + + ",
"O + 2 q r A H U ! ! ! D N 1 + 1 a  .eXtXoXkXgXZ.B.].E.R.V.Z.A._..XT.#XQ.R g uXVXVX;Xt t d q 5 + 3 S Z A 2 ; # + + + + + ",
"+ + o q U I ^ ! ! ( *.q   ; ; * g i.C.C.(.qXgXrXs.P.R.m.M.oX5XoXd.~.Q.k.^ w.nXCXvX#.- d P H N $ $ $ $ + + + + # o   + + ",
"+ + + 1 2 D ( ! / S l q 3 1 1 , _ R.[./.).0XgXG.j.U.).N.N.=XOXk. .k.F.;XpXnXVXnXw.d 4 C A A N m 3 ; 1 # q m q q q q + + ",
"+ + X +   C [ ^ +.N   2 w 2 < F z.{.E.L.Y.5X3XOXg.T.`.A.V.S.Q v 2.-X<XBXVXCXnX;Xg i K S A A S H e ; # # A I H H S H 1 . ",
"+ + X + # 1 3 3 3 2 # : 1 1 i W J.{.W.L.L.@X*X Xh.L..XtXb.x p *.:XsXjXxXMXNX;Xy , 6 q N A A S D e o 2 q q q m A H ~ 1 . ",
"+ + + + 1 # + # # # + + * i u X.T.T.g.L.@X$XW.W.#X}.XXB.{ b :.,X2XlXxXsX:X8.v - 6 9 2 N S N A I q @ 3 m 3 2 q N U &.1 . ",
"+ + + + + ; 1 # ; 2 q 3 7 p W x.{.L.P.*X6X*XP.@X6X&XS.{ b 9.>X2XF.,X-X6.B = * 2 q q e S I H S e q 1 2 2 e m N I A A # . ",
"+ + + + . ; 1 # . 9 I S B p y.+X%X$X5XdX7XW.I.$X5XoX .k 8.>X>X9.| Y f = * q w 3 2 M S U / &.I . 1 N 1 . N I U -.l . + + ",
"+ + + + + # # q m M S m a a l.&X7XqXkX0X@XT.Y.E.{.x.-.0.sX>X6.b j h * 4 * q 9 q M S I ! I m q # 1 2 1 * 3 q q M 2 + + + ",
"+ + + + 1 # # N I S A M a k c.#X&X6XhXOX'.^.P.T.J.k.:XzXlX9.b g Y C $ 1 + 3 q m S I ( ^ U # # : % # # # # # + $ + O + + ",
"+ + + + # 2 9 q q m S A d a u.E.{.(.B.s.N._..XJ.H.:XxXxX-XJ g S 2 2 1 ; % 1 + l ^ ! ^ q 2 1 % # 3 N M M M N q # + O + + ",
"+ + + # # 2 e q 3 r S S B u ` R.XXC.B.V._._.~.H.iXzXlXv.h h P K . + 1 : 1 + @ q / U ! 2 o 1 1 + q I S D S H m : # + + + ",
"+ + + 1 q q q q 3 m H S A d g y. X|.|.$X).t._ v.bXVXpXx = K / I # ; # 2 q ; # # & ; ; 1 1 # 1 3 m D S S A S N D 1   + + ",
"+ + 1 2 q q q q 0 e N A V N i z ..l.p.y.E > ^ iXMXnX2.- d S I A ; ; $ 3 m 8 2 2 2 1 2 1 1 # 1 q m N N N A A S H q + + + ",
"O + q q q q q q q 9 2 m A A m i p z L J f b D.zXjX0.g = * + ; ; # + X e D S S S S S D 1 + # % q q 3 q q N S A N A S 1 . ",
"+ + q q q q q q q q r A H D K s a p } 8.w.F.9X<X9.y = 4 ; ; 1 1 2 1 % e S A A S S A S e 3 1 % 2 3 q q 9 A A S H H I 1 . ",
". # q q q q q q 2 e S I ( ( ( K v u Y 9.D.6.%.K j B 5 + ; 1 # 1 q q q A D A S A A S A H S 2 ; + 1 q 9 3 M N H ^ ^ ^ 1 . ",
"+ + 1 2 q q q M M A I I ! ! ! ( V s , B K B i i d V M q 2 # # : q q q q r N S A S A A S N 2 ; + 1 q r M H I I ! ! ( 1 . ",
"X + + 1 q q q N S I ^ ! ! ! ! / H $ 2 * ; 4 7 2 q S A H 2 # # % q q q 9 2 N S A A N A S S 2 ; + 1 q N D ! ( ! ! ! ( 1 . ",
"+ + + 1 q q q N V H ^ ! ! ! ! q 2 # % 1 ; 1 m N D U U ! 5 + 3 q q q 3 M N I ! I I U ! q 1 ; ; # % + N ! ! ! ! ! ! ( 1 . ",
"+ + + 1 m q 8 M N H ^ ! ! / ( ; # 5 # % # * A H I ( ! ^ 3 + q q q q 2 M S U ( ! ! ^ ^ 2 + ; % # %   A &.! U ! ! ( @.2   ",
"+ + X + 3 q r S H I ! ! ! S M 1 ; ; ; 1 2 ; 6 q V ( ! ~ 2 + q q q q e N H U ! ! ! ! ( 2 + + + # # + q A I ! ! ^ D Z ; . ",
"+ + O + o m I ! ( ! U ^ @.2   # 1 1 + + + + + @ q &./ [ 3 + q q 2 e A I ( ! U ! ! ^ @.q + + + 1 ; 1 # o I @./ @.m . + + ",
"+ + + + + 2 3 I ^ ! ( A q % + + + + + + + + + + 2 m e q # + 1 2 M A I U ! ! ! ! ( N 3 1 + + + # + + # % q m l M 2 + + + ",
"+ + + + + + o P [ ( +.q   + + + + + + + + + + + + + + + + + + 2 D I / ( ^ ^ ^ ( @.3   O + # + + + o + 1 # + # # + + # + ",
"+ + + + + + + % 1 1 2 + + + + + + + + + + + + + + + + + + + + + 1 1 2 1 1 1 1 1 2 + + + + + + + + + + + + + + + + + + + ",
"+ + + + + + + . . .   O + + + + + + + + + + + + + + + + + + + + . . . . . . . . . + + + + + + + + + + + + + + + + + + + "
};
