/* XPM */
static char *xpm_[] = {
/* columns rows colors chars-per-pixel */
"60 60 246 2 ",
"   c #040405",
".  c #0A0505",
"X  c #0A0907",
"o  c #0A0709",
"O  c #070909",
"+  c #0C0B0B",
"@  c #060709",
"#  c #120D0D",
"$  c #10070C",
"%  c #13100F",
"&  c #0D0D12",
"*  c #0A0B1C",
"=  c #05071B",
"-  c #120E11",
";  c #190F11",
":  c #100F1F",
">  c #0D131D",
",  c #08111B",
"<  c #151213",
"1  c #1B1515",
"2  c #1B1916",
"3  c #14131A",
"4  c #1A161A",
"5  c #1D191A",
"6  c #17181C",
"7  c #211917",
"8  c #231C1B",
"9  c #221818",
"0  c #25211E",
"q  c #28211E",
"w  c #090B23",
"e  c #041325",
"r  c #0B1323",
"t  c #0B1828",
"y  c #131523",
"u  c #121A25",
"i  c #1C1C22",
"p  c #151B2C",
"a  c #1B1C2C",
"s  c #161529",
"d  c #1B1C31",
"f  c #160D28",
"g  c #211E22",
"h  c #281F20",
"j  c #22172B",
"k  c #341C35",
"l  c #2B162D",
"z  c #1C212B",
"x  c #192127",
"c  c #0F2531",
"v  c #252122",
"b  c #2B2423",
"n  c #2E2926",
"m  c #25242A",
"M  c #29262B",
"N  c #2C292B",
"B  c #25282C",
"V  c #312A27",
"C  c #302729",
"Z  c #332C2A",
"A  c #392F2E",
"S  c #302625",
"D  c #36312D",
"F  c #39322E",
"G  c #232532",
"H  c #2E2C31",
"J  c #2A2B37",
"K  c #332E33",
"L  c #3B2637",
"P  c #29333B",
"I  c #353234",
"U  c #3C3432",
"Y  c #3E3935",
"T  c #34333B",
"R  c #3B383A",
"E  c #491E2F",
"W  c #492635",
"Q  c #582A3A",
"!  c #413736",
"~  c #423936",
"^  c #443B39",
"/  c #493E3D",
"(  c #46343A",
")  c #47322D",
"_  c #67333D",
"`  c #722B3C",
"'  c #45413D",
"]  c #45413C",
"[  c #4A413F",
"{  c #4B4C3C",
"}  c #3A3943",
"|  c #473B40",
" . c #5A3749",
".. c #793445",
"X. c #71304A",
"o. c #3D4B47",
"O. c #3D6366",
"+. c #494540",
"@. c #4C4342",
"#. c #4E4A45",
"$. c #4D4943",
"%. c #49494B",
"&. c #514C46",
"*. c #534E4A",
"=. c #534646",
"-. c #4A5149",
";. c #56534C",
":. c #57544D",
">. c #54514B",
",. c #58554E",
"<. c #5A5651",
"1. c #5A5851",
"2. c #5D5A54",
"3. c #565550",
"4. c #4E5454",
"5. c #615E59",
"6. c #655B57",
"7. c #765A57",
"8. c #73454D",
"9. c #5E605D",
"0. c #686258",
"q. c #756759",
"w. c #74715B",
"e. c #614667",
"r. c #6A6761",
"t. c #777263",
"y. c #736960",
"u. c #4C5C6B",
"i. c #88303E",
"p. c #843646",
"a. c #983C4B",
"s. c #802C43",
"d. c #A6394A",
"f. c #B63A51",
"g. c #8B3465",
"h. c #B13C71",
"j. c #D93E59",
"k. c #EE3C56",
"l. c #88484C",
"z. c #975B59",
"x. c #B5414A",
"c. c #B34E52",
"v. c #916F5B",
"b. c #9C4767",
"n. c #9C497B",
"m. c #BA4568",
"M. c #AA4B78",
"N. c #B74974",
"B. c #A7517B",
"V. c #B55478",
"C. c #887766",
"Z. c #95796A",
"A. c #A97567",
"S. c #CA4856",
"D. c #D74958",
"F. c #D25659",
"G. c #EC4B5A",
"H. c #E74558",
"J. c #F34C5A",
"K. c #F84657",
"L. c #E5535C",
"P. c #EC535D",
"I. c #E25A5A",
"U. c #F6525A",
"Y. c #FD535C",
"T. c #F35A5E",
"R. c #FD5659",
"E. c #C4695B",
"W. c #FD645F",
"Q. c #C84A6A",
"!. c #DC4B63",
"~. c #D84E6B",
"^. c #CD536B",
"/. c #D95168",
"(. c #C24E70",
"). c #CC577A",
"_. c #D55578",
"`. c #EA4C64",
"'. c #F54F62",
"]. c #E95465",
"[. c #FC5160",
"{. c #FF5B62",
"}. c #FC5C6A",
"|. c #F35865",
" X c #F75C75",
".X c #E95E7F",
"XX c #D1687C",
"oX c #CE706E",
"OX c #EB6A66",
"+X c #FE6464",
"@X c #F46964",
"#X c #FA6964",
"$X c #EE7567",
"%X c #FE7C6A",
"&X c #F87668",
"*X c #E97474",
"=X c #99856C",
"-X c #918972",
";X c #A88A74",
":X c #AA9578",
">X c #B49479",
",X c #AE8C71",
"<X c #BBA37A",
"1X c #DB826A",
"2X c #CB886E",
"3X c #FE886B",
"4X c #E88776",
"5X c #FC8B73",
"6X c #FB8773",
"7X c #FD9374",
"8X c #FD9C7B",
"9X c #F99978",
"0X c #E29A74",
"qX c #CEA97C",
"wX c #AC5280",
"eX c #B55083",
"rX c #974F81",
"tX c #C45582",
"yX c #DE5C82",
"uX c #E05E82",
"iX c #D36182",
"pX c #98998F",
"aX c #A49D80",
"sX c #B5B08B",
"dX c #A0ADB0",
"fX c #D38F84",
"gX c #CAB38A",
"hX c #FEB784",
"jX c #F5A682",
"kX c #D6CB94",
"lX c #E7C48B",
"zX c #F9C488",
"xX c #E7CD91",
"cX c #FBD697",
"vX c #FFC891",
"bX c #FFE797",
"nX c #E7DAA9",
"mX c #F8D2A5",
"MX c #F9E8A8",
"NX c #FCFBBD",
"BX c #ECE1A9",
"VX c #C8D4AE",
"CX c #F8F8C7",
"ZX c #F3F8D0",
"AX c #FFFFFA",
"SX c #C2D5CF",
/* pixels */
"+ + + + . . .             + + + + . .       .   + + + + + . .         .           + # X .       . .   .         + # + + ",
"+ + + + < < < 2 2 2 2 2 2 + + + + % < 2 2 2 2 2 % + + + % < < 1 2 2 2 2 2 2 2 2 2 + + - < 2 2 2 1 < < 1 6 2 2 5 + + + + ",
"+ +   < Z U ^ ;.2.<.,.2.0.1     X b Y 5.<.<.2.r.I       0 F ! +.1.1.2.2.2.1.:.1.r.b   0 U 1.2.5.>.~ ^ ~ >.1.1.r.b   + + ",
"+ + < 0 U ^ $.>.:.;.,.&.&.0 < 2 b Y +.,.;.:.&.*.Y 2 2 < Z U [ #.:.&.#.#.#.>.:.&.&.D 2 Z U #.#.&.+.Y +.+.;.3.&.>.F 2 + + ",
". < U Y [ >.2.;.>.;.,.$.^ U F +.&.2.1.>.>.;.] Y ] *.Y Z Y ' 1.1.:.#.^ ^ ! ;.2.#.Y [ #.+.] ^ ^ ^ ] ^ &.5.:.:.#.U ] &.2   ",
"@ % q n F Y $.>.:.;.2.Y b v q Z Y +.#.:.;.;.Y Z I F Z V Y ] +.$.2.] 0 Z F ] #.^ Z U F F F U F n V F ^ $.*.2.+.Z F U < . ",
"+ + 2 0 V F Y &.:.:.5.A # 1 8 b Z Y +.<.:.<.F b n V Z V Y ] Y ] 5.^ # q Z U ] U b V n n n Z n 1 0 n U Y &.2.] b n Z % . ",
"+ + 8 v V U ^ &.,.#.+.V 1 8 8 8 0 Z U +.] +.b 8 2 < 2 v V F ^ ^ $.F 1 8 8 Z F n 8 8 v 1 < < < - 1 8 n F ^ #.F 8 1 - + + ",
"+ # 8 b A ! ^ ;.2.&.^ V 7 8 8 7 8 n F ^ ! ] v 9 1 @ 1 8 n A ] ] ] F 1 8 8 V F b 2 7 8 # + + + & % 8 n Z ! +.F 7 -   + + ",
"+ + < 2 8 Z Y +.>.[ Y v < 1 1 7 8 n F ] Y U 8 1 < + < 4 0 b U U Y V 7 2 1 8 v 8 1 1 2 < - - - + < 1 8 S Z U n 1 - + + + ",
"+ + . O . 8 Z ! ] Y D 2 @ + & 8 v V U ] U Z < + + & + & 1 8 n Z n b 8 1 + + + + + + + + # # # # + + 1 8 1 1 ; + + + + + ",
"+ + + + + 8 v Z Y n 1 < + - - < 3 u t p u 6 < < - - - & < 1 g i u r > 3 3 - & 1 0 0 0 0 8 # # - - # < < v n b v < . + + ",
"+ + + + + 1 8 n F 8 . + # # & , t a a a p r r 3 < ; - + & , t u a j a u r > & 2 U A A F Z # + # - # + + b F Z U 1   + + ",
"+ + + + - < < < 1 < - < < 3 e p Q p.p.l.8.Q d e > < < & y t a W p.a.` W u p p y 5 b Z V V n v - < + 1 2 n Z V Z b b < O ",
"+ + + + < + + + O + < - 3 e e _ L.].OX$XOXH.d.W u , * r L p.x.D.|.}.].c.l.x.d.( t u m V Z F n - < # 1 8 n Z V Z A U < . ",
"# + X + % - # + # # - 3 r p _ D.{.Y.5X8X&X[.J.S.a.L d  .E.I.Y.|.).).)._.^.'.@XoXz.Q s z U / U + < 8 8 2 b V A ! ! / 1 . ",
"+ + + + % < < 1 1 1 2 r e j D.}.].D.9XhX&XK.K.}.|.g.8.oX8X#XY.~.B.n.n.wXtX_.*X8X%XF.` s G D C + < 7 8 8 Z A U ^ U U < . ",
"+ + # % # 1 8 Z F Z H t t k D.}.N.M.fXhX6XH.K.U./.eXiX9XhX&XG.H.!.^.N.V.V.wXV.*X#X{.H...s r + & & + v F ^ / ^ $.0 . + + ",
"+ + # - & 1 9 v b V a T %.( S.].M.M.XX9X9X#XT.J.j.h.N.4XzX&XG.K.K.K.]._.m.g.f.W. X].|.L...a , < # # 2 v N V C Z 8 # + + ",
"+ + < # + 1 q 1 1 8 t <.C.R i.j._.M.(.OX3X%X@XU.'.m.N.4XzX5X#X#X#X+XL.a. .e.b.S.Q.V._.{.L.X.t , & + + . + + + + - 1 + + ",
"+ + + + # < < 0 b V t =.C.-.W d. XwXQ.G.U.@X|.#X7X4XfXjXjX4X$X6X8X5Xx.S u.dXpX8.X.b.).P.+XS.W e g 0 0 v < # < < # + + + ",
"+ + O + < # + n F U r G 6.t.&.l.^.V.~.G.J.H.H.&XhXcXbXzXoXV.m.OX8X1X) c dXAXSXO.E f. X].{.J.p.e B A A F 1 + # < + . + + ",
"+ + + + + + - < - v G w T :X>XC.7.S.K.K.J.|.&X@X@XhXlXfXn.n.N.].{.S.k c :XmXsXo._ S.K.k.k.+XE.T t v n V n n 8 - # + + + ",
"+ + + + + + - + . g | * j ,XMXkX-XoXD.H.+X7X5XT.k.*XXXV.N.Q.!.J.K.G.s.d &.w.{ u 7.0X7X@X|.5X4Xl.d u n Z Z F 0 $ + O + + ",
"+ # # + + + < # & 1 Z : y 0.kXNXBXkX,Xc.E.oX@X[.K.H.D.!.].P.U.Y.U.{.D...L P a l A.zXvX7X5X5X%XF.W p M V V Z b 8 < + + + ",
"+ + + + . + # + # +   - 3 G r.gXMXbXxX-X| W d.[.{.Y.U.G./././.P.G.J.Y.|.c._ ` D.OX5X7X3X%X+XY.G.Q x n V V V Z U 8 # + + ",
"+ + + + + 2 v 0 0 0 v 4 & r s T 0.=XxXlXt.G f Q S.{.}.^.M.M.N.N.(.^.`.R.3X1XOX'.^.Q./.P.].P.Y.'.Q x M V V V n F 8 # + + ",
"+ + + + # 0 U Z F F U 8 # - & = w M q.;X=Xy.%.T Q d.Q.tXeXeXXXXXV.M.Q.Y.%X7X%X`.N.h.h.m.N.~.[.G.W x n V V V n A 2 # + + ",
"+ + . # 2 b Z V V V Z n b 1 + < * = = d <.Z.:Xt.T k X.n.N.N.oX5XXXV.Q.K.T.%X&XD.V.B.B.B.rX).|.x.L H U U U U U ^ g # + + ",
"+ + X < 8 b Z V V Z n Z F 2 # ; < + - * w p *.=X;Xo.p j k l 8.E.XX_.H.K.T.%X&X!.N.B.M.B.n.uX|.i.m K ! ^ ! ^ ! ^ 8 # + + ",
"+ + 8 8 8 8 7 n Z n V n V 1 # + 1 Z V M 3 * y | C.;Xq.R J T T ( X.D.[.+X7X7X#XH.(.M.tXyX.X XD.Q M U ! ! ^ +.Z # + O + + ",
"O # 8 8 8 8 8 V F Z Z Z F 1 # # 1 V V F 0 1 - * T Z.>X=Xt.C.t.4. .f.H.$XhX5XU.K.`.~.Q.m.S.d.Q a H ! ! ! A U v + + + + + ",
"+ + 0 9 1 v Z U ^ ! ! ^ @.1 # 8 8 1 8 Z V Z 1 - * G q.,X>XgXlXgX;Xz.l.z.2XoXD.L.T.L.x.Q W a e e g =.^ [ 7 # + O + + + + ",
"O + 1 8 q V F U ! ! ^ A n 1 + 1 2 0 n U F F 1 # < > a } q.qXcXcXnXsXr.G j 8.A.A.A.A.8.P P c r y 4 Z C V 1 # # + + + + + ",
"+ + o 8 Y U ^ ! ! ^ =.8   + & + < Z F ^ ^ $.9 # # + & w G Z.lXMXNXCXVX-Xt.:XgX<XgX:X=X=Xw.P w - # # # # + + # # o   + + ",
"+ + + < 1 A ^ ! ^ A 8 8 1 < - + 1 U U ^ Z 8 < + 4 0 g y r T q.<XBXCXCXNXCXCXMXlXlX<X>X>X7.G u q 2 # - - 8 v 0 0 8 8 + + ",
"+ + X +   N [ ^ [ n   1 q < - + 4 | ^ [ 8 . # + 8 U Z F n y * I -XaXgXnXCXZXnX<X=XC.7.%.s u M U 0 # # # V U F A Z F < . ",
"+ + X + # < 2 2 8 1 # < < < - % < 8 8 2 1 # 4 2 8 8 b Z n n m a z s T 9.-XpXt.} a a d u z M V A 0 o 1 8 8 8 v V F ^ < . ",
"+ + + + < # + # # # + # # # # < % + # # # % 2 8 8 1 b F V V n b v 5 & 3 i i u r e r 6 m n n V U 8 . 1 v 2 < 8 n U =.< . ",
"+ + + + + - < # # 1 8 8 8 8 8 ; # 1 1 - % # 2 8 8 8 0 b V Z F F U b # < - - - 6 i 8 0 Z A F Z q 8 < 1 1 8 q n U V V # . ",
"+ + + + . - < # . 2 U A Z F Z X # v 7 - - # 2 8 8 8 2 1 b Z ! ^ | C # < # 8 8 8 1 b Z ! ^ =.U . < n < . n U U =.g . + + ",
"+ + + + + # # 8 v b Z V V Z n 0 8 1 < - - # 1 9 8 2 v b N K I I U b - < - 2 8 8 b Z U ! ! b 8 # < 1 < & 2 8 8 b 1 + + + ",
"+ + + + < # # n U Z V Z V V Z U n + # < - - 2 g 5 5 m N K I H K R M < 3 3 5 g v Z U ^ ^ U # + < % # # # # # + # + O + + ",
"+ + + + # 1 8 8 8 b V V Z V V V V n 8 # - < 3 3 i M N K K K I N y 6 3 3 3 6 < g I U ^ 8 1 < < + 2 n b b b n 8 # + O + + ",
"+ + + # # 1 0 8 1 q A V Z V V V Z F 0 # < 3 3 & i N H K I K I N & < 4 4 3 3 & i I Z I 4 + # # # 8 U Z A Z F v ; # + + + ",
"+ + + < 8 8 8 8 7 v F Z V V V V V A 0 + 5 i 6 3 3 & M R I I R H 3 3 3 5 i 3 3 3 3 6 3 < < # < 8 v A Z Z V Z n A <   + + ",
"+ + < 1 8 8 8 8 7 q n V V Z Z V Z A v + 6 i 3 3 3 & g H N N K M < 3 3 5 v i 4 5 4 6 6 1 < # < 9 v n n n V V Z F 8 + + + ",
"O + 8 8 8 8 8 8 8 7 1 0 V n n n V Z 8 - < 3 < < < 3 3 * 3 < 3 3 < 3 & x N M N M M B N 4 + # < 8 8 2 8 8 n Z V n V Z < . ",
"+ + 8 8 8 8 8 8 8 8 0 V U F A F A U v + 1 6 5 i i i 6 3 3 3 3 3 6 6 3 v N M M m M M n 8 2 % < 1 2 8 8 7 V V Z F F U < . ",
". # 8 8 8 8 8 8 1 0 Z U ^ ^ ^ ! ^ &.A . 1 8 N H N H i - 3 3 3 3 i i i m M m m M M n n F Z 1 - + < 8 7 2 b n F ^ ^ ^ < . ",
"+ + < 1 8 8 8 b b V U U ! ! ! ^ F v 8 + 1 8 h 0 v N m g 5 3 3 3 g i i g v b M n n V Z Z n < - + < 8 q b F U U ! ! ^ < . ",
"X + + < 8 8 8 n Z U ^ ^ ! ! ! / F o # # 1 0 7 1 0 n n Z 5 < < 3 g g 5 5 2 b V V V V V Z V < - + < 8 n A ! ^ ! ! ! ^ < . ",
"+ + + < 8 9 8 n n A ^ ! Y ! U 8 1 # < # < - b n Z ! U ! 1 + 4 8 8 8 2 b n U ! U U U ! 8 1 < - # % + n ! ! ! ! ! ! ^ < . ",
"+ + + < v 9 7 b n A ^ U ! / ^ # + # < # # + n U U ^ ! ^ 1 + 8 8 8 8 1 b Z ! ^ ^ ! ! ^ 4 + < % # %   V =.! U ! ! ^ @.1 . ",
"+ + X + 4 8 q Z F U ^ ! ! Z b < # # # # + + 5 8 n ^ ! ^ 1 + 8 8 8 8 q V F U ! ! ! ! ^ 1 + + + # # + 8 V U ! ! ^ A S - . ",
"+ + @ + o v U ! ^ ! U ^ @.1 . < % < # O + + + . 8 =.^ +.1 + 8 8 1 0 Z U ^ ^ ! ! U ^ @.8 + + + < - < # o U @./ @.v . + + ",
"+ + + + + 1 2 U ^ ! ^ V 8 % + + + + + + + + + + 1 v 0 8 # + < 1 b V U U ! ! ! ! ^ n 2 < + + + # + + # % 8 v h b 1 + + + ",
"+ + + + + + o I [ ^ @.8   + + + + + + + + + + + + + + + + + + 1 A U / ^ ^ ^ ^ ^ @.2   O + # + + + o + < # + # # + + # + ",
"+ + + + + + + % < < 1 + + + + + + + + + + + + + + + + + + + + + < < 1 < < < < < 1 + + + + + + + + + + + + + + + + + + + ",
"+ + + + + + + . . .   O + + + + + + + + + + + + + + + + + + + + . . . . . . . . . + + + + + + + + + + + + + + + + + + + "
};
