/* XPM */
static char *xpm_[] = {
/* columns rows colors chars-per-pixel */
"60 60 244 2 ",
"   c #040405",
".  c #0A0505",
"X  c #0A0907",
"o  c #050509",
"O  c #0A0709",
"+  c #070909",
"@  c #0C0B0B",
"#  c #060807",
"$  c #120D0D",
"%  c #13100E",
"&  c #19100E",
"*  c #0D0D11",
"=  c #050C1E",
"-  c #0B0C1A",
";  c #130F11",
":  c #180F10",
">  c #100F1D",
",  c #0D121C",
"<  c #03101C",
"1  c #151212",
"2  c #1B1515",
"3  c #1B1916",
"4  c #14131B",
"5  c #1B1618",
"6  c #1D1A1A",
"7  c #211917",
"8  c #201719",
"9  c #231C1B",
"0  c #211616",
"q  c #2A0518",
"w  c #25211E",
"e  c #29211E",
"r  c #0A0E21",
"t  c #050D24",
"y  c #0B1324",
"u  c #0D1A2B",
"i  c #061427",
"p  c #131423",
"a  c #131A26",
"s  c #1C1B22",
"d  c #141B2A",
"f  c #1A1C2B",
"g  c #151527",
"h  c #120F22",
"j  c #231E21",
"k  c #281F20",
"l  c #241D2B",
"z  c #2A1B2D",
"x  c #2B1E31",
"c  c #15212C",
"v  c #1D222B",
"b  c #1B2127",
"n  c #182933",
"m  c #252122",
"M  c #2B2423",
"N  c #2E2926",
"B  c #24242B",
"V  c #2D2A2B",
"C  c #28282A",
"Z  c #312A27",
"A  c #332D2A",
"S  c #36282A",
"D  c #36312D",
"F  c #39322E",
"G  c #222532",
"H  c #2B2535",
"J  c #2D2C36",
"K  c #3B2D32",
"L  c #362836",
"P  c #363234",
"I  c #3C3432",
"U  c #3E3935",
"Y  c #33323B",
"T  c #3C3B3D",
"R  c #3B353A",
"E  c #27343A",
"W  c #491B32",
"Q  c #482436",
"!  c #562839",
"~  c #413736",
"^  c #413936",
"/  c #443B39",
"(  c #493E3D",
")  c #403738",
"_  c #573636",
"`  c #612E3B",
"'  c #69373F",
"]  c #78303E",
"[  c #722339",
"{  c #3F4A3C",
"}  c #45413D",
"|  c #45413D",
" . c #4A423E",
".. c #351F43",
"X. c #393B42",
"o. c #293B46",
"O. c #472847",
"+. c #423E44",
"@. c #533550",
"#. c #773346",
"$. c #763659",
"%. c #6D2F4A",
"&. c #2B484F",
"*. c #494540",
"=. c #4C4341",
"-. c #4E4A45",
";. c #4D4943",
":. c #46464A",
">. c #524444",
",. c #514C46",
"<. c #534E4A",
"1. c #594E4C",
"2. c #56534C",
"3. c #57544D",
"4. c #53514B",
"5. c #58554E",
"6. c #53574A",
"7. c #5A5652",
"8. c #5A5851",
"9. c #5D5A54",
"0. c #565550",
"q. c #4B4F5A",
"w. c #615E59",
"e. c #635953",
"r. c #6F514E",
"t. c #5F6154",
"y. c #65685B",
"u. c #76685D",
"i. c #76755C",
"p. c #6B6761",
"a. c #7C6A61",
"s. c #7C7064",
"d. c #6F516B",
"f. c #872937",
"g. c #853644",
"h. c #963A4B",
"j. c #913659",
"k. c #A63B4A",
"l. c #B63951",
"z. c #823D6A",
"x. c #A73D6F",
"c. c #E5374B",
"v. c #E63F53",
"b. c #FB3C4F",
"n. c #C03763",
"m. c #975856",
"M. c #974851",
"N. c #BC4557",
"B. c #B55658",
"V. c #A54B51",
"C. c #B86C5A",
"Z. c #AC6456",
"A. c #994974",
"S. c #A7446B",
"D. c #B74569",
"F. c #A84B79",
"G. c #B74A74",
"H. c #B85374",
"J. c #AB507C",
"K. c #836E63",
"L. c #867863",
"P. c #977B6A",
"I. c #BC6568",
"U. c #B8756B",
"Y. c #916856",
"T. c #C74756",
"R. c #D44A57",
"E. c #D65A59",
"W. c #EC4C5B",
"Q. c #E74557",
"!. c #F24C56",
"~. c #FD4A5B",
"^. c #F84757",
"/. c #ED525D",
"(. c #E3555A",
"). c #F3535C",
"_. c #FD545D",
"`. c #FA5958",
"'. c #D3615C",
"]. c #ED625E",
"[. c #C5496A",
"{. c #D5496A",
"}. c #CA536A",
"|. c #DA5169",
" X c #C54B73",
".X c #C95578",
"XX c #D7557B",
"oX c #D14B73",
"OX c #E44C61",
"+X c #FD4E62",
"@X c #EA5668",
"#X c #FD5B63",
"$X c #FD5666",
"%X c #E65876",
"&X c #F45A78",
"*X c #D56975",
"=X c #DD7775",
"-X c #CE6C69",
";X c #E86766",
":X c #F96766",
">X c #EB7B6B",
",X c #F9796B",
"<X c #FC7D72",
"1X c #E26E7B",
"2X c #7F826F",
"3X c #918870",
"4X c #A99874",
"5X c #BC9678",
"6X c #A6886F",
"7X c #DB8578",
"8X c #CA8D78",
"9X c #FC826B",
"0X c #FC876E",
"qX c #FA8673",
"wX c #FB9A7A",
"eX c #E48E7D",
"rX c #C7AB7D",
"tX c #FBA77B",
"yX c #FFB07F",
"uX c #B85482",
"iX c #A84E82",
"pX c #CD5A83",
"aX c #C17984",
"sX c #999785",
"dX c #8AABAF",
"fX c #B2B29E",
"gX c #D09084",
"hX c #FD8284",
"jX c #CAB683",
"kX c #CAB488",
"lX c #F7B786",
"zX c #FFAF80",
"xX c #D8C996",
"cX c #D6C790",
"vX c #FAC68A",
"bX c #F9CF91",
"nX c #F2D28F",
"mX c #D6D7A4",
"MX c #C7CEA2",
"NX c #EADEA5",
"BX c #EDEAB2",
"VX c #DFE8B3",
"CX c #FFFEC5",
"ZX c #D0DCD3",
/* pixels */
"@ @ @ @ # # #             @ @ @ @ # #       #   @ @ @ @ @ # #         #           @ $ # #       # # # # #       @ $ @ @ ",
"@ @ @ @ 1 1 1 3 3 3 3 3 3 @ @ @ @ % 1 3 3 3 3 3 % @ @ @ % 1 1 2 3 3 3 3 3 3 3 3 3 @ @ ; 1 3 3 3 2 1 1 2 3 3 3 3 @ @ @ @ ",
"@ @   1 A I / 4.9.7.5.9.y.2     X M U w.7.7.9.p.P       w F ~ *.8.8.9.9.9.8.5.8.p.M   w I 8.9.9.4.^ / ^ 4.8.8.p.M   @ @ ",
"@ @ 1 w I / ;.4.3.2.5.,.<.w 1 3 M U *.5.2.3.,.<.U 3 3 1 A I  .-.3.<.-.-.-.4.3.<.<.D 3 A I -.-.,.*.U *.*.4.0.<.4.F 3 @ @ ",
"# 1 I U  .4.e.2.4.2.5.;./ I F *.<.9.8.4.4.3.} U } <.U A U } 8.8.3.-./ / ~ 2.9.-.U  .-.*.} / / / | / <.w.2.3.-.I } <.3   ",
"# % e N F T ;.4.3.2.9.U M m e A I *.-.3.3.2.U A P F A Z U } *.;.9.} w A F } -./ A I F F F I F N Z F / ;.<.9.*.A F I 1 # ",
"@ @ 3 w Z F U ,.3.3.w.F $ 2 8 M A U *.7.3.7.F M N Z A Z U } U | w./ $ e A I } I M Z N N N A N 1 w N I U <.9.} M Z A % # ",
"@ @ 8 m Z I / ,.5.-.*.Z 2 9 8 9 w A I *.} *.M 9 3 1 3 m Z F / / ;.F 2 9 9 A F N 8 9 m 2 1 2 1 ; 2 9 N F / -.F 8 1 1 @ @ ",
"@ $ 9 M A ~ / 4.9.,.} Z 7 9 9 8 9 N F / / / m 7 2 o 2 9 M A } } } F 2 9 7 Z F M 7 9 9 ; @ @ @ * % 8 N A ~ *.F 0 ;   @ @ ",
"@ @ 1 3 9 A U *.<.} U m 1 2 2 7 9 Z F } U I 9 2 1 @ 1 2 e N I I U Z 7 2 2 9 m 8 2 3 2 1 ; $ $ * 1 2 9 N A I N 2 ; @ @ @ ",
"@ @ # @ # 9 A ~ } I F 3 O @ * 8 m Z I *.F A 1 + @ ; * @ 2 9 Z A A N 9 1 @ @ @ @ X @ # @ $ $ % @ @ @ 2 9 1 1 : @ @ @ @ @ ",
"@ @ @ @ @ 8 m A U N 5 1 $ ; ; 1 2 m Z ~ M 2 1 ; 1 : 1 * 1 1 e m M 9 1 1 ; ; @ 2 M 9 w w w % @ 1 ; $ 1 1 m N M m 1 # @ @ ",
"@ @ @ @ @ 2 9 N F 6   $ 1 ; ; * 1 3 e F 3 # 1 & 1 : ; * @ @ 2 8 9 2 @ $ 1 $ @ 8 I A F F A $ $ ; ; $ @ @ M F A I 2   @ @ ",
"@ @ @ @ ; 1 1 1 2 1 % $ 1 $ * * ; 1 1 2 1 ; 1 1 1 1 ; $ j N Z M 1 $ $ ; $ 2 7 8 9 N A A Z N 9 $ 1 @ 2 3 N A Z A M M 1 @ ",
"@ @ @ @ 1 $ @ @ @ $ 1 1 1 $ ; $ @ * @ @ ; 2 $ 1 1 1 1 $ N I F M $ 1 % 1 $ 3 9 8 2 M A Z Z F Z $ 1 $ 2 9 N A Z A A I 1 # ",
"$ @ # @ % ; $ @ @ $ ; $ @ 3 9 @ @ ; ; ; 2 9 2 ; : @ 2 9 N A Z Z Z 9 @ 2 9 9 8 8 2 M Z I ~ ( I @ 2 9 8 3 M Z A ~ ~ ( 1 # ",
"@ @ @ @ % 1 1 1 2 2 2 1 @ 3 8 2 1 % ; ; 2 8 1 ; 1 % 2 9 M A A D F w @ 5 9 8 9 9 9 N A U ~ I Z @ 2 7 9 9 Z A I / I I 1 # ",
"@ @ $ % $ 2 9 A I A F 3 @ @ 1 I S @ @ @ $ $ $ @ 1 e 8 2 M A ~ / >.A . 2 9 8 1 j Z I / ( / 1 $ * * @ m F / ( / >.w . @ @ ",
"@ @ $ ; * 2 9 m M N D w 3 1 $ w m 3 3 6 8 9 1 @ 1 2 9 m A I ~ I Z 9 @ 2 5 w w N F I / A M % $ * $ @ 3 w N Z N A 8 $ @ @ ",
"@ @ 1 $ @ 2 e 2 2 9 Z Z A 2 $ . % F F A A F 2 @ * @ 6 C B f c d < < = = t u u d c G R 5 X X @ $ @ @ O . @ @ $ @ ; 2 @ @ ",
"@ @ @ @ $ 1 1 w N Z I F I 3 $ 2 7 m M A Z A 2 * ; * f G B H l l l l B B l l l l z l s , , 6 m w 9 9 m m 2 ; 1 & $ @ @ @ ",
"@ @ + @ 1 $ @ N F I / / ( 3 @ 9 9 1 w A Z A 4 , y f f Q g.k.V.h.h.M.Z.C.V.h.k.k.k.k.#.x i y v V A D D P 5 $ 1 2 @ # @ @ ",
"@ @ @ @ @ @ ; 1 $ m  .N 2 1 $ 3 9 N A ~ I v y f ` k.T.T.|.|.XX.X X%XhXhX,X:X$X$X$X).(.N.#.Q z i a B V A N N 9 ; $ @ @ @ ",
"@ @ @ @ @ @ $ @ o j 1.e . $ 1 1 9 N F R v d ! k.R.#X$X@XXX.XG.pXpX XS.B.E.T.[.XX%X+X~.~.Q.T.V.r.L d c V A F w @ @ + @ @ ",
"$ @ @ @ @ @ % $ @ 3 P 6 $ $ 1 9 M F D B V r.E.#X+X$X@X|.}.G.G.H.G.$.@.d.A.r.@.@.S.OX^._.:X<X9X>XV.! d b V A M 9 1 @ @ @ ",
"@ @ @ @ @ @ $ @ $ . . $ 2 * 1 D F / f K C.tXzXqXW.Q.!.).!.;X<X-X[ q.dXZXfXsX{ r m.>XqX9XwXtX0X:X#XR.%.d B Z A I 9 $ @ @ ",
"@ @ @ @ @ 3 m w j w M 5 $ ; @ 4 s c f $.1XqXlXvXwX#X`.`.:XwXzX-Xs &.dXZXsXkXy.i Y.lXbXyXwX=X*X@X_._.T.H d B Z D 8 $ @ @ ",
"@ @ @ @ $ m I A A A F 6 * 4 4 p S ! M.H.uX X7XbXbX0X@X|.;X9X0X;X] J o.q.| 6.4.` '.eXgX8X-XH.G. X}.@XR.K u b N A 3 $ @ @ ",
"@ @ # % 2 M A Z Z C v f x Q ! g.T.W.$XXXG.x.7XvXvX7XH.G.}.W.^.~.#Xf.q q L H ' E.+X{.x.x.F.F.F.J.uXXXN.K u G ~ ( k $ @ @ ",
"@ @ # 1 9 M A V B u t W l.v.Q.@X#X_.W.v.W.,XbXnXgXF.A. X/.~.!./.$X).W.Q.(.].>X0X:X|.G.J.F.J.J.H.pX&XT.z u J U / 9 $ @ @ ",
"@ $ 9 8 8 8 3 b y f ! B.,X<X#X^.^.).:X).!.qXyXtX*XD.{././.|.[.G.G.oX@X#X_._.:X9X,X).OX}.H. XoX[.D.k.] H c P A $ @ + @ @ ",
"o $ 9 9 8 9 j d L h.R.<XyXlXtX,X].:X9X,X).:X:X/.Q./.).@X.X.XpXpX*X.X.X|.~.b._.qXtX<X~.W.W.OXN.#.W L >.<.G B m X @ @ @ @ ",
"o @ w 8 2 M B d g.#X#X<XwXlXbXlX0X9X9X:X).).W.!.^._.@XuXiXF.H.*X>XI.A.S.W.b.!.qXlX>Xc.^.!.E.m.,.E :.u.e.v - $ # @ @ @ @ ",
"+ @ 1 8 m Z V c #.#X:X&XoX.XaXgX=X:X_.^.!.:X9X,X#XoXS.z.$.O.L _ _ @.O.%.T.Q.R.B.m.Q W I.U.6X4XjXkX5XK.G i 4 $ @ @ @ @ @ ",
"@ @ O 9 U I Y c L ] g.j.x.oXXXXX X{.Q.c.c.R.7X7XI.%...X.1.+.J Y <.L.3XP.8XgX8XP.u.<.2XBXBXNXnXjX6Xr.+.y - * @ $ O   @ @ ",
"@ @ @ 1 1 A P f u G H H Q h.l.n.D.[.}.'.-XU.rXjX4Xe.+.8.L.L.a.s.4XcXnXcXcXBXBXmXMXMXmXVXVXmX5Xr.Y d y 4 6 m m w 9 9 @ @ ",
"@ @ @ @   N P f v o.o.n c K ' M.I.-X5XkXmXMXcXjX4XL.a.P.P.P.P.6XrXrXrXrXrXxXNXBXBXBXkXy.y.9.X.t = - 4 ; N F A A A F 1 # ",
"@ @ # @ ; 2 6 p d J T 2.u.K.u.3XjXjXNXCXCXxX4Xe.T Y Y Y Y Y Y Y T T X.T T X.:.:.:.:.Y h 4 s b B s * 3 8 9 9 m Z F ^ 1 # ",
"@ @ @ $ 1 $ @ 1 p d d J >.9.4.t.i.i.3X3X3X3.V g y p f d d a a d a p - - y = = - r r - s B m C F w o 1 e 7 1 9 N U >.1 # ",
"$ @ @ @ @ ; 1 1 1 4 4 p d v v f f d d a p - - > 4 6 j m B C V V J m * 1 1 4 4 4 4 s m A K I Z w 8 1 2 2 9 w V I Z Z $ # ",
"@ @ @ @ # 1 2 $ @ 6 P V B B b * * p 4 * ; $ 3 9 8 9 2 2 M A / / ( Z @ 1 % 9 w 8 2 M D U / >.I . 2 N 1 # N I U 1.j . @ @ ",
"@ @ @ @ @ $ $ 9 w M A N N V C m 6 2 2 1 ; $ 3 9 9 8 m M A I ^ ~ ( Z @ 1 $ 8 9 w M A I ~ I m 9 $ 1 2 1 * 3 8 9 M 2 @ @ @ ",
"@ @ @ @ 1 $ $ V I A Z Z A Z Z I N $ $ 2 ; @ 3 9 9 0 M D ~ / ~ ~  .Z $ ; @ 3 9 e A I / / U $ $ : % $ $ $ $ $ @ $ @ @ @ @ ",
"@ @ @ @ $ 2 8 9 9 M A Z A Z Z Z Z N 9 $ 1 ; ; * 3 Z D U U ~ / K 2 2 $ $ ; 1 @ 9 / ~ / 9 2 1 % $ 3 N M M M N 9 $ @ @ @ @ ",
"@ @ @ @ $ 2 w 7 7 w A Z Z N A Z Z F m $ $ 1 * O 3 A I / ~ ~ / A o @ : : 2 @ o 9 ( U ) 2 O 1 1 @ 9 I A A A F m : $ @ @ @ ",
"@ @ @ 1 9 9 9 9 7 m F A Z A Z Z S D m @ 2 9 % $ 1 @ Z =./ /  .I ; ; $ 2 8 1 $ ; & ; : 1 1 $ 1 3 m A A A Z A N A 1   @ @ ",
"@ @ 1 2 9 9 8 8 8 e N Z Z Z Z A Z A m @ 2 8 1 ; ; O m I A A I Z $ 1 $ 8 m 7 2 1 1 2 2 1 1 $ 1 8 m N N N Z Z A F 9 @ @ @ ",
"@ @ 9 8 9 9 8 8 8 3 1 w Z Z N N Z A w $ $ $ $ @ @ $ $ @ @ @ $ ; @ $ @ m F A A A A A A 2 $ $ % 9 9 3 8 8 N A Z N Z A 1 # ",
"@ @ 9 9 8 9 9 8 8 9 w Z I F A F F I m @ 1 1 7 9 8 9 2 $ ; $ 1 : 2 2 % w A Z Z A A Z A w 3 1 % 2 3 9 9 7 Z Z A F F I 1 # ",
"# $ 9 9 8 8 8 8 2 w A I / / / ~ / ,.A . 2 w A I F I 3 @ 1 1 ; $ 9 9 8 Z A A A Z Z A Z F A 2 ; @ 1 9 7 3 M N F / / / 1 # ",
"@ @ 1 2 9 8 8 M M Z I U ~ ~ ~ / F m 3 @ 0 9 e w M A M w 2 $ $ 1 9 9 8 9 e N A Z A Z Z A N 2 ; @ 1 9 e M F I I ~ ~ / 1 # ",
"# @ @ 1 9 9 8 N A I / / ~ ~ ~ ( F @ @ $ 2 w 3 2 9 A A F 2 $ $ 1 9 8 8 7 2 N A Z Z N Z A A 2 ; @ 1 9 N A ~ / ~ ~ ~ / 1 # ",
"@ @ @ 1 9 9 8 N V D / ~ ~ ~ ~ 8 2 ; ; $ 1 ; m N A ~ I ~ 2 $ 2 8 8 8 3 M N I ~ I I U ~ 9 2 ; ; $ % @ N ~ ~ ~ ~ ~ ~ / 1 # ",
"@ @ @ 1 M 9 0 M N A / ~ ~ ( / $ @ $ $ % $ @ V I I / ~ / 2 @ 9 9 9 8 1 M A U / ~ ~ / / 2 @ ; % $ %   Z >.~ U ~ ~ / =.2 # ",
"@ @ # @ 5 9 e A F I / ~ ~ A M 1 $ $ $ @ @ @ 9 9 Z / ~ / 2 @ 8 9 8 9 w N F U ~ ~ ~ ~ / 2 @ @ @ $ $ @ 9 Z I ~ ~ / D N ; # ",
"@ @ # @ O M I ~ / ~ U / =.1 # 1 % 1 $ o @ # @ o 9 >.( =.3 @ 9 9 2 w Z I / ~ U ~ ~ / =.8 @ @ @ 1 ; 1 $ O I =.( =.m . @ @ ",
"@ @ @ @ @ 2 3 I / ~ / Z 9 % @ @ @ @ @ @ @ @ @ @ 2 m w 9 $ @ 1 2 M Z I ~ ~ ~ ~ ~ / N 3 1 @ @ @ $ @ @ $ % 9 m k M 2 @ @ @ ",
"@ @ @ @ @ @ O P  ./ =.9   @ @ @ @ @ @ @ @ @ @ @ @ @ @ @ @ @ @ 2 D I ( / / / / / =.3   + @ $ @ @ @ O @ 1 $ @ $ $ @ @ $ @ ",
"@ @ @ @ @ @ @ % 1 1 2 @ @ @ @ @ @ @ @ @ @ @ @ @ @ @ @ @ @ @ @ @ 1 1 2 1 1 1 1 1 2 @ @ @ @ @ @ @ @ @ @ @ @ @ @ @ @ @ @ @ ",
"@ @ @ @ @ @ @ # # #   + @ @ @ @ @ @ @ @ @ @ @ @ @ @ @ @ @ @ @ @ # # # # # # # # # @ @ @ @ @ @ @ @ @ @ @ @ @ @ @ @ @ @ @ "
};
