/* XPM */
static char *xpm_[] = {
/* columns rows colors chars-per-pixel */
"60 60 241 2 ",
"   c #040405",
".  c #0A0405",
"X  c #0B0907",
"o  c #050409",
"O  c #0A0709",
"+  c #070909",
"@  c #0C0B0B",
"#  c #070907",
"$  c #120D0D",
"%  c #13100E",
"&  c #1A100F",
"*  c #0D0D11",
"=  c #08091C",
"-  c #120E11",
";  c #180F11",
":  c #0C111B",
">  c #0A1119",
",  c #151212",
"<  c #1B1515",
"1  c #1B1916",
"2  c #14131A",
"3  c #1B1619",
"4  c #1D1A1A",
"5  c #17181D",
"6  c #211917",
"7  c #231C1B",
"8  c #221819",
"9  c #26211E",
"0  c #29211E",
"q  c #040D22",
"w  c #050A22",
"e  c #051324",
"r  c #0B1423",
"t  c #0C172B",
"y  c #141425",
"u  c #141A25",
"i  c #1A1A24",
"p  c #14152A",
"a  c #141B29",
"s  c #1A1B2C",
"d  c #1C1622",
"f  c #1A162C",
"g  c #231E23",
"h  c #281F20",
"j  c #221C2B",
"k  c #2B1C2E",
"l  c #2A1B37",
"z  c #361F33",
"x  c #36192C",
"c  c #19212C",
"v  c #182331",
"b  c #16332D",
"n  c #262222",
"m  c #2B2523",
"M  c #2E2926",
"N  c #24232B",
"B  c #2D252A",
"V  c #2D292A",
"C  c #302625",
"Z  c #312A27",
"A  c #332D2A",
"S  c #392F2D",
"D  c #302729",
"F  c #36312D",
"G  c #39312E",
"H  c #2C2C33",
"J  c #262634",
"K  c #372936",
"L  c #353234",
"P  c #3C3432",
"I  c #3E3A35",
"U  c #39373A",
"Y  c #243536",
"T  c #461422",
"R  c #562939",
"E  c #413736",
"W  c #423936",
"Q  c #443B39",
"!  c #493D3C",
"~  c #45363D",
"^  c #503138",
"/  c #6B2C3A",
"(  c #661D30",
")  c #45413D",
"_  c #45413C",
"`  c #49423E",
"'  c #393A40",
"]  c #453B45",
"[  c #4E2D42",
"{  c #6A2D41",
"}  c #793643",
"|  c #6C3648",
" . c #713460",
".. c #3C4447",
"X. c #494540",
"o. c #4C4342",
"O. c #4E4A45",
"+. c #4C4944",
"@. c #4A494A",
"#. c #514444",
"$. c #504D46",
"%. c #534E4A",
"&. c #5A4B4B",
"*. c #56534C",
"=. c #57544D",
"-. c #54514B",
";. c #59554E",
":. c #595751",
">. c #5A5851",
",. c #5D5A54",
"<. c #565550",
"1. c #515052",
"2. c #6A4B48",
"3. c #695B4F",
"4. c #615E59",
"5. c #615A54",
"6. c #674857",
"7. c #68625A",
"8. c #74675C",
"9. c #6B6861",
"0. c #6F7264",
"q. c #6C717B",
"w. c #932636",
"e. c #A82C36",
"r. c #863646",
"t. c #933A48",
"y. c #973350",
"u. c #A43A48",
"i. c #B2374E",
"p. c #B03D6E",
"a. c #D03956",
"s. c #ED3C55",
"d. c #EC3748",
"f. c #8E474E",
"g. c #90424D",
"h. c #965751",
"j. c #8A4D57",
"k. c #A9484F",
"l. c #A74553",
"z. c #B74A55",
"x. c #936959",
"c. c #BD665B",
"v. c #9F4E7D",
"b. c #8B5278",
"n. c #A84976",
"m. c #B34B74",
"M. c #B14E7B",
"N. c #B94A74",
"B. c #A8517B",
"V. c #BA547A",
"C. c #A34A6A",
"Z. c #8A7768",
"A. c #8A6D62",
"S. c #BC6566",
"D. c #D64957",
"F. c #CC5157",
"G. c #EC4456",
"H. c #EC4B5A",
"J. c #EB4858",
"K. c #F64A57",
"L. c #EA565C",
"P. c #F4535D",
"I. c #FE545C",
"U. c #F45D5D",
"Y. c #FA5358",
"T. c #CE635D",
"R. c #FE675E",
"E. c #E4635E",
"W. c #D84B65",
"Q. c #CA576B",
"!. c #D95467",
"~. c #C84971",
"^. c #C7557A",
"/. c #D85474",
"(. c #CF496D",
"). c #E74962",
"_. c #E35163",
"`. c #E95763",
"'. c #FD5B63",
"]. c #F75764",
"[. c #E45875",
"{. c #F5546C",
"}. c #D46A73",
"|. c #FC6463",
" X c #F96A67",
".X c #E8796A",
"XX c #FA7768",
"oX c #EC6E72",
"OX c #9C876C",
"+X c #988773",
"@X c #96907A",
"#X c #A8886D",
"$X c #AC8A74",
"%X c #B28D78",
"&X c #AD9977",
"*X c #B99979",
"=X c #BBA377",
"-X c #D29171",
";X c #ED896C",
":X c #FC876C",
">X c #FE936D",
",X c #FB8774",
"<X c #FD9778",
"1X c #EB8673",
"2X c #C7A37F",
"3X c #FAA57A",
"4X c #FDB47F",
"5X c #B75482",
"6X c #AA4B83",
"7X c #BF7783",
"8X c #C85983",
"9X c #E97C81",
"0X c #7D8D9A",
"qX c #A59E81",
"wX c #BBA983",
"eX c #9FABAF",
"rX c #EC9683",
"tX c #CCAA83",
"yX c #D0B689",
"uX c #F8AF83",
"iX c #FEB885",
"pX c #E6AD88",
"aX c #CE8B85",
"sX c #D3C496",
"dX c #E9C389",
"fX c #FCC68A",
"gX c #F9D597",
"hX c #E5CE9A",
"jX c #D2CBA0",
"kX c #DAD7A5",
"lX c #EDD5AC",
"zX c #EAE6AD",
"xX c #FDF8B8",
"cX c #F5EDB3",
"vX c #B9D2D9",
"bX c #C5C3C6",
"nX c #E2DDC7",
"mX c #FFFECE",
"MX c #FCF9C4",
"NX c #D9E4E6",
"BX c #FFFFFD",
/* pixels */
"@ @ @ @ . . .             @ @ @ @ . .       .   @ @ @ @ @ . .         .           @ $ # .       . .   .         @ @ @ @ ",
"@ @ @ @ , , , 1 1 1 1 1 1 @ @ @ @ % , 1 1 1 1 1 % @ @ @ % , , < 1 1 1 1 1 1 1 1 4 @ @ - , 1 1 1 < , , < 1 1 1 4 @ @ @ @ ",
"@ @   , A P Q *.,.:.;.,.7.<     X m I 4.:.:.,.9.L       9 G E X.>.>.,.,.,.>.=.>.9.m   9 P >.,.,.-.W Q W -.>.>.9.m   @ @ ",
"@ @ , 9 P Q +.-.=.*.;.$.%.9 , 1 m I X.;.*.=.$.%.I 1 1 , A P ` O.=.%.O.O.O.-.=.%.%.F 1 A P O.O.$.X.I X.X.*.<.%.-.G 1 @ @ ",
". , P I ` -.,.*.-.*.;.+.Q P G X.%.,.>.-.-.*.) I ) %.I A I ) >.>.=.O.Q Q E *.,.O.I ` O.X.) Q Q Q _ Q %.4.*.=.O.P ) %.1   ",
"# $ 0 M G I +.-.=.*.,.I m n 0 A I X.O.=.*.*.I A L G A Z I _ X.+.,.) 9 A G _ O.Q A P G G G P G m Z G Q +.%.,.X.A G P , . ",
"@ @ 1 9 Z G I $.=.=.4.S $ < 7 m A I X.:.=.:.G m M Z A Z I ) I _ 4.Q $ 9 A P ) P m Z M M M A m < 9 M P I %.,.) m V A % . ",
"@ @ 7 n Z P Q $.;.O.X.Z < 7 7 7 9 A P X.) X.m 7 4 , 4 n Z G Q Q +.G < 7 7 A G M 7 7 n < , < , - < 7 M G Q O.G 7 < , @ @ ",
"@ $ 7 m S E Q *.,.$._ Z 6 7 7 8 7 M G Q Q Q n 6 < . < 7 M A ) _ ` G < 7 6 Z P m 6 7 7 - @ @ @ * % 7 m A E X.G 6 -   @ @ ",
"@ @ , 4 7 A I X.%.) I n , < < 6 7 Z G ` I I 7 , , $ , < 0 Z P P I Z 6 3 < 7 9 7 < 1 < , - $ $ * , < 7 C A P m < - @ @ @ ",
"@ @ . + . 7 A E ) P G 4 O @ * 7 n Z P X.G A , + * * @ @ < 7 M A A m 7 , @ @ @ @ X @ # @ $ $ % @ @ @ < 7 < < ; @ @ @ @ @ ",
"@ @ @ @ @ 7 n A I M 3 , $ * * , < n C E m < , - , $ % - , < 7 0 m 7 , , $ , @ < m 7 9 9 9 % @ , - $ , , n m m n , . @ @ ",
"@ @ @ @ @ < 7 M G 4   $ , - - * , 4 0 G 1 . , & , ; % * @ @ < 4 7 < @ $ < $ @ 7 P A G G A $ $ - - $ @ @ B G A P <   @ @ ",
"@ @ @ @ - , , , < , % $ , $ * * - , , < , - , , $ , - @ 7 M Z 0 $ , , - $ < 6 7 7 m A A Z M 7 $ , @ < 4 M A Z A B m , + ",
"@ @ @ @ , $ @ @ @ $ , , , $ - $ @ * @ @ - < $ , ; - , $ M G A B , , , , - 4 7 7 < m A Z Z G Z $ , $ < 7 M A Z A S P , . ",
"$ @ # @ % - $ @ @ $ - $ @ 4 7 @ @ - - - < 7 < - , @ < 7 n c a a a r > r u u 4 7 < m Z P E ! P @ < 7 7 1 m Z S E E ! < . ",
"@ @ @ @ % , , < < < < , @ 1 7 < < - , $ < 7 & $ , $ < i c a s B R ^ [ R ^ j a u 4 m S E Q P D @ , 7 7 9 Z S P Q P P , . ",
"@ @ $ % $ < 7 A G A G 4 @ @ , P Z @ @ $ $ $ $ @ < n r t K { r.u.L.XX.XL.D.r.K t a V Q ! Q , @ @ $ @ n P Q ` ! +.9 X @ @ ",
"@ @ $ - * < 7 n m M F 9 4 , $ 9 7 7 4 1 7 7 , - < > e R F.L.].{.'.:XXXI.I.P.F.t.J a H A m , $ - - @ 4 n m D Z Z 7 $ @ @ ",
"@ @ , $ @ < 0 < < 7 Z Z S < $   , P G A G G 2 * e k r.F.I.{././.^.1X,X'.!.].'.`.l.z v < . @ @ @ @ @ O . @ $ $ @ - , @ @ ",
"@ @ @ @ $ , , 9 m Z P G P 1 $ < 4 9 m A A A < > s t.I.|./.M.v.v.6XQ.L._.M.~.].'.'.u.j : * 7 9 9 n 7 7 n < $ , , $ @ @ @ ",
"@ @ + @ , $ @ M G P Q Q ! 1 @ 7 7 < 7 Z Z Z 3 y R L.I._.M.B.B.M.M.y.e.a.V.^.L.Y.'.`.} = 2 A G F A S S G < X $ , @ . @ @ ",
"@ @ @ @ @ @ - , $ n ` m < , $ 4 7 m A E P E 2 N k.U.'._.!.W./.~.y.b.q.6.r.W.'.J.U.XXT.R p N A A Z A Z A m M 7 $ $ @ @ @ ",
"@ @ @ @ @ @ $ @ o g &.0 . $ , < 7 M G Q W Q d 2.;X XP.J.H.K.s.i.6.eXvXeXB w.s.].,X<X Xu.a c A Z A Z A Z A G 9 @ @ + @ @ ",
"@ $ $ @ @ @ , $ @ 3 S 7 $ $ , 7 m F P E E I d x.iX<XU.s.P.'.d.w.q.NXBXnXb T F.,X4X<X|.D.K u B Z A A Z A Z A m 7 , @ @ @ ",
"@ @ @ @ . @ $ @ @ @ . $ < $ - A P Q Q P Q H y j.iXiXXXG.U.,XT.f.0XbXlX*XY +.2XfX3XXXI.L.} s 4 S A Z A Z Z Z A P 7 $ @ @ ",
"@ @ @ @ @ 1 n 9 9 7 m < $ - - < 9 Q E Q j > K C.oXuX<XXXXXiXuXx.v 1.OXA.e &.-X<X X_._.'.t.j 4 n m A Z M A Z A A 7 $ @ @ ",
"@ @ @ @ $ 9 P A G A P 7 @ $ $ o < Q L J j R l.~.N.rXfX3XE.1X<XT.T 4 Y L x k.oX/.W.N.^.{.t.j 5 < 9 A M Z Z M Z A 4 $ @ @ ",
"@ @ . $ 4 m A Z Z Z Z M B < $ , , 5 e z t.D.'.W.n.3XfX1Xp.a.K.I.D.{ s K z.).(.n.N.B.V.[.r.j r m A E P I P P I Q g $ @ @ ",
"@ @ # , 7 m A Z M Z A A G < $ 2 y q k u.].'.H.W.}.iXpXV.m.D.P.P.I.H.E.;X:X}.m.n.M.B.V.[.t.k r A G Q Q W Q Q E Q 7 $ @ @ ",
"@ @ 7 7 7 7 6 m A Z M M A < $ : t k u.L.'.].G.J.XXfXaXn.N.H.Y.I.I.I.|.:X>X.XV.n.m.B.^./.} s a Q Q E E E Q X.A $ @ + @ @ ",
"+ $ 7 7 7 7 7 Z S Z S A S < , > v h.].].K.H.s.|.4XfX7Xp.W.I.Y._.W.H.P.|.:XXXQ.n.B.8X[.F.x e a S P E E E P P n O @ @ @ @ ",
"@ @ 9 7 < n A P Q E I ! o.1 : e ] ;XXX].G.J.J.,XfXpX^.~.P.P.W.N.n.(.H.K.XXXX`.N.n.[._./ y e i o 7 +.! ` 6 $ @ . @ @ @ @ ",
"+ @ < 7 0 Z G I E E Q A C , e j g.,X3X,X].|.XX:X.X!.W.K.Y.!.m.B.B.N.).Y. X X'.H.{.D.( q U U s @ 4 A C Z < - $ @ @ @ @ @ ",
"@ @ O 7 I P Q E E E #.9   * e / J.|.3XfX4X>XXX].J.H.K.Y.!.n.5X9XrXoX).K.XX,X XK.I.g.L ..Z.;.a $ $ $ $ @ @ @ @ $ O   @ @ ",
"@ @ @ , < S Q E Q S g 7 < , e / H.).}.rX3X:XU.H.H.R.R.`.^.6X}..X-XQ.a.K.,X1XF.u.c.A.0.OX$X#.u n 4 - , $ 7 n 7 7 7 7 @ @ ",
"@ @ # @   B ` Q o.m   < n < e K l./.M.n.W.H.G.P.XX>X X/.5XM.j.2.^ { i.P..Xh.~ @.Z.*XtX*X8.H N G 9 - $ $ Z P G G A G , . ",
"@ @ # @ $ < 4 4 7 < $ & < , e s r.[.V.b.m.W.G.Y.XX:XXXm. .[ f w e U j.g.k = H +XwXtX2XOX] a n S 9 O < 7 7 7 n Z G Q , . ",
"@ @ @ @ , $ @ $ $ $ @ $ $ $ e t / '.{.8X5XN.).K.U.c.| l j v H o.7.Z.+XZ.o.+.@XzXzXgX$X] t i V P 7 o 3 n 4 < 7 M I #., . ",
"@ @ @ @ @ - , $ - < 7 7 7 7 a t K u.D.W.N.m.W.!.S.A.@.Y +.7.Z.%XyXpXsXsXyXjXMXmXxXyX2.w u A A 9 7 , < < 9 n m G Z Z $ . ",
"@ @ @ @ . - , $ . 1 P A S G s c v J R t.i.z.S.$XqXwX&XOX$X*X%X%XtXdXgXcXmXmXMXcXsX7.p p E #.E . < m , . M P I &.g . @ @ ",
"@ @ @ @ @ $ $ 7 9 m A Z Z A y v @.7.%.#.2.x.&XkXxXgXdX$X5.&.] &.#XyXdXhXxXjX@X9.' t a L I m 7 - , < , * 4 7 7 m < @ @ @ ",
"@ @ @ @ , $ $ M P A Z Z Z M N s L 7.+X&X=X&XkXMXkXOX3.o.J s p a ' ;.3.5.0.@.N y r s L Q E $ @ < % $ $ $ $ $ @ $ @ + @ @ ",
"@ @ @ @ $ < 7 7 7 n A Z A Z A N t K A.yXgXfXxXkX8.s = y N N J s q q w > = = = 2 H P Q n < , , @ 1 M m B m M 7 $ @ + @ @ ",
"@ @ @ $ $ < 9 7 < h A M M A Z V s q p &.*XdXyX9.t = N P L P I V * : 2 2 2 - * g U S I < X , , @ 7 P A S A G n ; $ @ @ @ ",
"@ @ @ , 7 7 7 7 6 n A A Z V Z M V c > p ' 5.U r q : B ~ I Q ! L 2 2 , 5 i 2 2 2 , , $ , - $ % 6 n S A A Z A M S ,   @ @ ",
"@ @ , < 7 7 7 7 6 n M M A Z A Z Z A i q r p = = 2 * n L S A P Z , 2 - 4 n 4 3 3 3 < < - , $ , 7 n M M m Z Z A G 7 @ @ @ ",
"+ @ 7 7 7 7 7 7 7 7 < n M Z M M A A 7 2 : * * * - , * * @ * - - $ $ @ 9 S A A A A Z S < X $ , 9 7 1 7 7 m A Z M Z A , . ",
"@ @ 7 7 7 7 7 7 7 7 9 Z P S S G S P n @ 2 3 4 4 4 4 < @ - - - , < < % 9 A Z Z A A Z A 9 4 , % < 4 7 7 6 Z Z A G G P , . ",
". $ 7 7 7 7 7 7 < 9 A P Q Q Q E Q #.A . < 7 A P G P 7 @ $ , $ , 7 7 7 Z S Z A Z Z A Z G A < - @ , 7 6 1 m M G Q Q Q , . ",
"@ @ , < 7 7 7 m m Z P I E E E Q P n 4 @ 6 7 0 9 m A m 9 < $ $ , 7 7 7 7 0 M A Z A Z Z A M , - @ , 7 0 m G P P E E Q , . ",
"# @ @ , 7 7 7 M A P Q Q E E E ! S O $ $ < 7 7 < 9 A A G < $ $ % 7 7 7 6 < m A Z Z M Z A A , - @ , 7 m S E Q E E E Q , . ",
"@ @ @ , 7 7 7 M V S Q E I E I 7 < % $ % , , m m S E P E < $ 4 7 7 7 1 m M P E P P I E 7 < - - $ % @ m E E E E E E Q , . ",
"@ @ @ , n 7 6 m M S Q I I ! Q $ @ - $ % $ @ V P P Q Q Q < @ 7 7 7 7 < m A I Q E E Q Q < @ - % $ %   Z #.E I E E Q o.< . ",
"@ @ # @ 3 7 0 A G P Q E E A B , $ - $ * @ @ 4 7 V Q E Q < @ 7 7 7 7 9 M G I E E E E Q < @ @ @ $ $ @ 7 Z P E E Q S C - . ",
"@ @ # @ O n P E Q E I Q o.< . , , % $ + @ @ @ o g #.! ` 3 @ 7 7 < 9 Z P Q E I E E Q o.7 @ @ @ , - , $ O P o.! o.n . @ @ ",
"@ @ @ @ @ < 4 P Q E Q Z 7 % @ @ @ @ @ @ @ @ @ @ < n 9 7 $ @ , < m Z P I E E E E Q m 1 , @ @ @ $ @ @ $ % 7 n h m < @ @ @ ",
"@ @ @ @ @ @ O L ` Q o.7   @ @ @ @ @ @ @ @ @ @ @ @ @ @ @ @ @ @ < S P ! Q Q Q Q Q o.4   + @ $ @ @ @ O @ , $ @ $ $ @ @ $ @ ",
"@ @ @ @ @ @ @ % , , < @ @ @ @ @ @ @ @ @ @ @ @ @ @ @ @ @ @ @ @ @ , , < , , , , , < @ @ @ @ @ @ @ @ @ @ @ @ @ @ @ @ @ @ @ ",
"@ @ @ @ @ @ @ . . .   + @ @ @ @ @ @ @ @ @ @ @ @ @ @ @ @ @ @ @ @ . . . . . . . . . @ @ @ @ @ @ @ @ @ @ @ @ @ @ @ @ @ @ @ "
};
