/* XPM */
static char *xpm_[] = {
/* columns rows colors chars-per-pixel */
"60 60 246 2 ",
"   c #040405",
".  c #0A0405",
"X  c #0A0907",
"o  c #0A070A",
"O  c #070909",
"+  c #0C0B0B",
"@  c #050708",
"#  c #120D0D",
"$  c #13110E",
"%  c #1A100F",
"&  c #0D0C12",
"*  c #0B0D1B",
"=  c #040618",
"-  c #130F11",
";  c #180F11",
":  c #100F1F",
">  c #0F101A",
",  c #151212",
"<  c #1B1515",
"1  c #1B1917",
"2  c #13141A",
"3  c #1A161A",
"4  c #1D1A19",
"5  c #17191D",
"6  c #211917",
"7  c #231C1B",
"8  c #221819",
"9  c #240D1F",
"0  c #25211E",
"q  c #29211E",
"w  c #070D22",
"e  c #0C0C24",
"r  c #041424",
"t  c #0C1324",
"y  c #0C1A2A",
"u  c #0A1727",
"i  c #141523",
"p  c #141A25",
"a  c #1C1C23",
"s  c #141B2B",
"d  c #1B1D2B",
"f  c #17152A",
"g  c #1C1C31",
"h  c #061C31",
"j  c #221E22",
"k  c #281F20",
"l  c #271C2C",
"z  c #261D35",
"x  c #341D30",
"c  c #1C222A",
"v  c #1C2332",
"b  c #142131",
"n  c #112931",
"m  c #252122",
"M  c #2B2423",
"N  c #2E2926",
"B  c #24242B",
"V  c #2A262A",
"C  c #2D2A2A",
"Z  c #272A2E",
"A  c #312A27",
"S  c #33242B",
"D  c #332D2A",
"F  c #342A29",
"G  c #36312D",
"H  c #39312E",
"J  c #242531",
"K  c #2D2B33",
"L  c #272834",
"P  c #342D32",
"I  c #362634",
"U  c #2A363B",
"Y  c #363233",
"T  c #3C3432",
"R  c #3E3A35",
"E  c #3A383A",
"W  c #5C1F2F",
"Q  c #472634",
"!  c #5B2938",
"~  c #413636",
"^  c #413936",
"/  c #41373A",
"(  c #443B3A",
")  c #493E3D",
"_  c #4A343B",
"`  c #50353C",
"'  c #652B3A",
"]  c #6B343E",
"[  c #7D383D",
"{  c #77293D",
"}  c #6D1D3A",
"|  c #45413D",
" . c #45413D",
".. c #4A413E",
"X. c #6E413E",
"o. c #3B3E42",
"O. c #4D1F43",
"+. c #4B3246",
"@. c #793545",
"#. c #6A354C",
"$. c #3F4447",
"%. c #494540",
"&. c #4C4341",
"*. c #4E4A45",
"=. c #4D4943",
"-. c #4C4B4C",
";. c #514C46",
":. c #534E4A",
">. c #554748",
",. c #56534C",
"<. c #57544D",
"1. c #53514B",
"2. c #59554E",
"3. c #5A5651",
"4. c #5A5851",
"5. c #5D5A54",
"6. c #545750",
"7. c #4A534E",
"8. c #615D58",
"9. c #655954",
"0. c #6D4D4E",
"q. c #6A6258",
"w. c #75755C",
"e. c #726E5B",
"r. c #6A6963",
"t. c #746861",
"y. c #757261",
"u. c #596676",
"i. c #83283E",
"p. c #861C28",
"a. c #983846",
"s. c #8A3148",
"d. c #AC394F",
"f. c #933C71",
"g. c #AB3C6F",
"h. c #CA3C55",
"j. c #E83A57",
"k. c #F43953",
"l. c #F63D4F",
"z. c #C03F65",
"x. c #8F5151",
"c. c #BF444A",
"v. c #B74555",
"b. c #A84C54",
"n. c #B56C5A",
"m. c #96466B",
"M. c #A64565",
"N. c #BC456C",
"B. c #A54B7A",
"V. c #AB4D7B",
"C. c #A84978",
"Z. c #B64D77",
"A. c #AD527C",
"S. c #A8507B",
"D. c #BB5679",
"F. c #B05165",
"G. c #897565",
"H. c #967A69",
"J. c #8F6A62",
"K. c #A77F6E",
"L. c #AF7770",
"P. c #DA4A59",
"I. c #CD4C56",
"U. c #E94958",
"Y. c #FC4D5A",
"T. c #F54858",
"R. c #E9535C",
"E. c #FB545B",
"W. c #F7555A",
"Q. c #FB665F",
"!. c #C9496B",
"~. c #D74C66",
"^. c #CD526B",
"/. c #D55167",
"(. c #C44B76",
"). c #C95777",
"_. c #D75676",
"`. c #E34E64",
"'. c #EC5363",
"]. c #E65768",
"[. c #FD5462",
"{. c #FF5B65",
"}. c #F95767",
"|. c #E45979",
" X c #F3556B",
".X c #DB6866",
"XX c #D2746C",
"oX c #F76863",
"OX c #E27567",
"+X c #FB7966",
"@X c #F77669",
"#X c #EF6D6D",
"$X c #9A8668",
"%X c #8F8D76",
"&X c #A59E7D",
"*X c #B08E74",
"=X c #DF8F73",
"-X c #FC846B",
";X c #E98974",
":X c #FC8D74",
">X c #FC8877",
",X c #FC9274",
"<X c #FA9A78",
"1X c #E5997F",
"2X c #C2A47C",
"3X c #DBB67F",
"4X c #FEA47A",
"5X c #FDAC7D",
"6X c #FEB47D",
"7X c #AB5583",
"8X c #B45483",
"9X c #B84D81",
"0X c #D35A82",
"qX c #F65F82",
"wX c #FB6281",
"eX c #DC6C84",
"rX c #939D82",
"tX c #BF9A80",
"yX c #9EA59D",
"uX c #B9AD89",
"iX c #B5AE86",
"pX c #9DADBC",
"aX c #A1B0B3",
"sX c #CDAC82",
"dX c #D6B687",
"fX c #C8BB8E",
"gX c #FEA881",
"hX c #E9B98A",
"jX c #FDB886",
"kX c #ECA883",
"lX c #D08B84",
"zX c #B7C298",
"xX c #D6C58F",
"cX c #FEC889",
"vX c #F9DA98",
"bX c #ECC88E",
"nX c #FFE199",
"mX c #D1D1A5",
"MX c #E6DCA6",
"NX c #E5CAAD",
"BX c #FDF5B7",
"VX c #E1E0B2",
"CX c #9ABBC0",
"ZX c #FDFCC6",
"AX c #EBECC5",
"SX c #FFFCF3",
/* pixels */
"+ + + + @ @ @             + + + + @ @       @   + + + + O @ @         @           + # X @       @ @ @ @ @       + # + + ",
"+ + + + , , , 1 1 1 1 1 1 + + + + $ , 1 1 1 1 1 $ + + + $ , , < 1 1 1 1 1 1 1 1 4 + + - , 1 1 1 < , , < 1 1 1 4 + + + + ",
"+ +   , D T ( 1.5.3.2.5.q.<     X M R 8.3.3.5.r.E       0 H ~ %.4.4.5.5.5.4.2.4.r.M   0 T 4.5.8.1.^ ( ^ 1.5.4.r.M   + + ",
"+ + , 0 T ( =.1.<.,.2.;.:.0 , 1 M R %.2.,.<.;.:.R 1 1 , D T ..*.<.:.*.*.*.1.<.:.:.G 1 D T *.*.;.%.R %.%.1.6.:.1.H 1 + + ",
"@ , T R ..1.8.,.1.,.2.=.( T H %.:.5.4.1.1.<. .R  .:.R D R  .4.4.<.*.( ( ~ ,.5.*.R ..*.%. .( ( ( | ( :.8.,.<.*.T ..:.1   ",
"@ $ q N H R =.1.<.,.5.R M m q D T %.*.<.<.<.R D Y H D A R  .%.=.5. .0 D H | *.( D T H H H T H N A H ( =.:.5.%.D H T , @ ",
"+ + 1 0 A H R ;.<.<.8.H # < 8 M D R %.3.<.3.H M N A D A R  .R | 8.( # q D T  .T M A N N N D N , 0 N T R :.5. .M A D $ @ ",
"+ + 8 m A T ( ;.2.*.%.A < 7 8 7 0 D T %. .%.M 7 4 , 4 m A H ( ( =.H < 7 7 D H N 8 7 m < , , , - < 7 N H ( *.H 8 , , + + ",
"+ # 7 M D ~ ( 1.5.;. .A 6 7 7 8 7 N H ( ( ( m 6 1 @ , 7 N D (  . .H < 8 6 A H M 6 7 7 - + + + & $ 8 N D ~ %.H 6 -   + + ",
"+ + , 4 7 D R %.:. .R m , < < 6 7 A H  .R T 7 < , + , 3 q N T R R A 6 < < 7 m 7 < 1 < , - # # & , < 7 N D T N < - + + + ",
"+ + @ + @ 7 D ~  .T H 4 o + & 8 m A T %.H D , + + - & + < 7 A F C N 7 , + + + + X + X + # # $ + + + < 7 , , ; + + + + + ",
"+ + + + + 8 m D R N 1 , # & & , < m A ~ M < , - - - , + , < q q M 7 , , # $ + < M 7 0 0 0 $ + , - # , , m N M m , @ + + ",
"+ + + + + < 7 N H 4   # , - - & , 4 q H 1 @ , % , ; - + + + < 4 7 < + # , # + 8 T D H H D # # - - # + + V H D T <   + + ",
"+ + + + - , , , < , $ # , # & & - , , < , - , , , , - + 0 N A M # ; - - # 1 4 7 7 N D D A N 7 # , + < 4 N D A D V M , + ",
"+ + + + , + + + + # , , , # - # + & + + - , # , , , - # N H H M # ; # - # 8 7 8 < M D A F H A # , # < 7 N D A D D T , @ ",
"# + X + $ - # + + # - # + 4 7 + + - - - < 7 , - - + < 8 B V B B B 5 & 2 5 4 8 4 < M A T ~ ) T + , 7 8 1 M A D ~ ~ ) , @ ",
"+ + + + $ , , , < < < , + 1 8 < , - - # < 7 < - , , 3 a s c c c B a * p p 5 1 5 7 N G T ( T A + < 8 7 0 A D H ( T T , @ ",
"+ + # $ # < 7 D H D H 4 + + , T C + # + # # - # 3 d p u r r l Q ` _ _ Q J s t u B P ~ ) ( $ + + # + m T ( ..) =.0 X + + ",
"+ + # - & < 7 m M N G 0 4 , # 0 7 4 8 4 7 7 , 2 r r u I [ ] a.P.OX=X.XP.c.a.! z u b Y D V , # - # + 4 m N A A D 8 # + + ",
"+ + , # + < q < , 7 A A D < # . $ T H H D Y 5 r y ' a.I.`.^.^._.#X,X-X}.'.R.I.b.' s p 2 + + + + + + o @ + # + + # < + + ",
"+ + + + # , < 0 N A T H T 1 # < 1 q M D A V r g @.R.{. X|.0XD.A.A..XoX`.).|.{.{.R.] f r t j 0 7 7 7 7 m < - , , # + + + ",
"+ + O + , # + N H T ( ( ) 1 + 7 7 , 7 D C s y @.E.{._.7XS.B.A.8XC.v.P.~.7XA.~.E.[./.x.T s d D D D D D H < # , < + @ + + ",
"+ + + + + + - , # m ..N < , # 4 7 M D ~ P y ] U.Y.'.^.Z.^.)._.M.O.#.0.@.M.(.`.l.k.oX;XXXx w c A A D A A M N 7 # # + + + ",
"+ + + + + + # + @ j ,.q . # , , 7 C H ( K Z n.+XE.U.P.U.T.T.d.#.u.pXaXr.! d.[.T.oX:X<X+Xs.f u V N A D A D T 0 + + O + + ",
"+ # # + + + , # + 4 D 8 # # $ 7 N H H P d 0.1XjX@XU.T.E.E.E.p.v CXSXSXrXu [ @X:X4X<X+XW.P.#.y c N A A A D D M 8 , + + + ",
"+ + + + @ + # + + + . # , + $ G T ^ K p z M.<XcXgXR.T.+X<XgXX.h yXNXbX$Xn q.hXcX4X+XR.`.{.v.V B D D A D A A D T 7 # + + ",
"+ + + + + 1 m 0 0 7 m < # - - < j L p Q m.9X).;XjX:XoX+X<XjXb.l n w.w.U t x.,X;XoX`.!.(.{.c.S a M D A A A A A D 8 # + + ",
"+ + + + # 0 T D G H T 7 + # 2 = r I ] v.].Z.g.OXcX5X.X~..X@X].a.9 B L L i.P.].N.!.N.V.V.|.b.S t j C N A A A A D 4 # + + ",
"+ + @ # 4 M D A N A D A V 5 t p I a.E.{.[.z.Z.1XcX=XV.g.h.k.Y.E.d.} ! x.oX[.!.B.V.A.S.A.|.b.S u B T T ~ R T T ( k # + + ",
"+ + X , 7 M D A C C A C B r u #.P.}.[.E.U.j.#XjXhXA.f.Z.R.W.W.E.E.E.@X:X:XoX!.C.A.A.B.8XwXI.I r B T / ^ ~ ( ~ ( 7 # + + ",
"+ + 8 8 8 8 6 N D N N B u r @.P.Y.Y.T.U.j.W.6XvXlXC.N.'.E.Y.~.!.`.}.{.oX:X+X].Z.B.7X)._.].{ w u K Y ~ ^ ( &.D # + O + + ",
"O # 7 8 7 7 7 A H F C s r I .X:X@XT.U.U.W.@X6XkX).!.U.W.R.~.N.C.V./.U.W.+X-XQ.~.Z.).~.d.' l v g Z Y ~ ~ T T m + + + + + ",
"+ + 0 7 < m D T ( ~ K s x d.;XjXgX@XoXoX-X@X@X].~.T.W./.D.Z.D.D.7X).U.T.@X,X@XT.'.'.h.W w U :.v a E ( ..3 # # @ + + + + ",
"O + < 8 q A H R ~ ~ K B s.[.oX,XcXcX4X:X@X'.U.U.W.E./.V.8X0X>X,XeX_.j.T.-XjX,Xk.E.I.0.+.9.t.,.u i B A A < # # + + + + + ",
"+ + o 7 R T ( ~ ~ ( E d @.'.~.D.XX;X-XQ.W.U.W.+X+X{.|.8XC.M.n.n.m.g.j.E.4XjXXXi.b.H.G.H.*XG.K w 2 - # # + + # + o   + + ",
"+ + + , < D ( ~ ( D a u Q I.|.(.g.C.^.U.T.T.oX-XOXN.f.#.O.I ~ >.>.x.I./.n.x.#.9.%XuXdXhXtX,.t p a - # # 8 m 7 7 7 7 + + ",
"+ + X +   C ..( ..N & r a a.].|.V.C.C.!.T.T.Q.OXx.O.z s u b U 6.w.G.H.J.l = -.zXMXvXbXsX9.g u Z m - # # C T H D D H , @ ",
"+ + X + # , 4 4 7 < 2 p s x Q d. XqX0X!.P.P..XJ.$.b o.9.q.G.*XsX3X2XuXuX%X%XmXZXZXBX2X>.s t B C m + 3 8 7 7 M D H ^ , @ ",
"+ + + + , # + # # # 2 s v U y x { s.d.F.L.*X*X&XuX$XH.H.$XK.*XdXnXvXvXBXAXZXZXZXVX&X+.e t l B D m @ < M 8 , 7 N R >., @ ",
"+ + + + + - , # - , a t v -.7.U l x ] K.xXVXxXxXbXsXG.9.q.>.3.$XxX3XxXMXAXmX&X%Xr.L w w L D C m 8 2 , < 7 0 N T A A # @ ",
"+ + + + @ - , # @ 4 D p s >.H.G.6.6.w.fXBXZXMX*Xq.>.J r p t p E 9.9.3.q.y.o.t w = * d K Y ( Y o , N , @ N T R >.k . + + ",
"+ + + + + # # 8 0 M N V d s K >.t.$XbXvXfXiXt.K e : a l B L J s f i w : * i i a a B K P Y M 8 # , < , & 4 8 7 M < + + + ",
"+ + + + , # # N T D C V B d y s I >.$XG.+.Y s r : 2 m C Y T P L K a & * = i a m C P T E E # + , $ # # # # # + # + + + + ",
"+ + + + # < 7 7 7 m D N V V B i e r s t = = * 2 a C D T T R / P 3 1 , 2 2 2 > j T T / j < , - # 1 N M V M N 7 # + + + + ",
"+ + + # # < 0 8 < m D A C V V Z B Z i * 5 3 2 & a Z Y ( ( ~ ( D O - < 3 3 2 & a / T ( < o , , + 7 T D D D H m ; # + + + ",
"+ + + , 7 7 8 7 6 q H D A C C V V Z a & 5 j 1 , , + A &.( ( ..T - , # < 7 , # $ ; ; ; , , # , 8 m D D D A D N D ,   + + ",
"+ + , < 7 8 8 8 8 0 N A A A D D A D 0 + < 7 , , - o m T D D T A # $ + 1 m 8 < < < < < , , # , 4 m N N N A A D H 7 + + + ",
"O + 7 8 8 7 8 8 7 8 < m C N A N N D 7 - # # # + # # + + + + - - # # + 0 G F D D A D D , + # , 7 7 1 8 8 N D A N A D , @ ",
"+ + 7 7 8 7 7 8 8 7 0 A T H D H H T m + , , 6 7 8 7 < # - # , ; < , $ 0 D A A D D A D 0 4 , $ < 4 7 7 6 A A D H H T , @ ",
"@ # 7 7 8 8 8 8 < 0 D T ( ( ( ~ ( ;.D . < 0 D T H T 4 + , , - # 7 7 8 A H D D A A D A H D < - + , 7 6 1 M N H ( ( ( , @ ",
"+ + , < 7 8 8 M M A T R ~ ~ ~ ( H m 4 + 6 7 q 0 M D M 0 , # # , 7 7 8 7 q N D A D A A D N < - + , 7 q M H T T ~ ~ ( , @ ",
"X + + , 7 8 8 N D T ( ( ~ ~ ~ ) H + + # < 0 4 < 7 D D H < # # , 7 8 8 6 < N D A A N A D D < - + , 7 N D ~ ( ~ ~ ~ ( , @ ",
"+ + + , 7 7 8 N C H ( ~ ~ ~ ~ 8 < - - # , - m N D ~ T ~ < # < 8 8 8 1 M N T ~ T T R ~ 7 , - - # $ + N ~ ~ ~ ~ ~ ~ ( , @ ",
"+ + + , M 7 6 M N D ( ~ ~ ) ( # + # # $ # + C T T ( ~ ( < + 7 7 7 8 , M D R ( ~ ~ ( ( < + - $ # $   A >.~ R ~ ~ ( &.< @ ",
"+ + X + 1 7 q D H T ( ~ ~ D V , # # # + + + 7 7 A ( ~ ( < + 8 7 8 7 0 N H R ~ ~ ~ ~ ( < + + + # # + 7 A T ~ ~ ( H N - @ ",
"+ + @ + o m T ~ ( ~ R ( &., @ , $ , # @ + X +   7 >.) &.1 + 7 7 < 0 A T ( ~ R ~ ~ ( &.8 + + + , - , # o T &.) &.m . + + ",
"+ + + + + < 4 T ( ~ ( A 7 $ + + + + + + + + + + < m 0 7 # + , < M A T R ~ ~ ~ ~ ( N 4 , + + + # + + # $ 7 m k M < + + + ",
"+ + + + + + o Y ..( &.7   + + + + + + + + + + + + + + + + + + < D T ) ( ( ( ( ( &.4   O + # + + + . + , # + # # + + # + ",
"+ + + + + + + $ , , < + + + + + + + + + + + + + + + + + + + + + , , < , , , , , < + + + + + + + + + + + + + + + + + + + ",
"+ + + + + + + @ @ @   O + + + + + + + + + + + + + + + + + + + + @ @ @ @ @ @ @ @ @ + + + + + + + + + + + + + + + + + + + "
};
