/* XPM */
static char *xpm_[] = {
/* columns rows colors chars-per-pixel */
"60 60 198 2 ",
"   c #020202",
".  c #0A0505",
"X  c #060806",
"o  c #0C0A03",
"O  c #050509",
"+  c #0A0709",
"@  c #070909",
"#  c #0C0B0B",
"$  c #110C01",
"%  c #100708",
"&  c #120D0D",
"*  c #13110E",
"=  c #181301",
"-  c #0E0D11",
";  c #120F11",
":  c #180F10",
">  c #151212",
",  c #1B1515",
"<  c #1C1916",
"1  c #1C1718",
"2  c #1D1A19",
"3  c #251D05",
"4  c #221716",
"5  c #211917",
"6  c #201719",
"7  c #231C1B",
"8  c #2E2505",
"9  c #332501",
"0  c #342A02",
"q  c #3A2C01",
"w  c #25211E",
"e  c #29211E",
"r  c #281F20",
"t  c #241E22",
"y  c #262121",
"u  c #2B2523",
"i  c #2E2926",
"p  c #2F2A29",
"a  c #2F2629",
"s  c #302625",
"d  c #312A27",
"f  c #332D2A",
"g  c #392F2D",
"h  c #30272A",
"j  c #36312E",
"k  c #39312E",
"l  c #363333",
"z  c #3C3532",
"x  c #3E3A35",
"c  c #3F3D39",
"v  c #3C3338",
"b  c #503F09",
"n  c #4B3A06",
"m  c #413635",
"M  c #413936",
"N  c #42373A",
"B  c #443B3A",
"V  c #493E3D",
"C  c #5C4600",
"Z  c #5B4705",
"A  c #614903",
"S  c #684E01",
"D  c #6D5304",
"F  c #655500",
"G  c #46413D",
"H  c #49413F",
"J  c #494541",
"K  c #4C4442",
"L  c #4E4A45",
"P  c #4D4A44",
"I  c #4F4B48",
"U  c #514C46",
"Y  c #524E49",
"T  c #544D4B",
"R  c #524544",
"E  c #55514B",
"W  c #56534C",
"Q  c #57544E",
"!  c #53514B",
"~  c #59564E",
"^  c #564D50",
"/  c #5A5751",
"(  c #5A5751",
")  c #5B5851",
"_  c #5D5952",
"`  c #5D5A55",
"'  c #5C5B54",
"]  c #565550",
"[  c #605D56",
"{  c #605D58",
"}  c #61605B",
"|  c #6B6761",
" . c #866500",
".. c #896904",
"X. c #926E01",
"o. c #8E7002",
"O. c #937104",
"+. c #997604",
"@. c #9C7D03",
"#. c #BF6600",
"$. c #A67E01",
"%. c #BF7401",
"&. c #C06E02",
"*. c #C67500",
"=. c #C97600",
"-. c #C47B01",
";. c #CA7D02",
":. c #988101",
">. c #A88305",
",. c #BA8801",
"<. c #BC9300",
"1. c #A48721",
"2. c #C68100",
"3. c #CB8401",
"4. c #CD8900",
"5. c #D18500",
"6. c #D18B01",
"7. c #D08F0F",
"8. c #C39401",
"9. c #CB9D03",
"0. c #D69100",
"q. c #D99202",
"w. c #DD9B01",
"e. c #DE9D0D",
"r. c #D09014",
"t. c #CEA400",
"y. c #DCA301",
"u. c #DBA602",
"i. c #E3A401",
"p. c #E4AC01",
"a. c #EAAE00",
"s. c #EFA101",
"d. c #F5AE01",
"f. c #F5A901",
"g. c #EDB401",
"h. c #EEB800",
"j. c #F3B501",
"k. c #F3BA00",
"l. c #FABE01",
"z. c #F2BB0C",
"x. c #F3BC11",
"c. c #E7AE16",
"v. c #D29D38",
"b. c #D59929",
"n. c #D7A23A",
"m. c #F5BD34",
"M. c #EFC902",
"N. c #F6C101",
"B. c #FDC301",
"V. c #FECD01",
"C. c #FED401",
"Z. c #FEDB04",
"A. c #F3C01E",
"S. c #FFD910",
"D. c #FEE202",
"F. c #FFEA00",
"G. c #FFF303",
"H. c #F2C62F",
"J. c #EFC636",
"K. c #F3C533",
"L. c #F3C935",
"P. c #F7C63A",
"I. c #FEDE35",
"U. c #DEB25B",
"Y. c #DBAE59",
"T. c #DCAE63",
"R. c #DEB566",
"E. c #E0BD69",
"W. c #F3CB4F",
"Q. c #F3CD53",
"!. c #E9CB59",
"~. c #F4D365",
"^. c #F8D968",
"/. c #E3C576",
"(. c #EECA68",
"). c #DFCE9A",
"_. c #F3DE8D",
"`. c #F3DA86",
"'. c #E3CC97",
"]. c #F4DF98",
"[. c #F6E39A",
"{. c #EEDEBC",
"}. c #F4E3A3",
"|. c #F0ECBF",
" X c #ECE2C7",
".X c #F4EAC6",
"XX c #F2EACB",
"oX c #F4EFD3",
"OX c #F4EFD9",
"+X c #F9F4D9",
"@X c #EFF9EE",
"#X c #F4F5EB",
"$X c #F4F4E8",
"%X c #F4F6F4",
"&X c #F5F8F5",
"*X c #F5FEFF",
"=X c #FBFFFE",
"-X c #F5F6F8",
/* pixels */
"# # # # . . .             # # & # # .           + # # # # . . .   .               # & X .       . .   .         # & # # ",
"# # # # > > > < < 2 < < 2 # # # # * > 2 2 < < 2 * # # # # > > > 2 2 < 2 < < 2 < 2 # # ; > < < 2 , > > , < 2 2 2 # # # # ",
"# #   > f z B ! ' / ~ ' } ,     o u c { / / _ | l   .   w j x J ) ) _ ' _ ) ~ ' | u   w z ) ' { E M B M W ' ) | y   # # ",
"# # > w z B P ! Q W ~ U Y w > 2 u x J ~ W Q U T x < 2 > f x J L Q Y L L P E ~ Y T j < f z L L U J x J J ! ] ! ! j < # # ",
". > z x H ! [ W E W ~ P B z j J Y _ ) E W Q G x G U m f x G / ' Q L B B c W _ L x H L J G B B B G B Y [ Q Q L z G Y <   ",
"X & e i k c P ! Q W _ x u y e f z J L Q E Q x f j k f i x G H P _ G w f j G I B g z k j j z j i d k B P Y _ J f k z > . ",
"# # < w d j c U Q Q { j & 1 6 u f x J / Q / j u d d d d x G x B [ x & e d z G z u d i i i f i , w i z c Y _ G u p f * . ",
"# # 6 y d z B U ~ L J d , 7 6 7 w f z J G J u 7 . . O . X # # # # # O + 7 f k i 6 7 y , > , > ; , 7 i j B L k 6 , > # # ",
"# & 7 u g m B ! ' U G d 5 7 7 6 7 u j B M G y 4                         < d k u 2 6 7 & # - - # * 6 i f m J j 4 ;   # # ",
"# # > 2 7 f x J ! G x y > , 1 5 t d j G x z 7 >                         > 7 y 2 > 1 , > # ; # # > , 7 s f z i 1 ; # # # ",
"# # . # . 7 f m G z k 2 + # - 6 e d z J z f > @                         @ # # # o # # # # & * # # # , 7 , , : # # # # # ",
"# # # # # 6 y f x i 1 > & ; - > , y d x < # . o  .+.X.X.X.X.X.X.X.X.+. .# . . # 7 w w w w * & > ; & > > y i u y > . # # ",
"# # # # # , 7 i j 2 O & > ; ; - ; < r z +     $ B.Z.C.C.C.C.C.C.C.C.Z.B.$       i j g k f & # ; ; & # # u k f z ,   # # ",
"# # # # ; > > > , > * & > & - - ; > > , +     o p.B.k.k.k.j.k.j.k.k.B.p.o       < i f d d i 7 & > # , 2 i f d f u u > @ ",
"# # # # > & # # # & > > > & ; & ; - - # .       y.l.d.d.k.N.l.N.k.k.B.p.        , y f f d z i & > & 1 7 i f d f g z > . ",
"& # X # * ; & # # & ; & # 2 7 # # # # # 0 F A D !.^.~.~.c.i.i.i.g.k.l.g.D C A S * , < w g V z & , 7 6 < u d g m m V , . ",
"# # # # * > > , , , 1 : - < 2 ,         >.G.C.S.*X*X*X=Xv.%.2.-.i.N.k.k.C.C.C.D.q       7 z d # , 6 7 7 d f g B z z > . ",
"# # & * & 1 7 f k j j 5 + # * z #       X.C.j.x.$X*X&X*Xv.;.4.2.i.N.k.k.k.k.k.B.0       u > # # ; # y z B V B P w + # # ",
"# # & ; - 1 7 y u i f y < > > 7 .        .V.d.k.=X=X=X=Xn.=.4.2.p.B.l.l.j.k.k.B.=       l > & ; # - 6 y i h d f 6 & # # ",
"# # > & # 1 e 1 , 7 f i z V l . 3 q 9 9 1.I.K.P.{. X X Xb.;.4.2.y.h.a.g.k.k.k.B.C 9 0 q / l l l w # + . # # # # ; > # # ",
"# # # # & > > w u d z k         9.Z.B.l.}.=X*X%X4.;.;.;.4.4.4.4.4.3.2.4.j.k.k.k.B.B.B.D.C       # 7 y w , & ; > & # # # ",
"# # @ # > & # i g z m m .       8.V.k.d.[.*X=X$X7.3.6.4.4.4.4.4.4.4.3.4.j.l.k.k.k.k.k.Z.A       > f g j 1 # > , # . # # ",
"# # # # # # ; > > y P u         ,.B.d.s.[.=X=X=Xr.;.4.6.3.;.;.2.2.2.-.2.l.B.l.l.k.k.k.Z.n       > f d d i i 7 & & # # # ",
"# # # # # # & #   & w *  .O.o.o./.[.].]./.T.R.U.6.4.4.4.i.p.i.i.i.i.i.i.w.w.w.w.g.l.k.N.,.o.o.@.b * > > M k y % # @ # # ",
"# & & # # # > &       $ B.D.C.V.+X*X*X=XY.#.=.=.4.4.4.3.j.B.N.N.N.l.B.k.3.-.2.-.a.l.k.j.V.C.C.G.>.      K f u 6 > # # # ",
"# # # # . # & #       $ p.B.k.j..X*X%X=XR.*.6.4.4.4.4.3.a.N.h.k.k.k.k.j.4.4.4.2.a.l.k.k.j.k.j.C.O.      J d f z 7 & # # ",
"# # # # # < y w       $ p.B.k.j.+X=X=X=XE.=.5.4.4.4.4.3.j.B.l.N.k.k.k.h.3.-.2.-.g.B.l.N.k.j.k.C.O.      G d f f 6 & # # ",
"# # # # & w z f       o p.B.k.j./.).'.'.n.;.4.4.4.4.4.4.w.p.i.i.a.k.k.k.w.w.w.w.i.i.i.i.g.k.k.C.O.      J d d f 2 & # # ",
"# # . & 2 u f d       $ p.B.k.l.5.&.*.*.;.6.4.4.4.4.4.4.2.2.2.-.i.l.k.j.l.l.l.B.6.-.2.-.i.N.j.C.O.      T z z B t & # # ",
"# # X > 7 u f d       $ p.B.k.l.q.2.4.4.4.4.4.4.4.4.4.6.6.4.4.;.i.N.k.k.k.j.k.k.0.3.6.2.i.l.k.C.O.      ^ B m B 7 & # # ",
"# & 6 6 6 6 5 i       o p.B.k.k.6.-.2.2.2.2.2.2.4.4.4.4.3.2.2.-.i.l.k.k.j.d.j.j.6.-.2.-.i.N.j.C.O.      T H f & # @ # # ",
"@ & 7 6 7 7 7 d       $ p.B.k.k.w.6.0.q.0.6.0.0.6.4.4.4.6.0.0.6.p.l.j.k.K.J.K.L.e.6.q.4.p.l.k.C.O.      K z e + # # # # ",
"# # w 7 1 y f z       $ p.B.k.k.l.l.k.k.l.l.l.k.4.3.4.3.g.N.l.k.k.j.j.x.&X*X*X*XL.j.k.l.k.k.j.C.O.      v # # @ # # # # ",
"@ # , 6 e d k x       $ p.B.k.k.k.k.k.k.k.k.k.j.4.3.4.3.a.l.k.k.k.k.j.x.#X*X-X*XK.j.k.k.k.j.k.C.O.      l & ; # # # # # ",
"# # + 7 x z B m       $ j.V.B.B.k.k.k.k.k.h.k.j.4.3.3.3.a.l.k.k.j.j.d.k.&X*X*X*XL.j.k.j.l.B.B.D.+.      p & & # +   # # ",
"# # # > , g B m O     o u.h.p.p.h.k.k.k.k.k.k.j.6.4.4.4.a.l.k.k.z.x.z.A.OX#X$X#XH.j.k.k.g.p.p.M. .      z w y w 7 7 # # ",
"# # X # O a H M B i   , $ $ $ o 8.V.k.k.k.j.k.k.h.j.h.j.h.k.k.d._.@X%XOXA.x.x.z.k.k.k.C.D $ $ $ * & & # d z g f f k > . ",
"# # X # & , 2 2 6 , & >         <.V.k.k.k.k.k.k.k.k.l.k.k.j.j.d.[.*X*X%Xj.j.j.j.j.k.k.Z.Z       # + , 5 7 7 e d k M > . ",
"# # # # > & # & & & # &         8.C.k.k.k.k.k.k.k.k.k.k.j.d.j.s.`.*X*X$Xx.j.j.j.V.C.C.G.D       & O 1 e < , 7 i x R > . ",
"# # # # # ; > & & , 7 <         9.Z.B.B.l.k.j.k.k.k.k.j.W.~.~.~..X*X=X-Xx.j.k.l.$.X.X.:.q       # > , , 7 w i z d d & . ",
"# # # # . ; , & . < z f u i u o 3 0 8 9 $.V.k.k.k.j.k.j.$X*X*X*X_.m.P.K.k.j.k.B.$       7 m d . : i > . p z x R t . # # ",
"# # # # # & * 7 7 u f d d f i w X        .C.k.j.k.k.k.j.|.*X&X*XQ.f.j.j.k.k.k.B.9       u y 7 & > , > # 2 7 7 u , # # # ",
"# # # # > & & i z f d d f d f z .       @.F.V.V.k.j.k.j.oX*X*X*X^.d.j.k.V.V.V.Z.q       w & # , ; & & ; & & # & # @ # # ",
"# # # # & , 7 7 7 u f f d f d f > # .   D t.<.8.j.k.k.j.}.oX.XoXQ.j.l.j.8.8.8.9.8 # & . & > > # 2 i u u u i 7 & # @ # # ",
"# # # & & 1 w 7 1 e f f f d d d f k y & +       p.B.k.k.j.j.j.j.j.k.B.p.        z x m , # > ; # 6 k f g f k w & & # # # ",
"# # # > 7 7 6 7 5 y j f f f f d d j w # #   . o u.B.k.k.j.j.j.k.j.k.B.p.o       & & : > > & > 6 e g f f d f d g >   # # ",
"# # > 1 7 6 6 6 6 e i d d d f f d f 7 # +     o g.V.B.B.B.B.B.B.B.B.V.j.o .     * > , > > & ; 6 w i i i d d f j 7 # # # ",
"@ # 7 6 6 7 6 6 6 6 , y d i i i p d w ; .     o t.h.p.p.p.p.p.p.p.p.j.y.o   .   u f g > % & > w 7 5 6 6 d f d i d f > . ",
"# # 7 7 6 7 7 6 6 7 w d z g g j g z y # > > < 2 $ $ $ o $ o o $ o o $ o i i i i d d f w 1 & * , 2 7 7 5 d d f k j z > . ",
". & 7 7 6 6 6 6 1 w f z B M B m B U f . 1 7 f z .                     . j p p p d f f j f , ; # > 7 5 < u i j B M B > . ",
"# # > , 7 6 6 u u d z x m m m B k y 2 # 1 7 e w                       . w i f i f d d f i > ; # > 7 e u j z z m m B > . ",
"X # # > 7 7 6 i f z B B m m m V k # & & , w 6 ,                         1 u f i d i d f f , ; # > 7 i g m B m m m B > . ",
"# # # > 7 7 6 i p g B m x m x 6 , ; ; & > ; y i f m z x 1 # 2 < 7 7 < u i z m z x x x 7 , ; & & * # i m m m m m m B > . ",
"# # # > u 7 4 u i g B x m V B & # & & * & # p z z B m B 1 # 6 7 7 6 1 u f x B N m m B 1 # ; * & *   d R m x m m B K , . ",
"# # X # 1 7 e f k z M m m f u > & * & # # # 7 7 p B m B 1 # 6 6 6 7 r d k m m m m m B 6 # # # & & # 7 d z m m M g s ; . ",
"# # X # + u x m B m x B K , . > * > # O # # # O 7 R V H 2 # 7 7 , w d z B N m m m B K 6 # # # ; ; > & + z K V K y . # # ",
"# # # # # , 2 z B m B d 7 * # # # # # # # # # # , y w 7 & # > , u d z x m m m m B i 2 > # # # & # # & * 7 y r u , # # # ",
"# # # # # # + l H B K 7 . # # # # # # # # # # # # # # # # # # , g z V B M M M B K 2   @ # & # # # + # > & # & & # # & # ",
"# # # # # # # * > > , # # # # # # # # # # # # # # # # # # # # # > > , > > > > > , # # # # # # # # # # # # # # # # # # # ",
"# # # # # # # . . .   @ # # # # # # # # # # # # # # # # # # # # . . . . . . . . . # # # # # # # # # # # # # # # # # # # "
};
