/* XPM */
static char *xpm_[] = {
/* columns rows colors chars-per-pixel */
"60 60 194 2 ",
"   c #010101",
".  c #0A0506",
"X  c #060807",
"o  c #0B0A06",
"O  c #060508",
"+  c #090709",
"@  c #070908",
"#  c #0C0B0B",
"$  c #120D0D",
"%  c #100E01",
"&  c #13110E",
"*  c #1E1602",
"=  c #0E0D10",
"-  c #120F11",
";  c #180F10",
":  c #151212",
">  c #1A1515",
",  c #1B1916",
"<  c #1C1719",
"1  c #1D1919",
"2  c #251A02",
"3  c #211616",
"4  c #211917",
"5  c #21171A",
"6  c #231C1B",
"7  c #2A2109",
"8  c #332601",
"9  c #342C01",
"0  c #3B2D01",
"q  c #3B2D0B",
"w  c #26211E",
"e  c #29211E",
"r  c #281F20",
"t  c #251F21",
"y  c #262221",
"u  c #2B2523",
"i  c #2E2A26",
"p  c #2E2A29",
"a  c #2F2629",
"s  c #312725",
"d  c #312A27",
"f  c #302728",
"g  c #332C29",
"h  c #392E2E",
"j  c #36312D",
"k  c #39322E",
"l  c #382F30",
"z  c #353433",
"x  c #3C3532",
"c  c #3E3935",
"v  c #3E3C3B",
"b  c #4A3800",
"n  c #523D01",
"m  c #413736",
"M  c #423936",
"N  c #413738",
"B  c #443B39",
"V  c #493D3D",
"C  c #5C4200",
"Z  c #614401",
"A  c #624B02",
"S  c #665501",
"D  c #6C5402",
"F  c #765901",
"G  c #46413D",
"H  c #49423E",
"J  c #574E3D",
"K  c #6D5A22",
"L  c #443E42",
"P  c #494540",
"I  c #4C4341",
"U  c #4E4A45",
"Y  c #4D4A45",
"T  c #484848",
"R  c #514645",
"E  c #514D47",
"W  c #524E49",
"Q  c #544E4A",
"!  c #544C4C",
"~  c #5A4C4C",
"^  c #53504A",
"/  c #55514B",
"(  c #55524C",
")  c #56544E",
"_  c #54524C",
"`  c #59564E",
"'  c #59564F",
"]  c #5A5341",
"[  c #565550",
"{  c #5A5751",
"}  c #5B5851",
"|  c #5C5952",
" . c #5D5A54",
".. c #5C5B55",
"X. c #615D56",
"o. c #605D58",
"O. c #65635D",
"+. c #6C6761",
"@. c #876701",
"#. c #8A6901",
"$. c #876702",
"%. c #926E01",
"&. c #8E7001",
"*. c #917000",
"=. c #9B7602",
"-. c #997C01",
";. c #A47C01",
":. c #BF7701",
">. c #C26C00",
",. c #C67601",
"<. c #C57D00",
"1. c #C97E01",
"2. c #C87400",
"3. c #998101",
"4. c #A98101",
"5. c #BE9300",
"6. c #9C8128",
"7. c #A78521",
"8. c #C78101",
"9. c #CB8401",
"0. c #CD8900",
"q. c #D18700",
"w. c #D18C01",
"e. c #D08D0C",
"r. c #C19300",
"t. c #CB9B01",
"y. c #C69905",
"u. c #D59100",
"i. c #DC9C00",
"p. c #DF9B05",
"a. c #CD8811",
"s. c #D08E13",
"d. c #E29D01",
"f. c #CCAB05",
"g. c #D2A300",
"h. c #DCAB01",
"j. c #DEA000",
"k. c #E3A301",
"l. c #E3AB01",
"z. c #EAAD00",
"x. c #F3AE00",
"c. c #F2A700",
"v. c #EDB401",
"b. c #F2B401",
"n. c #F3B900",
"m. c #F9BE00",
"M. c #F3BB0C",
"N. c #F8B204",
"B. c #F3BE13",
"V. c #F3B917",
"C. c #E6B01C",
"Z. c #F6C101",
"A. c #FCC301",
"S. c #FECD01",
"D. c #FED400",
"F. c #FEDA01",
"G. c #F5C11F",
"H. c #FFE302",
"J. c #FFED01",
"K. c #FFF502",
"L. c #F3C534",
"P. c #F2C639",
"I. c #F8CC38",
"U. c #FFDC3A",
"Y. c #928858",
"T. c #F1C94F",
"R. c #F4D35E",
"E. c #F4D269",
"W. c #FEE871",
"Q. c #F9E663",
"!. c #959696",
"~. c #98979A",
"^. c #959BAC",
"/. c #A2A0A1",
"(. c #F3DC8D",
"). c #E5CC96",
"_. c #F4DE93",
"`. c #F3DE9B",
"'. c #E6CC93",
"]. c #EEE193",
"[. c #F4E097",
"{. c #FAE99B",
"}. c #F7E4A1",
"|. c #EDE2C7",
" X c #EFECD9",
".X c #F4E6CB",
"XX c #F4F4EB",
"oX c #F1FAED",
"OX c #F4F6E1",
"+X c #F6F9F4",
"@X c #F4FEFE",
"#X c #FDFEFE",
"$X c #F6F6F7",
"%X c #EAEAE2",
/* pixels */
"# # # # . . .             # # $ # .             + # # # # . . .   . .             # $ X .       . .   .         # $ # # ",
"# # # # : : : , , 1 , , 1 # # # # : : 1 1 1 1 1 : # # # # : : : , , , 1 , 1 , , 1 # # - : , , 1 > : : : , 1 1 1 # # # # ",
"# #   : g x B _ ..{ ' | O.>     o y c o.{ { | O.z   .   y k c P } } ..| | { ' } +.u   w x } ..o./ B B B ( | } +.y   # # ",
"# # : w x B Y ^ ) ( ' E W w : 1 u c P { ( / E W c 1 1 : p x P U ) Q U U E ( [ ^ Q j , g x U U E P c P P _ [ ^ ^ k , # # ",
". : x c H ^ X.( / ( ' Y B x z P W o.{ / / ( G m G Q m g c G { | ) U B B c ( ..U c H U P G B B B G B W o.) ) U x G W ,   ",
"X & e i k v Y ^ ) ( ..c u y y g c P U [ _ ) c k k k g i c G H Y ..H w h x G U B h x k k k x k i d k B Y Q ..P g k x : . ",
"# # 1 w s k c E ) ) o.k $ > 5 u j c P ' ( { k u d s d d c G c B o.m $ w s c B k u s i i i g i > w i x c W ..G u p g & . ",
"# # 5 y d x B E ' U P d > 6 5 6 w g c P G P $ .   . O . # # # # # #   . . # # u 5 6 y > : : : - > 6 i k B U k 5 > : # # ",
"# $ 6 u h m B _ ..U G i 4 6 6 5 6 i h B B G .                                 y 1 6 6 - # # # = & 5 i g m P k 3 -   # # ",
"# # : 1 6 g c P ^ G c y : > > 4 6 i z G m c .                                 1 > < < : $ $ - # : > 6 s g x i > - # # # ",
"# # . @ . 6 g m G x j 1 + # # 5 e d k H x g                                   # # X # # $ $ $ $ # # > 6 > > ; # # # # # ",
"# # # # # 5 y g c p > : = = = : > y B , # # D -.%.3.0       0 3.%.%.%.%.*.=.@.o $ # > e 6 : $ - - $ : : y i u y : . # # ",
"# # # # # > 6 i k 6   $ $ - - # - 1 !       h.J.D.K.D       D K.D.D.D.D.D.F.A.o     $ k d - # : - $ # # u k g x >   # # ",
"# # # # - : : : : : - : : - $ = : & L       r.S.n.D.A       A D.n.n.b.b.n.A.h.o     : d i i r $ : # > 1 i g s g u u : @ ",
"# # # # : $ # # # $ : : : $ & $ $ = v       g.J.D.K.C       b S.b.x.N.Z.Z.S.h.      : g g k s - : $ > 6 i g d g h x : . ",
"$ # X # & - $ # # $ $ - # 5 > + + : J S A A #.-.%.-.F S A Z 6.Q.E.E.T.k.l.z.h.D A S q 6 y u y # : 6 5 1 u s h m m V > . ",
"# # # # & : : > > > > : # , X       C K.F.H.*       =.K.D.S.W.@X@X#X%X,.<.:.k.F.D.K.4.        # : 5 6 6 g g x B x x : . ",
"# # $ & $ > 6 g k h k 1 # # O       A F.n.A.8       %.D.n.b.R.@X+X#X|.8.q.8.k.m.n.D.*.        # $ # u x B I V Y w . # # ",
"# # $ - = > 6 y u i g y 1 : +       C J.S.F.2       $.S.b.c.R.#X#X#X X1.9.8.l.A.m.F.@.        - $ # , y i s s g 5 $ # # ",
"# # : $ # > e > : 6 d y u : 1 z z z K f.y.t.n 9 8 8 7.U.P.L.E.|.|..X).9.0.8.i.b.z.Z.;.8 8 9 2 # # # + . # $ # # - > # # ",
"# # # # $ : : w u d x       /.#X#X#X^.      t.F.A.m.}.@X@X#X).>.8.8.9.9.0.0.0.9.9.1.k.S.A.F.t.      6 y > - : : $ # # # ",
"# # @ # : $ # i k x B       !.#X+X#X!.      5.S.n.b.].@X@X#X'.,.9.0.0.q.q.9.q.0.0.8.i.Z.n.S.r.      k k > # $ > # . # # ",
"# # # # # # - : - y I       !.#X+X#X~.      r.S.n.x.}.#X@X#X).2.9.0.0.9.9.9.9.9.9.<.i.m.b.S.r.      g g u i 6 $ $ # # # ",
"# # # # # # $ # . 6 ~       !.#X$X#X!.      5.S.n.N.(.oXXX+X'.,.0.0.0.w.0.q.w.w.w.0.i.m.n.S.r.      d s g x w o # @ # # ",
"# $ $ # # # : $ = 1 h       !.#X+X#X!.      r.S.n.Z.p.a.s.e.e.9.0.9.u.n.b.v.b.b.b.b.b.b.n.S.r.      d d g g i 5 : # # # ",
"# # # # . # $ # # + O       !.#X+X#X!.      5.S.n.m.i.1.9.9.9.0.0.8.u.m.n.n.n.n.n.n.n.b.n.S.r.      d g d g g x 6 $ # # ",
"# # # # # 1 y w w w y       ^.#X@X#X^.      5.S.n.m.i.8.0.0.9.8.8.<.w.Z.Z.Z.n.b.n.b.n.n.b.S.r.      d d d s d k 5 $ # # ",
"# # # # $ w x g h g x       Y.{._.{.Y.      5.S.n.Z.i.8.9.9.u.j.i.i.i.l.k.k.v.n.n.n.b.n.n.S.r.      d s d i d g 1 $ # # ",
"# # . & 1 u g s s d d       %.S.x.S.#.      5.S.n.m.i.8.9.8.i.S.Z.S.v.<.1.,.k.Z.n.n.n.b.n.S.r.      c c x x c B r $ # # ",
"# # X : 6 u g s s p g       %.D.n.D.*.      r.S.n.m.i.8.9.<.i.Z.n.m.z.9.9.8.k.m.n.n.n.n.n.S.r.      B m m m N B 6 $ # # ",
"# # 6 5 5 5 4 i g d i       *.D.n.D.*.      r.S.n.Z.i.1.q.8.i.Z.n.Z.z.<.8.,.d.n.x.b.b.n.n.S.5.      m m B I g $ # @ # # ",
"@ $ 6 5 6 6 6 d k g g       %.D.n.D.*.      5.S.n.m.i.8.0.<.i.Z.n.m.v.w.u.0.C.I.L.L.V.n.b.S.5.      m m k x y . # # # # ",
"# # w 6 > y g x B m m       *.D.n.D.*.      r.S.n.m.i.8.0.8.i.Z.n.n.n.m.m.N.}.@X@X@X[.x.n.S.r.      B H 3 $ # X # # # # ",
"@ # > 5 e d k c N m B       %.D.n.D.*.      r.S.n.Z.i.8.0.8.i.Z.b.n.n.n.n.x.[.@X$X@X_.x.n.S.5.      f s > $ - # # # # # ",
"# # + 6 c x B m m B R       %.D.n.D.%.      r.S.n.m.i.<.9.<.i.Z.n.n.n.b.b.x._.@X@X@X`.x.n.S.r.      $ # # # # $ +   # # ",
"# # # : > h B m B h 6       *.D.n.D.%.      r.S.n.m.i.9.0.9.i.Z.n.n.n.B.B.V.[.+XXXoX(.x.n.S.r.      - $ 6 y w 6 6 6 # # ",
"# # X #   a H B H i         %.D.n.D.*.      5.S.n.n.b.v.b.v.n.b.n.b.L.oXXX+XOXG.M.B.M.n.n.S.5.      - $ i x k k g k : . ",
"# # X # $ : 1 1 5 > $       %.D.n.D.*.      r.S.n.b.n.n.n.n.n.n.n.b.P.@X@X@XXXn.b.b.b.n.n.S.r.      > 5 6 6 u g k B : . ",
"# # # # : $ # $ $ $ #       %.D.n.D.*.      r.D.n.n.n.n.n.n.n.n.n.b.P.@X@X@XXXM.n.n.n.n.n.S.r.      > y 1 : 6 i c R : . ",
"# # # # # - : $ $ : 6       =.F.A.H.*.      t.F.A.A.m.n.n.n.n.n.n.b.P.@X@X@X$XB.b.b.m.A.A.F.t.      > > 6 y i x d d $ . ",
"# # # # . - : $ . 1 x u u i 7 9 8 9 D f.r.t.n 9 8 8 ;.S.n.n.n.n.n.n.M.P.L.L.L.n.n.S.;.8 8 9 7 . & 6 > . i x c ! r . # # ",
"# # # # # $ & 6 w u g d g g &       Z J.D.F.2       #.F.n.n.n.n.n.b.n.x.N.N.b.n.n.D.@.      . - : > : = 1 5 6 u : # # # ",
"# # # # : $ $ i x g s g d g &       A F.n.A.8       %.D.n.n.n.n.n.n.n.n.n.n.n.n.n.D.%.        : $ $ $ # $ # $ $ # @ # # ",
"# # # # $ > 6 6 6 u g g s s #       Z K.F.H.*       =.K.F.F.S.b.n.n.n.b.n.v.m.F.F.K.4.        # 1 i u u u i 6 $ # @ # # ",
"# # # $ $ > w 6 > w g g d g w 1 1 u ] S A S #.-.*.3.F S A A =.S.n.n.b.n.n.A.v.D A S q # . o # $ 6 k g h g k y $ $ # # # ",
"# # # : 6 6 5 6 6 e g g g i d d s k T       g.J.D.K.C       b F.n.n.n.n.b.A.h.      . > ; - : 4 w k g d g s s h :   # # ",
"# # : > 6 5 5 5 4 e s d d i g d g g T       r.S.n.D.A       A D.n.n.n.n.n.A.l.o     X : : $ : 5 y i i f i d g k 6 # # # ",
"@ # 6 5 5 6 5 5 6 6 > e s i i i i g !       h.J.D.K.D       D K.D.D.D.D.D.F.A.%     $ > # # : 6 6 4 5 5 i g s i s g : . ",
"# # 6 6 5 6 6 5 5 6 w d x k h k l x v . . + D -.*.3.0       0 -.%.&.&.*.&.=.@.> : & 6 w 1 & & > 1 6 6 4 s d g k k x : . ",
". $ 6 6 5 5 5 5 > w g x B B B m B R g . 1 6 #                                 s d d d k g > - # : 6 4 1 u i k B B B : . ",
"# # : > 6 5 5 u u d x c m m m B x e 5 # > 6 +                                 i d g s g s : - # : 6 e u k x x m m B : . ",
"X # # : 6 6 5 i g x B B m m m V h o $ # > 6                                   i s s s g d > - # : 6 i h m B m m m B : . ",
"# # # : 6 6 5 i p h B m m m m 5 > $ & $ & & e p g N x N > $ 5 5 6 1 5 y p k m x x x c 6 : : $ $ & # i m m m m m m B : . ",
"# # # : u 6 3 u i h B c m V B $ # & - : - # s x k B B B 1 # 6 6 5 5 > u i c B m m m B > # - & $ &   d R m c m m B I : . ",
"# # X # < 6 e g k x B m m g u : $ - # # $ # 6 6 i B m B > # 5 6 6 6 w d x c m N m m B > # # # $ $ # 6 d x m m B h s - . ",
"# # X # + y c m B m c B I > . : & : $ @ X # # . 6 R V H < # 6 6 > w g x B m m m c B I 5 # # # : - : $ + x I V I y . # # ",
"# # # # # : 1 x B m B s 6 & # # # # # # # # # # > y w 6 $ # : > u d x c m m m m B i 1 : # # # $ # # $ & 6 y r u > # # # ",
"# # # # # # + z H B I 6   # # # # # # # # # # # # # # # # # # : h x V B B B B B I 1   @ # $ # # # + # : $ # $ $ # # $ # ",
"# # # # # # # & : : : # # # # # # # # # # # # # # # # # # # # # : : : : : : : : : # # # # # # # # # # # # # # # # # # # ",
"# # # # # # # . . .   @ # # # # # # # # # # # # # # # # # # # # . . . . . . . . . # # # # # # # # # # # # # # # # # # # "
};
