/* XPM */
static char *xpm_[] = {
/* columns rows colors chars-per-pixel */
"60 60 184 2 ",
"   c #010102",
".  c #0A0505",
"X  c #050805",
"o  c #0A0907",
"O  c #050408",
"+  c #0A0709",
"@  c #070908",
"#  c #0C0B0B",
"$  c #130D01",
"%  c #120D0D",
"&  c #171101",
"*  c #1E1800",
"=  c #14110E",
"-  c #1A120E",
";  c #0F0E11",
":  c #120F11",
">  c #180F12",
",  c #151212",
"<  c #1B1515",
"1  c #1C1916",
"2  c #1C1718",
"3  c #1D1919",
"4  c #201503",
"5  c #211616",
"6  c #211917",
"7  c #231C1B",
"8  c #342700",
"9  c #322802",
"0  c #3A2C01",
"q  c #352A0C",
"w  c #25211E",
"e  c #29211E",
"r  c #281F20",
"t  c #231D21",
"y  c #262121",
"u  c #2B2423",
"i  c #2E2926",
"p  c #2D2C2B",
"a  c #2F2629",
"s  c #302625",
"d  c #302A27",
"f  c #302728",
"g  c #332D2A",
"h  c #392F2D",
"j  c #35312D",
"k  c #39322E",
"l  c #222431",
"z  c #342E31",
"x  c #353232",
"c  c #3C3432",
"v  c #3D3A35",
"b  c #3D3B3B",
"n  c #363439",
"m  c #4D3C06",
"M  c #463603",
"N  c #413736",
"B  c #423936",
"V  c #443B3A",
"C  c #493E3D",
"Z  c #423638",
"A  c #554401",
"S  c #5A4500",
"D  c #5F4B01",
"F  c #624600",
"G  c #624B00",
"H  c #6C4F01",
"J  c #665402",
"K  c #6A5305",
"L  c #635018",
"P  c #7E6201",
"I  c #46413D",
"U  c #48423F",
"Y  c #4A423F",
"T  c #635A39",
"R  c #7E7236",
"E  c #433F40",
"W  c #484540",
"Q  c #494641",
"!  c #4C4742",
"~  c #4C4442",
"^  c #4E4A45",
"/  c #4D4A44",
"(  c #4E4B4A",
")  c #454142",
"_  c #524545",
"`  c #504D46",
"'  c #524E49",
"]  c #544E49",
"[  c #544C4B",
"{  c #53504A",
"}  c #55514B",
"|  c #56534C",
" . c #55524D",
".. c #57544E",
"X. c #53514D",
"o. c #58554E",
"O. c #59564F",
"+. c #534F50",
"@. c #575451",
"#. c #5A5751",
"$. c #585252",
"%. c #5B5851",
"&. c #5D5952",
"*. c #5E5A55",
"=. c #5C5B55",
"-. c #605D56",
";. c #605D58",
":. c #61605B",
">. c #636364",
",. c #6B6760",
"<. c #62656C",
"1. c #646673",
"2. c #856701",
"3. c #8F6F00",
"4. c #926F00",
"5. c #8F7100",
"6. c #937100",
"7. c #997500",
"8. c #997E00",
"9. c #806713",
"0. c #A87F00",
"q. c #988101",
"w. c #A58000",
"e. c #BE9500",
"r. c #BE9E27",
"t. c #C78200",
"y. c #CB8501",
"u. c #C28D00",
"i. c #CE8901",
"p. c #D08B00",
"a. c #C19401",
"s. c #D29D01",
"d. c #DEAC00",
"f. c #E4AC01",
"g. c #EBAF00",
"h. c #E4A301",
"j. c #F6AC02",
"k. c #E7B200",
"l. c #EDB200",
"z. c #EFB900",
"x. c #EFBB0F",
"c. c #F2B401",
"v. c #F8B300",
"b. c #F3BA00",
"n. c #FBBE01",
"m. c #F3BD0C",
"M. c #F2BC11",
"N. c #F7C001",
"B. c #FEC500",
"V. c #FECE00",
"C. c #FBCB0F",
"Z. c #FFD601",
"A. c #FED901",
"S. c #FED90F",
"D. c #F3C210",
"F. c #FEE301",
"G. c #FBEE01",
"H. c #FEF201",
"J. c #FEFA01",
"K. c #F5C32C",
"L. c #F5C434",
"P. c #F3C53C",
"I. c #F7C83E",
"U. c #FFDC3B",
"Y. c #FDD134",
"T. c #BFB377",
"R. c #EACC52",
"E. c #F6D15C",
"W. c #FBDB62",
"Q. c #FFEB97",
"!. c #F7E195",
"~. c #F0EABA",
"^. c #C6C5C6",
"/. c #C4C5C9",
"(. c #C3C9D8",
"). c #F3EFCB",
"_. c #F3EBC6",
"`. c #F3F4DC",
"'. c #F4F6EC",
"]. c #FBFCEE",
"[. c #F4F8F4",
"{. c #F4FDFE",
"}. c #FDFEFD",
"|. c #F9F9F7",
/* pixels */
"# # # # . . . O O O   O O # # % # . O   O .     + # # # # . . .   .       O O O O # % @ .       . . O . O O O O # # # # ",
"# # # # , , , 1 1 3 1 1 3 # # # # : , 3 1 1 3 3 , # # # # , , < 3 3 1 3 1 1 3 1 3 # # : , 1 1 3 < , , < 1 3 3 3 # # # # ",
"# #   , g c V X.=.#.O.&.:.<     o u v ;.#.#.&.,.x   O   y j v Q %.%.&.&.&.%.O.%.,.u   w x %.=.;.} B V B } %.%.,.u   # # ",
"# # , w c V ! { ..| O.` ' w , 3 u v U #...| ` ] v 3 3 , p c Q ^ ..' ^ ^ ! } O.' ' j 1 g c ^ ^ ` Q v Q Q X.@.' { j 1 # # ",
". , c v U { -.| } | O.! V c j Q ' ;.#.| } | I v I ] N g v U #.&...^ V V v | &.^ v U ^ Q I V V V I V ' -. ...^ c I ' 1 O ",
"@ = e i k b ! { ..| &.v u y e g v Q ^ ..| O.v h j k g i v I U Q &.I w g j I ( V h x k j j c j u d k V ! ' &.Q g k c , . ",
"# # 1 w d k v ` ....;.h % 2 7 u g c ! #.| O.k u d d d d v I v V -.v % e d c I c u d i i i g u < w i c v ' &.I u d g = . ",
"# # 7 y d c V ` O.^ Q d < 7 7 7 w g c Q I Q u % X . O . # # # # # # O + 7 g k i 7 7 y < , , , : < 7 i j V ^ k 7 < , # # ",
"# % 7 u h N V X.&.^ I i 6 7 7 2 7 i k V V I y +                         7 d x u 6 7 7 % # ; # # = 7 u g N Q j 5 :   # # ",
"# # , 3 7 g v Q ' U v y , < 2 6 7 d j I v v 7 @                         < 7 y 7 < < 1 , % : % # , < 7 s g c u 2 : # # # ",
"# # . @ . 7 g N I c h 3 + # # 7 e g c Q c g , .         O               + # # # # # # # % % % % # # < 7 < < > # # # # # ",
"# # # # # 7 y g v i 3 , # ; ; , 3 e i 7 % # . m q.4.8.A     O * 7.6.7.2.o . X # 7 w w w 7 , : : : % , , y u u y , . # # ",
"# # # # # < 7 i j 3 O % , : ; # : 7 e X       w.H.Z.H.0.      0 F.Z.A.B.$       i j g j g % % : : % # # u k g c <   # # ",
"# # # # : , , , , , % % , % : ; , , , O       6.Z.b.Z.3.      8 B.b.B.f.$       2 u g d i u 7 % , # < 3 i g d g u u , # ",
"# # # # , % # # # % , , , % , % ; ; # l       7.H.Z.H.7.      & B.b.B.f.        , u g g g k u % , % 2 7 i g d g h x , . ",
"% # @ # = : % # # % % % # 7 7 w + # p R J G J P 8.4.8.P J D F P n.b.N.k.H D G J - < 1 c N C x # , 7 7 1 u d h N N C < . ",
"# # # # = , , < < < 2 , ; 2 3 (       s.H.Z.J.S       S J.Z.Z.V.c.b.b.b.Z.Z.A.F.0     n N c f # , 7 7 w d h c V c x , . ",
"# # % = % 2 7 g k g j 3 + # = @.      a.V.b.Z.G       G A.b.b.b.b.b.b.b.b.b.b.B.8     x V - # ; % # y x V U C ! w o # # ",
"# # % : ; 2 7 y u i g e 3 , : Q       u.B.v.Z.F       G Z.b.c.b.n.b.b.b.b.b.b.B.8     x u , , % : # 3 y u f d d 7 % # # ",
"# # , % # 2 e 2 , 7 d g h 2 % b     O r.U.P.U.L       D A.b.b.c.g.g.g.g.b.b.b.B.8     p . # # # # # + . # % % # : < # # ",
"# # # # % , < w u d v c c 2 % (       (.}.{.}.<.      G Z.b.N.g.t.y.t.i.c.b.b.B.9     p % 7 y w y 7 7 y , % , , % # # # ",
"# # @ # , % # i k x V V C 1 # +.      /.}.|.}.>.      G Z.b.N.l.y.y.y.i.z.b.b.B.8     i = g k g g h h k 2 o % < # . # # ",
"# # # # # # : , = y ~ u < , % [       ^.}.|.}.>.      G Z.b.N.g.y.y.y.p.c.b.b.B.8     i 7 d d g d g d g u i 7 % % # # # ",
"# # # # # # % # O 7 [ r . % = (       ^.}.|.}.>.      G Z.b.N.l.y.i.y.p.c.b.b.B.8     p 7 g h p g d g d g k w # # @ # # ",
"# % % # # # , % # 1 j 7 : % = |       ^.}.|.}.>.      G Z.b.N.g.y.i.y.p.c.b.b.B.8     p 7 y u d g g d g d g u 7 , # # # ",
"# # # # . # % # # # . % , # : =.      ^.}.|.}.>.      G Z.b.N.g.y.y.y.p.c.b.b.B.8     p 7 2 7 j g d g d d d g c 7 % # # ",
"# # # # # 1 y w y 7 y 2 % : : (       (.}.{.}.1.      G Z.b.N.g.y.y.y.p.c.b.b.B.8     p 7 7 7 7 u g d i g d g g 7 % # # ",
"# # # # % w c g h g x 7 # % % b     O T.Q.!.Q.T       G Z.b.N.g.y.y.y.p.c.b.b.B.8     g 7 7 7 < w g i d d i d g 3 % # # ",
"# # . % 3 u g d d d g i u < % V       u.B.j.Z.F       G Z.b.N.g.y.y.y.p.c.b.b.B.8     p , 2 7 u g N c v c c v C r % # # ",
"# # @ , 7 u g d g d g g j 3 % V       a.V.b.Z.G       G Z.b.N.g.y.y.y.p.c.b.b.B.8     p % 7 w g c V V N V V N V 7 % # # ",
"# # 7 7 7 7 6 u g i i d d 2 % V       a.V.b.Z.G       G Z.b.N.g.y.y.y.p.c.b.b.B.8     i , i j V V N N N V ~ g % # @ # # ",
"@ % 7 7 7 7 7 d h g g g x < % V       a.V.b.Z.G       G Z.b.N.g.y.y.y.p.c.b.b.B.8     p , y d h c N N N x c y + # # # # ",
"# # w 7 2 y g c V N N V ~ 5 % Q       a.V.b.Z.G       G Z.b.n.g.y.i.y.i.c.b.b.B.9     p % % % . 7 ! C U 5 % # . # # # # ",
"@ # < 7 e d k v V N V h u , # )       a.V.b.Z.G       G Z.b.n.g.y.i.y.i.c.b.b.B.8     p 7 7 3 # 3 g s d < : % # # # # # ",
"# # + 7 v c V N v V _ 7   # ; b       a.V.b.Z.G       G Z.b.N.g.t.y.t.p.c.b.c.B.8     j c x i % % % % # # # # % +   # # ",
"# # # , < h V N V h 7 7 < , : b       a.V.b.Z.G       G Z.b.n.l.i.p.i.p.x.D.M.C.9     j d d i w 3 : , % 7 y 7 7 7 7 # # ",
"# # @ # O a U V ~ u   < y , : b       a.V.b.Z.G       G A.b.b.c.c.c.c.M.`.[.'.].x     x i g g k w : % % d c j j g k , . ",
"# # @ # % , 3 3 7 < % , < , , V       a.V.b.Z.G       G A.b.b.b.b.b.b.m.[.{.{.}.x     z g d d j w + < 7 7 7 y d k B , . ",
"# # # # , % # % % % # % % % % V       a.V.b.Z.G       G Z.b.b.b.c.b.c.m.'.{.}.}.x     j d i d k 7 O 2 y 3 < 7 i v _ , . ",
"# # # # # : , % % < 7 3 7 7 3 E       a.V.b.Z.G       G Z.b.b.b.v.v.c.b.[.{.{.}.n     j k j g e 7 , < < w y u c d d % . ",
"# # # # . : , % . 1 c h h k g b       a.V.b.Z.G       G A.b.c.K.)._.).~.I.L.L.Y.q     x V _ c . , u , . i x v [ r . # # ",
"# # # # # % % 7 w u g g d g g ^       e.V.z.Z.G       G A.b.c.P.{.{.{.{.b.j.v.n.8     x N y 7 % , < , ; 3 7 7 u < # # # ",
"# # # # , % % i x g d d g g d @.      e.V.b.Z.G O     D Z.b.c.L.{.[.{.`.m.c.b.B.8     n v % # , = % % % % % % % # @ # # ",
"# # # # % < 6 7 7 u g d i i g $.      d.G.Z.J.S       S J.Z.Z.U.{.{.{.{.S.Z.Z.F.0   O x < , , # 1 i u u u i 7 % # @ # # ",
"# # # % % 2 w 6 2 e g g g d d v 3 w , M K G J P q.4.8.P J G G 9.W.E.W.R.K G G K e w w 7 o = , % 7 x g h g k y > % # # # ",
"# # # , 7 7 6 7 1 y k g d d g d d h w         7.H.Z.H.7.      $ n.v.n.h.        % : > , , % : 3 y h g g d g i h ,   # # ",
"# # , 2 7 7 7 7 1 e i i g d d d i z e         4.Z.b.Z.6.      8 B.b.B.f.$       : < < , , % , 7 y i i u d d g j 7 # # # ",
"@ # 7 7 7 7 7 7 7 7 < u d i i i s g 7         w.H.Z.H.w.      0 F.Z.F.B.$       e g j , # % , 7 7 1 7 7 u g d i d g , . ",
"# # 7 7 7 7 7 7 7 7 w d x k h j j c u O . # # m 8.6.8.A       4 7.5.7.2.- , = , u g g 7 3 , , < 3 7 7 6 d d g k j x , . ",
". % 7 7 7 7 7 7 2 w g c V V V N V _ h X 1 7 j 1                       O h g d d g g i j g , : # , 7 6 1 u i j V V V , . ",
"# # , < 7 7 7 u u d c v N N N V c y 7 # 2 7 w #           O             7 u g d g d d g i , : # , 7 e u j c c N N V , . ",
"@ # # , 7 7 7 i g x V V N N N C h # # % 1 7 1 +                         < i g i d d d g g , : # , 7 u h N V N N N V , . ",
"# # # , 7 7 7 i i h V N v N N 7 < , % % , , u i h N c V < % 2 7 7 7 3 w d x N v v c v 7 , : % % = # u N N N N N N V , . ",
"# # # , y 7 5 u i h V v v C V % # % : % # # i k c V B V 1 # 7 7 7 3 2 u p c V V N V V 2 # , , % = O d _ N v N N V ~ < . ",
"# # @ # 2 7 e g k x V N N g u , % % # # % # 7 w i V N V 2 # 7 7 7 7 7 d x N N N N N V 2 # # # % % # 7 d c N N V h s : . ",
"# # @ # + y c N V N v V ~ < . , , = ; @ # # # . t _ V Y 1 # 7 7 2 7 g c V Z N N N V ~ 7 # # # : : , % + c ~ C ! y . # # ",
"# # # # # < 3 x V N V d 7 = # # # # # # # # # # < y w 7 % # , < u d c v N N N N V u 3 , # # # % # # % = 7 y r u < # # # ",
"# # # # # # + x U V ~ 7   # # # # # # # # # # # # # # # # # # < h N C V V V V V ~ 3   @ # % # # # + # , % # % % # # % # ",
"# # # # # # # = , , < # # # # # # # # # # # # # # # # # # # # # , , < , , , , , < # # # # # # # # # # # # # # # # # # # ",
"# # # # # # # . . . O @ # # # # # # # # # # # # # # # # # # # # . . . . . . . . . # # # # # # # # # # # # # # # # # # # "
};
