/* XPM */
static char *xpm_[] = {
/* columns rows colors chars-per-pixel */
"60 60 170 2 ",
"   c #010102",
".  c #0A0505",
"X  c #070907",
"o  c #0C0905",
"O  c #040408",
"+  c #0A070A",
"@  c #070908",
"#  c #0C0B0B",
"$  c #120D0D",
"%  c #1E1802",
"&  c #13100F",
"*  c #18100E",
"=  c #0E0D10",
"-  c #130E11",
";  c #180F10",
":  c #151212",
">  c #1B1515",
",  c #1B1916",
"<  c #1B1718",
"1  c #1D1919",
"2  c #2B1C01",
"3  c #211616",
"4  c #211917",
"5  c #20171A",
"6  c #231C1B",
"7  c #281E1D",
"8  c #332601",
"9  c #322900",
"0  c #3C2B00",
"q  c #26211E",
"w  c #29211E",
"e  c #322F1E",
"r  c #241E20",
"t  c #281F20",
"y  c #262221",
"u  c #2B2423",
"i  c #2E2926",
"p  c #2F2629",
"a  c #2F2928",
"s  c #302625",
"d  c #302A27",
"f  c #302728",
"g  c #332D2A",
"h  c #382E2D",
"j  c #36312D",
"k  c #39312E",
"l  c #353334",
"z  c #3C3432",
"x  c #3D3935",
"c  c #36353B",
"v  c #3F3E39",
"b  c #413736",
"n  c #413936",
"m  c #423739",
"M  c #443B3A",
"N  c #483D3D",
"B  c #544500",
"V  c #734C01",
"C  c #794D04",
"Z  c #7A5206",
"A  c #7A5308",
"S  c #46413D",
"D  c #48423F",
"F  c #4B413F",
"G  c #423D41",
"H  c #474340",
"J  c #494440",
"K  c #494641",
"L  c #4A4541",
"P  c #4D4742",
"I  c #4C4342",
"U  c #4B4843",
"Y  c #4E4943",
"T  c #4E4B44",
"R  c #4F4A46",
"E  c #4D4A45",
"W  c #4F4C45",
"Q  c #4D4A45",
"!  c #4F4B48",
"~  c #514645",
"^  c #504B46",
"/  c #514E47",
"(  c #514E47",
")  c #514748",
"_  c #514C48",
"`  c #524F4A",
"'  c #524F49",
"]  c #544F4A",
"[  c #524C4A",
"{  c #594E4C",
"}  c #53504A",
"|  c #54514A",
" . c #55524B",
".. c #53524D",
"X. c #56534C",
"o. c #55524D",
"O. c #57544D",
"+. c #57544F",
"@. c #55554D",
"#. c #53524D",
"$. c #59564F",
"%. c #58554D",
"&. c #59564F",
"*. c #565550",
"=. c #5A5750",
"-. c #5A5752",
";. c #5B5851",
":. c #585850",
">. c #5D5A53",
",. c #5C5951",
"<. c #5D5854",
"1. c #5E5B55",
"2. c #5C5B54",
"3. c #5E5858",
"4. c #605B55",
"5. c #615E57",
"6. c #605D58",
"7. c #625F5A",
"8. c #61605B",
"9. c #69665D",
"0. c #6B6660",
"q. c #6C6761",
"w. c #815701",
"e. c #805801",
"r. c #8F6D00",
"t. c #916F01",
"y. c #8F7101",
"u. c #917001",
"i. c #997500",
"p. c #987E03",
"a. c #A87F01",
"s. c #C37F00",
"d. c #C18000",
"f. c #C98301",
"g. c #CD8900",
"h. c #D38A01",
"j. c #D59200",
"k. c #DA9201",
"l. c #E79606",
"z. c #E39B01",
"x. c #EB9D0C",
"c. c #EEA701",
"v. c #F5A705",
"b. c #F5AE00",
"n. c #F9AF02",
"m. c #F4B501",
"M. c #F3B900",
"N. c #FDBE00",
"B. c #FFC501",
"V. c #FFCE00",
"C. c #FFD401",
"Z. c #FFE102",
"A. c #FFF300",
"S. c #8D8556",
"D. c #928D6D",
"F. c #959796",
"G. c #959699",
"H. c #9799A6",
"J. c #9699A8",
"K. c #F6DF94",
"L. c #F5DE98",
"P. c #F5E198",
"I. c #FEEB9C",
"U. c #F5E9C5",
"Y. c #F4EAC8",
"T. c #FFF5C9",
"R. c #F6F9F6",
"E. c #F8FAF7",
"W. c #F6FDFD",
"Q. c #FCFCFD",
/* pixels */
"# # # # . . . O O O   O O # # $ # .     O O . O # # # # # O . . O         O .   O # $ X .       . .   .       O # $ # # ",
"# # # # : : : , , , , , , # # # # : : , < , , 1 : # # # $ : : > , , , , , , < , 1 # # - : , , , > : : > < , , 1 # # # # ",
"# #   : g z M #.2.-.$.>.8.>     # u x 6.-.-.>.9.l       y k x L ;.;.>.>.<.-.$.;.0.y   q z ;.2.6.| n M n X.>.;.q.y   # # ",
"# # : q z M Y } +.X.$.( _ q : 1 u x L -.X.X.^ ] x , , : g z L R +._ Y R R X.$.( ] j , g z R R R J x J L #.*.} } k , # # ",
". : z x D } 4.X.| X.$.P M z k L _ 6.-.| X.X.D b D _ x g v D -.>.$.R M M x | <.W x D R L D M M M S M _ 5.+.+.R z D _ , O ",
"X $ w i k v U } +.X.<.x u y w g x L R *.#.+.x h k z g s x S L P <.D y g z D R M h z k k k z k i d k M P _ <.L g k z : . ",
"# # , q s j v ( +.+.6.k $ < 5 u j x L ;.+.$.j u d s d g x D x M 5.M $ q g z M k u s i i i g i > q i z v _ <.D u a g & . ",
"# # 5 y d z M ( $.W L d > 6 5 6 y g x L D H . .   O . . o o $ $ $ # . . . L z i 5 6 y > : : : - > 7 i k M R k 5 > : # # ",
"# $ 6 u h b M #.>.( D d 4 7 6 5 6 s k M b D                         O     _ k u 4 6 6 - # # # = & 5 i g b L k 3 -   # # ",
"# # : 1 6 g x L } D x y : > < 4 7 i j D x x                               S y 6 > , > : - $ $ = : > 7 s g z i < - # # # ",
"# # . @ . 6 g b D z k 1 + # = 5 q d z L z g                               l + # o # X # $ $ & # # # > 7 > > ; # # # # # ",
"# # # # # 5 y g x i < : # = = : > w s b y ,       % i.u.u.u.t.t.p.B O     l # > u 6 q q q & # : - $ : : y i u y : . # # ",
"# # # # # > 6 i k 1 O $ : - - = : 1 7 z , O       0 Z.C.C.C.C.C.A.a.      l # 6 z g k k g $ $ - - $ # # u k g z >   # # ",
"# # # # - : : : > : & $ : $ = = $ : : > : -       8 B.M.M.M.M.M.C.t.      M , 5 6 i g g s i 7 $ : # > 1 i g s g u u : @ ",
"# # # # : $ # # # $ : : : $ - $ $ # # # $ :       8 B.M.M.m.M.M.C.u.      M 7 6 < u g d d k s $ : $ < 7 i g d g h z : . ",
"$ # X # & - $ # # $ - $ # 1 6 # # : - - < 7       8 B.M.M.M.M.M.C.t.      M 4 6 < u s z b N z # : 7 5 , u s h b b N > . ",
"# # # # & : : > > > < : # , 5 > : $ - - < 5       8 B.M.M.M.m.M.C.u.      M 5 6 6 i g b M z a # : 5 6 q d h z M z z : . ",
"# # $ & $ < 6 g k g k 1 # # : z g o # # $ $       9 B.M.M.m.m.m.C.u.O     M < 7 d k M N M : # = $ # y z M D N P q o # # ",
"# # $ - = < 6 y u i j q 1 : $ q 7 5 1 1 1 5       8 B.m.m.m.m.m.C.t.      D y i z z m h u : $ - - # 1 y i f s d 5 $ # # ",
"# # : $ # < w < : 7 s d h < $   & z k k g k       j T.U.Y.Y.Y.Y.T.D.      ^ z b I N J > . # # # # # + . # $ $ # - > # # ",
"# # # # $ : : q i d z k z , $ : , q u g d g       c Q.Q.W.W.Q.W.Q.J.      M 1 6 y t y : & 6 q q y 6 7 y : $ : : $ # # # ",
"# # @ # : $ # i k z m M N , # 7 6 > q g i d       l Q.Q.E.E.Q.E.Q.G.      l # # # $ # $ : g k g g h h k < o $ > # . # # ",
"# # # # # # - : $ y D i > : $ 1 7 i g b z b       l Q.Q.E.E.R.E.Q.F.      M 4 > - : $ < 6 i g g s g s g u i 6 $ $ # # # ",
"# # # # # # $ # O r { w . $ : > 6 s k M b M       l Q.E.E.E.Q.E.Q.G.      J 7 , - - $ 1 7 g g g g d g d g k q # # @ # # ",
"# $ $ # # # : $ # 1 k 1 - # & 7 u k z b b M       l Q.Q.E.R.E.E.Q.G.      G > > > : - 1 7 u i g g g s g s g u 5 : # # # ",
"# # # # . # $ # $ + . $ : = - k z M m x M D       l Q.Q.E.E.E.R.Q.F.      x . > w > $ 1 6 < 6 g g d g s s d g z 7 $ # # ",
"# # # # # , y q q y y , $ - - > q M b M s 7       c Q.W.W.W.Q.W.Q.H.      x $ : > : # 4 6 , 6 q u g d i g d g j 5 $ # # ",
"# # # # $ q z g h g k 6 # - : . : M M J 7 .       e I.P.K.K.K.L.I.S.      z - $ $ # # 1 6 6 5 < q g i d g i s g 1 $ # # ",
"# # . & 1 u g s s d g i u > $ & : > > > : $       8 N.n.b.b.m.b.V.r.      J i u u 1 $ : : 1 6 i g b z x z z x M r $ # # ",
"# # X : 7 u g s s g g g k 1 $ : & $ # $ $ ;       8 B.M.M.M.M.M.C.u.      R l g z 6 $ = # 6 7 g z M M m M M b M 7 $ # # ",
"# # 6 5 5 5 4 i g s s s g > - # > g i g 1 #       8 B.M.M.M.m.M.C.t.      U i h E y # - : i k M m b b b M J g $ # @ # # ",
"@ $ 7 5 6 6 6 d h g h g k > $ $ , d d k 7 :       8 B.M.M.M.M.M.C.y.      R g h b 7 $ - > u i h z b b b z z y + # # # # ",
"# # q 6 < y g z M b b M I < $ 6 7 > 7 g i g       8 B.M.M.M.M.M.C.u.      3.) s . - : $ $ $ # O 6 P N D 3 $ # . # # # # ",
"@ # > 5 w d k x b b m h i > # > 4 w a k k k       8 B.M.M.M.M.M.C.y.      E h 7 $ : $ 1 6 6 , # 1 g s s > - $ # # # # # ",
"# # + 6 x z M b b M ~ 7   # = # > d k M M P       8 B.M.M.M.M.M.C.u.      l $ $ $ # # i z z i $ $ $ $ # # # # $ +   # # ",
"# # # : > h M b M h 6 5 < : - # > x z M g 6       8 B.M.M.M.M.M.C.r.      z - : < 5 q i g g s w 1 - : $ 6 y 6 7 6 6 # # ",
"# # X # O p D m F i   < w : - # 1 N M D 7 .       8 B.M.M.M.M.M.C.r.      z # > 6 i k g i s g z q - $ $ s z k k g k : . ",
"# # X # $ : 1 1 5 > $ : : : - & : 5 1 1 > $       8 B.M.M.M.M.M.C.u.      z $ : 6 6 7 i g s s k q + > 5 7 6 y s k M : . ",
"# # # # : $ # $ $ $ # $ $ $ $ : $ $ # $ $ $       8 B.M.M.M.M.M.C.u.      z $ : 7 4 < u g i i z 7 O < y 1 > 7 i x ~ : . ",
"# # # # # - : $ $ > 6 5 6 6 5 ; : < : : : $       8 B.M.M.M.M.M.C.u.      x > > 5 q q k z k g w 5 : > > q y i z d d $ . ",
"# # # # . - : $ . 1 z h g k g o $ y 1 $ - $       2 z.j.j.j.j.k.c.e.      M 7 5 > u g x M ~ z . : i : . i z x [ r . # # ",
"# # # # # $ $ 6 y u g s s g i q 6 > : : $ $       2 h.f.f.f.f.f.l.C       M 5 7 u g z b z y 5 $ : > : = 1 5 7 u > # # # ",
"# # # # : $ $ i z g d g s s g z i $ $ > - #       2 k.h.g.g.g.g.x.Z       M 6 w g z M M b $ # ; & $ $ $ $ $ # $ # @ # # ",
"# # # # $ > 6 6 7 u g s g d s g i i 6 $ : -       2 k.g.g.g.g.g.x.A       c # y M b M 7 < : & $ , i u u u i 6 $ # @ # # ",
"# # # $ $ < q 6 < w h d g s d s g k y $ : :       2 k.g.g.g.g.g.x.Z       l . 6 N x m > + : : # 6 z g h g k y ; $ # # # ",
"# # # : 6 6 5 6 4 y k g d s s g d h q # < 7       2 k.h.g.g.g.g.x.Z       z # $ * - - : : $ : 1 y h g g s g i h :   # # ",
"# # : < 7 5 5 5 4 w i g g g g g d g q # > 5       2 z.k.k.k.k.k.v.w.      m > > > : > : : $ : 5 y i i i g d g k 6 # # # ",
"@ # 6 5 5 6 5 5 5 4 > q g i i i i g 6 $ - $       2 h.s.d.d.d.d.k.V       [ g g g g h : # $ & 7 6 , 5 5 i g s i s g : . ",
"# # 6 6 5 6 6 5 5 6 q d z k h k k z y # : >         o o o o o o o .       R g s g s g q 1 : & > 1 6 6 4 s d g k k z : . ",
". $ 7 6 5 5 5 5 < q g z M m M b M ~ h . < 7                               ! i d d g s k g > - # : 7 4 , u i k M m M : . ",
"# # : > 7 5 5 u u d z x b b b M z y 1 # < 6                               ^ g d g s s g i > - # : 6 w u k z z b b M : . ",
"X # # : 6 5 5 i g z M M b b b N k # # $ < 6                               R g i d i s g g > - # : 6 i h b M b b b M : . ",
"# # # : 6 6 5 i a h M b x b b 5 < $ - - : : y i g b z b < # 1 5 5 5 5 y i k b z z x b 6 : - - $ & # i b b b b b b M : . ",
"# # # : u 6 3 u i h M x x N M $ # : - : - # i z z M m M > $ 5 6 5 5 < u g x M m b m M < # - & $ & O d ~ b x b b M I > . ",
"# # X # < 6 w g k z m b b g u : - $ # # # # 1 6 a M b m , # 6 6 5 6 w d z x b b b b M < # # # $ $ # 6 d z b b m h s - . ",
"# # X # + y x b M b x M I > . : & : # . # # #   r ~ N D 1 = 6 7 > q g z M b b b b M I 5 # # # : - : $ + z I N E y . # # ",
"# # # # # > 1 z M b M s 6 & # # # # # # # # # # > y q 7 $ # : > u d z b b b b b M i , : # # # $ # # $ & 6 y t u > # # # ",
"# # # # # # + l D M J 6   # # # # # # # # # # # # # # # # # # > h z N M m m m M I 1   @ # $ # # # . # : $ # $ $ # @ $ # ",
"# # # # # # # & : : > # # # # # # # # # # # # # # # # # # # # # : : > : : : : : > # # # # # # # # # # # # # # # # # # # ",
"# # # # # # # . . .   @ # # # # # # # # # # # # # # # # # # # # . . . . . . . . . # # # # # # # # # # # # # # # # # # # "
};
