/* XPM */
static char *xpm_[] = {
/* columns rows colors chars-per-pixel */
"60 60 187 2 ",
"   c #010102",
".  c #0A0505",
"X  c #070907",
"o  c #0C0A03",
"O  c #040408",
"+  c #0A0709",
"@  c #070908",
"#  c #0C0B0B",
"$  c #110C02",
"%  c #120D0D",
"&  c #1D1602",
"*  c #13110F",
"=  c #19110F",
"-  c #0E0D10",
";  c #120E11",
":  c #180F10",
">  c #151212",
",  c #1B1515",
"<  c #1C1916",
"1  c #1C1618",
"2  c #1D1A19",
"3  c #241802",
"4  c #211616",
"5  c #211917",
"6  c #20171A",
"7  c #231C1B",
"8  c #281E1D",
"9  c #2F2906",
"0  c #322900",
"q  c #362900",
"w  c #383001",
"e  c #25211E",
"r  c #29211E",
"t  c #281F20",
"y  c #231E22",
"u  c #262221",
"i  c #2B2523",
"p  c #2E2926",
"a  c #272729",
"s  c #2D2C2B",
"d  c #2F2629",
"f  c #302625",
"g  c #312A27",
"h  c #302728",
"j  c #332D2A",
"k  c #392F2E",
"l  c #35312D",
"z  c #39312E",
"x  c #312F30",
"c  c #343434",
"v  c #3C3432",
"b  c #3E3A35",
"n  c #3B3A3A",
"m  c #4B3904",
"M  c #413736",
"N  c #413936",
"B  c #423738",
"V  c #443B39",
"C  c #483E3D",
"Z  c #574302",
"A  c #634600",
"S  c #634B01",
"D  c #665302",
"F  c #6A5300",
"G  c #6D5809",
"H  c #45413D",
"J  c #48423F",
"K  c #4A423F",
"L  c #3F3D40",
"P  c #434142",
"I  c #484540",
"U  c #494641",
"Y  c #4C4742",
"T  c #4B4442",
"R  c #4E4A45",
"E  c #4D4A45",
"W  c #4E4B4A",
"Q  c #4B4748",
"!  c #524545",
"~  c #514D45",
"^  c #524E49",
"/  c #544E49",
"(  c #534C4C",
")  c #53504A",
"_  c #55514B",
"`  c #56534C",
"'  c #55524D",
"]  c #57544E",
"[  c #53524D",
"{  c #58554E",
"}  c #59564F",
"|  c #545251",
" . c #5A5751",
".. c #5B5851",
"X. c #5D5952",
"o. c #5E5A55",
"O. c #5C5B55",
"+. c #5E5A58",
"@. c #605D56",
"#. c #605D58",
"$. c #61605B",
"%. c #6B6760",
"&. c #865F00",
"*. c #846602",
"=. c #846900",
"-. c #8F6E01",
";. c #936E02",
":. c #927201",
">. c #997501",
",. c #997D00",
"<. c #A87F01",
"1. c #C67D00",
"2. c #C87E01",
"3. c #978000",
"4. c #988100",
"5. c #A78203",
"6. c #B98D01",
"7. c #BF980D",
"8. c #BB9D39",
"9. c #C78100",
"0. c #CA8401",
"q. c #CD8801",
"w. c #C58E00",
"e. c #D08C00",
"r. c #C19300",
"t. c #DA9700",
"y. c #DC9B01",
"u. c #DF9F09",
"i. c #D6A500",
"p. c #D9A400",
"a. c #E9A400",
"s. c #E4AD01",
"d. c #EAAE01",
"f. c #F7A501",
"g. c #F3AD01",
"h. c #EEB401",
"j. c #F3B401",
"k. c #F3BA00",
"l. c #F9BE01",
"z. c #F6B807",
"x. c #C29D2B",
"c. c #E7B834",
"v. c #F7C101",
"b. c #FDC400",
"n. c #FECE01",
"m. c #FFD401",
"M. c #FFDB01",
"N. c #FED20F",
"B. c #F8C311",
"V. c #FFE201",
"C. c #FFEF02",
"Z. c #FFF202",
"A. c #F4C333",
"S. c #F8CB3B",
"D. c #FED837",
"F. c #FFD336",
"G. c #EECE5D",
"H. c #F5D25A",
"J. c #F2D063",
"K. c #F3D468",
"L. c #F4D779",
"P. c #FAE566",
"I. c #E5D18C",
"U. c #F4DB8B",
"Y. c #F5DF93",
"T. c #F3E18D",
"R. c #F7E198",
"E. c #FFE598",
"W. c #FFE89A",
"Q. c #F3E093",
"!. c #FEF39A",
"~. c #C1C0BC",
"^. c #F5E4AC",
"/. c #FEF0A9",
"(. c #C4C8D3",
"). c #C4C5C9",
"_. c #F3EDC8",
"`. c #F3F1C8",
"'. c #E7EAEA",
"]. c #E9E9EB",
"[. c #FFFBEF",
"{. c #F3F4EC",
"}. c #E6EEF9",
"|. c #EAF0FC",
" X c #F4FEFE",
".X c #FEFEFE",
"XX c #F4FAF4",
/* pixels */
"# # # # . . . O O O   O O # # % # . O   O .     + # # # # . . .   .       O O O O # % X .       . . O . O O O O # % # # ",
"# # # # > > > < < 2 < < 2 # # # # ; > 2 < < 2 2 > # # # # > > , 2 2 < 2 < < 2 < 2 # # ; > < < 2 , > > , < 2 2 2 # # # # ",
"# #   > j v V [ O. .} X.$.,     o i b #. . .o.%.c   O   u l b U ....o.X.o...} ..$.i   e v ..O.#._ N V N _ ....%.u   # # ",
"# # > e v V Y ) ] ` } ~ ^ e > 2 i b J  .] ` ~ / b 2 2 > s v U R ] ^ R R Y _ ] ^ / l < j v R R ~ I b I U [ | ^ ) l < # # ",
". > v b J ) @.` _ ` } Y V v l U ^ #. .` _ ` H b H / M j b J  .X.] R V V b ` o.R b J R U H V V V H V ^ @.[ ] R v H ^ < O ",
"X * r p z b Y ) ] ` o.b i u r j b U R ] ` } b k l z j p b H J U o.H e j l H W V k v z l l v l i g z V Y ^ o.U j z v > . ",
"# # < e g z b ~ ] ] #.k % 1 7 i j v Y  .` } z i g g g g b H b V @.b % r g v H v i g g g p j i , e p v b ^ o.H i p j * . ",
"# # 7 u g v V ~ } R U g , 7 7 7 e j v U H U i % X . O . # # # # # # O + 7 j z p 7 8 u , > > > ; , 8 p l V R z 7 , > # # ",
"# % 7 i k M V [ o.R H g 5 7 7 1 7 p l V N H r +                         1 g z i 5 7 7 % # # - # * 7 i j M U l 4 ;   # # ",
"# # > 2 7 j b U ^ H b u > , , 5 8 g l H b b 7 #   O                     > 2 u 7 , 1 2 > % > ; - > , 8 f j v i 1 ; # # # ",
"# # . @ . 7 j M H b z 2 + # - 5 r g v U v j > O                         @ # - # # # # # % % ; - # # , 8 , , : # # # # # ",
"# # # # # 7 u j M p , > % - - > , r i 7 % X . m ,.;.3.Z       & >.:.>.=.o . X . 7 e e e 8 % ; % ; % > > u i i u > . # # ",
"# # # # # , 7 p l 2 O % % ; ; # * 5 r O       5.Z.m.Z.<.      w V.m.V.b.$       p k k l j > % % ; % # # i z j v ,   # # ",
"# # # # ; > > > , > ; % > % % - ; > > .   O   ;.m.k.m.;.      0 b.k.b.s.o       1 i j g g i 8 % > # , 2 p j g j i i > @ ",
"# # # # > % # # # % > > > > * % ; # # O       *.m.k.m.*.      & V.m.M.b.      O 8 i j j j z g ; > % 1 8 p j g j k v > . ",
"% # X # * ; % # # % % ; # 7 7 u + # # m D S S 6.n.k.b.6.S S D F >.;.>.-.S S S G ~ < 2 v M C v # > 8 7 < i g k M M C , . ",
"# # # # * > > , , , 1 > # 1 7 |       s.C.m.m.b.j.k.h.b.m.m.Z.i.        n.V.m.V.3     s N v g # > 7 7 e g k v V v v > . ",
"# # % * % 1 7 j l j l 6 # # * +.      6.n.k.k.k.k.j.k.k.k.k.n.r.      o s.b.k.b.0     l V > # ; % # u v V J C Y e + # # ",
"# # % ; - 1 7 u i p l e 2 > ; W       r.n.k.h.k.l.l.l.k.j.k.n.r.      $ a.l.j.b.0     s i > ; ; ; # 2 u i h g g 7 % # # ",
"# # > % # 1 r 1 > 7 g j k 1 % H       r.m.k.k.h.d.d.d.j.k.k.m.r.    O $ c.S.S.F.9   O s + # # # # # + . # % % # ; , # # ",
"# # # # % > > e i g v z v < % Q       r.n.k.l.y.1.q.1.y.v.k.m.r.      ; }..X X.Xc     s % e e 8 u 7 8 u > % > > % # # # ",
"# # @ # > % # p z v V V C < # (       r.n.k.l.y.0.q.9.y.v.k.n.r.      > '..X.X.Xc     s * j z k j k k z 1 o % , # . # # ",
"# # # # # # ; > * u T i , > % Q       r.n.k.l.y.9.q.9.y.v.k.m.r.      % ]..XXX.Xc     s 7 p j j g j g j i p 7 % % # # # ",
"# # # # # # % # O 8 ( t . % * Q       r.n.k.v.y.0.q.9.y.v.k.n.r.      > ]..X.X.Xc     x 8 j j g j g j g j z e # # @ # # ",
"# % % # # # > % - 2 l 2 ; % * (       r.n.k.l.y.0.q.0.y.v.k.n.r.      - ]..X.X.Xc     j 7 i i g j j g j g j i 7 > # # # ",
"# # # # . # % # % # . % > % ; O.      r.n.k.l.y.0.q.0.y.v.k.n.r.      * '..X.X.Xc     x 7 1 7 j j g j g g g j v 8 % # # ",
"# # # # # < u e u 8 u 1 % % % Q       r.n.k.l.y.0.q.9.y.v.k.n.r.      > |..X X.Xn     l 8 7 7 r i j g p j g j j 7 % # # ",
"# # # # % e v j k l v 7 # * * L       r.n.k.l.y.0.q.9.y.v.k.n.r.      # I.E.R.W.g     s 7 7 5 1 e j p g g p g j 2 % # # ",
"# # . % 2 i j g j j j p i , % Q       r.n.k.l.y.9.q.9.y.v.k.n.r.      o a.l.g.l.0     a > < 8 i j M v b v v b C t % # # ",
"# # X > 8 i j g j g j j l 2 % Q       r.n.k.l.y.0.q.9.y.v.k.n.r.      o s.b.k.b.0     a - 2 8 j v V V M V V M V 8 % # # ",
"# # 7 7 7 7 5 i g p p g g 1 % P       r.n.k.l.y.0.q.9.y.v.k.n.r.      $ s.b.k.b.0 O   a > g z V N M M M V T j % # @ # # ",
"@ % 8 7 7 7 7 g k j j j l , % U       r.n.k.l.y.0.q.9.y.v.k.n.r.      $ s.b.k.b.0     a > i p k v M M M v v u + # # # # ",
"# # e 7 1 u j v V M M V T 4 % ^       r.n.k.v.y.0.q.9.y.v.k.n.r.      o s.b.k.b.0     i % % % O 7 Y C J 4 % # . # # # # ",
"@ # , 7 r g z b N M V k i > # Q       r.n.k.v.y.0.q.0.y.v.k.n.r.      o s.b.k.b.0     a 7 7 2 # 2 j f g , ; % # # # # # ",
"# # + 7 b v V M b V ! 7   # - P       r.n.j.l.t.2.0.1.y.v.k.n.r.      o s.b.k.b.0     p v v i % % % # # # # # % +   # # ",
"# # # > , k V M V k 8 7 , > ; P       7.N.z.B.u.q.e.0.y.l.k.n.r.      o s.b.k.b.0     s j j g u 2 ; > % 7 u 7 8 7 7 # # ",
"# # X # O d J N T i   , u > ; P       ~.[.{.XXG.g.j.j.j.k.k.n.r.      o s.b.k.b.0     s p g j v e ; % % g v l l j z > . ",
"# # X # % > 2 2 7 , % > , > > U       (..X X XK.j.k.l.k.k.k.n.r.      o s.b.k.b.0     p j g g l e + , 7 8 7 u g z V > . ",
"# # # # > % # % % % # % % % % Q       )..XXX XJ.g.k.k.k.k.k.n.r.      o s.b.k.b.0     s g g g v 8 O 1 u 2 , 8 p b ! > . ",
"# # # # # ; > % % , 7 2 7 7 2 Q       (..X X XJ.g.j.j.j.k.k.m.r.      o s.b.k.b.0     s v z j e 7 > , , e u i v g g % . ",
"# # # # . ; > % . < v k k z j H       x.D.A.A.U.`._.`.L.j.k.n.r.      $ s.b.k.b.0     s V ! v . > i > . p v b ( t . # # ",
"# # # # # % % 7 u i j j j j g (       w.b.j.f.Q. X X X^.g.k.m.r.      o s.b.k.b.0     s M u 7 ; > , > - 2 7 8 i , # # # ",
"# # # # > % % p v j g j g g g +.      r.n.k.g.T. XXX XY.g.k.m.r.      o s.b.k.b.0     l b % # > * % % % % % # % # @ # # ",
"# # # # % , 5 7 7 i j g p j g +.      s.C.m.n.!. X X X/.n.m.Z.p.        b.V.M.V.q     p , > > % < p i i i p 7 % # @ # # ",
"# # # % % 1 e 5 < 8 j j g j g N 2 7 , m D S A 8.P.H.P.8.A S D F >.:.>.-.S D S S r e e 2 o > > o 7 v j k j z u : % # # # ",
"# # # > 7 7 7 7 < u k j j g j j j l e         &.n.j.n.&.O     & V.m.V.b.        % > ; > > ; ; < u k j j g j p k >   # # ",
"# # > 1 8 7 7 7 7 8 g p g j g j g l e         :.m.k.m.;.      0 b.k.b.s.$       ; , , > % % * 7 u p p i g g j l 7 # # # ",
"@ # 7 7 7 7 7 7 7 7 , u g g g p p g e         5.Z.m.Z.<.      q V.m.V.n.$       e j k , # # > 8 7 < 7 7 i j g p g j > . ",
"# # 7 7 7 7 7 7 7 7 e g v k k l l v i . . # # m ,.:.4.Z       & >.:.>.=., > % > i j j 8 2 > > , 2 7 7 5 g g j z l v > . ",
". % 8 7 7 7 7 7 1 e j v V N V M V ! j X < 7 l < O                       l j g j j j p l j > ; # > 8 5 < i p l V N V > . ",
"# # > , 8 7 7 i i g v b M M M V v u 6 # 1 8 e #           O             8 p j g j g g j p > ; # > 7 r i l v v M M V > . ",
"X # # > 7 7 7 p j v V V M M M C z # # % < 7 < +                         , p j g g g g j j > ; # > 7 i k M V M M M V > . ",
"# # # > 7 7 7 p p k V M b M M 7 1 > % % > > r i k M v N 1 % 1 7 7 7 5 r p v B v b v b 7 > ; % % * # i M M M M M M V > . ",
"# # # > u 7 4 i p k V b b C V % # % ; * # - p z v V M V < # 7 7 6 7 1 i s b V M M N V 1 # > > % * O g ! M b M M V T , . ",
"# # X # 1 7 r j z v N M M j i > % % # # # # 2 7 p V M V , # 7 7 5 8 e p z M M M M M V 1 # # # % % # 7 g v M M N k f ; . ",
"# # X # + u v M V M b V T , . > > = - # # # - . y ! C K < # 7 8 1 u j v V M M B M V T 7 # # # ; ; > % + v T C Q u . # # ",
"# # # # # , 2 v V M V g 7 * # # # # # # # # # # , u e 8 % # > , i g v b M M M M V i 2 > # # # % # # % * 7 u t i , # # # ",
"# # # # # # + c J V T 7   # # # # # # # # # # # # # # # # # # , k v C V N N N V T 2   @ # % # # # + # > % # % % # # % # ",
"# # # # # # # * > > , # # # # # # # # # # # # # # # # # # # # # > > , > > > > > , # # # # # # # # # # # # # # # # # # # ",
"# # # # # # # . . . O @ # # # # # # # # # # # # # # # # # # # # . . . . . . . . . # # # # # # # # # # # # # # # # # # # "
};
