/* XPM */
static char *xpm_[] = {
/* columns rows colors chars-per-pixel */
"60 60 195 2 ",
"   c #010102",
".  c #0A0506",
"X  c #070805",
"o  c #0B0A05",
"O  c #050508",
"+  c #090609",
"@  c #070908",
"#  c #0C0B0B",
"$  c #110C01",
"%  c #120D0D",
"&  c #1D1602",
"*  c #13110E",
"=  c #020415",
"-  c #0E0D10",
";  c #010119",
":  c #120F11",
">  c #180E11",
",  c #0F1012",
"<  c #151212",
"1  c #1B1515",
"2  c #1C1916",
"3  c #1B1619",
"4  c #1C1A19",
"5  c #161813",
"6  c #201801",
"7  c #211616",
"8  c #211917",
"9  c #201718",
"0  c #231C1B",
"q  c #332601",
"w  c #342A01",
"e  c #3D2E00",
"r  c #362D0C",
"t  c #3C3000",
"y  c #25211E",
"u  c #29211E",
"i  c #312E1D",
"p  c #241E20",
"a  c #281F20",
"s  c #272221",
"d  c #2B2423",
"f  c #2E2926",
"g  c #2C2729",
"h  c #2F2A29",
"j  c #302625",
"k  c #312A27",
"l  c #332C2A",
"z  c #382E2D",
"x  c #36312E",
"c  c #39322E",
"v  c #3E3A2F",
"b  c #3A2E30",
"n  c #343433",
"m  c #3C3432",
"M  c #3E3A35",
"N  c #363639",
"B  c #3F3D39",
"V  c #373938",
"C  c #483900",
"Z  c #413735",
"A  c #423937",
"S  c #443B39",
"D  c #493E3D",
"F  c #40333A",
"G  c #594501",
"H  c #5E4A01",
"J  c #5B4708",
"K  c #624C01",
"L  c #655201",
"P  c #6C5502",
"I  c #755A02",
"U  c #715501",
"Y  c #735F1D",
"T  c #46413D",
"R  c #49423E",
"E  c #494440",
"W  c #4A4641",
"Q  c #4C4742",
"!  c #4C4441",
"~  c #4E4A45",
"^  c #4E4B45",
"/  c #524545",
"(  c #504B47",
")  c #514E47",
"_  c #524E49",
"`  c #544E4A",
"'  c #544D49",
"]  c #53514A",
"[  c #54514A",
"{  c #55524C",
"}  c #56544E",
"|  c #53524D",
" . c #59564E",
".. c #59564F",
"X. c #565550",
"o. c #595650",
"O. c #5B5851",
"+. c #5D5952",
"@. c #5D5A54",
"#. c #5C5B55",
"$. c #605D56",
"%. c #615D58",
"&. c #65635C",
"*. c #6C6761",
"=. c #896701",
"-. c #8D6D01",
";. c #876802",
":. c #926F00",
">. c #8F7101",
",. c #947102",
"<. c #9A7400",
"1. c #997C00",
"2. c #C37400",
"3. c #C47C01",
"4. c #CA7D00",
"5. c #9A8102",
"6. c #B98E06",
"7. c #C78201",
"8. c #CB8401",
"9. c #CD8901",
"0. c #D18B00",
"q. c #D28D0E",
"w. c #D18700",
"e. c #C19201",
"r. c #CB9708",
"t. c #D59100",
"y. c #DC9B00",
"u. c #DA9C09",
"i. c #CF8F11",
"p. c #D38F12",
"a. c #D19010",
"s. c #E19F00",
"d. c #CBAA05",
"f. c #D6A301",
"g. c #DEA602",
"h. c #DCA900",
"j. c #E3A302",
"k. c #E3AD01",
"l. c #EBAD00",
"z. c #F4AE01",
"x. c #E4B100",
"c. c #EDB301",
"v. c #EDBA00",
"b. c #F2B501",
"n. c #F3BA01",
"m. c #FBBC00",
"M. c #F4B50F",
"N. c #F3BD0E",
"B. c #E9AE14",
"V. c #EFBD10",
"C. c #F4BC12",
"Z. c #D29D29",
"A. c #D09B3D",
"S. c #D6A235",
"D. c #FEC400",
"F. c #FECA01",
"G. c #F7C100",
"H. c #FFD501",
"J. c #FEDA01",
"K. c #FFD713",
"L. c #FEE401",
"P. c #FFEB01",
"I. c #FEF501",
"U. c #FFF802",
"Y. c #F3C32B",
"T. c #F4C634",
"R. c #F4C835",
"E. c #F5C63C",
"W. c #F9CD38",
"Q. c #FED136",
"!. c #F4C841",
"~. c #F4D15D",
"^. c #E7CC5B",
"/. c #F3D365",
"(. c #F5D56C",
"). c #FCD868",
"_. c #E2D18C",
"`. c #FCE599",
"'. c #EDE1B7",
"]. c #F1E8BD",
"[. c #EEE2C9",
"{. c #F1E8CA",
"}. c #F3EFD2",
"|. c #F2EBDB",
" X c #F3F1DC",
".X c #E9E9E7",
"XX c #EAE9EB",
"oX c #F4F3E6",
"OX c #F5FAEE",
"+X c #F3F4EB",
"@X c #E9F0FF",
"#X c #F5F5F3",
"$X c #F5FAF6",
"%X c #F4FDFE",
"&X c #FDFEFE",
/* pixels */
"# # # # O O O O O O   O O # # # # O O   X O O O + # # # # O O O O O       O O O O # % X O       O O O O O O O O # % # # ",
"# # # # < < < 2 2 4 2 2 4 # # # # < < 4 2 4 2 4 < # # # # < 5 1 2 4 2 2 2 4 4 2 4 # # : < 2 2 4 1 5 5 1 4 4 4 4 # # # # ",
"# #   5 l m S | #.o...+.&.1     # s B %.o.o.+.&.n   X   s x M W O.O.#.+.+.....+.*.s   y m O.#.%.[ A S A [ O.O.*.s   # # ",
"# # < y m S Q ] } { ..) _ y < 4 s M W o.} } ( ` M 4 4 < l m W ~ } _ ~ ( ~ { } _ _ x 2 l m ~ ~ ( W M W W ] X._ ] x 2 # # ",
"O < m M R [ $.{ [ { ..Q S m n W _ %.+.[ ] } T Z T ` Z l M T o.+.o.^ S S B { +.^ M R ~ W T S S S T S _ $.| } ~ m R _ 2 O ",
"@ % u f c B Q ] } { #.M s s s l M W ~ X.| } M l x c l f M T R W #.T y z x T ( A z m c x x m x d k c S Q _ #.W l c m < O ",
"# # 2 y j x B ) ....%.z % 3 9 s l M W O.{ O.x s k j k k M T M S $.Z $ y l m S c s j f f h l d 1 y f m B _ #.T s k l * O ",
"# # 9 s k m S ) ..^ W j 1 0 0 0 s l m W T l X O X O O O # # # # # # . . . # s f 9 0 s 1 < 1 < : 1 0 f x S ~ c 9 1 < # # ",
"# % 0 d z Z S | #.^ T j 8 0 0 9 0 f x S S y O                               4 s 9 0 0 % # # - # * 9 d l Z W x 7 :   # # ",
"# # < 4 0 l M W _ R m s < 1 1 7 0 j m T M y                                 1 0 1 3 2 * : - - # < 1 0 j l m d 3 : # # # ",
"# # O # O 0 l Z T m x 4 + # # 9 u l m W m 0         O                       O # X # o # # * < % # # 1 0 1 1 > # # # # # ",
"# # # # # 9 s l M f 1 < # - - < 1 0 < 5 % q 5.:.:.:.:.:.<.=.o       I 1.,.5.q # # 1 d y y : : % : % < 5 s d s s < O # # ",
"# # # # # 1 0 f x 0   % % % # # : 3       P I.H.H.H.H.H.J.D.$       g.P.H.I.P O   # S x l : % * : % # # d c l m 1   # # ",
"# # # # : < < 5 1 < : < < % % - : <     O H H.n.n.b.b.n.D.k.$       e.F.n.H.K     # Z l h d p > < # 1 4 f l j l d s < # ",
"# # # # < % # # # % 1 < < % * % - -       C J.G.G.m.z.b.m.j.        f.P.H.I.G     ; l k l c f % < % 3 0 f l k l z m < O ",
"% # X # * : % # # % % : # 2 < # . o G K K <.v.j.s.B././.).^.P H K L =.1.:.5.I L K Y S 0 s g z # 1 0 9 2 s j z Z Z D 1 O ",
"# # # # * < < 1 1 1 3 < - <       $ F.L.H.F.w.3.2.A.&X%X%X%XK.H.J.L.&       <.I.L.D.        0 # 1 9 0 0 k z m S m m < O ",
"# # % * % 3 0 l x z x 0 # #       $ k.D.n.n.t.8.4.S.%X$X%XoXN.b.m.D.q       :.H.D.k.$       # - % # s m S D D Q y . # # ",
"# # % : - 3 0 s d d l u 8 *   O     x.F.m.D.t.7.4.S.&X&X&X&Xb.z.b.D.&       <.P.H.G.        : : : # 4 y d j j l 9 % # # ",
"# # < % # 3 u 3 1 0 s s d * w q w e g.b.c.c.t.8.4.Z.[.[.[.'.E.T.E.Q.J q q r ;.d.r.6.v N n n # # # + # . # % % # : 1 # # ",
"# # # # % < < y s k X     w H.D.F.D.9.7.8.8.9.9.9.8.4.4.4.8.#X%X%X%XQ.m.D.L.H     = #X&X&X&XV     . 0 s 1 % < 1 % # # # ",
"# # @ # < % # f x m #     q D.n.m.b.w.8.9.9.w.8.9.9.8.8.8.i.oX&X$X%XT.b.n.J.K     # XX&X&X&Xn     # x z 1 # : 1 # O # # ",
"# # # # # # : < : s %     q D.n.n.c.w.8.8.8.8.8.8.8.9.8.8.i.$X&X%X%XR.z.n.J.K     : XX&X&X&Xn     X l l d f 9 % % # # # ",
"# # # # # # % # O 0 *     w D.n.n.b.t.9.0.0.0.w.0.w.9.9.8.a.|.OXoX#XT.b.n.H.K     < .X&X&X&Xn     # k j l m y o # @ # # ",
"# % % # # # < % # 4 #     q D.n.n.n.b.b.b.b.b.b.n.k.8.9.9.8.q.p.p.q.c.m.n.H.K     < .X&X&X&Xn     X k j j l d 9 < # # # ",
"# # # # O # % # % .       q D.n.b.n.n.n.n.n.n.n.G.c.8.9.9.w.8.8.8.4.l.m.n.H.H     , XX&X$X&Xn     X k l j l l m 0 % # # ",
"# # # # # 2 s y s y O     q D.n.n.n.n.n.n.n.m.G.F.c.3.8.8.4.9.9.w.8.l.m.n.H.H     < @X&X&X&XN     # k j l l k x 9 % # # ",
"# # # # % y m l z x #     q D.n.n.b.b.b.n.n.k.j.j.j.y.y.y.y.9.8.9.8.l.m.n.H.K     # _.`.`.`.i     X k j j j j l 4 % # # ",
"# # @ * 4 s l j l j X     q D.n.n.b.n.n.n.n.w.3.2.0.D.G.D.m.9.8.8.8.l.m.n.H.H     o j.m.z.m.q O   # Z m m m m D a % # # ",
"# # X < 0 d l j j l X     q D.n.n.n.n.n.n.n.t.8.8.t.m.n.m.b.w.8.8.8.l.m.n.H.K     $ k.D.n.D.q     # S Z Z S Z S 0 % # # ",
"# # 0 9 9 9 8 d l f #     q D.n.n.b.b.b.b.b.0.3.3.0.n.n.n.b.w.8.9.8.l.m.n.H.K   O o k.D.n.D.q     # Z Z S ! l % # @ # # ",
"@ % 0 0 0 0 0 k x l #     q D.n.b.n.Y.T.T.R.u.0.0.y.n.n.m.c.9.8.9.8.l.m.n.H.K     o k.D.n.D.q     # Z Z c m s o # # # # ",
"# # y 0 3 s l m S Z #     q D.n.b.V.#X%X%X%XR.b.m.n.n.n.m.b.w.8.8.8.l.m.n.H.K     o k.D.n.D.q     % D D 3 % # @ # # # # ",
"@ # 1 9 u k c m Z Z #     q D.n.b.N.oX%X$X%XT.b.n.n.n.n.n.b.9.8.9.8.l.m.n.H.K     $ k.D.n.D.q     X d j 1 % % # # # # # ",
"# # + 0 M m S Z Z S :     q D.n.b.C.#X%X%X%XY.z.b.b.n.n.m.b.9.8.8.8.l.m.n.J.K     o k.D.n.D.q       # % # # # % +   # # ",
"# # # < 1 z S Z S z O     q D.n.b.N. X+XoX$X!.M.C.N.n.n.n.b.0.9.9.9.l.m.n.J.K     o k.D.n.D.q     O < % 0 y y 0 0 0 # # ",
"# # X #   g R S R j       q D.n.n.n.N.N.M.(.$XoXOX].b.n.n.n.b.c.b.c.n.n.n.H.K     o k.D.n.D.q       : % f m z z l c < O ",
"# # X # % 1 4 4 0 1       q D.n.n.n.b.b.z.~.%X%X%X}.b.n.b.n.n.n.n.n.n.n.n.H.K     $ k.D.n.D.q       1 8 0 0 u l c A < O ",
"# # # # < % # % : %       q D.n.n.n.n.n.b./.%X%X%X{.c.b.n.n.n.n.n.n.n.n.n.J.H     o x.D.m.D.q       1 s 9 1 0 f m / 5 O ",
"# # # # # : < % % 5 O     q H.D.D.D.n.n.z.(.%X%X%X}.b.n.n.n.n.n.n.v.D.D.D.L.H       v.F.D.H.w       1 1 0 s d m k k % O ",
"# # # # O : 5 % O 4 l s d u w q q t x.G.b.C.R.R.T.Y.b.b.n.n.n.n.n.D.G q q w =.d.r.6.e w q w s + % 0 < O h m m ' a . # # ",
"# # # # # % * 0 0 d l j j f         k.D.n.b.b.b.b.b.n.n.n.n.n.n.n.F.6       <.P.J.m.        2 % < 1 < % 2 9 0 d 1 # # # ",
"# # # # < % % f m l j k j y O     $ k.D.n.n.n.n.n.n.b.n.n.n.n.n.n.D.q       ,.H.D.k.$       . < : % % % % # % % # # # # ",
"# # # # % 1 0 0 0 s l l l y       $ F.L.J.F.b.n.n.n.n.n.b.n.H.H.J.L.&       <.I.L.D.        % # 4 f s d s f 9 % # # # # ",
"# # # % % 3 y 0 7 u l k j f 2 2 2 y G L K <.F.b.n.n.n.n.G.c.P K K L =.1.:.5.I L K Y W % . # % # 0 m z z l c s % % # # # ",
"# # # < 0 0 9 0 2 y x k l k k k k z   .   C J.n.b.n.n.n.D.k.O       f.P.H.I.G     ; < 1 * % * 2 y l l k l j k z <   # # ",
"# # < 3 0 9 9 9 4 y j k l l k j j l   O   H H.n.n.n.n.n.D.k.o       e.F.b.J.K     # s > % % < 9 y j f d l l k x 0 # # # ",
"@ # 0 9 9 0 9 9 0 9 1 s k f f j f f       U I.H.H.H.H.H.J.F.$       h.P.H.U.P     # S 1 # # * 0 0 2 9 9 f x j f j l < O ",
"# # 0 0 9 0 0 9 9 0 y k m c z x n c * X + q 1.-.-.>.:.>.,.=.X       I 1.>.5.r < * 9 c 0 4 < < 3 4 0 0 8 j k l c x m < O ",
"O % 0 0 9 9 9 9 3 y l m S S S Z S / l + 3 3                                 0 k l k l x l 1 : # < 0 8 2 s f x S S S < O ",
"# # < 1 0 9 9 s s k m m Z Z Z S m u 2 # 1 <           .                     2 k k l f l f < : # < 0 u s x m m Z Z S < O ",
"X # # < 0 0 9 f l m S S Z Z Z D b + % % 1 <                   O             4 f j j j l l 1 : # < 0 d z Z S Z Z Z S < O ",
"# # # < 0 0 9 f h z S Z Z Z m 9 1 < * % < : s f l m m Z 3 # 2 4 9 0 8 s f c F Z m m Z 0 1 : % * * # d Z Z Z Z Z Z S < O ",
"# # # < s 0 7 d f z S m Z D S % # : < : % - f m m S Z S 3 # 0 0 9 2 3 d l m S Z Z S S 3 # < < % * O k / Z m Z Z S ! 1 O ",
"# # X # 3 0 u l c m S Z Z l d < % * % # # # 4 0 f S Z A 2 # 4 0 9 0 u k x m S Z Z Z S 9 # # # % % # 0 k m Z Z S z j : O ",
"# # @ # + s M Z S Z m S ! 1 O < < < - X # # # O p / T R 4 # 0 0 3 y l m S Z Z Z Z S ! 2 # # # < : < % + m ! D Q s . # # ",
"# # # # # 1 4 m S Z S j 0 * # # # # # # # # # # 1 s y 0 % # < 1 s k m Z Z Z Z Z S d 4 < # # # % # # % * 0 s a d 1 # # # ",
"# # # # # # + n R S ! 0 . # # # # # # # # # # # # # # # # # # 1 z m D S S S S S ! 4   @ # % # # # + # < % # % % # # % # ",
"# # # # # # # * < < 1 # # # # # # # # # # # # # # # # # # # # # < < 1 < < < < < 1 # # # # # # # # # # # # # # # # # # # ",
"# # # # # # # O O O X @ # # # # # # # # # # # # # # # # # # # # O O O O O O O O O # # # # # # # # # # # # # # # # # # # "
};
