/* XPM */
static char *xpm_[] = {
/* columns rows colors chars-per-pixel */
"60 60 204 2 ",
"   c #020202",
".  c #090505",
"X  c #0A0906",
"o  c #050609",
"O  c #0A0709",
"+  c #070909",
"@  c #0C0B0B",
"#  c #060807",
"$  c #100D00",
"%  c #10070B",
"&  c #120D0D",
"*  c #0C100F",
"=  c #131305",
"-  c #13110E",
";  c #1A190B",
":  c #18170A",
">  c #0E0E11",
",  c #130F11",
"<  c #180F11",
"1  c #0E1111",
"2  c #151212",
"3  c #1B1514",
"4  c #1B1916",
"5  c #151719",
"6  c #1C1718",
"7  c #1D1919",
"8  c #15191A",
"9  c #201615",
"0  c #211917",
"q  c #231C1B",
"w  c #251B1C",
"e  c #1D2015",
"r  c #26211E",
"t  c #28211E",
"y  c #1E1E22",
"u  c #281F20",
"i  c #251E21",
"p  c #1D2123",
"a  c #262221",
"s  c #2B2423",
"d  c #2D2925",
"f  c #26292D",
"g  c #2C2B2C",
"h  c #28272A",
"j  c #312A26",
"k  c #332D2A",
"l  c #382E2D",
"z  c #302727",
"x  c #2F302A",
"c  c #36322D",
"v  c #39322E",
"b  c #303026",
"n  c #282C31",
"m  c #2D3233",
"M  c #333232",
"N  c #3C3532",
"B  c #3E3935",
"V  c #333539",
"C  c #3F3D3A",
"Z  c #33383B",
"A  c #791229",
"S  c #413736",
"D  c #423936",
"F  c #443B39",
"G  c #483E3D",
"H  c #413738",
"J  c #3D423D",
"K  c #45413D",
"L  c #4A413F",
"P  c #3A4040",
"I  c #494541",
"U  c #4C4441",
"Y  c #4E4A45",
"T  c #4D4A44",
"R  c #464942",
"E  c #504D46",
"W  c #524E49",
"Q  c #544E4A",
"!  c #534847",
"~  c #55514A",
"^  c #56534C",
"/  c #57544D",
"(  c #53524C",
")  c #58554E",
"_  c #595751",
"`  c #5A5851",
"'  c #5D5A55",
"]  c #5D5A53",
"[  c #5A5C5A",
"{  c #565855",
"}  c #615E59",
"|  c #615D56",
" . c #5D615E",
".. c #61605B",
"X. c #5D6263",
"o. c #626565",
"O. c #656B6C",
"+. c #6A6D6C",
"@. c #676765",
"#. c #6D6F72",
"$. c #656E75",
"%. c #6D7374",
"&. c #6E767A",
"*. c #647179",
"=. c #727476",
"-. c #727679",
";. c #757A7B",
":. c #7A7D7D",
">. c #767877",
",. c #697069",
"<. c #8A3548",
"1. c #8C3D52",
"2. c #995264",
"3. c #A26C7C",
"4. c #7E807E",
"5. c #8B847E",
"6. c #727D83",
"7. c #7A7E81",
"8. c #7C8183",
"9. c #7C878B",
"0. c #7E8C92",
"q. c #82868A",
"w. c #838A8B",
"e. c #838686",
"r. c #898E91",
"t. c #868E91",
"y. c #8A9294",
"u. c #849599",
"i. c #88959B",
"p. c #919B9D",
"a. c #969495",
"s. c #95928B",
"d. c #8B9AA1",
"f. c #8D97A0",
"g. c #909EA7",
"h. c #939FAF",
"j. c #95A3AD",
"k. c #98A8AF",
"l. c #97A4B0",
"z. c #9CABB5",
"x. c #9FB0B7",
"c. c #A9B8BB",
"v. c #D3BAA4",
"b. c #DAC1AB",
"n. c #EED6BA",
"m. c #F4D7B9",
"M. c #EEC9AC",
"N. c #AEBECE",
"B. c #B1BECE",
"V. c #AEC0C2",
"C. c #B4C3C5",
"Z. c #B4C4CB",
"A. c #BACACC",
"S. c #B8C7CC",
"D. c #B6C6D6",
"F. c #BACAD7",
"G. c #B6C7D9",
"H. c #BCCCDC",
"J. c #B8C7D7",
"K. c #BFD0DC",
"L. c #BFD1D3",
"P. c #BDCEE0",
"I. c #BFD1E2",
"U. c #C2CEDE",
"Y. c #C0CFD2",
"T. c #C3D2DE",
"R. c #C9D7DF",
"E. c #CBDADE",
"W. c #D3D2D9",
"Q. c #EFD8C3",
"!. c #FBE7C3",
"~. c #FFEDD5",
"^. c #FFF9D4",
"/. c #FDF4CD",
"(. c #C4D5E4",
"). c #C6D7E9",
"_. c #C7D9E9",
"`. c #C9DAEA",
"'. c #CADBE1",
"]. c #CEE1E3",
"[. c #D6E9EE",
"{. c #D8ECEE",
"}. c #D3E3E8",
"|. c #CEE2F3",
" X c #D2E3F4",
".X c #DBECF3",
"XX c #DBEDF9",
"oX c #DEF1F5",
"OX c #DFF2F9",
"+X c #EFEFEE",
"@X c #E4EEEF",
"#X c #F0EEEF",
"$X c #E4EEF0",
"%X c #E2EFF8",
"&X c #EDEEF0",
"*X c #E5F4F4",
"=X c #E3F6FD",
"-X c #ECF6F8",
";X c #E5FAFF",
":X c #EBFDFE",
">X c #E7F6F6",
",X c #F3FFFF",
"<X c #FDFEFF",
"1X c #F6F6F8",
/* pixels */
"@ @ @ @ . . .             @ @ & @ . .       .   @ @ & @ + . o .   o   .           @ & @ o       . . o . o       @ & @ @ ",
"@ @ @ @ 2 2 2 4 4 7 4 4 7 @ @ @ @ - 2 4 4 7 4 4 2 @ @ @ @ 2 2 3 4 7 4 4 4 4 4 4 7 & @ 2 2 4 7 4 3 2 2 3 8 7 7 7 @ @ @ @ ",
"@ @   2 k N F ( ' _ ) ] ..3     X s B } _ _ ] @.N   o   a v B I ` ` ] ] ] ` ) ` @.a   w N _ ] [ ~ D F D ~ ] ` @.a   @ @ ",
"@ @ 2 r N F T ~ / ^ ) E W r 2 7 s B I ) ^ / E Q B 4 7 2 d N L Y / W Y Y Y ~ ) W ~ c 4 k N T Y W I B I I ( / W ~ v 4 @ @ ",
". 2 N B L ~ | ^ ~ ^ ) T F N v I W ' ` ~ ~ ^ K B K W B j D K ` ` / Y F F S ^ ] Y N I Y I K F F F K F W } / / Y N K W 4   ",
"# & t d v C T ~ / ^ ] B s a t k B I Y / ^ ^ B k v N c z B K K T ] K r k v K Y F c v N v M N v d j v F T Q ] I k v N 2 . ",
"@ @ 4 r z c B E / / } l & 6 0 s k B I _ / _ v s d X     l K B F } D % t k N K N d z j X     q 3 r d N B W ] K s j k - . ",
"@ @ 0 a j N F E ) Y I z 6 w 0 q r k N I K I s q 7       a v F F T v 3 w q k v d 0 q w       2 & 3 w d v F Y v 0 3 2 @ @ ",
"@ & q s l S F ( ] E K j 0 w q 0 q d v F F K w 9 3 . + @ q k D F F k 6 q 0 j v s 6 4 w @ 2 1 @ @ 2 q s k S I M 0 ,   @ @ ",
"@ @ 2 7 q k B I W K B a 2 3 6 0 q d v K B N .     [ 7.;.5       .   3 7 3 q a q .     c.+X$Xf     2 w d k N s 3 , @ @ @ ",
"@ @ . @ . q k S K N v 7 O @ , 0 t k N I N k       o.y.w.2           4 2 @ @ @ @       H.<X<Xn     o 3 q 3 3 < % @ @ @ @ ",
"@ @ @ @ @ 0 a k B d 6 2 & > , 2 3 t d S s 7       X.q.8.a @ @ @ o @ @ 2 , & @ 3 #     S.<X,XC & @ @ 2 2 a d a s 2 . @ @ ",
"@ @ @ @ @ 3 q d v 7 o & 2 , , > , 0 t N 4 .        .q.-.v.n.n.5.O.;.5                 Z.<X;XQ.M.n.j     q v k v 3   @ @ ",
"@ @ @ @ , 2 2 2 3 2 - & 2 & > > & 2 2 3 2 & .     X.q.%.m.^./.s.$.e.@                 S.<X;X~.!.^.v     r k j j s s 2 + ",
"@ @ @ @ 2 & @ @ @ & 2 2 2 & , & & > @ @ , 2 o      .q.%.b.m.m.s.;.w.h 1 > @ 2 2 @ . . C.1XOXQ.m.!.k     w k z z l N 2 . ",
"& @ # @ - , & @ @ & , & @ 7 q @ @ & 2 - 6 i       X.q.;.:.4.;.E.>XoX[.[.[.[.[..Xw.o.=.7.8.8.4.8.e.7     q d v B S G 3 . ",
"@ @ @ @ - 2 2 3 3 3 6 2 @ 4 0 3 2 & , - 6 0 .     [ 8.=.#.O.X.[.<X,X<X,X,X,X,X<Xp.=.8.-.%.%.&.&.6.8     r k N F N N 2 . ",
"@ @ & - & 6 q k v k v 7 @ @ 2 N j @ % @ & &       O.r.8.8.8.;.'.*XoXoX%XoX;X;X:Xy.+.;.;.;.;.;.;.8.7     v L F T r X @ @ ",
"@ @ & , > 6 w a s d b r 7 2 & r r 4 q 7 7 0 .     V.1XoXoXOX*Xp.=.8.8.8.;.].,X:Xy.+.;.;.;.;.;.;.8.6     q j z k 0 & @ @ ",
"@ @ 2 & @ 6 t 6 2 w z k l 9 &   2 N v k l v .     S.<X:X,X,X<Xy.o.%.-.-.#.}.,X,Xt.o.%.;.;.;.7.8.q.3     @ % % @ , 3 @ @ ",
"@ @ @ @ & 2 2 r d j N v N 4 & 2 7 a s z d j > 2 2 S.<X;X=XoX>Xy.+.;.=.%.O.R.-X*Xp.=.8.:.;.;.=.%.;.y @ + & , , 2 & @ @ @ ",
"@ @ + @ 2 & @ d v N D F G 4 @ w q 3 w @     c.+X[.=X;X:Xp.=.8.;.;.8.c ; 4 +.w.;.'.>X>Xy.+.8.c ; e  .:.;.5     2 @ . @ @ ",
"@ @ @ @ @ @ , 2 & a L d 3 2 & 7 w d k @     L.<X,X;X;X:Xr.o.%.;.;.8.d $ =  .;.+.}.<X,Xy.o.;.d X = o.9.8.7     & & @ @ @ ",
"@ @ @ @ @ @ & @ o i Q t . & 2 3 q d v &     Z.<X;X;X;X:Xy.O.;.;.;.8.x = : o.8.%.'.,X:Xp.=.q.b = : +.t.w.7     % @ + @ @ ",
"@ & & @ @ @ 2 & @ 7 v 7 , @ - w s k N @     Z.<X;X;X;X:Xy.+.;.;.;.8.b = : o.8.%.].,X;X=XoX-XR   = C.1X-Xm     0 2 @ @ @ ",
"@ @ @ @ . @ & @ & O . & 2 > , v N S D @     Z.<X;X;X;X:Xr.o.%.>.;.8.d $ = [ :.@.}.<X:X:X:X,XJ     Y.<X<XV     N w & @ @ ",
"@ @ @ @ @ 4 a r r a a 4 & , , 3 a S H &     Z.<X;X;X;X:Xp.=.8.;.;.7.c ; 4 ,.w.;.R.*X$X;X;X:X/ 2 4 A.<X,XM     v 0 & @ @ ",
"@ @ @ @ % r N k l k v q @ , 2 . 2 G D &     Z.<X;X;X;X;XOXoX>Xy.+.;.=.%.+.R.-X*X3.<.1.W.:X;XoX[.[.=X;X,XV     k 7 & @ @ ",
"@ @ . - 7 s k z z j k d s 3 & - 2 3 6 .     Z.<X:X;X;X;X:X:X,Xy.X.%.-.;.#.}.,X,X2.A A W.,X;X:X,X,X,X,X<XV     G i % @ @ ",
"@ @ # 2 w s k z z k k k v 7 & 2 & % & @ > > Z.1X=X;X;X;X;X;X:Xp.=.8.8.8.;.].:X:X3.<.1.W.:X;X;X;X;X.X.X@Xm .   F w & @ @ ",
"@ @ q 0 0 0 0 d k z z z k 3 , @ . .   d.(.N.H.U.H.OX:X;X;X;X=XOX.X=XoXoXXX;X;X;X%X.X.X;X;X;X;X;X,XJ * 1 k F z , @ + @ @ ",
"+ & w 0 q q q j l k l k v 3 & &       z.OX).H.H.G.OX:X:X;X;X;X:X:X:X:X:X:X;X;X;X:X:X:X;X;X;X:X,X<Xf     z B a X @ @ @ @ ",
"o & w q 6 a k S D S S F U 0 % q .     j. XH.H.H.H..X;X=X;X;X;X;X;X;X;X;X;X;X;X;X;X;X;X;X;X;X.X{.*XM . . 3 % @ o @ @ @ @ ",
"@ @ 3 0 t j v B S S F l d 2 & 3 .     l.|.H.H.H.H.H.H.H.OX:X;X;X;X;X;X;X;X;X;X;X;X;X;X;X;X,XP , 2 a d d 3 & & @ @ @ @ @ ",
"# @ @ q B S F S S D ! q   @ , @ o     h.|.H.H.H.H.H.H.D.oX:X;X;X;X;X;X;X;X:X;X;X;X;X:X,X,X<Xg     X % % @ @ @ @ O   @ @ ",
"@ @ @ 2 7 k F S F l w 0 6 2 , @ .     l. XH.H.H.K.H.H.H..X;X=X=X=X=X;X=X=X=X=X=X=X;X=X.X.X$Xm     & , & w i a w q q @ @ ",
"& @ # @   z U F L d   3 t 2 2 @ .     C.<X=X=X=X;X(.D.H.H.H.H.H.H.H.H.H.H.H.T.H.U.U._.Z @ 2 r c w & & & z N v k k v 2 . ",
"@ @ @ @ & 3 7 7 q 3 & 2 2 2 2 &       S.<X;X;X;X:X).D.H.H.H.H.H.H.H.H.H.H.H.H.P.H.H.`.y     a l w @ 3 0 q q a k v D 2 . ",
"@ @ O @ 2 & @ @ & & % % % & & 2       C.<X;X;X;X:X(.D.H.H.H.H.H.H.H.J.H.J.H.H.H.H.H.).f     r v r . 7 a 0 3 w d B ! 2 . ",
"@ @ @ @ @ & 2 o     6 q q q 0 2 o     Z.<X;X;X;X;X).D.H.H.H.H.H.H.T.j.u.d.d.d.d.d.d.j.p     s r 7 2 3 3 w r d N j j & . ",
"@ @ @ @ . @ 2       k k k v k @       Z.<X;X;X;X:X).G.H.H.H.H.H.H.I.j.u.d.d.d.d.d.d.j.p     j . 2 d 2 . d N B ! i . @ @ ",
"@ @ @ @ @ & & @ @ @ a d d d s w .     Z.<X;X;X;X:X).G.H.H.H.H.H.H.(.f.9.0.0.0.0.0.0.i.7     6 & 2 3 2 > 7 0 w s 3 @ @ @ ",
"@ @ @ @ .     [ :.;.7   o             Z.<X;X;X;X:X(.D.H.H.H.H.H.H.).m + @ @ @ @ @ @ @ k N & % 2 - % & & % % @ % @ + @ @ ",
"@ @ @ @       O.a.y.2                 Z.<X:X;X;X:X(.D.H.H.H.H.H.H.).p                 0 3 2 2 % 4 d s s s d q & @ + @ @ ",
"@ @ @ @       [ 7.;.a - @ @ > @ @ @ @ Z.<X=X=X=X;X).D.H.H.H.H.H.P.`.g           . o   2 @ 2 2 @ q N k l k v a < & @ @ @ ",
"@ @ @ 2 0 7 7 @ # + c.&X{.J.N.Z.B.B.B.H.U.H.K.H.H.H.H.H.H.H.H.H.H._.f     @ % & & & & 2 < & 2 7 a l k k z k d l 2   @ @ ",
"@ @ 2 6 q 0 0 .     E.<X<XOX`. X X X X_.).(.H.J.H.H.H.H.H.H.H.H.H.).g     3 6 3 3 3 3 2 2 & 2 w a d d d j k k v q @ @ @ ",
"@ & w w 0 q 0 #     c.#X{.J.N.N.B.Z.N.Z.N.N.H.H.H.H.H.H.H.H.H.H.H.).f     s k k k k k 3 @ & 2 w q 4 0 0 d k z d z k 2 . ",
"@ @ q 0 7 q q 0 9 q - 2 @ @ @ @ @ @ @ @ @ @ l. XH.H.H.H.H.H.H.H.H._.f     r j j k z k r 7 2 - 3 7 q q 0 z j k v v N 2 . ",
". & w q 0 0 0 7 3 r .                       j. XH.).)._.).).).(.I.`.n     a z k j k z v k 3 , @ 2 w 0 4 s d v F D F 2 . ",
"@ @ 3 3 w 0 7 s s d &                       j. XP.D.N.B.B.B.Z.D.H.).f     r k z k z z k d 3 , @ 2 q t s v N N S S F 2 . ",
"@ @ @ 2 q 0 0 d k N F N N B N D k X @       j. X).V @ @ @ @ @ 6.k.j.p     w k z j d z k k 3 , @ 2 q d l S F S S S F 2 . ",
"@ @ @ 2 q w 0 d k v F S S S B w 3 & 2 .     j. X_.y           *.j.d.7     z B B N B S q 2 , , & - @ d S S S S S S F 2 . ",
"& @ . 2 a 0 9 s d l D S S G F & % & ,       j. X_.f           &.k.g.y     j F S S D F 6 @ , - & -   j ! S B S S F U 3 . ",
"@ @ # & 6 q t k l N S S S j s 2 & - & .     j. X_.f           &.j.g.y     j S S S S F 6 @ @ @ & & @ q j N S S D l z , . ",
"@ @ # @ O s B S F S B F U 3 . , 2 2 @       z.OX Xn           6.x.k.p     k S S S F U 0 @ @ @ 2 , 2 & O N U G U a . @ @ ",
"@ @ @ @ @ 3 7 N F S F z q - @ @ @ @ @       f.).H.f           $.d.u.y     k S S F d 7 2 @ @ @ & @ @ & - q a u s 3 @ @ @ ",
"@ @ @ @ @ @ O M L F U w   @ @ @ @ @ @ @ @ @ @ > > # @ @ O @ O @ @ @ l S B S F D U 7   + @ & @ @ @ O @ 2 & @ % % @ @ & @ ",
"@ @ @ @ @ @ @ - 2 2 3 @ @ @ @ @ @ @ @ @ @ @       @ @ @ @ @ @       2 2 2 2 2 2 3 @ @ @ @ @ @ @ @ @ @ @ @ @ @ @ @ @ @ @ ",
"@ @ @ @ @ @ @ . . . o + @ @ @ @ @ @ @ @ @ @       . # @ @ @ @       o . o . . . . @ @ @ @ @ @ @ @ @ @ @ @ @ @ @ @ @ @ @ "
};
