/* XPM */
static char *xpm_[] = {
/* columns rows colors chars-per-pixel */
"60 60 193 2 ",
"   c #020202",
".  c #0A0504",
"X  c #060907",
"o  c #090806",
"O  c #050509",
"+  c #090709",
"@  c #070909",
"#  c #0C0B0C",
"$  c #100F00",
"%  c #120D0D",
"&  c #0E110E",
"*  c #0F1000",
"=  c #12100E",
"-  c #161607",
";  c #0D0E10",
":  c #120F10",
">  c #180F10",
",  c #0D1011",
"<  c #141212",
"1  c #1B1515",
"2  c #1C1A15",
"3  c #151619",
"4  c #1A1618",
"5  c #16191B",
"6  c #1C1B1A",
"7  c #211917",
"8  c #201719",
"9  c #231C1B",
"0  c #221616",
"q  c #232216",
"w  c #25221D",
"e  c #28211E",
"r  c #282B1E",
"t  c #1D1F21",
"y  c #231F20",
"u  c #281F21",
"i  c #1A2020",
"p  c #262221",
"a  c #2B2523",
"s  c #272820",
"d  c #2D2925",
"f  c #2D2A2A",
"g  c #2F2629",
"h  c #312A27",
"j  c #312728",
"k  c #332D2A",
"l  c #342A29",
"z  c #36312E",
"x  c #39312E",
"c  c #38382C",
"v  c #373332",
"b  c #3D3533",
"n  c #3E3935",
"m  c #3F3D39",
"M  c #373830",
"N  c #780E24",
"B  c #413636",
"V  c #423937",
"C  c #443B39",
"Z  c #493E3D",
"A  c #45413C",
"S  c #4A413F",
"D  c #4B4441",
"F  c #4D4944",
"G  c #4C4947",
"H  c #524645",
"J  c #504C46",
"K  c #524D4A",
"L  c #584C4C",
"P  c #53504A",
"I  c #55524C",
"U  c #57544E",
"Y  c #54524B",
"T  c #59564E",
"R  c #5B504E",
"E  c #5A5751",
"W  c #5C5952",
"Q  c #5C5953",
"!  c #565550",
"~  c #605D59",
"^  c #605B55",
"/  c #62615C",
"(  c #6B675E",
")  c #5F6467",
"_  c #676661",
"`  c #676B6C",
"'  c #696C6C",
"]  c #696E72",
"[  c #6E7374",
"{  c #6F767A",
"}  c #717474",
"|  c #747877",
" . c #757A7C",
".. c #797C7D",
"X. c #757678",
"o. c #873446",
"O. c #8A3446",
"+. c #965262",
"@. c #995165",
"#. c #7D807E",
"$. c #82837D",
"%. c #7B7F82",
"&. c #777F81",
"*. c #7C8183",
"=. c #78858A",
"-. c #7F8C92",
";. c #858886",
":. c #83878A",
">. c #83898B",
",. c #818E94",
"<. c #848E94",
"1. c #889294",
"2. c #84939B",
"3. c #8A979E",
"4. c #87959B",
"5. c #8C9AA1",
"6. c #8798A0",
"7. c #929FA8",
"8. c #909EA7",
"9. c #94A2AB",
"0. c #9FB0B8",
"q. c #A5B2BF",
"w. c #E4C5AA",
"e. c #EECEB5",
"r. c #E9C6B0",
"t. c #EFD5B8",
"y. c #F4DCBD",
"u. c #FFDCBC",
"i. c #A6B3C1",
"p. c #AEBECD",
"a. c #AEBCC7",
"s. c #B2BECF",
"d. c #B2BFD0",
"f. c #AFC1CF",
"g. c #B2C1CE",
"h. c #B3C2D1",
"j. c #B9C6D8",
"k. c #B7C9D9",
"l. c #BBCCDB",
"z. c #B8C7D8",
"x. c #BED0DE",
"c. c #BECFE1",
"v. c #BFD0E2",
"b. c #C1CEDE",
"n. c #C1D3DF",
"m. c #C9DADF",
"M. c #CAD7DF",
"N. c #FEE7C6",
"B. c #FFF7D3",
"V. c #C0CFE2",
"C. c #C4D4E4",
"Z. c #C6D8E6",
"A. c #C9DAE1",
"S. c #C5D6E9",
"D. c #C6D8E9",
"F. c #C9DAEB",
"G. c #CCDFF0",
"H. c #CFE2E7",
"J. c #D2E4EB",
"K. c #D6E9EF",
"L. c #D8EAEF",
"P. c #D6E4E9",
"I. c #DBF1EF",
"U. c #CFE2F2",
"Y. c #D7E9F0",
"T. c #DAEBF2",
"R. c #DDEFFF",
"E. c #D2E4F4",
"W. c #DDF1F7",
"Q. c #DEF2F8",
"!. c #E2E2E2",
"~. c #EFEFEF",
"^. c #EEEFEE",
"/. c #E8EAE8",
"(. c #F0EEEF",
"). c #F1F0EE",
"_. c #E2EEF3",
"`. c #E8EBF0",
"'. c #F1EFF0",
"]. c #E3F3F4",
"[. c #ECF4F3",
"{. c #E3F6FD",
"}. c #EAF7F9",
"|. c #E5F9FE",
" X c #EAFEFE",
".X c #F0F0F0",
"XX c #F2F1F1",
"oX c #F2FEFE",
"OX c white",
"+X c #FEFEFE",
"@X c #FDFDFD",
"#X c #FFFFFF",
"$X c #F5F8F7",
/* pixels */
"# # # # . . .             # # % # . .           # # # # # . . .             < !.XXXXXXXX^.XX^.!.< .   . .   .   # % # # ",
"# # # # < < < 2 2 6 2 2 6 # # # # = < 6 2 6 6 6 = # # # = < < 1 6 2 6 2 6 2 d OXOXOXOXOXOXOXOX@X6 < 1 < 1 6 2 2 # # # # ",
"# #   < k b C I Q E T W / 1     # a C ~ E T W ( M       w z B D Q W W W Q E / XXOXOXOXOXOXOXOX$X_ F F C Y Q T ( p   # # ",
"# # < w b C F P U I T J K w < 2 a n D Q I U F K n 2 6 < k n S F U K F J F Y / XXOXOXOXOXOXOXOXOX$XXX/.I I U P I z 2 # # ",
". < b n S P ^ I Y I T F C b z D K Q Q P I I S n S K n h m A Q E U J C C B I _ $XOXOXOXOXOXOXOXOXOXOX@X/ I T F n S K 2   ",
"X % e d x m F P U I Q n a p e k n D J T Y J b k z b k h n A D F W A w k x S ! !.^.XXOXOXOXOXOXOXOXOXXX~ Q / F k x b < . ",
"# # 2 w h z m J U U ~ z % 1 8 a k n D E K #   . d h h h n S b A ~ C % p h n C < # 6 XXOXOXOXOXOXOXOXOXXXXX/.K a h k = . ",
"# # 8 p h b C J T F D h 1 9 8 9 w k b D S       2 < 2 9 h x C C F z 1 9 9 h v       @XOXOXOXOXOXOXOXOXOXOX@Xn 8 1 < # # ",
"# % 9 a k B C I W J S k 7 9 9 8 8 d k n b # # + < O 1 9 a h A Z S k 1 9 0 a k < < 6 !.^.XXOXOXOXOXOXOXOXOXXXG d 6   # # ",
"# # < 2 9 k n D K S n p < 1 1 7 9 d .   # ' %.` #         . z n n h 7 4     , A.^.A.6 & t XXOXOXOXOXOXOXOXOXXX).!.1 # # ",
"# # . # . 9 k B S b x 2 + # : 9 e d     #  .1.|             h k h d 9 <     , {.OXQ.      @XOXOXOXOXOXOXOXOXOXOXOX6 # # ",
"# # # # # 8 p k n d 4 < % : : < 1 9     # [ :.[ < # % @ @ # 9 w p 2 < =     , L.OXY.6 % 2 !.^.XXOXOXOXOXOXOXOXOXXX1 # # ",
"# # # # # 1 9 d z 6 O % < : : ; : 2     @ [  ...w.t.r.X.{ ` +               # L.oX}.e.t.w.6 # 6 XXOXOXOXOXOXOXOX).< # # ",
"# # # # : < < < 1 < = % < % ; ; : :     X [  .*.N.B.N.$. .[                 # T.@X XN.B.u.      ^.OXOXOXOXOXOXOXXXd # + ",
"# # # # < % # # # % < < < % : % ; #     @ [  .*.e.y.e.:.=. .1 , & ; < , # . 3 H.}._.y.y.w.#   = ^.OXOXOXOXOXOXOXXXK w < ",
"% # o # = : % # # % : % # 2 9 # % %     # } *. .#. .;.Y.].R.Y.Y.K.Y.I.H. .' [ *.*.*.#.:.X.+   < ^.OXOXOXOXOXOXOXOXXXXX!.",
"# # # # = < < 1 1 1 4 < # 2 2 1 < %     @ '  .[ ] ) {  X@XoX@XoXoXoXoX X;. .*.} [ [ [  .` @   < ^.OXOXOXOXOXOXOXOXOXOXOX",
"# # % = % 1 9 k b k z 8 # # < b k +     #  .:.*.*...>.K.].Q.W.W.W.{. XW.*.}  . . . . .#.[ #   = ^.OXOXOXOXOXOXOXOXOXOXXX",
"# # % : ; 1 9 p a d z e 2 : : w 9 2     # H.}.W.W.].L.:...*.*. .>.W. XW.*.[  . . . . .*.[ #   & ^.OXOXOXOXOXOXOXOXOXOXXX",
"# # < % # 1 e 1 1 9 h k k 8 % . < b       T.@X XoX@X X .` } X.[ *.|.@X{...` }  . . .%.:.}     # OXOXOXOXOXOXOXOXOXOXOXXX",
"# # # # % < < w a h b x b 1 % 1 1 9 : = t Y.oX{.Q.].K.*.}  .} ` ..K.}.Y.>...*... . .}  .' ; # 5 !.^.XXOXOXOXOXOXOXOXOXXX",
"# # @ # < % # d x b C C Z 2 # O   ; A._.L.|. XW.:...*. .%.} r - r ..*.:.L.[.L.%. .} s 2 s ' ..' 1 < 6 XXOXOXOXOXOXOXOXXX",
"# # # # # # : < : p D d 1 > %     < {.OXoX|. XQ. .' [  .*.[ 2 * 2 ' [  .|.@X|...[ ' 2 $ 2 } :.[       ^.OXOXOXOXOXOXOXXX",
"# # # # # # % # O 9 L u + % =     ; K.oX|.|. XW.*.[  . .*.} q - q } | =.W.oXQ.:.*. .q - q  .<. .@   < ^.OXOXOXOXOXOXOXXX",
"# % % # # # < % # 2 v 9 % % :     , K.oX|.|. XQ.*.[  . .%.} q - q [ | *.Q. X|.W.}.J.r . r H.$XJ.#   < ^.OXOXOXOXOXOXOXXX",
"# # # # . # % # # # . % < % :     , K.oX|.|. XW...' [  .%.[ 2 $ 2 ' [ ..|.oX X X@XW.q   q W.OXW.#   < ^.OXOXOXOXOXOXOXXX",
"# # # # # 2 p w w w a 1 % % %     , Y.oX|.|. XQ.>...=. .&.} s - s  .*.:.L.]._.|.oXT.c < M T.@XY.&   < [.OXOXOXOXOXOXOXXX",
"# # # # % w b k z k b 8 # < %     & Y.oX|.|.|.|.W.].Y.*.}  .[ ' ..K.}.L.@.o.+.T.|.{.Y.Y.Y.{.oXL.&   < ^.OXOXOXOXOXOXOXXX",
"# # . % 2 a k h h h h d a 1 %     & Y.oX|.|.|.|. XoX{...` }  .[ *.{.@X{.o.N O.T. X|.oXoXoXoXOX{.    . ^.OXOXOXOXOXOXOXXX",
"# # o < 9 a k h h h k k z 1 %     & J. X{.|.|.|.|. XW.>. .*.*. .:.W. XT.+.O.+._. X|.|.|.{.Y._.A.6 < 6 XXOXOXOXOXOXOXOXXX",
"# % 8 8 8 8 7 d k d d d k 2 %     # g.Z.C.{.|.|.|.|.|.W.W.Q.W.W.Q.{.|.{._.T._.|.|.|.|.oXK.5 & 6 !.^.XXOXOXOXOXOXOXOXOXXX",
"@ % 9 8 9 9 9 h k k k k x 1 %     # p.C.b.|. X|.|.{.|. X X X X X X|.|.|. X X X|.|.|.oXOX{.      @XOXOXOXOXOXOXOXOXOXOXOX",
"# # w 9 1 p k b C B B C D 2 #     # s.C.b.{.|.{.|.|.|.|.|.|.|.|.|.|.|.|.|.|.|.|.|.|.Y.].M.6 , 6 XXOXOXOXOXOXOXOXOXXX[.!.",
"@ # 1 8 e h x n B B V k j < #     # p.S.l.l.l.C.{.|.|.|.|.|.|.|.|.|.|.|.|.|.|.|.oXK.t = 6 !.^.XXOXOXOXOXOXOXOXOX).f 6 2 ",
"# # + 9 n b C B B C H y   % ,       p.S.k.k.j.l.|. X X|. X|. X X X|.|. XoXoXoX XOX{..   . OXOXOXOXOXOXOXOXOXOXOX^.. # # ",
"# # # < 1 k C B C k 9 9 1 > # ; # 5 h.D.l.l.l.l.{.{.{.{.{.{.{.{.{.{.{.{.K.Y.K.Y.].A.;   & ^.@XOXOXOXOXOXOXOXOXOXXXk # # ",
"# # o # O g S C Z d   1 .   & M.].K.{.|.{.x.k.l.l.l.l.n.n.n.b.l.l.l.D.h.6 % & & # &     # '.OXOXOXOXOXOXOXOXOXOXXXC < O ",
"# # o # % 1 2 2 8 1 : <       {.@XoX X X{.l.j.l.k.k.k.k.k.k.k.k.k.l.C.a.                  ^.OXOXOXOXOXOXOXOXOXOXOXH < . ",
"# # # # < % # % % % o # , , i Y.oX|.|. X{.n.l.l.l.k.l.l.l.l.l.l.k.l.S.g.6 # # # # # & = t [.OXOXOXOXOXOXOXOXXXXX/.R 1 . ",
"# # # # # : < % % O   , M._.L.|.|.|.|.|.|.{.|.Q.l.k.l.l.l.l.l.l.l.l.l.l.s.p.p.s.p.h.`.(.[.OXOX@XOXOXOXOXOXXXD S n h < + ",
"# # # # O % 1 % .     . {.OXoX|.|.|. X|. X X X|.x.k.l.l.l.k.b.l.c.c.c.v.D.F.F.F.S.G.OXOXOXOXOXOXOXOXOXOXOX@XC L u . # # ",
"# # # # # % % 6 9 # # 5 Y.oX|.|.|.|.{.{.{.{.|.{.l.l.l.l.l.l.k.k.k.k.k.k.k.k.k.k.h.k.OXOXOXOXOXOXOXOXOXXXXX!.h a 1 # # # ",
"# # o # < %     # i.j.g.{.|.|.|. X{.n.k.l.x.x.x.l.l.l.l.V.k.5.4.5.4.5.5.5.4.5.4.2.8.$XOXOXOXOXOXOXOXXXf 8 2 % % # @ # # ",
"# # @ # % 1       k.U.D.|. X|.|. X|.l.j.k.k.k.k.l.k.l.C.F.C.8.4.5.5.5.5.5.5.5.5.2.9.$XOXOXOXOXOXOXOX@Xd a j 9 % # @ # # ",
"% # # # % 1 ; ; 5 g.S.b.{.|.{.{.|.{.b.k.l.l.k.l.l.l.k.g.h.p.-.-.-.-.-.-.-.-.-.-.=.1.$XOXOXOXOXOXXXXX!.m k b p % % # # # ",
"# # #     # i.k.s.k.l.l.l.x.x.l.x.x.l.l.l.l.l.l.l.C.g.6 # # # # # # # # # # # # X 5 ).OXOXOXOXXXC C n k k k d k <   # # ",
"# # <       k.E.S.Z.Z.C.k.k.l.k.k.k.l.k.l.l.l.l.D.E.k..                           # ^.OXOXOXOX@Xp d d d h d k x 9 # # # ",
"X # 2 # # 5 h.S.k.g.p.d.k.l.l.l.l.l.l.l.l.l.l.k.s.k.i.#                           < !.'.^.XXXX!.h 7 8 7 d k d h h k < . ",
"    # q.k.h.l.S.g.5 ; 5 g.C.k.l.l.l.l.l.k.l.S.g.5 ; ; # # % % % < 1 = w f d d d d d b k d y w p 2 9 9 7 h k k x z b < . ",
"    # C.R.U.D.E.k.      p.D.l.S.D.C.C.l.C.c.F.h.      o = < % < 9 9 8 d z k k h h h k z k 1 : # < 9 8 2 a d z C C C < . ",
"    ; q.l.s.p.k.i.5 # 5 g.D.l.g.p.s.k.k.k.k.C.a.#     9 1 : % < 9 9 9 9 e d k k k h h k d < : # < 9 e a z b b B B C < . ",
"      ; ; # # # 5 i.k.d.l.C.s.5 # 5 ,.7.5.6.9.,.#     k 1 % % < 9 8 8 7 1 d k h h d h k h < : # 1 9 d k B C B B B C < . ",
"                  k.U.C.C.E.k.      =.5.2.3.9.<.#     b 1 # 2 8 8 8 7 a d b B b b n n 9 < : : % = # d B B B B B B C < . ",
"                # s.D.l.g.k.q.#   @ -.8.2.,.2.=.# . . C 1 # 8 9 8 8 1 a k n C C B C C 1 # < = % =   h H B n B B C D 1 . ",
"# # . # 4 7     # p.U.g.5 # #     # -.9.,.< # # a B n C 1 # 8 9 8 9 9 h x B B B B B C 1 # # % % : # 9 h b C B B x j : . ",
"# # # # O p     # l.R.k.O         # 2.0.2.      9 H C S 2 # 9 9 1 w k b C B n B n C D 8 # # # < : < % + b D Z F p . # # ",
"# # # # # <     # i.C.i.#         # =.5.=.+     < p w p % # < 2 a h b n B B B B C d 6 < # # # % # # % = 9 p u a 1 # # # ",
"# # % # # # + k B ; ; #   + # o # # @ # # # o # # # # # # # # < k b Z C C C C C D 2   @ # % # # # + # < % # % % # # % # ",
"# # # # # # # < <       # # # # # #       # # # # # # # # # # # < < 1 < < < < < 1 # # # # # # # # # # # # # # # # # # # ",
"# # # # # # # . .       # # # # # #       # # # # # # # # # # # . . . . . . . . . # # # # # # # # # # # # # # # # # # # "
};
