/* XPM */
static char *xpm_[] = {
/* columns rows colors chars-per-pixel */
"60 60 189 2 ",
"   c #020202",
".  c #0A0505",
"X  c #060806",
"o  c #0A0906",
"O  c #050609",
"+  c #090709",
"@  c #070909",
"#  c #0C0B0C",
"$  c #120D0D",
"%  c #0E1001",
"&  c #0E100F",
"*  c #13100E",
"=  c #191A0D",
"-  c #131404",
";  c #0E0E11",
":  c #120E11",
">  c #180F10",
",  c #0E1111",
"<  c #151212",
"1  c #1B1514",
"2  c #1C1916",
"3  c #14161A",
"4  c #1B1718",
"5  c #161A1C",
"6  c #1C1A1A",
"7  c #161817",
"8  c #211616",
"9  c #211917",
"0  c #201718",
"q  c #231C1B",
"w  c #281E1D",
"e  c #1D200F",
"r  c #1C2012",
"t  c #222315",
"y  c #25211D",
"u  c #29211F",
"i  c #292A1E",
"p  c #1B1F21",
"a  c #241F20",
"s  c #281F20",
"d  c #1F2120",
"f  c #262121",
"g  c #2B2523",
"h  c #2E2925",
"j  c #2F2B2A",
"k  c #302625",
"l  c #312A26",
"z  c #332D2A",
"x  c #392F2E",
"c  c #302728",
"v  c #36312D",
"b  c #39312E",
"n  c #373A2E",
"m  c #363432",
"M  c #3C3532",
"N  c #3E3A35",
"B  c #3E3C39",
"V  c #790D25",
"C  c #413636",
"Z  c #413937",
"A  c #413738",
"S  c #443C39",
"D  c #483D3D",
"F  c #45413D",
"G  c #45413D",
"H  c #49423E",
"J  c #494540",
"K  c #4C4442",
"L  c #4E4A45",
"P  c #4D4943",
"I  c #514544",
"U  c #504D46",
"Y  c #524E4A",
"T  c #544F4A",
"R  c #524F4A",
"E  c #564A4A",
"W  c #54514A",
"Q  c #56534C",
"!  c #57544D",
"~  c #53514B",
"^  c #58554E",
"/  c #595651",
"(  c #5A5851",
")  c #5D5A55",
"_  c #5D5A54",
"`  c #565550",
"'  c #615E59",
"]  c #615D56",
"[  c #61605B",
"{  c #5F6467",
"}  c #6B6761",
"|  c #666B6C",
" . c #696C6D",
".. c #676D71",
"X. c #6E7374",
"o. c #6F7779",
"O. c #717475",
"+. c #757876",
"@. c #727578",
"#. c #757A7C",
"$. c #797B7D",
"%. c #8A3447",
"&. c #883348",
"*. c #965263",
"=. c #7D807E",
"-. c #7A7F81",
";. c #757F80",
":. c #7C8283",
">. c #79868A",
",. c #7E8C92",
"<. c #828584",
"1. c #82898B",
"2. c #838988",
"3. c #818E94",
"4. c #829097",
"5. c #85939A",
"6. c #89979F",
"7. c #8C999D",
"8. c #899193",
"9. c #8B9AA2",
"0. c #8997A0",
"q. c #919FA6",
"w. c #94A3AB",
"e. c #9EB1B8",
"r. c #A4B2BF",
"t. c #DEBEA5",
"y. c #E7C7AC",
"u. c #EDCEB6",
"i. c #F0CEB3",
"p. c #EFD7B5",
"a. c #F9DBBE",
"s. c #A5B3C1",
"d. c #AEBDCC",
"f. c #A8B4C0",
"g. c #B2BFCF",
"h. c #AFC1CF",
"j. c #B1C0CE",
"k. c #B3C3D3",
"l. c #B8C8D6",
"z. c #BCCBDB",
"x. c #B9C8D9",
"c. c #BED0DE",
"v. c #BECFE1",
"b. c #BED1E0",
"n. c #C1CEDD",
"m. c #C1D1DF",
"M. c #CAD9DD",
"N. c #FFE4C6",
"B. c #F9E6C5",
"V. c #FEF7D2",
"C. c #C0CFE2",
"Z. c #C4D4E4",
"A. c #C9D9E1",
"S. c #C4D6E8",
"D. c #C6D9E8",
"F. c #C9DAEB",
"G. c #C8D7EA",
"H. c #CFE3E5",
"J. c #D1E3E7",
"K. c #D4E5EB",
"L. c #D7E9EE",
"P. c #D9EAEF",
"I. c #DCE7EB",
"U. c #CFE1F4",
"Y. c #D1E2F4",
"T. c #D6EAF1",
"R. c #DAEBF2",
"E. c #DCEEF8",
"W. c #DEF1F6",
"Q. c #DEF2F9",
"!. c #E3E3E2",
"~. c #E2EFEE",
"^. c #EDEEEE",
"/. c #F0EEEF",
"(. c #EEF0ED",
"). c #F1F1EF",
"_. c #E1EEF3",
"`. c #EFEFF1",
"'. c #F1EFF0",
"]. c #E3F3F6",
"[. c #EBF4F4",
"{. c #E3F6FC",
"}. c #E5F9FE",
"|. c #EAFEFF",
" X c #E8F7FA",
".X c #F1F1F1",
"XX c #F2FFFF",
"oX c #FEFFFF",
"OX c #F5F6FA",
/* pixels */
"# # # # . . .             # # $ # . .       .   # # # # # . . O       .           # $ X .       . . O . O       # $ # # ",
"# # # # < < < 2 2 6 2 2 6 # # # # * < 2 2 6 2 2 * # # # * < < 7 2 6 2 2 2 2 2 2 6 # # : < 2 2 6 1 < < 7 6 6 6 6 # # # # ",
"# #   < z M S Q ) / ^ _ [ 1     o g B ' / / ) } m       y v C J ( ( _ ) _ ( ^ ( } g   y m ( ) ' W Z S Z W ( ( } f   # # ",
"# # < y M S P W ! Q ^ U Y y < 6 g N J ^ Q ! U T N 2 6 1 z M H L ! Y L L L W ^ Y T v 2 z M L L U J N J J Q ` Y W v 2 # # ",
". < M N H W ] Q W Q ^ P S M v J Y ) ( W W ! F N F T N z B H ( ( ! L S S C Q ) L N H L J F S S S G S Y ' Q ! L M F Y 2   ",
"X $ u h b B P W ! Q ) N g f u z M J L ! ! Q N z m b z c N G J P _ F y z v G L S x m b v v M v g l b S P Y ) J z b M < . ",
"# # 2 y c v B U ! ! ' v $ 1 0 g z N J / ! / v g h l z l N F N G ' S $ u z M F M g c h h h z g 1 y h M B Y ) F g l z * . ",
"# # 0 f l M S U ^ L J c 1 q 0 q y z M J F J g q 6 < 6 f c b S S P v 1 w q z b h 0 q f 1 < < < : 1 w h v S L b 0 1 < # # ",
"# $ q g x C S Q _ U F l 9 w q 0 q g v S S F f 0 1 O 1 q h z G S H x 1 q 0 c v g 0 q q : # # # # * 0 g z C J v 8 :   # # ",
"# # < 6 q z N J W F N f < 7 1 9 w c v F M .     < # < 1 u c M M N l 2 6 1 q f O     1 $ $ & # ; < 1 w k z M g 1 : # # # ",
"# # . # . q z C F M b 6 + # : q u l M J M       ; : ; # 1 q h z l g q < # # #       o # # * : $ ; # 1 q 1 1 $ # # # # # ",
"# # # # # 0 f z N h 4 < $ : : < 1 y g M q + # + $ : : # * 1 f f g q < < : $ # , * ; q q q > $ $ : $ < < f g g f < . # # ",
"# # # # # 1 q h v 6 O $ < : : ; : 4 .   X | $.| #           1 9 q 1 # :     & M.^.A.,   . ; $ $ : $ # # g b z M 1   # # ",
"# # # # : < < < 7 < * $ < $ ; ; < :     @ @.8.@.            c f : < : <     , {.oX].O     i w : < # 1 6 g z c z g g < # ",
"# # # # < $ # # # $ < < < $ : $ # #     @ X.2.O.< $ $ # @ + l g : $ * $     ; L.oXR.6 $ $ z g $ < $ 1 w h z l l x m < . ",
"$ # X # * : $ # # $ : $ # 6 q # # $     @ X.#.-.y.p.y.+.O.| X               < L.XX Xu.p.t.$     < w 0 2 g h v C C D 1 . ",
"# # # # * < < 1 1 1 1 < # 1 0 1 < $     X X.#.:.N.V.N.<.#.X.                @ E.oX|.N.V.a.*     < 0 q q c z b S M m < . ",
"# # $ * $ 1 q z v z b 0 + # < b z X     # X.#.=.u.a.i.<.>.#.7 ; , : & ; # . 3 J. X_.a.B.y.#     $ $ f b S H D I y . # # ",
"# # $ : ; 1 q f g h z u 6 < $ y y 1     . X.:.#.:.#.<.R.].W.R.L.L.L.R.J.#.| O.:.:.:.=.<.+.X     : # 6 f g c c z 0 $ # # ",
"# # < $ # 1 u 8 < w c l x 8 $ . * m     @ | #.X. .{ o.|.XXXXoXoXXXXXXX|.1.#.-.O.X.X.X.#...X     # # # . # $ # # $ 1 # # ",
"# # # # $ < < y g j M b M 2 $ 1 2 y     # #.2.:.:.#.1.L.].].W.W.W.}.|.Q.:.X.#.#.#.#.#.:.X.O     q q a f < $ < < $ # # # ",
"# # @ # < $ # h v M S S H 2 # w q 1     , H.[.W.W.{.R.1.$.:.:.$.1.].XX_.:.X.$.#.#.#.#.:.X.#   O z x z b 1 $ $ < # . # # ",
"# # # # # # : < * f H g 1 < : 6 w g       W.oX|.XXoX|.$.| O.+.X.:.{.oX{.$. .X.#.#.@.-.1.@.      h z c h h g w $ $ # # # ",
"# # # # # # $ # O a T w . $ < 1 0 g < < p R.XX}.Q.].R.=.O.#.X. .$.T. XR.1.$.:.#.#.#.O.#. .# # + g h g z z m w # # @ # # ",
"# $ $ # # # < $ # 6 x q $ $ : .   * A.~.L.}.|.Q.1.$.:.#.-.O.i = g $.:.<.T. XT.:.#.O.i = g | ;.| #   . h l z f q < # # # ",
"# # # # . # $ # # # . $ < $ :     , {.oXXX}.|.Q.$.| X.#.-.@.2 % 2  .X.$.{.oX{.#.X. .2 % r X.>.O.@     h l l z M w $ # + ",
"# # # # # 2 f y f y g 1 $ $ $     < L.XX}.}.|.W.:.X.#.#.-.O.t - t O.+.:.W.XXW.1.:.#.t - t #.8.#.@   # S N N l x 0 $ # # ",
"# # # # $ y M z v v M 0 # $ $     , L.XX}.}.|.W.:.X.#.#.-.X.t - t X.#.:.Q.|.}.W. XJ.i . i J.OXH.&   < .X.X!.M z q $ # # ",
"# # X * 6 g z c c l l h g 1 $     ; T.XX}.}.|.W.#. .X.#.:.X.2 o e  .X.#.}.XX|.|.XXW.t   t E.oXW.&   , ^.oXoXC D s $ # # ",
"# # X < w g z c c c z z v 1 $     ; L.XX}.}.|.Q.1.$.:.#.$.X.i = g #.:.1.L._._.{.XXP.n < n P.oXL.&   < ^.oX.X/ I z $ # # ",
"# # 0 0 0 0 9 g z h h h z 1 $     ; L.XX}.}.}.}.Q.].L.:.X.#.O. .#.R.].I.*.%.*._.|.}.L.T.R.{.XXT.#   < ^.oXoX.X).!.7 # # ",
"@ $ w 0 q q q l z z z z b 1 $     ; R.XX}.}.}.}.|.XX{.$...X.@.X.:.}.oX{.%.V %.R.|.}.XXXXXXXXoX{.,   , ^.oXoXoXoXoX6 # # ",
"# # w 2 1 y l C S C C S I 2 #     , K.|.].}.}.}.}.|.].1.#.:.:.$.1.W.XXE.*.&.*.E.|.}.}.{.{.T._.M.;     ^.oXoXoXoX.X6 # # ",
"# # 7 .   . z N C C S x g 7 #     # k.G.Z.{.|.}.}.}.}.W.].W.W.Q.Q.}.}.{._._._.{.}.}.}.XXR.5 < & 1 l l ^.oXoXoXoX.X6 # # ",
"# # #       S C M S I w   : <     # d.Z.z.}.|.}.}.}.}.|.|.|.|.|.|.}.}.}.|.|.|.}.{.}.XXoX]..     $ # $ `.oXoXoXoX^.. # # ",
"# # # # # # M M C x q 9 1 < #     # j.Z.n.{.}.}.}.}.}.}.}.}.}.}.}.}.}.}.}.}.{.}.}.}.T._.A.<   . 6 : w ^.oXoXoXoX.XB 6 6 ",
"    . | $.| # . X g   1 .         # h.D.z.z.z.m.{.}.}.}.}.}.}.}.}.}.}.}.}.}.}.}.XXL.p * * g h x f $ q /.oXoXoXoXoX.X.X!.",
"    # -.7.$.      1 # <             d.Z.x.x.l.z.}.|.|.}.}.|.}.}.|.|.}.}.XXXXXXXXoX]..     l l v w # g .XoXoXoXoXoXoXoXoX",
"    . | :. .3 , ; $ o $ ; : & , & p k.F.c.z.x.c.{.}.{.{.{.{.{.{.{.].{.{.K.T.T.L._.A.#   . g h b y O g ).oXoXoXoXoXoXoX^.",
"# # X O # 7 M.(.A.#   # A.~.L.R.T.R.{.{.Q.z.x.z.z.z.z.z.c.c.c.z.n.v.F.k.5 ; & ; < #     O z z f 0 < g ).oXoXoXoXoXoXoX^.",
"$ # $     # |.oX|.O   . {.oXXXXXXXXX|.|.}.c.z.z.x.x.x.x.x.x.x.x.x.x.S.d.                O K M . < g 1 /.oXoXoXoXoXoXoX'.",
"# # +     # M.`.A.5 # 6 R.XX}.}.}.}.}.|.{.c.x.z.z.z.z.x.z.z.z.z.x.z.S.g.5 # # # # # # ; ; w 0 : f g j .XoXoXoXoXoXoXoX.X",
"$ # # # < $ , : 6 f.l.j.{.}.}.}.}.}.}.|.{.c.x.z.z.z.z.z.x.z.z.z.z.z.z.z.j.g.d.d.d.h.d.x.s.#   * !..X.XoXoXoXoXoXoXoXoX[.",
"# # # # # 1       x.U.F.}.|.}.}.}.}.|.|.}.c.x.z.z.z.z.z.z.z.z.Z.z.z.z.Z.F.F.F.F.F.F.U.Q.Z.;   : ^.oXoXoXoXoXoXoXoXoXoXoX",
"# # X # $ 1     # j.S.n.{.}.{.}.}.}.{.}.{.z.x.z.z.z.z.z.z.z.x.l.x.x.x.x.x.x.x.x.x.l.k.x.s.;     ^.oXoXoXoXoXoXoXoX[..X!.",
"# # $ < q 0 O   # d.D.z.c.z.m.].|.{.m.z.z.z.z.z.z.z.z.z.z.x.9.6.0.0.9.0.0.0.0.0.w.4.7 # # $ * q ^.oXoXoXoXoXoXoX.Xd 6 6 ",
"# # < 1 w 0     ; x.Y.S.x.l.z.}.|.{.z.l.x.z.z.z.z.x.z.F.F.Z.q.5.9.9.9.9.9.6.0.9.w.4.      $ < w oXoXoXoXoXoXoXoXoX< # # ",
"# # q q 0 9     # r.x.j.z.x.v.{.}.{.z.x.z.z.z.z.z.z.z.k.k.d.3.,.,.,.,.,.,.,.,.,.5.>.#     $ < z !..X.X.X.X.X.X.X!.S < . ",
"@ $ q 0 0 2       # ; 6 k.Z.z.z.z.z.z.z.z.z.x.z.z.S.g.7 # # # # # # # # # # # # # # g q 1 < $ 1 g l j g N N N S S M < . ",
"X $ w q 0 2             d.D.z.S.Z.S.v.C.z.z.Z.b.S.Y.x.                              j b z 1 : # < w 9 2 g h v S S S < . ",
"# # < 1 q 2       # ; 5 j.S.x.j.j.k.x.x.z.x.l.l.j.x.s.;                           . g z c < : # < q u g v M M Z C S < . ",
"X # # < w 6     # s.x.j.x.D.j.5 # 3 3.q.6.0.w.4.7 # # l 1 $ $ * 0 6 2 1 1 g h g g h c z l < : # < 0 g x C S C C C S < . ",
"# # # < w 0     # z.Y.S.S.Y.x.      >.0.5.6.w.3.      N 2 # 6 6 0 0 9 f h M M M M N C q < : $ $ * # g C C C C A C S < . ",
"$ # . < u 9     # d.F.x.h.x.s.;   # ,.9.5.3.5.>.# O + C 2 # 0 q 0 9 1 g z M S C S C S 1 # : * * *   z I C N C A S K < . ",
"# # . # 1 0     # h.Y.k.5 ; #     # ,.w.3.< @ # g C M S 1 # 0 q 0 q y l m N C C C C S 6 # # # $ : # w l M C C S x k < . ",
"# # X # + f     ; x.Q.x.          # 5.e.5.      a I D K 2 # q q 1 y z M S C C C N D K 9 # # # < < < $ + M K D I f . # # ",
"# # # # # <     # s.S.s.#         # >.9.>.+     < f y f $ # < 2 g l M C C C C C S g 6 < # # # $ # # $ * q f s g 1 # # # ",
"# # $ # # # + z C ; ; # . + # X # # @ # # # X # # # # # # # # < x M D S S S S S K 6   @ # $ # # # . # < $ # $ $ # # $ # ",
"# # # # # # # < <       # # # # # #       # # # # # # # # # # # < < 7 < < < < < 7 # # # # # # # # # # # # # # # # # # # ",
"# # # # # # # . .       # # # # # #       # # # # # # # # # # # . . . . . . . . . # # # # # # # # # # # # # # # # # # # "
};
