/* XPM */
static char *xpm_[] = {
/* columns rows colors chars-per-pixel */
"60 60 186 2 ",
"   c #020202",
".  c #0A0605",
"X  c #060806",
"o  c #0A0907",
"O  c #060608",
"+  c #090709",
"@  c #070909",
"#  c #0C0B0C",
"$  c #100F01",
"%  c #120D0D",
"&  c #0E100F",
"*  c #0C1001",
"=  c #131406",
"-  c #13100F",
";  c #1A1A0C",
":  c #1A100F",
">  c #0E0E11",
",  c #130E11",
"<  c #180F11",
"1  c #0E1111",
"2  c #151212",
"3  c #1B1515",
"4  c #1C1916",
"5  c #141618",
"6  c #171B1C",
"7  c #1D1A19",
"8  c #1B1718",
"9  c #201E0F",
"0  c #211917",
"q  c #201719",
"w  c #231C1B",
"e  c #281E1C",
"r  c #231717",
"t  c #1F2012",
"y  c #222216",
"u  c #26211E",
"i  c #29201E",
"p  c #272A1D",
"a  c #2B2A1F",
"s  c #1C1E20",
"d  c #251E20",
"f  c #281F20",
"g  c #262221",
"h  c #2B2523",
"j  c #2D2925",
"k  c #2F2929",
"l  c #302626",
"z  c #312A26",
"x  c #332D2A",
"c  c #392F2E",
"v  c #302728",
"b  c #36312D",
"n  c #39322E",
"m  c #36392E",
"M  c #382F30",
"N  c #373332",
"B  c #3C3432",
"V  c #3E3935",
"C  c #3F3D39",
"Z  c #343A30",
"A  c #760F24",
"S  c #413635",
"D  c #413936",
"F  c #413738",
"G  c #443B39",
"H  c #493D3D",
"J  c #45413D",
"K  c #45413D",
"L  c #4A423F",
"P  c #4A3E40",
"I  c #484540",
"U  c #4A4641",
"Y  c #4C4341",
"T  c #4E4A45",
"R  c #4D4943",
"E  c #504544",
"W  c #504D46",
"Q  c #524E4A",
"!  c #544F4A",
"~  c #524F4A",
"^  c #594E4C",
"/  c #53504A",
"(  c #54514A",
")  c #56534C",
"_  c #57544D",
"`  c #53524D",
"'  c #58554E",
"]  c #595751",
"[  c #5A5851",
"{  c #5D5A53",
"}  c #5D5A55",
"|  c #5D5B55",
" . c #565550",
".. c #615D56",
"X. c #615E59",
"o. c #61605B",
"O. c #5E6766",
"+. c #6B6761",
"@. c #666C6C",
"#. c #6A6B6D",
"$. c #6D736F",
"%. c #6A6E72",
"&. c #6E7374",
"*. c #6D7579",
"=. c #727475",
"-. c #747679",
";. c #757A7C",
":. c #797B7C",
">. c #8A3245",
",. c #873448",
"<. c #975264",
"1. c #7C817D",
"2. c #80807E",
"3. c #7B7E81",
"4. c #7C8283",
"5. c #798589",
"6. c #7F9098",
"7. c #848786",
"8. c #838788",
"9. c #83898B",
"0. c #8B8F8F",
"q. c #818F98",
"w. c #819095",
"e. c #8F9897",
"r. c #8E9BA1",
"t. c #9CABB2",
"y. c #A5B2BF",
"u. c #A9B3BE",
"i. c #EDCFB5",
"p. c #F7CEB2",
"a. c #EED1B3",
"s. c #F6DEBF",
"d. c #F4D6BC",
"f. c #E6C7AB",
"g. c #A3B3C1",
"h. c #AFBFCD",
"j. c #B2BFCE",
"k. c #B1C0CD",
"l. c #B4C3D2",
"z. c #B9C6D6",
"x. c #B9C9D6",
"c. c #BCCCDC",
"v. c #B7C5D8",
"b. c #BED0DE",
"n. c #BECEE1",
"m. c #C1CEDF",
"M. c #C1D1DF",
"N. c #C8DADF",
"B. c #C6D9DF",
"V. c #FEDEC0",
"C. c #F6DFC0",
"Z. c #FFE4C4",
"A. c #FEF0CB",
"S. c #C3D4E4",
"D. c #C9DAE1",
"F. c #C6D5E8",
"G. c #C6D8E9",
"H. c #C9DAE9",
"J. c #C7DAE0",
"K. c #D1E2E6",
"L. c #D4E4EA",
"P. c #D9E7EC",
"I. c #D6E9EF",
"U. c #DAEAEE",
"Y. c #CFE2F5",
"T. c #D1E2F5",
"R. c #D6EAF0",
"E. c #DAEBF2",
"W. c #D7E9FD",
"Q. c #DEF1F6",
"!. c #DEF2FA",
"~. c #DDF8FF",
"^. c #E3EFEF",
"/. c #F0EFED",
"(. c #E2EEF3",
"). c #F0EEF1",
"_. c #E2F3F3",
"`. c #E9F7F7",
"'. c #E3F5FC",
"]. c #EBF6F8",
"[. c #E5F9FE",
"{. c #EBFEFF",
"}. c #E4F8F7",
"|. c #F2F3F3",
" X c #F2FFFF",
".X c #FCFFFE",
/* pixels */
"# # # # . . .             # # % # . .       .   # # # # # . . O       .           # % X .       . .   .         # % # # ",
"# # # # 2 2 2 4 4 7 4 4 7 # # # # - 2 4 4 7 4 4 - # # # - 2 2 3 4 7 4 4 4 4 4 4 7 # # , 2 4 4 7 3 2 2 3 5 7 7 7 # # # # ",
"# #   2 x B G ` } ] ' { o.3     o h C X.] ] } +.N       u n S I [ [ { } { [ ' [ +.h   u B [ | X.( D G D ) { [ +.g   # # ",
"# # 2 u B G R / _ ) ' W ~ u 2 7 h V U ' ) _ W ! V 4 7 3 x B L T _ ~ T T T ( ' ~ ! b 4 x B T T W I V I U `  ./ / n 4 # # ",
". 2 B V L / ..) ( ) ' R G B n U ~ | [ ( ( ) J V J ! V x C J [ [ _ T G G S ) } T V L T U J G G G K G ~ X._ _ T B J ~ 4   ",
"X % i j n C R / _ ) } V h g i x V U T _ ) ) V x N n x l V K U R { J u x n K T G x B n n n B n j z n G R ! } U x n B 2 . ",
"# # 4 u l b C W _ _ X.n % 3 q h x V U ] _ ] n h j z x z V K V K X.G % i x B J B h l j j j x j 3 u j B C ~ } J h k x - . ",
"# # q g z B G W ' T U z 3 w q w u x B U J U h w 7 2 7 g l n G G R n 3 e w x n j q w g 3 2 2 2 , 3 w j n G T n q 3 2 # # ",
"# % w h c S G ` { W J z 0 e w q w j n G G G g 0 3 O 3 e h x J J J n 3 w 0 l n h 0 w w , # # # > - q j x S U n q ,   # # ",
"# # 2 7 w x V U ~ J V g 2 3 3 0 w z n J V V w 3 2 # 2 3 i j B V V l 0 3 3 w g q 3 4 3 2 , % % > 2 3 e l x B j 3 , # # # ",
"# # . # . w x S J B n 7 + # > q g z B U n x 2 # # , > # 3 w l x x j e 2 # # # # o # X # % % - # # # 3 e 3 3 < # # # # # ",
"# # # # # q g x V j 8 2 % > > 2 3 g z S h 3 2 , 2 < 2 > 2 3 i g h w 2 2 , , # 3 h w u u u - # 2 , % 2 2 g j h g 2 . # # ",
"# # # # # 3 w j n 7 O % 2 , , > 2 7 i n 7 . 2 : 2 < , > # # 3 q w 3 # % 2 % # q B x n n x % % , , % # # h n x B 3   # # ",
"# # # # , 2 2 2 3 2 - % 2 % > > , 2 2 3 2 , 2 2 2 2 , % d j z h 2 % % , % 3 0 q w j x x l j e % 2 # 3 7 j x l x h h 2 @ ",
"# # # # 2 % # # # % 2 2 2 % , % # > # # , 2 % 2 2 2 2 % j B n h % 2 - 2 % 4 e q 3 h x z z n l % 2 % 3 e j x z x c B 2 . ",
"% # X # - , % # # % , % # 7 w # # , , , 3 e 2 , < # 3 w j x l l l w # 3 w w q q 3 h l B F H B # 2 e q 4 h l c S S H 3 . ",
"# # # # - 2 2 3 3 3 3 2 # 4 q 3 2 - 2 , 3 w 2 % 2 2 3 w j x x x B g o 3 e w q w w j x F G B k # 2 q w u z c B G B B 2 . ",
"# # % - % 3 w x n x n 7 # # 2 B z o # % # % % % 3 g w 4 h x F S E x . 3 i 0 4 u z n G H G 2 # > % # g B G L H R u o # # ",
"# # % , > 3 w g h j b u 7 2 % u e 4 4 4 w q 2 # 2 3 w g x B F B x w # 3 3 e u j B B G c h 2 % , , # 7 g j v l z q % # # ",
"# # 2 % # 3 i 3 2 e l z c 3 %   - B n c c n 3 # % # u c V G Y B o # % # # j B V Y H I 3 . # # # # # + . # % % # , 3 # # ",
"# # # # % 2 2 u j z B n B 4 % 2 4 u h x l x 3 % , # g F S F h q - 2 2 % # 4 q w g f g 2 - w u u g w e g 2 % 2 2 % # # # ",
"# # @ # 2 % # j n B G G H 4 # e e 3 u x l x 3 , , . k E G V % # % , , % # # # # # % # % 2 x n x x c c n 3 o % 3 # . # # ",
"# # # # # # , 2 % g L j 3 2 % 7 w j c V B S 3 # , , 3 q 7 4 % 3 j h j h h w 4 3 , , % 3 w j x x l x l x h j w % % # # # ",
"# # # # # # % # O d ^ i . % 2 3 w l c G F G 3 # - 2 % % # # o 2 n c x c c i e 4 , , % 7 e x x x x z x z x n u # # @ # # ",
"# % % # # # 2 % # 7 n 7 , # - e h c B S F G q # < 2 , 2 3 3 4 w j .   . j q 3 3 3 2 % 4 w g j l z z l .   O u w 2 # # # ",
"# # # # . # % # % + . % 2 > , n B G S V G Y q % % 2 % # 4 e n n l       n 3 . 3 h 3 % 7 w 3 w c x z j       x B e % # # ",
"# # # # # 4 g u u g g 4 % , , 3 u G F G l e 2 % 2 % 3 3 q w e g h o @ # 3 2 # 2 3 , % q w q w f g l h 2 2 2 h x 7 % # # ",
"# # # # % u B x x x n w # , 2 . 2 G G I e . , 2 - % 7 e w 7     # @.3.@.O     , # # # 7 w q 7 3 .   & N./.N.1     % # # ",
"# # . - 7 h x l l z x j h 3 % - 2 3 3 3 2 % , % 2 w 0 0 h j       &.9.&.      h j 7 % 2 2 3 e h       ~..X[.1     # # # ",
"# # X 2 e h x l l x x x n 7 % 2 , % % % % < , % 3 w e 0 j z # # & -.0.-.1 . X j n q % # # 7 e j - & 7 I..XP.>     # # # ",
"# # q q q q 0 j x l l l x 3 , # 3 c j x 7 # , 2 2 # w .   # @.&.:.i.s.i.-.*.@.X .             1 D._.P.V.Z.i.#     . # # ",
"@ % e q w w w z c x c x n 3 % % 3 l x n w 2 2 2 , # 7     X ;.4.7.V.A.V.4.;.&.                # [..X.XZ.Z.p.#     @ # # ",
"X # e q 3 h x B G S F G L 0 # w e 3 w l z x 3 % 2 2 %     # &.;.3.i.s.a.8.4.;.5 2 > 1 2 1 + . 3 K.].(.d.C.f.#     # # # ",
"# # 3 q i l n V F F G c l 2 # 3 7 u j B n n 3 % , 2 %     @ &.3.;.1.:.7.E.}.E.R.I.I.I.U.K.;.@.&.4.4.4.2.7.:.@     # # # ",
"# # # w V F G F F G E e   % , # 3 x n H H R q % % o #     O @.;.$.%.O.-.{..X X.X X.X X.X{.9.;.3.=.&.&.*.;.%..       # # ",
"# # @ 2 3 k G F G c d q 3 2 , # 3 n n G j q 2 # 3 g w     @ ;.9.4.4.;.9.E.}.!.Q.Q.Q.[.{.Q.4.=.;.;.;.;.;.4.&.X     7 # # ",
"# # X     . G S I j   3 g 3 -     . .           7 B x     # K.].Q.!.'.I.9.;.4.4.;.9.!. XQ.4.&.;.;.;.;.;.4.&.X     x 2 . ",
"# # #       7 7 w 3 - - 2 2 2                   q w h       Q..X{. X.X{.;.@.&.;.&.4.[. X[.;.#.&.;.;.;.3.8.-.      S 2 O ",
"# # O . # X # # % % o % # % % > & 1 > # # > > # 4 3 u 1 1 s I. X[.Q._.R.4.=.;.-.@.;.I.].I.9.;.4.;.;.;.=.;.#.> X # G 2 . ",
"    O @.3.#.@     2 q q     & N._.I.I.I.I.l.z.y.#   2 N.^.I.[.{.Q.9.:.4.;.:.=.p ; p :.4.9.E.].R.4.;.=.p ; p @.3.@.X     ",
"    # 3.e.3.      4 B x     . ~..X X X X XH.T.x.    . '..X{.[.{.Q.;.#.=.;.4.=.t $ 4 @.%.;.[..X[.;.&.@.4 * 9 &.5.&.O     ",
"    . @.3.#.5 2 > u j h # > 6 E. X[.[.{.'.c.S.l.7 # 6 E. X[.[.{.Q.4.&.;.;.4.=.y = y =.;.4.!. X'.9.4.:.y = y ;.0.;.#     ",
"# # # @ @ 5 N.).D.1   # y.v.l.'.[.[.[.[.'.c.c.x.l.h.l.'.{.[.[.{.!.4.&.;.;.3.=.y = y =.-.4.Q.{.[._.}.L.j . a L.|.K.>     ",
"# # #     #  X.X{.X     x.T.H.'.[.[.[.[.'.c.z.x.F.F.H.[.[.[.[.{.Q.;.@.=.;.4.&.4 $ 4 #.&.;.[. X{.{. XQ.y   y !..XQ.1     ",
"# # @     & B.|.D.6 > 7 k.S.n.'.{.[.[.[.'.M.c.c.c.x.M.'.[.[.[.{.!.9.;.4.;.3.&.a ; j :.3.9.P._.(.[. XE.m 2 Z U..XI.1     ",
"# # # 2 q 3 1 , 6 u.x.j.x.x.c.'.[.[.[.[.[.'.[.'.b.v.c.[.[.[.[.[.[.Q.'.I.4.=.;.&.#.;.R.].P.<.>.<.E.{.[.E.I.I.[. XI.&     ",
"# # - 3 w q       S.!.T.n.x.b.[.{.{.[.[.[.[.{.[.c.v.c.[.{.[.[.[.[.{. X'.:.@.=.-.&.4.[..X'.,.A >.E.{.[.{. X X X.X'.2     ",
". # w w q q     # g.x.h.c.c.c.'.[.'.[.[.[.[.[.'.S.x.S.'.}.'.[.[.[.[.{.Q.9.;.4.4.;.9.!.{.(.<.>.<.(.{.[.[.[.[.I.(.D.1     ",
"# # w q q w 4 q 4 # > 5 k.F.c.b.c.S.'.[.[.[.[.[.'.[.!.S.c.S.'.[.[.[.[.[.Q.Q.Q.Q.Q.!.[.[.[.E.E.(.[.[.[.[. XE.s 1 2 x - . ",
"# # e w q q w q 3       x.T.F.c.v.c.[.{.[.[.[.{.{.{.[.c.v.c.[.{.[.[.[.[.{.{.{.{.{.{.[.[.[.{.{.{.[.[.[. X.X'..     G 2   ",
"# # 2 3 e q q h g .   > g.x.j.c.c.b.!.[.'.'.'.'.'.[.!.c.x.c.'.'.'.[.[.[.[.[.[.[.[.[.[.[.[.[.[.[.[.[.[.I._.J.-   X F 2 . ",
"X # # 2 w w q j x x F n > # 6 k.F.c.c.c.n.m.c.b.c.c.c.c.x.c.b.c.M.'.{.[.[.[.[.[.[.[.[.[.[.[.[.[.[.{.E.6 & 2 n B B G 3 . ",
"# # # 2 w w q j k M G F O     h.F.c.S.F.S.c.c.c.F.S.S.c.c.c.x.v.c.[.{.{.[.[.{.{. X X X X X X X X X.X'..     F F F G 2 . ",
"# # . 2 h q 3 h j c G B     # k.G.c.l.j.j.x.x.x.k.k.j.c.n.x.c.x.c.'.[.'.'.[.'.U.R.I.I.I.E.I.E.E.I.(.N.&   . B V G Y 3   ",
"# # X % 3 w g x n B S B     # j.Y.l.6 # 3 w.t.q.3 # 6 k.F.c.x.c.c.c.c.M.c.H.l.6 & # 1 & & & & & % & # l B F F G c l , . ",
"# # X # + h B S G F V F     # c.!.x.      6.t.w.      x.T.F.F.G.G.S.F.F.F.Y.z.                        . B Y H E g . # # ",
"# # # # # 3 7 B G F G j     # g.F.y.#   . 5.r.5.#   > u.x.h.j.h.k.h.h.h.j.x.y.&                       % w g f h 3 # # # ",
"# # # # # # + N L G Y w   @ # # > # # # # @ # # X # # # # > # # # # > # # # > B P 3   X # # # # # . # 2 % % % % # @ % # ",
"# # # # # # # - 2 2 3 # # # #       # # #       # # #                         2 3 # # # # # # # # # # # # # # # # # # # ",
"# # # # # # # . . . . @ # # #       # # #       # # @                           . # # # # # # # # # # # # # # @ # # # # "
};
