/* XPM */
static char *_60_42c2f30a2a573c9db08fe371dffaac2826cf0bad52b292c27ec006fa9ed61a19[] = {
/* columns rows colors chars-per-pixel */
"60 60 213 2 ",
"   c #010100",
".  c #0A0B06",
"X  c #07070B",
"o  c #02090E",
"O  c #0C0C0B",
"+  c #090A05",
"@  c #120A04",
"#  c #130B08",
"$  c #180F08",
"%  c #0E140A",
"&  c #1A1108",
"*  c #15160C",
"=  c #070A14",
"-  c #061817",
";  c #161912",
":  c #321B09",
">  c #18210E",
",  c #192516",
"<  c #2B3C1C",
"1  c #28371A",
"2  c #2F2214",
"3  c #031927",
"4  c #031A28",
"5  c #1A1A3D",
"6  c #0D1A2F",
"7  c #201F2D",
"8  c #052D2C",
"9  c #082423",
"0  c #06302F",
"q  c #092C32",
"w  c #0C3131",
"e  c #132B2B",
"r  c #272628",
"t  c #253835",
"y  c #353535",
"u  c #27332C",
"i  c #4C290D",
"p  c #4B270D",
"a  c #512C10",
"s  c #543719",
"d  c #59331C",
"f  c #4D2A13",
"g  c #65391E",
"h  c #583921",
"j  c #653920",
"k  c #6B3C22",
"l  c #713F24",
"z  c #2D441E",
"x  c #08403F",
"c  c #324523",
"v  c #344924",
"b  c #3A4E27",
"n  c #3B5327",
"m  c #264A30",
"M  c #6C441F",
"N  c #415B2E",
"B  c #4F4532",
"V  c #6E4229",
"C  c #6D4420",
"Z  c #764B21",
"A  c #794E24",
"S  c #7B4C2E",
"D  c #7E5127",
"F  c #476232",
"G  c #496533",
"H  c #4D6A34",
"J  c #516D39",
"K  c #577A3B",
"L  c #45642F",
"P  c #1D1D41",
"I  c #18284E",
"U  c #21224E",
"Y  c #252953",
"T  c #3D3D58",
"R  c #36377C",
"E  c #38387E",
"W  c #333273",
"Q  c #30306C",
"!  c #084341",
"~  c #074545",
"^  c #134743",
"/  c #0B5B5A",
"(  c #165655",
")  c #0A4B77",
"_  c #147776",
"`  c #464646",
"'  c #494949",
"]  c #484748",
"[  c #597642",
"{  c #526841",
"}  c #424160",
"|  c #7C4E7F",
" . c #736E51",
".. c #854928",
"X. c #86552B",
"o. c #94552E",
"O. c #8A5536",
"+. c #9A5E39",
"@. c #945A35",
"#. c #824F30",
"$. c #A45C34",
"%. c #9E6337",
"&. c #9E603B",
"*. c #A8623A",
"=. c #80775A",
"-. c #AE6945",
";. c #B26C44",
":. c #BB6E43",
">. c #BA7146",
",. c #B77046",
"<. c #B36D5C",
"1. c #935B6D",
"2. c #887F62",
"3. c #A06466",
"4. c #C5764A",
"5. c #C6784C",
"6. c #C6764A",
"7. c #C97D55",
"8. c #5B823E",
"9. c #62883F",
"0. c #5F8242",
"q. c #6D8C4F",
"w. c #668C43",
"e. c #6A9449",
"r. c #6C9946",
"t. c #729E48",
"y. c #779F56",
"u. c #77A44E",
"i. c #73AE4B",
"p. c #79A54E",
"a. c #75B04C",
"s. c #79B24E",
"d. c #7FB84F",
"f. c #76AC51",
"g. c #7CAB56",
"h. c #7BA758",
"j. c #77B251",
"k. c #7BB354",
"l. c #7EB952",
"z. c #7FB558",
"x. c #6DA645",
"c. c #81B657",
"v. c #81B954",
"b. c #81B759",
"n. c #83B95B",
"m. c #89BE5C",
"M. c #8BBB5A",
"N. c #80A45E",
"B. c #86BA60",
"V. c #8BBC62",
"C. c #8FBE6A",
"Z. c #91BE6B",
"A. c #90BF61",
"S. c #87AD64",
"D. c #CC8A6A",
"F. c #D18E6B",
"G. c #D29371",
"H. c #8AC156",
"J. c #8DC45C",
"K. c #8BC457",
"L. c #91C65C",
"P. c #92CA5C",
"I. c #8EC362",
"U. c #8FC466",
"Y. c #91C464",
"T. c #94CC61",
"R. c #99CE65",
"E. c #93C36A",
"W. c #96C96B",
"Q. c #9ACC6E",
"!. c #98C66E",
"~. c #9CD06C",
"^. c #99C671",
"/. c #9CCD71",
"(. c #97C772",
"). c #9FD172",
"_. c #A0CE74",
"`. c #A3D476",
"'. c #A5D579",
"]. c #A8D77B",
"[. c #A0D26F",
"{. c #383880",
"}. c #373981",
"|. c #0A5B8B",
" X c #1C5C9C",
".X c #1F5496",
"XX c #17528A",
"oX c #225396",
"OX c #304688",
"+X c #0A639B",
"@X c #19709B",
"#X c #0B6EAC",
"$X c #0A69A3",
"%X c #1464A4",
"&X c #0C71AC",
"*X c #1176A3",
"=X c #0C6FB0",
"-X c #724A86",
";X c #1F8A8C",
":X c #218887",
">X c #218888",
",X c #0F89B2",
"<X c #1188B2",
"1X c #16BFBC",
"2X c #18BEBC",
"3X c #16B7B5",
"4X c #1BA9A7",
"5X c #17C0BC",
"6X c #D2BCBF",
"7X c #D8BFC2",
"8X c #D9CAD6",
"9X c #F9F2EC",
"0X c #F2DFD4",
/* pixels */
"P.P.P.m.c.c.J.T.T.R.`.`.'.'.'.'.W.i.i.i.'.'.'.!.Z.Z.V.n.n.n.T.T.T.v.a.i.d.P.T.T.c.c.n.n.n.n.m.P.P.P.m.c.n.m.n.n.H.L.P.P.",
"P.P.L.m.c.n.J.T.T.T.`.'.'.'.'.'.W.a.i.i.'.'.'.!.E.Z.V.n.n.M.P.T.P.v.a.a.l.T.T.T.n.v.z.n.n.n.m.L.P.P.n.n.n.c.n.n.H.P.P.P.",
"P.P.P.m.n.c.B.T.T.R.'.'.'.'.].`.W.a.i.i.`.`.'.!.Z.Z.V.n.n.n.T.T.P.v.i.i.l.T.T.T.z.n.z.n.n.n.K.P.P.P.M.n.c.z.n.n.H.P.P.P.",
"P.P.P.J.B.B.I.P.P.T.'.'.'.~.R.R.U.z.k.k.M.g.N.N.N.N.y.e.e.e.u.u.p.i.9.r.t.u.u.u.e.e.e.c.n.n.I.)./.Q.n.n.n.J.J.J.K.P.P.P.",
"P.P.P.J.V.V.I.P.P.P.`.'.'.R.P.P.J.c.n.n.n                           +     +         % z.c.n.U.`.].'.B.n.n.J.P.P.P.P.P.P.",
"P.P.P.I.V.V.m.P.P.P.`.'.].R.P.P.J.n.n.n.b   + @ @ @ & & & & & & & & & & & & & & $ + O n.n.n.U.'.'.).n.n.n.J.P.P.P.P.P.P.",
"P.P.P.I.V.V.V.J.J.L.Q./.Q.R.R.R.T.V.V.V.b   : i i i Z A A A D A A A A A A A A A M + . J.J.m.I.).).~.J.n.H.J.P.P.P.K.J.J.",
"P.P.P.V.V.V.V.n.n.n.n.n.n.Q.'.'./.Z.Z.Z.v   : p i i Z A A A A A A A A A A A A A C + . P.T.T.P.P.P.P.P.P.P.P.P.P.J.n.n.n.",
"P.P.P.M.V.V.n.n.n.n.n.n.n.^.'.'.`.Z.Z.Z.v   : i i i Z A Z D Z D S A A A A Z Z A M . O P.T.T.P.P.P.P.P.P.P.P.P.P.J.n.n.n.",
"L.L.L.L.V.V.B.n.n.n.m.m.m.Q.'.'._.Z.Z.Z.v   : i i i Z X.%.%.%.%.*.$.&.%.%.%.%.X.M . . P.P.T.R.T.P.T.R.P.P.P.P.P.J.n.n.n.",
"a.a.a.c.n.n.n.n.n.B./.`.`.'.'.'._.Z.Z.Z.c   : i i i Z X.5.5.5.5.5.5.7.5.5.5.5.O.M @ + n.n.n.I.`.'.'.`.'.`.R.P.P.J.n.n.n.",
"i.i.i.k.n.n.n.n.n.V.`.'.'.].'.'._.Z.Z.Z.v   : i ....*.>.5.5.5.5.5.5.5.5.5.5.5.,.+.. O n.n.n.I.'.'.'.'.'.'.R.P.P.J.n.n.c.",
"a.i.i.k.c.m.n.n.n.B.`.`.'.'.'.'._.Z.Z.Z.v   : a o.$.5.5.5.6.5.5.5.5.5.5.5.4.5.5.;.# + n.n.n.Y.'.'.'.'.'.'.R.P.P.J.n.n.n.",
"H.H.M.m.V.V.B.j.k.k.E.E.E.W.R.T.T.n.V.n.b   : i o.$.4.D.0X8X| 1.5.5.5.3.-X7X0XF.;.# . E././.Q.I.A.Y.^.^.!.E.A.V.J.J.J.J.",
"P.P.P.Y.Z.E.B.i.i.f.V.V.V.L.P.P.K.n.n.c.b   : f o.$.5.D.9X8X-X1.5.5.4.1.-X8X9XG.;.# . /.'.'.W.n.n.n.V.Z.Z.V.V.V.J.P.P.P.",
"P.P.P.Y.Z.Z.n.i.i.i.m.B.V.P.P.P.K.n.c.c.b   : f o.$.5.7.G.D.<.-.*.*.$.-.<.D.G.7.;.# + Q.'.'.^.z.n.n.C.Z.Z.V.V.V.I.L.P.P.",
"P.P.P.Y.Y.Y.m.v.l.l.J.J.I.J.L.I.m.z.z.z.b   : a o.$.4.5.5.5.4.,.$.$.$.;.6.5.5.5.,.# O E.^.Q.W.n.n.z.I.I.I.U.I.U.U.L.J.J.",
"P.P.P.P.P.P.P.P.P.P.L.P.L.J.n.n.z.j.j.j.v   k $.$.$.5.5.5.,.S @.5.5.5.*.A ;.5.5.-.# O c.n.n.n.n.n.z.z.n.z.J.T.T.J.n.n.n.",
"P.P.P.P.P.P.P.P.L.P.P.P.P.n.n.n.c.g.z.j.v   k $.$.$.5.5.5.,.A @.,.>.,.%.A ;.5.5.;.# . c.n.n.n.n.n.n.n.n.z.T.T.T.J.n.n.n.",
"P.P.P.P.P.P.P.P.P.P.P.P.L.J.n.z.c.j.k.k.c   k $.$.$.5.5.5.,.A Z D D D A A ;.5.5.;.# O n.n.n.n.n.n.n.n.n.n.I.T.T.L.n.n.n.",
"].'.`.R.P.P.R.'.'.`.I.V.B.n.n.n.n.n.n.n.z   f l l V O.O.O.S s s s s s s s S O.O.S + O /.`.'.).T.T.T.T.J.P.P.T.T.T.P.T.T.",
"_.].'.R.P.P.R.'.'.).V.V.V.I.n.n.n.n.z.n.z                                           O /.'.'.`.T.T.T.P.P.J.T.T.T.T.T.T.T.",
"'.].'.R.P.P.R.].`.`.C.V.I.z.n.z.c.n.r.[ m w w w w w w w ! ! ! ! x ! ~ ~ ! o   1 c < b /.`.`.).T.T.T.P.T.J.T.T.T.T.I.T.T.",
"R.R.T.J.v.c.K.T.R.R.P.J.J.J.J.P.J.n.G   ( >X>X>X:X:X>X;X1X5X5X5X2X1X1X5X5X0   u.n.n.B.V.E.(.T.P.T.P.T.T.T.H.I.I.H.I.H.J.",
"P.L.P.l.k.j.l.P.P.P.P.P.P.P.P.P.J.n.G   ^ :X:X:X:X:X4X4X5X5X5X5X1X5X1X1X1X0   t.z.z.n.m.B.V.U.P.P.P.T.T.T.m.n.n.n.n.n.c.",
"P.P.P.l.k.j.v.P.P.P.P.P.P.P.P.P.J.n.G   ( :X:X@X:X:X3X1X5X5X1X1X1X1X1X1X1X0   t.n.n.z.B.V.n.I.P.P.P.T.T.T.m.n.n.n.c.n.n.",
"P.P.P.J.v.n.K.P.P.P.J.J.K.P.P.P.J.n.F   B  .=.N.2.2.^ / 1X1X1X5X5X1X1X1X1X0   < b g.n.B.V.V.V.I.K.P.J.T.I.U.U.U.I.n.n.n.",
"P.L.P.P.T.T.P.P.P.L.H.n.z.I.T.T.Y.n.G   k $.>.6.6.6.O 9 5X1X1X5X1X1X1X1X5X8     % f.z.C.Z.E.E.B.n.n.z.n.z.~.].)./.c.n.n.",
"P.P.P.T.T.T.T.P.T.L.n.n.n.L.T.T.L.c.G   g $.*.6.6.5.O 9 1X5X1X1X1X1X1X1X5Xw     % f.z.C.E.C.C.z.I.z.z.z.n.Q.].)./.c.m.n.",
"P.P.P.P.T.T.P.T.T.T.n.n.n.I.T.T.J.m.G   g *.6.6.6.6.& 9 3X3X1X1X5X1X1X1X1X8   + * u.g.B.V.U.V.z.z.z.I.H.n.Q.).).^.n.n.B.",
"n.n.n.L.P.P.R.`.).).I.n.n.I.T.P.T.T.H   g $.>.6.6.5.*.O.- ! 1X2X1X1X1X1X1X0   #.+., , z.j.j.k.B.z.z.B.z.z.I.E.E.V.P.L.L.",
"z.n.m.K.P.P.R.].'.).n.n.z.P.T.T.T.T.H   M *.*.6.6.6.4.-.  9 1X1X1X1X1X1X1X0   +.;.O . z.i.i.j.z.z.I.z.B.z.B.V.V.J.P.P.P.",
"n.n.n.J.P.L.R.'.`.`.J.z.n.I.T.T.T.T.H   j $.:.6.6.6.6.6.,.@.o ~ 5X5X5X5X1X0   +.5.,.-.+ z x.a.c.n.n.n.n.n.n.V.V.m.P.P.P.",
"I.V.V.I.J.m.W.`.'.`.I.J.J.J.H.J.m.m.G   g $.;.4.5.6.6.5.4.&.  ~ 5X5X5X5X1X0   +.6.5.:.  1 v.H.n.n.n.B.V.V.J.Y.L.L.V.I.V.",
"Z.Z.Z.B.n.c.I.'.'.`.T.P.J.I.z.z.n.n.G   g $.$.$.6.6.6.6.5.+.  ! 1X1X5X5X1Xq   +.5.5.,.  z J.I.n.n.n.B.V.V.L.P.P.L.V.V.V.",
"Z.C.E.B.n.n.E.`.'.`.T.L.J.H.I.z.n.v.K , h ..o.$.*.>.6.5.5.&.  ! 1X5X5X5X1X0   +.6.5.,.  < J.I.n.n.n.V.V.V.J.P.P.A.V.m.V.",
"(.(.(.U.J.m.U.~.Q.~.I.K.K.I.z.n.n.m.m.m.b   k *.*.*.6.5.5.*.  ! 1X1X1X1X1X0   +.5.5.>.  < J.P.m.J.J.E.E.E.P.P.P.L.M.B.n.",
"'.].).~.T.T.I.n.z.n.n.z.z.z.n.n.m.P.P.P.c + : d d d V V V B / _ 1X1X1X1X1X0   h V V V n K K.P.T.P.R.`.'.'.T.P.P.K.n.n.n.",
"'.'.'.~.T.P.I.n.n.n.z.n.z.n.n.n.m.P.P.P.c                 8 3X5X1X1X1X1X1X0         + J.P.P.P.T.T.R.`.`.`.R.P.P.J.n.n.n.",
"'.'.'.Q.T.T.I.n.n.n.n.z.n.n.n.n.m.P.P.P.v   e ^ x ^ / / / _ 5X5X1X1X1X1X1X0   v N N F J.P.T.P.T.T.R.'.].`.R.P.P.J.n.n.n.",
"c.m.n.I.T.T.E.Z.U.U.n.n.n.J.P.P.J.c.n.c.v   ( >X:X:X1X1X5X5X1X5X1X1X5X5X5X0   w.n.n.n./.`.'.).m.V.V.T.T.T.L.P.P.L.V.V.V.",
"n.c.n.T.T.P.R.Z.C.C.n.n.n.J.P.P.K.n.K 1 ^ ( _ >X@X*X<X,X,X,X<X<X,X,X,X,X,X|.) t v z.c.^.'.]./.V.V.V.T.T.T.P.P.P.L.V.V.V.",
"n.n.n.I.T.T.T.Z.C.Z.B.n.z.J.P.P.J.c.F   ( :X:X:X*X=X#X#X#X=X=X#X#X#X#X#X&X&X#X3 % f.n.Q.`.`./.V.V.V.P.T.T.P.P.P.L.V.V.V.",
"n.n.c.v.v.k.J.).)./.U.K.J.J.H.J.Y.Q.J   Y OX@X*X=X&X#X+X4 4 4 I OX X#X#X#X#X#X3 * V.^.W.Y.E.E.P.T.P.T.T.P.Y.I.I.m.z.j.f.",
"n.n.n.j.i.i.n.'.'.`.P.L.L.H.z.z.Y.'.[   U }. X#X&X#X$X|.      6 }.oX=X=X=X#X#X4 * !.`.Y.n.n.m.P.P.P.T.T.T.A.V.V.b.i.i.i.",
"n.n.n.j.i.a.n.'.'.'.P.L.P.H.z.B.E.'.{   U }. X=X&X#X4 w e.e.e.G = I }. X=X#X$X4 ; !.'.E.n.n.m.P.P.P.T.T.T.A.V.V.n.i.x.i.",
"n.n.n.z.j.j.n./.Q.Q.I.T.U.J.I.J.m.Z.{ = Y R  X=X#X#Xo , J.m.Y.[   P }..X#X#X#Xq - S.E.E.n.n.m.P.P.T.~.~.Q.I.m.n.b.i.j.j.",
"n.n.n.c.n.n.n.n.n.n.C.E.E.T.P.J.w.% 5 W R }. X#X#X#Xo > P.P.`.q.  P }..X=X=X$X$X+X; ; V.n.n.K.P.T.T.`.'.`.V.j.f.z.z.n.n.",
"n.n.n.n.n.n.n.n.n.B.C.C.C.Y.P.P.w.  5 {.{.{.oX#X=X=Xo > P.P.`.q.  P {.oX#X=X=X#X+Xo % I.z.z.H.T.T.R.'.'.'.B.j.k.k.n.n.n.",
"n.m.n.n.n.n.n.n.n.B.C.C.Z.Y.P.T.w.  5 E {.{.}.}.%X#Xo > K.T.`.q.  5 {.{.{. X=X#X+Xo O I.z.z.B.T.T.T.`.`.`.I.k.k.z.n.z.b.",
"P.P.K.J.V.V.B.c.n.n.B.n.n.Q.'._.q.  5 {.E {.}.}.) ) 1 v s.s.V.q.< t Y W {.oX X#X+Xo . z.j.f.k.E.E.E.U.T.T.H.n.n.k.i.a.a.",
"P.P.P.Y.V.V.B.n.n.n.n.n.n./.].'.q.  5 E {.}.E R =   f.a.i.i.m.V.V.F   P {.{.{.%X+Xo . j.i.i.k.E.C.Z.P.P.L.m.n.n.z.a.i.i.",
"P.P.P.I.V.V.B.n.n.c.n.n.n./.'.].q.  5 R {.{.{.R =   u.i.i.i.B.V.V.F   P {.{.{..XXXo + a.i.i.k.Z.E.U.P.P.P.H.z.B.z.i.a.i.",
"P.P.P.R././.W.V.I.V.n.n.n.V.U.U.0.  5 E {.{.E R =   g.B.V.m.Y.U.Y.G   P {.{.{.{.W X + j.i.i.k.V.B.B.P.P.P.H.z.n.z.z.k.z.",
"P.P.P.[.'.'.`.C.Z.C.n.n.n.c.n.n.K   7 } } } } T =   h.C.Z.A.T.T.T.H   r } } } } T   + s.i.i.j.n.n.n.J.P.J.J.n.n.n.n.n.n.",
"P.P.P.`.'.]./.Z.Z.Z.n.n.n.n.n.c.K   r ' ' ' ' ] O   z.Z.Z.Z.T.T.T.H   r ' ' ] ] ` X + i.i.i.j.n.n.n.L.P.P.H.B.n.n.n.n.n.",
"P.K.P.T.Y.R.Y.Y.A.A.n.n.n.n.e.v c r T ` ' ' ' ` O   b.E.W.U.I.T.T.G   r ' ' ' ] ` y r z L s.v.V.V.V.T.R.T.I.n.n.n.V.n.V.",
"P.P.P.v.i.i.v.P.P.P.n.n.n.n.0.  ; ] ` ` ] ] ` ` O   M.P.T.T.V.V.V.G   r ] ] ] ] ` ] `   < H.P.Z.E.E.'.].'.E.n.n.B.Z.Z.Z.",
"P.P.P.k.i.i.d.P.P.T.m.n.n.n.8.  + O O # O O O O     m.P.T.T.V.V.V.G   + O O O O O O X   < H.Y.Z.Z.Z.'.'.'.E.n.n.B.Z.Z.Z.",
"P.P.P.v.i.i.d.P.P.P.n.n.n.c.8.                      M.T.T.T.V.V.V.G                     < H.Y.Z.Z.Z.'.'.'.I.n.B.V.Z.Z.Z."
};
