/* XPM */
static char *_0359_b59450d465c3ec4ddb226e5770ed1e6185bc470fd4b3d8f58bc55d80631a7322[] = {
/* columns rows colors chars-per-pixel */
"60 60 203 2 ",
"   c #010100",
".  c #020E0E",
"X  c #0A0A0A",
"o  c #0C0805",
"O  c #140D07",
"+  c #0D1309",
"@  c #0D1307",
"#  c #191007",
"$  c #1B100A",
"%  c #0B0D18",
"&  c #061419",
"*  c #161616",
"=  c #14151B",
"-  c #231306",
";  c #281609",
":  c #2B1A11",
">  c #1D2915",
",  c #362517",
"<  c #27381C",
"1  c #3C260F",
"2  c #041624",
"3  c #0D1325",
"4  c #131328",
"5  c #121327",
"6  c #041F30",
"7  c #161835",
"8  c #110F24",
"9  c #042335",
"0  c #0D3838",
"q  c #363533",
"w  c #4C290D",
"e  c #432616",
"r  c #442C14",
"t  c #4B2B1A",
"y  c #422718",
"u  c #52311E",
"i  c #5A331A",
"p  c #563421",
"a  c #4B3827",
"s  c #683E28",
"d  c #1A4237",
"f  c #31492F",
"g  c #304A1D",
"h  c #6E441E",
"j  c #6D422A",
"k  c #774D23",
"l  c #794E24",
"z  c #74462C",
"x  c #774629",
"c  c #7C5127",
"v  c #4E6D36",
"b  c #4A6B36",
"n  c #547536",
"m  c #547539",
"M  c #5B7E3D",
"N  c #577739",
"B  c #49682E",
"V  c #484C27",
"C  c #1D1D41",
"Z  c #052E46",
"A  c #063958",
"S  c #262554",
"D  c #153F6F",
"F  c #37377D",
"G  c #37367B",
"H  c #0A5654",
"J  c #185E5C",
"K  c #175E5D",
"L  c #074166",
"P  c #196D6A",
"I  c #0E7675",
"U  c #434343",
"Y  c #494949",
"T  c #484846",
"R  c #44455A",
"E  c #884C28",
"W  c #874D28",
"Q  c #855229",
"!  c #995F36",
"~  c #95542E",
"^  c #A45C34",
"/  c #9A6036",
"(  c #A6673C",
")  c #AD643B",
"_  c #A5683C",
"`  c #B4693F",
"'  c #B36D43",
"]  c #BD6F48",
"[  c #BB7146",
"{  c #BE7449",
"}  c #B8764A",
"|  c #B97158",
" . c #AB6A4B",
".. c #AC6960",
"X. c #C4764B",
"o. c #C8774A",
"O. c #C6784C",
"+. c #C9784D",
"@. c #C37647",
"#. c #C67850",
"$. c #59813D",
"%. c #658B3E",
"&. c #12817E",
"*. c #5F8645",
"=. c #668C44",
"-. c #688D46",
";. c #648848",
":. c #6A9346",
">. c #6A934A",
",. c #6C9A4A",
"<. c #669844",
"1. c #709C4D",
"2. c #739752",
"3. c #6F8F54",
"4. c #73A14E",
"5. c #72AE4A",
"6. c #7DAC4E",
"7. c #75B04C",
"8. c #7FB84F",
"9. c #79B34F",
"0. c #79A556",
"q. c #7BA854",
"w. c #77B351",
"e. c #7CB354",
"r. c #7EB852",
"t. c #7FB558",
"y. c #81AD59",
"u. c #82B356",
"i. c #82BA54",
"p. c #81B759",
"a. c #83B95B",
"s. c #89BE5D",
"d. c #88BD55",
"f. c #83AA61",
"g. c #8AB364",
"h. c #86BA61",
"j. c #8BBC62",
"k. c #8FBE6A",
"l. c #87B461",
"z. c #91BE6B",
"x. c #90BF61",
"c. c #C8805C",
"v. c #CE8B67",
"b. c #8AC256",
"n. c #8DC45C",
"m. c #87C056",
"M. c #91C65D",
"N. c #92CA5C",
"B. c #8EC362",
"V. c #8FC466",
"C. c #91C564",
"Z. c #94CC61",
"A. c #99CE65",
"S. c #92C36A",
"D. c #96C96A",
"F. c #9ACC6D",
"G. c #98C66D",
"H. c #9CD06B",
"J. c #99C671",
"K. c #9CCC71",
"L. c #97C772",
"P. c #9FD173",
"I. c #A0CE74",
"U. c #A1CD78",
"Y. c #A3D476",
"T. c #A5D579",
"R. c #A8D77B",
"E. c #A0D26F",
"W. c #383880",
"Q. c #373A81",
"!. c #095A8B",
"~. c #0F5F80",
"^. c #1C5B9C",
"/. c #2A488C",
"(. c #344284",
"). c #294C92",
"_. c #245295",
"`. c #225895",
"'. c #0B679B",
"]. c #0B6EAC",
"[. c #0B68A4",
"{. c #1367A7",
"}. c #0D71AC",
"|. c #0C7DAD",
" X c #1277A1",
".X c #744A84",
"XX c #76538D",
"oX c #0F8987",
"OX c #108483",
"+X c #218786",
"@X c #218887",
"#X c #238888",
"$X c #0D80AF",
"%X c #16A9A7",
"&X c #18B2AE",
"*X c #16BFBC",
"=X c #18BEBC",
"-X c #15B4B1",
";X c #BAA4BD",
":X c #DCA98E",
">X c #E9DDDD",
",X c #F4E6DD",
"<X c #F6ECE6",
/* pixels */
"N.N.N.s.p.p.n.Z.Z.Z.T.T.T.T.T.T.D.5.5.5.Y.T.R.J.z.z.j.a.a.a.Z.Z.Z.i.7.5.r.Z.Z.Z.r.t.p.a.a.a.s.N.N.N.a.p.a.a.p.s.m.N.N.N.",
"N.N.M.s.p.a.m.Z.Z.Z.Y.R.T.T.T.T.D.7.5.5.T.T.Y.J.z.z.j.a.a.a.Z.Z.Z.r.5.5.r.Z.Z.Z.a.a.t.a.a.a.s.N.N.M.s.a.a.a.p.p.m.N.N.N.",
"N.N.N.s.a.a.m.D.Z.Z.T.T.T.Y.T.T.D.7.5.7.T.T.Y.G.z.z.x.a.p.a.N.Z.N.r.5.5.r.Z.A.Z.a.t.a.p.a.a.s.N.N.M.a.p.p.p.a.a.m.N.N.N.",
"N.N.N.n.h.h.B.N.Z.Z.Y.T.R.H.A.A.n.t.e.e.H.A.H.E.I.U.G.a.a.a.Z.Z.Z.b.d.b.b.N.N.N.a.p.a.a.a.a.B.K.E.H.s.a.a.n.n.n.b.N.N.N.",
"N.N.N.n.j.g.n.N.N.N.T.T.T.A.N.N.n.a.a.a.Z.Z.A.I.R.R.K.p.a.a.Z.Z.Z.N.N.N.N.N.N.N.a.a.p.a.a.p.B.R.R.P.a.a.s.n.N.N.N.N.N.N.",
"N.N.N.j.j.j.n.N.M.N.Y.T.R.A.N.N.n.a.a.a.u.=.-.>.3.2.-.M $.$.=.=.=.%.%.%.%.%.%.=.*.$.M t.a.a.C.T.T.P.B.a.p.n.N.N.N.N.N.N.",
"N.N.N.B.j.j.j.n.n.n.F.F.F.A.A.A.Z.j.j.j.m                                             4.s.s.Z.E.P.H.n.h.b.b.N.N.Z.n.n.M.",
"N.N.N.j.j.j.j.a.a.a.a.a.a.K.T.T.K.z.z.z.v   O ; ; ; 1 r r r r r r r r r r r r r r o   u.Z.Z.N.N.N.N.N.N.N.N.N.N.b.a.a.p.",
"N.N.N.s.j.j.h.a.a.a.a.a.a.K.T.T.I.z.z.z.v   - w w w h l l l k l l l l l l l l l k #   u.Z.Z.N.N.N.N.N.N.N.N.N.N.M.a.a.a.",
"N.N.N.x.j.j.h.a.a.a.a.a.s.K.T.T.I.z.z.S.v   - w w w h l l l l l l l l l l l k k k #   6.N.Z.Z.N.N.Z.Z.N.N.N.N.N.n.i.a.a.",
"7.7.5.u.a.a.a.a.a.j.I.Y.Y.Y.T.T.I.z.z.z.v   - w w w h l l l l l k l l l l k l k k #   4.s.a.V.Y.R.Y.R.Y.Y.A.M.N.n.p.a.a.",
"5.5.5.e.a.a.a.a.a.a.T.T.T.R.T.Y.I.z.z.z.v   - w w w h l ' [ [ [ [ } [ [ } [ [ / k #   4.a.a.B.T.R.T.T.R.T.Z.N.N.n.a.a.a.",
"5.7.5.t.a.a.a.a.a.a.Y.Y.T.R.T.T.I.z.z.z.v   - w w w h l X.O.O.O.#.O.O.+.O.+.O.! k #   1.p.a.V.T.Y.T.T.T.R.A.N.N.n.a.a.a.",
"b.b.b.j.j.j.a.e.e.t.C.G.S.G.A.A.Z.a.a.j.n   - w x ~ ' [ O.O.+.#.#.O.+.+.O.O.+.X.' :   f.K.K.D.V.x.x.L.J.J.C.C.j.n.n.n.n.",
"N.N.N.x.z.z.h.5.5.7.j.x.j.n.N.N.b.p.a.a.n   - w E ^ ] O.v.v.| | O.O.#.| | #.v.v.X.:   l.T.T.K.p.a.u.k.z.z.g.j.j.B.N.N.N.",
"N.N.N.M.z.z.a.5.5.7.l.a.j.M.N.N.M.p.t.u.N   - w E ^ ] #.<X<XXX.X#.#.X...XX;X<X:XX.:   l.T.T.F.a.a.a.k.z.k.k.j.j.n.N.N.N.",
"N.N.N.C.x.C.n.u.r.i.s.n.j.B.n.n.m.t.t.t.n   - w E ^ ] #.,X>XXX.X{ X.X....X;X<X:XO.:   y.F.F.D.p.t.a.h.B.h.B.B.B.B.n.M.n.",
"N.N.N.N.N.N.N.N.N.N.N.N.N.n.a.a.t.e.w.e.v   - w E ^ [ #.+.+.+.+.^ ^ ^ ) O.X.#.O.X.:   1.a.a.t.a.a.a.a.a.t.Z.Z.Z.Z.a.a.p.",
"M.N.N.N.N.N.N.N.N.N.N.N.N.s.a.a.a.7.e.e.v   ; i E ^ { O.O.X.[ [ ) ) ) ) ' { O.O.X.:   4.a.a.a.a.a.a.a.a.a.Z.Z.Z.n.a.a.a.",
"N.N.N.N.N.N.N.N.N.N.N.N.N.s.p.a.t.e.w.e.v   t ^ ^ ^ ] O.O.[ Q Q O.O.X.' c ( O.#.X.:   1.a.a.a.a.a.a.a.a.t.B.Z.Z.n.p.a.a.",
"T.T.T.A.N.N.A.R.T.Y.j.j.j.a.a.a.p.p.a.t.B   t ^ ^ ^ [ O.O.{ Q c ( _ ( / l _ +.#.X.:   g.R.R.E.A.D.Z.N.N.N.Z.Z.Z.Z.N.Z.Z.",
"Y.T.R.A.N.N.A.T.T.Y.j.j.B.a.a.a.a.a.a.a.B   t ^ ^ ^ [ O.O.{ c l l l l l l _ O.O.X.:   g.T.T.H.Z.Z.Z.N.N.N.N.Z.Z.Z.Z.Z.Z.",
"T.T.T.D.N.N.A.T.T.Y.j.j.h.a.a.a.a.a.p.a.B   : i i i j j j j t r r r r r r p z z j O   g.T.R.P.D.Z.Z.N.N.N.Z.Z.D.D.Z.Z.Z.",
"A.A.A.b.i.i.b.A.A.A.M.M.N.n.n.n.n.a.a.a.m                                             0.S.S.V.N.Z.N.Z.Z.Z.B.m.m.m.n.a.n.",
"N.N.N.r.e.w.r.Z.N.N.N.N.N.N.N.N.M.a.0.< f J J J K K J J I OXOXOXoXOXOXOXOX0   g M M M p.j.j.C.N.N.N.Z.Z.Z.m.t.B.a.a.a.a.",
"N.N.N.r.w.e.i.N.N.N.N.N.N.N.N.N.n.a.>.  0 @X@X@X#X#X#X#X=X=X=X=X*X*X*X*X*XH   N t.a.a.a.j.a.B.N.N.N.Z.Z.Z.n.t.t.a.p.a.p.",
"N.N.N.m.r.m.b.N.N.N.M.b.n.N.N.N.M.a.>.  0 oX#X@XoX#X%X&X*X*X=X=X*X*X*X*X*XH   N a.t.a.l.j.j.j.n.n.M.B.n.B.V.V.V.B.a.a.p.",
"N.N.N.N.Z.Z.N.N.N.N.a.a.a.n.Z.Z.B.a.>.o 0 #X#X#X#X#X&X=X*X=X=X=X*X*X*X*X*XH   N t.a.a.k.z.z.k.a.a.r.a.a.a.F.R.R.K.p.a.a.",
"N.N.N.N.Z.Z.Z.N.N.M.a.a.p.B.Z.Z.Z.a.>.  1 /  .} c.} , . -X*X*X*X*X*X*X*X=XH     X :.a.j.k.z.j.a.h.a.t.a.t.K.T.T.K.a.a.a.",
"M.N.N.Z.Z.Z.Z.Z.Z.Z.a.a.a.n.Z.Z.n.a.,.  e ^ ` o.{ O.,   -X*X*X*X*X*X*X=X*XH       >.p.h.k.k.j.p.a.a.a.a.a.F.P.P.K.a.a.h.",
"a.a.m.M.N.N.A.Y.P.P.m.p.a.Z.Z.Z.Z.Z.4.  r ^ ` o.@.c.,   -X*X*X*X*X*X*X*X*XH       3.z.t.5.7.w.a.a.t.a.a.a.j.V.V.x.N.N.N.",
"r.a.a.b.N.Z.A.T.T.T.h.a.p.B.Z.N.Z.Z.6.  r ^ ` @.@.@.r o %X-X*X*X*X=X*X*X*XH   o + 3.g.e.5.5.w.a.a.a.a.a.a.h.j.j.s.N.N.N.",
"a.t.a.B.Z.N.A.Y.T.Y.m.a.a.B.Z.Z.A.D.4.  r ^ ` o.o.o.o.{ O & %X*X*X*X*X*X=XH   z X.:   ,.7.7.7.a.a.a.a.a.a.a.j.j.j.N.N.N.",
"V.k.j.B.b.j.S.T.T.Y.M.n.B.n.B.m.m.j.,.  e ^ ` o.o.X.o.@.y < &.oX*X*X*X*X=XH   z X.p 1 $.%.i.m.a.a.a.j.s.j.B.M.M.M.j.j.n.",
"z.k.k.h.a.a.B.T.T.Y.N.N.N.m.t.t.a.a.>.  e ^ ` o.o.O.O.o.O.' O . *X*X*X*X=XH   z O.@.O.$ + q.Z.t.a.a.j.j.j.M.N.N.M.j.j.j.",
"z.k.S.h.p.p.V.T.T.T.Z.M.N.n.h.t.a.a.>.  e ^ ) [ @.O.@.o.@.` O . *X*X*X*X=XH   z O.o.O.# + e.B.a.p.p.j.j.j.n.N.N.M.j.j.j.",
"L.J.L.V.n.a.B.K.K.P.n.N.n.B.t.t.m.s.,.  e ^ ^ ^ [ o.O.O.O.' O . =X*X*X*X*XH   z o.o.+.# + e.N.s.n.s.S.S.G.N.N.N.n.a.l.a.",
"T.R.P.H.Z.Z.Z.a.t.t.t.t.t.t.B.t.a.N.d.n V t x ^ ) ` @.o.@.' O . *X*X*X*X*XH   z X.o.o.# + 6.N.Z.Z.Z.T.T.T.Z.N.N.b.a.a.a.",
"T.T.T.H.Z.Z.M.a.m.t.t.a.h.t.t.t.s.N.N.N.v   t ^ ( ^ ` @.O.' O . *X*X*X*X*XH   z o.o.@.# @ u.N.Z.Z.A.Y.Y.T.Z.N.N.M.a.a.a.",
"T.T.T.F.Z.Z.C.p.h.a.a.t.t.t.t.B.s.N.N.N.b   $ y e e u u u a P I *X*X*X*X*XH   : p u i v M d.N.A.Z.A.T.R.Y.A.N.N.n.a.a.a.",
"a.p.a.n.N.A.C.z.S.V.a.a.a.n.N.N.b.a.u.t.b                 & %X*X*X*X*X*X*XH           l.T.Y.K.j.j.j.A.Z.Z.M.N.N.M.j.j.l.",
"a.a.a.B.Z.Z.A.z.k.k.a.a.a.M.N.N.b.a.,.> d P P P !.!.!.!.!.!.|.|.$X$X$X$X$X[.!.9   m >.G.T.T.K.j.h.j.N.Z.Z.N.N.N.M.j.j.j.",
"a.a.a.Z.Z.Z.Z.z.k.z.h.a.a.n.N.N.n.a.>.  0 #X@X+X X}.].].].].].].].].].].}.}.}.Z   >.p.F.R.T.K.j.j.B.Z.Z.Z.N.N.N.M.j.j.j.",
"a.a.a.i.r.e.B.K.P.K.B.b.b.B.m.m.C.K.0.  7 (.`. X}.}.].].2 & & & Q._.}.].].].}.Z   0.K.G.S.C.C.N.B.N.Z.Z.Z.n.B.B.a.e.w.e.",
"a.a.p.e.5.5.p.T.T.Y.N.N.N.m.h.a.C.T.f.  7 W._.].].].[.'.* @ @ * G /.[.[.].].].Z   f.R.B.p.a.n.N.N.N.A.Z.Z.B.j.j.a.5.5.5.",
"a.a.p.9.5.5.a.T.T.T.N.N.N.m.a.a.x.T.f.  7 Q._.].].].Z & >.1.,.,.. 7 Q.).].].].Z   f.R.C.p.a.s.N.N.N.Z.Z.Z.j.j.j.a.5.5.5.",
"a.a.a.t.w.e.a.K.F.F.Z.C.C.n.a.B.C.g.3.% C W._.].].].6   y.s.x.s.  3 Q.).].}.].A 3 3.l.j.a.p.s.N.N.N.A.F.H.n.a.l.u.5.w.5.",
"a.a.a.p.a.a.a.a.a.a.k.k.k.Z.N.M.u.  8 G W.W._.].].].6   d.N.T.J.  8 W.).].].}.].[.6 X q.p.t.s.N.Z.A.Y.T.T.j.e.w.t.a.a.a.",
"a.a.a.a.a.a.a.a.a.h.k.k.z.C.N.N.u.  % W.W.W.).{.].].6   d.A.T.J.  8 W./.{.{.}.}.].2   0.p.p.b.Z.Z.A.T.T.T.h.e.e.t.a.a.a.",
"a.s.a.a.a.a.a.a.p.h.V.k.z.C.N.N.u.  % W.W.W.W.W.{.].6   i.M.I.J.  8 W.(.W.`.].}.].2   4.t.a.a.Z.Z.A.Y.T.Y.s.e.e.t.p.t.u.",
"N.N.M.n.j.j.h.a.a.a.h.a.a.K.T.Y.g.  % F W.W.W.W.D A f g 5.7.s.l.f q C S W.).^.{.].2   ,.5.7.t.z.k.S.Z.Z.Z.m.p.a.t.5.5.w.",
"N.N.N.n.j.j.h.a.a.a.a.p.a.K.R.T.g.o % W.F W.W.W.4   *.7.5.6.s.j.C.;.  4 W.W.W.^.].2   <.5.5.t.z.k.z.N.N.N.s.a.a.t.5.5.5.",
"N.N.N.n.j.j.a.a.a.a.p.p.p.K.T.R.g.  % F W.W.W.F 4   $.5.5.9.s.j.j.;.  4 W.W.W.).`.&   <.5.5.e.z.z.k.N.N.N.m.a.a.t.5.7.5.",
"N.N.N.F.K.K.G.j.j.j.a.s.a.j.S.V.0.o % F W.W.W.W.5   *.a.j.a.C.B.N.-.  4 W.W.W.W.F %   <.5.5.e.h.h.j.N.N.N.s.a.a.p.t.e.t.",
"N.N.N.E.T.T.K.z.z.k.a.a.a.p.p.a.1.  % R R R R R 5   ;.S.z.x.Z.Z.Z.:.  = R R R R R %   <.5.5.w.a.a.a.N.N.N.m.a.p.a.a.a.a.",
"N.N.N.Y.T.R.I.z.z.z.a.a.a.a.l.p.1.  O Y Y Y Y Y *   ;.z.z.z.Z.Z.Z.:.  = Y Y Y Y Y X   <.5.5.w.a.a.a.n.N.N.s.a.a.a.p.a.a.",
"N.M.N.Z.D.Z.C.C.C.C.a.a.a.a.4.g < q q Y Y T Y Y *   -.S.S.V.B.Z.C.:.  * Y Y Y Y Y q q < < 5.i.j.j.j.Z.A.A.s.a.p.a.j.j.a.",
"N.N.N.8.5.5.u.N.N.M.a.p.a.a.1.+ X U U Y U U U U *   :.Z.Z.Z.j.j.j.-.  * U U U U U U U X + 6.Z.z.S.S.T.R.T.S.a.a.j.z.z.S.",
"N.N.N.r.5.5.8.M.N.N.a.a.a.a.1.+   X X X X X X X     :.Z.Z.A.j.j.j.-.    X X X X X X X   + 6.S.z.z.z.T.T.T.C.p.a.j.z.z.z.",
"N.N.N.8.5.5.8.N.N.N.s.a.a.a.1.+                     :.Z.N.Z.j.j.j.-.                    + 6.V.z.z.G.U.T.T.S.a.a.h.z.z.z."
};
