/* XPM */
static char *_6858_d0459f4dd31fda00b6d5ecd49ac9732a39f29f7c1264a544f80fe479ae13d0ba[] = {
/* columns rows colors chars-per-pixel */
"60 60 205 2 ",
"   c #010101",
".  c #070904",
"X  c #0C0905",
"o  c #030509",
"O  c #090909",
"+  c #0A0606",
"@  c #140D06",
"#  c #150E08",
"$  c #1F1106",
"%  c #1B140B",
"&  c #0A0A15",
"*  c #021212",
"=  c #01121B",
"-  c #091418",
";  c #22150B",
":  c #2B1A0F",
">  c #26190E",
",  c #311D11",
"<  c #16220E",
"1  c #19230F",
"2  c #1B2413",
"3  c #1C2817",
"4  c #3E220B",
"5  c #222D19",
"6  c #28251C",
"7  c #362215",
"8  c #3B2214",
"9  c #3D271A",
"0  c #26351A",
"q  c #031623",
"w  c #121329",
"e  c #172927",
"r  c #042438",
"t  c #143737",
"y  c #0B2D2C",
"u  c #2A2B2A",
"i  c #20272D",
"p  c #35332A",
"a  c #353634",
"s  c #343A36",
"d  c #2E2B2F",
"f  c #4C290D",
"g  c #432616",
"h  c #492C1C",
"j  c #563418",
"k  c #532E11",
"l  c #603C1C",
"z  c #663C24",
"x  c #364C26",
"c  c #394D28",
"v  c #384C27",
"b  c #3B5326",
"n  c #28483B",
"m  c #64401E",
"M  c #6D431D",
"N  c #794E24",
"B  c #764923",
"V  c #7E5127",
"C  c #644020",
"Z  c #4D7234",
"A  c #55793B",
"S  c #58793B",
"D  c #4C712E",
"F  c #495128",
"G  c #22224C",
"H  c #2F2F6B",
"J  c #36377C",
"K  c #38387D",
"L  c #343677",
"P  c #2A3772",
"I  c #052F48",
"U  c #094D4C",
"Y  c #074166",
"T  c #1F7F7E",
"R  c #1B7676",
"E  c #434343",
"W  c #494949",
"Q  c #494848",
"!  c #44455A",
"~  c #864C27",
"^  c #874D28",
"/  c #85542B",
"(  c #86552B",
")  c #804D30",
"_  c #905B31",
"`  c #94532D",
"'  c #A45C34",
"]  c #99613A",
"[  c #A9663C",
"{  c #A9683D",
"}  c #B2683D",
"|  c #B0653D",
" . c #B16B42",
".. c #B86D43",
"X. c #BD7046",
"o. c #BE734A",
"O. c #B57A4E",
"+. c #B46E5B",
"@. c #B57754",
"#. c #A7694D",
"$. c #8E5972",
"%. c #95647A",
"&. c #A56563",
"*. c #C4764A",
"=. c #C7784C",
"-. c #C9794E",
";. c #C47548",
":. c #C57651",
">. c #5E823E",
",. c #60863E",
"<. c #13817E",
"1. c #27837F",
"2. c #618541",
"3. c #67894B",
"4. c #669D42",
"5. c #6E9B4B",
"6. c #6B954A",
"7. c #739951",
"8. c #73AE4A",
"9. c #78A64D",
"0. c #75B14C",
"q. c #79B24E",
"w. c #7FB84F",
"e. c #74A451",
"r. c #7BAC54",
"t. c #7CA15C",
"y. c #7FAF5A",
"u. c #77B351",
"i. c #7BB354",
"p. c #7EB952",
"a. c #7EB558",
"s. c #82AE5D",
"d. c #82B654",
"f. c #81B954",
"g. c #82B75A",
"h. c #83B95B",
"j. c #88BE5D",
"k. c #89BC59",
"l. c #86BA60",
"z. c #8BBC62",
"x. c #8FBE6A",
"c. c #89B263",
"v. c #91BE6B",
"b. c #91BF64",
"n. c #CB8259",
"m. c #D39472",
"M. c #CD8D6D",
"N. c #89C256",
"B. c #8DC45C",
"V. c #87C057",
"C. c #91C65C",
"Z. c #92CA5C",
"A. c #8EC362",
"S. c #8FC466",
"D. c #92C563",
"F. c #94CC61",
"G. c #99CE65",
"H. c #93C36B",
"J. c #96C96A",
"K. c #9ACC6D",
"L. c #99C56E",
"P. c #9CD06C",
"I. c #99C671",
"U. c #9CCD71",
"Y. c #97C772",
"T. c #9FD173",
"R. c #A0CE74",
"E. c #A3D376",
"W. c #A5D579",
"Q. c #A8D77B",
"!. c #363A82",
"~. c #383880",
"^. c #0A5F95",
"/. c #1D599A",
"(. c #095A8E",
"). c #27498A",
"_. c #264D91",
"`. c #245396",
"'. c #0A649B",
"]. c #10698B",
"[. c #0B6AA5",
"{. c #0B6EAC",
"}. c #076DAB",
"|. c #1366A6",
" X c #106AA9",
".X c #0C71AD",
"XX c #0D7AAF",
"oX c #0E73A7",
"OX c #1278A0",
"+X c #6C4A8F",
"@X c #18898A",
"#X c #119C99",
"$X c #318681",
"%X c #1CA19C",
"&X c #15AAA7",
"*X c #15B2AF",
"=X c #16BFBC",
"-X c #17BAB7",
";X c #17C0BD",
":X c #C29A9B",
">X c #DEBCB0",
",X c #DAA78A",
"<X c #E7C5B3",
"1X c #C0B1CE",
"2X c #F8F3F4",
/* pixels */
"Z.Z.Z.j.h.h.j.F.F.F.E.W.W.W.W.W.J.8.8.8.E.Q.E.L.v.v.z.j.h.j.D.F.F.p.0.8.p.F.F.F.h.h.p.h.h.h.j.Z.Z.Z.j.h.h.h.h.h.V.Z.Z.Z.",
"Z.Z.Z.j.h.h.j.F.G.Z.E.W.W.W.W.W.J.0.8.8.Q.E.W.K.v.v.z.h.h.h.Z.F.F.f.0.8.p.F.F.F.h.h.h.h.h.h.j.Z.C.Z.h.h.h.g.h.h.V.F.Z.Z.",
"Z.Z.Z.j.h.h.V.F.F.G.W.W.W.W.W.W.J.8.8.8.E.W.E.L.v.v.z.h.h.h.F.F.Z.p.8.8.p.F.F.F.a.h.a.h.h.h.j.Z.Z.Z.j.h.h.h.h.h.V.Z.Z.Z.",
"Z.Z.Z.V.l.z.V.F.F.F.E.W.W.P.G.G.A.a.a.i.P.P.P.K.R.R.L.h.a.h.F.F.F.N.V.V.N.Z.Z.Z.h.a.h.h.h.h.V.E.T.P.h.h.h.V.N.B.N.Z.Z.Z.",
"Z.Z.Z.C.z.c.A.Z.Z.F.E.W.W.G.Z.Z.B.a.h.h.G.F.G.E.W.W.K.h.h.V.F.F.Z.Z.Z.Z.Z.Z.Z.Z.h.h.h.h.h.a.S.E.W.E.j.h.h.B.Z.Z.Z.Z.Z.Z.",
"Z.Z.Z.z.z.z.B.Z.Z.Z.E.W.Q.G.Z.Z.B.h.h.h.F.Z.F.T.W.W.K.h.h.l.F.F.G.Z.Z.Z.Z.Z.Z.Z.h.h.h.h.h.h.H.W.W.T.j.h.h.B.Z.Z.Z.Z.Z.Z.",
"Z.Z.Z.A.z.z.z.B.B.C.K.K.K.G.G.G.F.z.l.z.A.A.C.J.U.U.H.l.j.z.S.A.D.C.Z.N.N.Z.B.B.V.j.j.j.V.V.J.P.T.P.N.l.V.B.Z.Z.F.N.N.N.",
"Z.Z.Z.z.z.z.z.h.h.h.g.h.h.U.W.W.T.x.x.v.h.h.h.h.h.h.j.l.z.z.z.l.z.h.h.h.g.g.h.h.Z.Z.Z.Z.F.F.F.Z.Z.Z.Z.Z.Z.Z.Z.Z.C.h.h.h.",
"Z.Z.Z.j.z.z.z.h.h.h.h.h.h.U.W.W.R.v.v.v.h.h.h.h.h.h.h.z.z.z.z.z.z.h.h.h.h.h.h.h.Z.Z.Z.Z.G.F.Z.Z.Z.Z.Z.Z.Z.Z.Z.Z.C.h.h.h.",
"C.Z.N.b.z.z.h.g.g.h.h.z.j.U.W.W.R.v.v.v.6.x v v x x v c c c c v v v v v x v v v b b b N.F.F.F.Z.G.Z.F.Z.Z.Z.Z.Z.B.h.h.h.",
"0.0.q.d.h.h.l.h.h.l.E.E.E.E.W.W.R.v.x.v.A                                             g.h.h.S.E.W.W.Q.E.E.G.Z.Z.B.g.h.h.",
"8.8.8.d.h.g.h.h.h.h.W.W.W.W.Q.E.R.H.v.v.A   # 4 4 4 j m m C m l m m m l m m l m l @   r.h.h.S.W.W.Q.W.W.Q.F.Z.Z.B.h.h.h.",
"0.8.8.a.g.h.h.h.g.z.E.E.W.W.W.W.R.v.v.v.A   $ f f f M N N N N N N N N N N N N N B @   r.h.h.S.E.W.W.W.W.W.G.Z.Z.B.h.h.h.",
"N.N.N.j.z.z.h.u.u.i.H.L.H.J.G.G.D.j.l.h.>.  $ f f f M N N N N N N N N N N N N N B @   z.U.U.L.A.b.b.Y.I.L.H.z.b.B.B.D.B.",
"Z.Z.Z.A.v.v.l.8.8.q.l.z.z.C.Z.Z.N.g.h.g.>.  $ f f f M N ( ( ( ( ( ( ( ( / / / V B @   v.W.W.U.d.g.g.b.v.v.z.z.z.V.Z.Z.Z.",
"Z.Z.Z.D.v.v.j.8.8.q.l.h.z.C.Z.Z.B.g.g.g.>.  $ f f f M N X.o.o.o.o.o.o.o.*.X.o._ N @   v.W.W.K.g.g.h.x.v.x.z.z.z.A.Z.Z.Z.",
"Z.C.Z.Z.D.D.C.f.w.p.j.A.A.B.B.B.N.a.d.a.S   $ f k k B ( *.=.:.=.=.=.:.=.-.-.=.] V #   z.K.K.H.h.a.l.S.S.A.A.A.A.B.B.B.B.",
"Z.Z.Z.Z.Z.Z.C.Z.Z.Z.Z.Z.Z.j.h.h.h.u.u.i.A   $ f ^ ' ..-.=.=.=.-.=.=.-.-.=.=.-.-.o.;   r.h.h.h.h.l.a.a.a.a.A.F.F.D.h.h.h.",
"C.Z.Z.Z.C.Z.Z.Z.Z.Z.Z.Z.Z.j.h.h.a.r.i.i.A   $ f ^ ' X.=.m.m.+.+.=.=.:.:.+.:.m.M.X.;   r.h.h.h.h.h.h.A.a.a.D.F.F.B.h.h.h.",
"Z.Z.Z.Z.Z.Z.Z.Z.Z.Z.Z.Z.Z.j.h.h.a.u.i.i.A   $ f ^ ' X.-.2X2X+X+X:.=.:.&.+X1X2X,Xo.; o r.h.h.h.h.h.h.a.V.a.C.F.F.B.h.h.h.",
"W.E.W.G.Z.Z.G.W.W.E.z.z.l.h.h.h.h.h.h.h.Z   $ f ~ ' X.=.<X>X%.$.......#.$.:X<Xm.o.%   L.W.W.E.Z.F.F.F.Z.Z.F.F.F.G.Z.F.G.",
"W.Q.Q.G.Z.Z.G.Q.W.E.z.z.A.l.h.h.h.h.h.h.D   $ f ~ ' X.=.;.=.=.;.' ' ' | -.-.-.:.o.;   H.W.W.T.F.F.F.Z.Z.Z.F.F.F.Z.F.Z.F.",
"W.E.E.G.Z.Z.G.E.W.E.z.z.A.h.h.a.h.h.h.a.D   : B ` ' X.=.=.;.[ [  . .} } { O.=.-.o.; o v.W.W.E.F.F.F.Z.Z.Z.F.F.F.F.F.F.F.",
"G.P.G.V.f.g.N.G.G.G.D.C.B.B.B.Z.V.h.h.h.2.  g ' ' ' X.=.=.o./ V =.=.=.{ N { =.=.o.;   c.H.H.D.Z.F.Z.Z.F.F.V.A.h.A.V.A.V.",
"Z.Z.Z.p.i.u.f.Z.Z.Z.Z.Z.Z.Z.Z.Z.A.h.h.h.3.  g ' ' ' X.=.=.*.V V _ _ _ ( V { =.=.o.;   g.z.z.D.Z.Z.Z.F.F.F.V.a.A.h.h.h.h.",
"Z.Z.Z.p.u.i.f.Z.Z.Z.Z.Z.Z.Z.Z.Z.B.h.h.h.3.  g ' ' ' X.-.=.o.V N N N N N N { -.=.o.;   s.j.j.z.Z.Z.Z.F.F.F.B.a.a.h.h.h.h.",
"C.Z.Z.V.p.V.V.Z.Z.Z.B.B.N.Z.Z.Z.C.h.e.0 5   @ : : : 7 7 7 7 > ; ; ; ; ; ; 7 7 7 7 +   s.z.b.z.B.N.B.D.A.A.S.S.S.z.h.h.h.",
"Z.Z.Z.F.F.F.F.Z.Z.Z.h.h.h.A.F.F.D.h.5..                                               s.v.v.x.h.h.h.a.V.a.U.Q.Q.U.h.h.h.",
"Z.Z.Z.Z.F.F.F.Z.Z.Z.h.l.h.B.F.F.A.a.5.O y 1.1.T <.1.%X*X*X*X*X*X*X*X*X*X*XU   A r.r.r.l.v.v.z.h.h.h.h.h.V.U.Q.E.U.h.h.h.",
"Z.Z.Z.Z.F.F.Z.F.F.S.V.a.h.D.F.F.C.V.5.. y 1.$X$X$X$X%X&X;X;X;X;X=X=X;X=X=XU   A e.a.a.z.x.x.z.h.h.h.a.h.a.K.T.T.K.h.h.h.",
"h.h.j.B.Z.Z.G.W.Q.T.A.a.h.A.F.Z.F.F.i.. 7 ] #.O.O.O.p * *X=X;X;X=X=X=X=X=XU   X % t.x.a.0.0.u.h.h.h.h.h.h.z.H.x.b.C.C.Z.",
"h.h.g.Z.Z.Z.G.W.T.T.V.V.a.D.F.Z.F.F.r.. 4 ' } =.=.-.8   *X=X=X;X=X=X=X=X=XU     o t.x.a.8.0.u.h.h.h.h.h.h.l.z.l.j.Z.Z.Z.",
"h.h.h.B.F.Z.G.W.W.E.l.h.h.D.F.F.F.F.r.. 8 ' } =.=.=.8   *X;X;X;X;X;X;X;X=XU     . t.v.a.8.0.q.h.h.h.g.g.h.h.z.l.z.Z.Z.Z.",
"z.S.z.j.V.j.H.W.E.E.C.B.C.V.A.V.V.j.e.. 8 ' | =.;.=.z 7 <.@X-X;X;X;X=X=X=XU   ; 9 S 3.h.N.N.j.h.h.h.j.z.z.B.D.C.C.z.j.A.",
"v.v.v.l.h.g.S.W.E.E.F.Z.Z.A.a.a.h.h.5.. 8 ' | =.=.*.=.*.@ * *X;X=X=X=X=X=XU o ) X.; o j.F.F.B.h.h.h.z.z.z.C.Z.Z.C.z.z.z.",
"v.v.H.l.h.h.S.E.W.W.F.Z.Z.A.a.V.h.h.5.. 8 ' | =.=.=.=.*.h 0 R <.=X=X=X=X=XU   ) o.j 9 S 5.B.D.h.h.h.z.z.z.C.Z.Z.C.z.z.z.",
"Y.Y.Y.S.V.l.S.K.U.P.B.Z.V.B.a.a.k.k.9.. 4 ' | =.=.=.;.;.=.} @ * =X=X=X=X=XU   V =.=.;.+ 2 d.Z.k.B.j.L.H.H.Z.Z.Z.C.l.j.l.",
"W.W.E.P.F.F.D.h.a.h.a.a.a.a.a.A.j.Z.9.. 8 ' | } X.;.;.;.n.} @ * =X=X=X=X=XU o ) ;.=.;.X 2 f.Z.Z.F.F.E.W.W.F.Z.C.N.g.h.h.",
"W.W.W.P.F.Z.D.h.V.a.a.h.a.h.a.A.N.Z.9.  8 ' ' ' } n.;.;.;.} % * -X=X=X=X=XU   V =.;.;.@ 2 d.Z.G.F.G.E.W.Q.F.Z.Z.B.h.h.h.",
"W.W.W.K.F.G.C.h.l.h.h.a.h.a.h.a.j.Z.k.S F g z ' } } } n.;.} % * =X=X=X=X=XU   V =.=.;.X 2 d.Z.G.F.G.E.W.W.G.Z.Z.B.h.h.h.",
"h.h.h.B.F.F.F.v.S.S.h.h.h.B.C.Z.B.g.g.g.Z   g ' ' ' ..*.o. .# * =X=X=X=X=XU   V ;.;.*.X 5 v.R.z.z.A.F.F.F.Z.Z.Z.C.z.z.z.",
"h.h.h.D.F.Z.J.v.x.v.h.h.h.B.Z.Z.N.g.d.h.Z   X > $ ; > > > u @X#X=X=X=X=X=XU   # : : : 7.c.W.U.z.l.l.F.F.F.Z.Z.Z.C.z.z.z.",
"h.h.h.Z.F.F.J.v.v.v.l.h.h.A.Z.Z.C.g.g.d.Z                 * &X;X=X=X=X=X=XU           b.E.W.U.z.A.z.F.F.F.Z.Z.Z.C.z.z.z.",
"h.h.g.g.f.p.V.T.T.Y.A.Z.Z.V.V.V.A.U.s.2 t R R R ].^.^.'.'.'..XXXXXXXXXXXXX[.^.r . 7.l.H.H.S.H.Z.D.C.F.F.F.B.A.A.j.i.i.u.",
"h.h.h.q.8.8.h.W.W.E.F.Z.Z.j.h.a.b.v.s.# t @X@X@XOX{.{..X[.'.'.'.[.{..X{.{.{.{.I - t.L.v.g.h.N.Z.Z.Z.F.F.G.z.z.z.h.8.8.8.",
"h.h.h.q.8.8.h.W.W.E.Z.Z.Z.V.h.h.g.6 w H ).oXoXoX{.{.{.}.q = = q !._..X{.{.{.{.[.(.e 2 h.h.h.j.Z.Z.Z.F.F.Z.H.z.z.g.8.8.8.",
"h.h.h.a.u.r.h.U.U.U.D.F.F.V.V.A.h.  & J _. X{.{.{.{.'.(.2 < 2 6 H !.|.|.|.{.{.{.[.=   h.a.h.k.Z.Z.Z.G.P.P.B.h.h.g.8.8.u.",
"h.h.h.h.h.h.h.h.h.h.x.x.v.A.Z.Z.j.  & K _.{.{.{.{..Xr o d.C.U.v.  w !.!.!./.{.{.[.=   g.h.h.V.F.G.G.E.W.W.z.r.u.a.g.g.g.",
"h.h.h.h.h.h.h.h.h.l.x.x.v.D.C.9.9.& w L ).|.|.{.'.(.t 1 k.Z.W.I.3 e H H ~.`.|.{.[.r q 6.5.a.k.G.F.G.W.W.W.A.u.u.a.g.g.g.",
"h.h.h.h.h.h.h.h.g.l.x.x.b.J.d.2 o K ~.~.~.~._.{.r   6.Z.C.Z.E.R.W.6.  w !.~.~./.{.{.}.o 2 e.h.F.F.F.E.W.E.V.i.a.a.g.g.g.",
"Z.Z.N.B.z.z.l.h.h.h.h.h.h.U.v.5 o K ~.~.~.~.P Y n x 6.0.0.q.b.z.x.5.v s G H ~._./.{.}.o < 4.a.H.H.H.F.F.F.k.g.h.i.8.0.0.",
"Z.Z.Z.D.z.z.h.h.h.h.h.h.h.U.v.5 + K ~.~.~.~.G o S g.p.0.8.0.j.z.z.h.g.A   G ~.~.!.|.{.o < 4.a.x.x.x.C.C.Z.j.h.h.a.0.8.8.",
"Z.Z.Z.A.z.z.z.h.h.h.h.h.h.U.H.3 o J ~.~.~.~.G   A h.a.0.8.0.h.z.z.h.a.A   G ~.~.~._./.o 1 4.a.v.x.x.Z.Z.Z.V.h.h.a.0.0.8.",
"Z.Z.Z.G.U.U.J.z.z.z.h.h.h.z.s.2 o ~.~.~.~.~.G   A h.h.l.j.z.D.D.D.D.B.>.  G ~.K ~.K ~.+ < 4.u.l.l.j.Z.Z.Z.V.h.h.a.a.i.a.",
"Z.Z.Z.T.W.W.U.v.v.x.h.h.h.h.e.1 . ! ! ! ! ! d o A h.z.x.v.v.F.F.F.F.Z.2.o d ! ! ! ! ! o < 4.u.h.h.h.B.Z.Z.j.h.g.h.h.h.h.",
"Z.Z.Z.E.Q.W.R.v.v.x.h.h.g.h.e.2 o W W Q W W u   A h.l.v.v.v.F.F.F.F.G.>.  u W W W W Q . < 4.q.g.h.h.Z.Z.Z.j.l.h.h.g.h.h.",
"Z.Z.Z.D.H.F.J.D.D.A.h.h.h.b 0 a a W W W W W u   S V.S.H.S.S.F.D.D.Z.F.,.  u W W W W W a a 5 c j.z.l.F.G.F.B.h.h.h.z.h.z.",
"Z.Z.Z.w.8.8.d.Z.C.Z.h.h.f.3 . a E E E E E E u   2.G.F.Z.F.F.z.z.A.B.F.>.  u E E E E E E a + 5 x.H.L.E.Q.E.H.h.h.z.v.v.v.",
"Z.Z.Z.p.8.8.w.Z.C.Z.h.h.h.3   . O O + O O O .   ,.F.G.G.F.F.z.z.S.C.Z.>.  . O O O O + O . o 5 v.v.v.W.W.W.H.h.h.l.v.v.v.",
"Z.Z.Z.w.8.8.w.Z.Z.Z.k.h.h.3                     ,.F.F.Z.F.F.z.z.z.Z.Z.>.                    5 v.v.v.W.W.W.H.h.h.z.v.v.v."
};
