/* XPM */
static char *_094_81f1bebdf5c1baebddd7c8068a30f0f7310a048295e60973151a0ec276aa7aa8[] = {
/* columns rows colors chars-per-pixel */
"60 60 205 2 ",
"   c #000100",
".  c #0A0905",
"X  c #09090A",
"o  c #040C0C",
"O  c #150D07",
"+  c #160F0A",
"@  c #0D1309",
"#  c #0C1206",
"$  c #1A1007",
"%  c #1B110A",
"&  c #151D0E",
"*  c #12150B",
"=  c #080811",
"-  c #060E17",
";  c #021214",
":  c #03111A",
">  c #191F11",
",  c #231306",
"<  c #22150B",
"1  c #2B190F",
"2  c #28170F",
"3  c #2B1911",
"4  c #351E12",
"5  c #192212",
"6  c #1C2619",
"7  c #19220F",
"8  c #3E220C",
"9  c #362315",
"0  c #3B2517",
"q  c #25341C",
"w  c #26261C",
"e  c #041624",
"r  c #13132A",
"t  c #1C272A",
"y  c #052539",
"u  c #153935",
"i  c #0D3534",
"p  c #383837",
"a  c #2B2A2A",
"s  c #4C290D",
"d  c #442616",
"f  c #492B19",
"g  c #563314",
"h  c #5D3824",
"j  c #6E3F23",
"k  c #364C26",
"l  c #394D28",
"z  c #364C28",
"x  c #3C5325",
"c  c #274939",
"v  c #64401E",
"b  c #6E441E",
"n  c #774C23",
"m  c #794E24",
"M  c #74472D",
"N  c #754528",
"B  c #7F5228",
"V  c #45672C",
"C  c #4D6C35",
"Z  c #466931",
"A  c #5B7C3E",
"S  c #557537",
"D  c #506F34",
"F  c #484E28",
"G  c #1F1E46",
"H  c #201F47",
"J  c #0B384A",
"K  c #202046",
"L  c #23204B",
"P  c #2E2F69",
"I  c #31316D",
"U  c #37377E",
"Y  c #38387E",
"T  c #293973",
"R  c #0A5654",
"E  c #0B514F",
"W  c #074166",
"Q  c #1F7F7E",
"!  c #1A7776",
"~  c #494949",
"^  c #434343",
"/  c #44455A",
"(  c #617E47",
")  c #884C28",
"_  c #84542B",
"`  c #835329",
"'  c #915B31",
"]  c #94532D",
"[  c #A45C34",
"{  c #96603C",
"}  c #A8663C",
"|  c #B3693F",
" . c #B36B42",
".. c #B86D43",
"X. c #BC7046",
"o. c #BF744A",
"O. c #B77046",
"+. c #B57853",
"@. c #AE6B4F",
"#. c #8E5972",
"$. c #95647A",
"%. c #A86761",
"&. c #C4764B",
"*. c #C6784C",
"=. c #C8794E",
"-. c #C47548",
";. c #C17551",
":. c #59803F",
">. c #658B3E",
",. c #60943F",
"<. c #2E857F",
"1. c #598041",
"2. c #668C44",
"3. c #668A47",
"4. c #629541",
"5. c #6B944A",
"6. c #6C9849",
"7. c #719C4E",
"8. c #749957",
"9. c #73A14D",
"0. c #72AE4A",
"q. c #7DAC4E",
"w. c #75B04C",
"e. c #78B24D",
"r. c #7FB84F",
"t. c #7BAB53",
"y. c #79A556",
"u. c #77B351",
"i. c #7CB354",
"p. c #7EB952",
"a. c #7FB558",
"s. c #81AC58",
"d. c #82B556",
"f. c #82B954",
"g. c #81B759",
"h. c #83B95B",
"j. c #88BE5C",
"k. c #8ABF55",
"l. c #8AB465",
"z. c #86BA60",
"x. c #8BBC62",
"c. c #8EBD6A",
"v. c #91BE6B",
"b. c #90BF61",
"n. c #86AF63",
"m. c #CC845C",
"M. c #CF906F",
"N. c #89C256",
"B. c #8DC45C",
"V. c #8BC457",
"C. c #90C65D",
"Z. c #92CA5C",
"A. c #8EC362",
"S. c #8FC861",
"D. c #91C463",
"F. c #94CC61",
"G. c #99CE65",
"H. c #93C26B",
"J. c #96C96A",
"K. c #9ACC6D",
"L. c #99C56E",
"P. c #9CD06C",
"I. c #99C671",
"U. c #9CCC71",
"Y. c #97C772",
"T. c #9FD173",
"R. c #A0CE74",
"E. c #A3D476",
"W. c #A5D579",
"Q. c #A8D77B",
"!. c #363A82",
"~. c #383880",
"^. c #0A5E94",
"/. c #175997",
"(. c #274E92",
"). c #235396",
"_. c #264C89",
"`. c #0A649B",
"'. c #0F678B",
"]. c #0B6EAC",
"[. c #0B6CA1",
"{. c #1366A6",
"}. c #106AA9",
"|. c #0C72AD",
" X c #0C7AAF",
".X c #0D73A7",
"XX c #1176A4",
"oX c #6C4A90",
"OX c #178889",
"+X c #139B99",
"@X c #318681",
"#X c #1BA29E",
"$X c #15AAA8",
"%X c #16B2AF",
"&X c #16BFBC",
"*X c #18BEBC",
"=X c #16B6B2",
"-X c #17C0BD",
";X c #BF9597",
":X c #DEBDAE",
">X c #DEAF95",
",X c #E8C6B3",
"<X c #B9AACB",
"1X c #FCF8F8",
"2X c #EFEAF1",
/* pixels */
"Z.Z.Z.j.g.g.B.F.F.G.E.W.W.W.W.W.J.0.0.0.W.W.W.L.v.v.v.g.j.h.Z.F.F.p.0.w.p.F.F.F.g.g.g.j.h.h.N.F.C.Z.j.g.h.h.h.h.j.C.Z.Z.",
"Z.Z.C.j.g.h.N.F.F.Z.W.W.W.W.W.W.J.w.0.0.W.W.W.L.v.v.x.h.g.j.F.F.F.p.0.0.p.F.F.F.g.g.g.g.h.g.z.Z.Z.Z.h.h.h.g.h.h.N.Z.Z.Z.",
"Z.Z.Z.j.h.z.j.F.F.G.E.W.W.W.W.W.J.0.0.0.W.W.W.L.v.v.x.h.h.h.S.F.Z.p.0.0.p.F.F.F.g.g.g.g.h.h.j.Z.Z.Z.j.h.g.h.h.h.N.Z.Z.Z.",
"Z.Z.Z.B.z.z.N.F.F.F.E.W.W.P.G.G.S.a.i.i.G.P.P.K.R.R.J.h.h.z.Z.F.F.V.N.N.V.Z.Z.F.h.h.g.h.h.g.A.T.P.P.h.h.h.B.V.B.B.Z.Z.Z.",
"C.Z.Z.B.z.l.A.Z.Z.Z.W.W.W.G.Z.Z.B.a.h.h.F.F.G.E.W.W.U.h.h.h.F.F.F.Z.Z.Z.Z.Z.Z.Z.h.h.a.h.h.h.A.Q.Q.T.z.z.h.V.Z.Z.Z.Z.Z.Z.",
"Z.Z.Z.A.x.x.j.Z.Z.C.W.W.W.G.Z.Z.B.h.h.x.F.F.Z.E.W.W.K.g.h.h.F.F.F.Z.Z.Z.Z.Z.Z.Z.h.h.z.a.h.h.A.W.Q.T.z.a.h.B.Z.Z.Z.Z.Z.Z.",
"Z.Z.Z.A.x.x.x.C.B.C.K.U.K.G.G.G.F.z.z.z.D.S.C.J.U.U.H.j.j.x.S.D.D.C.V.V.C.V.V.B.N.N.j.N.A.N.F.T.T.P.B.N.N.C.Z.Z.Z.V.C.V.",
"Z.Z.Z.x.x.x.x.h.h.h.h.h.h.U.W.W.U.v.v.H.g.g.h.g.h.g.x.z.z.x.x.z.x.x.h.h.h.h.h.h.C.Z.Z.F.S.F.F.C.Z.Z.C.Z.Z.C.Z.Z.B.g.h.h.",
"Z.Z.Z.j.x.x.h.h.h.h.h.h.h.U.W.W.U.v.v.v.h.g.g.j.g.j.j.x.x.x.x.x.x.z.h.h.g.h.h.g.Z.Z.Z.Z.F.Z.F.Z.Z.Z.Z.Z.Z.Z.Z.Z.V.h.h.h.",
"Z.Z.V.b.x.x.z.h.h.h.h.j.j.K.W.W.E.v.c.v.2.k k k z k l l z l l l l z k k k z k k x x x h.Z.D.F.F.Z.F.Z.F.Z.Z.Z.Z.B.h.h.h.",
"0.0.e.d.h.h.h.h.h.z.R.E.E.W.W.W.R.v.v.H.D                                             9.h.z.S.E.W.W.W.W.E.G.Z.Z.B.h.h.h.",
"0.0.0.d.h.h.h.h.h.x.E.W.W.W.W.W.E.c.v.H.C   % 8 8 8 g v v v v v v v v v v v v v v O   9.h.h.A.W.Q.W.W.W.W.G.Z.Z.B.h.h.h.",
"e.0.0.i.h.h.h.h.h.j.E.W.W.W.W.W.U.v.v.v.C   , s s s b m m m m m m m m m m m m m n $   9.g.h.A.W.Q.E.W.W.W.G.Z.Z.B.h.h.h.",
"N.N.k.j.c.x.h.u.t.i.D.H.H.J.G.G.J.h.z.z.S   , s s s b m m m m m m m m m m m m m n $   s.U.U.J.H.v.D.Y.I.I.D.D.x.N.B.B.B.",
"Z.Z.Z.D.v.c.h.0.0.w.z.x.x.C.Z.Z.V.g.h.g.S   , s s s b m ` ` ` ` _ _ _ _ ` _ _ B n $   l.W.W.L.h.g.h.x.v.v.c.x.x.A.Z.Z.Z.",
"Z.Z.Z.D.v.v.x.0.0.e.z.x.x.C.Z.Z.V.a.h.h.S   , s s s b m X.o.o.&.o.o.o.o.o.&.&.' m +   n.W.W.K.h.g.d.v.v.v.x.x.x.B.C.Z.Z.",
"Z.Z.Z.D.b.D.C.f.p.p.B.A.A.A.B.B.N.a.a.a.S   , s g g N ` &.=.*.*.*.=.*.=.=.;.=.} ` %   s.K.U.D.h.a.h.x.A.A.A.A.A.A.B.C.V.",
"Z.Z.Z.Z.Z.Z.Z.Z.Z.Z.Z.Z.Z.N.h.h.h.u.t.u.C   , s ) [ X.*.=.=.*.=.*.=.*.=.=.*.=.=.&.1   7.h.h.h.h.z.a.z.h.a.B.F.F.D.h.h.h.",
"Z.Z.Z.Z.C.Z.Z.Z.C.Z.C.Z.Z.j.h.h.h.u.u.i.C   , s ) [ X.*.M.M.+.%.=.*.-.o.@.;.;Xm.&.3   9.g.h.h.h.a.h.h.h.h.S.F.F.V.h.h.g.",
"Z.Z.Z.Z.Z.Z.Z.Z.Z.Z.Z.Z.Z.j.h.a.h.i.i.u.C   , s ) [ X.*.1X2XoXoX*.=.*.%.oX<X1X>X;.3   9.h.h.h.h.h.h.h.h.a.S.F.F.D.h.h.h.",
"W.W.W.G.Z.Z.G.W.W.E.x.x.x.j.h.h.h.h.a.h.V   , s ) [ X.=.,X:X$.#.O.| O.@.#.;X,XM.&.2   l.Q.W.T.F.F.F.S.Z.Z.F.F.F.F.Z.F.G.",
"E.W.W.G.Z.Z.G.W.W.E.x.x.x.h.h.h.h.h.h.h.V   , s ) [ X.*.=.=.=.*.[ [ } } =.=.=.=.&.3   l.W.W.T.F.F.F.Z.Z.Z.F.F.F.Z.F.F.F.",
"W.W.W.G.Z.Z.G.W.W.E.x.x.z.z.N.a.h.h.h.h.V   4 j ] [ X.*.=.-.} } | |  .} } O.=.=.&.3   l.W.Q.T.G.F.F.Z.Z.Z.Z.F.S.F.F.F.F.",
"J.G.G.B.f.g.N.G.G.G.C.C.B.B.S.B.j.h.h.h.A   f [ [ [ X.*.*.X.` ` o.m.o. .n  .=.&.;.3   y.H.H.D.Z.F.Z.F.F.S.A.A.N.A.z.N.N.",
"Z.Z.Z.p.u.u.f.Z.Z.Z.Z.Z.Z.Z.Z.Z.C.h.g.j.(   d } [ [ X.=.*.o.B m ' ' ' _ m } =.=.&.3   y.x.x.A.Z.Z.Z.F.F.F.N.z.a.h.h.h.h.",
"Z.Z.Z.p.u.i.f.Z.Z.Z.Z.Z.Z.Z.Z.Z.C.g.h.g.(   f [ [ [ X.=.*.o.` m m m m n m } =.=.&.1   y.x.j.A.C.Z.Z.F.F.F.N.a.z.h.h.h.h.",
"Z.Z.Z.N.N.h.N.Z.Z.Z.C.B.V.Z.Z.Z.S.g.7.q 5   + 1 3 4 4 9 9 9 < < < < < < > 4 9 9 9 .   y.z.x.A.B.C.V.S.B.S.A.H.S.x.h.h.h.",
"Z.Z.Z.Z.S.F.Z.Z.Z.Z.h.h.a.C.F.F.S.h.6.                                                y.v.v.c.g.h.h.h.h.a.U.W.Q.U.h.h.h.",
"Z.Z.Z.Z.F.F.Z.Z.Z.C.h.h.h.B.F.F.S.h.5.  i <.<.! Q <.$X%X=X%X%X%X%X%X%X%X%XE   S t.y.y.x.c.v.x.j.h.h.h.h.h.U.W.W.U.h.h.h.",
"Z.Z.Z.Z.F.F.F.Z.F.Z.h.h.g.A.F.F.B.h.6.  u <.<.<.<.<.#X$X&X-X&X&X&X&X-X&X&XR   C 9.h.a.z.c.c.x.g.h.h.h.h.h.U.T.T.K.h.h.h.",
"h.h.h.C.F.Z.G.W.W.T.j.h.h.S.F.F.F.F.9.  0 {  .o.+.+.a ; =X&X&X&X*X-X&X&X-XR   X @ 8.H.a.w.w.i.h.h.a.h.h.g.x.A.c.b.Z.C.C.",
"h.h.j.V.Z.Z.G.W.W.T.z.h.g.S.F.Z.F.F.q.  0 } } *.*.-.9   %X*X&X&X&X&X-X&X&XR       8.H.i.0.w.u.h.h.h.h.g.h.z.c.z.j.Z.Z.Z.",
"h.h.h.B.Z.Z.G.W.W.E.j.g.h.S.F.F.F.Z.9.  f [ | *.*.*.8   =X-X-X-X-X-X-X-X-XR       8.v.i.0.0.u.h.h.h.g.g.g.j.x.x.j.Z.Z.Z.",
"A.x.x.x.j.j.H.W.W.E.B.B.B.B.A.j.j.h.6.  d [ | -.*.*.h 9 <.OX=X-X-X-X&X-X-XR   < 0 S 3.f.N.N.j.h.h.h.x.x.x.B.D.C.C.x.x.A.",
"c.c.H.z.h.h.A.W.W.W.Z.Z.C.A.a.a.h.h.5.  d [ | *.*.*.*.*.. ; $X-X&X&X&X-X-XR   M *.2   s.F.F.D.g.h.h.x.x.x.C.Z.Z.C.x.x.x.",
"c.c.H.z.h.h.D.W.E.W.F.Z.Z.B.h.a.h.h.5.. d [  .*.-.*.*.*.0 q <.OX&X-X&X&X-XR   M &.h 0 A 5.B.F.g.g.h.x.x.x.B.Z.Z.C.x.x.x.",
"I.I.Y.S.z.A.A.I.U.K.S.S.V.N.a.z.h.k.5.  d [ | *.*.-.-.-.m.| O o &X&X&X&X&XR   M *.*.*.$ # t.C.N.j.j.D.H.D.Z.Z.Z.C.h.h.j.",
"Q.Q.T.P.F.F.S.h.a.a.a.a.a.a.z.a.j.Z.7.. d [ } | -.-.-.-.-.| # o &X&X-X&X&XR   M -.*.*.% @ q.Z.F.F.G.W.W.W.G.Z.Z.B.h.h.h.",
"W.W.W.P.F.Z.S.h.N.a.a.a.a.a.a.N.j.C.7.. d [ [ [ | -.-.-.m.| # o &X-X-X&X&XR   N *.*.*.% @ s.Z.F.F.G.W.E.W.G.Z.C.B.h.h.h.",
"W.W.W.K.F.F.S.h.a.z.A.a.a.a.A.a.k.Z.k.S F d j [ | | -.m.X.| O o =X-X&X&X&XR   M *.*.-.% @ t.Z.F.F.F.W.W.W.G.Z.Z.B.h.h.h.",
"h.h.h.S.F.F.D.v.H.H.h.h.h.B.F.Z.B.g.g.g.Z   d [ [ [ ..&.o. .+ ; *X&X&X&X&XR   M -.-.&.% * l.K.x.x.x.J.F.F.Z.Z.Z.B.x.x.x.",
"h.h.h.D.F.Z.G.v.c.c.h.h.h.B.Z.Z.V.g.g.g.Z   O 2 < < 2 1 2 w OX+X&X&X&X&X&XR   + 1 1 2 8.n.E.U.x.z.A.Z.Z.F.Z.Z.Z.C.x.x.x.",
"h.h.h.S.F.F.J.c.c.c.z.h.h.B.Z.Z.C.g.h.d.Z                 ; $X&X&X&X&X&X&XR           l.W.W.T.x.x.x.F.F.F.Z.Z.Z.C.x.x.x.",
"h.h.g.f.f.p.B.T.T.U.S.V.B.N.j.N.b.I.s.& u ! ! ! '.^.^.^.`.`. X X X X X X X[.^.J   5.l.D.D.D.D.C.S.C.F.F.F.D.S.A.j.i.e.t.",
"h.h.h.e.0.0.h.W.W.E.Z.Z.C.N.h.h.x.v.8.X J OXOXOXXX].].].`.`.`.`.].].].].].].].J : 8.L.D.h.h.j.Z.Z.Z.Z.F.F.v.x.z.h.0.0.0.",
"h.h.h.e.0.w.h.W.W.W.Z.Z.Z.N.h.a.s.> t I _..X.X.X].|.].].e : : e !.(.].].].].].[.^.t & t.h.h.j.Z.Z.Z.G.F.Z.D.x.x.h.0.0.0.",
"h.h.h.i.u.e.h.I.K.U.F.D.D.B.j.A.s.  - Y (.}.].].].].`.^.6 7 6 3 I T {.{.}.].].].].e   y.g.g.j.Z.Z.Z.G.P.P.A.h.h.g.0.0.u.",
"h.h.h.h.h.h.h.h.h.h.c.c.H.S.Z.C.d.  r Y (.|.|.].].].y   g.A.T.v.  r !.!.!.).|.|.].e   y.g.g.j.Z.F.G.W.W.W.x.u.t.a.h.a.h.",
"h.h.h.h.h.h.h.h.h.z.c.c.v.D.V.q.5.= r Y (.{.}.].`.^.i 7 V.Z.W.R.6 t P I !.).{.}.].y e 3.6.i.N.F.F.G.W.W.W.A.u.u.i.h.h.h.",
"h.h.h.j.h.h.h.h.h.z.c.c.H.D.s.@ = ~.~.~.Y ~.(.].y   5.V.Z.Z.R.E.W.7.  r Y ~.~./.|.].].: @ 6.j.J.F.F.E.W.E.j.u.i.i.i.h.h.",
"Z.C.Z.j.x.x.z.h.h.h.h.h.h.I.z.& = ~.~.~.Y !.T W c k 6.e.q.e.j.b.x.8.k p L P ~.(./.}.].; @ 4.a.c.H.H.F.F.Z.j.z.h.i.t.u.u.",
"Z.Z.Z.B.x.x.z.h.h.h.h.h.g.U.l.* = Y ~.Y ~.!.H   :.g.a.0.0.w.j.x.x.h.g.:.  K ~.Y !.{.].- @ 4.i.c.c.c.C.Z.Z.j.h.h.d.0.0.0.",
"Z.Z.Z.A.x.x.h.h.h.h.h.h.h.U.l.* = ~.~.~.~.~.K   :.g.p.w.0.0.j.x.z.h.a.A   H ~.~.~.(.).- @ 4.a.v.v.v.Z.Z.Z.j.g.h.a.0.0.0.",
"Z.Z.Z.G.U.U.L.x.x.x.h.h.h.A.t.* = ~.~.!.~.~.H   1.h.h.z.x.j.D.D.D.S.S.2.  H ~.Y ~.U !.= @ 4.u.x.z.x.Z.Z.Z.j.h.h.h.u.i.i.",
"Z.Z.Z.T.W.W.R.v.v.c.h.h.h.h.7.X X / / / / / a   1.h.x.v.v.v.F.F.F.F.F.2.  a / / / / / X @ ,.u.h.h.h.V.Z.Z.j.g.h.h.h.h.h.",
"Z.Z.Z.E.W.Q.U.v.v.v.h.h.h.h.7.@ X ~ ~ ~ ~ ~ a   A f.x.v.v.v.F.Z.F.F.F.3.  a ~ ~ ~ ~ ~ X @ ,.u.h.h.h.Z.Z.Z.N.h.h.h.h.h.h.",
"Z.Z.Z.D.D.J.D.D.D.b.h.h.g.k q p p ~ ~ ~ ~ ~ a   1.B.D.H.J.H.S.D.F.F.Z.2.  a ~ ~ ~ ~ ~ p p q k h.x.x.F.G.G.j.h.h.h.x.x.x.",
"Z.Z.Z.f.0.0.f.Z.Z.Z.h.h.a.& X p ^ ^ ^ ^ ^ ^ a   2.Z.F.F.F.F.x.x.z.D.Z.>.  a ^ ^ ^ ^ ^ ^ p X & l.H.H.W.Q.W.D.h.h.z.v.v.v.",
"Z.Z.Z.r.0.0.r.Z.Z.Z.h.h.d.&   X X X X X X X     2.F.F.F.F.F.x.x.x.D.Z.>.    X X X X   X X   5 l.v.v.W.W.Q.v.h.h.z.v.H.v.",
"Z.Z.Z.r.0.0.r.Z.Z.Z.h.h.i.>                     2.F.G.Z.Z.F.x.x.x.C.Z.>.                    > c.v.v.W.W.W.D.h.h.x.v.c.v."
};
