/* XPM */
static char *_4058_f6aa23fe5d03aee877599fddae0637442639a48e233fa9edc3bedb8d8ce91d72[] = {
/* columns rows colors chars-per-pixel */
"60 60 204 2 ",
"   c #010100",
".  c #020E0E",
"X  c #0A0A0A",
"o  c #0B0805",
"O  c #140D07",
"+  c #0D1309",
"@  c #0D1307",
"#  c #191007",
"$  c #1B100A",
"%  c #161E0F",
"&  c #0B0D18",
"*  c #061419",
"=  c #161616",
"-  c #14151B",
";  c #231306",
":  c #281609",
">  c #2B1A11",
",  c #182011",
"<  c #1D2915",
"1  c #362517",
"2  c #253419",
"3  c #2F2B12",
"4  c #041624",
"5  c #0D1325",
"6  c #131328",
"7  c #121327",
"8  c #041F30",
"9  c #161835",
"0  c #110F24",
"q  c #042335",
"w  c #0D3838",
"e  c #363533",
"r  c #4C290D",
"t  c #432616",
"y  c #442C14",
"u  c #4B2B1A",
"i  c #422718",
"p  c #56321C",
"a  c #563421",
"s  c #4B3827",
"d  c #683E28",
"f  c #1A4237",
"g  c #354B26",
"h  c #304A33",
"j  c #304A1D",
"k  c #6E441E",
"l  c #6D422A",
"z  c #774D23",
"x  c #794E24",
"c  c #74462C",
"v  c #774629",
"b  c #7C5127",
"n  c #4E6D36",
"m  c #4A6B36",
"M  c #547536",
"N  c #547539",
"B  c #5B7E3D",
"V  c #577739",
"C  c #49682E",
"Z  c #484C27",
"A  c #1D1D41",
"S  c #052E46",
"D  c #063958",
"F  c #262554",
"G  c #153F6F",
"H  c #37377D",
"J  c #37367B",
"K  c #0A5654",
"L  c #185E5C",
"P  c #175E5D",
"I  c #074166",
"U  c #196D6A",
"Y  c #0E7675",
"T  c #434343",
"R  c #494949",
"E  c #484846",
"W  c #44455A",
"Q  c #884C28",
"!  c #855229",
"~  c #995F36",
"^  c #95542E",
"/  c #A45C34",
"(  c #9A6036",
")  c #A6673C",
"_  c #AD643B",
"`  c #A5683C",
"'  c #B4693F",
"]  c #B36D43",
"[  c #BD6F48",
"{  c #BB7146",
"}  c #BE7449",
"|  c #B8764A",
" . c #B97158",
".. c #AB6A4B",
"X. c #AC6960",
"o. c #C4764B",
"O. c #C8774A",
"+. c #C6784C",
"@. c #C9784D",
"#. c #C37647",
"$. c #C67850",
"%. c #59813D",
"&. c #658B3E",
"*. c #12817E",
"=. c #5F8645",
"-. c #668C44",
";. c #688D46",
":. c #648848",
">. c #6A9346",
",. c #6A934A",
"<. c #6C9A4A",
"1. c #669844",
"2. c #719D4E",
"3. c #739752",
"4. c #6F8F54",
"5. c #73A14E",
"6. c #72AE4A",
"7. c #7DAC4E",
"8. c #75B04C",
"9. c #7FB84F",
"0. c #79B34F",
"q. c #79A556",
"w. c #7CA955",
"e. c #77B351",
"r. c #7CB354",
"t. c #7EB852",
"y. c #7FB558",
"u. c #81AD59",
"i. c #82B356",
"p. c #82BA54",
"a. c #81B759",
"s. c #83B95B",
"d. c #89BE5D",
"f. c #88BD55",
"g. c #83AA61",
"h. c #8AB364",
"j. c #86BA61",
"k. c #8BBC62",
"l. c #8EBD6A",
"z. c #87B461",
"x. c #91BE6B",
"c. c #90BF61",
"v. c #C8805C",
"b. c #CE8B67",
"n. c #8AC256",
"m. c #8DC45C",
"M. c #87C056",
"N. c #91C65D",
"B. c #92CA5C",
"V. c #8EC362",
"C. c #8FC466",
"Z. c #91C464",
"A. c #94CC61",
"S. c #99CE65",
"D. c #92C36A",
"F. c #96C96A",
"G. c #9ACC6D",
"H. c #98C66D",
"J. c #9CD06B",
"K. c #99C671",
"L. c #9CCC71",
"P. c #97C772",
"I. c #9FD173",
"U. c #A0CE74",
"Y. c #A1CD78",
"T. c #A3D476",
"R. c #A5D579",
"E. c #A8D77B",
"W. c #A0D26F",
"Q. c #383880",
"!. c #373A81",
"~. c #095A8B",
"^. c #0F5F80",
"/. c #1C5B9C",
"(. c #2A488C",
"). c #344284",
"_. c #294C92",
"`. c #245295",
"'. c #225895",
"]. c #0B679B",
"[. c #0B6EAC",
"{. c #0B68A4",
"}. c #1367A7",
"|. c #0D71AC",
" X c #0C7DAD",
".X c #1277A1",
"XX c #744A84",
"oX c #76538D",
"OX c #0F8987",
"+X c #108483",
"@X c #218786",
"#X c #218887",
"$X c #238888",
"%X c #0D80AF",
"&X c #16A9A7",
"*X c #18B2AE",
"=X c #16BFBC",
"-X c #18BEBC",
";X c #15B4B1",
":X c #BAA4BD",
">X c #DCA98E",
",X c #E9DDDD",
"<X c #F4E6DD",
"1X c #F6ECE6",
/* pixels */
"B.B.B.d.a.a.m.A.A.S.R.R.R.R.R.R.F.6.6.6.R.R.R.H.x.x.k.s.s.s.A.A.A.t.8.6.t.B.A.A.s.y.s.s.s.a.d.B.B.B.s.s.s.s.s.s.M.B.B.B.",
"B.B.B.d.a.a.d.A.A.B.T.T.R.R.R.R.F.8.6.6.R.R.R.H.x.x.l.s.s.s.B.A.S.t.6.6.t.A.A.A.s.y.y.s.s.s.d.B.B.B.s.s.s.s.s.s.M.B.B.B.",
"B.B.B.d.a.a.m.A.A.S.R.R.R.R.R.R.F.8.6.8.T.R.T.H.x.x.c.s.a.d.A.A.B.t.6.6.t.A.A.A.a.y.s.s.s.s.d.B.B.B.s.s.s.s.s.s.M.B.B.B.",
"B.B.B.m.j.j.V.B.A.B.R.R.R.J.S.S.V.y.r.r.W.S.G.W.U.Y.H.a.a.a.B.A.A.n.f.n.m.B.B.B.s.s.t.s.s.a.m.T.T.S.s.s.a.n.m.m.m.B.B.B.",
"B.B.B.m.k.h.V.B.B.A.T.R.R.S.B.B.m.a.s.a.A.A.A.T.R.R.G.s.s.a.A.A.A.B.B.B.B.B.B.B.s.s.a.s.a.a.C.R.R.I.d.a.s.m.B.B.B.B.B.B.",
"B.B.B.V.k.k.m.B.B.B.T.R.R.S.B.B.m.s.s.s.i.>.;.,.3.4.4.B =.B -.-.-.&.&.&.&.&.&.&.B =.B y.s.s.Z.R.R.T.j.a.s.m.B.B.B.B.B.B.",
"B.B.B.V.k.k.k.m.m.N.G.L.G.S.S.S.A.k.h.k.N                                             5.m.d.Z.W.I.J.m.k.n.n.B.B.B.m.B.n.",
"B.B.B.k.k.k.k.a.s.s.a.s.s.L.R.R.L.D.x.x.n   O : : : 1 y y y y y y y y y y y y y y o   i.A.A.B.B.B.B.B.B.B.B.B.B.V.a.a.d.",
"B.B.B.d.k.k.k.a.s.s.s.s.s.L.R.R.U.x.x.x.n   ; r r r k x x x z x z x x x x x z x z #   i.A.A.B.B.B.B.B.B.B.B.B.B.B.s.s.s.",
"N.N.B.c.k.k.s.s.s.s.d.k.d.G.R.R.U.x.x.D.n   ; r r r k x x x x x x x x x x x z z z #   y.B.A.A.B.B.S.S.B.B.B.B.B.m.a.s.s.",
"8.8.6.p.s.s.s.s.s.s.U.U.T.R.R.R.U.x.x.x.n   ; r r r k x x x x x x x x x x x x z z #   5.s.d.V.R.R.R.R.R.R.S.N.B.m.s.s.s.",
"6.6.6.r.s.s.s.s.a.k.T.R.R.R.R.R.U.x.x.x.n   ; r r r k x ' { { { { { | | | { { ~ z #   5.a.a.V.R.R.R.R.R.R.B.B.B.m.a.s.s.",
"6.6.6.a.a.s.s.s.s.k.T.R.R.R.R.R.U.x.x.x.n   ; r r r k b o.+.+.$.$.+.+.@.+.@.$.( z #   2.a.s.C.R.R.R.R.R.R.S.B.B.m.s.s.a.",
"n.n.f.d.k.k.s.e.r.r.D.D.D.F.S.S.A.d.s.j.N   ; r x ^ ] { +.+.@.+.+.$.$.@.@.@.$.$.] >   u.L.L.G.C.c.Z.P.H.K.Z.V.x.m.m.m.m.",
"B.B.B.Z.x.x.k.6.6.8.j.k.d.N.B.B.m.a.a.a.M   ; r Q / [ +.b.b. . .+.+.+. . .v.b.v.o.>   h.R.R.L.a.a.a.x.x.x.k.k.k.m.B.B.B.",
"B.B.B.Z.x.x.s.6.8.8.z.d.k.N.B.B.m.a.a.a.M   ; r Q / [ $.1X1XoXXX$.+.+.X.XX:X1X>Xo.>   z.R.R.G.s.a.a.x.x.x.k.k.k.m.N.B.B.",
"B.B.B.Z.c.Z.N.p.r.t.m.m.k.V.m.B.f.a.y.y.N   ; r Q / [ $.<X,XoXXX{ o.o.X.XX:X1X>Xo.>   u.L.G.C.a.y.j.k.C.k.V.V.V.m.m.m.m.",
"B.B.B.B.B.B.B.B.B.B.B.B.B.m.a.s.a.e.e.e.n   ; r Q / [ O.@.@.@.@./ / / _ o.o.$.+.o.>   2.a.d.a.j.j.y.y.M.y.V.A.A.A.s.s.s.",
"N.B.B.B.B.B.B.B.B.B.B.B.B.d.s.s.a.0.r.r.n   : p ^ / [ O.+.+.{ { _ _ _ _ { } $.+.o.>   5.a.a.a.a.j.y.j.y.y.A.A.A.m.a.s.s.",
"B.B.B.B.B.B.B.B.B.B.B.B.B.d.s.s.a.r.e.r.n   r / / ~ [ O.+.} ! b +.+.o.] x ` o.@.o.>   2.d.a.j.a.y.M.y.M.y.V.A.A.m.s.s.a.",
"T.R.R.S.B.B.S.R.T.T.l.k.j.d.a.a.a.s.a.s.C   u / / / { +.+.} ! b ) ` ) ( x ` +.+.o.>   h.R.R.I.S.F.A.A.B.B.A.A.A.A.B.A.S.",
"R.R.R.S.B.B.S.R.R.I.k.k.k.j.a.j.s.s.s.s.C   u / / / { +.+.} b x x z x x b ` +.+.o.>   h.R.R.I.A.A.A.B.B.B.B.A.A.A.A.A.A.",
"R.T.R.S.B.B.S.R.T.T.l.d.k.s.s.y.a.s.s.s.C   : p p p l l l l u y y y y y y a c c l O   h.R.R.I.A.A.A.B.B.B.A.A.A.A.A.A.A.",
"S.S.S.n.p.a.n.S.F.S.N.B.m.B.m.m.m.a.s.a.N                                             w.P.D.A.B.B.B.A.A.A.m.d.m.d.d.d.m.",
"B.B.B.y.r.e.t.B.B.B.B.B.B.B.B.B.m.s.q.2 h P L L L L L L *.+X+X+X+X+X+X+X+Xw   g B B B i.k.k.V.B.B.B.A.A.A.m.s.y.s.s.s.s.",
"B.B.B.t.r.e.M.B.B.B.B.B.B.B.B.B.N.d.,.  w #X#X#X$X$X@X@X-X-X-X-X=X=X=X=X=XK   V y.a.a.j.d.k.V.B.B.B.A.A.A.n.s.s.s.s.s.s.",
"B.B.B.M.M.y.M.B.B.B.m.B.n.B.B.B.m.s.>.  w OX$X#X#X$X&X*X=X=X-X=X=X=X=X=X=XK   N a.a.a.j.k.k.k.V.m.V.C.m.V.C.C.C.V.a.s.s.",
"B.B.B.A.A.A.B.B.B.B.s.s.y.A.A.A.Z.s.,.o w $X$X$X$X$X*X-X=X=X=X-X=X=X=X=X=XK   N y.a.a.l.x.x.C.a.M.y.s.s.s.G.R.E.L.a.s.s.",
"B.B.B.A.A.A.B.B.B.B.s.s.s.m.A.A.B.s.,.  t ~ ] | v.| 1 . ;X=X=X=X=X=X=X=X-XK   o + ,.y.k.l.l.k.j.s.s.s.s.s.G.R.R.L.a.s.s.",
"B.B.B.B.A.A.A.B.A.B.s.y.s.V.A.A.V.s.<.  y / ' #.} +.1   ;X=X=X=X=X=X=X=X-XK       ,.j.k.l.C.k.a.s.s.s.s.y.J.I.I.G.s.s.j.",
"y.s.m.m.B.B.S.R.R.I.d.s.a.A.A.B.B.A.5.  1 / ' v.#.+.1   ;X=X=X=X=X=X=X=X=XK       4.l.y.6.8.r.s.s.y.s.s.y.k.D.C.c.N.B.N.",
"s.s.s.n.B.B.S.E.R.I.j.s.a.V.A.A.A.A.7.  r / ' #.+.#.1 o &X;X=X-X=X=X=X=X=XK   o + 4.h.r.6.6.e.s.s.s.s.y.j.k.k.j.d.B.B.B.",
"s.a.s.V.B.B.S.R.R.T.j.a.s.V.A.A.A.A.5.  y / ' O.+.#.O.#.X * *X=X=X=X=X=X-XK   c o.> o 1.6.8.0.p.s.s.s.a.a.d.k.k.d.B.B.B.",
"C.k.k.m.d.d.D.R.R.T.B.m.B.m.j.M.m.d.,.  t / ' #.+.+.O.#.i 3 *.OX=X=X=X=X-XK   c o.p 1 %.&.p.d.s.s.s.k.k.k.m.Z.m.N.k.V.k.",
"l.l.l.j.s.s.C.R.R.T.B.B.m.m.y.s.s.s.,.  t / ' O.#.+.+.+.+.] O . =X=X=X=X-XK   c v.#.v.# + w.N.s.s.s.k.k.k.B.B.B.N.k.k.k.",
"l.l.D.k.a.a.C.R.R.R.A.B.B.m.s.s.s.s.,.  u / _ [ #.+.O.#.o.] O . -X=X=X=X-XK   c #.#.#.# + 7.A.a.s.a.j.k.k.m.B.B.c.d.k.k.",
"P.P.P.C.V.m.C.F.L.J.V.m.n.M.y.y.d.d.<.  u / / ) { O.@.+.+.] O . =X=X=X=X=XK   c #.O.O.# + i.B.d.m.k.Z.D.D.B.B.B.B.s.d.k.",
"E.E.I.J.A.A.A.s.y.s.y.M.y.j.s.j.d.B.p.M Z r d / ' ' { +.+.' O . -X=X=X=X=XK   c +.O.#.$ + 7.B.A.B.S.R.R.R.S.B.B.m.a.s.s.",
"E.Y.R.S.A.B.V.s.s.s.y.y.y.V.s.s.d.B.B.B.n   u / / / { +.#.] O . -X-X=X=X=XK   c +.O.O.# @ i.B.A.A.S.R.R.R.S.B.B.m.s.a.s.",
"E.E.R.G.A.A.V.a.s.s.y.y.y.y.s.s.d.B.B.B.m   $ i t t u p p s U Y -X=X=X=X=XK   > a p p n B f.B.A.A.A.T.T.R.S.B.B.m.a.s.s.",
"s.s.s.V.A.A.F.x.D.C.s.a.d.m.B.B.m.a.a.r.C                 * &X=X=X=X=X=X=XK           h.R.R.J.k.k.k.F.A.A.B.B.B.m.k.k.k.",
"s.s.s.m.A.B.A.x.l.l.a.d.a.m.B.B.m.a.<.< f U U U ~.~.~.~.~.~. X X%X%X%X%X%X{.~.q   N ,.H.R.R.L.k.j.V.B.B.A.B.B.B.N.k.k.k.",
"s.s.s.A.A.A.Z.x.l.l.j.a.a.m.B.B.B.i.,.  w $X#X$X.X|.[.[.[.[.[.[.|.|.[.[.[.[.|.S   ,.a.L.R.R.L.k.k.k.A.A.A.B.B.B.N.k.k.k.",
"a.s.a.p.a.t.V.I.I.I.V.m.B.M.d.m.Z.L.q.  9 ).'..X|.|.[.[.4 * * * ).`.[.[.[.[.|.S   q.L.D.Z.D.Z.N.Z.B.A.A.A.N.V.V.d.y.y.e.",
"s.s.s.e.6.8.a.R.R.T.B.B.B.M.s.s.x.R.u.  9 Q.`.[.[.[.{.].= @ @ = J !.[.{.[.[.[.S   g.R.D.s.s.m.B.B.B.A.A.A.c.l.k.a.6.6.6.",
"s.s.s.0.6.6.d.T.R.T.B.B.B.s.s.a.Z.R.g.  9 Q.`.[.|.[.S * >.2.<.<.. 9 !.`.[.[.[.S   g.R.C.s.s.d.B.B.B.A.A.B.Z.k.h.a.6.6.6.",
"a.s.s.t.r.e.d.L.L.L.A.Z.A.m.m.d.D.z.4.& A Q.`.[.[.[.8   i.d.x.d.  0 !._.[.|.[.D * 3.h.C.s.a.f.B.B.B.S.J.G.m.s.s.y.0.6.e.",
"a.d.s.a.a.a.a.s.s.a.l.l.l.C.B.B.i.  0 J H Q.`.[.[.[.8   f.B.T.K.  0 Q._.[.[.[.[.}.8   w.a.y.d.A.A.S.R.R.R.k.e.e.y.a.a.a.",
"s.s.s.s.s.s.s.s.a.j.l.D.x.Z.B.B.i.  & Q.Q.Q._.}.[.[.8   f.B.R.K.  0 Q.(.}.}.|.|.[.4   q.a.a.d.B.A.S.T.R.R.j.r.e.r.a.a.a.",
"d.s.s.s.s.s.s.s.s.j.l.l.x.Z.B.B.i.  & Q.Q.Q.Q.Q./.[.8   p.B.Y.H.  5 !.!.Q.'.[.|.[.4   5.y.a.d.A.A.A.T.R.R.d.e.y.y.y.a.a.",
"N.B.B.m.k.d.j.s.s.s.j.j.s.G.R.R.h.  & H H Q.Q.Q.G I h j 6.r.k.z.g e F F Q._./.}.[.4   <.e.6.y.x.D.D.A.A.B.d.s.s.r.e.8.8.",
"B.B.B.k.k.l.s.s.s.a.a.s.s.L.R.R.h.o & Q.Q.Q.Q.Q.6   %.6.6.6.d.k.l.:.  5 Q.Q.Q./.[.4   1.6.6.y.x.l.D.N.B.B.d.s.s.y.6.6.6.",
"B.B.B.Z.k.k.j.a.a.s.a.a.a.L.R.R.h.  & H Q.Q.Q.H 6   %.6.6.8.j.j.k.:.  6 Q.Q.Q._.'.*   1.6.6.y.l.x.x.B.B.B.d.a.s.y.8.8.8.",
"B.B.B.S.L.L.D.l.k.V.d.s.s.V.D.Z.q.o & H Q.Q.Q.Q.6   =.j.k.s.Z.A.Z.;.  6 Q.Q.Q.Q.H &   1.6.6.r.k.j.d.B.B.B.n.s.s.a.y.r.y.",
"B.B.B.W.R.R.T.x.x.l.s.s.s.a.s.s.2.  & W W W W W -   :.l.x.x.A.A.B.>.  - W W W W W &   1.6.6.e.a.a.d.m.B.B.d.s.s.a.a.a.s.",
"B.B.B.W.R.R.U.x.x.x.s.a.s.s.a.a.2.  O R R R R R =   :.x.x.D.A.B.S.>.  = R R R R R X   1.6.6.e.a.s.a.B.B.B.d.s.s.d.a.j.a.",
"B.B.B.A.D.F.Z.Z.Z.N.a.a.i.g 2 2 2 e e R R E R R -   ;.D.F.D.A.Z.B.,.  - R R R R R e e 2 2 2 j z.k.k.A.S.B.m.s.s.s.k.s.k.",
"N.B.B.9.6.6.p.B.N.B.d.s.y.%     X E T E T T T T =   >.A.B.F.k.k.k.;.  = T T T T T T T X     = l.D.D.R.E.R.D.s.s.k.x.x.x.",
"B.B.B.t.6.6.9.B.B.N.d.a.y.%       X X X X X X X     >.A.A.A.k.k.k.;.    X X X X X X X       % h.x.x.R.R.R.D.a.s.k.x.x.x.",
"B.B.B.9.6.6.9.B.B.B.s.s.i.%                         >.A.B.A.k.k.k.;.                        % l.x.H.Y.R.R.D.s.s.j.x.x.x."
};
