/* XPM */
static char *_9487_26ca12a16e369790ea85e4e00f23dd5cace0da6f9d9a6210ffd27ff16b764896[] = {
/* columns rows colors chars-per-pixel */
"60 60 208 2 ",
"   c #010100",
".  c #020E0E",
"X  c #0A0A0A",
"o  c #0B0704",
"O  c #150D06",
"+  c #150E09",
"@  c #0D130A",
"#  c #0D1307",
"$  c #191007",
"%  c #1B100A",
"&  c #161E0F",
"*  c #0B0D18",
"=  c #081518",
"-  c #161616",
";  c #14151B",
":  c #231306",
">  c #23150B",
",  c #26180B",
"<  c #2A170C",
"1  c #2A1911",
"2  c #331F14",
"3  c #182011",
"4  c #1D2915",
"5  c #282A15",
"6  c #362417",
"7  c #25341A",
"8  c #253519",
"9  c #081626",
"0  c #131328",
"q  c #121327",
"w  c #041F30",
"e  c #151631",
"r  c #062525",
"t  c #0E3837",
"y  c #0C3A3A",
"u  c #103E3C",
"i  c #373737",
"p  c #4C290D",
"a  c #432616",
"s  c #482E16",
"d  c #4A2B19",
"f  c #462C17",
"g  c #573219",
"h  c #4C3018",
"j  c #60361E",
"k  c #593622",
"l  c #513C29",
"z  c #493E20",
"x  c #663E25",
"c  c #713F24",
"v  c #1A4237",
"b  c #354B26",
"n  c #3E542D",
"m  c #2D4731",
"M  c #304A1D",
"N  c #6E441E",
"B  c #794E24",
"V  c #74462D",
"C  c #774A27",
"Z  c #7C5026",
"A  c #764830",
"S  c #48662D",
"D  c #4D6C36",
"F  c #4A6B35",
"G  c #557536",
"H  c #567639",
"J  c #567837",
"K  c #1E1C41",
"L  c #052E46",
"P  c #0D3A4E",
"I  c #262554",
"U  c #153F6F",
"Y  c #37377D",
"T  c #37367B",
"R  c #0A5654",
"E  c #145050",
"W  c #074166",
"Q  c #0E6B69",
"!  c #0D716F",
"~  c #17716E",
"^  c #434343",
"/  c #494949",
"(  c #484846",
")  c #44455A",
"_  c #894C29",
"`  c #845429",
"'  c #95542E",
"]  c #A45C34",
"[  c #A95F38",
"{  c #A95E37",
"}  c #996033",
"|  c #A5673C",
" . c #AE673D",
".. c #B4693E",
"X. c #977D59",
"o. c #866E4F",
"O. c #AE6940",
"+. c #B26C43",
"@. c #BB6F47",
"#. c #BD7045",
"$. c #BE7349",
"%. c #B77046",
"&. c #BD7253",
"*. c #AB695D",
"=. c #C3764B",
"-. c #C7784C",
";. c #C9784B",
":. c #C87B52",
">. c #C67A54",
",. c #5C853C",
"<. c #62913E",
"1. c #5F8643",
"2. c #618744",
"3. c #688D47",
"4. c #668C47",
"5. c #6A9346",
"6. c #699349",
"7. c #699A48",
"8. c #719A4E",
"9. c #729353",
"0. c #709056",
"q. c #73A14E",
"w. c #72AE4A",
"e. c #7DAC4E",
"r. c #75B04C",
"t. c #7FB84F",
"y. c #79B34F",
"u. c #74A351",
"i. c #7BA855",
"p. c #77B351",
"a. c #7BB354",
"s. c #7EB952",
"d. c #7FB558",
"f. c #7FB859",
"g. c #6CA546",
"h. c #82AC5D",
"j. c #82B456",
"k. c #81BA54",
"l. c #81B759",
"z. c #83B95B",
"x. c #89BE5C",
"c. c #89BD55",
"v. c #83AA61",
"b. c #8AB365",
"n. c #86BA60",
"m. c #8BBC62",
"M. c #8EBD6A",
"N. c #86B660",
"B. c #91BE6B",
"V. c #90BF61",
"C. c #CC845E",
"Z. c #CE8660",
"A. c #89C156",
"S. c #8DC45C",
"D. c #87C057",
"F. c #91C65C",
"G. c #92CA5C",
"H. c #8EC362",
"J. c #8FC466",
"K. c #91C464",
"L. c #94CC61",
"P. c #99CE65",
"I. c #92C36A",
"U. c #96C96A",
"Y. c #9ACC6D",
"T. c #98C66E",
"R. c #9CD06C",
"E. c #99C671",
"W. c #9BCC71",
"Q. c #97C772",
"!. c #9FD173",
"~. c #A0CE74",
"^. c #A3D476",
"/. c #A5D579",
"(. c #A8D77B",
"). c #A0D26F",
"_. c #383880",
"`. c #373A82",
"'. c #1C5B9C",
"]. c #09598A",
"[. c #2A478C",
"{. c #344284",
"}. c #284D92",
"|. c #235395",
" X c #0E6D9B",
".X c #0B6EAC",
"XX c #0A69A3",
"oX c #1365A6",
"OX c #0D74AC",
"+X c #1176A4",
"@X c #0D7FB1",
"#X c #754B83",
"$X c #7F5A8E",
"%X c #805A8B",
"&X c #218887",
"*X c #218888",
"=X c #0D80AF",
"-X c #17AAA8",
";X c #17B1AF",
":X c #16BFBC",
">X c #18BEBC",
",X c #15B5B2",
"<X c #17C0BD",
"1X c #BBA2B8",
"2X c #DAA78B",
"3X c #EADADA",
"4X c #F4E2D9",
"5X c #F7EAE2",
/* pixels */
"G.G.G.x.z.z.x.L.L.P.^./././././.U.r.w.w./.(.^.E.B.B.V.z.z.z.L.L.L.k.r.w.t.L.L.L.z.z.f.k.z.z.x.G.G.G.z.z.z.z.z.z.D.G.G.G.",
"G.G.G.x.z.z.x.L.L.L.^.^././././.U.r.w.w./././.E.B.B.B.z.z.z.G.L.L.s.r.w.s.G.L.L.f.f.z.z.z.l.x.G.G.F.z.z.z.z.z.z.A.G.G.G.",
"G.G.G.x.z.z.D.L.L.P././././././.U.w.w.w.^././.T.B.B.V.j.z.z.K.L.G.s.r.r.f.G.L.G.z.a.z.z.z.z.x.G.G.F.z.z.z.z.z.z.A.G.G.G.",
"G.G.G.D.n.m.D.L.G.L.^././.R.P.P.H.d.a.f.z.8.8.9.9.9.0.,.2.2.5.5.5.<.,.,.<.5.5.5.,.1.1.a.z.l.S.^.^.P.x.z.z.D.S.S.S.G.G.G.",
"G.G.G.F.m.b.H.G.G.L.^././.P.G.G.S.f.z.z.H                                             q.z.z.J././.^.n.z.z.S.G.G.G.G.G.G.",
"G.G.G.m.m.m.S.G.G.G.^./.(.P.G.G.S.z.z.z.H   o $ O O > , , , , , , , , , , , , , , o   q.z.z.K././.^.n.z.z.S.G.G.G.G.G.G.",
"G.G.G.H.m.m.m.S.F.F.Y.W.Y.P.P.P.L.m.m.n.H   : p p p N B B B B B B B B B B B B B C $   q.D.x.K.R.!.R.D.D.A.S.G.G.G.A.S.S.",
"G.G.G.m.m.m.m.l.z.z.l.z.l.W././.W.I.M.B.D   : p p p N B B B B B B B B B B B B B B O   j.L.L.L.G.G.G.G.G.G.G.G.G.S.z.z.z.",
"G.G.G.S.m.m.x.z.z.z.z.z.z.W././.~.B.B.B.D   : p p p N B B B B B C C B B B B C C B $   j.L.L.L.G.G.G.G.G.G.G.G.G.S.z.z.l.",
"F.F.F.x.m.b.n.z.z.z.x.z.x.Y././.~.B.B.B.D   : p p p N B | | | | | O.| | | | O.' B %   a.G.L.G.G.G.G.G.P.G.G.G.G.S.k.z.z.",
"r.w.r.j.z.x.z.z.z.m.~.^.^.^././.^.B.B.I.D   : p p p N B &.-.;.;.-.-.-.-.-.-.;.} N $   q.z.m.H.^.(.^.(.^.^.P.G.G.S.z.z.z.",
"w.w.w.j.z.z.z.z.z.z././././././.~.B.B.B.D   : p C '  .#.-.;.;.;.-.-.;.;.>.;.-.$.%.,   8.z.z.J./.(././.(.^.P.G.G.S.z.z.z.",
"r.w.w.a.z.l.l.z.z.z.^./././././.~.B.B.B.D   : p _ ] @.;.>.:.>.=.-.-.>.>.=.:.>.:.=.1   u.z.z.I././././././.P.G.G.S.z.z.z.",
"A.A.A.S.M.M.z.p.a.a.I.I.I.U.P.P.K.x.n.x.G   : p _ ] @.:.4X3X%X#X=.;.-.*.#X1X5X2X=.1   h.W.W.U.H.M.V.E.E.E.K.H.V.S.S.S.F.",
"G.G.G.K.M.B.z.w.w.p.m.m.m.F.G.G.A.z.d.z.G   : p _ ] @.:.4X3X$X#X$.=.$.*.#X1X5X2X=.,   b././.W.j.j.l.M.B.B.m.m.m.S.G.G.G.",
"G.G.G.K.B.B.x.w.w.w.N.x.m.F.G.G.S.d.z.j.J   : p _ ] @.-.Z.C.=.&.[ { [ O.&.>.Z.>.=.1   b./.^.Y.z.z.l.M.B.B.M.m.m.m.G.G.G.",
"G.G.G.K.V.F.V.k.t.k.x.H.H.S.S.S.D.d.d.d.G   , g _ ] #.;.;.;.$.%.| { {  .$.=.-.-.;.1   v.W.Y.I.l.f.n.m.J.m.H.H.L.H.S.S.S.",
"G.G.G.G.G.G.G.G.G.G.G.G.G.x.z.z.z.p.p.p.D   d ] ] ] #.;.-.$.Z Z =.-.;.O.C | -.-.$.1   u.z.z.z.z.z.f.z.z.f.H.L.L.L.z.z.z.",
"F.G.G.G.G.G.G.G.G.G.G.G.G.x.z.z.j.a.a.a.D   d ] ] ] #.;.>.$.` Z %.#.+.| B | -.-.$.1   8.z.z.z.z.z.z.z.f.z.L.L.L.S.z.z.z.",
"G.G.G.G.G.G.G.G.G.G.G.G.G.x.z.z.z.p.a.p.D   d | ] ] #.;.-.$.` C B Z B B B | -.-.=.1   u.z.l.z.z.z.z.z.z.f.S.L.L.S.z.z.z.",
"/././.P.G.G.P././.^.m.m.n.z.z.z.l.z.z.z.S   1 g x g V V A V s s s s s s s x A A A +   b.^./.!.L.K.L.G.G.L.G.L.L.L.L.G.L.",
"/././.P.G.G.P.(./.^.m.m.m.n.z.z.z.z.z.z.S                                             b././.^.L.L.L.G.G.G.G.L.L.G.L.L.L.",
"/././.P.G.G.P.^./.^.M.m.H.f.z.z.z.z.i.F m v v P u u u u R R R R R R R R R r   8 n n n B./.^.!.L.L.L.G.G.S.G.L.L.L.L.L.L.",
"P.P.P.D.z.k.D.P.L.P.F.F.S.G.S.S.D.z.6.  y &X&X&X&X&X&X&X>X:X:X:X:X:X:X<X:XR   H z.z.l.I.I.Q.L.G.G.L.G.L.L.H.H.D.n.x.H.D.",
"G.G.G.f.p.s.k.G.G.G.G.G.G.G.G.G.S.z.6.  t *X*X*X&X&X-X-X>X:X:X:X:X:X:X:X:XR   H j.z.z.N.m.m.K.G.G.G.L.L.L.S.f.z.z.z.z.k.",
"G.G.G.f.p.p.k.G.G.G.G.G.G.G.G.G.S.z.6.o t *X*X~ *X&X;X:X>X<X<X:X:X:X:X:X<XR   G z.d.z.x.x.m.x.G.G.G.L.L.L.D.z.z.z.z.z.z.",
"G.G.G.D.z.D.D.G.G.G.S.S.A.G.G.G.H.z.6.  d o.o.v.X.X.m y ,X<X:X>X:X:X:X:X<XR   3 7 7.z.z.V.M.x.S.F.S.H.S.L.J.J.J.m.z.z.z.",
"G.G.G.G.L.G.G.G.G.F.x.z.z.S.L.L.S.z.6.  a ] ..;.;.;.6   ;X:X:X:X<X:X<X:X:XR       6.z.b.B.B.M.z.z.z.z.z.f.W././.W.z.z.z.",
"G.G.G.L.L.L.G.G.F.F.z.z.z.S.L.L.K.z.7.  a ] ..;.=.;.6   ;X:X:X:X:X:X:X:X>XR       6.z.m.B.B.M.z.z.z.z.z.z.W.^./.W.z.z.z.",
"G.G.G.G.L.L.L.G.L.L.D.f.z.H.L.L.F.z.7.  a ] ..=.-.;.f + -X-X:X:X:X:X:X:X:XR   o % 2.u.N.M.M.m.z.z.z.z.z.z.U.!./.Y.z.z.z.",
"z.z.z.S.G.G.P./.^.!.x.z.z.K.L.G.G.L.q.o a ] ..;.-.=.+.+.@ r -X:X:X:X:X:X:XR   x  .5 @ 8.w.r.p.z.z.f.z.z.z.m.M.m.m.G.F.F.",
"z.z.z.G.G.G.P././.^.z.z.z.F.L.L.L.L.q.  a ] ..=.=.-.;.=.% = -X,X:X:X:X:X:XR   V ;.6 o 4.g.w.p.z.z.z.z.z.z.n.m.m.S.G.G.G.",
"k.z.z.S.G.G.P././.^.D.z.z.H.L.L.L.L.q.  f ] ..;.;.=.=.=.=.O.+ . :X:X:X:X:XR   V -.-.-.% # <.s.z.z.z.z.z.z.z.m.m.x.G.G.G.",
"m.J.m.m.x.x.I./.^.^.K.S.S.S.H.D.H.n.7.  a ]  .@.=.;.;.=.=.+.+ . :X:X:X:X:XR   V -.;.;.$ @ w.z.z.l.z.x.m.m.S.K.F.F.m.m.H.",
"B.B.M.m.z.z.J./.^.^.L.G.F.H.f.f.z.z.6.o a ] ] ] ..;.;.-.-.+.O . :X<X:X:X<XR   C =.=.;.$ @ j.F.z.z.z.m.m.m.F.F.G.F.b.m.m.",
"B.M.I.n.z.z.J.^././.G.G.G.D.z.z.z.z.u.7 z c _ ] ....=.;.;.O.O . :X:X:X:X:XR   A =.=.-.$ X a.F.z.z.z.m.m.m.S.G.G.F.m.x.m.",
"Q.Q.Q.J.D.H.H.Q.W.Y.S.S.D.x.f.z.z.D.x.D.G   d ]  .] =.;.=.+.O . >X:X:X:X:XR   A ;.;.;.% @ e.G.D.x.D.I.I.U.G.G.G.F.x.x.m.",
"/./.^.R.G.K.L.z.z.z.z.f.f.z.z.z.x.G.G.G.F   > d s s g k g l Q ! :X:X:X:X:XR   6 g k k S J c.L.L.L.L.(././.L.G.G.S.z.z.l.",
"/././.Y.L.G.L.z.z.z.z.d.f.z.z.z.x.G.G.G.F                 = -X<X:X:X:X:X:XR           e.G.G.G.L.L.P.^.^.^.P.G.G.S.z.z.z.",
"/././.R.L.L.H.z.l.k.z.d.f.z.z.z.x.G.G.G.D   r E E E Q ! ! ! ,X<X:X:X>X:X:XR   8 D D D z.G.G.L.L.L.P./././.P.G.G.S.z.l.l.",
"z.z.z.H.L.L.K.B.M.M.x.z.z.S.G.G.S.z.j.a.F   E &X&X&X-X<X:X:X:X:X<X<X<X<X<XR   D z.z.z.Y.^./.R.m.m.m.L.L.L.G.G.G.F.m.m.m.",
"z.z.z.S.L.G.P.B.M.B.z.z.z.S.G.G.S.j.7.4 v ~ ~ *X+XOX@X=X@X@X@X@X=X=X=X=X=XXX].P 4 8.z.W././.W.m.m.m.K.G.L.L.G.G.F.m.m.m.",
"z.z.z.L.L.L.U.B.B.B.z.z.x.S.G.G.F.z.5.  t *X*X*X+XOX.X.X.X.X.X.X.X.X.XOX.X.X.XL   6.z.W././.!.m.m.m.L.L.L.G.G.G.F.M.b.m.",
"z.z.z.k.j.s.S.~.^.W.S.S.S.D.A.z.H.E.i.o e Y |.+XOX.X.X.X9 . = = `.|..X.X.X.X.XL   i.W.I.J.I.K.F.G.K.L.L.L.G.H.H.x.p.p.p.",
"l.z.z.y.w.w.z././.^.G.G.G.z.z.z.K./.h.  e _.|..X.X.XXX X@ @ @ - T `.XX.XOX.XOXL   v./.J.z.z.z.G.G.G.L.L.L.J.m.b.l.w.w.w.",
"z.z.z.y.w.w.z././.^.G.G.G.D.z.z.M.^.v.  e Y |..X.X.XL . 7.8.8.6.* e `.|..X.X.XL   v./.I.z.z.A.G.G.G.L.L.G.H.m.m.l.w.w.w.",
"l.z.z.s.p.p.z.W.W.W.L.K.L.m.D.D.M.b.0.* K _.|..X.X.Xw   j.x.I.z.  * `.}..X.X.XP = 9.b.m.z.z.D.G.G.L.P.P.Y.K.z.z.j.y.w.p.",
"z.z.l.z.z.z.z.z.z.z.M.B.B.L.G.G.j.o * Y _._.|..X.X.Xw   c.G.^.E.  9 `.}..X.X.X.XXXw   i.z.z.D.L.L.L.(././.x.a.a.d.l.l.l.",
"z.z.z.z.z.z.z.z.l.N.B.M.M.K.F.G.j.  * _._._.}.oX.X.Xw   c.G./.E.  0 Y [.oX.XOX.X.X9   i.d.z.x.L.L.P.^././.x.a.p.a.z.z.z.",
"z.z.x.z.z.z.z.z.z.z.I.M.B.L.P.G.j.  * _._._._._.'..Xw   k.G.~.E.  q `.`._.|..X.X.X9   u.d.d.z.L.L.L.^././.x.a.a.a.d.z.j.",
"G.G.F.x.m.m.n.z.z.z.z.z.z.W././.b.  * _._._._._.U W m b w.a.m.N.b i I I _.}.|.oXXX9   7.r.w.d.I.I.I.K.L.G.x.z.z.d.p.r.r.",
"G.G.G.K.m.m.z.z.z.z.z.z.z.W././.b.  * _._._._._.0   ,.w.w.w.x.m.B.2.  q _.`.`.'..X9   7.w.w.d.B.B.I.G.G.G.x.z.z.d.w.w.w.",
"G.G.G.H.M.m.z.z.z.z.z.z.z.Y././.b.  * Y _._._.Y 0   ,.w.w.r.x.H.m.2.  0 _._._.}.|.=   7.w.w.d.B.B.I.G.G.G.D.n.z.d.w.w.w.",
"G.G.G.P.Y.W.I.M.m.m.z.z.z.m.I.J.i.o * Y _._._._.0   1.N.n.x.H.K.K.6.  0 _._._._.Y *   7.w.w.p.N.z.m.G.G.G.D.z.z.f.d.d.d.",
"G.G.G.^././.^.M.B.M.z.z.z.z.z.z.8.  * ) ) ) ) ) ;   4.M.B.B.L.L.L.5.  ; ) ) ) ) ) *   7.w.w.p.z.z.x.S.G.G.z.z.l.z.z.l.z.",
"F.G.G.)./.(.W.B.B.B.z.z.z.z.z.z.u.  + / / / / / ;   2.B.B.I.G.L.L.5.  - / / / / / X   5.w.w.p.z.z.z.G.G.G.x.z.z.z.z.z.l.",
"G.G.G.L.I.U.K.K.K.K.k.l.j.b 7 7 7 i i / / ( / / -   4.I.I.I.K.K.K.5.  - / / / / / i i 7 7 4 b z.m.m.L.P.P.D.z.z.z.m.z.m.",
"G.G.G.t.w.w.k.G.G.F.x.z.j.&     X ^ ^ ^ ^ ^ ^ ^ -   5.L.G.L.H.m.m.3.  - ^ ^ ^ ^ ^ ^ ^ o     & M.B.I./.(./.I.z.z.m.B.B.B.",
"G.G.G.t.w.w.t.G.G.G.z.z.a.&       X X X X X X X     5.L.L.K.m.m.M.3.    X X X X X X X       & M.B.I./././.I.l.z.n.B.I.B.",
"G.G.G.t.w.w.t.G.G.F.x.z.d.&                         5.L.L.L.H.m.m.3.                        3 b.B.B./././.I.z.z.m.B.B.B."
};
