/* XPM */
static char *xpm_[] = {
/* columns rows colors chars-per-pixel */
"60 60 165 2 ",
"   c #040405",
".  c #0B0606",
"X  c #060907",
"o  c #0B0906",
"O  c #050609",
"+  c #0A0709",
"@  c #070909",
"#  c #0D0B0C",
"$  c #110706",
"%  c #120D0D",
"&  c #13100E",
"*  c #1A100F",
"=  c #0E0D10",
"-  c #130E11",
";  c #190F12",
":  c #0F1012",
">  c #151212",
",  c #1B1514",
"<  c #1B1916",
"1  c #1C1619",
"2  c #1D1919",
"3  c #221517",
"4  c #211916",
"5  c #201718",
"6  c #231C1B",
"7  c #291D1D",
"8  c #25211E",
"9  c #29211F",
"0  c #241E20",
"q  c #2A1F21",
"w  c #311E22",
"e  c #262121",
"r  c #2B2423",
"t  c #2E2926",
"y  c #2F2A29",
"u  c #322525",
"i  c #312A27",
"p  c #302728",
"a  c #332D2A",
"s  c #3A2D2D",
"d  c #36312D",
"f  c #39322F",
"g  c #373332",
"h  c #3C3432",
"j  c #3E3935",
"k  c #3F3D39",
"l  c #413635",
"z  c #423936",
"x  c #443739",
"c  c #443B39",
"v  c #4A3C3D",
"b  c #46433C",
"n  c #47423E",
"m  c #45413C",
"M  c #47443F",
"N  c #45413C",
"B  c #49413E",
"V  c #48433F",
"C  c #49443E",
"Z  c #4A403E",
"A  c #7E3646",
"S  c #7C3845",
"D  c #7F3549",
"F  c #7E3B4C",
"G  c #7F3C51",
"H  c #484340",
"J  c #494440",
"K  c #484540",
"L  c #494641",
"P  c #4B4640",
"I  c #4B4642",
"U  c #4C4743",
"Y  c #4C4341",
"T  c #4B4841",
"R  c #4B4843",
"E  c #4D4842",
"W  c #4D4944",
"Q  c #4D4A45",
"!  c #4E4B44",
"~  c #4F4A44",
"^  c #4F4A46",
"/  c #4E4B46",
"(  c #4F4C45",
")  c #4F4C47",
"_  c #514544",
"`  c #504B45",
"'  c #504B47",
"]  c #504D46",
"[  c #514E47",
"{  c #504D46",
"}  c #504D48",
"|  c #514E49",
" . c #524F4A",
".. c #534E4A",
"X. c #544F49",
"o. c #544F4B",
"O. c #524F4A",
"+. c #5A4C4C",
"@. c #535049",
"#. c #53504B",
"$. c #54514A",
"%. c #55504A",
"&. c #55524B",
"*. c #52514C",
"=. c #53524D",
"-. c #54514C",
";. c #56534C",
":. c #56534E",
">. c #55554D",
",. c #57544D",
"<. c #57544F",
"1. c #53524D",
"2. c #58554C",
"3. c #58554E",
"4. c #59564F",
"5. c #565550",
"6. c #595651",
"7. c #5A5750",
"8. c #585752",
"9. c #595951",
"0. c #5B5851",
"q. c #5C5952",
"w. c #5D5A53",
"e. c #5B5A55",
"r. c #5C5954",
"t. c #5D5A55",
"y. c #5E5B54",
"u. c #5E5B56",
"i. c #5F5C57",
"p. c #5D5D55",
"a. c #5D5A53",
"s. c #7F4155",
"d. c #7A445A",
"f. c #73485B",
"g. c #605B55",
"h. c #615E57",
"j. c #605D58",
"k. c #625F5A",
"l. c #61605B",
"z. c #6B6660",
"x. c #6A6762",
"c. c #6C6761",
"v. c #EF060A",
"b. c #F60405",
"n. c #FE0001",
"m. c #F2060A",
"M. c #F90308",
"N. c #803647",
"B. c #8C3646",
"V. c #803A46",
"C. c #8B3847",
"Z. c #84374A",
"A. c #8D3649",
"S. c #84394B",
"D. c #8C3A4C",
"F. c #963544",
"G. c #9A3545",
"H. c #933947",
"J. c #943749",
"K. c #993348",
"L. c #93394A",
"P. c #853D52",
"I. c #893D51",
"U. c #814256",
"Y. c #814158",
/* pixels */
"# # # # O O O             # # % # O O       O   # # # # # O O         O           # % o O       O O O O O       # % # # ",
"# # # # > > > < < < < < < # # # # & > < < < < < & # # # & > > , < < < < < < < < < # # - > < < < , > > , < < < 2 # # # # ",
"# #   > a h c =.e.6.4.w.l.,     o r j j.6.6.r.x.g       8 f l H 0.0.w.r.w.0.4.0.x.r   8 h 0.i.i.$.z c z $.w.0.x.r   # # ",
"# # > 8 h c E @.<.;.4.] } 8 > 2 r j L 4.;.<.` o.j < < > a h C ~ <.} ~ ~ ~ @.<.} } d < a h ~ ~ ` K j L L =.5.} @.f < # # ",
"O > h j B $.g.;.$.;.4.U c h f L } i.0.$.$.;.n j n o.j a k M 0.0.<.~ c c l ;.r.( j B ~ L n c c c m c } h.>.<.~ h n } <   ",
"X % 9 t f k R @.<.;.r.j r e 9 a j L ~ <.;.;.j a g f a i j n L E w.n 8 a f N ~ c a h f f f h f t i f c U } r.L a f h > O ",
"# # < 8 i f k ] <.<.j.f % , 5 r a j L 6.<.6.f r t i a i j n j m j.c % 8 a h n h r i t t t a t > 8 t h k } r.n r i a & O ",
"# # 5 e i h c ] 4.( L i , 6 5 6 8 a h L n L r 6 2 > 2 e i f c c R f , 7 6 a f t 5 6 e , > , > - , 7 t f c ~ f 5 > > # # ",
"# % 6 r s l c =.w.] n i 4 7 6 5 6 t f c c c e 4 , O , 7 r a n n n f , 6 4 i f r 4 6 6 - # # # = & 5 t a l L f 5 -   # # ",
"# # > 2 6 a j L @.n j e > , , 4 6 i f n j j 6 , > # > , 9 t h j j i 4 , , 6 e 5 , < , > - % % = > , 7 u a h t , - # # # ",
"# # O # O 6 a l n h f 2 + # = 5 e i h L f a > @ # - = # , 6 i a a t 7 > # # # # o # o # % % & # # # , 7 > > ; # # # # # ",
"# # # # # 5 e a j t < > # = = > , e i l r , > - > ; > = > > 9 e r 6 > > - - # , r 6 8 8 8 & # > - % > > e t r e > O # # ",
"# # # # # , 6 t f 2   % > - - = > 2 9 f < O > * > ; - = # # , 5 6 , # % > % # 5 h a f f a % % - - % # # r f a h ,   # # ",
"# # # # - > > > , > & % > % = = - > > , > - > > > > - % 0 t i r > & % - % , 4 5 6 t a a i t 7 % > # , 2 t a i a r r > # ",
"# # # # > % # # # % > > > % - % # = # # - , % > > > > % t h f r % > & > % < 7 5 , r a i i f i % > % , 7 t a i a s h > O ",
"% # X # & - % # # % - % # 2 6 # # - - - , 7 , - ; # , 6 t a i i i 6 # , 6 6 5 5 , r i h l v h # , 7 5 < r i s l l v > O ",
"# # # # - > > > , , , , # < 6 > > % - - 1 5 > & > & , 6 t a a a h e o , 7 6 5 6 6 t a l c h y # > 5 6 8 i s h c h h > O ",
"# # - % % , 7 a f s f 5 . # > h a . # % % % % % , e 6 , r a j c _ a . , 9 4 < 8 i f c v c , # = % # e h c B v U 8 . # # ",
"# # % & % , 6 e r t d 9 < > - 7 8 2 < < 6 5 > % , , 6 e a f x h a 6 # , , 7 8 t h h c s r > % - - # 2 e t p i i 5 % # # ",
"# # - > # , 8 4 , 6 y a f < - . & h f s s f , # # # 8 a l c Y h . # % # # t h j Y v H , . # # # # # + O # % % # % , # # ",
"# # # % % > > q r i l g h , # > 5 8 r a i a , % - # t l c l e 5 & > > # % < 5 6 e q e > & 6 8 8 e 6 7 e , % > > % # # # ",
"# # X % > & D S.S.h c c B < # 6 7 , 8 a i i 5 , A S.F _ c j % # % - - % # # # # # % # % > a f a a s s f , o % , # O # # ",
"% # # # # % S.S.P.r Y r , & & 5 6 t s l h l , % P.P.P.6 5 < % > t r t r r 6 < > - > % , 6 t a a i a i a r t 6 % % # # # ",
"# # # - % , A.L.B.r +.r O - > , 6 t f c l v 6 , B.J.A., % % + > f s a s f 9 7 < - - % 2 7 a a a a i a i a f 8 # # X # # ",
"# # - A F B.m.b.m.B.S.N.; - & 7 r s h l x S.P.B.v.b.m.B.S.S 5 6 i a i i i < < > , > - 2 7 r t a a a i a i a r 5 > # # # ",
"# # - D.P.J.n.n.n.D.U.P.> # > f h c x j c P.U.D.n.n.n.D.U.P.g h i t t a f > + , 9 , % 2 6 , 6 a a y a i i i a h 7 % # # ",
"# # % S.P.J.M.n.b.F.D.B.3 , , 5 e v x c s A.A.G.b.n.b.G.D.B.u u a d l r 2 > - > > > # 4 6 < 6 8 r a i t a i a a 5 % # # ",
"% # % S.P.J.b.n.n.n.M.m.B.F Z.S.S.S.D.P.B.m.M.b.n.n.n.b.b.m.B.P.S.h Y 7 . % > % % # # 2 6 6 5 , 8 a t y i t i a 2 % # # ",
"# # # Z.P.J.n.n.n.n.n.n.D.Y.P.P.P.P.P.s.D.n.n.n.n.n.n.n.n.n.J.P.D.x v e . e y r r 2 % > > 1 6 t a l h j h h j c q % # # ",
"# # % S.P.L.b.n.n.n.n.b.G.D.H.J.L.J.L.D.G.b.n.n.n.n.n.n.n.b.L.S.D.x c 6 . t f s h 6 % = # 6 7 a h c c x c c l c 7 % # # ",
"# % 7 S.P.J.M.n.n.n.n.n.M.M.b.b.b.b.b.M.b.n.n.n.n.n.n.n.n.b.J.I.V., & , 2 r t f U e % - , t f c c l l l c H a % # X # # ",
"X % e S.P.L.n.n.n.n.n.n.n.n.n.n.n.n.n.n.n.n.n.n.n.n.n.n.n.b.L.P.S.- # , 8 a s s l 7 % ; , r t s h l l l h h e . # # # # ",
"o # e S.P.L.b.n.n.n.n.n.n.n.n.n.n.n.n.n.n.n.n.n.n.n.n.n.n.M.L.P.S., O 8 h c _ a . - , % % % # O 0 _ c B 1 % % # - # % # ",
"# # 5 D.P.H.b.n.n.n.n.n.n.n.n.n.n.n.n.n.n.n.n.n.n.n.n.n.n.n.L.P.Z., > 6 e t a 0 % & % 2 6 6 1 # 5 a t i > * D S.S % # # ",
"# # # F U.A.M.n.n.n.n.n.n.n.n.n.n.n.n.n.n.n.n.n.n.n.n.n.n.b.A.s.S., 9 > O # # = % # # t f f t % % # % % # % P.P.P.O # # ",
"- - ; A.D.F.b.n.n.n.n.n.n.n.n.n.n.n.n.n.n.n.n.n.n.n.n.n.n.M.G.A.B.q , , ; , * , 5 7 8 t a a t e 5 % > ; 7 u B.L.A.r % % ",
"A S.B.m.M.b.n.n.n.n.n.n.n.n.n.n.n.n.n.n.n.n.n.n.n.n.n.n.n.n.b.b.m.A.F S.S.S.S.S.S.V.h a i y a f e % ; A P.C.m.b.m.A.P.A ",
"D.P.H.n.n.n.n.n.n.n.n.n.n.n.n.n.n.n.n.n.n.n.n.n.n.n.n.n.n.n.n.n.n.D.U.P.I.P.P.P.P.P.7 i a y i s 7 # , P.s.A.n.n.n.H.P.D.",
"S.I.H.b.n.n.n.n.n.n.n.n.n.n.n.n.n.n.n.n.n.n.n.n.n.n.n.n.n.n.b.n.m.G.D.H.H.L.H.J.L.B.7 u s t i f e + 7 A.A.F.m.b.m.L.F D ",
"Z.P.L.M.n.n.n.n.n.n.n.n.n.n.n.n.n.n.n.n.n.n.n.n.n.n.n.n.n.b.J.I.G.m.M.b.n.b.b.M.b.m.B.P.S.h a r N.F B.m.M.m.G.D.A.s > # ",
"S.P.L.M.n.n.n.n.n.n.n.n.n.n.n.n.n.n.n.n.n.n.n.n.n.n.n.n.n.M.P.f.D.n.n.n.n.n.n.n.n.n.L.U.P._ l . P.U.D.n.n.n.D.U.P.. # o ",
"Z.P.J.M.n.n.n.n.n.n.n.n.n.n.n.n.n.n.n.n.n.n.n.n.n.n.n.n.n.b.F.I.K.b.n.n.n.n.n.n.n.b.G.D.A.u 6 5 B.D.G.m.M.m.B.S.F % # # ",
"S.P.L.b.n.n.n.n.n.n.n.n.n.n.n.n.n.n.n.n.n.n.n.n.n.n.n.n.n.n.n.M.M.n.n.n.n.n.n.n.n.n.b.b.m.A.G B.m.b.m.G.D.B.; - % X # # ",
"S.P.J.b.n.n.n.n.n.n.n.n.n.n.n.n.n.n.n.n.n.n.n.n.n.n.n.n.n.n.n.n.n.n.n.n.n.n.n.n.n.n.n.n.n.A.d.D.n.n.n.A.Y.P.7 % # # # # ",
"S.P.J.M.n.n.n.n.n.n.n.n.n.n.n.n.n.n.n.n.n.n.n.n.n.n.n.n.n.n.n.n.n.n.n.n.n.n.n.n.n.n.n.n.b.G.I.G.m.b.m.B.P.S.r - # X # # ",
"S.P.J.n.n.n.n.n.n.n.n.n.n.n.n.n.n.n.n.n.n.n.n.n.n.n.n.n.n.n.n.n.n.n.n.n.n.n.n.n.n.n.n.n.n.n.b.m.G.D.B.s a a i a >   # # ",
"D.I.J.b.n.n.n.n.n.n.n.n.n.n.n.n.n.n.n.n.n.n.n.n.n.n.n.n.n.n.n.n.n.n.n.n.n.n.n.n.n.n.n.n.n.n.n.n.A.P.P.p i i a f 6 # # # ",
"A F A.m.b.b.n.n.n.n.n.n.n.n.n.n.n.n.n.n.n.n.n.n.n.n.n.n.n.n.n.n.n.n.n.n.n.n.n.n.n.n.n.n.n.b.M.m.B.P.F 6 t a y i y s > O ",
"# > w A.D.G.b.n.n.n.n.n.n.n.n.n.n.n.n.n.n.n.n.n.n.n.n.n.n.n.n.n.n.n.n.n.n.n.n.n.n.n.n.n.b.G.D.B.7 7 7 4 t i a f f f > O ",
"X % 7 P.Y.D.n.n.n.n.n.n.n.n.n.n.n.n.n.n.n.n.n.n.n.n.n.n.n.n.n.n.n.n.n.n.n.n.n.n.n.n.n.n.n.D.U.P., 7 4 < r t s c c c > O ",
"# # , N.G B.m.b.n.n.n.n.n.n.n.n.n.n.n.n.n.n.n.n.n.n.n.n.n.n.n.n.n.n.n.n.n.n.n.n.n.n.b.M.m.B.S.A , 6 9 r f h h l l c > O ",
"# # # , e q A.I.G.b.n.n.n.n.n.n.n.n.n.n.n.n.n.n.n.n.n.n.n.n.n.n.n.n.n.n.n.n.n.n.n.M.G.I.A.6 , - , 6 t a l c l l l c > O ",
"# # X > 7 6 P.s.A.n.n.n.n.n.n.n.n.n.n.n.n.n.n.n.n.n.n.n.n.n.n.n.n.n.n.n.n.n.n.n.n.b.D.U.P.> & % & # t c l l l l l c > O ",
"# # X > e 6 N.S.B.m.b.M.n.n.b.b.n.M.n.M.M.n.n.n.n.n.n.n.n.n.M.b.M.n.n.n.b.M.b.n.n.M.J.P.S., & & & O a _ l l l l c Y , O ",
"# # + % , 6 r s l C.J.J.L.L.H.L.J.L.H.D.G.M.n.n.n.n.n.n.n.M.F.P.G.b.n.b.K.I.K.M.n.b.L.P.Z.> % % & # 6 i h c l c s u - O ",
"# # # # + 8 j x c P.P.P.P.P.I.P.S.P.P.U.D.n.n.n.n.n.n.n.n.n.L.d.D.n.n.n.A.d.A.n.n.n.J.P.D.% # > - , % + h Y v _ e . # # ",
"# # # # # , 2 h v S.D.S.S.Z.S.S.S.S.D.P.L.m.M.b.b.M.b.n.M.M.L.U.L.M.b.m.A.s.C.m.b.m.B.F D % # # # # % & 6 e q r , # # # ",
"# # # # # # + g B c Y 7 . % % % % ; S.D.I.L.L.J.L.J.J.L.L.L.D.D.D.L.J.A.v v v A.L.A.$ % # # # # # . # > % # % % # X % # ",
"# # # # # # # & , > , # # # # # # % D.D.D.P.P.P.P.P.P.P.P.P.D.D.D.I.P.P., > , P.P.P.# # # # # # # # # # # # # # # # # # ",
"# # # # # # # O O O O X # # # # # % A Z.S.S.S.S.S.S.Z.S.S.Z.S.S.S.S.S.A # O # A S.A > # # # # # # # # # # # # # # # # # "
};
