/* XPM */
static char *xpm_[] = {
/* columns rows colors chars-per-pixel */
"60 60 184 2 ",
"   c #020202",
".  c #0A0606",
"X  c #060807",
"o  c #0A0906",
"O  c #060609",
"+  c #0A0709",
"@  c #070909",
"#  c #0C0B0C",
"$  c #120D0D",
"%  c #110F02",
"&  c #0F1000",
"*  c #0E100E",
"=  c #131304",
"-  c #13110F",
";  c #19110D",
":  c #1B1C0D",
">  c #0E0D11",
",  c #130E10",
"<  c #180F11",
"1  c #0D1012",
"2  c #151212",
"3  c #1B1515",
"4  c #1C1B14",
"5  c #141619",
"6  c #1C1719",
"7  c #141819",
"8  c #1D1A1A",
"9  c #211917",
"0  c #201719",
"q  c #231C1B",
"w  c #291E1D",
"e  c #231717",
"r  c #1E2013",
"t  c #212215",
"y  c #25211E",
"u  c #29221E",
"i  c #292A1E",
"p  c #241F20",
"a  c #281F20",
"s  c #262121",
"d  c #2B2523",
"f  c #2E2926",
"g  c #2F2B28",
"h  c #302624",
"j  c #312A26",
"k  c #302728",
"l  c #332D2A",
"z  c #382E2D",
"x  c #303024",
"c  c #36322D",
"v  c #39322E",
"b  c #373332",
"n  c #3C3432",
"m  c #3E3935",
"M  c #3F3D39",
"N  c #7B132C",
"B  c #413636",
"V  c #413936",
"C  c #433739",
"Z  c #443B39",
"A  c #493E3D",
"S  c #45413D",
"D  c #45413D",
"F  c #48423F",
"G  c #4A413D",
"H  c #484540",
"J  c #4A4641",
"K  c #4C4743",
"L  c #4C4342",
"P  c #4E4A45",
"I  c #4D4943",
"U  c #524645",
"Y  c #514C46",
"T  c #524F4A",
"R  c #514E49",
"E  c #544F4A",
"W  c #524F4A",
"Q  c #53504A",
"!  c #54514A",
"~  c #55524B",
"^  c #56534C",
"/  c #55524D",
"(  c #57544D",
")  c #53524D",
"_  c #58554E",
"`  c #595751",
"'  c #5B5851",
"]  c #595951",
"[  c #5D5A53",
"{  c #5D5A55",
"}  c #5D5B55",
"|  c #565550",
" . c #615D56",
".. c #615E59",
"X. c #61605B",
"o. c #6B6761",
"O. c #656B6B",
"+. c #6A6D6D",
"@. c #6A706E",
"#. c #6A6E71",
"$. c #666E71",
"%. c #6E7375",
"&. c #6F7579",
"*. c #707474",
"=. c #747877",
"-. c #74767A",
";. c #757A7C",
":. c #797C7D",
">. c #883547",
",. c #89344A",
"<. c #873645",
"1. c #965062",
"2. c #985064",
"3. c #7D807E",
"4. c #757C81",
"5. c #7A7E82",
"6. c #7C8283",
"7. c #7A858A",
"8. c #838785",
"9. c #82878A",
"0. c #81898B",
"q. c #898B88",
"w. c #838F95",
"e. c #859197",
"r. c #8E9DA4",
"t. c #EECDB6",
"y. c #EAC7B1",
"u. c #EFD0B4",
"i. c #F6D6BF",
"p. c #F7DCBE",
"a. c #FADDBE",
"s. c #F8D1B2",
"d. c #FEE0BE",
"f. c #A6B4C2",
"g. c #A8B4C2",
"h. c #ADBDCB",
"j. c #B2BFCF",
"k. c #B1C0CE",
"l. c #B3C2D2",
"z. c #B7C9D7",
"x. c #B9C9D6",
"c. c #B7C6D9",
"v. c #BAC7D8",
"b. c #B7C8D9",
"n. c #BCCCDC",
"m. c #BED0DE",
"M. c #BED0E1",
"N. c #C1CEDF",
"B. c #C1D3DF",
"V. c #CADBDE",
"C. c #FDDDC3",
"Z. c #FFEAC8",
"A. c #FFE7C4",
"S. c #C3D4E4",
"D. c #C7D9E7",
"F. c #CADBE3",
"G. c #C6D6E8",
"H. c #C7D8E8",
"J. c #CDDFF1",
"K. c #CFE4E9",
"L. c #D2E4EB",
"P. c #D6EAEE",
"I. c #DAECEF",
"U. c #DCE7ED",
"Y. c #D7EBF1",
"T. c #DAECF2",
"R. c #D5E8F9",
"E. c #DEF2F6",
"W. c #DEF1F8",
"Q. c #DFF8FF",
"!. c #EAF0EE",
"~. c #E1EEF4",
"^. c #E1EFF8",
"/. c #EDEEF0",
"(. c #E3F3F4",
"). c #EBF1F3",
"_. c #E8F8F7",
"`. c #E3F6FC",
"'. c #E8F7FE",
"]. c #E5F9FF",
"[. c #EBFEFE",
"{. c #E4F8F6",
"}. c #F2FFFE",
"|. c #FCFFFE",
/* pixels */
"# # # # . . .             # # $ # . .       .   # # # # # . . O       .           # $ X .       . .   .         # $ # # ",
"# # # # 2 2 2 4 4 8 4 4 8 # # # # - 2 4 4 8 4 4 - # # # - 2 2 3 4 8 4 4 4 4 8 8 8 # # , 2 4 4 8 3 2 2 3 7 8 8 8 # # # # ",
"# #   2 l n Z ) { ` _ [ X.3     o d M ..` ` { o.b       y v V H ' ' [ { [ ' _ ' o.d   y n ' } ..! V Z V ! [ ' o.s   # # ",
"# # 2 y n Z I Q ( ^ _ Y T y 2 8 d m J _ ^ ( Y E m 4 8 3 l n F P ( T P P P ! _ T E c 4 l n P P Y H m H J ) | Q Q v 4 # # ",
". 2 n m F Q  .^ ! ^ _ K Z n v J T } ' ! ! ^ S m S E m l M F ' ' ( P Z Z V ^ { P m F P J S Z Z Z D Z T ..( ( P n S T 4   ",
"X $ u f v M K Q ( ^ { m d s u l m J P ( ^ ^ m l b v l j m D J I [ S y l v D P Z l n v v v n v f j v Z K E { J l v n 2 . ",
"# # 4 y j v M Y ( ( ..v $ 3 0 d l m J ` ( ` v d f j l j m D m D ..Z $ u l n S n d j f f f l f 3 y f n M T { S d g l - . ",
"# # 0 s j n Z Y _ P J j 3 q 0 q y l n J S J d q 8 2 8 s j v Z Z K v 3 w q l v f 0 q s 3 2 2 2 , 3 w f v Z P v 0 3 2 # # ",
"# $ q d z V Z ) [ Y S j 9 w q 0 q f v Z Z Z s 9 3 O 3 w d l S S S v 3 q 9 j v d 9 q q , # # # > - 0 f l V J v e ,   # # ",
"# # 2 8 q l m J T S m s 2 3 3 9 q j v S m m q 3 2 # 2 3 u f n m m j 9 3 3 q s 0 3 4 3 2 , $ $ > 2 3 w h l n f 3 , # # # ",
"# # . X . q l V S n v 8 + # > 0 s j n J v l 2 # # , > # 3 q j l l f w 2 # # # # o # X # $ $ - # # # 3 w 3 3 < # # # # # ",
"# # # # # 0 s l m f 6 2 $ > > 2 3 s h V d 3 2 , 2 < 2 > 2 3 u s d q 2 2 , , # 3 d q y y y - # 2 , $ 2 2 s f d s 2 . # # ",
"# # # # # 3 q f v 8 O $ 2 , , > 2 8 u v 8 . 2 ; 2 < , > # # 3 0 q 3 # $ 2 $ # 0 n l v v l $ $ , , $ # # d v l n 3   # # ",
"# # # # , 2 2 2 3 2 - $ 2 $ > > , 2 2 3 2 , 2 2 2 2 , $ p f j d 2 $ $ , $ 3 9 0 q f l l j f w $ 2 # 3 8 f l j l d d 2 X ",
"# # # # 2 $ # # # $ 2 2 2 $ , $ # > # # , 2 $ 2 2 2 2 $ f n v d $ 2 - 2 $ 4 w 0 3 d l j j v j $ 2 $ 3 w f l j l z n 2 . ",
"$ # X # - , $ # # $ , $ # 8 q # # , , , 3 w 2 , < # 3 q f l j j j q # 3 q q 0 0 3 d j n B A n # 2 w 0 4 d j z V V A 3 . ",
"# # # # $ 2 2 3 3 3 3 2 # 6 9 3 2 $ , , 3 0 2 $ 2 2 3 q f l l l n s o 3 w q 0 q q f l B Z n g # 2 0 q y j z n Z n n 2 . ",
"# # , , $ 3 q l v l v 8 # # - n j . $ # $ $ $ $ 3 s 0 4 d l n Z U l . 3 u 9 4 y j v Z A Z 2 # > $ # s n Z F A K y . # # ",
"# # , , # 3 w s d f l y 8 2 2 w y 8 8 4 q q 2 # 2 3 q s l n B n l q # 3 3 w y f n n Z z d 2 $ , , # 8 s f k j j 0 $ # # ",
"# # 2 , # 3 a 9 2 w j j v 0 $ . - n v v z v 3 # $ # q v B Z L n . # $ # # f n m L A H 3 . # # # # # + . # $ $ # $ 3 # # ",
"# # # # , 2 3 s f g n v n 3 $ 3 9 y d l j l 3 $ , # d B B B s q - 2 2 $ # 4 0 q s a s 2 - q y y s q w s 2 $ 2 2 $ # # # ",
"# # X # 2 $     . z Z Z A 4 # q w 3 y l j j 3 ,       A Z m $ $ $ , , $ # # # # # $ # $ 2 l v l l z z v 3 o $ 3 # . # # ",
"# # # # # #       s L d 3 2 $ 0 q f l B n V 3 #       8 3 4 $ 2 f d f d d q 4 3 , , $ 3 q f l l j l j l d f q $ $ # # # ",
"# # # # # # # * # 8 Y w . $ 2 3 q f v Z Z V 3 # . # . $ # X . 2 v z l z z u w 4 , , $ 8 w l l l l j l j l v y # # X # # ",
"# # #     > V.).F.#     $ , $ w d v n V n X   # O.5.O.O     3 q j j j l l 0 3 3 3 2 , 8 w d f l l l j l j l d 0 2 # # # ",
"> # #     * `.|.Q.      2 # 2 z n Z Z n Z       %.0.%.      v v g j f l n 2 . 2 u 3 $ 8 q 3 q l l j l j j j l n w $ # # ",
"# # #     # P.|.P.8 > # $ $ # 3 w m n V d + X # =.q.;.$ . # q s f z V d 3 2 $ 2 3 2 # 9 q 4 q y d l j f l j l l 0 $ # # ",
"# # X     $ t.A.C.P.(.F.#               + #.%.;.t.p.t.=.&.+.+   . l L w . , - $ $ # # 8 q q 0 3 y l f j j f j l 8 $ # # ",
"# # O     $ s.A.d.|.|.[.#                 %.;.3.a.Z.C.8.6.=.O     n G w + w f d d 8 $ 2 2 6 q f l V n m n n m Z a $ # # ",
"# # X     # y.p.i.~._.L.2 . . > * 1 # # 3 ;.6.9.u.p.u.3.4.%.X     n Z q # f v z n q $ > # 0 w l n Z Z C Z Z B Z w $ # # ",
"# # 4     X ;.8.:.6.6.6.%.+.=.K.I.Y.Y.P.Y.E.'.Y.8.:.:.;.5.%..     2 $ 3 8 d f v K s # , 2 f v Z Z B B B Z H l $ # X # # ",
"X # q     X $.;.&.%.%.*.=.%.6.[.}.}.}.}.}.[.}.[.=.O.#.%.;.+..     # # 6 s j c z B w $ , 3 s f z n B B B n n s + # # # # ",
"# # q     O %.6.;.=.=.;.6.:.0.W.[.].W.W.E.W.'.Y.0.:.6.6.8.;..     $ O s v V U j . $ 2 $ $ $ $ O w U Z F 3 # # X # # # # ",
"# # 3     . %.6.;.=.%.6.Y.{.(.].[.W.0.;.6.6.;.0.Y.`.E.E._.L.#     2 2 8 y f z w $ - , 8 q q 8 # 3 l h j 3 $       # # # ",
"# # +       %.6.;.*.+.;.`.}.[.[.[.'.:.+.%.*.+.5.[.}.}.[.}.T..     2 h 2 O # # $ $ # + f v n f $ $ # $ $ o $         # # ",
"# # + X X > %.5.;.6.;.0.E.[.].W.{.P.6.*.;.;.%.6.Y.{.(.].[.Y.8 > > 3 - , $ $ $ 2 3 8 a j l j f y 0 2 $ $ 0 q + X + 8 # # ",
"    . O.;.%.;.*.6.Y.{.E.].[.(.0.:.6.=.=.;.;.=.=.6.:.0.W.[.'.T.(.F.1                 v l f j l v u $ $   O # +.:.+.#     ",
"    X 5.0.7.:.=.9.`.}.[.].[.E.:.+.*.5.5.:.5.5.:.%.+.;.W.[.].[.|.`..                 q j l j l c w # 3       :.e.:.#     ",
"    X +.=.*.*.+.;.W.[.].'.[.E.6.*.=.*.*.*.*.%.*.=.*.6.E.[.].].[.P.8 # # * * # 2 > 1 2 d f f f v p   3 , # 5 +.5.+.#     ",
"      t y t t : x Y.[.'.].[.E.6.=.&.i t t t t i -.=.6.W.[.].].[.`.l.h.l.P.T.Y.Y.~.V.> O . l l w     > F.).F.2 X # s # X ",
"      o % & =   4 Y.}.].[.}.`.;.%.+.: = ; = = : #.%.;.^.[.].].[.'.H.S.D.[.}.[.}.|.`..     L m .     . [.|.[.#     . # # ",
"      i i i i t v T.[.].~.(.U.9.6.;.i 4 t t r i ;.5.0.(.[.].].[.`.n.b.m.`.[.].].[.Y.8 # # w 0 $ # # 8 D.).F.*     # # # ",
"    > F.(.T.T.Y.T.].[.~.2.>.1.P._.P.;.@.*.*.#.:.P.{.E.].`.].].].'.m.b.m.`.].].].[.`.l.z.f.#   # D./.F.8 > # # $ # X # # ",
"    2 `.|.}.}.[.[.].[.~.<.N ,.`.}.'.6.%.=.-.%.6.'.[.[.].].].].].`.n.c.n.`.[.].].[.'.D.J.z.    . [.|.[..     0 $ # # # # ",
"    # P.}.].].].].].[.(.1.,.1.E.}.E.0.;.6.6.;.0.E.[.].].].].].[.`.B.b.S.`.].].].[.`.M.S.l.7 # 4 F.!.F.*   . y < $ # # # ",
"    * P.}.].].].].].].'.~.~.~.].'.].(.T.E.W.E.W.].].].].].].].].].`.`.`.].].].].].`.n.n.b.k.n.f.8 # , f h f j l 3   # # ",
"    * `.|.[.].].].[.[.}.}.}.}.}.}.[.[.[.[.[.[.[.].].].].].].[.].[.].].[.].].].[.[.].N.b.n.J.R.S.      d f j g b 8 # # # ",
"    # F.(.P.`.].].I.Y.T.Y.T.T.T.Y.T.`.].].].].].].].].].].].`.`.'.].].].].].].`.].`.n.b.n.k.b.f.#     6 f l f f g z - . ",
"# # 9 # # 8 Y.|.T.c t i f i i i t c T.[.].].].].].].].].].'.S.b.B.'.].].`.[.`.S.n.n.n.G.l.5 # # 3 q 0 9 j j l v v n 2 . ",
"X $ w     O `.|.`.t o = = = = = o t P.[.].].].].].].].].[.].n.c.n.].[.].[.[.].n.v.n.G.L.z.      2 w 0 4 d f v Z Z Z 2 . ",
"X $ 2     > V.).F.i = 4 4 4 : : = i T.}.].].].].].].].`.].`.m.c.m.`.].`.`.'.`.m.b.n.l.b.g.#     2 q w d v n m B B Z 2 . ",
"@ # # 2 0 4 1 # 1 : 4 4 4 4 4 4 = i Y.[.].].].].].[.`.S.n.n.n.n.n.n.m.n.n.m.n.b.S.k.5 # # 2 $ # 2 q f z B Z Z B B Z 2 . ",
"# # # ; w 0       4 t 4 t 4 r 4 = i T.}.[.].[.].].[.'.n.c.b.n.n.n.n.n.n.S.S.S.n.G.h.      2 2 $ $ # f V B B B V B Z 2 . ",
"# # . - s 9       : 4 4 : 4 4 : = i P.[.`.`.'.'.`.].`.n.b.n.n.n.n.n.b.b.k.k.k.n.G.k.#     $ $ - $ O l U V B B B Z L 3   ",
"# # # - 3 q s j l                 # l.D.m.n.n.n.n.m.n.n.n.n.n.M.b.r.r.w.2 > 5 l.J.l.>     # # , - # p j n Z B Z z h , . ",
"# # # # @ s n V C                 # b.J.S.S.S.S.S.S.S.G.G.G.G.D.S.r.r.w.      b.R.z.#     # # 2 2 2 $ + n L A K s . # # ",
"# # # # # 3 8 n B .               # f.b.k.l.j.k.k.k.k.k.l.k.k.l.h.w.e.7.#   # f.S.g.#     # # # # # $ - q s a d 3 # # # ",
"# # # # # # + b G B Z 0   X # + X X # # # # # # # # # # # # # # # # # # n m n # # #   X # $ # X # . # 2 $ # $ $ # # $ # ",
"# # # # # # # - 3 2 3 # # # # # # #                                     2 2 2       # # # # # # # # # # # # # # # # # # ",
"# # # # # # # . . . . X # $ # # # #                                         .       # # # $ # # # # # # # # # # # # # # "
};
