/* XPM */
static char *xpm_[] = {
/* columns rows colors chars-per-pixel */
"60 60 189 2 ",
"   c #020202",
".  c #0A0606",
"X  c #060806",
"o  c #0B0906",
"O  c #060609",
"+  c #0A0709",
"@  c #070909",
"#  c #0C0B0C",
"$  c #110E01",
"%  c #120D0D",
"&  c #0E100E",
"*  c #0E1100",
"=  c #151405",
"-  c #13110E",
";  c #1B1A0D",
":  c #1A100F",
">  c #0E0D10",
",  c #130E11",
"<  c #180F10",
"1  c #0E1111",
"2  c #151212",
"3  c #1B1515",
"4  c #161817",
"5  c #1C1A15",
"6  c #151619",
"7  c #1C1618",
"8  c #16191B",
"9  c #1D1A19",
"0  c #221716",
"q  c #211917",
"w  c #201719",
"e  c #231C1B",
"r  c #281E1D",
"t  c #1F2114",
"y  c #212316",
"u  c #25211E",
"i  c #29211E",
"p  c #27291E",
"a  c #292A1D",
"s  c #1B1C20",
"d  c #241E21",
"f  c #281F21",
"g  c #262121",
"h  c #2B2523",
"j  c #2D2925",
"k  c #2F2929",
"l  c #302625",
"z  c #312A27",
"x  c #302728",
"c  c #332D2A",
"v  c #392F2D",
"b  c #303024",
"n  c #36312D",
"m  c #39322E",
"M  c #33392D",
"N  c #373332",
"B  c #3C3432",
"V  c #3E3935",
"C  c #3F3D39",
"Z  c #771429",
"A  c #413635",
"S  c #423936",
"D  c #413738",
"F  c #443B3A",
"G  c #493E3D",
"H  c #45413D",
"J  c #45413D",
"K  c #48423F",
"L  c #4A413E",
"P  c #484540",
"I  c #4A4641",
"U  c #4C4341",
"Y  c #4E4A45",
"T  c #4D4943",
"R  c #524544",
"E  c #504D46",
"W  c #524E4A",
"Q  c #544F4A",
"!  c #524F4A",
"~  c #594E4C",
"^  c #53504A",
"/  c #54514A",
"(  c #56534C",
")  c #55524D",
"_  c #57544D",
"`  c #53524D",
"'  c #58554E",
"]  c #595751",
"[  c #5B5851",
"{  c #595951",
"}  c #5D5A53",
"|  c #5D5A55",
" . c #5D5B55",
".. c #565550",
"X. c #615D56",
"o. c #615E59",
"O. c #61605B",
"+. c #6B6761",
"@. c #656C6D",
"#. c #6A6D6E",
"$. c #696D71",
"%. c #677172",
"&. c #6E7475",
"*. c #6C7678",
"=. c #717475",
"-. c #797876",
";. c #717579",
":. c #757B7C",
">. c #797D7E",
",. c #777976",
"<. c #893448",
"1. c #8A3645",
"2. c #93515F",
"3. c #975262",
"4. c #7C807E",
"5. c #777E81",
"6. c #797E81",
"7. c #7B8283",
"8. c #77838B",
"9. c #838686",
"0. c #838689",
"q. c #83898B",
"w. c #818F98",
"e. c #829098",
"r. c #8D9393",
"t. c #8B9AA1",
"y. c #95A6AD",
"u. c #9BAAB1",
"i. c #EAC8AD",
"p. c #FBD0AE",
"a. c #EECEB7",
"s. c #EBCFB9",
"d. c #F0CEB2",
"f. c #EFD0B4",
"g. c #F6DCBD",
"h. c #FFDDBE",
"j. c #F4D6BC",
"k. c #A6B4C3",
"l. c #ABB9C8",
"z. c #B0BDCD",
"x. c #AFC1CF",
"c. c #B1C0CF",
"v. c #B3C2D2",
"b. c #B6C8D6",
"n. c #B6C6D9",
"m. c #B7C8D8",
"M. c #BCCCDC",
"N. c #B8C7DA",
"B. c #BED0DE",
"V. c #BFCEE1",
"C. c #BED0E1",
"Z. c #C1CEDE",
"A. c #CBDBDF",
"S. c #C6DBDE",
"D. c #FADCC2",
"F. c #FEE6C3",
"G. c #FFEDCC",
"H. c #C3D4E4",
"J. c #C6D9E4",
"K. c #CADCE3",
"L. c #C4D6E8",
"P. c #C7D9EA",
"I. c #CDDEEE",
"U. c #D0DDEE",
"Y. c #CDDEF0",
"T. c #CEE0EF",
"R. c #D2E3E9",
"E. c #DAE7EC",
"W. c #D6EAEE",
"Q. c #D9EAEE",
"!. c #D0E3E7",
"~. c #CEE1F2",
"^. c #D7EBF1",
"/. c #D9ECF2",
"(. c #D9EBFF",
"). c #D0E1F3",
"_. c #DEF1F6",
"`. c #DEF2F9",
"'. c #EBEFEE",
"]. c #E7F1EF",
"[. c #E1EEF5",
"{. c #E3F3F4",
"}. c #EBF3F4",
"|. c #E3F6FC",
" X c #E5F9FE",
".X c #EBFEFE",
"XX c #E6F5FB",
"oX c #F2FFFE",
"OX c #FCFFFE",
/* pixels */
"# # # # . . .             # # % # . .       .   # # # # # . . O       .           # % X .       . .   .         # % # # ",
"# # # # 2 2 2 5 5 9 5 5 9 # # # # - 2 5 5 9 5 5 - # # # - 2 2 4 5 9 5 5 5 5 5 5 9 # # , 2 5 5 9 3 2 2 4 6 9 9 9 # # # # ",
"# #   2 c B F ` | ] ' } O.3     o h C o.] ] | +.N       u m A P [ [ } | } [ ' [ +.h   u B [  .o./ S F S / } [ +.g   # # ",
"# # 2 u B F T ^ _ ( ' E ! u 2 9 h V I ' ( _ E Q V 5 9 2 c B K Y _ ! Y Y Y / ' ! Q n 5 c B Y Y E P V P I ` ..! ^ m 5 # # ",
". 2 B V L ^ X.( / ( ' T F B m I !  .[ / / ( H V H Q V c C K [ [ _ Y F F A ( | Y V L Y I H F F F J F ! o._ _ Y B H ! 5   ",
"X % i j m C T ^ _ ( | V h g i c V I Y _ ( ( V c N m c z V J I T } H u c m J Y F c B m m m B m j z m F T Q | I c m B 2 . ",
"# # 5 u z n C E _ _ o.m % 3 w h c V I ] _ ] m h j z c z V J V J o.F % i c B H B h z j j j c j 2 u j B C ! | H h z c - . ",
"# # w g z B F E ' Y I z 3 e w e u c B I H I h e 9 2 9 g z m F F T m 3 r e c m j w e g 3 2 2 2 , 3 r j m F Y m w 2 2 # # ",
"# % e h v A F ` } E H z q r e w e j m F F F g q 3 O 3 r h c H H H m 3 e q z m h q e e , # # # > - w j c A I m 0 ,   # # ",
"# # 2 9 e c V I ! H V g 2 4 3 q e z m H V V e 3 2 # 2 3 i j B V V z q 3 3 e g w 3 5 3 2 , % % > 2 3 r l c B j 3 , # # # ",
"# # . # . e c A H B m 9 + # > w g z B I m c 2 # # , > # 3 e z c c j r 2 # # # # o # X # % % - # # # 3 r 2 2 < # # # # # ",
"# # # # # w g c V j 7 2 % > > 2 3 g l A h 3 2 , 2 < 2 > 2 2 i g h e 2 2 , , # 4 h e u u u - # 2 , % 2 2 g j h g 2 . # # ",
"# # # # # 3 e j m 9 O % 2 , , > 2 9 i m 9 . 2 : 2 < , > # # 3 w e 3 # % 2 % # w B c m m c % % , , % # # h m c B 3   # # ",
"# # # # , 2 2 2 4 2 - % 2 % > > , 2 2 4 2 , 2 2 2 2 , % d j z h 2 % % , % 3 q w e j c c z j r % 2 # 3 9 j c z c h h 2 @ ",
"# # # # 2 % # # # % 2 2 2 % , % # > # # , 2 % 2 2 2 2 % j B m h % 2 - 2 % 5 r w 3 h c z z m z % 2 % 3 r j c z c v B 2 . ",
"% # X # - , % # # % , % # 9 e # # , , , 3 r 2 , < # 3 e j c z z z e # 3 e e w w 3 h z B A G B # 2 r w 5 h z v A A G 2 . ",
"# # # # - 2 2 2 3 3 3 2 # 5 w 3 2 - 2 , 3 e 2 % 2 2 3 e j c c c B g o 3 r e w e e j c A F B k # 2 w e u z v B F B B 2 . ",
"# # % - % 3 e c m c m 9 # # 2 B z . # % # % % % 3 g e 5 h c A A R c . 3 i q 5 u z m F G F 2 # > % # g B F L G T u . # # ",
"# # % , > 3 e g h j n u 9 2 % u r 5 5 5 e w 2 # 2 3 e g c B A B c e # 3 3 r u j B B F v h 2 % , , # 9 g j x z z w % # # ",
"# # 2 % # 3 i 3 2 r z z v 3 % . - B m v v m 4 # % # u v V F U B . # % # # j B V U G P 3 . # # # # # + . # % % # % 3 # # ",
"# # # # % 2 2 u j z B m B 5 % 2 5 u h c z c 3 % , # g A A A h w - 2 2 % # 5 w e g f g 2 - e u u g e r g 2 % 2 2 % # # # ",
"# # @ # 2 % # j m B F F G 5 # r r 2 u c z c 3 , , . k R F V % # % , , % # # # # # % # % 2 c m c c v v m 3 o % 3 # . # # ",
"# # # # # # , 2 % g L j 3 2 % 9 e j v V B A 3 # , , 3 w 9 5 % 3 j h j h h e 5 2 , , % 3 e j c c z c z c h j e % % # # # ",
"# # # # # # % # O d ~ i . % 2 2 e z v F A F 3 # - 2 % % # # . 2 m v c v v i r 5 , , % 9 r c c c c z c z c m u # # @ # # ",
"# # > # # #       5 v e , & - r h v m A A F 7 #       , - 3 5 e z z z z c 9 3 3 3 2 , 9 r h j c c c z c z c h w 2 # # # ",
"# # # # # #       # . % 2 # , v B F A V F U w %       # w u m B z j z c B 3 . 3 i 3 % 9 e 3 e c c z c z z z c B r % # # ",
"% # # # # 3 & # # e u 3 , - , 3 r F A F z e 2 % . # # 2 3 w g h k c A h 9 2 % 2 2 2 # q e 5 e u h c z j c z c c w % # # ",
"% # X     , A.'.K.>     # % 2 . 4 F F P e     . @.5.@.#     3 w j m U r . % % % % # # 9 e e w 3 u c j z z j z c 9 % # # ",
"# # .     1 |.OX`.      h 3 % 2 2 2 7 3 2       *.q.*.      h z A A P r . u z h h 9 % 2 2 7 e j c A B V B B V F f % # # ",
"# # #     & E.OXQ.9 % 1 z 3 % < , % # % % # O # ;.q.-.% . # j c B B F e o j m c B e % > # e r c B F F A F F A F r % # # ",
"X % 9     % s.F.D.E._.K.%               # @.*.,.d.g.a.-.*.#.#     2 % 3 5 h j m U g % , 2 j m F F A A A F P c % # @ # # ",
"# # e     # p.F.h.oXOX X#                 &.:.4.h.G.h.9.7.;.O     # # 3 u c v c A r % < 3 h j v B A A A B B g + # # # # ",
"X > e     # i.g.j.{.XXR.2 # . # & , # & 2 :.7.0.f.g.a.4.:.&..     , O f B S R z + , 2 % % # % O d R F L 3 % % O # % # # ",
"# # 2     + -.9.4.7.7.7.&.@.:.!._.W.^././._.XXW.9.;.>.;.4.*.X     < - 9 u k z d % 2 - 9 e e 9 # w c z z 3 , % # # # # % ",
"# # +     . %.:.*.&.=.&.;.=.7. XoXoXoXoXoXoXoX X:.@.%.=.:.#.+     2 j 2 O # % % # # X j B B j o % # # % # # % % .   # # ",
"# # #     . &.>.:.:.;.:.7.>.q._..X X`.`._._.{.W.0.>.7.7.0.;..     9 2 2 % % % 2 3 w e j j z j i 9 % 2 % e u e e e e # # ",
"# # X     X &.7.:.:.=.7.^.|._. X.X_.q.:.7.7.:.q.Q.|._.`.{.R.,     u + %                   j c B g % % % j m     . c 2 . ",
"# # #       *.7.:.*.#.:.|..X.X.X.X|.>.#.*.&.$.>. XoXoX.XoX/.      g % -                   z c v e # 3 q e e       A 2   ",
"# # O . # # *.5.;.4.:.q._..X X`.XX^.7.=.:.:.=.7.Q.{.`. X.X^.s % 1 e % % # # > > > # 1 & & h j m g   5 r 3 2 # # # G 2 . ",
"    O @.;.&.:.=.7.W.|.`. X.X_.q.:.7.;.:.;.;.;.:.7.>.q.{..X X/.].K.&   # k.b.v.W./.W.^.{.A.&     9 2 2     # @.:.@.X     ",
"    # >.q.9.7.;.0.|.oX.X X.X_.:.#.=.>.5.>.5.>.5.=.$.>._..X X.XOX|.O     m.I.P..XoXoXoXOX|..     2 h 3       >.r.5.@     ",
"    . $.:.;.*.#.>._..X X X.X`.7.;.:.=.*.=.*.*.=.;.*.7._..X X XoXQ.8 # 8 v.H.V.|. X|. XoX/.8 # # , 3 % # > 6 $.5.@..     ",
"      y y y y ; b /.oX X X.X_.7.,.=.a y y y 5 a =.;.7.`..X X X X|.v.z.v.M.M.M.|. X X X X|.v.b.k.#   # K.'.K.2 # X . # # ",
"      o * $ $   ; /.oX X XoX|.:.&.#.; = = = = ; #.&.5._..X X X X|.H.H.H.m.b.M.|. X X X X XJ.Y.m.    X .XOX.X#     @ # # ",
"      a j h a t M /..X|.[.}.E.0.7.:.a 5 y y 5 a :.5.q._..X X X X|.M.m.M.Z.M.C.|. X X X X|.M.H.v.6 # 9 K.}.S.>     @ # # ",
"    > K.{.^./././. X.X[.2.<.2.E.XX/.:.#.=.;.$.:.W.|.`. X X X|. X|.M.m.M.|. X|. X X X X X|.M.M.m.v.m.k.6 # 2 h c 2   # # ",
"    > .XOXOXoX.X.X X X[.<.Z 1.XXoX|.7.&.;.;.&.7.|..X.X X X X X X XM.b.M. X X X X X X X.X XM.m.M.T.(.H.      c m e % # # ",
"    & K.{.^.|. X X X.X[.3.<.3./..X`.q.:.7.7.:.q./..X X X X X|.|.|.H.m.H.|. X X X X X|. X|.M.m.m.c.m.k.#     j j z v - O ",
"# # q # # 9 ^.oX X X X|.[.[.[. X X X`._._._._.`. X X X X X|.H.m.H.|. X|.|. X X X X|.H.M.M.M.H.v.4 > # 3 h z c m m B 2 . ",
"# # r     . |.OXoXoXoXoXoXoXoXoX.X.X.X.X.X.X.X.X X X X X.X XM.n.M. X.X.X X X X X.X|.M.b.M.L.).m.      9 h j m F F F 2 . ",
"X # 2     1 K.[././.Q.^././././././.|. X X X X X X X X|.|.|.M.N.M.|. X|.|.|.|.|.|.|.Z.m.M.v.m.k.#     g m B B A A F 2 . ",
"# # # 2 w 3 , # - p a a h a j a t M /..X|. X X X X X|.H.M.M.M.M.M.M.M.M.B.M.M.M.Z.M.M.H.v.6 # # 2 9 h c A F D A A F 2 . ",
"# # # - r e       = = = = = = = o y |.OXoX.X.X X X.X XM.n.m.M.M.M.H.H.H.V.M.M.H.H.H.M.H.z.      2 # j A V A A A A F 2 . ",
"# # . 2 g 0       5 5 5 ; 5 5 5 = a K.[.^.|.|.|.|. X|.B.m.m.M.M.m.c.c.c.m.m.m.v.c.c.M.J.c.#     % . z R F V A A F U 4 . ",
"# # . - 7 e g z z .                 > , 9 v.P.C.B.B.B.M.M.M.M.H.c.8 # 2 e.y.e.4 # 8 v.T.x.#     % # d c B A A S v l , . ",
"# # # # O g V A S                         b.U.H.H.H.L.L.H.H.L.).m.      w.u.e.      M.(.m.#     % 2 % + B U G R g . # # ",
"# # # # # 4 9 B D .                     > k.m.c.c.c.v.c.x.x.x.m.k.# O # 8.t.8.#   # k.H.k.#     # # % % e g f h 3 # # # ",
"# # # # # # + N L A F w   @ # + + # # # # # # # # # # # # # # # # v F B # @ # B G 3 # # # # # # # . # 2 % # % % # # % # ",
"# # # # # # # - 4 2 3 % # # # # # # # # #                         2 2 2       2 4 #       # # # # # # # # # # # # # # # ",
"# # # # # # # . . . . @ # % # # # # % % #                         .   .       . . #       # # % # # # # # # # # # # # # "
};
