/* XPM */
static char *_5864_bce9a622190708dd0a469cb38eba5e41cad7ceb6768762dc5fc5e7e4d864764e[] = {
/* columns rows colors chars-per-pixel */
"60 60 195 2 ",
"   c #09251F",
".  c #122C1F",
"X  c #0B2621",
"o  c #0A2C26",
"O  c #0A2F28",
"+  c #072A24",
"@  c #142E21",
"#  c #0C332B",
"$  c #0B352B",
"%  c #153325",
"&  c #183424",
"*  c #153B2C",
"=  c #1D3D29",
"-  c #183828",
";  c #0D3C33",
":  c #173A34",
">  c #1B412D",
",  c #0E473C",
"<  c #1F4A34",
"1  c #304F2F",
"2  c #204732",
"3  c #234B32",
"4  c #214239",
"5  c #2B5434",
"6  c #315B39",
"7  c #305237",
"8  c #26462A",
"9  c #35613A",
"0  c #3C653C",
"q  c #3B6739",
"w  c #406B3D",
"e  c #497437",
"r  c #104D43",
"t  c #13554A",
"y  c #13574C",
"u  c #145C51",
"i  c #1A5C52",
"p  c #2D4C46",
"a  c #2E4D48",
"s  c #34534B",
"d  c #3A5651",
"f  c #3D5A55",
"g  c #146355",
"h  c #17675A",
"j  c #176A5C",
"k  c #196C5D",
"l  c #25654A",
"z  c #1A7263",
"x  c #1A7D6C",
"c  c #177261",
"v  c #217F6F",
"b  c #4A7444",
"n  c #487642",
"m  c #4A645F",
"M  c #516B62",
"N  c #4C6762",
"B  c #59873F",
"V  c #1B816E",
"C  c #1C8572",
"Z  c #1F8C79",
"A  c #1D8976",
"S  c #1F937E",
"D  c #238272",
"F  c #248D7C",
"G  c #268776",
"H  c #2E917F",
"J  c #548444",
"K  c #5B8F43",
"L  c #588447",
"P  c #5D9147",
"I  c #5C8950",
"U  c #618D47",
"Y  c #63964B",
"T  c #65994C",
"R  c #6B9D4D",
"E  c #6A9649",
"W  c #6CA04E",
"Q  c #6CA649",
"!  c #73AE4B",
"~  c #75B04C",
"^  c #79B24E",
"/  c #7FB84F",
"(  c #72A551",
")  c #76AB52",
"_  c #79AE56",
"`  c #72A258",
"'  c #77B351",
"]  c #7BB354",
"[  c #7EB952",
"{  c #7FB559",
"}  c #81B657",
"|  c #82BA55",
" . c #81B759",
".. c #83B95B",
"X. c #88BE5D",
"o. c #86BA60",
"O. c #8BBC62",
"+. c #8FBE6A",
"@. c #91BE6B",
"#. c #90BF61",
"$. c #89C256",
"%. c #87C159",
"&. c #8DC45C",
"*. c #87C057",
"=. c #90C65D",
"-. c #92CA5C",
";. c #8EC262",
":. c #8FC466",
">. c #91C564",
",. c #94CC61",
"<. c #99CE65",
"1. c #93C36B",
"2. c #96C96B",
"3. c #9ACC6D",
"4. c #99C56E",
"5. c #9CD06C",
"6. c #97C772",
"7. c #99C671",
"8. c #9CCD71",
"9. c #9FD173",
"0. c #A0D36E",
"q. c #A0CE74",
"w. c #A3D476",
"e. c #A5D579",
"r. c #A8D77B",
"t. c #1E9681",
"y. c #229481",
"u. c #219C86",
"i. c #219E89",
"p. c #2C9B88",
"a. c #3D9E8B",
"s. c #21A38C",
"d. c #22A88F",
"f. c #24AE95",
"g. c #2AAC96",
"h. c #27B59A",
"j. c #36B39E",
"k. c #2ABCA3",
"l. c #3ABFAA",
"z. c #39B9A3",
"x. c #6E8080",
"c. c #728783",
"v. c #49A795",
"b. c #51AE9C",
"n. c #53B19F",
"m. c #49B6A2",
"M. c #46B7A3",
"N. c #5EBBA9",
"B. c #65BEAF",
"V. c #32C0A7",
"C. c #3CC2AC",
"Z. c #3FC9B2",
"A. c #3CC7B0",
"S. c #41C9B3",
"D. c #46C5B0",
"F. c #50CBB6",
"G. c #64CDBC",
"H. c #67C6B5",
"J. c #77CFBF",
"K. c #78CFBF",
"L. c #76D0BF",
"P. c #7ACFC1",
"I. c #79D0C0",
"U. c #818F8F",
"Y. c #8B9A97",
"T. c #99A4A3",
"R. c #A6AFAE",
"E. c #B4BBBB",
"W. c #ACB5B4",
"Q. c #97CFC6",
"!. c #85D1C3",
"~. c #89D1C5",
"^. c #8FD3C8",
"/. c #91D2C6",
"(. c #94D2C9",
"). c #9AD2C8",
"_. c #BDC2C2",
"`. c #BFCFCC",
"'. c #A3D3CB",
"]. c #ACD5CD",
"[. c #B2D5CF",
"{. c #ABD4D0",
"}. c #B4D5D1",
"|. c #B9D7D2",
" X c #BFD8D4",
".X c #AACFC8",
"XX c #C6D7D5",
"oX c #C9D6D6",
"OX c #CED9D6",
"+X c #D4D6D5",
"@X c #D4D8D7",
"#X c #D9D9D7",
"$X c #D6D9D8",
"%X c #D9D9D9",
"&X c #C3C7C8",
/* pixels */
"-.-.-.X.....X.-.,.<.w.w.r.r.r.e.2.! ! ! e.e.e.4.@.@.+.......-.,.,.| ! ! [ -.,.,.............X.-.-.-.............X.-.-.-.",
"-.-.-.X.....%.,.,.-.w.e.r.w.w.r.2.! ! ! e.e.w.4.+.@.O.....X.-.,.-.| ! ! [ ,.,.,...[ { ......X.-.-.&.............*.-.-.-.",
"-.-.-.X... .;.,.,.<.w.w.e.w.e.e.1.! ! ! e.e.e.4.@.@.O. .....,.,.-.[ ! ! | ,.,.,...{ { .... .X.-.-.=.| ..........*.-.-.-.",
"-.-.-.%.o.o.;.-.,.,.w.e.e.5.<.<.:.{ ] ] 5.5.<.3.q.q.3.......,.,.-.&.$.$.&.-.-.-. .| ........&.w.w.5.X.....$.&.&.-.-.-.-.",
"-.-.-.>.O.O.O.-.-.-.e.e.e.<.-.-.&.{ ....,.>.<.w.e.e.7.....o.,.,.,.=.-.-.-.-.-.-...........{ :.e.r.w.X.....$.-.-.-.-.-.-.",
"-.-.-.X.O.O.X.-.-.-.e.e.e.<.-.-.&.%.....,.,.,.9.e.e.3. .....,.,.,.-.-.-.-.-.-.-.............>.e.w.w.......&.-.-.-.-.-.-.",
"-.-.-.>.O.O.#.&.&.=.3.7.3.<.<.<.>.o.O.O.,.&.&.2.3.8.2.X.o.X.;.>.-.>.&.-.=.$.&.&.X.X.X.%.%.%.1.5.9.5.%.O.$.&.-.-.-.$.&.&.",
"-.-.-.O.O.O.O.............8.e.e.9.1.+.@...............O.O.O.O.o.O.........| ....-.-.-.-.,.,.,.-.-.-.-.-.-.-.-.-.&.......",
"-.-.-.=.O.O...............8.e.e.8.@.+.@.............X.O.O.O.O.o.O.o.............-.-.-.,.,.,.-.-.-.-.-.-.-.-.-.-.&.......",
"=.$.$.#.O.O.O..... .X...X.8.e.e.w.@.@.+.......{ ..X...;.O.O.O.O.O... . .....| X.-.-.-.-.=.,.<.-.-.,.-.<.-.-.-.-.&.......",
"~ ! ^ | ............q.w.w.w.e.e.q.@.+.1.o.{ { ,.,.,.=.=.-.=.......' ) ! } &.-.$...........X.:.e.e.e.e.e.w.<.-.-.&.......",
"! ! ! } ..........O.w.e.e.w.e.e.8.@.+.1.o.%...>.,.,.,.-.-.-.o.....' ! ! | -.-.-.............:.e.e.e.e.e.w.<.-.-.&.......",
"! ! ! } } | ......O.w.e.e.e.e.e.q.@.@.@.......&.;.) ] ..&.-.......] ! ! [ -.-.-.............:.e.e.e.w.e.e.<.-.-.&.......",
"$.$.X.X.+.+...^ _ ] @.1.1.<.<.<.>.O.o.X.=.&.&.>.9 O # * < 5 0 n I R ( ] | -.-.-... ...>.8.3.2.O.#.#.4.7.7.>.#.O.%.&.=.&.",
"-.-.-.>.@.+...! ! ^ O.O.O.=.-.-.&.{ { ..-.-.$.) 2 # O O O O O O O O & ( X.-.-.-.......7.e.e.3. .....+.@.@.O.O.O.;.-.-.-.",
"-.-.-.>.@.@...~ ! ! O...O.=.-.-.$.{ ..} -.&.q o 4 : O O O O O O O O @ ( X.-.-.-.......3.e.w.8.}  ...+.@.@.+.O.O.X.-.-.-.",
"-.-.-.>.>.>.X.| / | &.X.>.%.&.&.$. .{ { &.] * O R._.R.Y.x.N p : O o . L ! X.*.*.| ....1.3.3.:...{ ..o.:.o.;.;.;.&.&.&.&.",
"-.-.-.-.-.-.-.-.-.-.-.-.-.X.......' ' W > # < : E.$X%X%X%X%X%X+X&XT.o O X e ! !  . .{ ....................>.,.,.>.......",
"-.-.-.-.=.-.-.-.=.-.-.-.-.X..... .' ! K O : W.E..X|.oXOX%X%X%X%X%X_.O O   e ! ~ .. .} ....................>.,.,.&.......",
"-.-.-.-.-.-.-.-.-.-.-.-.-.X..... .T 3 * $ : _.#XQ.~.~.^.(.).].XXOXE.O o   6 K Q { { ..........X.......%.{ &.,.,.=.......",
"e.e.w.<.-.-.<.e.e.w.O.O.O.........n O s E.T.&XOX(.~.~.~.~.~.~.{.].).h.i.t o o - O.O.O.8.e.w.9.,.,.,.>.-.,.-.,.,.,.-.,.,.",
"e.e.e.<.-.-.<.e.w.w.O.O.;.o.......n O d %X%X[.}./.~.~.~.~.Q./.'.}./.k.k.g O o & O.O.O.8.e.e.9.,.,.,.-.-.-.-.,.,.,.,.,.,.",
"e.e.e.<.-.-.<.w.w.w.O.O.O.........L o p %X@X|.[./.~.~.~.^.$X@XI.G.G.V.k.u O O = X.O.O.8.e.w.9.,.,.,.-.-.-.,.,.<.<.,.,.,.",
"<.<.<.%.| ..$.<.<.<.-.>.&.&.=.[ w = # p %X@X(.^.|.}.).(.(.$X$XG.Z.Z.A.Z.i O O 8 ......O.6.1.>.,.-.-.,.,.<.%.X.%.X.O.%.%.",
"-.-.-.| ' ' | -.-.-.-.-.-.-.-.Y O d U.c.oX@X(.~.XX%XoX[.].|. X!.G.F.S.S.t O O 1 }  .} O.O.O.;.-.-.-.,.,.,.%...........| ",
"-.-.-.[ ] ' | -.-.-.-.-.-.-.-.W O m %XOX/.).}.}.|.OXoX}.[.[.[.[.[.!.S.A.D r $ @ 5 0 ( X.O.O.;.-.-.-.,.,.,.%.............",
"-.-.-.%.X.| *.-.-.=.&.&.$.-.,.( O m %X@X~.~.oX%X/.J.P.!./.).'.[.[.!.Z.Z.k.V.y.O o X E ..O.O.;.&.-.&.=.;.=.:.:.:.O.......",
"-.-.-.,.-.,.-.-.-.-.....| =.,._ O f %X@X~.~.|.+X/.J.K.K.P.K.K.P.!.B.g.j.k.h.Z O O   R +.@.@.O...{ ........3.r.r.8. .....",
"-.-.-.-.,.,.,.-.-.=.......;.,._ # s %X@X!.~.{.[.!.J.J.J.I.J.J.J.K.n.V C l.A.G O o X ( O.+.@.+...........{ 8.w.w.8... ...",
"-.-.-.-.,.,.,.-.,.,.X.....&.,.{ # s %X$X'.(.).'.!.J.J.J.I.J.J.J.K.v.V C l.S.G # o @ ` O.+.+.o.............3.e.9.3.....o.",
"..X.X.&.-.-.<.w.w.9.X.....>.,...* p +X%X}.].M.j.H.I.J.I.I.J.J.J.L.b.V C l.S.D # O X w L Q ~ ' ....{ ......O.:.+.#.-.=.=.",
"....X.$.-.-.<.r.e.9.X.....&.,. .* p +X%X!.).M.f.H.I.J.J.J.J.J.J.K.v.x C C.S.k.k.y.O o X B ! ' ............o.O.o.&.-.=.-.",
"......&.-.-.<.e.e.w.;.{ { >.,.%.6 s +X#XS.S.C.V.m.N.H.J.J.J.J.J.J.v.x V z.l.k.k.s.# O X K ! ^ ...... .......O.O.X.-.-.-.",
"O.O.+.O.%.X.1.e.w.w.=.&.>.%.;.%...` M c.D.S.S.S.H V D H a.b.H.J.L.a.x x k z v G C O O o ( $.%.......O.X.O.;.=.=.>.O.>.X.",
"@.+.+.o... .:.e.e.w.,.-.-.;.{ ....) * O z.Z.F F S A C V x V V V H p.S V k h h h y O O @ ..,.;.......O.O.O.&.-.-.#.O.O.O.",
"@.+.1.o.....:.e.r.w.=.-.-.%.{ ....` * # z.Z.D h i.f.s.t.S C V V x i.f.f.u.Z z j y O O # ..,.=... ...O.O.O.=.-.-.=.X.O.O.",
"7.7.6.;.%.;.;.8.8.5.-.&.&.%...{ ..{ > # f.k.D h i.f.f.f.f.f.d.i.S i.f.f.f.f.A x u O o - $.-.=.%.X.&.1.1.1.-.-.-.=...X.X.",
"e.r.w.5.-.>.=...{ ..{ { { ......X.-.P q u.h.V h i.f.f.f.f.f.f.f.f.x h C f.s.z x u o # 8 -.-.-.,.,.<.w.e.e.-.-.-.&...} ..",
"e.e.w.5.,.,.=...........{ ......X.-.-.=.3 , j k u.f.f.f.f.f.f.f.f.z h x f.s.; ; $ 5 2 U -.-.-.<.-.<.e.e.e.<.-.-.&.......",
"e.e.e.3.,.,.>.......{ ..{ ......%.-.-.-.3 # h V i.f.f.f.f.f.f.f.f.x h x s.u.$ o X R  .%.-.-.,.,.,.,.e.e.e.<.-.-.&.......",
"......=.,.<.>.@.1.:.X.....&.-.-.&... . .) Y l k S f.f.f.f.f.f.f.f.z h z x c # O X ( ..3.w.e.8.O.O.O.,.,.,.-.-.-.=.O.O.O.",
"......=.,.-.2.@.+.+.......&.-.-.&.[ ..} ' ' 6 O ; r x s.f.f.f.f.f.C z z x z # @ & ` ..3.e.e.8.O.o.;.,.,.,.-.-.-.=.O.O.O.",
"......;.-.<.<.@.+.@.o.....%.-.-.&.....{ ' ] J 2 o O $ $ , g V i.f.A x u # ; - 6 e ....3.e.r.8.O.O.O.,.,.-.-.-.-.=.O.O.O.",
"......} [ [ %.q.q.8.&.&.&.$.%.X.;.3.3.6.' ! ! X.| W w 2 * o O O , r u r # O B =.3.7.3.2.>.>.>.=.>.-.,.,.,.>.>.;.X.] ] ' ",
"......' ! ! ..e.e.w.-.-.-.X.....:.w.e.r.! ! ! $.-.-.$.[ ( P f 3 O O O X U ) =.-.e.e.e.1.......-.-.-.,.,.,.#.O.O. .! ! ! ",
"......^ ! ! ..e.e.e.-.-.-.$.....:.w.w.r.! ! ~ *.-.-.&.......*.^ Y b 3 7 ..-.-.-.e.w.e.:.....X.-.-.-.,.,.-.O.O.+...! ! ! ",
"......[ ' ' ..3.3.7.,.>.>.X.X.X.>.r.e.w.^ ^ ' &.<.<.,.X.X.O.>.>.>.:.;.;.-.=.-.-.e.e.e.:.....X.-.-.-.3.<.5.>.....] ^ ! _ ",
"...... ...........X.+.+.1.,.-.-.<.e.e.e.......8.e.e.0.-.-.-.e.e.e.<.-.-.-.-.-.-.e.e.r.:.{  .$.-.,.<.e.e.e.X.] ' {  . .} ",
"................ .o.+.+.@.>.=.-.<.e.e.e.......8.e.e.5.-.-.-.w.e.e.<.-.-.-.-.-.-.w.e.e.;. . .X.,.-.<.w.e.e.O.' ' ]  ... .",
"......X...........o.+.+.@.>.-.<.<.e.q.e.......4.w.w.3.-.-.=.q.e.w.2.-.-.-.-.-.-.w.w.w.O.{  ...,.<.,.w.e.e.X.] ] {  . . .",
"-.=.-.X.O.O.O...........X.3.e.q.0.@.@.1.......X...X...^ ^ ^ O.O.O.......:.w.w.w.O.X...] ' ! { 1.1.1.,.,.-.X.....{ ! ~ ~ ",
"-.-.-.&.O.O.o.............8.e.e.q.@.@.@...........| { ! ! ! X.O.O.o.....:.e.e.r.......^ ! ! { @.+.+.-.-.-.X.....{ ! ! ! ",
"-.-.-.:.O.O...............8.e.e.8.@.@.@..... .......{ ! ! ! X.O.:...{ { O.e.r.r.......^ ! ! ] @.@.@.-.-.-.$.....{ ! ~ ! ",
"-.-.-.<.7.8.2.O.O.O.......O.>.>.;.O.o.O._ ] _ } .. ...o.O.X.>.>.;.=.>.=.;...o...} ] ] _ ! ! ' O.o.X.-.-.-.X.....{ { ] { ",
"-.-.-.5.e.e.q.@.@.+....... .............! ! ! { ....O.+.@.@.,.,.,.,.,.,.%.! ~ ~ ' ] _ ! ! ! ' ......-.-.-.X.............",
"-.-.-.w.e.r.q.@.@.@........... .......| ! ! ! ] ....O.@.@.>.,.,.,.,.,.,.%.! ! ) ' _ ] ^ ! ! ' ......&.-.-.X.............",
"-.-.-.>.>.2.>.>.>.>.} ............X.X.X.! ! ! | $.%.:.1.1.1.;.>.=.-.,.,.-.....%.] { ] [ / [ [ X.X.O.,.<.<.X.......O...O.",
"-.-.-.| ! ! | -.=.-.......} ....X.-.-.-.! ! ! $.,.,.,.,.,.,.;.o.;.&.-.-.<.r.r.w.......&.-.-.>.@.@.7.w.e.e.1.....O.@.@.@.",
"-.-.-./ ! ! / -.-.-.............| -.-.-.! ! ! &.,.-.,.,.<.,.O.O.O.;.-.-.<.w.e.e.......&.-.-.;.@.@.@.e.e.e.>.....o.@.1.@.",
"-.-.-./ ! ! / -.-.-.............X.-.-.-.! ! ! &.<.,.,.,.-.,.O.O.O.&.-.-.,.r.r.r.....{ -.-.-.,.+.@.@.w.e.e.@...X.o.@.@.@."
};
