/* XPM */
static char *_9793_b900341a3f3d6cdafa9ea5ed1f13032d1bbcd68331a66f9f6bdd7474926d4ddf[] = {
/* columns rows colors chars-per-pixel */
"60 60 162 2 ",
"   c #061E1B",
".  c #07201D",
"X  c #09221E",
"o  c #072621",
"O  c #092522",
"+  c #072B25",
"@  c #092C25",
"#  c #0A2F28",
"$  c #122B26",
"%  c #102F29",
"&  c #192C2A",
"*  c #0C322B",
"=  c #133125",
"-  c #1A3525",
";  c #1F3A27",
":  c #12352B",
">  c #1B312D",
",  c #143B2C",
"<  c #193E2D",
"1  c #0C3632",
"2  c #0E3930",
"3  c #1A3E30",
"4  c #233432",
"5  c #1B402D",
"6  c #0F4239",
"7  c #0F483F",
"8  c #10433A",
"9  c #104A3E",
"0  c #23452C",
"q  c #22482F",
"w  c #2C4E2F",
"e  c #35532F",
"r  c #264C34",
"t  c #2E5737",
"y  c #27583B",
"u  c #2A583C",
"i  c #315B37",
"p  c #3A5A33",
"a  c #32593C",
"s  c #39613C",
"d  c #456C3E",
"f  c #0F4B41",
"g  c #114C42",
"h  c #1E4D45",
"j  c #0F5348",
"k  c #125246",
"l  c #13544A",
"z  c #18564B",
"x  c #135A4E",
"c  c #155D51",
"v  c #1D5E53",
"b  c #394644",
"n  c #156356",
"m  c #166659",
"M  c #1B665A",
"N  c #1E695C",
"B  c #2A6259",
"V  c #226B5F",
"C  c #31665C",
"Z  c #236F62",
"A  c #366D61",
"S  c #237466",
"D  c #247869",
"F  c #3E7269",
"G  c #32786D",
"H  c #3A796E",
"J  c #485454",
"K  c #525C5A",
"L  c #4A7645",
"P  c #4C784B",
"I  c #517744",
"U  c #567D46",
"Y  c #516B68",
"T  c #41746B",
"R  c #45786F",
"E  c #4C7770",
"W  c #467970",
"Q  c #4C7A72",
"!  c #517571",
"~  c #537B75",
"^  c #5B7C77",
"/  c #5F7C78",
"(  c #606666",
")  c #636967",
"_  c #646C6C",
"`  c #6A6E6D",
"'  c #6C706F",
"]  c #647D79",
"[  c #6B7E7C",
"{  c #757776",
"}  c #777976",
"|  c #737E7D",
" . c #7A7F7E",
".. c #5A8644",
"X. c #578A45",
"o. c #5D8A44",
"O. c #588149",
"+. c #5C8D4B",
"@. c #5F904E",
"#. c #5F8A54",
"$. c #689747",
"%. c #63944A",
"&. c #69964C",
"*. c #649A4C",
"=. c #699C4E",
"-. c #668E52",
";. c #6A8D53",
":. c #639452",
">. c #72A74B",
",. c #73AE4B",
"<. c #78AB4F",
"1. c #75B04C",
"2. c #79B24E",
"3. c #7FB84F",
"4. c #72A553",
"5. c #78A757",
"6. c #76AC52",
"7. c #7EAF5D",
"8. c #77B351",
"9. c #7BB354",
"0. c #7EB952",
"q. c #7FB458",
"w. c #71807D",
"e. c #7D807F",
"r. c #81B656",
"t. c #81BA54",
"y. c #81B759",
"u. c #83B95B",
"i. c #88BE5D",
"p. c #86BA60",
"a. c #8BBC62",
"s. c #8AB669",
"d. c #8EBE6A",
"f. c #90BF61",
"g. c #91BE6B",
"h. c #87C057",
"j. c #8AC256",
"k. c #8DC45C",
"l. c #90C65D",
"z. c #92CA5C",
"x. c #8EC262",
"c. c #8FC861",
"v. c #8EC06B",
"b. c #91C563",
"n. c #94CC61",
"m. c #99CE65",
"M. c #93C36B",
"N. c #99C56E",
"B. c #96C96B",
"V. c #9ACC6D",
"C. c #9CD06C",
"Z. c #96C572",
"A. c #99C671",
"S. c #9CCD71",
"D. c #9FD173",
"F. c #A0D36E",
"G. c #A0CE74",
"H. c #A3D476",
"J. c #A5D579",
"K. c #A8D77B",
"L. c #7C8081",
"P. c #808080",
/* pixels */
"z.z.z.i.u.u.i.n.n.m.K.J.J.J.J.J.B.,.,.,.K.H.J.N.d.d.a.u.u.i.l.n.n.0.,.,.0.z.n.n.u.q.u.u.u.u.i.z.z.z.i.u.u.u.u.u.h.z.z.z.",
"z.z.z.i.u.u.i.n.n.z.H.J.J.J.J.J.B.,.,.,.H.K.J.N.g.g.a.u.u.i.n.n.n.t.,.,.0.n.n.n.u.t.q.u.q.u.i.z.z.z.u.u.u.u.u.u.i.z.z.z.",
"z.z.z.i.u.u.h.n.n.m.K.K.J.J.J.J.B.,.,.,.K.K.J.N.g.g.d.u.u.u.c.n.n.0.,.,.t.n.n.n.t.q.u.u.u.u.i.z.z.l.i.u.u.u.u.q.h.z.z.z.",
"z.z.z.h.p.p.k.n.n.z.H.J.K.m.m.m.c.q.q.8.m.C.m.V.G.S.N.u.u.i.z.n.z.j.j.j.k.z.z.z.u.u.q.u.u.u.x.D.C.C.u.u.u.k.j.k.z.z.z.z.",
"z.z.z.l.a.s.i.z.l.z.H.J.H.m.z.z.k.q.u.u.n.n.m.H.K.H.V.u.u.p.c.n.n.z.z.z.z.z.z.z.u.u.u.u.u.u.x.K.K.J.p.u.u.k.z.z.z.z.z.z.",
"z.z.z.a.a.a.k.z.z.z.H.J.K.m.z.z.k.u.u.u.n.n.z.H.H.K.S.u.u.u.n.n.n.z.z.z.z.z.z.z.u.u.u.u.u.u.x.K.J.D.u.u.u.j.z.z.z.z.z.z.",
"z.z.z.b.a.a.a.l.l.l.V.V.V.m.m.C.n.p.p.a.b.k.k.B.S.S.M.i.p.i.c.b.b.l.j.l.z.j.l.k.h.h.i.h.h.p.n.D.D.C.k.i.h.k.z.z.l.j.z.j.",
"z.z.z.a.a.a.a.r.u.u.u.u.u.V.J.H.S.Z.d.g.u.u.u.u.u.q.u.a.a.a.a.a.a.u.i.u.u.r.u.u.l.z.z.n.n.n.n.z.z.z.z.z.z.z.z.z.k.u.u.u.",
"z.z.z.i.a.a.u.u.u.u.u.u.u.S.J.J.S.g.g.g.u.u.u.u.u.u.u.a.a.a.a.a.a.p.u.u.u.u.u.r.z.z.z.z.n.n.z.z.z.z.z.z.z.z.z.z.l.u.u.y.",
"z.z.j.f.i.d.p.u.u.u.i.u.u.G.J.J.G.g.g.M.u.u.u.u.p.u.p.x.a.a.a.a.a.u.u.y.y.u.u.u.z.l.z.z.z.n.n.z.z.z.z.m.z.z.z.z.k.u.u.u.",
"1.,.2.r.u.u.u.u.u.u.G.G.H.H.J.J.H.g.g.g.u.u.u.k.n.n.c.z.l.l.u.u.u.8.,.,.0.z.j.z.u.u.u.u.u.p.v.J.K.H.J.J.H.m.z.z.k.u.u.u.",
",.,.,.r.u.u.u.u.u.a.H.K.J.J.J.H.G.g.d.M.p.u.u.c.n.n.z.z.z.l.i.u.u.8.,.,.r.l.z.z.u.u.u.u.u.u.x.K.K.J.J.J.H.m.z.z.k.u.u.u.",
",.,.,.9.u.r.u.u.u.a.H.J.J.J.J.J.S.N.g.g.u.q.u.c.n.n.n.z.z.l.u.4.@.*.,.,.0.z.z.z.u.u.u.u.y.u.x.J.H.K.J.K.K.m.z.z.k.u.u.u.",
"j.j.i.i.d.f.u.8.8.9.M.M.B.B.m.m.b.u.p.p.l.l.k.z.n.n.b.b.c.a.L , # X %.0.r.z.z.z.u.u.u.n.S.V.N.x.f.f.Z.A.Z.b.f.i.k.k.k.k.",
"z.z.z.b.g.d.u.,.,.1.a.a.i.l.l.z.j.r.u.u.z.z.z.n.n.z.m.s.#.3 # o     d 5.h.z.z.z.u.u.u.S.K.K.V.y.y.y.d.g.g.a.a.a.i.z.z.z.",
"z.z.z.b.g.g.u.<.,.<.a.u.a.l.z.z.k.u.r.q.z.z.z.z.n.n.b.P # + o     & & o.k.z.z.l.u.u.u.V.H.J.V.t.y.u.d.g.g.d.a.a.x.z.z.z.",
"z.z.z.l.M.b.i.t.0.0.k.x.a.c.k.k.h.q.q.q.k.c.k.n.n.z.b.s @ X     b { & w 9.j.j.j.u.u.y.M.V.V.v.u.q.u.x.a.a.x.x.x.k.k.l.k.",
"z.z.z.z.z.z.z.z.z.z.z.z.z.h.u.u.y.9.8.9.u.u.u.c.n.n.k.i @ @ 4 ` L.e.h : >.,.,.<.y.y.r.y.u.u.u.u.p.u.q.u.q.c.n.n.b.u.u.u.",
"z.z.z.z.z.z.z.z.z.z.z.z.z.i.u.u.q.9.8.9.u.u.u.c.n.n.X.* O & } s.e.w.N , >.,.,.,.y.y.y.u.u.u.u.u.u.u.u.u.u.c.n.n.k.u.u.u.",
"z.z.z.z.z.z.z.l.z.l.z.z.z.i.u.u.u.8.9.9.u.q.u.k.n.m.t + O & { { ^ ] N 5 <.,.1.,.y.y.u.u.u.u.u.u.u.u.u.u.u.c.n.n.k.u.u.u.",
"H.J.J.m.z.z.m.K.K.H.a.a.a.i.u.u.u.q.u.q.,.,.1.B.J.K.b # O 4 ] ~ ~ Q V $ p z.z.l.a.a.a.S.K.J.D.m.n.n.z.z.z.z.n.n.n.z.n.n.",
"H.H.K.m.z.z.m.K.K.D.a.a.a.p.q.u.u.u.u.u.1.,.1.B.J.d.2 # 1 _ ~ ~ ] G Z 9 5 z.z.z.a.a.a.S.J.J.D.n.n.n.z.z.z.n.n.n.n.n.n.n.",
"J.K.K.m.z.z.m.J.J.H.f.a.a.u.u.0.u.u.u.u.,.1.,.B.Z.r # O 4 L.~ ~  .H D n w z.z.z.a.a.a.S.J.J.D.n.n.n.z.z.z.z.n.n.n.n.n.n.",
"m.m.n.i.t.t.h.m.m.m.l.l.k.l.c.k.k.u.u.u.B.B.B.v.7.3 O O 4 | ~ ~ w.[ S M 0 t.z.z.u.u.y.a.M.M.n.z.z.z.n.c.n.x.i.i.i.k.i.k.",
"z.z.z.0.9.9.t.z.z.z.z.z.z.z.z.z.c.u.u.q.J.J.H.d.:.3 + $ K ] ~ / [ [ v N o ..z.z.r.r.y.i.a.a.b.z.z.z.n.n.n.h.u.q.u.u.u.r.",
"z.z.z.0.8.8.t.z.z.z.z.z.z.z.z.z.k.u.u.u.J.J.J.y.r # + J L.] [ [ ] ! j S 9 ..z.z.r.u.y.u.i.a.a.z.z.z.n.n.n.k.u.p.u.u.u.u.",
"z.z.z.h.h.u.h.z.z.z.k.c.j.z.z.z.x.u.u.u.A.S.S.:.# #   K  .] L.] Q T l S k o.z.z.y.y.r.p.d.a.x.k.l.k.c.k.c.x.c.v.a.u.u.u.",
"z.z.z.z.n.n.z.z.z.z.u.u.u.l.n.n.k.u.u.u.u.u.u.%.# # . K | ^ [ W R T l N * o.z.z.y.y.r.d.g.g.a.u.u.u.u.u.u.D.J.J.V.u.u.u.",
"z.z.z.z.n.n.z.z.z.l.u.u.u.k.n.n.c.u.u.u.u.u.u.@.@ #   K w./ W W W F f 6 # $.z.z.y.y.y.d.d.d.a.u.u.u.q.u.u.V.J.J.V.u.u.u.",
"z.z.z.z.n.n.n.z.n.z.h.q.u.c.n.n.c.u.u.u.u.u.u.+.+ #   K [ | W W W F 7 6 * $.l.l.u.y.r.p.d.d.a.u.u.u.u.u.q.V.J.D.B.i.u.i.",
"u.u.i.k.z.z.m.H.J.D.i.u.u.c.n.z.l.n.n.n.u.u.u.+.@ @ $ Y ] | W W W F k c u q.p.u.g.d.g.7.,.1.8.u.u.u.u.u.u.a.d.a.a.l.l.l.",
"u.u.i.j.z.z.C.H.J.D.p.q.u.c.n.n.n.n.n.n.y.u.4.: @ + _ ] ^ ] W R R A m x U u.u.u.g.g.g.9.,.1.8.u.u.u.u.u.u.p.a.a.k.z.z.l.",
"u.u.u.k.z.z.m.K.H.D.i.u.u.c.n.n.n.n.n.c.q.u.+.# #   ' ] ^ / R W A z m f U u.y.u.g.g.g.q.1.2.1.u.u.u.y.u.u.u.a.a.i.z.z.z.",
"a.d.a.k.i.i.b.K.J.H.c.k.k.h.u.x.u.x.h.x.k.c.*.* +   _ ] ~ T R C g g k f ..r.9.r.p.u.i.i.h.h.i.u.u.u.u.a.i.b.b.l.l.a.f.i.",
"g.g.d.p.u.u.a.H.J.H.z.z.z.x.u.q.u.u.u.q.z.z.*.# O   Y [ E V B g k x 9 2 ..9.8.9.u.u.u.x.n.n.b.u.u.u.a.a.a.l.z.z.l.a.a.a.",
"g.d.d.p.u.u.M.K.J.J.n.z.z.h.u.u.u.u.u.u.z.z.=.* @   ( | ! m g k n c 6 y 6.8.9.8.u.u.u.b.n.n.k.u.u.u.p.a.a.l.z.z.l.a.a.a.",
"A.A.S.x.x.h.x.S.S.S.k.k.j.h.q.p.u.h.h.i.j.k.%.# #   ( w.R N k m m c 1 I a.q.9.9.u.u.u.c.z.n.z.h.i.k.M.M.M.z.z.z.l.u.i.a.",
"K.K.D.B.n.c.c.u.q.q.h.q.q.u.u.u.i.z.n.z.t.0.+.# +   ( ~ D N m m m x 1 ;.V.r.y.y.q.u.u.j.z.z.z.n.n.m.H.K.K.m.z.l.k.u.u.u.",
"K.H.J.C.n.n.c.u.h.q.q.q.q.p.u.q.i.z.z.z.u.u.@.# #   ( W S g m m m c P S.S.y.y.y.u.u.q.z.z.z.z.m.z.m.J.J.J.n.z.z.k.u.u.u.",
"J.K.J.V.n.n.c.u.q.x.x.q.q.q.0.x.h.z.z.z.u.q.@.# @   ( R M 9 m m n f -.K.S.u.y.r.u.u.u.k.z.l.z.m.n.n.J.H.J.m.z.z.k.u.u.y.",
"y.u.u.c.n.n.B.g.v.v.u.u.u.k.z.z.k.t.y.y.9.8.X.# #   b v V g m m z X $.z.h.y.y.y.u.u.u.V.H.H.D.i.a.a.m.n.n.z.z.z.l.f.d.a.",
"u.u.u.l.n.z.b.g.d.v.u.u.u.k.z.z.k.r.y.y.9.6.%.5 # . . z c g m c o e k.z.k.r.u.y.u.u.u.S.J.J.S.a.p.x.l.n.n.z.z.z.l.a.u.a.",
"u.u.u.c.n.m.m.d.d.d.u.y.u.k.z.z.k.y.q.q.9.8.9.*.# @   k x k c + ; y.z.z.k.t.u.y.u.u.u.V.K.H.D.a.a.a.n.n.n.z.z.z.l.a.u.a.",
"u.u.u.r.0.3.k.S.H.S.c.k.k.k.h.h.x.S.V.S.6.,.6.4.: @   9 8 g # - 5.i.b.a.l.k.j.k.V.S.V.M.x.M.b.l.c.l.n.n.n.k.c.x.a.9.9.9.",
"u.u.u.<.,.,.u.J.J.J.z.z.z.i.u.u.x.K.H.J.,.,.1.<.< #   O # @ - 5.u.a.a.a.a.z.z.z.K.J.K.M.u.u.i.z.z.z.z.n.n.f.a.a.u.,.,.,.",
"u.u.u.2.,.,.u.K.H.J.z.z.z.i.u.u.c.J.J.K.,.,.,.t.6.q O . X X o.u.u.a.a.a.x.z.z.z.H.K.K.x.u.u.i.z.z.z.m.n.n.f.a.d.y.,.,.,.",
"u.u.u.0.6.8.u.S.S.V.m.b.b.k.i.i.b.J.J.J.2.2.8.x.m.m.d = O ..a.b.b.x.i.x.l.z.z.z.J.J.K.x.u.u.i.z.z.z.m.C.m.x.u.u.q.1.,.8.",
"u.u.u.u.u.u.u.u.u.u.a.d.M.l.z.z.m.J.J.J.u.u.u.S.H.K.F.r.6.z.K.K.K.m.z.z.z.z.z.z.J.H.J.x.q.u.h.z.n.m.J.K.J.a.8.8.q.y.y.y.",
"y.u.u.u.u.u.u.u.y.p.d.d.g.b.z.z.m.K.K.H.u.y.u.S.J.K.C.z.z.z.K.H.H.V.z.z.z.z.z.z.H.H.K.x.u.y.i.z.n.m.J.J.J.p.9.8.q.t.u.y.",
"u.u.u.u.u.u.u.u.u.p.d.d.g.b.z.n.m.H.K.H.u.u.u.N.H.H.C.z.z.l.G.H.H.B.k.z.z.z.z.z.H.H.H.a.q.y.i.n.n.n.H.K.H.i.8.q.q.q.q.u.",
"z.z.l.k.a.a.p.y.u.u.u.u.u.V.K.G.G.g.g.M.u.u.u.u.u.p.u.1.,.2.a.f.a.u.u.u.x.J.H.H.u.i.i.q.6.1.q.M.v.M.n.n.z.i.u.u.9.6.1.1.",
"z.z.z.b.d.a.u.u.u.u.u.u.u.S.K.H.G.g.g.g.u.u.u.u.u.t.q.,.,.,.i.a.a.i.u.u.x.J.J.J.u.u.u.<.,.,.q.g.g.v.z.z.z.i.u.u.q.,.,.,.",
"z.z.z.x.a.a.u.u.u.u.u.u.u.S.H.K.G.g.g.g.u.u.u.u.u.u.q.,.,.,.u.a.a.u.q.q.x.K.K.K.u.u.u.8.,.,.q.g.g.M.z.z.z.h.u.u.q.,.1.1.",
"z.z.z.B.V.S.V.a.a.a.u.u.u.a.b.b.a.p.a.a.9.9.6.r.u.u.u.p.a.a.b.c.n.c.c.c.x.u.u.p.9.9.q.8.,.1.9.u.a.i.z.z.z.h.u.u.q.q.9.q.",
"z.z.z.H.K.H.G.g.g.d.u.u.u.u.u.u.u.u.u.u.,.,.,.r.u.u.a.g.g.f.m.n.n.n.n.n.h.,.,.1.8.9.9.,.,.,.9.u.y.u.k.z.z.i.u.u.u.u.u.u.",
"z.z.z.H.H.K.S.g.g.g.u.u.u.u.y.u.u.u.u.y.,.,.,.9.u.u.a.g.g.M.z.n.n.n.n.c.k.,.,.8.9.9.8.,.,.,.9.u.u.u.l.z.z.i.u.u.u.u.u.u.",
"z.z.z.z.B.b.b.l.f.b.u.u.u.u.u.u.u.i.i.i.,.,.,.t.k.i.x.b.M.v.c.b.k.z.n.z.z.t.u.u.q.0.q.0.3.0.r.u.i.a.n.m.B.k.u.u.u.a.u.a.",
"z.z.z.0.,.,.t.z.z.z.u.u.r.u.u.u.i.z.z.z.1.,.,.j.n.n.n.n.n.m.x.a.a.b.z.z.m.K.J.J.u.u.u.j.z.l.b.g.g.Z.H.J.K.M.y.u.a.g.g.g.",
"z.z.l.t.,.,.3.z.z.l.u.u.u.u.u.u.t.z.z.z.,.,.,.k.n.z.n.n.n.n.a.a.a.c.l.z.m.J.J.K.u.u.u.k.z.z.n.g.g.g.H.K.H.f.u.u.p.g.M.g.",
"z.z.z.3.,.,.3.z.z.z.u.u.u.u.u.u.h.z.z.z.,.,.,.k.n.n.n.m.z.B.a.p.a.l.z.z.n.J.K.K.u.u.q.z.z.z.c.v.g.g.J.K.K.b.u.u.a.g.g.g."
};
