/* XPM */
static char *_4262_bef657509fc22e8957f8b6658516046fafaa5325bf5fdbe0083cbbe07ed9ec9d[] = {
/* columns rows colors chars-per-pixel */
"60 60 156 2 ",
"   c #061C19",
".  c #091F1C",
"X  c #07211D",
"o  c #09231E",
"O  c #072521",
"+  c #092622",
"@  c #072B25",
"#  c #092C26",
"$  c #0A2F28",
"%  c #0B3129",
"&  c #0D382F",
"*  c #183322",
"=  c #1C3927",
"-  c #113529",
";  c #1B322F",
":  c #173C2B",
">  c #1A3C2B",
",  c #1B3430",
"<  c #103F37",
"1  c #20302F",
"2  c #203432",
"3  c #283636",
"4  c #253B38",
"5  c #0E413A",
"6  c #164437",
"7  c #194232",
"8  c #10453D",
"9  c #194C3D",
"0  c #24412D",
"q  c #244631",
"w  c #234C33",
"e  c #364D3B",
"r  c #2A5235",
"t  c #265239",
"y  c #325439",
"u  c #375E3D",
"i  c #3C673C",
"p  c #3D693C",
"a  c #46733C",
"s  c #49763D",
"d  c #134D43",
"f  c #125146",
"g  c #1B5544",
"h  c #12554A",
"j  c #145A4F",
"k  c #145D51",
"l  c #1C5D53",
"z  c #2F4542",
"x  c #334644",
"c  c #3C4B48",
"v  c #255E55",
"b  c #295E56",
"n  c #3C5552",
"m  c #176255",
"M  c #1D6155",
"N  c #166659",
"B  c #1C6459",
"V  c #3A6242",
"C  c #24685D",
"Z  c #336B62",
"A  c #237265",
"S  c #2B7568",
"D  c #3D7268",
"F  c #37796D",
"G  c #404A49",
"H  c #545E5D",
"J  c #436D42",
"K  c #4E7E42",
"L  c #537445",
"P  c #43746C",
"I  c #467A6E",
"U  c #467970",
"Y  c #4A7A71",
"T  c #5C7571",
"R  c #547B74",
"E  c #5C7C76",
"W  c #5F7C78",
"Q  c #6A7372",
"!  c #627B77",
"~  c #627D79",
"^  c #697E7B",
"/  c #747675",
"(  c #727B7B",
")  c #7A7B7B",
"_  c #528246",
"`  c #588242",
"'  c #568348",
"]  c #5F8E4A",
"[  c #5D9244",
"{  c #548857",
"}  c #628D45",
"|  c #628D4B",
" . c #679646",
".. c #639149",
"X. c #6A974A",
"o. c #6D9E4F",
"O. c #678D54",
"+. c #6F9A55",
"@. c #67945B",
"#. c #759F5D",
"$. c #73AE4B",
"%. c #75B04C",
"&. c #79B24E",
"*. c #7FB84F",
"=. c #74A553",
"-. c #76AF50",
";. c #7EAF54",
":. c #7BA75A",
">. c #78AE58",
",. c #77B352",
"<. c #7BB354",
"1. c #7EB952",
"2. c #7FB558",
"3. c #71807D",
"4. c #7EAC63",
"5. c #81B757",
"6. c #82BA54",
"7. c #81B759",
"8. c #83B95B",
"9. c #88BE5C",
"0. c #82B264",
"q. c #86BA60",
"w. c #8BBC62",
"e. c #8EBE6A",
"r. c #90BF61",
"t. c #91BE6B",
"y. c #87C057",
"u. c #89C256",
"i. c #8FC857",
"p. c #8DC45C",
"a. c #8FC85D",
"s. c #90C657",
"d. c #90C65D",
"f. c #92CA5C",
"g. c #8EC362",
"h. c #8FC861",
"j. c #8EC06B",
"k. c #91C464",
"l. c #94CC61",
"z. c #99CE65",
"x. c #93C36B",
"c. c #99C56E",
"v. c #95C96A",
"b. c #9ACC6D",
"n. c #9CD16C",
"m. c #97C772",
"M. c #99C671",
"N. c #9CCD71",
"B. c #9FD173",
"V. c #A0D36E",
"C. c #A0CE74",
"Z. c #A3D476",
"A. c #A5D579",
"S. c #A8D77B",
"D. c #7B8081",
"F. c #808080",
/* pixels */
"f.f.f.9.8.8.9.l.l.z.A.A.A.A.A.A.v.%.$.$.A.A.A.c.t.t.w.8.8.8.l.l.l.6.%.$.1.f.l.l.8.2.6.8.8.8.9.f.f.i.8.8.8.8.8.8.y.f.f.f.",
"f.f.f.9.8.8.9.l.l.f.A.A.Z.A.A.A.v.%.$.$.A.A.A.c.t.t.w.8.8.9.l.l.f.6.$.$.1.l.l.l.2.8.2.8.8.8.9.i.f.f.8.8.8.8.8.8.u.f.f.f.",
"f.f.f.9.8.8.y.l.l.z.A.A.A.A.A.Z.v.%.$.$.A.A.A.c.t.t.w.8.8.9.l.l.f.6.$.$.1.l.l.l.8.2.8.8.8.8.y.f.f.f.8.8.8.8.8.8.y.f.f.f.",
"f.f.f.y.q.w.y.l.l.l.Z.A.A.b.z.z.h.2.<.,.z.n.n.b.N.C.b.8.7.8.a.l.l.u.u.u.i.f.l.f.8.8.2.8.8.9.j.V.B.n.9.8.8.y.u.p.p.f.f.f.",
"f.f.f.d.w.w.w.f.f.f.Z.A.A.z.f.f.p.8.7.8.l.z.z.Z.A.A.b.8.8.q.l.l.l.f.f.f.f.f.f.f.8.8.8.8.8.2.g.Z.S.B.9.8.8.p.f.f.f.f.f.f.",
"f.f.f.w.w.w.w.f.f.f.Z.A.A.z.f.f.p.2.8.8.l.l.f.B.A.S.b.8.8.8.l.l.l.f.f.f.f.f.f.f.8.2.8.q.8.8.j.S.Z.A.8.9.8.p.f.f.f.f.f.f.",
"f.f.f.k.w.w.9.d.p.d.b.b.b.z.z.z.l.w.w.w.g.p.p.b.b.N.v.w.9.q.g.k.k.d.p.p.s.p.p.p.y.9.y.y.y.g.j.n.B.n.y.q.u.p.f.f.f.u.p.p.",
"f.f.f.w.w.w.w.8.8.8.8.8.8.N.A.A.N.t.e.t.8.8.8.8.8.7.8.w.w.w.q.q.w.8.8.8.6.8.8.8.f.f.l.f.l.l.f.f.f.f.f.f.f.f.f.f.p.8.8.8.",
"f.f.f.k.w.w.8.8.8.8.8.8.8.N.S.S.C.t.t.t.8.8.8.8.8.8.9.q.w.w.w.w.w.q.8.8.8.8.8.6.f.f.i.l.l.l.l.f.f.f.f.f.f.f.s.f.d.8.8.8.",
"s.s.s.9.w.w.w.8.8.7.9.8.8.b.A.A.Z.t.t.t.8.8.8.8.8.8.q.w.w.w.e.q.w.8.7.8.7.8.8.8.a.a.f.f.f.l.l.f.f.l.f.z.f.f.f.f.p.8.8.8.",
"%.$.&.5.8.8.8.8.8.8.C.Z.Z.Z.A.A.N.t.e.t.8.8.8.g.l.l.l.p.f.i.8.8.8.<.$.$.5.i.i.f.8.9.8.9.8.9.j.Z.A.A.A.A.Z.z.f.f.p.7.8.8.",
"$.$.$.2.8.8.8.8.8.w.Z.A.A.A.A.A.C.t.t.x.8.8.8.p.l.z.f.f.f.d.9.8.8.-.$.$.6.f.f.f.8.8.8.8.8.8.g.A.A.A.A.A.A.z.f.f.p.8.8.8.",
"$.$.$.5.7.8.8.8.8.w.A.A.A.A.A.A.C.t.t.t.8.8.8.h.f.l.l.f.f.p.J q r ..$.$.<.f.f.f.8.8.8.8.8.8.g.A.A.A.A.A.A.v.f.f.p.8.8.8.",
"u.u.u.w.e.w.8.,.>.<.k.x.x.v.z.z.l.8.q.w.h.i.p.f.l.l.k.k.g.J % $ . K 6.5.6.f.f.f.8.7.8.k.N.N.c.g.r.r.M.M.M.k.r.w.p.p.h.p.",
"f.f.f.k.t.e.8.$.$.%.w.w.w.d.d.f.u.7.7.8.f.f.f.l.l.l.k.e.u $ $ X . q 8.8.u.f.f.f.8.8.8.N.A.A.b.5.8.8.r.t.t.e.w.w.y.f.f.f.",
"f.i.f.k.t.t.w.$.$.$.8.w.r.d.f.f.p.7.7.5.f.f.f.f.l.l.k.#.@ $ O   3 e 2.8.9.f.f.f.8.8.7.b.A.Z.b.5.7.8.e.t.t.w.w.w.g.f.f.f.",
"s.f.f.k.r.k.9.6.*.6.9.g.r.p.p.d.u.7.2.2.p.a.p.l.l.f.l.+.@ + + 1 / 4 ] 9.y.u.u.9.5.8.5.k.N.b.j.8.2.8.g.w.w.g.p.j.p.p.p.p.",
"f.f.f.f.f.f.f.f.f.f.f.f.f.9.8.8.7.,.<.,.8.8.8.h.l.f.g.| @ # ; ) D.b  .f.y.$.$.$.5.8.8.8.7.8.8.8.8.8.2.8.8.h.l.l.k.8.8.8.",
"f.f.f.f.f.f.f.f.f.f.f.f.f.9.8.8.5.<.,.>.8.8.8.g.l.l.y.w # @ c F.^ b X.f.u.%.$.%.7.7.7.8.8.8.8.8.8.8.8.8.8.g.l.l.p.8.8.8.",
"f.f.f.f.f.f.f.f.f.f.f.f.f.9.8.8.7.,.<.<.8.8.8.p.z.l.w.: # @ G ^ E b } f.u.$.$.$.7.7.7.8.8.8.8.8.8.8.8.8.8.a.l.l.d.8.8.8.",
"S.A.A.z.f.f.z.S.A.Z.w.w.w.8.8.8.8.8.8.8.$.$.$.v.A.Z.t.> # + n R U M y S.B.i.f.f.w.w.w.N.S.Z.B.z.l.l.h.f.f.f.l.l.l.f.l.z.",
"Z.S.A.z.f.f.z.A.A.Z.w.w.w.8.8.8.8.8.8.7.$.$.%.v.S.A.0.- # ; T R R A V S.n.f.f.f.w.w.w.N.A.A.B.l.l.l.f.f.f.l.l.l.f.l.l.l.",
"Z.Z.Z.z.f.f.z.Z.Z.Z.t.w.q.8.8.8.8.8.8.8.$.%.$.v.Z.A.V $ $ 2 ^ R ~ S J A.n.f.f.f.w.w.w.N.Z.Z.Z.l.l.l.f.f.a.f.l.z.l.l.l.l.",
"z.n.z.y.8.6.u.z.z.z.d.d.a.p.p.a.u.8.8.8.c.v.v.j.k.k.q # @ , ~ W ^ S w :.g.f.f.f.8.8.7.w.m.x.l.f.f.l.f.l.l.h.9.y.q.g.y.y.",
"f.f.f.6.<.<.6.f.f.f.i.f.f.f.f.f.p.8.8.8.Z.S.Z.j.7.8.q @ @ x W W ! C 7 | y.f.f.f.7.7.8.8.w.w.k.f.f.f.l.l.l.y.8.8.8.8.8.8.",
"f.f.f.1.,.,.6.f.f.f.f.f.f.f.f.f.p.8.7.8.A.A.Z.j.8.=.- @ @ Q ^ ^ R B g ..y.f.a.l.7.7.7.8.w.8.k.f.f.f.l.l.l.y.8.8.8.8.8.8.",
"a.f.f.y.1.y.y.f.f.f.p.p.p.f.f.f.g.8.8.8.n.N.b.p.9.p $ $ . ^ ( W P B g X.y.f.f.f.5.7.7.w.r.w.q.p.a.p.g.a.a.j.j.j.w.8.8.8.",
"f.f.f.l.l.l.f.f.f.f.8.8.8.p.l.l.h.8.8.8.8.8.8.k.l.p $ $ . ( ^ U D l 7 o.9.f.f.f.7.7.7.e.t.t.e.8.8.8.8.8.8.n.S.Z.N.8.8.8.",
"f.f.f.l.l.l.l.f.f.i.9.8.2.h.l.l.h.8.8.2.8.7.8.k.k.i # # + 3.R U P d > +.6.f.f.l.7.7.7.w.t.t.w.8.8.8.7.8.8.b.A.A.N.8.8.8.",
"f.i.f.f.l.l.l.f.l.h.8.8.8.h.l.l.g.9.8.9.8.8.8.p.f.a # # . F.W U P d w >.y.f.d.d.7.7.7.w.e.e.w.8.8.8.8.8.8.v.Z.Z.b.8.8.8.",
"8.9.9.p.f.f.z.Z.A.B.8.8.8.h.l.f.l.l.h.l.8.8.7.w.w.J # # + ~ E I D k { Z.N.8.q.7.e.e.t.2.$.%.,.8.8.8.8.8.8.w.w.g.r.d.f.d.",
"8.8.8.i.f.f.z.S.A.B.9.8.8.h.l.f.l.l.l.l.8.8.8.w.w.i # # H E R U D m O.S.N.8.q.7.t.t.t.;.$.$.-.8.8.8.8.8.8.q.w.w.9.f.f.f.",
"8.2.8.p.f.f.z.A.A.Z.9.8.8.g.l.l.l.l.l.h.2.q.8.w.| % $ + ) E R P v k O.A.N.8.8.8.t.t.m.2.$.$.,.8.8.8.7.8.8.8.w.w.9.f.f.f.",
"w.e.w.g.9.9.v.A.A.Z.h.p.p.y.9.g.9.9.y.g.p.p.p.g.' $ $ O ) E U Z d f | j.9.<.<.5.w.8.q.y.9.u.9.8.8.8.w.w.w.p.k.d.d.w.d.w.",
"t.t.e.q.8.8.g.A.A.B.l.f.i.g.2.8.8.8.8.8.a.f.f.y._ $ $ O ) U Z d j < ..8.7.,.,.,.8.8.8.p.l.l.d.8.8.8.w.w.w.d.f.f.d.w.w.w.",
"t.t.j.q.7.8.k.A.A.A.f.f.a.y.8.8.8.7.8.8.f.f.f.y._ $ $ o ) P l h k 9 2.8.7.,.;.;.8.8.8.g.l.f.k.8.7.8.w.w.w.p.f.f.d.w.w.w.",
"M.M.m.h.g.y.j.n.B.n.p.p.p.y.2.q.8.u.9.9.p.p.p.9._ $ $ o ) Y j m k t w.k.q.<.2.,.8.8.8.p.f.l.f.9.9.9.x.k.v.f.f.f.d.8.8.w.",
"S.S.A.b.l.h.p.8.2.2.8.8.2.8.8.8.9.f.f.f.6.7.<.7._ $ % o ) F B N k V A.S.N.8.7.8.8.8.8.i.f.f.f.l.l.z.A.A.A.z.i.f.p.7.8.8.",
"A.Z.A.z.l.l.h.8.8.8.8.2.2.q.8.8.9.f.f.f.7.5.7.8._ $ $ o ( A m N k @.A.A.N.7.7.7.8.8.q.p.f.f.f.l.l.z.Z.A.A.z.f.f.p.8.8.8.",
"A.A.A.b.l.l.g.8.8.8.8.2.2.2.y.2.9.f.f.f.7.7.7.8._ # $ o ( M k N k 4.A.A.N.7.7.7.8.8.8.p.f.f.f.l.l.z.A.A.Z.z.f.f.p.8.8.7.",
"8.8.8.g.f.z.v.t.j.j.8.8.8.p.f.f.p.6.8.<.<.,.<.2._ $ $ o Q M j N < =.f.f.u.7.7.7.8.8.8.b.Z.A.b.q.w.q.z.l.l.f.f.f.d.w.w.w.",
"9.8.8.d.k.f.z.t.e.e.8.8.8.p.f.f.p.8.2.8.<.<.,.2._ $ $ o z m j m 2 9.f.f.p.5.7.7.8.8.8.N.A.A.Z.w.w.g.f.l.l.f.f.f.d.w.w.w.",
"8.8.8.g.l.z.v.t.t.e.8.8.8.p.f.f.p.2.2.2.,.,.<.2._ $ $ o + j m & L f.f.f.p.5.7.7.8.8.8.b.A.A.N.w.w.w.l.l.l.f.f.f.d.w.w.w.",
"8.8.8.6.1.*.y.C.Z.N.p.p.p.u.9.u.g.N.N.N.-.$.-.9.i.a $ @ + j f * 8.9.w.k.p.u.p.p.b.b.b.x.g.k.k.d.k.f.l.l.l.d.g.w.8.2.,.<.",
"7.8.8.%.$.$.8.A.A.Z.f.f.f.9.8.8.x.A.Z.Z.$.$.$.u.f.a @ @ o 8 % ..8.w.w.w.r.f.f.f.A.A.S.g.7.8.9.f.f.f.z.l.l.r.w.w.8.$.$.$.",
"8.8.8.&.$.$.8.A.A.A.l.f.f.u.8.8.g.A.Z.S.$.$.$.u.f._ $ + X @ = 2.8.w.w.w.k.f.f.f.A.A.S.x.8.8.9.f.f.f.l.l.f.t.w.w.8.$.$.$.",
"8.8.8.<.,.&.8.b.b.N.l.k.k.p.9.9.l.A.A.A.&.&.,.k.z.8.r $ o X | k.g.k.9.r.d.f.f.f.A.S.A.g.8.8.9.f.f.f.n.b.n.g.8.8.7.&.$.-.",
"8.8.8.8.8.8.8.8.8.8.w.e.x.k.f.f.z.A.A.A.8.8.8.b.S.A.0.> o 4 M.A.S.z.f.f.f.f.f.f.Z.A.A.g.7.7.u.l.f.l.A.A.A.9.,.-.2.5.7.7.",
"8.8.8.8.8.8.8.8.7.w.e.e.t.k.f.f.z.S.S.A.8.8.8.b.A.A.B.f.&.5.A.A.A.b.f.f.f.f.f.f.A.A.A.g.7.7.9.f.l.z.Z.A.A.q.,.<.2.7.7.7.",
"8.8.8.8.8.8.8.8.7.q.e.e.t.k.f.f.z.A.C.A.8.8.8.c.B.Z.n.d.s.d.Z.C.A.l.d.f.f.f.f.f.Z.A.Z.w.7.7.8.l.z.l.Z.A.A.9.,.2.5.7.7.7.",
"f.f.f.9.w.w.w.8.8.8.q.8.8.b.S.Z.C.t.t.x.8.8.8.8.9.9.5.%.&.&.9.r.w.8.8.8.j.A.A.Z.8.9.8.2.-.$.5.t.x.j.l.l.f.9.8.8.<.-.,.%.",
"f.f.f.p.w.w.q.8.8.7.8.8.8.N.A.A.C.t.t.t.8.8.8.8.8.8.<.$.$.$.w.w.w.q.7.8.g.A.A.A.8.8.8.,.$.$.2.t.e.x.f.f.f.9.8.9.<.$.$.$.",
"f.f.f.g.w.w.q.8.8.8.8.8.8.N.A.A.C.t.t.t.8.8.8.8.8.8.<.$.$.$.w.q.w.8.2.2.g.A.S.S.8.7.8.&.$.$.<.t.t.t.f.f.f.9.5.8.2.$.$.%.",
"f.f.f.v.N.N.c.w.w.q.9.8.8.w.k.g.g.w.w.8.;.<.-.2.8.8.8.w.w.9.k.k.l.h.g.h.y.q.8.9.2.2.2.$.$.$.,.w.w.9.f.f.f.9.8.8.8.2.<.<.",
"f.i.f.Z.A.A.N.t.t.e.8.8.8.8.8.7.8.8.8.8.$.$.$.<.8.8.w.e.t.t.l.l.l.l.l.l.y.$.%.,.,.<.<.-.$.$.,.8.8.8.p.f.f.u.8.8.8.8.8.7.",
"f.f.f.V.A.S.C.t.t.t.8.8.8.8.8.8.7.8.8.8.$.$.$.2.7.8.w.t.t.x.l.l.l.l.l.l.y.$.$.-.,.;.,.$.$.$.,.8.8.8.d.f.f.9.8.5.8.7.8.7.",
"f.f.f.z.v.k.k.k.k.k.8.8.7.8.8.8.8.9.9.9.$.$.$.6.y.y.g.x.j.x.h.l.p.f.l.l.i.8.8.8.1.2.<.1.<.6.6.9.9.w.l.z.z.q.8.8.8.q.q.w.",
"i.f.f.1.$.$.6.s.f.f.8.8.8.8.8.8.9.f.f.f.$.$.$.u.l.l.l.l.z.l.q.w.w.k.f.a.z.S.A.A.8.8.8.p.f.f.k.t.t.m.Z.S.A.k.8.8.w.t.t.t.",
"f.f.f.*.$.$.*.f.f.f.8.8.8.8.8.7.9.f.f.f.$.$.$.p.l.l.z.l.l.l.w.q.w.f.f.f.z.A.A.A.8.8.8.p.f.i.g.t.t.t.A.A.A.k.8.8.w.t.x.t.",
"f.f.f.*.$.$.*.f.f.d.9.8.8.8.8.8.9.f.f.f.$.$.$.u.l.l.l.l.f.z.w.w.w.p.f.f.z.S.S.A.8.8.8.i.f.f.l.e.t.t.Z.A.S.x.8.8.w.t.t.t."
};
