/* XPM */
static char *_6040_d82c6cf9e6691e4b15ac9f1524bf194d040e59019d8a4ed8c104da53776eaa54[] = {
/* columns rows colors chars-per-pixel */
"60 60 135 2 ",
"   c #08231E",
".  c #092723",
"X  c #072C25",
"o  c #0A2B25",
"O  c #0A2D28",
"+  c #182E2B",
"@  c #0D322B",
"#  c #163829",
"$  c #1D3D2C",
"%  c #0C3730",
"&  c #1D3734",
"*  c #253E3B",
"=  c #0E4037",
"-  c #0F4239",
";  c #234B32",
":  c #25403B",
">  c #29443F",
",  c #2C5535",
"<  c #305536",
"1  c #325B36",
"2  c #335D39",
"3  c #3A5B3C",
"4  c #3A643B",
"5  c #40673A",
"6  c #426D3F",
"7  c #4A743F",
"8  c #14574C",
"9  c #19554B",
"0  c #155C4E",
"q  c #2E4542",
"w  c #204B44",
"e  c #27514D",
"r  c #2A554E",
"t  c #225A4F",
"y  c #2D5A53",
"u  c #335650",
"i  c #3A5752",
"p  c #395D57",
"a  c #3E5E59",
"s  c #196251",
"d  c #21654E",
"f  c #2D634B",
"g  c #3C6441",
"h  c #3B6F4B",
"j  c #377047",
"k  c #3E7146",
"l  c #3C734C",
"z  c #3B7A4F",
"x  c #2E675E",
"c  c #3C7167",
"v  c #404F4C",
"b  c #425855",
"n  c #455B58",
"m  c #427346",
"M  c #4D7445",
"N  c #517746",
"B  c #577F4D",
"V  c #44635E",
"C  c #4D7C50",
"Z  c #516563",
"A  c #5C6665",
"S  c #526F6B",
"D  c #46786F",
"F  c #477970",
"G  c #497870",
"H  c #547C74",
"J  c #637D79",
"K  c #4C8746",
"L  c #4C834C",
"P  c #4D8B4A",
"I  c #558247",
"U  c #5D8A47",
"Y  c #5E8D49",
"T  c #5E964F",
"R  c #468556",
"E  c #558450",
"W  c #53865B",
"Q  c #508E5B",
"!  c #5E8E5C",
"~  c #65934E",
"^  c #65994F",
"/  c #658256",
"(  c #62845A",
")  c #6C9657",
"_  c #679950",
"`  c #67995E",
"'  c #72A44F",
"]  c #73AE4B",
"[  c #75B04C",
"{  c #79B24E",
"}  c #7FB84F",
"|  c #73A653",
" . c #76AF50",
".. c #7BAE55",
"X. c #7AAE59",
"o. c #77B352",
"O. c #7BB354",
"+. c #7EB952",
"@. c #7FB558",
"#. c #81B757",
"$. c #82BA54",
"%. c #81B759",
"&. c #83B95B",
"*. c #88BE5C",
"=. c #86BB60",
"-. c #8BBC62",
";. c #8EBE6A",
":. c #90BF61",
">. c #91BE6B",
",. c #87C157",
"<. c #89C256",
"1. c #87C059",
"2. c #8DC45C",
"3. c #90C65D",
"4. c #92CA5C",
"5. c #8EC362",
"6. c #8FC861",
"7. c #8EC06B",
"8. c #91C564",
"9. c #94CC61",
"0. c #99CE65",
"q. c #93C36B",
"w. c #99C56E",
"e. c #96C96A",
"r. c #9ACC6E",
"t. c #9CD16C",
"y. c #97C772",
"u. c #99C671",
"i. c #9CCD71",
"p. c #9FD173",
"a. c #A0D36F",
"s. c #A0CE74",
"d. c #A3D376",
"f. c #A5D579",
"g. c #A8D67B",
/* pixels */
"4.4.4.*.&.&.*.4.9.0.d.f.f.f.f.f.e.] ] ] f.f.f.w.>.>.-.&.&.&.4.0.0.+.[ ] } 9.9.9.$.&.+.&.&.&.&.4.4.4.&.&.&.&.&.&.1.4.4.4.",
"4.4.4.*.&.&.1.9.9.9.f.f.f.f.f.f.e.[ ] ] f.f.f.w.>.>.>.&.&.&.4.9.4.$.] ] +.9.9.9.&.+.&.&.&.&.*.4.4.4.*.&.&.&.&.&.1.4.4.4.",
"4.4.4.*.&.&.1.9.9.0.d.f.f.f.f.f.e.[ ] ] f.f.f.w.>.>.-.&.&.&.9.9.4.$.] ] +.9.9.9.%.@.@.&.&.&.1.4.4.3.&.&.&.&.&.&.<.4.4.4.",
"4.4.4.1.=.=.5.9.4.9.f.f.f.t.9.0.6.@.O.o.0.t.t.r.s.s.e.&.&.&.4.9.4.<.<.*.<.9.4.9.&.&.%.&.&.&.5.t.d.0.&.&.&.1.2.2.<.4.4.4.",
"4.4.4.5.-.-.-.4.4.4.d.f.f.0.4.3.2.&.&.&.9.9.9.f.g.f.i.&.&.&.9.9.4.4.4.4.4.4.4.4.&.&.&.&.&.&.5.f.f.d.&.&.&.2.4.4.4.4.4.4.",
"4.4.4.5.-.-.*.4.4.4.f.f.f.0.4.4.2.&.&.&.9.4.4.p.f.g.r.&.&.=.9.9.0.4.4.4.4.4.4.4.&.&.&.&.&.&.q.g.f.d.*.&.&.2.4.4.4.4.4.4.",
"4.4.4.:.-.-.:.2.2.3.r.r.r.0.0.0.8.-.-.-.8.2.2.r.r.r.q.&.=.=.6.6.8.3.2.2.3.2.3.2.&.&.1.5.1.1.8.t.p.t.1.*.,.2.4.4.4.2.2.2.",
"4.4.3.:.-.-.-.%.&.&.&.&.&.r.g.d.i.>.;.>.&.&.&.&.&.&.&.-.-.-.-.-.-.&.&.&.$.$.&.&.4.4.4.4.9.9.9.4.4.4.4.4.4.4.4.4.2.$.&.&.",
"4.4.4.*.-.-.&.%.&.&.&.&.&.i.g.f.i.>.>.>.&.&.&.&.&.&.*.-.-.-.-.-.-.&.&.&.&.&.&.$.4.4.4.9.9.4.4.4.4.4.4.4.4.4.4.4.<.&.&.&.",
"3.4.4.:.-.-.=.&.&.&.&.-.&.r.g.g.d.>.>.>.&.&.&.&.&.&.&.-.-.-.-.-.-.&.&.%.%.&.&.$.4.4.4.4.9.9.0.4.4.4.4.0.4.4.4.4.3.&.&.&.",
"[ ] ] $.&.&.&.&.&.&.s.d.d.f.f.f.s.>.>.q.&.&.&.2.9.9.9.2.9.4.&.&.&.O.o.] O.4.2.4.&.&.&.&.&.&.7.f.d.f.g.f.d.0.4.4.2.&.&.&.",
"] ] ] O.&.&.&.&.&.-.d.f.f.f.f.f.s.>.;.q.&.&.&.6.9.9.4.4.4.Y ; ; _  .] ] $.4.4.4.&.&.&.&.&.&.5.f.g.f.f.g.f.0.4.4.2.%.&.&.",
"] ] ] #.%.&.&.&.&.-.d.f.f.g.f.f.s.q.>.y.&.@.&.3.9.9.4.4.4., O O Y ..] ] O.4.4.4.&.&.&.&.&.&.5.g.f.f.g.f.g.0.3.4.2.&.&.&.",
"<.<.<.-.-.-.&.O.O.O.>.q.q.e.0.0.8.&.&.=.2.4.2.4.9.9.8.q.%.O O o N &.#.#.*.4.4.4.&.&.&.8.i.i.e.-.:.:.u.u.y.q.8.-.2.2.2.3.",
"4.4.4.:.>.>.-.] ] [ -.-.*.3.4.4.2.%.%.%.4.4.9.4.9.4.8.q.E O O   / -.&.&.*.4.4.4.&.&.&.r.f.f.i.%.%.%.>.>.>.-.-.-.2.4.4.4.",
"4.4.4.3.>.>.&.] ] ] =.*.-.3.4.4.2.%.%.%.4.4.4.9.4.0.5.>.M . . + B *.&.$.*.4.4.4.%.&.&.i.f.d.r.$.%.&.-.>.>.-.-.-.-.4.4.4.",
"4.4.4.8.:.8.*.$.} $.1.8.5.5.2.2.*.O.@.@.2.2.2.9.9.9.8.-.M . o v ( 6.1.1.1.1.,.<.&.&.%.8.r.r.q.#.&.&.-.-.-.-.5.6.5.2.3.3.",
"4.4.4.4.4.4.4.4.4.4.4.4.4.1.&.&.#.O.O.O.&.&.&.6.4.9.6.%.4 O o A ( 4.4.4.,.[ ]  .%.%.%.&.&.&.&.&.&.&.&.&.&.6.9.9.6.&.&.&.",
"4.4.4.4.4.4.4.4.4.4.4.4.4.&.&.&.@.O.O.[ &.&.%.6.9.9.2.%.$ o o Z ` 4.4.4.,.] ] ] %.%.%.&.&.&.&.&.&.&.&.&.&.6.9.9.2.%.%.&.",
"4.4.4.4.4.4.4.4.4.4.4.4.4.*.&.&.@.o.O.O.&.&.&.6.9.0.6.%.# o . V C 4.4.3.,.[ [ ] &.%.%.&.&.&.&.&.&.&.&.&.&.2.9.9.3.&.&.&.",
"f.f.d.0.4.4.0.g.f.d.-.-.-.&.&.&.&.&.&.&.] ] ] e.f.f.r.&.# . . S R d.d.f.t.4.4.4.-.-.-.i.f.f.p.9.9.9.4.4.9.4.9.9.9.4.9.9.",
"f.f.f.0.4.4.0.g.f.d.-.-.-.=.&.&.&.&.&.&.] ] ] e.f.g.i.X.O o o J Q d.f.d.t.4.4.4.-.-.-.i.f.f.d.9.9.8.4.4.4.4.9.9.9.9.9.9.",
"f.f.f.0.4.4.0.f.f.d.-.-.5.@.&.&.&.&.&.&.] ] ] e.f.f.i.~ o o . J W d.f.f.a.4.<.4.-.-.-.i.f.f.p.9.9.9.4.4.4.9.9.9.9.9.9.9.",
"0.0.0.1.$.$.1.0.0.0.3.3.3.2.2.2.1.&.&.&.e.e.r.7.q.8.:.~ o o o H l 1.7.5.9.4.4.4.%.&.&.-.q.y.8.4.4.9.4.9.9.2.*.5.1.-.1.1.",
"4.4.4.$.O.O.$.4.4.4.4.4.4.4.4.4.6.&.&.&.f.f.g.5.&.&.&.^ o o * J z +.&.&.&.4.4.4.%.%.%.&.-.-.q.4.4.4.9.9.9.1.&.&.&.&.&.$.",
"4.4.4.+.o.o.$.4.4.4.4.4.4.4.4.4.2.&.@.&.f.g.f.7.&.&.&.I O o * J l @.&.&.1.4.4.4.%.%.%.&.&.-.2.4.4.9.9.9.9.<.&.&.&.&.&.&.",
"4.4.4.1.&.$.,.4.4.4.2.2.<.4.4.4.6.&.&.&.r.i.r.2.*.1.1.4 O o * H j @.&.&.1.4.4.4.%.%.%.-.>.-.-.2.2.2.3.2.6.5.7.6.-.&.&.&.",
"4.4.4.4.9.9.4.4.4.4.&.&.$.3.9.9.6.&.&.&.&.@.&.8.4.9.q.g . o : H k &.%.%.1.4.4.4.%.%.%.-.>.>.-.&.&.&.&.&.&.i.f.f.i.&.&.&.",
"4.4.4.9.0.9.4.4.4.4.&.&.&.2.9.9.6.&.&.&.&.&.%.3.4.9.8.g O o q D m &.&.&.&.4.4.4.%.%.%.>.;.>.-.&.&.&.&.&.&.y.f.f.i.&.&.&.",
"<.4.4.4.9.9.4.4.9.3.&.&.&.6.9.9.2.&.&.&.&.&.&.8.9.4.8.g o o q G L &.$.&.1.4.3.4.%.&.%.&.;.;.-.&.&.&.&.&.&.r.f.p.r.&.&.&.",
"1.&.1.3.9.4.0.f.f.p.&.&.&.6.9.4.6.9.9.9.&.&.&.&.5.-.=.4 o o q D P q.d.d.r.&.=.&.>.;.>.#.] [ o.&.&.@.&.&.&.-.-.7.:.3.4.3.",
"&.&.&.<.4.4.0.f.f.f.&.&.&.6.9.9.9.9.9.9.&.&.&.-.-.-.=.4 o o b c K q.f.g.i.&.&.&.>.>.>...] ] O.&.&.&.&.&.&.&.-.-.*.4.4.3.",
"&.&.&.2.4.4.0.f.f.d.&.&.&.6.9.9.9.9.9.9.&.&.&.-.-.:.-.< O o n x K e.f.f.r.&.&.&.;.>.>.%.] ] O.%.&.%.&.&.&.&.-.-.-.4.4.4.",
"-.7.-.5.1.*.q.f.f.d.3.2.3.2.=.1.1.&.5.1.2.2.3.-.&.&.&.1 o O i t T 1.q.8.*.O.@.@.*.&.&.*.2.1.*.&.&.&.&.-.*.8.3.3.3.-.*.5.",
">.>.;.=.&.%.5.f.f.d.4.4.4.5.@.&.&.&.&.&.4.4.4.1.&.&.1.2 X O u 9 ^ &.&.&.@.O.O...&.&.&.6.4.9.8.$.&.&.-.-.-.3.3.4.3.-.-.-.",
">.>.;.=.&.&.q.f.f.f.9.4.4.1.&.&.&.%.&.&.4.4.4.&.&.&.*.1 o o p 8 | &.&.&.@.O.{ ..&.&.&.6.9.9.8.&.&.&.=.-.-.3.4.4.3.-.-.-.",
"u.u.r.5.1.5.5.i.r.p.6.2.<.1.@.=.&.*.1.*.<.2.2.*.&.&.1.2 O . a 8 | -.q.8.*.#.O.#.&.&.&.3.9.4.4.1.1.5.q.q.q.4.4.3.3.*.*.=.",
"f.g.d.r.9.6.2.&.&.@.@.1.@.&.&.@.*.4.4.4.$.%.#.%.&.&.*.1 O O p 0 ..i.f.f.w.#.%.%.&.&.&.2.4.4.4.9.4.0.f.f.g.4.4.4.2.%.&.&.",
"f.f.f.r.9.4.6.&.&.&.@.@.@.=.&.&.*.4.4.4.%.%.%.&.&.&.&.1 o X y s @.i.f.f.i.%.%.%.&.&.&.2.4.4.4.9.9.0.d.f.g.0.4.4.2.&.&.&.",
"f.f.f.t.9.9.8.&.&.@.&.@.@.@.1.&.*.4.4.4.%.%.%.%.&.&.1.2 O X r d %.r.f.f.r.%.%.%.&.&.&.2.4.4.9.9.4.0.f.f.d.0.4.4.2.%.&.&.",
"&.&.&.8.9.9.9.>.7.7.&.&.&.2.4.4.2.$.%.@.O.o.o.@.&.&.*.2 O o e f >.8.4.4.2.#.%.%.&.@.&.r.f.f.t.*.-.-.e.9.9.4.4.4.2.-.-.-.",
"&.&.$.3.9.9.9.>.>.7.&.&.&.2.4.4.2.%.%.%.o.O.O.%.&.&.1.2 o . w h >.3.4.4.2.#.%.%.&.&.&.i.f.f.i.-.=.5.4.4.9.4.4.4.3.-.-.-.",
"&.&.%.8.9.0.e.>.>.;.&.&.&.2.4.4.2.@.&.@.o.o.O.&.&.&.*.2 o o - E >.3.4.4.<.%.#.%.&.&.&.r.f.f.i.-.-.-.9.9.9.4.4.4.3.-.-.-.",
"&.&.%.$.$.O.1.i.d.i.2.2.2.2.1.1.6.r.i.r. . .] &.2.2.2.4 o o - ~ -.-.8.-.3.2.2.2.r.r.r.q.8.q.8.8.6.3.9.9.9.8.6.5.&.O.O.O.",
"&.&.&.O.] ] &.f.f.d.4.4.4.,.&.&.5.f.f.f.] ] ] ,.4.4.2.6 o o @ | &.-.-.-.8.3.4.4.f.f.g.5.&.%.*.4.4.4.0.0.4.q.-.-.&.] ] ] ",
"&.&.%.{ ] ] &.f.f.f.4.4.4.*.&.$.8.f.f.f.] ] ] ,.4.4.2.6 o o @ %.%.-.-.-.:.4.4.4.g.f.g.q.&.&.,.4.4.4.9.4.4.-.-.-.%.] ] ] ",
"&.&.&.O.O.{ &.i.r.i.8.9.3.3.&.1.q.f.f.f.{ { O.2.0.0.4.7 . O $ q.5.q.2.-.3.4.4.4.d.g.f.5.&.&.&.4.4.4.0.t.t.5.&.&.@.{ [ ..",
"&.&.&.&.&.&.&.%.&.&.;.>.>.e.4.4.0.f.f.f.&.&.&.i.g.g.a.' . . 3 f.g.0.4.4.4.4.4.4.f.d.g.5.$.&.1.9.9.9.f.f.f.-.O.o.@.%.%.#.",
"&.&.&.&.&.&.&.&.%.=.;.;.>.8.4.4.0.f.g.f.%.%.&.s.f.f.t.2.7 5 ) g.f.0.4.4.4.4.4.4.f.f.f.5.%.%.*.9.4.0.f.f.f.-.O.O.@.%.&.%.",
"&.&.&.&.&.&.&.&.%.=.;.;.>.8.0.4.0.d.s.f.&.&.%.r.d.d.t.3.2.4.s.f.d.e.2.4.4.4.4.4.d.d.d.-.@.%.&.9.9.9.d.f.d.*.O.O.O.&.@.%.",
"4.4.3.*.-.-.-.&.*.&.&.&.&.r.d.s.s.>.>.q.&.&.%.&.&.*.#.] { { *.:.-.*.&.&.6.f.f.d.-.&.&.O.o.] @.q.q.7.9.9.9.1.%.&.O.] [ [ ",
"4.4.4.3.-.-.&.&.&.&.&.&.&.s.g.g.s.>.>.>.&.&.&.&.&.&.@.[ ] [ &.-.-.&.&.&.5.d.g.g.&.&.&.{ ] ] @.>.>.q.4.4.4.&.&.&.@.] ] ] ",
"4.4.4.5.-.-.-.&.&.&.&.&.&.i.f.f.s.>.>.>.&.&.&.&.&.&.@.] ] { &.-.-.&.@.@.-.g.g.g.&.&.&.O.] ] O.>.>.q.4.4.4.*.&.&.@.] ] ] ",
"3.4.4.0.i.i.e.-.-.-.&.&.%.*.8.q.q.&.-.-.O.O...#.%.&.&.=.*.&.8.8.8.6.6.6.5.&.=.&.@.O.O. .] ] O.-.&.&.4.4.4.1.&.&.&.@.@.@.",
"4.4.4.a.f.f.s.>.>.;.&.&.&.%.&.&.%.&.&.&.] ] ] O.&.&.-.>.>.>.9.9.9.9.9.9.1.] ] ] O.o.O.] ] ] o.&.&.&.2.4.4.*.&.&.&.&.%.&.",
"4.4.4.d.f.g.i.>.>.>.&.&.&.&.&.&.&.&.&.%.] ] ] O.&.%.-.>.>.>.9.9.9.9.9.9.1.] ] o.O. .O.] ] ] o.%.&.&.4.4.4.*.&.&.&.%.&.%.",
"4.4.4.9.8.e.8.8.8.:.&.%.&.&.%.&.&.*.*.*.] ] ] $.1.1.8.q.q.q.6.9.3.3.4.9.4.+.&.@.@.@.@.+.} O.$.-.-.-.0.0.0.*.&.&.&.-.&.-.",
"4.4.4.} ] ] $.4.4.4.&.%.&.&.&.&.*.4.4.4.] ] ] <.9.9.9.9.9.9.-.-.-.9.4.4.0.g.g.f.1.@.@.2.4.4.9.>.q.>.d.g.d.q.&.&.-.>.>.>.",
"4.4.4.O.] ] } 4.4.4.*.&.&.&.%.&.$.4.4.4.] ] [ <.9.4.9.9.9.9.-.-.-.6.4.4.0.g.f.f.&.&.&.4.4.4.6.;.>.>.f.g.f.8.&.&.-.>.q.>.",
"4.4.4.} ] ] } 4.4.4.&.&.&.&.&.&.*.4.4.4.] ] ] 2.9.9.9.9.4.9.>.-.-.2.4.4.0.g.g.f.&.&.@.2.4.3.9.q.>.>.f.f.f.q.&.&.-.>.>.>."
};
