/* XPM */
static char *_5106_97d5ef188c9001251da8fcbc30e9e893f906802fd3d676baab3bfe5dd5e0156f[] = {
/* columns rows colors chars-per-pixel */
"60 60 139 2 ",
"   c #082722",
".  c #092A25",
"X  c #0B2E29",
"o  c #0E3228",
"O  c #14342A",
"+  c #173E2C",
"@  c #183F2D",
"#  c #0E3731",
"$  c #1B3834",
"%  c #243F3B",
"&  c #22452F",
"*  c #254732",
"=  c #264931",
"-  c #2D5334",
";  c #24543C",
":  c #325A35",
">  c #355D39",
",  c #3A5F3D",
"<  c #3A6634",
"1  c #3A603B",
"2  c #416B3D",
"3  c #42713A",
"4  c #4A7B3A",
"5  c #185D4B",
"6  c #264D48",
"7  c #2B4E48",
"8  c #314A47",
"9  c #3E5552",
"0  c #176E5E",
"q  c #3F625C",
"w  c #2E7759",
"e  c #317C5D",
"r  c #377A62",
"t  c #477044",
"y  c #4B794A",
"u  c #49645F",
"i  c #476460",
"p  c #4D6360",
"a  c #496A63",
"s  c #506D69",
"d  c #5A6868",
"f  c #53726D",
"g  c #38865C",
"h  c #1D806E",
"j  c #1E8975",
"k  c #3B896C",
"l  c #248272",
"z  c #228D7B",
"x  c #2E8978",
"c  c #23907D",
"v  c #3D9176",
"b  c #528040",
"n  c #5A8647",
"m  c #5E8C44",
"M  c #41835F",
"N  c #5C8155",
"B  c #47915E",
"V  c #49945C",
"C  c #5B9C5A",
"Z  c #679A4F",
"A  c #629A53",
"S  c #6B9B53",
"D  c #71975E",
"F  c #769F5D",
"G  c #73A34D",
"H  c #73AE4B",
"J  c #75B04C",
"K  c #79B24E",
"L  c #7FB84F",
"P  c #72A654",
"I  c #76AD50",
"U  c #79AE56",
"Y  c #74A259",
"T  c #77B352",
"R  c #7BB354",
"E  c #7EB952",
"W  c #7EB458",
"Q  c #7FB859",
"!  c #479561",
"~  c #40956E",
"^  c #529562",
"/  c #589263",
"(  c #458670",
")  c #4D9573",
"_  c #4B9B78",
"`  c #5CA663",
"'  c #81B757",
"]  c #82BA55",
"[  c #88BF57",
"{  c #81B759",
"}  c #83B95B",
"|  c #88BE5C",
" . c #86BA60",
".. c #8BBC62",
"X. c #8EBE6A",
"o. c #90BF61",
"O. c #91BE6B",
"+. c #87C057",
"@. c #89C256",
"#. c #8DC45C",
"$. c #90C65D",
"%. c #92CA5C",
"&. c #8EC362",
"*. c #8FC861",
"=. c #8EC06B",
"-. c #91C464",
";. c #94CC61",
":. c #99CE65",
">. c #93C36B",
",. c #99C56E",
"<. c #95C96A",
"1. c #9ACC6E",
"2. c #9CD16C",
"3. c #97C772",
"4. c #99C671",
"5. c #9CCD71",
"6. c #9FD173",
"7. c #A0D36E",
"8. c #A0CE74",
"9. c #A3D376",
"0. c #A5D579",
"q. c #A8D77B",
"w. c #279683",
"e. c #239983",
"r. c #58A094",
"t. c #70A39A",
"y. c #7CAFA8",
"u. c #6CB0A5",
"i. c #6CB4A8",
"p. c #70B4A5",
"a. c #75B4A9",
"s. c #8E9494",
"d. c #84A49F",
"f. c #98A7A4",
"g. c #82B5AC",
"h. c #8BB6AC",
"j. c #92B5AF",
"k. c #94B7B1",
"l. c #93B8B1",
/* pixels */
"%.%.%.| } } | ;.;.:.0.9.q.0.0.0.<.J H H 0.0.0.,.O.O...} } } ;.;.;.] J H E %.;.;.} ] } } { } | %.%.%.} } } } } } +.%.%.%.",
"%.%.%.| } } | ;.;.%.9.0.0.0.0.0.<.J H H 0.0.9.,.O.O...} } | %.;.%.] H H E ;.;.;.} Q R } } } | $.%.%.| } } } } } +.%.%.%.",
"%.%.%.| } } +.;.;.:.9.0.0.0.9.0.<.H H H 0.0.0.,.O.O...} } } ;.;.%.E H H ] ;.;.;.{ Q } } } } | %.%.%.} } } } } } @.%.%.%.",
"%.%.%.+. . .#.;.;.%.0.0.0.2.:.:.*.Q R T :.2.2.1.8.8.1.} } } ;.;.%.#.@.[ #.%.%.%.{ Q } } } } &.6.2.2.} } } #.#.+.@.%.%.%.",
"%.%.%.&.......$.%.%.0.0.0.:.%.%.#.Q } } ;.;.;.9.0.0.1.} }  .;.;.;.%.%.%.%.%.%.%.} } } } } } &.q.q.9.| { } @.%.%.%.%.%.%.",
"%.%.%.&.....#.%.$.%.0.0.0.:.%.$.#.} } } ;.;.%.9.0.0.5.} } } ;.;.;.$.%.%.%.%.%.%.} } } } } } -.0.q.6.} } } #.%.%.%.%.%.%.",
"%.%.%.o.......$.#.$.1.1.1.:.:.:.-.......-.&.$.<.1.5.>.|  .| &.&.;.$.#.$.#.#.#.#.} | | #.} #.-.2.6.2.#.#.} #.%.%.%.#.#.#.",
"%.%.%.........' } } } } } 5.9.q.5.>.X.O.} { } } } } } ............} } } ] ] } } %.%.%.%.%.;.;.%.%.%.%.%.%.%.%.%.#.} } } ",
"%.%.%.| ......} } } { } } 1.q.0.5.O.O.O.} } } } } } } ............} } } } } } ] %.%.%.%.;.;.%.%.%.%.%.%.%.%.%.%.#.} } } ",
"$.%.%.o.....} } } } } ..| 1.q.9.9.O.O.O.} } } } } } | ............} } } Q } } [ $.$.%.%.%.%.:.%.%.%.;.;.%.%.%.%.#.] } } ",
"J H H ] } } } } } } 8.9.9.0.0.0.8.O.O.>.} } } #.;.;.*.%.$.#.} } } R H T R %.%.#.} } | } }  .=.0.0.0.0.0.9.:.%.%.#.} } } ",
"H H H R } } } } } ..9.0.0.0.0.0.8.O.O.X. .} } *.;.;.;.[ @ + - } } I H H E %.%.%.} } } } } } &.0.0.0.0.0.0.:.%.%.#.} } } ",
"H H H ' } } } } } ..9.9.0.0.0.0.8.O.O.O.} } } #.;.;.%.] . X X P } I H H E %.%.%.} } } } } } &.0.0.0.0.0.0.<.$.%.#.} } } ",
"@.@.@.......} T T R >.>.<.<.:.:.;.}  . .$.#.#.%.;.;.:.D . o X y X.} Q R [ %.%.%.} } } ;.5.1.<.X.o.o.4.4.,.>.-.o.#.#.#.#.",
"%.%.%.o.O.O...H H I ......#.$.%.#.{ { } %.%.%.:.;.%.<.D * . . + O.} } } } %.%.%.} } } 5.0.0.1.{ } } o.O.O.........%.%.%.",
"%.%.%.$.O.O.} H H H } ..o.$.%.%.#.{ { ' %.%.%.%.;.;.1.y d     o O...} } +.%.%.#.} } } 1.q.9.1.{ { } X.O.O.......#.%.%.%.",
"%.%.%.$.-.-.o.] L ] #...&.#.#.#.+.' W ' #.#.%.%.;.;.;./ s.    O >.o.[ [ [ @.@.[ } } } >.1.1.-.} } }  .&...&.&.*.#.$.#.#.",
"%.%.%.%.$.%.%.%.%.%.%.%.%.| } } ' T R T } } } &.;.%.-.^ f.. . o $.%.%.%.@.H H H } ' } ' } } { } Q } } } } *.*.;.&.} } } ",
"$.%.%.%.%.%.%.%.%.%.%.%.%.| } { { T T U } } } &.;.;.$./ d.. . . G %.%.%.@.H H H { ' ' } } } } } } } } } } &.;.;.#.} } } ",
"%.%.%.%.%.%.%.%.%.%.%.%.%.| } } { T W T } } } &.;.:.&.g t..     I %.%.%.@.H H H { ' { } } } } } } } } } } #.;.;.$.} } } ",
"0.0.0.:.%.%.:.0.0.9.......} } } } } } } H H H <.9.q.1.~ y.X .   } 9.0.0.2.%.%.%.......5.0.9.9.;.;.;.*.%.%.%.;.;.;.%.;.;.",
"0.0.0.:.%.%.:.0.0.9.....&. .} } } } } } H H H <.9.q.5.) l.* X . P 7.9.0.2.%.%.$.......5.0.0.6.;.;.;.%.%.%.;.:.;.;.;.;.;.",
"0.0.0.:.%.%.:.9.0.9..... .} } Q } } } } H H H <.0.q.4.) k.$ .   n 7.9.0.7.%.%.%.......5.q.9.6.;.;.;.%.%.$.%.;.;.;.;.;.;.",
":.:.:.+.] } +.:.:.:.$.$.$.#.$.#.+.} } } <.<.<.>.O.-. .( h.#     y &.>.&.$.%.%.%.} } } ..3.>.>.%.%.;.%.;.;.*.+...| | | #.",
"%.%.%.] R T ] %.%.%.%.%.%.%.%.%.#.} } } 0.0.0.=.{ } W v k.7 . . 4 { } } } %.%.%.{ { { } ....-.%.%.%.;.;.;.#.} } } } } ] ",
"%.%.%.E T T ] %.%.%.%.%.%.%.%.%.#.} Q } 0.0.0.*.} } W v k.9 . . 3 R } } +.%.%.%.{ { { ....| ..%.%.%.;.;.;.+.} } } } } } ",
"%.%.%.+.} +.+.%.%.%.#.#.#.%.%.;.&.} } } <.6.1.&.| #.} k g.9 . . : Q } } +.%.%.%.{ { '  ...o...#.#.#.*.#.*.&.=.&...} } } ",
"%.%.%.%.;.;.%.%.%.%.} } Q $.;.%.*.} } } } } } -.%.%...r a.9 . . > ' { Q | %.%.%.{ { } ..O.O.X.} } } } } } 5.0.0.5.} } } ",
"%.%.%.%.;.;.%.%.%.$.} } Q *.;.;.*.} } Q { } } #.;.%...r i.9 . . > } R } [ %.%.%.{ { { ..O.O...} } Q } } } 3.0.0.5.} } } ",
"%.%.%.%.;.;.%.%.;.%.+.} } *.;.;.&.| } } } } } &.;.;.-.k a.8 . . > } | } } %.%.-.{ } ' ..X.X...{ } } } } } 1.9.9.1.} } } ",
"} } } $.%.%.:.0.0.6.} } } &.;.%.;.;.;.;.} } { ..#....._ a.7     < >.9.9.1.} } } O.X.O.W H J T } } } } } } ........%.$.$.",
"} } } %.%.%.:.q.0.6. .} } $.;.%.;.;.;.;.} } } ......} k i.a . . < <.0.0.5.} }  .O.O.O.U H H T } } } } } } ......$.%.%.$.",
"} Q } #.%.%.:.0.0.9.| } } &.;.;.;.;.;.;.Q } } ........e u.f . . - >.0.0.5.} } { O.O.>.R J K T } } } { { } } ....| %.%.%.",
"..X...&.+.| <.0.9.9.#.#.#.#.+.| | | +.&.#.#.#.| } | } w r.f . . & &.=.*.| R E W ..} ..+.+.+.} } } } ......#.-.$.$...#...",
"O.O.X. .} } ..q.0.9.;.%.%.+.Q  .} } } } %.%.%.| } } } g x s . . * } Q } { T K U } } } &.;.;.-.} } } ......$.%.%.$.......",
"O.O.=. .} } =.9.0.0.;.%.%.| } Q { } } } %.%.%.| } } +.! l a . . * Q } } ' R R K } } } &.;.;.%.} } }  .....$.%.%.$.......",
"4.4.3.*.+.&.*.5.5.:.#.#.#.} } } } | | +.@.#.#.} } } | B z u . . * &.>.-.| ' ' U } } } $.%.;.$.+.| #.>.>.-.$.%.%.$. ...} ",
"0.q.6.2.;.*.&.} } } } { Q  .} } | %.%.%.' { ' } } } | V w.u . . - <.0.0.1.} ' ' } } } #.%.%.%.;.%.:.0.0.0.:.%.%.#.' } } ",
"0.0.9.2.;.;.&.} { } { { Q } } } | %.%.%.' } { } } } | ` w.q   . - 1.0.0.1.{ { { } } } #.%.%.%.;.;.:.9.0.0.:.%.%.#.} } } ",
"0.0.q.1.;.;.%.} } } { Q { } Q } | %.%.%.{ ' { } } } | ` z u   . - 1.0.0.5.{ { { } } } #.%.%.;.;.;.;.0.0.0.:.%.%.#.} ' } ",
"} } } #.;.;.-.O.X.X.} } } #.%.%.#.' ] { R T T { } } | C w.q . . , -.%.%.#.{ { { } } } 1.0.0.2.......;.;.;.%.%.%.$.......",
"} } } -.;.;.:.O.O.X.} } } #.%.%.#.{ { { R T T ' } } | A j 7 . . , -.%.%.#.{ { { } } } 1.0.0.5.......;.;.;.%.%.%.$.......",
"} } } $.;.;.;.O.O.O.} } } #.%.%.#.Q } Q T R T } } }  .P 0 # . . , -.%.%.@.} { { } } } 1.0.0.5.......;.;.;.%.%.%.$.......",
"} } { ' ] E | 9.8.5.$.#.#.#.+.+.&.1.5.3.I H I } #.#.&.U 0 # . . t | &.&.$.@.#.#.:.5.3.>.&.>.-.$.;.%.;.;.;.$.&.&.| U R T ",
"} } } K H H } 0.0.9.%.%.%.} } } >.9.0.0.H H H +.%.%.#.} 5 .     Z ......o.$.%.%.0.0.q.&.} } } %.%.%.;.;.%.O.....} H H H ",
"} } } K H H } 0.0.0.%.%.%.| } ] &.0.9.q.H H H +.%.%.#.} ; .   . Z | ....-.%.%.%.0.0.q.>.} } +.%.%.%.;.;.%.......} H H H ",
"} } } R T I } 1.5.5.;.-.-.#.+.#.;.0.0.0.K K T -.:.:.%.| t   . . Y &.#.-.;.$.%.%.0.q.0.-.} } +.;.%.%.:.2.2.&.} | ' K H I ",
"} } } } } } } } } } X.O.O.-.%.%.:.0.0.0.} [ } 5.0.0.7.%.m . . * 8.:.$.%.%.%.%.%.9.9.0.&.' } +.;.;.;.0.0.0...U T W { { { ",
"} } } } } } } } {  .X.X.O.-.%.%.:.q.0.0.} } } 1.0.9.6.%.G   . F 0.:.%.%.%.%.%.%.0.0.0.&.{ { | ;.;.:.0.0.0.| R T W { { { ",
"} } } } } } } } }  .X.X.O.;.%.%.:.0.0.0.} } } ,.9.9.2.%.#.#.5.8.0.<.%.%.%.%.%.%.9.9.9...{ { | ;.;.;.9.9.0.| R W ' { { ' ",
"%.%.%.$..... .} } } } } } 4.q.9.8.O.O.O.} } } } } ..{ K J K #.o.....} } &.0.9.9...} | R H I Q >.O.>.;.;.%.| { } Q H H H ",
"%.%.%.| .... .} } } } } } 5.0.0.8.O.O.O.} } } } } } R H H J | ....} } { =.0.0.9.} } } T H H R O.O.=.%.%.%.| } } R J H H ",
"%.%.%.&..... .} } } } } } 5.0.0.8.O.O.O.} } } } { } E H H J ......} Q Q &.0.0.q.} } } T H H R O.O.>.%.%.%.[ } } W H H H ",
"%.%.%.:.5.5.<.......} } } ..-.-.&.} ....U R I ' } } {  .| } -.-.-.&.*.*.&.} } | W R W H H H T ....| %.%.%.| } } Q W W W ",
"%.%.$.7.0.0.8.O.O.X.} } } { } } } } ] } H H H ' } } ..X.O.O.;.;.;.;.;.;.+.H H T I R I K H H T } { } #.%.%.+.} } } } } } ",
"%.%.%.9.0.0.8.O.O.O.} } } } } { } } } ' H H H W } } ..O.O.O.;.;.;.;.;.;.+.H H I R R R H H H T } } } $.%.%.| } { } } } } ",
"%.%.%.;.<.-.-.-.o.-.} } } } } } } | | | H H H ] +.#.&.-.>.>.-.;.$.$.%.;.%.] +.Q Q R R Q L E ] | ....%.:.;.&.} } } ..| ..",
"$.%.%.E H H ] %.%.%.} } } ' } } | %.%.%.H H H @.;.;.;.;.;.;.......;.%.%.:.q.9.0.} } } %.%.%.-.O.O.3.0.q.0.>.{ } ..O.O.X.",
"%.%.%.L H H L %.%.%.} } } } } } } %.%.%.H H J #.;.;.;.;.;.;.......&.%.%.:.q.0.0.} } Q #.%.%.-.O.O.O.0.0.0.-.} }  .O.O.O.",
"%.%.%.L H H L %.%.$.} } } } } } | %.%.%.H H H +.;.;.;.;.;.;.......#.%.%.:.0.q.0.} } } #.%.%.$.O.O.O.9.0.0.>.} } ..O.O.O."
};
