/* XPM */
static char *_7552_0d3a4d2a62f697b6df28fbda9ea851e8bc9608747d718af28c252bfdf1d28063[] = {
/* columns rows colors chars-per-pixel */
"60 60 171 2 ",
"   c #07241F",
".  c #072621",
"X  c #082622",
"o  c #072A24",
"O  c #092924",
"+  c #0B2F29",
"@  c #0D322A",
"#  c #0D382F",
"$  c #113227",
"%  c #11342B",
"&  c #1C3E2C",
"*  c #153B2C",
"=  c #183732",
"-  c #183C33",
";  c #253E3A",
":  c #1F412D",
">  c #1F4530",
",  c #10433C",
"<  c #284A2F",
"1  c #20432D",
"2  c #2A4E34",
"3  c #224734",
"4  c #27563C",
"5  c #2C5034",
"6  c #345738",
"7  c #3B623A",
"8  c #456A3F",
"9  c #507C3F",
"0  c #124E44",
"q  c #105246",
"w  c #15594C",
"e  c #145D51",
"r  c #374D4A",
"t  c #196558",
"y  c #1E6F5C",
"u  c #2F6040",
"i  c #2A694E",
"p  c #346A46",
"a  c #206550",
"s  c #20735F",
"d  c #1A7464",
"f  c #1B7B6B",
"g  c #247B6C",
"h  c #237864",
"j  c #425B56",
"k  c #475D5A",
"l  c #466A43",
"z  c #4A7642",
"x  c #4E7449",
"c  c #457B49",
"v  c #527E43",
"b  c #54794C",
"n  c #43605B",
"m  c #466B64",
"M  c #5E716F",
"N  c #6E7E7B",
"B  c #3C8059",
"V  c #1D8472",
"C  c #1E8977",
"Z  c #1F8E7B",
"A  c #238472",
"S  c #358D7D",
"D  c #27907F",
"F  c #47814E",
"G  c #568346",
"H  c #5C8B4A",
"J  c #588646",
"K  c #5E8652",
"L  c #66934C",
"P  c #6A9C4E",
"I  c #649247",
"U  c #679454",
"Y  c #6B9D55",
"T  c #6C9556",
"R  c #73A54F",
"E  c #73AE4B",
"W  c #75B04C",
"Q  c #79B24E",
"!  c #7FB84F",
"~  c #74A354",
"^  c #76AF50",
"/  c #7AAE54",
"(  c #79AD58",
")  c #77B352",
"_  c #7BB354",
"`  c #7EB952",
"'  c #7FB559",
"]  c #7EA963",
"[  c #81B657",
"{  c #81BA55",
"}  c #81B759",
"|  c #83B95B",
" . c #88BE5C",
".. c #86BA60",
"X. c #8BBC62",
"o. c #8EBE6A",
"O. c #87B165",
"+. c #90BF61",
"@. c #91BE6B",
"#. c #87C057",
"$. c #8AC256",
"%. c #8DC45C",
"&. c #91C65D",
"*. c #92CA5C",
"=. c #8EC362",
"-. c #8FC861",
";. c #8FC16B",
":. c #91C563",
">. c #94CC61",
",. c #99CE65",
"<. c #93C36B",
"1. c #95C96A",
"2. c #9ACC6D",
"3. c #99C56E",
"4. c #9DD16C",
"5. c #97C772",
"6. c #99C671",
"7. c #9CCD71",
"8. c #9FD173",
"9. c #A0CE74",
"0. c #A3D476",
"q. c #A5D579",
"w. c #A8D67B",
"e. c #3B8F81",
"r. c #219B86",
"t. c #219F89",
"y. c #3B9385",
"u. c #309D8A",
"i. c #399888",
"p. c #20A089",
"a. c #2DA28F",
"s. c #37A18D",
"d. c #2EA692",
"f. c #38A996",
"g. c #38B39F",
"h. c #668780",
"j. c #778681",
"k. c #7A8986",
"l. c #4DA394",
"z. c #4DAB9B",
"x. c #45AC99",
"c. c #40B7A3",
"v. c #58B6A6",
"b. c #59B7A9",
"n. c #6CBBAE",
"m. c #74BBAE",
"M. c #6DBDB0",
"N. c #7BBEB2",
"B. c #838E8C",
"V. c #969F9D",
"C. c #8BB3AA",
"Z. c #84BEB4",
"A. c #8CBEB5",
"S. c #8CBFB8",
"D. c #97BFB7",
"F. c #99A8A5",
"G. c #A0A6A6",
"H. c #A1BFBD",
"J. c #ACBCB9",
"K. c #B2B8B6",
"L. c #8CC0B7",
"P. c #8EC1B9",
"I. c #83C0B1",
"U. c #93C0B9",
"Y. c #9CC1BB",
"T. c #ABC2BF",
"R. c #A1C1BC",
"E. c #BEC0BF",
"W. c #BCC3C1",
"Q. c #B5C4C1",
"!. c #C3C5C5",
/* pixels */
"*.*.*. .} } %.>.>.,.0.q.q.q.q.q.1.W E E q.q.q.3.@.@.X.| |  .>.>.>.` W E ` *.>.>.| } { | | |  .*.*.%.| } | | |  .%.*.*.*.",
"*.*.*. .} }  .>.>.>.0.0.q.q.q.q.1.W E E q.q.q.3.@.@.=.} | ..*.>.>.{ E E ` >.>.>.| { ' | | |  .*.*.*. .| } | } } #.*.*.*.",
"*.*.*. .| } %.>.>.,.0.q.q.q.q.q.1.E E E q.q.q.3.@.@.X.| | | >.>.*.{ E E { >.>.>.} } } } } |  .*.*.*.} | } | | } #.*.*.*.",
"*.*.*.%.....=.*.>.>.0.q.q.4.,.,.-.' _ ) ,.4.,.7.9.9.3.| '  .-.>.*.$.$.#.$.>.*.*.} | } | | | %.0.0.4.| | | %.%.%.%.*.*.*.",
"*.*.*.:.X.O.=.*.*.*.q.q.q.,.*.*.%.} | | >.>.>.0.q.q.2.| | | >.>.>.*.*.*.*.*.*.*.| | | | | } ;.q.q.0...| | %.*.*.*.*.*.*.",
"*.*.*.X.X.X.%.*.*.*.0.q.q.,.*.*.%.| } | >.>.*.0.q.q.2.} | ..>.>.>.*.*.*.*.*.*.*.| | | ' | | =.q.q.0.| ' } *.*.*.*.*.*.*.",
"*.*.*.:.X.X.X.%.%.&.3.7.2.,.,.,.>.X.X.X.:.-.%.1.7.7.<.X. ...-.:.:.&.%.$.*.$.%.%.#. . .%.%. .-.4.8.4.%. .%.$.*.*.*.$.$.*.",
"*.*.*.X.X.X.X.[ | | | | | 7.q.q.7.@.o.@.| | | | | } | X.X.X.X...X. .| | | | | | *.*.*.>.>.>.>.*.*.*.*.*.*.*.*.*.%.| | | ",
"*.*.*.&.X.X.X.} | | | | | 7.q.q.0.@.@.@.| |  .} | | | X...X.X.X.X...} | | | } { *.*.*.>.>.*.>.*.*.*.*.*.*.*.*.*.*.| | | ",
"*.$.*.+.+.X...} } |  .X. .2.q.q.7.@.@.@.| | } } |  . ...X.X.X.X.X.} } | } |  .| *.%.*.*.>.>.>.*.*.>.*.,.*.*.*.*.%.[ | | ",
"W E E [ | | | | } ..7.0.0.q.q.q.9.@.@.@.| | | -.>.>.%.Y P R | | | _ W E _ *.%.*.| | |  .| | ;.q.q.q.q.q.0.,.*.*.%.} | | ",
"E E E _ | | | | | X.0.q.q.q.q.0.9.@.o.<...| } -.>.>.P o + % H | | ) E E { *.*.*.| | | | | | -.q.q.q.q.q.0.>.*.*.%...| | ",
"E E E [ [ [ | [ | X.0.q.q.q.q.q.9.@.@.@.| | | -.>.>.b X O + * P | ) E W [ *.*.*.} | | | | | =.q.q.q.q.q.w.,.*.*.%.| | | ",
"$.$. . .@.X.| ) _ _ <.<.<.1.,.,.>. .....%.%.%.*.>.<.; = O @ + # U  .} ' { *.*.*.| | | 1.7.2.3.=.:.+.6.6.6.:.=.:.%.%.%.%.",
"*.*.*.:.@.@.| E E W ..X. .=.*.*.%.} } } *.*.*.>.>.~ j T O O     6 ..| | #.*.*.*.| | | 3.q.q.3.[ } | @.@.@.X.X.O...*.*.*.",
"*.*.*.:.@.@. .E E W X.| +.&.*.*.%.} } } *.*.*.*.>.z m !.n O .   l X.} [ %.*.*.*.| | | 2.q.q.4.[ } [ X.@.@.o.X.X.=.*.*.*.",
"*.*.*.&.:.:.+.{ ! {  .=.+.-.%.%.#.[ ' ' %.%.:.*.>.z l.W.E.r X X 8  . . . .$. . .{ [ | <.2.2.<.| } | ..o.X.=.=.-.-.%.%.%.",
"*.*.*.*.*.*.*.*.*.*.*.*.*. .| | [ ) ) ) | | } -.>.z z.Y.!.k.O O $ / *.*.$.E E E { [ [ [ | | | | | | | | } -.>.>.-.| | | ",
"*.*.*.*.*.*.*.*.*.*.*.*.*. .| | [ _ _ ) | | } -.%.7 z.Z.H.k.O X . I *.&.$.E E E  .[ | | | [ | | | | | | | -.>.>.%.} | | ",
"*.*.*.*.*.*.*.*.*.*.*.*.*. .} | } ) / ' | | | %.~ > g.N.N.T X X   L *.*.$.E E E } [ [ | | | | | | | | } } -.>.>.-.| | | ",
"q.0.q.,.*.*.,.q.0.0.X.X... .| | } } | | E E W 1.] d g.S.N.Z.; X o T q.q.4.*.*.*.X.X.X.7.q.q.8.>.>.>.*.*.*.*.>.>.>.>.>.>.",
"q.q.q.,.*.*.,.q.q.0.X.X.X...| | | | } | E E W 1.] g c.Y.N.H.j o o & 9.w.4.*.*.*.X.X.X.7.q.q.8.>.>.>.*.*.*.>.>.>.*.>.>.>.",
"q.q.q.2.*.*.,.q.0.0.@. .=.| | |  .| | | E W W 1.K g b.T.N.H.j X . . @.0.4.*.*.*.X.X.X.7.q.q.8.>.>.>.*.*.*.*.>.>.>.>.>.>.",
",.,.>. .{ } #.,.,.,.&.&.%.%.%.%.%.} | | <.1.1.;.r g l.H.Z.S.n X . . ;.:.>.*.*.*.[ | | X.5.<.1.*.*.*.>.>.>.=. . . . .%. .",
"*.*.*.{ _ ) { *.*.*.*.*.*.*.*.*.-.| | | q.q.0.;.a a.y.D.R.U.F.O o o ~ | #.*.*.%.} } } | +.X.:.*.*.*.>.>.>. .| | | | } } ",
"*.*.*.` ) ) { *.*.*.*.*.*.*.*.*.%.| ' | 0.q.q.=.i d.y.Z.T.T.W.% O + 6 | %.*.*.*.} } } X.X. .X.*.*.*.>.>.>.%.| | | } | | ",
"*.*.*.#.{  .$.*.*.*.%.%.$.*.*.*.-.| | | 7.7.7.-.4 D i.n.U.H.W.@ O X & /  .*.*.*.} } } X.X.X.X.%.%.%.-.%.-.=.-.;.=.| | | ",
"*.*.*.*.>.>.*.*.*.*. .| | %.>.>.-.| | | | | | %.4 y y.n.m.S.Q.+ X X 1 '  .*.*.*.} } } X.@.@.o.} | | | | } 7.q.q.7.} | | ",
"*.*.*.*.>.>.*.*.*.%. .} } =.>.>.-.} | | | | | :.p e e.M.M.Z.J.+ X X : '  .*.*.*.} } } X.@.@.X.| | | } | | 7.q.q.7. .} | ",
"*.*.*.*.>.>.*.>.>.>.| } } -.>.>.=.|  .| | | | &.F d y.M.M.Y.J.O X X 2 }  .&.*.*.} [ } X.o.o.X.| | | | | } 3.0.8.3.|  .| ",
"|  . .%.*.*.,.q.0.8. .| | -.>.*.>.-.>.>.| | | X.Y A i.M.M.Y.A.= . . 6 0.3. ...| @.o.@.' E E ) | | | | |  ...;.X.+.&.&.*.",
"| } } *.*.*.,.q.0.0...| } -.>.*.>.>.>.>.| | | ..L d u.n.M.L.L.B.o . 2 9.2.} | | @.@.@.( E E ) | | | | | | ..X.X. .*.*.*.",
"| } | %.*.*.,.q.q.0...} } -.>.>.>.>.>.-.| | | ..U h C l.n.A.A.K.O O + b 7. .} | @.@.@.' E W ) | | | | | | | X.X.X.*.*.*.",
"X.o.X.=.#. .<.q.q.0.*.%.%.%...%...%.%. .%.%.%. .L y d g n.m.S.G.O O X 2 .._ _ [ X. . . .#.#. .| | | X. .X.=.&.&.+. .X.=.",
"@.@.o...| | X.q.0.0.>.*.*.=.| | | | | | *.*.*. .P i f f S x.Z.V.o O O 2 } ) Q _ | | | =.>.>.:.} | | X.X.X.*.*.*.&.X.X.X.",
"@.@.;...| } <.q.q.q.>.*.*.#.| ' | | } } *.*.*.%.[ h f Z f u.A.V.O O X 6 } / Q _ | } | -.>.>.>.} } } X.X.X.%.*.*.&.X.X.X.",
"6.6.5.-.=. .=.7.7.4.%.$.$. .' | |  .#. .%.%.%. .| c f t.f u.D.V.O X O 6 :.[ _ _ | | } %.*.*.*.%. .%.<.<.<.*.*.*.&.| X. .",
"q.q.8.2.>.>.-.| ' | | | ' | | |  .*.*.*.[ } } [ | z f t.r.d.L.k.O O O l 7.} } } | | } *.*.*.%.>.>.,.0.q.q.*.*.*.%.[ | | ",
"q.q.q.4.-.*.-.| | | | ' | ' | |  .*.*.*.[ } } | | Y A t.t.a.n.k.O O O x 7.} } } } | | %.*.*.*.>.>.,.0.q.q.,.*.*.%.| | | ",
"q.q.q.4.>.>.>.} | | | ' ' | | |  .*.*.*.} [ | [ | [ d t.t.V v.j.O X O x 3.} } }  .| | %.*.*.>.>.>.,.q.q.0.,.*.*.%.[ | | ",
"| | | %.>.>.:.@.;.=. .} } %.*.*.%.{ } } _ ) ) } | ' 0 r.t.f v.j.O O O 9 #.} } } | | | 2.0.q.4...X. .>.>.>.*.*.*.&.X.+.X.",
"| | | :.*.*.,.@.o.o.}  .| %.*.*.%.} } } _ ) ) } | } < C t.f e.M O X O v %.} } } | | | 7.q.q.0...X.=.:.>.,.*.*.*.&.X.X.X.",
"| | | &.>.>.1.@.@.@.| } ' %.*.*.%.' } ' ) _ _ _ } | G e t.f A = O O X J %.[ } } | | | 2.q.q.7.....X.>.>.*.*.*.*.&.X.X.X.",
"| | | { { [ %.9.9.7.:.%.%.%.#.%.=.7.7.7.^ E ^  .%.%.} > C f f O X X 2 ~ %.%.%.%.2.3.7.<.:.:.:.>.:.>.>.>.>.:.=.=. ._ ) _ ",
"| | | ) E E | q.q.0.*.*.*.%.| } :.q.0.q.W E E #.*.*.%.v , f d O X X T X.+.*.*.*.q.q.w.=.} }  .*.*.*.>.>.>.:.X.X.} E E E ",
"} | | Q E E | q.q.0.>.*.*.#.| | :.q.0.q.E E E #.*.*.%.( % e q O X X ~ X.+.*.*.*.q.q.w.<.} .. .*.*.*.>.>.>.X.X.X.| R E E ",
"[ | | ` ) ) | 7.7.7.>.:.:.%.| %.1.0.q.q.Q Q ) &.4.,.>. .H # O X X O ~ +.*.*.*.*.q.q.q.=. .}  .*.*.*.,.4.2.=.| | ' Q W W ",
"|  .| [ | | } } | | o.o.@.>.*.%.,.q.q.q.| | | 7.q.q.4.*.%.& X X X v *.*.*.*.*.*.0.q.q.=.} } #.>.,.>.q.q.q. ._ _ _ } } } ",
"| | | | | | | | } ..o.o.@.1.*.*.,.w.q.q.[ [  .7.q.q.4.*.*.v X X b 4.*.*.*.*.*.*.0.q.q.=.' |  .>.>.,.0.q.q..._ ) _ } | } ",
"| | | | | | | | | ..o.o.+.:.*.*.,.q.q.q.| | | 3.8.0.4.%.*.%.O.7.0.,.*.*.*.*.*.*.0.0.0.X.} '  .>.>.>.0.q.q. .' _ _ } } } ",
"*.*.*.:.X.X.| | | | ..| | 6.q.q.9.@.@.@.| | |  . . .} E E Q X.+.X... .| :.q.0.0.X. . ._ ^ E ' <.;.<.>.>.>.%.} } _ / W W ",
"*.*.*.X.X.X...| | } | | | 7.q.q.9.@.@.@...| | [ | } [ E E E  .X.X.| } } =.q.0.q.| | | Q E E _ @.@.<.&.*.*.#.| | } E E E ",
"*.*.*.=.X.X.X.} | | | | | 7.q.q.0.@.@.@.| } | | | | ` E E Q X.X.X.} ' ' =.w.q.q.[ | | Q E E _ @.@.@.*.*.*. .} | ' E E W ",
"*.*.*.,.7.7.1.X.X...|  .} =.:.;.X...X.X./ _ / ' | | | X. .| :.:.:.:.-.-... .|  .' ' ' E E E ) X.X. .*.*.*. .| } | ' _ _ ",
"*.*.*.8.q.q.9.@.@.o.| | | } | } } | } | E E E _ | | ..o.@.@.>.>.>.>.>.>.%.E E ) _ / / Q E E ) | } | %.*.*.#.| | | | | } ",
"*.*.*.0.q.w.7.@.@.o.| | | | | | | | | { E W W _ | | ..@.@.@.>.>.>.>.>.-.#.E E ^ ) _ ) E E E ) | | | *.*.*. .| | | } | } ",
"*.*.*.:.1.1.*.+.+.+.[ | } | | |  . . . .E E E { %. .=.-.<.<.-.>.*.*.*.>.*.{  .| ' _ ' ` ` ` {  ...X.>.,.>.=.[ | | ..X...",
"*.*.*.{ E E { *.*.*.| | | | | |  .*.*.*.E E E $.>.>.>.>.>.:...X...:.*.*.,.q.q.0.| | | $.*.*.:.@.<.6.0.q.q.<.| | X.@.@.@.",
"*.*.*.! E E ! *.*.*.| | | | | } { *.*.*.E E W %.>.>.>.>.>.>.X.X.X.&.*.*.,.w.q.q.| | | *.*.*.-.@.@.@.q.q.q.:.| | X.@.<.@.",
"*.*.*.! E E ! *.*.*. .| | | | |  .*.*.*.E E E $.>.>.>.>.>.>.X.X.X.:.*.*.,.q.w.q.| | | $.*.*.:.@.@.@.q.q.0.@.|  .X.@.@.@."
};
