/* XPM */
static char *_674_f411ba108800e48c9ad08cbb931f76f36b480c016be79cd42755888c33ed2b78[] = {
/* columns rows colors chars-per-pixel */
"60 60 179 2 ",
"   c #07231F",
".  c #08231E",
"X  c #072621",
"o  c #092621",
"O  c #072C25",
"+  c #092A25",
"@  c #0B2F28",
"#  c #102F2A",
"$  c #0E312B",
"%  c #143325",
"&  c #17362B",
"*  c #173B2A",
"=  c #1B3C2B",
"-  c #0C3932",
";  c #183835",
":  c #153530",
">  c #0D453A",
",  c #24442F",
"<  c #254C31",
"1  c #2A4C32",
"2  c #21403A",
"3  c #2B5332",
"4  c #345E3A",
"5  c #335938",
"6  c #3A653B",
"7  c #3A693F",
"8  c #4B733E",
"9  c #114E43",
"0  c #115045",
"q  c #145A4E",
"w  c #13574A",
"e  c #145C50",
"r  c #2D4A45",
"t  c #294641",
"y  c #38514E",
"u  c #36514C",
"i  c #395852",
"p  c #3C5752",
"a  c #166356",
"s  c #196659",
"d  c #186A5B",
"f  c #196759",
"g  c #206C5F",
"h  c #297859",
"j  c #2D7658",
"k  c #377E52",
"l  c #1A7363",
"z  c #1B7B6B",
"x  c #167361",
"c  c #467242",
"v  c #4A7741",
"b  c #4F7B45",
"n  c #4A7049",
"m  c #517D48",
"M  c #48615D",
"N  c #1C816F",
"B  c #1D8372",
"V  c #1E8977",
"C  c #1F8C7A",
"Z  c #228573",
"A  c #228A77",
"S  c #238E7C",
"D  c #24907E",
"F  c #5F8D45",
"G  c #57854B",
"H  c #5D8C49",
"J  c #558247",
"K  c #5E9146",
"L  c #578151",
"P  c #5D8550",
"I  c #648F4A",
"U  c #64934B",
"Y  c #6C974F",
"T  c #669849",
"R  c #6B9C4C",
"E  c #6FAB49",
"W  c #73AE4B",
"Q  c #75B04C",
"!  c #79B24E",
"~  c #7FB84F",
"^  c #6FA051",
"/  c #72A452",
"(  c #77AD54",
")  c #7BAD55",
"_  c #7EAA5F",
"`  c #77B352",
"'  c #7BB354",
"]  c #7EB952",
"[  c #7EB458",
"{  c #7FA862",
"}  c #81B657",
"|  c #82BA55",
" . c #88BF57",
".. c #81B759",
"X. c #83B95B",
"o. c #88BE5C",
"O. c #86BA61",
"+. c #8BBC62",
"@. c #8EBE6A",
"#. c #90BF61",
"$. c #91BE6B",
"%. c #87C057",
"&. c #89C256",
"*. c #8DC45C",
"=. c #91C65D",
"-. c #92CA5C",
";. c #8EC262",
":. c #8FC861",
">. c #8EC06B",
",. c #91C563",
"<. c #94CC61",
"1. c #99CE65",
"2. c #93C36B",
"3. c #96C96A",
"4. c #9ACC6D",
"5. c #99C56E",
"6. c #9CD06C",
"7. c #96C671",
"8. c #99C671",
"9. c #9CCD71",
"0. c #9FD173",
"q. c #A0D36D",
"w. c #A0CE74",
"e. c #A3D476",
"r. c #A5D579",
"t. c #A8D67B",
"y. c #239B86",
"u. c #299482",
"i. c #25A68E",
"p. c #2BAB94",
"a. c #26AA93",
"s. c #31A792",
"d. c #34AB97",
"f. c #28B098",
"g. c #36BBA4",
"h. c #3BBDA6",
"j. c #529B90",
"k. c #748483",
"l. c #708985",
"z. c #47A291",
"x. c #4AA293",
"c. c #45AC99",
"v. c #52A899",
"b. c #74B8AB",
"n. c #72BEB1",
"m. c #3CC0A9",
"M. c #48C1AE",
"N. c #47C1AC",
"B. c #6EC1B2",
"V. c #66C1B0",
"C. c #71C5B6",
"Z. c #74C5B8",
"A. c #7AC6B9",
"S. c #84908C",
"D. c #8F9998",
"F. c #899595",
"G. c #9EA7A6",
"H. c #9EAAA8",
"J. c #81B3AA",
"K. c #ACB3B2",
"L. c #ABBEBC",
"P. c #B2B7B6",
"I. c #B4B9B7",
"U. c #84C7BB",
"Y. c #82C8BA",
"T. c #8CC8BD",
"R. c #95C5BD",
"E. c #94C8BF",
"W. c #99C8BE",
"Q. c #97C9C0",
"!. c #9BC9C0",
"~. c #A4CAC3",
"^. c #AACAC5",
"/. c #B5CCC9",
"(. c #BCCCC9",
"). c #C1C3C3",
"_. c #C7C9C6",
"`. c #C2CDCB",
"'. c #CDCECE",
/* pixels */
"-.-.-.o.....*.<.<.<.r.r.r.r.r.r.3.Q E E r.r.r.5.$.$.+.X.X.X.-.<.<.| Q E ] <.<.<.| ....X.X.X.o.-.-.-.X.X.....o.X.%.-.-.-.",
"-.-.-.o.....o.<.<.<.r.r.r.r.r.r.3.Q W Q r.r.r.5.$.$.@...X.o.<.<.-.| W W ] <.<.<.| ....X.X.[ o.<.-.-.X.X.X.X...X.%.-.-.-.",
"-.-.-.o.X...*.<.<.1.e.r.r.r.r.r.3.W Q W r.r.r.5.2.$.#.X.X.X.<.<.-.] W W | <.<.<.[ X.....X.X.*.-.-.-.X.X...X.X.X.%.-.-.-.",
"-.-.-.*.O.O.;.-.<.-.r.r.r.6.<.1.:.[ ' ] 4.1.1.9.w.w.5.X.[ O.-.<.-.*.&.%.&.-.<.-.X.X.| X.X.X.;.0.6.4.o.X...*.*.*.*.-.-.-.",
"-.-.-.;.O.+.+.-.-.-.r.r.r.1.-.-.*...X.X.<.1.<.e.r.r.9.X.X.X.<.<.<.-.-.-.-.-.-.-.X.X.X.X.X...,.r.r.r.O.X.X.*.-.-.-.-.-.-.",
"-.-.-.;.+.+.*.-.-.-.e.r.r.1.-.-.*...X.X.<.-.-.e.r.r.4.X.X.o.:.<.<.-.-.-.-.-.-.-.X.X.X.[ X.X.;.r.r.0.X.X.X.*.-.-.-.-.-.-.",
"-.-.-.#.+.#.+.=.=.=.4.4.4.4.1.1.<.O.O.+.,.:.*.3.9.9.3.X.O.O.,.<.,.=.*.*.=.&.*.*.%.o.o.*.*.o.;.6.0.6.*.o.| -.-.-.:.*.&.-.",
"-.-.-.+.+.+.O.....X.X.X.X.4.r.r.w.$.$.$.X.X.X.X.X...X.+.+.+.+.O.+.X.X.X.|  .X.X.-.-.-.<.<.<.<.-.-.-.-.-.-.-.-.-.*.X.X.X.",
"-.-.-.o.+.+.X...X.X.X.X.X.9.r.r.w.$.$.$.X.X.......X.X.+.+.+.+.+.+.X.X.X.X.X...X.-.-.-.-.<.<.-.-.-.-.-.-.-.-.-.-.=.X.X.X.",
"=.=.-.#.#.+.O.X.X.X.X.O.o.4.r.r.w.$.$.$.X.X.o.X.+.X.o.+.+.+.+.O.+.X.X...X.X.o.X.-.-.-.-.-.,.<.<.-.<.<.-.-.-.-.-.*.X.X.} ",
"W W W | X.X.X.X.X.O.e.e.e.r.r.r.w.$.$.2.O.X.X.:.<.[ H b R =.X.X.X.` W ( ] *.-.*.X.X.o.X.X.O.,.r.r.r.r.r.r.1.-.-.*.X.X.X.",
"W E W } X.X.X.....X.r.r.r.r.r.r.e.$.@.$.X.X...:.<.v O @ @ 4 [ X.X.` W W ] -.-.-.X.X.X.X.X.X.;.r.t.r.r.t.r.-.-.-.*.X.X.X.",
"W W W } ..X.X.X.X.+.e.r.r.r.r.r.9.$.$.2.[ X.X.:.[ 6 + + @ @ * G [ ` W W ' -.-.-...X.X...X.X.,.r.r.r.r.r.r.3.-.-.*.X.X.[ ",
"&.&.&.o.+.+.X.' ' ' 2.2.2.3.1.<.,.X.o.O.-.*.*.:.1 2 $ @ O @ @ @ 1 _ [ ] o.-.-.-.X.X...3.9.4.5.;.#.,.8.8.5.3.;.@.*.*.*.-.",
"-.-.-.,.$.$.O.W W W O.#.o.,.=.-.*.....} -.-.-.U * k.G.r O @ X   o / ..X.%.-.-.-.X.X.X.9.r.r.4...} ..$.$.$.+.+.+.*.-.-.-.",
"-.-.-.,.$.$.O.W W ! +.X.#.=.-.-.*.......-.-.-.< > k.'.P.M $ X . o / ....*.-.-.-.X...X.4.r.r.4.X.....#.$.$.+.+.+.+.-.-.-.",
"=.-.-.=.#.,.#.| ~ | o.=.+.;.=.*.%.' } } *.-.*.< C b.'.'.'.F.& X o U o.o.%.%.&. .X.X.X.2.9.4.2...[ O.;.@.+.+.;.:.:.*.-.*.",
"-.-.-.-.-.-.-.-.-.-.-.-.-.o.X.X.} ' ` ' X.X.X.3 C B.~./.'.'.p + o o R -.%.Q W W } ..} X.X.X.....X.[ X.X.X.:.<.<.:.X.....",
"-.-.-.-.-.-.-.-.-.-.-.-.-.o.X.X.[ ' ` ` [ X.) 3 D C.E.U.~.'.u + .   F -.*.W W Q ....} X.X.X.X.X.X.X.X.X.X.:.<.<.*.X.X.X.",
"-.-.-.-.-.-.-.-.-.-.-.-.-.o.X.X...' [ ` X.X.4 @ u.N.U.Y.A.W.p o .   T =.&.W W Q ......X.X.X.X.X.X.X.X.| ..*.<.<.=...X.X.",
"r.r.r.1.-.-.1.r.r.e.O.+.O.X.X.X.....X.X.W W 3 z d.m.A.!.U.U.L.y o + n 7.4.-.-.-.+.+.O.9.r.r.0.<.<.<.<.-.-.<.<.<.<.-.<.<.",
"r.r.t.<.-.-.1.r.r.e.@.+.+.X.X.X.X...X.X.W W 3 A g.M.Y./.U.U.(.k.+ O o 5 6.-.-.-.+.O.+.9.r.r.0.<.<.<.-.-.-.-.<.<.<.<.<.<.",
"r.r.r.3.-.-.1.r.r.e.+.+.+.O.X.X.X.X.X.X.Q E < A g.Z.~./.U.U.(.k.+ X . , 1.-.-.-.+.+.+.9.r.r.0.<.<.<.-.-.-.:.<.<.<.<.<.<.",
"1.1.1.&.| | %.1.1.1.=.=.-.*.*.&.*.X...X.3.b $ u.s.C.^.~.T.U.~.l.# . . 1 ,.-.-.-.X.X.X.;.5.2.<.-.-.-.-.<.<.*.o.*.+.o.o.*.",
"-.-.-.| ' ` ] -.-.-.-.-.-.-.-.-.:.X.X.X.r.L d s.S v.!.^.~.W.~.`.S.O o & Y -.-.-.......X.+.+.;.-.-.-.<.<.<.*.[ O.X.X.X.X.",
"-.-.-.] ' ` | -.-.-.-.-.-.-.-.-.*...X.X.r.G z g.S z.Y.~.^.`.~.`.P.: + O & o.-.-.......O.+.o.+.-.-.-.<.<.<.&.X.X.X...X.X.",
"-.-.-.&.%.| &.-.-.-.*.*.&.-.<.<.;...X.X.9.m a g.S x.C.Z.!.'.T./.K.$ o X .  .-.-.......+.#.+.;.*.-.*.;.:.:.;.,.,.+.X.X.X.",
"-.-.-.-.<.<.-.-.-.-.X.X...-.<.-.:...X.X.X.c 9 Z Z x.C.C.C.~.R./.K.& o X   %.-.-.......+.$.$.@...X.X.X.[ [ 9.r.r.9...X.X.",
"-.-.-.<.<.<.<.-.-.*.X.X...:.<.<.:.....X.X.c 9 a x z.C.C.C.Z.W.(.K.& X X . -.-.-.......+.@.$.@...X.X.X.X.O.9.r.r.9...X.X.",
"-.-.-.-.<.<.<.-.<.-.o...X.:.<.<.:.X.X.o.X.v q l z z.C.C.C.Z.`./.H.@     o -.-.=...X...+.@.@.+.| X.X.X.X.[ 9.0.0.4.X.X.o.",
"[ X.X.-.<.-.1.e.e.0.o.X.X.:.<.-.<.<.-.<.X.( j y.V x.C.C.B.A.`.Q.J.2 . . % X.O.X.$.@.$.[ Q Q ' X.X.[ X.X.X.+.>.;.#.=.=.=.",
"X.| o.&.-.-.1.r.r.e.O.....:.<.<.<.<.<.<.....7 C i.c.C.C.C.Z.^.Q.W.I.# + + J X...$.$.$.[ E W ` X.X.X.X.X.X.O.+.+.*.-.-.=.",
"X.X.X.*.-.-.3.e.r.e.X...X.:.<.<.<.<.-.<.[ X.6 B i.D v.C.C.Z.~.T.Q.'.; @ + + U X.$.$.$.[ Q ! ` X.X.X.X.X.X.o.+.+.+.-.-.-.",
"@.+.@.;.*.o.3.r.r.e.<.*.*.*.o.o.*.o.O.*.*.:.8 N B B N v.B.B.W.T.Q.'.$ + o o I ' o.O.+.%.%.%.o.X.X.X.X.+.O.=.=.=.=.#.;.+.",
"@.$.@.O.X.X.;.r.r.e.-.-.-.o.X.X.X.X.X.X.-.-.b f x B N z x.n.d.U.!.'.$ + o o F ' X.X.X.;.<.<.:...X.X.+.+.+.=.=.-.=.+.O.+.",
"$.@.@.O.....2.r.r.r.-.-.-.*.X.[ X.X.X.X.-.-.T q d B y.z z x.p.R.~._.@ + o o T ' X.X.X.:.<.<.,...X.X.O.+.+.=.-.-.=.+.+.+.",
"8.8.7.;.;.*.;.9.9.6.-.*.&.*.[ [ X.o.%.o.*.%.*.k f A i.y.z B p.W.(.).O +   + R ' X.....*.-.-.-.*.o.o.2.2.3.-.-.-.=.X.o.+.",
"r.r.0.6.<.:.:.X.X.X.[ X.[ O.X.X.o.-.-.-.......7 q A i.a.i.A h.C./.).+ + X % / ..X...o.*.-.-.-.<.<.1.r.r.r.<.-.-.=...X.X.",
"r.r.r.6.<.-.:...X.[ | [ [ X.X.X.o.-.-.-.......c a C i.i.i.i.g.m.T.P.+ + X % / ..X.X...*.-.-.-.<.<.1.e.r.r.1.-.-.*...X.X.",
"r.r.r.6.<.<.,...X.X.X.[ X.X.X.X.o.-.-.-.......) h C i.i.i.y.Z h.U.K.@ X X % ) ..X.X.X.*.-.-.<.<.<.<.r.r.e.1.-.-.*...X.X.",
"X.X.X.*.<.<.,.$.>.>.X.X.X.*.-.-.*.| ....` ` ' ' 4 z i.i.i.y.s h.U.K.@ o o & ) ..X.X.| 9.r.r.6.+.+.o.<.<.<.-.=.-.=.+.+.+.",
"X.X.X.=.<.-.1.$.$.@.X.X.X.*.-.-.*.......' [ ` ..5 - y.a.i.y.s h.j.D.+ o o = ` } X.X...9.r.r.9.+.+.+.<.<.<.-.-.-.=.+.+.+.",
"X.X.X.,.<.<.3.$.$.@.X...X.*.-.-.*.' ....` ' ` } U * 0 y.i.y.a g.g t % o o = | } X...X.4.r.r.0.O.+.+.<.<.<.-.-.-.=.+.O.+.",
"..X.X.} ] ] *.w.e.9.=.*.*.*.%.%.:.4.0.7.W ( W o.*./ & e y.y.d f.s + o o 3 U *.*.4.9.9.2.,.2.,.=.<.-.<.<.<.,.;.*.X.[ ' ] ",
"X.X.X.' W W X.r.r.e.-.-.-.o.X...,.r.r.r.Q W Q %.:.-.K $ w y.l a.e + X . I -.-.-.r.r.t.;.X.X.o.-.-.-.<.<.<.#.+.+...W W W ",
"X.X...! W E X.r.r.r.-.-.-.o.o...;.r.r.r.Q E W %.<.-.| 6 O d z d e + X . Y -.-.-.r.r.t.2.X.X.o.-.-.-.<.<.<.#.+.+...W W W ",
"X.X.X.' ' ! X.9.4.9.,.<.,.*.o.%.3.r.r.r.! ! ` *.1.1.<...4 @ q + + + X o ^ -.-.-.r.r.r.;.X.X. .-.<.-.3.6.4.;.X.X.[ ! ! ! ",
"X.X.X.X.X.X.X...X.X.@.@.2.,.-.-.<.r.r.r.o...o.9.t.r.6.-.*.3 O o o . 3 ) =.-.-.-.r.r.r.;.....%.<.-.1.r.r.r.o.` ' [ ......",
"X.X.X.X.X.X.X.X...+.@.@.$.,.-.-.1.t.r.r...X.X.9.r.r.e.-.-.| : . X 8 =.-.-.-.-.-.r.r.r.;.[ ..o.<.<.1.r.r.r.+.` ` ' ..X...",
"X.o.X.X.X.X.X.X...+.@.@.#.,.-.<.1.r.e.e.X.X.X.5.0.e.6.*.*.-...P ..,.=.=.-.-.-.-.e.0.e.;.[ ..o.<.<.<.e.r.e.o.` [ ' ......",
"-.-.*.*.+.X.O...X.X.X.X.O.9.r.w.w.$.$.5.X.X.X.X.O.o...! Q ! o.#.$.+...X.;.r.r.r.+.o.o.' ` W [ 2.2.2.<.<.-.o.X.X.' ) ` Q ",
"-.-.-.=.+.@.O.X.X.X.X.X.X.9.r.r.9.$.$.$.X.X.X.X.X.X.' W W Q o.+.+.......;.r.r.r.X.X...! W W ' $.$.@.-.-.-.o.X.X.' Q E W ",
"-.-.-.+.+.+.O.X.X.X.X.X...4.r.r.e.$.$.2.X.X.X.X.X.X.[ W W ! O.+.O.X.....;.t.t.r.X.X...! W W ' $.$.$.-.-.-.o.X.X.[ W Q Q ",
"-.-.-.1.9.9.3.@.+.+.X.X...@.,.,.+.O.+.X.) [ ) } X.X.X.O.+.X.,.<.,.,.:.*.o.X.X.o.' ' ' ' W W ] O.X.X.-.-.-.o.X.X.X.[ ' ' ",
"-.-.-.e.r.r.w.$.$.@.X.X.X.X.X.X.X.X.X.X.W W E ] X.X.+.@.$.#.<.<.<.<.<.<.*.W Q ( ( ' ' ( W W ! ..X.o.-.-.-.o.X.X.X.X.X.X.",
"-.-.-.q.r.e.w.$.$.$.X.X.X.X.X.X.X.X.X...W W W ' X.X.O.$.$.$.-.<.<.<.<.<.%.Q W W ' ` ' W W W ' X.X.X.=.-.-. .X.X.X...X.X.",
"-.-.-.<.3.3.,.=.#.#.X...X.X.X.X.X.o.o.o.Q W W | %.*.;.2.2.2.<.,.-.-.-.<.-.X.o.X.' ' [ ] | ~ ] O.+.O.<.1.<.+.X.X.X.+.+.o.",
"-.-.-.| W W | -.-.-.X.X.X.X...X.o.-.-.-.Q W W &.-.<.<.<.<.<.+.+.+.,.-.-.1.t.r.r...X...-.-.=.,.$.$.5.r.r.t.,.X.X.O.$.$.$.",
"-.-.-.~ E W ~ -.-.-.X.X.X.X.X.X.o.-.-.-.W W W *.<.<.<.<.<.<.+.+.+.=.-.-.<.r.r.r.X...X.*.-.-.<.$.$.5.r.r.r.,.....O.$.$.$.",
"-.-.-.~ W E ~ -.-.-.X.X.X.X.X.X.o.-.-.-.W W E %.<.<.<.<.<.<.+.+.+.:.-.-.1.t.r.r.X.....-.-.-.:.$.$.$.r.r.r.2.X.X.+.$.$.$."
};
