/* XPM */
static char *_2001_2991215c3a08a180f9ae05a31d6dfa0e8c704e13a63ac57dc1fbce8c577da897[] = {
/* columns rows colors chars-per-pixel */
"60 60 188 2 ",
"   c #061F1B",
".  c #081E1B",
"X  c #07211D",
"o  c #08221F",
"O  c #072420",
"+  c #092621",
"@  c #092B25",
"#  c #0A2F28",
"$  c #0C322A",
"%  c #0D382F",
"&  c #1D3B27",
"*  c #123529",
"=  c #143A2C",
"-  c #173626",
";  c #0D3D34",
":  c #163732",
">  c #173A33",
",  c #1C3D36",
"<  c #1D3E39",
"1  c #193631",
"2  c #213E28",
"3  c #1B422F",
"4  c #0E4137",
"5  c #0F443A",
"6  c #10483D",
"7  c #2A4A2E",
"8  c #23422A",
"9  c #254D33",
"0  c #23443D",
"q  c #294F3A",
"w  c #2E5636",
"e  c #315333",
"r  c #315937",
"t  c #335C39",
"y  c #3C6339",
"u  c #3A643A",
"i  c #46773B",
"p  c #4B763D",
"a  c #527B3D",
"s  c #114F44",
"d  c #125146",
"f  c #13584B",
"g  c #2D4C46",
"h  c #3B5853",
"j  c #324845",
"k  c #166659",
"l  c #17695B",
"z  c #166154",
"x  c #256147",
"c  c #3E6840",
"v  c #3D7A4E",
"b  c #1B6F60",
"n  c #1A7564",
"m  c #1C7C6C",
"M  c #1D7F70",
"N  c #217F6D",
"B  c #436E43",
"V  c #487848",
"C  c #527F45",
"Z  c #547A4B",
"A  c #48625E",
"S  c #536C68",
"D  c #476661",
"F  c #657B77",
"G  c #1B806E",
"H  c #1C8472",
"J  c #1F8C79",
"K  c #1E8874",
"L  c #218D7A",
"P  c #238473",
"I  c #25927E",
"U  c #538243",
"Y  c #5A8848",
"T  c #618E48",
"R  c #65964C",
"E  c #679A4C",
"W  c #699C4F",
"Q  c #6B9E51",
"!  c #729F5A",
"~  c #6CA04E",
"^  c #73AE4B",
"/  c #75AD4B",
"(  c #75B04C",
")  c #79B24E",
"_  c #7FB84F",
"`  c #6EA152",
"'  c #73A754",
"]  c #76AF50",
"[  c #79AC54",
"{  c #77B351",
"}  c #7BB354",
"|  c #7EB952",
" . c #7EB458",
".. c #81B656",
"X. c #82BA55",
"o. c #81B759",
"O. c #83B95B",
"+. c #88BE5C",
"@. c #86BA60",
"#. c #8BBC62",
"$. c #8FBE6A",
"%. c #8AB468",
"&. c #91BE6B",
"*. c #90BF61",
"=. c #89C256",
"-. c #8DC45C",
";. c #87C059",
":. c #90C65D",
">. c #92CA5C",
",. c #8EC362",
"<. c #8FC466",
"1. c #92C563",
"2. c #94CC61",
"3. c #99CE65",
"4. c #93C36B",
"5. c #96C96B",
"6. c #9ACC6E",
"7. c #99C56E",
"8. c #9CD06C",
"9. c #97C772",
"0. c #99C671",
"q. c #9CCD71",
"w. c #9FD173",
"e. c #A2D26E",
"r. c #A0CE74",
"t. c #A3D476",
"y. c #A5D579",
"u. c #A8D67B",
"i. c #1F9680",
"p. c #219581",
"a. c #299683",
"s. c #229984",
"d. c #2A9B87",
"f. c #249E89",
"g. c #2B9C89",
"h. c #3C998A",
"j. c #329F8C",
"k. c #23A38C",
"l. c #2CA18E",
"z. c #25AB93",
"x. c #2AA893",
"c. c #33AA96",
"v. c #2AB59D",
"b. c #38B39F",
"n. c #38B8A1",
"m. c #419D8E",
"M. c #798987",
"N. c #72928D",
"B. c #50AB9A",
"V. c #59BBAA",
"C. c #59B4A4",
"Z. c #61BCAB",
"A. c #36C1A9",
"S. c #3DC5AD",
"D. c #40C6AE",
"F. c #59C0AF",
"G. c #4EC8B3",
"H. c #46C7B1",
"J. c #5AC6B3",
"K. c #69C7B7",
"L. c #75CBBC",
"P. c #7CCCBE",
"I. c #78C4B7",
"U. c #83928F",
"Y. c #889696",
"T. c #9BA5A4",
"R. c #ADB3B3",
"E. c #B6BEBC",
"W. c #87CDC2",
"Q. c #8CCEC3",
"!. c #93CEC5",
"~. c #9CCFC7",
"^. c #96CFC8",
"/. c #9AD0C7",
"(. c #9BD0C8",
"). c #A7CEC8",
"_. c #BEC2C3",
"`. c #BFCFCC",
"'. c #A4D0C9",
"]. c #ACD1CB",
"[. c #B4D2CD",
"{. c #B9D3CF",
"}. c #BDD3D0",
"|. c #C5C7C7",
" X c #C0D3CF",
".X c #C2D3D1",
"XX c #CCD4D3",
"oX c #D3D5D4",
/* pixels */
">.>.>.+.O.O.+.>.2.3.y.t.u.y.y.t.5./ ^ ^ y.y.y.7.4.$.$.O.O.O.>.2.2.X.( ^ _ >.2.2.O. .O.O.O.O.O.>.>.>.O.O.O.O.O.O.;.>.>.>.",
">.>.>.+.O.O.;.2.2.>.t.y.y.y.y.y.5.( ^ ^ y.u.y.7.&.$.#.O.O.O.>.2.2.X.^ ^ | 2.2.2.| O. .O.O.O.=.>.>.>.O.O.O.O.O.O.;.>.>.>.",
">.>.>.+.O.o.,.2.2.3.t.y.y.y.u.t.5.^ ^ ^ t.t.y.7.&.&.$.O.O.O.2.2.>.| ^ / | 2.2.2. . .O.O.O.O.O.>.>.>.O.O.O.O.O.O.;.>.>.>.",
">.>.>.;.@.@.,.>.2.>.y.y.y.8.3.3.,. . .} 8.3.8.w.q.r.7.O.O.O.2.2.2.=.=.=.-.>.2.>.O.O.X.O.O.O.,.t.t.6.O.O.O.=.-.-.>.>.>.>.",
">.>.>.1.#.%.-.>.>.>.t.y.y.3.>.>.-.| O.O.2.2.2.t.y.y.6.O.O.@.2.2.2.>.>.>.>.>.>.>.O.O.O.+.O.O.<.y.u.w.+.+.O.-.>.>.>.>.>.>.",
">.>.>.#.#.#.+.>.>.>.y.y.y.3.>.>.2. .O.O.2.2.2.w.y.y.6.O.O.O.>.2.2.>.>.>.>.>.>.>.O.O.O.O.O.O.,.y.u.t.O.O.O.-.>.>.>.>.>.>.",
">.>.>.1.#.+.#.:.-.:.6.6.6.6.3.3.2.@.@.%.1.:.:.5.q.q.4.@.+.#.<.2.:.:.-.:.>.=.-.-.;.;.O.;.O.;.5.e.q.8.=.;.;.-.>.>.:.=.-.-.",
">.>.:.*.#.#.#.O.O.O.O.O.O.6.y.y.q.4.&.&.O.O. .;.O.o.+.@.#.#.#.@.#.O.O.O...O.X.O.>.>.>.2.2.2.>.>.>.>.>.>.>.>.>.>.-.O.O.O.",
">.>.>.:.#.#.@.o.O.O.O.o.O.q.y.y.r.&.&.&.O. .O.O.O.O.+.#.#.#.#.#.#.O.O.O.+.O.X.O.>.>.:.2.2.2.2.>.>.>.>.>.>.>.>.>.:.O.O.O.",
">.=.>.+.#.#.@.O.O.O.+.#.+.6.y.y.r.&.&.&.O.O.O.O.O.O.@.#.#.#.#.@.#.O.O. .o.O.O.+.>.>.>.>.>.2.2.>.2.>.>.3.>.>.>.>.-.O.O.O.",
"( ^ / ..O.O.O.O.O.#.q.t.t.y.y.y.q.&.&.4.@.O.O.-.2.2.:.>.>.-.+.O.O.{ ^ (  .-.>.-.O.O.O.O.O.+.4.t.y.y.y.y.y.3.>.>.-.O.O.O.",
"^ ^ / ..O.O.O.O.O.@.t.y.y.y.y.y.r.4.&.&.O.O.O.2.2.,.~ { >.:.O.O.O.{ ^ ( | >.>.>.O.O.O.O.O.O.,.y.u.y.y.y.y.>.>.>.-.O.O.X.",
"^ ^ /  .O.O.O.O.O.+.t.y.y.y.y.y.r.&.&.&.O.O.O.,.R = # $ r R } O.+.] / ( | >.>.>.O.O.O.O.O.O.,.t.y.y.y.y.y.6.>.>.-.O.O.O.",
"=.=.=.+.#.#.O.{ { } &.4.4.5.3.3.5.O.#.O.,.-.-.;.Z $ # # # # 3 B ` O. . .O.>.>.>. .O.O.2.q.q.7.<.*.*.0.0.0.1.$.*.-.-.:.-.",
">.>.>.1.&.&.@./ / { @.#.+.:.>.>.-.O.O.X.>.>.>.w 3 g # # # # # @ o y O.O.=.>.>.>.O.O.O.q.y.y.q.o.o.O.&.&.&.#.#.#.,.>.>.>.",
">.>.>.1.&.&.+./ / ( @.+.#.:.>.>.-.o. ...>.-...q S E.F 3 # # # X   e O.O.+.>.>.:.O.O.o.q.y.t.6.| o.O.#.&.&.#.#.#.+.>.>.>.",
">.>.>.1.1.1.+...| X.+.-.1.-.,.-.;. . . .-.} 3 4 S XXoX_.U.g # X . e =.+.=.=.=.=.O.O.o.4.5.6.4.O. .@.,.$.#.<.,.<.-.-.:.-.",
">.>.>.>.>.>.>.>.>.>.>.>.>.O.O.O...} } } O.' = I C..XoXoXoXoXT.1 + - U ..=./ ^ ( o.o...O.O.O.O.O.O. . .O. .:.2.2.,.O.O.O.",
">.>.>.>.>.>.>.>.>.>.>.>.>.+.O.O.o.( } } O.' = i.F.].).{.oXoXoXg @ + X p ;.( ^ / O.o.o.O.O.O.O.O.O.O.O.O.O.1.2.2.-.+.O.o.",
">.>.>.>.>.>.>.>.>.>.>.>.>.+.O. . .} { } O.' = d.J.].^.Q.(..XoX0 # X   a =./ / (  . .O.O.O.O.+.O.O.O.O.;.| :.2.2.-.O.O.O.",
"y.y.t.3.>.>.3.y.y.t.#.#.@.+.O.O.+.O. .O.C $ $ j.H.J.Q.W.Q.W.!.F < X X Z 3.>.>.>.#.#.#.q.t.y.w.2.2.2.2.>.>.>.2.2.2.>.2.2.",
"y.y.y.3.>.>.3.y.y.t.#.#.<.@.O.O.O.O.O.O.i 4 J c.S.S.'.[.W.W.W.XXR.: + * i +.>.>.#.#.#.q.u.y.w.2.2.2.>.>.>.2.2.2.2.2.2.2.",
"t.y.y.3.>.>.3.t.y.t.&.+.,. . .| O.O.O.O.i ; k.A.G.G.]..XW.W.W.XX_.< + . . [ >.>.#.#.#.q.t.w.w.2.2.2.>.>.>.>.2.2.2.2.2.2.",
"3.3.3.+.X.O.=.3.3.3.:.:.-.-.2.>.;.O.O. .V % x.A.K.].[.{.W.W.W.}.E.: @ . . ..>.>.O.O.O.#.5.9.5.>.2.>.2.2.2.,.+.;.#.,.;.;.",
">.>.>.X.} } | >.>.>.>.>.>.>.>.>.:.O.O.u $ > b.l.F.].].].(.Q.W.].].Y.< X O Y >.>.o.o.o.@.#.#.,.>.>.>.2.2.2.-. .,.O.o.O.O.",
">.>.>.| { } X.>.>.>.>.>.>.>.>.>.:.O.O.r f n n.a.h.!.].].[.[.'.].[.oXM.# # * t =.o.o.o.+.+.#.,.>.>.>.2.2.2.=. . .O.O.O.O.",
">.>.>.;.| ;.;.>.>.>.-.-.=.>.2.>.,.| O.r k v.S.a.h.L.P.^.]..XoX!.].oXM.# + X - O.o.o.o.+.#.$.#.,.-.-.-.-.2.<.<.<.#.O.O.O.",
">.>.>.>.2.2.>.>.>.2. .,.| <.2.2.2.O.O.w d k.S.a.h.L.L.L.P.].XXW.(.oXM.# + o - =.o.o.o.#.&.$.#.O.O.O.O.O. .6.u.u.q.o.O.O.",
">.>.>.2.2.2.2.>.2.-.;. .;.-.2.2.,. .,.w 5 l I p.h.L.L.L.L.L./.Q.(.oXM.# + . 2 -.o.o.o.#.$.&.$.O.O.O.O.O.O.w.y.t.6.O.O.O.",
">.>.>.>.2.2.>.>.3.2. .;. .-.2.2.,.;. .r 5 k k n h.L.L.L.L.L.P.oX[.XXF # O . 2 -.o.o.O.#.$.$.#.X.O.O.O.O. .6.w.w.6.+.+.O.",
"O.O.;.-.>.>.3.u.w.w.,. .@.<.2.2.2.2.2.u 6 m m m h.L.P.L.L.L.P.oX.X!.N.: O X 8 O.$.$.&. .( ( } O.O.O. .O.O.#.4.<.*.:.:.:.",
"O.O.O.-.>.>.3.u.u.w. .;.;.-.2.>.2.2.2.<.v G k.i.h.L.L.L.L.L.P. X}.W.{._.j @ @ r %.&.&. .^ ( {  .O.O.O.O.O.@.$.@.+.>.>.>.",
"O.O.O.-.>.>.6.y.y.t.O.O.O.1.2.2.3.2.2.2.R s i.z.x.C.L.L.L.L.P.].'.W.{.oXA @ @ + e &.&. .( ( { O.O.O.o.O.O.O.#.#.+.>.>.>.",
"#.$.$.;.+.+.1.y.t.t.2.-.-.;.,.;.;.O.;.,.E $ i.k.i.M h.K.L.L.P.].'.Q.{.oXA # O . e @.#.;.=.=.;.O.O.O.@.#.#.,.:.:.1.#.*.-.",
"&.&.$.@.O.O.,.y.t.t.2.>.>.,. .O.O.O.O.O.Q % i.m M H m P B.L.K.b.I.Q..XoXh @ O X B O.O.-.2.2.,.O.O.O.#.#.#.:.:.>.:.#.#.#.",
"&.$.4.@.O.O.1.y.u.y.>.>.>.;.O.O.O.O.O.O.~ $ m m M k.K m m h.V.x.V.(..XoXh # X X C O.O.1.2.2.-.O.O.+.@.#.#.-.>.>.:.#.#.#.",
"0.0.9.<.;.,.<.6.q.w.-.:.=.;. .@.O.;.;.+.X.u b b M z.z.i.m m I v.Z.].XXoXg $ X X Y O. .>.>.2.>.=.;.,.4.1.4.>.>.>.:.O.+.@.",
"y.y.t.3.2.2.,.O.O.| O. . .O.O.O.+.>.>.2.O.} x k m z.z.z.k.J L S.J.~.XXoXg # X X T O.O.-.>.>.>.2.>.3.y.y.y.>.>.>.-.o.O.O.",
"y.y.y.8.2.>.,.O. .O. .O. .@.O.O.+.>.>.2. . .9 f H z.z.z.z.z.f.S.S.H.}.|.0 # X X R O.O.-.>.>.>.2.>.3.y.y.y.3.>.>.-.O.O.O.",
"y.y.y.6.2.2.:.O.O.O.@.|  .;. .O.O.>.>.>.| O.V z J z.z.z.z.z.s.N n.S..X|.0 @ X X ` O.O.-.:.>.2.3.3.2.y.y.y.3.>.>.-.O.o.O.",
"O.O.O.1.>.3.1.&.4.<.O.O.O.-.>.>.-.O. .O.} { } v H z.z.z.z.z.p.k d.S.`._., # O X ] O.o.6.y.y.6.#.#.#.2.2.2.>.>.>.:.#.#.#.",
"+.O.X.-.2.>.3.&.$.$.O.O.O.-.>.>.-. . .O.{ { } u 5 L z.z.z.z.p.k g.S.D T., @ . X  .O.O.6.y.y.q.#.@.,.>.2.2.>.>.>.:.#.#.#.",
"O.O.O.1.2.3.5.&.$.&.@.+.O.-.>.>.>.| O. .} { } U $ % m z.z.z.p.k d.A.$ : @ @ o 7  .O.O.6.y.y.r.#.#.#.2.2.2.>.>.>.:.#.#.#.",
"O.O.O...| | ;.r.r.q.-.-.-.=.=.O.,.6.6.9.{ / / O.E 9 $ z k.z.p.l s.v.$ @   - [ :.6.6.q.4.4.1.1.:.1.2.2.>.2.1.,.,.+.} ( } ",
"o.O.O.{ ^ ^ O.y.y.t.>.>.>.O.O.O.<.t.t.y.^ ^ ^ =.>.X.y @ 4 L s.m L z.$ #   & =.>.y.y.u.,.O.O.O.>.>.>.3.2.2.$.#.@.O.^ ^ ^ ",
"O.O.+.( ^ ^ O.y.t.t.>.>.>.=.O.+.<.u.y.u.^ ^ ^ =.>.>. .t # 4 n m d n # @ . 2 =.>.y.y.u.4.O.O.=.>.>.>.2.2.>.,.#.#.O./ ^ ^ ",
"O.o.o. .{ ] O.q.q.q.1.2.1.-.O.;.5.t.u.t.( ) } -.3.3.>.O.Y = $ d 5 # O @ 7 E >.>.t.y.y.,.O.+.O.>.>.>.6.8.8.-.+.O. .( / { ",
"O.+.o.O.O.O.O.O.O.O.$.4.&.5.>.>.3.t.y.u.X.O.O.w.u.u.e.>.>.[ 9 # O + 2 a =.>.>.>.y.y.u.,. .O.=.>.>.2.y.y.y.#.} }  .O. . .",
"O.o.O.O.O.O.O.O.o.@.$.$.&.1.>.>.3.y.y.y.O.O.O.q.u.t.t.>.>.>.0.q + 7 X.>.>.>.>.>.y.y.u.,. .O.O.2.2.3.t.y.y.#.} { } O.O.O.",
"O.O.+.O.O.o.O.O.O.@.$.$.&.1.>.3.3.y.y.y.O.o.O.7.t.w.8.-.:.>.t.t.&.5.:.>.>.>.>.>.t.t.t.#. .o.O.2.2.2.t.y.y.+.}  . .O. .o.",
">.>.>.-.#.#.@.O.o.O.O.+.+.6.y.r.e.&.&.&.O.O.O.+.+.@.O.( ( ) #.#.#.+.O.O.,.y.y.y.@.O.O.} { /  .4.4.4.2.2.>.+.O.O.} / ( ( ",
">.>.>.,.#.#.@.O.O.O.O.O.o.q.y.y.r.&.&.&.O.O.O.o.O.o.| ^ / ( +.#.#.O.O...,.y.y.y.O.O.+.) ^ ^  .4.4.4.-.>.>.+.O.O. .^ ^ ^ ",
">.>.>.,.#.#.@.o.O.O.O.O.O.q.y.y.r.&.&.4.O.O.O.O.O.O.} ( / / +.+.#.O.O. .,.y.y.y.O.O.O.} ^ ^  .&.&.$.>.>.>.=.O.O. .( ( ( ",
">.>.>.6.q.q.7.#.#.#.O.O.O.#.1.,.,.@.#.@.[ } [  .O.O.O.@.#.O.1.1.1.:.:.,.,.O.@.O. .}  ./ ^ ^ ) @.#.+.>.>.>.;.O.O. . .}  .",
">.>.>.8.y.y.q.$.&.$.O.O.O.o.O.O.O.O.O.O.^ ^ ^  .O.o.#.$.&.&.2.5.2.2.2.2.;.^ ( ( } { } ] ^ ^ { O.o.O.>.>.>.O.o.O.O.O.O.O.",
">.>.>.t.y.u.r.&.&.&.O.O.O.O.O.O.O.O.O.| ^ ^ (  .O.O.#.&.&.$.2.2.2.2.3.2.;.( ^ ] { } { / ^ ^ { O.O.O.>.>.>.+.O.O.+.o.o.O.",
">.>.>.2.4.5.1.:.1.1.O...O.o.O.O.+.O.=.+.^ ^ ^ X.=.;.1.4.4.4.,.2.:.>.>.2.>.O.O. .| } } | _ | | #.#.#.2.3.3.+.o.O.O.#.@.#.",
">.>.>._ ^ ^ X.>.:.>.+.O.O.O.O.O.O.>.>.>.^ ^ ^ =.2.2.2.2.2.2.,.@.<.,.>.>.2.u.y.y.;.@.O.-.>.>.2.&.&.4.y.u.y.4.+.o.#.$.&.&.",
">.>.>._ ^ ^ _ >.>.>.O.o.O.O.O.O.O.>.>.>.^ ^ ^ -.2.2.2.2.2.2.#.#.,.,.>.>.3.u.y.y.O.O.O.-.>.>.1.&.&.4.t.y.y.1.O.O.@.&.&.&.",
">.>.>._ ^ ^ _ >.>.:.O.O.O.O.O.O.+.>.>.>.^ ^ ^ -.2.2.2.2.>.3.#.#.#.-.>.>.3.u.u.t.O.O. .>.>.>.1.&.&.&.y.y.y.4.O.O.#.&.&.&."
};
