/* XPM */
static char *_2266_29a499ce6fbd692263dbed992a56b7e7db2de1744ebffa5ba2bd4ca58462e5b8[] = {
/* columns rows colors chars-per-pixel */
"60 60 186 2 ",
"   c #1E3D27",
".  c #1F3F28",
"X  c #233F2A",
"o  c #1E492D",
"O  c #244127",
"+  c #23432B",
"@  c #26492E",
"#  c #2B4B2C",
"$  c #2F522A",
"%  c #244C33",
"&  c #294C34",
"*  c #274630",
"=  c #2A5235",
"-  c #2B533A",
";  c #275A3D",
":  c #265438",
">  c #315533",
",  c #325E3A",
"<  c #345838",
"1  c #37643C",
"2  c #3B663B",
"3  c #436C3C",
"4  c #406539",
"5  c #46703D",
"6  c #275B42",
"7  c #285D43",
"8  c #355B42",
"9  c #395D45",
"0  c #395B45",
"q  c #2B6C4E",
"w  c #286347",
"e  c #3D6249",
"r  c #2B714F",
"t  c #2B6C50",
"y  c #336B51",
"u  c #2A7354",
"i  c #2E7B5C",
"p  c #2E775A",
"a  c #307A5D",
"s  c #317659",
"d  c #337F61",
"f  c #416446",
"g  c #4D7C43",
"h  c #487343",
"j  c #517D43",
"k  c #456850",
"l  c #617F67",
"z  c #2E8363",
"x  c #318464",
"c  c #318866",
"v  c #328D6B",
"b  c #398F6C",
"n  c #32916D",
"m  c #338F70",
"M  c #339372",
"N  c #359B76",
"B  c #399B79",
"V  c #35A37E",
"C  c #5C8D4B",
"Z  c #568446",
"A  c #5E934A",
"S  c #578A52",
"D  c #608D4A",
"F  c #62944D",
"G  c #6B9D4E",
"H  c #628E53",
"J  c #6A9E50",
"K  c #679353",
"L  c #749D5A",
"P  c #6EA24F",
"I  c #73AE4B",
"U  c #75A64E",
"Y  c #75B04C",
"T  c #79B24E",
"R  c #7FB84F",
"E  c #6FA051",
"W  c #73A552",
"Q  c #76AC54",
"!  c #79AD54",
"~  c #7EAD5F",
"^  c #77B351",
"/  c #7BB354",
"(  c #7EB952",
")  c #7EB258",
"_  c #439A7A",
"`  c #66826B",
"'  c #6E8771",
"]  c #718E76",
"[  c #7F977F",
"{  c #49A07E",
"}  c #81B656",
"|  c #82BA54",
" . c #81B759",
".. c #83B95B",
"X. c #88BE5C",
"o. c #86BA60",
"O. c #8BBC62",
"+. c #8FBE6A",
"@. c #8AB667",
"#. c #91BE6B",
"$. c #90BF61",
"%. c #89C256",
"&. c #8DC45C",
"*. c #87C057",
"=. c #90C65D",
"-. c #92CA5C",
";. c #8EC262",
":. c #8FC466",
">. c #92C564",
",. c #94CC61",
"<. c #99CE65",
"1. c #93C36B",
"2. c #96C96B",
"3. c #9ACC6D",
"4. c #99C56E",
"5. c #9CD06C",
"6. c #97C772",
"7. c #99C671",
"8. c #9CCD71",
"9. c #9FD173",
"0. c #A1D46F",
"q. c #A0CE74",
"w. c #A3D476",
"e. c #A5D579",
"r. c #A8D67B",
"t. c #35A380",
"y. c #3BA581",
"u. c #36AC85",
"i. c #3AAC85",
"p. c #37AF89",
"a. c #38AF89",
"s. c #37B28B",
"d. c #39B38B",
"f. c #38B186",
"g. c #3DB791",
"h. c #3EBE96",
"j. c #42A785",
"k. c #48AE8C",
"l. c #44B18D",
"z. c #42BE98",
"x. c #4ABE99",
"c. c #48B491",
"v. c #5EB491",
"b. c #6ABD9D",
"n. c #61BC9B",
"m. c #4AC49F",
"M. c #5FC09D",
"N. c #6DC19F",
"B. c #4EC4A1",
"V. c #4FC9A4",
"C. c #51C9A5",
"Z. c #57CCA9",
"A. c #69C3A2",
"S. c #7BCCAC",
"D. c #77C7A7",
"F. c #879F89",
"G. c #8DA28F",
"H. c #97AA97",
"J. c #A9BAA6",
"K. c #86CCAE",
"L. c #89CBAF",
"P. c #8ACDB1",
"I. c #94CEB2",
"U. c #9CCDB4",
"Y. c #83D0B2",
"T. c #8DD1B2",
"R. c #92D1B6",
"E. c #9AD3B9",
"W. c #A6C3AC",
"Q. c #B1C0AB",
"!. c #A5CEB5",
"~. c #A9CFB6",
"^. c #A2CFB8",
"/. c #AACFB9",
"(. c #BBC7B4",
"). c #BBC8B4",
"_. c #AED1B9",
"`. c #A4D1B8",
"'. c #B2D2BA",
"]. c #BDD2BD",
"[. c #C4CEBD",
"{. c #C4D2BE",
"}. c #C9D4BE",
"|. c #BFD5C0",
" X c #C7D3C1",
".X c #CAD6C2",
/* pixels */
"-.-.-.X. . .&.,.,.,.e.e.e.e.e.e.2.I I I w.r.w.4.1.#.+. . .X.-.,.<.( Y I R ,.,.,.( .. .......X.-.-.=... .........*.-.-.-.",
"-.-.-.X. . .X.,.,.,.e.e.e.e.e.e.2.Y I I r.e.r.4.#.#.>.......,.,.-.| I I ( ,.,.,...( ( .. ...X.-.-.-.X...........*.-.-.-.",
"-.-.-.X... .*.,.,.<.e.e.e.e.e.w.2.I I I w.w.w.4.#.#.+.....X.,.,.-.| I I ( -.<.,. . ..... .X.X.-.-.-.X. ..... ...*.-.-.-.",
"-.-.-.&.o.o.;.,.-.,.e.e.e.5.<.<.:.) / ^ 5.5.5.3.8.q.1...) ..=.,.-.%.X.%.%.,.,.-...) ...... .;.9.9.5. .....%.&.&.&.-.-.-.",
"-.-.-.O.O.@.&.-.-.-.w.e.r.<.-.-.&.| ....,.<.<.w.e.e.8.......,.,.,.-.=.-.-.-.-.-...........) :.e.e.e.o.....%.-.-.-.-.-.-.",
"-.-.-.>.O.O.X.-.-.,.w.e.r.<.-.-.&.......,.-.-.9.e.e.3. ...o.,.,.,.-.-.-.-.-.-.-.............:.e.e.9.X... .-.-.-.-.-.-.-.",
"-.-.-.$.O.O.O.=.&.&.2.3.3.<.<.<.,.O.O.o.;.;.=.2.3.8.1.X.o.o.;.,.>.=.&.&.-.%.&.&.X.X.X.*.;.*.,.5.9.5.&.o.*.&.-.-.-.&.&.&.",
"-.-.-.O.X.O.O.............8.e.w.9.+.+.#.............X.O.O.O.O.o.O.X.| ..........-.-.-.-.,.,.,.=.-.-.-.-.-.-.-.-.&.| ....",
"-.-.-.X.O.O.O. ...........7.e.e.8.#.+.1.o...o.*...) o.O.O.O.o.O.O.............| -.-.-.,.,.,.-.-.-.-.-.-.-.-.-.-.&.......",
"-.-.%.$.O.O.........X.O.X.8.e.r.q.#.#.+.o...) ) ..X...;.O.O.O.O.O......... .X.| -.=.-.-.-.,.,.-.-.-.-.<.-.-.-.-.&.......",
"I I T | ............8.w.w.w.e.e.q.#.+.+.) *...,.,.,.,.-.=.=.......^ I Q ( =.-.&...........X.:.e.e.e.r.e.w.<.-.-.&.......",
"I I I | ..........O.w.e.e.r.e.w.w.#.1.1.o...) =.,.,.-.=.-.-..... .^ I I ( -.-.-.............:.e.e.w.r.e.w.<.-.-.&.......",
"I I I }  .........O.q.e.e.r.e.e.q.#.#.#.......;.G g e C ^ X. . . .! W I | -.-.-.............:.w.e.e.r.e.r.<.-.-.&. .....",
"%.%.X.X.O.O...^ ^ / >.4.1.2.<.<.>.X.o.o.=.&.&.&.2 % & % % 1 h K  ...} } | -.-.-. .....>.8.3.2.+.O.>.6.6.7.>.$.&.&.&.&.=.",
"-.-.-.>.#.#.O.I I Q X.O.O.=.-.-.&. . . .-.-.I 5 = : : & : % % % & > } ..X.-.-.-.......3.e.e.3. . . .#.#.#.@.O.O.&.-.-.-.",
"-.-.-.>.#.#...I I I O...O.=.-.-.&. . .} -.-.Z & ] l 9 & % % : % + X ! ..X.-.-.-. .....8.e.e.5... ...$.#.+.@.+.O.O.-.-.-.",
"-.-.-.>.>.>.X.( ( ( *.;.;.;.&.&.%.( ) ) / g < : J.{.).H.] e & % O O ..*.*.%.%.%... . .1.8.3.1. .) ..:.:.o.:.;.:.;.&.=.&.",
"-.-.-.-.-.-.-.-.-.-.-.-.-.&.) ;.( / / / F % u c W. X.X{.}.{.J.F.= @ 5 C | I I I }  . ..... . . .o...) ....&.,.,.&.X. ...",
"-.-.-.-.=.-.-.-.-.-.-.-.-.*.o.) ) ^ ^ / F % i h.I.'._.{.{.}.}.}.e @ + + U Y I Y  . . ..... .........) ....,.,.,.=... ...",
"-.-.-.-.-.-.-.-.-.-.-.=.,.*...*.../ / ^ E % i h.I.~.T.T.U._.{.}.e & O O U Y I I  . . ...............o...( &.,.,.&.......",
"w.e.w.<.-.-.<.r.e.e.O.O.o.) ) ) ......J 2 o x V.S.T.R.K.K.K.T.E.] k * & J | -.-.O.O.O.8.e.e.9.<.,.,.,.-.-.-.,.,.,.,.-.,.",
"e.e.e.<.-.-.<.r.e.9.:.O.;.;.;.) ....( e : w z V.Z.Z.].`.L.L.T.T. X{.8 & & > } -.O.O.O.8.e.e.9.,.,.,.-.-.-.,.,.,.,.,.,.,.",
"e.e.e.<.-.-.<.e.w.w.+.O.;.) ..| ..) ..1 w s.g.V.Z.C.|.].K.L.T.T. X.X- & * # | =.O.O.O.8.e.e.9.,.,.-.-.=.-.-.,.,.,.,.,.,.",
"2.<.<.&.| } %.<.<.<.=.&.-.;.&.&.&.....1 t h.B.V.R.R.].].L.K.K.L._.].9 & + # ( =. . ...:.1.1.,.-.,.-.,.,.,.;.X.X.;.*.;.*.",
"-.-.-.| / ^ | -.-.-.-.-.-.-.-.-.&.Q j = y V.x.x.R.`././.^.I.K.K.!.~.J.H.< * < g W  . .O.O.O.>.-.-.-.,.,.,.*.) o..... ...",
"-.-.-.( ^ ^ | -.-.-.-.-.-.-.-.-.&.C * 6 y C.c.M D.U.`.`././.'.U.!.~..X Xf % * + G  . ...O.X.O.-.-.-.,.,.,.&.*.) .. .....",
"-.-.-.*.*...%.-.-.-.&.&.&.-.-.-.;.C % N z.C.c.v N.S.K.R.^./.[.[.L.I. X Xe & + O W  ...O.O.+.O.&.&.&.&.,.:.:.:.1.;. .....",
"-.-.-.-.,.,.-.-.-.&.*...| ;.,.,.,.C % v z.B.l.v N.K.S.S.S.I./.].P.I.}.).0 & + X W  ...O.#.$.+.......*.) ( 8.e.e.8. .....",
"-.-.-.-.,.,.-.-.-.-.%.....&.,.,.;.C % t v c.d.v A.S.S.S.S.S.S.K.U.I. X).0 : O O !  . .O.+.#.+. ...........3.e.e.7.......",
"-.-.-.-.,.,.-.-.-.-.*.| ) ;.,.,.&.A % w p i x m A.S.S.S.S.K.S.K. X].^.W.9 % + + )  ...O.+.+.X. .....) ....3.9.9.3...X...",
"....X.&.-.-.<.e.0.0.o.....,.,.-.,.Q % u z i i v N.K.D.S.D.S.S.K.[.|.R.R.J.` + + f H @.) Y Y ^ ............O.1.+.$.-.=.=.",
"....X.%.-.,.<.e.J.9.*.( ..:.,.,.,.&.h i n u.V m b.S.S.S.S.S.S.K.E.|.R.E..X).8 * + * L ! I Y ^ ............o.O.o.&.-.-.=.",
".. ...&.,.-.<.w.e.w.......:.,.,.,.,.,.S z p.p.p.k.b.S.S.S.S.D.K.!.`.R.E. XJ.8 % X X L ) Y I ^  ...........X.O.O.X.-.-.-.",
"O.+.O.;.%.X.1.e.e.w.=.&.=.*.;.*...;.*.Z 6 p.u.u.M v _ b.S.S.D.N.D.I.T.U. XJ.& % X + W %.&.&.*. .....O...O.;.=.=.>.O.>.X.",
"#.+.1.o.....;.e.e.w.-.-.-.*.) ......( Z ; u.V z N n v n B v.D.N.p.n.I.U. XJ.% o X + Q ;.,.,.;.......o.O.O.=.-.-.$.O.O.O.",
"#.+.+.o... .:.e.e.e.,.-.-.;.*.) ..o.) g ; N N p V t.N b v v B c.d.b.~.'. XJ.% % + % Q :.,.,.,... ...O.O.O.&.-.-.&.O.O.O.",
"6.6.6.;.*.;.:.8.8.5.,.&.&.;.) ..X.*.X.E , c z i V p.d.i.V v c y.m.A.`.]. XH.* o O & ) &.-.-.=.*.X.&.1.1.4.-.-.-.=...O.X.",
"e.r.e.5.,.=.;. .) ..) ) ( ~ ....*.-.-.,.Q r i i V p.d.d.f.f.V i.m.V.Z.R..XH.o % O - ( -.-.-.,.,.,.<.w.e.w.,.-.-.-. .....",
"e.e.e.5.,.-.,...*.) ( ) ( ......X.=.-.-.Q = 7 z V s.s.d.d.f.d.N B m.C.Y..XG.% %   < ) =.-.-.-.,.,.<.w.e.w.<.-.-.%... ...",
"e.e.e.3.,.,.;...) ;.;.) ) ......X.-.-.,./ g w c t.s.d.d.d.d.f.M i j.C.K..XG.% % O 2 ..&.-.-.-.,.,.<.e.w.w.<.-.-.&. .....",
"......&.,.,.>.#.1.:.......&.-.-.%. . . .( ^ A p t.u.d.d.g.a.s.m a j.m._ l ` % @ . 5 ..3.e.e.5.X.X.O.<.,.,.-.-.-.&.O.O.O.",
".... .,.,.,.<.#.+.+.......=.-.-.-. . . .^ / A % w M s.d.a.g.s.m a j.m.n % o O # 5 ) ..3.r.e.q.O.o.O.,.-.,.-.-.-.=.O.O.O.",
".... .=.,.<.>.#.+.+.o...) &.-.-.&.} ) ../ / P 1 % % t V g.s.s.M a V h.c % . X D X.....3.e.r.8.O.O.O.,.,.,.-.-.-.=.O.O.O.",
"....X.} | ^ &.9.9.8.;.&.=.&.*.*.;.7.8.2.Q I Y | P 5 : % t B p.N c B g.i & + X E 3.3.3.1.#.>.>.-.>.,.,.,.,.>.;.;.X.) ( ^ ",
"......^ I I  .e.r.9.-.-.-.*.o...>.e.e.w.I I I %.-.&.G , % : t z v w w 7 & + $ | e.e.e.>. ...X.-.-.-.,.,.,.$.O.O. .I I I ",
".. ...^ I I ..e.e.e.-.=.-.*...) :.e.e.e.I I I %.-.-.%.Q j % % ; q 6 & + * Z } -.w.e.e.:.....%.-.-.-.,.,.-.+.O.O. .I I I ",
" .....( ^ ^ ..8.3.3.>.,.>.&.*.;.>.r.e.e.T T ^ =.5.<.,.&.&.) j - & + & 4 U -.-.-.e.e.e.>. . .X.-.-.-.<.5.5.;.....} Y Y ^ ",
"...... ...........o.+.+.1.,.-.=.<.e.e.e.......8.w.e.9.-.-.,.e.#.S 4 U -.-.-.-.-.e.e.r.:... .X.,.,.<.e.e.e.X./ ^ )  . . .",
"................ .O.+.+.#.>.-.-.<.r.r.e. .....8.e.e.w.-.-.-.w.e.e.<.-.-.-.-.-.-.e.e.r.;. . .X.,.,.<.e.e.e.O.^ ^ )  ... .",
"..X............. .o.+.+.#.>.-.-.<.e.q.w.......3.9.w.3.%.-.-.w.w.w.2.=.-.-.-.-.-.w.w.w.O.)  .X.,.,.,.w.w.w.X./ ( ) (  . .",
"=.-.-.=.O.O.o. .....o.....3.e.w.q.#.#.4.........o.X. .Y T T O.O.+.......:.e.w.w.O.....( Y I  .#.1.1.,.,.-.X...../ Q Y Y ",
"-.-.-.O.O.O.o.............8.r.e.q.#.#.#.............( I I Y X.O.O...| ..:.r.e.e.......T I I ( #.+.+.,.=.-.X.....) I I I ",
"-.-.-.;.O.O.o. . ..... . .3.e.e.w.#.#.#.............( Y I I X.O.O...) ( ;.e.e.r.......T I I ( #.#.:.-.-.-.X. ...) Y Y Y ",
"-.-.-.<.8.8.2.+.O.O.X. ...+.>.>.O...O.O.! / ! ) .. ...o.O.X.>.>.,.;.,.;.&.....o.) ) ) Y I I / O.O.O.-.-.-.X.....) / ( ) ",
"-.-.-.w.e.w.q.#.#.+....... .............I I I ( X...O.+.#.#.,.,.,.,.,.,.*.I I ^ ^ / ^ Q I I ^  .....&.-.-.X. ...........",
"-.-.-.0.r.r.8.#.#.#............. ... . .I I I )  . .O.#.#.#.,.,.,.,.,.-.&.I I Q ! / ^ I I I ^ ......-.-.-.%.............",
"-.%.-.,.>.2.>.>.>.>.}  .........X.X.X.X.I I I | *.&.;.:.1.:.;.>.,.-.,.,.-.....) ( ( ) ( R / | X.O.O.,.<.<.O. .X...O.o.O.",
"-.-.-.| I I | -.=.-.X......... .X.-.-.-.I I I %.,.,.,.,.,.,.;.O.o.;.-.=.<.r.e.e.......=.-.-.>.#.#.#.e.r.e.>... .o.#.+.1.",
"-.-.-.( I I R -.-.-... . .......X.-.-.-.I I Y %.,.,.,.,.,.,.O.O.O.-.-.-.<.e.e.e.......&.-.-.;.#.#.1.e.e.e.#.....o.#.#.#.",
"-.-.-.R I I R -.-.-.............X.-.-.-.I I I *.,.,.,.<.-.,.+.o.O.&.-.-.<.r.e.e.......&.-.-.,.:.#.#.e.e.e.>.....O.#.#.#."
};
