/* XPM */
static char *_129_d0a9bcb1e20f1f28f5db9bd8f6e0e87221c22d667115d58dfa7fde8b8a432b9a[] = {
/* columns rows colors chars-per-pixel */
"60 60 189 2 ",
"   c #092D26",
".  c #0A2F28",
"X  c #072C25",
"o  c #0B322A",
"O  c #12362B",
"+  c #153B2C",
"@  c #1A3C2C",
"#  c #133827",
"$  c #0D3F36",
"%  c #143932",
"&  c #1E3F39",
"*  c #193A34",
"=  c #1C422E",
"-  c #0E4037",
";  c #0F473A",
":  c #194434",
">  c #23492F",
",  c #25462D",
"<  c #254D32",
"1  c #2B4E31",
"2  c #2C5534",
"3  c #2B583A",
"4  c #345D38",
"5  c #335A36",
"6  c #38633B",
"7  c #3C6838",
"8  c #426D3C",
"9  c #4A793E",
"0  c #48743F",
"q  c #124E43",
"w  c #125147",
"e  c #13594D",
"r  c #165E52",
"t  c #264640",
"y  c #2B4A44",
"u  c #2E4D48",
"i  c #314E49",
"p  c #31524B",
"a  c #3F5956",
"s  c #166659",
"d  c #176B5C",
"f  c #186C5D",
"g  c #176357",
"h  c #19705F",
"j  c #2D6947",
"k  c #186E61",
"l  c #197365",
"z  c #1B7C6B",
"x  c #1C7768",
"c  c #23796A",
"v  c #415C57",
"b  c #4B7441",
"n  c #477340",
"m  c #547D47",
"M  c #4C655F",
"N  c #446D45",
"B  c #5B716D",
"V  c #526A67",
"C  c #667B77",
"Z  c #56883D",
"A  c #1B806E",
"S  c #1E8573",
"D  c #1F8C79",
"F  c #1F927D",
"G  c #238272",
"H  c #248977",
"J  c #2A8D7D",
"K  c #308E7E",
"L  c #20927D",
"P  c #548443",
"I  c #5B8B46",
"U  c #588449",
"Y  c #5C9046",
"T  c #6B9D4E",
"R  c #639847",
"E  c #628A54",
"W  c #699A53",
"Q  c #689354",
"!  c #729F5C",
"~  c #73AE4B",
"^  c #70A24D",
"/  c #75B04C",
"(  c #79B24E",
")  c #7FB84F",
"_  c #75AB53",
"`  c #7AAF57",
"'  c #78AA58",
"]  c #77B251",
"[  c #7CB354",
"{  c #7EB952",
"}  c #7FB558",
"|  c #81B657",
" . c #82BA54",
".. c #81B759",
"X. c #83B95B",
"o. c #88BE5D",
"O. c #85B660",
"+. c #86BA60",
"@. c #8BBC62",
"#. c #8FBE6A",
"$. c #91BE6B",
"%. c #90BF61",
"&. c #89C256",
"*. c #8DC45C",
"=. c #87C057",
"-. c #90C65D",
";. c #92CA5C",
":. c #8EC262",
">. c #8FC466",
",. c #91C563",
"<. c #94CC61",
"1. c #99CE65",
"2. c #93C36A",
"3. c #96C96B",
"4. c #9ACC6D",
"5. c #99C56E",
"6. c #9CD06C",
"7. c #97C772",
"8. c #99C671",
"9. c #9CCD71",
"0. c #9FD173",
"q. c #A0D36E",
"w. c #A0CE74",
"e. c #A3D476",
"r. c #A5D579",
"t. c #A8D77B",
"y. c #219781",
"u. c #229B87",
"i. c #239D89",
"p. c #2B9885",
"a. c #3B9889",
"s. c #379583",
"d. c #23A48D",
"f. c #30A18F",
"g. c #25AB93",
"h. c #29AA94",
"j. c #33A895",
"k. c #29B59D",
"l. c #29B89E",
"z. c #34B29C",
"x. c #2CB8A1",
"c. c #33BCA4",
"v. c #39BAA5",
"b. c #409C8C",
"n. c #728482",
"m. c #7E8E8D",
"M. c #48A494",
"N. c #52AD9C",
"B. c #58BAA9",
"V. c #4CB5A4",
"C. c #65BEAE",
"Z. c #73BFB2",
"A. c #3DC5AD",
"S. c #36C0A7",
"D. c #3EC6B0",
"F. c #40C6AE",
"G. c #4EC8B3",
"H. c #5CC6B2",
"J. c #6DC8B7",
"K. c #72C7B9",
"L. c #75CCBC",
"P. c #7BCDBE",
"I. c #7BC5B8",
"U. c #808E8E",
"Y. c #889795",
"T. c #8F9B99",
"R. c #9BA5A4",
"E. c #B6BBBB",
"W. c #ACB6B5",
"Q. c #82CDBF",
"!. c #8CCABF",
"~. c #87CDC2",
"^. c #8CCEC3",
"/. c #94CEC4",
"(. c #9BCFC6",
"). c #9CCFC9",
"_. c #92D0C5",
"`. c #9ED0C7",
"'. c #A7D0C9",
"]. c #ACD1CB",
"[. c #B3D2CC",
"{. c #B9D2CF",
"}. c #BED4D1",
"|. c #B5CAC5",
" X c #C5CCCB",
".X c #CACCCB",
"XX c #C3D3D2",
"oX c #CDD4D3",
"OX c #D4D5D5",
/* pixels */
";.;.;.o.....*.<.<.1.r.r.r.r.r.r.3.~ ~ ~ r.r.r.5.$.$.#.X.X.o.;.<.<. .~ ~ ) ;.<.<.....{ X.X.X.o.;.*.;.o.....X.X.X.=.*.;.;.",
";.;.;.o.....o.<.<.;.e.r.r.r.r.r.3./ ~ ~ r.r.r.3.$.$.@.X.X.X.<.<.<. .~ ~ { <.<.<.X.....X.X.X.o.;.;.;.o.X.X...X.X.=.;.;.;.",
";.;.;.o.X...=.<.<.1.e.r.r.r.r.r.3./ ~ ~ r.r.r.5.$.$.@.X.X.o.<.<.;. .~ (  .<.<.<.......X.X.X.&.;.;.;.....X...X...=.;.;.;.",
";.;.;.*.+.+.:.<.<.;.r.r.r.6.1.1.:.} [ ] 1.6.6.4.w.w.3.X.} o.*.<.<.&.&. .*.;.;.;.X.....X.X...:.0.e.6.o...X.*.*.*.;.;.;.;.",
";.;.;.*.@.@.@.;.;.;.r.r.r.1.;.;.*.{ X.X.<.<.1.e.r.r.9...X.+.<.<.<.;.;.;.;.;.;.;.X.X.X.X.X.} >.r.r.r.+.X.X.*.;.;.;.;.;.;.",
";.;.;.:.@.@.*.;.-.;.e.r.r.1.;.;.*.X.X.X.<.<.<.6.r.r.3...X.X.<.<.<.;.;.;.;.;.;.;.X.X.X.} X.X.>.r.r.0.X.} ..;.;.;.;.;.;.;.",
";.;.;.%.@.@.@.*.-.-.4.4.4.4.1.1.<.@.@.@.:.*.,.3.9.9.3.@.X.+.:.<.,.;.*.*.-.*.*.*.=.*.=.:.=.:.,.6.0.6.=.:.=.*.;.;.;.&.*.*.",
";.;.;.@.@.@.@.X.X.X.X.X.X.4.r.r.9.$.$.$.X.X.X.X...X.X.@.@.@.@.+.@.X. .X.X. .X.X.*.;.<.;.<.<.<.;.;.;.;.;.;.;.;.;.*.X.X.X.",
";.;.;.%.@.@.X.X.X.X.X.X.X.w.r.r.w.$.$.#.=.} +.} X.X.o.@.+.@.@.X.@.X.X.X.X.X.X. .;.;.;.;.<.<.;.;.;.;.;.;.;.;.;.;.-.X.X...",
"-.-.;.o.@.@.@.X...X.@.X.X.4.r.r.w.$.#.#.+.+.} =.X.o.X.:.@.@.@.@.@.X.X.X.X.X.X. .*.;.;.;.;.<.<.;.;.<.1.;.;.;.;.;.-.X.X.X.",
"/ ~ ~  .X.X.X.X...X.w.e.e.r.r.r.w.$.#.2.+.} { ,.<.<.,.;.;.*.+.X.X.] / _ { -.;.;.o.X.o.X.X.@.>.r.r.r.r.r.e.;.;.;.*.X.X.X.",
"~ ~ ~ | X.X.X.X.X.@.e.r.r.r.r.r.9.$.2.2.+.X.X.,.<.<.;.;.;.;.X.X...] ~ ~ { -.;.;.X...X...X.X.>.r.r.r.r.r.r.1.;.;.*.X.X.X.",
"~ / ~ | X...X.X.X.@.e.r.r.r.r.r.w.$.$.2.X.X.X.:.X.} }  .&.*.X.....] ~ ~  .;.;.;.X.X.X.X.X.X.,.r.r.r.r.r.r.1.-.;.*.X.X.X.",
"&.&.&.o.#.@.X.] ] [ 2.2.2.3.1.1.3.X.+.+.*.*.*.o.< O # + = < < 3 6 8 b I  .;.;.;.X.X.X.2.9.3.5.@.%.,.7.8.8.,.,.@.*.*.*.*.",
";.;.;.%.$.#.X.~ ~ / @.@.o.-.;.;.*.......;.;.*.[ o . . . . . o . . .   1 o.;.;.;.X...X.4.r.r.4.....X.@.$.$.#.@.@.*.;.;.;.",
";.;.;.-.$.$.@.~ ~ / @.X.@.-.;.;.*.......;.^ 7 4 o . . . . . . . . . . 1 *.;.;.;.X.X.X.4.r.r.9.| ..X.$.$.$.@.@.@.@.;.;.;.",
";.;.;.-.2.,.%. . . .o.:.%.*.-.-.&.| [ | &.2 . & T.Y.n.C B v i & O   X @ 0 U (  . .X.X.2.9.4.2.X.X.} @.>.:.>.:.>.:.*.-.*.",
";.;.;.;.-.;.;.;.;.;.;.;.-.o...X.| ] ] P m @ . y .XOXOXOXOXOXOXOXoX XR.*   X Z ~ X.| | X.X.X.X.X.X.+.} X.} :.;.<.:.X.X.X.",
"-.;.;.;.;.;.;.;.;.;.;.;.;.o.X.X.} [ R O X i p v  XOXOXOXOXOXOXOXOXOXE.*     I / ..| | X.X.X.X.X.X.X.X.X.} <.<.<.*.X.X...",
";.;.;.;.;.;.;.;.;.;.;.;.;.o.X.X...^ Y o . R.oX X/./.).`.'.].[.XXoXoXW.%     1 8 P | X.X.X.X.X.X.=.} X.+.{ *.<.<.*.o.X.X.",
"r.e.r.1.;.;.1.r.e.e.@.@.@.X.X.X.0 . O & % R.OXOX_.~.~.~.~.~.~.~.'.]./.h.d.l . . O O.@.9.r.r.6.<.<.<.<.;.<.;.<.<.<.<.;.1.",
"r.r.r.1.;.;.1.r.r.e.@.@.@.X.X.X.2 . u E.E.|.{.{.^.~.^.~.~.~.~.~.'.'.^.l.x.z . X @ O.@.8.r.r.e.<.<.3.;.;.;.;.<.<.;.<.<.<.",
"r.r.r.1.;.;.1.r.r.e.@.@.@.X.X.X.2 o u oXOX}.].'.~.~.~.~.~.].XX{.P.~.K.x.x.z o . @ O.@.w.r.r.e.<.<.<.;.;.;.;.<.<.<.<.<.<.",
"1.1.1.&. . .&.1.1.1.-.-.*.-.-.-.6 . y .XOX[.'.]._.~.~.~.~.{.OXOXG.A.A.D.D.c X o , | X.@.2.5.,.;.;.;.;.<.<.:.:.=.+.=.:.=.",
";.;.;.{ [ [ { ;.;.;.;.;.;.;.^ 9 < . <  XOX].^._.XXXX[.).(.[.oXOXG.F.A.A.A.c X . , ' } @.@.@.:.;.;.;.<.<.<.=.X.X.X.X.X. .",
";.;.;.{ ] ]  .<.;.;.;.;.;.=.@ X * * t  XOX].~.^.oXOXoX].'.].[.[.(./.J.A.A.H q $   @ > U @.X.:.;.;.;.<.<.<.*.} X.X.X.X.X.",
";.;.;.=.{ =.=.;.;.;.*.*.&._ o . U.OXXX`.).].].].{.XX}.].].].].].].[.P.A.F.c.l.k.q . . b @.@.:.*.*.*.:.:.:.>.>.3.@.X.X.X.",
";.;.;.;.<.<.;.;.;.*.o.X.X.{ o . m.OXoX^.~.[.OXoXQ.L.P.P.~.~.~._.(.).K.A.A.c.l.l.q . . m $.$.#...X.X.=.} X.4.r.r.9.X.X.X.",
";.;.;.<.1.<.;.;.;.*.o...X.o.. . n.OXoX/.~.].OXoXP.L.L.L.L.L.L.L.L.L.M.z S h.S.S.$ . . E #.$.#.X.X.+.X.X.X.4.r.r.9.X.X.X.",
";.;.;.;.<.<.;.<.<.,.o.....@.O   n.OXoX/.~.).[.].P.L.L.L.L.L.L.L.L.L.M.z x z.A.A.% . . Q #.>.@...X.} X.X.{ 9.0.0.4.X.X.X.",
"X.X.X.*.<.;.1.r.r.0.o.X...<.%   C OXOX_.~.).[.'.P.L.L.L.L.L.L.L.L.L.M.z z z.A.A.o . X 1 7 n ] :.X.} X.X.} @.2.>.%.-.-.-.",
"X.X.o.&.;.;.1.r.r.0.o...X.:.: . B OXOX[.].I.V.B.L.L.L.L.L.L.L.L.L.K.M.z z v.D.A.h.i.x X X X ] } +.=.X.} +.@.+.@.*.;.-.;.",
"X.X.X.*.*.;.6.r.r.e.=.X.} ,.< . B OXOX[.].K.h.j.J.L.L.L.L.L.L.L.L.L.a.A z v.A.A.l.l.F . . # / X.X.X.X.X.X.X.@.@.@.;.;.;.",
":.@.@.:.*.o.,.r.r.e.,.*.,.=.< . V OXoXL.P.H.k.k.J.L.L.L.L.L.L.L.L.L.a.z z G J p.u.d.S . . > =.X.X.X.X.@.o.,.-.-.-.@.o.:.",
"$.$.$.+.X.X.:.r.r.r.;.;.*.o.6 : M OXOXH.D.A.D.A.H G K a.M.N.C.C.J.K.a.A z s s s s s w . . 2 :.X.X.X.@.@.@.-.;.-.-.@.@.@.",
"$.#.2.+.X.X.:.r.e.e.;.;.;.=.` T E n.Y.B.A.A.A.v.S z z z z x x S J s.p.L D l h f s s q . . 6 ,.X...X.+.@.@.-.;.;.-.@.@.@.",
"7.7.7.>.=.:.>.4.4.4.*.*.*.=.X.X.W X o f.A.j.x S y.L D S S z z z x z i.g.g.g.d.y.x x q   . 8 ;. .o.*.2.2.,.-.;.;.-.X.@.X.",
"r.r.0.6.<.<.,.X...X.X...X.X.X.X.W . o f.A.j.s d d.g.g.h.g.d.d.u.y.L y.i.d.g.g.u.z z q   . 9 ;.<.<.1.e.r.r.1.;.;.&.X.X.X.",
"r.r.r.6.<.;.:.X.X.X.} X.X.X.X.X._ . . L l.d.s f d.g.g.g.g.g.g.g.g.g.l d l g.g.D r d q + # T ;.<.<.1.e.r.r.1.;.;.-.X.X.X.",
"r.r.r.4.<.<.,...X.X.....} } X.X._ = o D l.u.s f d.g.g.g.g.g.g.g.g.g.l s k g.g.l . . 5 | ] -.;.1.<.<.r.r.r.1.;.;.*.X.X.X.",
"X.X.X.*.<.<.,.$.>.#.X.X.X.*.;.;.;.[ [ j r k k k d.g.g.g.g.g.g.g.g.g.l s f y.u.s . . 7 4.e.e.q.o.@.@.<.<.<.;.;.;.-.@.@.@.",
"X.X.X.-.<.;.1.$.#.#...o.X.*.;.;.*.} ..4 . $ z z d.h.g.g.g.h.g.g.g.g.f s f z z w . . 8 4.r.r.w.@.@.@.<.<.<.;.;.;.-.@.@.@.",
"X.X.X.,.<.<.3.$.$.$.X...X.*.;.;.;.} ..Y 7 3 l A d.g.g.g.g.g.g.g.g.g.x f h l x w . . U 4.r.r.9.@.@.@.;.<.<.;.;.;.-.@.@.@.",
"X.X... . .{ *.w.w.9.,.*.*.*.=.=.:.9.9.7._ R o o ; e d z D y.d.g.g.g.A z g   . 1 ! Q 2.2.,.2.#.-.<.;.<.<.<.-.:.:.X.} [ ] ",
"X.X.X.] ~ ~ X.r.r.e.;.;.;.=.X.X.>.r.r.r.~ R @ . X . . . . O $ q e f s s e . . 9 r.r.r.2.X.X.o.;.;.;.<.<.<.@.@.@.X.~ ~ ~ ",
"..X.X.( ~ ~ X.r.r.e.<.;.;.=.X.X.>.r.r.r.~ ~ R R I 0 2 : o . . . . . o O   T R ` r.r.r.,.X.|  .;.;.;.<.<.;.,.@.@.X.~ ~ ~ ",
"X.X.X.[ ] ] o.3.9.7.,.<.,.*.o.o.<.r.r.r.( ( ] :.1.1.<.o.X.' W m N 3 = O 1 ;.;.;.e.r.r.,...X.&.;.;.<.4.4.6.,.X.X.} ( ~ ( ",
"X.X.X.X.X.X.X.X.X.X.#.$.>.,.;.;.1.r.r.r.X. .X.9.r.r.q.;.;.;.r.r.r.1.&.[  .;.;.;.r.r.r.:.X.| o.1.;.1.e.r.r.o.] ` } | ....",
"X.X.X.X.X.X.X.X...+.#.#.$.<.-.-.1.r.r.r.X.X.X.8.r.r.6.;.;.;.e.r.r.6.;.;.;.;.;.;.r.r.r.:.....o.<.<.1.r.r.r.+.] [ } ......",
"X.X.X.X.X.X.X.X.X.O.#.#.$.,.1.;.1.e.r.e.X.X.X.4.e.e.6.;.-.-.e.r.e.1.;.;.*.;.;.<.e.e.e.@.} ..o.<.<.<.e.r.e.o.] } } X.....",
";.;.-.o.@.@.@.X.X.X.+.X.X.9.r.e.q.$.$.2.X.X.X.X.o.+...( / ( @.%.@.o.X.X.:.r.r.e.@.X.X.[ ] ~ } 2.2.2.<.<.;.o.X.X.} ~ / / ",
";.;.;.-.@.@.+.X.X.X.X.X.X.9.r.r.w.$.$.$.X.X.X.X.X.X.[ ~ ~ / X.@.@.X.....>.r.r.r.X.X.X.( ~ ~ [ $.$.#.;.;.;.o.X.X.[ ~ / ~ ",
";.-.;.*.@.@.X.X...X.X.X...9.r.r.e.$.$.$.X.X...X.X... .~ ~ ( o.@.:.X.X.} :.r.t.t.X.X.X.( ~ ~ [ $.$.2.;.;.;.o.X.X.} ~ / / ",
";.;.;.4.9.9.5.@.@.@.o...X.:.2.,.@.X.@.@.` [ ` | X.X.X.+.X.X.,.:.,.,.:.:.*.X.X.+.} } [ ( ~ ~ ] +.@.X.;.;.;.&.X...} } [ [ ",
";.;.;.q.r.r.e.#.$.#.o.X.....X...X.X...X.~ ~ ~ { X.X.@.$.$.2.<.<.;.<.<.<.=.~ / ~ ] [ ] _ ~ ~ ] X...X.*.;.;.o.X.X.X.X.X.X.",
";.;.;.e.r.t.9.$.$.#.X.X.X.X.X.X.X.X.X.| ~ ~ ~ } X...@.$.$.2.<.<.<.<.<.<.=.~ ~ ] ] } ] ( ~ ~ ] X.X.X.;.;.;.o.X.X.X.X.X.X.",
";.;.;.,.3.3.,.-.%.%.X.X...X.X.X.X.o.o.o.~ ~ ~  .*.o.:.,.2.2.:.,.;.;.<.<.;.X.=.} } } { { ) { { @.@.@.<.1.1.*.X...X.@.X.@.",
";.;.;.) ~ ~  .;.;.;.X.X.X.X...X.o.;.;.;./ ~ ~ &.<.<.<.<.<.<.:.@.@.,.;.;.1.r.r.r.X.X.} *.;.;.<.$.2.2.r.t.r.2.X.X.@.$.$.$.",
";.;.;.{ ~ ~ ) ;.;.;.X.X.X.X.X.X. .;.;.;.~ ~ ~ *.<.<.<.<.<.<.@.@.:.,.;.;.1.t.r.r.+.{ X.*.;.;.,.$.$.$.r.r.r.#.X.X.@.$.$.$.",
";.;.;.) ~ ~ ) ;.;.;.X.X...X.X.X.&.;.;.;.~ ~ ~ *.<.<.<.<.<.<.@.@.+.*.;.;.<.r.r.r.X.X.X.;.;.;.,.#.$.$.r.r.r.,.X.X.+.$.$.$."
};
