/* XPM */
static char *_5519_bcf89dbe665739a35bee14d965c5648993f952934dbbbd15261f14b8132b36ee[] = {
/* columns rows colors chars-per-pixel */
"60 60 185 2 ",
"   c #092C26",
".  c #0A2E28",
"X  c #0C332B",
"o  c #0D382F",
"O  c #12352C",
"+  c #153A2C",
"@  c #1A3E2C",
"#  c #0D3B33",
"$  c #193732",
"%  c #1A3A35",
"&  c #203F3A",
"*  c #1B412E",
"=  c #0F4239",
"-  c #1F4530",
";  c #11463C",
":  c #20462F",
">  c #244C32",
",  c #24423D",
"<  c #294C34",
"1  c #2B5335",
"2  c #2E553A",
"3  c #335C37",
"4  c #335A3B",
"5  c #3B643C",
"6  c #3D683B",
"7  c #406B3D",
"8  c #47773D",
"9  c #125449",
"0  c #13594E",
"q  c #185349",
"w  c #145C50",
"e  c #154A42",
"r  c #2C4A43",
"t  c #304D48",
"y  c #3E5854",
"u  c #315748",
"i  c #166256",
"p  c #176659",
"a  c #186659",
"s  c #17685A",
"d  c #196C5E",
"f  c #186457",
"g  c #366841",
"h  c #1A7464",
"j  c #1A7969",
"k  c #196F62",
"l  c #227C6C",
"z  c #4E7C43",
"x  c #527E44",
"c  c #456943",
"v  c #5D706E",
"b  c #526963",
"n  c #667975",
"m  c #4D823C",
"M  c #1C806E",
"N  c #1D8573",
"B  c #1F8D7A",
"V  c #1E8977",
"C  c #218E7B",
"Z  c #268877",
"A  c #318D7E",
"S  c #22927E",
"D  c #35907F",
"F  c #588548",
"G  c #5F9248",
"H  c #5E9544",
"J  c #5B8851",
"K  c #618F4C",
"L  c #6B9E4D",
"P  c #649848",
"I  c #719E4D",
"U  c #638E51",
"Y  c #6A9956",
"T  c #709859",
"R  c #6EA14D",
"E  c #73AE4A",
"W  c #75B04C",
"Q  c #79B24E",
"!  c #7FB84F",
"~  c #72A752",
"^  c #76AC52",
"/  c #79AD55",
"(  c #76A55C",
")  c #77B351",
"_  c #7CB354",
"`  c #7EB952",
"'  c #7EB358",
"]  c #72827F",
"[  c #81B657",
"{  c #81BA54",
"}  c #81B759",
"|  c #83B95B",
" . c #88BE5C",
".. c #86BA60",
"X. c #8BBC62",
"o. c #8EBE6A",
"O. c #89B665",
"+. c #91BE6B",
"@. c #89C256",
"#. c #8DC45C",
"$. c #87C057",
"%. c #91C65D",
"&. c #92CA5C",
"*. c #8EC263",
"=. c #8FC466",
"-. c #92C563",
";. c #94CC61",
":. c #99CE65",
">. c #93C36B",
",. c #96C96B",
"<. c #9ACC6D",
"1. c #99C56E",
"2. c #9CD06C",
"3. c #96C571",
"4. c #99C671",
"5. c #9CCD71",
"6. c #9FD173",
"7. c #A0D36E",
"8. c #A0CE74",
"9. c #A3D476",
"0. c #A5D579",
"q. c #A8D77B",
"w. c #219681",
"e. c #239A85",
"r. c #239D89",
"t. c #2C9684",
"y. c #3A9584",
"u. c #25A68E",
"i. c #2EA38F",
"p. c #26A690",
"a. c #26AC93",
"s. c #2FAF99",
"d. c #33AA96",
"f. c #27B198",
"g. c #2BB39A",
"h. c #33B29B",
"j. c #33BBA3",
"k. c #3ABCA5",
"l. c #3CBFA9",
"z. c #439B8B",
"x. c #7C8B89",
"c. c #4AA292",
"v. c #51AC9C",
"b. c #49B19E",
"n. c #59B3A3",
"m. c #47B8A4",
"M. c #60B7A7",
"N. c #69BBAD",
"B. c #62B9A9",
"V. c #3CC0A9",
"C. c #38C1A7",
"Z. c #52C2AF",
"A. c #55C3B0",
"S. c #47C0AD",
"D. c #6EC2B4",
"F. c #64C0B1",
"G. c #71C5B6",
"H. c #7DC6BA",
"J. c #8A9896",
"K. c #96A19E",
"L. c #9DA6A4",
"P. c #A5ACAD",
"I. c #AEB3B3",
"U. c #B4BCBB",
"Y. c #B8BCBB",
"T. c #83C7BA",
"R. c #8AC7BD",
"E. c #8CC8BC",
"W. c #83C8BB",
"Q. c #92C6BD",
"!. c #92C9BE",
"~. c #A1C1BA",
"^. c #96C9C0",
"/. c #9BC9C2",
"(. c #A4C9C3",
"). c #AACAC4",
"_. c #BDC1C1",
"`. c #B1CCC7",
"'. c #B3CCC8",
"]. c #B9CCCA",
"[. c #C3CDCC",
"{. c #CDCECD",
"}. c #C4C6C5",
"|. c #D0CECF",
" X c #CED0CF",
/* pixels */
"&.&.&. .} } #.;.;.:.9.0.0.0.0.9.,.E E E 0.0.9.1.+.+.X.| | ..&.;.;.{ E E ! &.;.;.| | ` | | |  .&.&.&.} | } | | | $.&.&.&.",
"&.&.&. .} }  .;.;.&.9.0.0.0.0.q.,.W E E q.0.q.1.+.+.*.| | | ;.;.;.{ E E ` ;.;.;.| ' } | | }  .%.&.&. .| | | | | $.&.&.&.",
"&.&.&. .} } $.;.;.:.9.0.0.0.0.9.,.E E E 0.0.0.1.+.+.X.| | | ;.;.;.` E E { ;.;.;.} } } } | | #.&.&.&.} } } | | | $.&.&.&.",
"&.&.&.#.....*.;.;.;.9.0.0.2.:.:.=.' _ ' :.2.:.5.8.8.1.| ' | ;.;.&.@.@.@.#.&.&.&.| } | | | } *.6.6.2. .| | @.#.#.#.&.&.&.",
"&.&.&.%.X.X.X.&.&.&.q.0.0.:.&.&.#.` | | ;.;.;.9.0.0.5.} |  .;.;.;.&.&.&.&.&.&.&.| | | | | ' =.0.0.6...| | #.&.&.&.&.&.&.",
"&.&.&.X.X.X.#.&.&.&.9.0.q.:.&.&.#.| | | ;.;.&.9.0.0.<.} | ..;.;.;.&.&.&.&.&.&.&.| | | | | | *.0.0.6.*.| | &.&.&.&.&.&.&.",
"&.&.&.-.X.X.X.%.#.%.<.<.<.:.:.:.,.......-.#.%.,.5.5.>. .X...*.;.-.#.#.@.#.#.#.#.$.$.$.$.*.$.,.2.6.2.$.$.| #.&.&.&.#.&.#.",
"&.&.&.X.X.X...| | | | | | 4.0.9.6.o.+.>.| | | | | } | X.X.X.....X. .|  .| { }  .%.&.;.;.;.;.&.&.&.&.&.&.&.&.&.&.#.| ' } ",
"&.&.&. . .X. .| } | | | | 4.q.q.5.+.+.>.| ' | | | | ....X.X...X.X...' | | | } { &.&.&.&.;.;.&.&.&.&.&.&.&.&.&.&.&.| | | ",
"&.&.&. .X.O.O.| | |  . . .<.0.0.9.+.+.+...| | | |  .| *.*...X.X.X.| | ' | | |  .%.%.&.&.&.;.;.&.;.&.&.:.&.&.&.&.@.| | | ",
"W E W [ | | | | | ..5.9.0.9.9.0.5.+.o.+.| | | %.;.;.%.&.&.#.| | .._ W E ` &.&.#.|  . .| | ..=.0.0.0.q.9.0.:.&.&.#.| | | ",
"E E E [ | | | | | ..9.0.q.9.0.0.8.+.>.>.| | ' ;.;.;.;.&.&.&...| ' ) E W ` &.&.&.| } | | | | *.0.9.q.0.q.q.&.&.&.#.| | } ",
"W E E [ | | | | | ..0.0.0.0.0.0.8.+.+.+.| | | *._ / ^ ^ ^ ^ L Y L P H H _ &.&.&.| | | | } | >.0.9.0.0.0.0.:.&.&.#.| }  .",
"@.{ @.X.X.X. ./ _ _ -.>.>.,.:.:.;. .....#.#.#.} *             . . . X   R &.&.&.| } } ,.5.<.,.*.X.>.4.4.4.-.>.X.#.#.#.#.",
"&.&.&.-.+.+...E E Q ..X. .-.&.&.#.} } } &.@.| _ +                       R &.&.&.| } } <.0.0.<.} [ } X.+.+.o...X. .&.&.&.",
"&.&.&.%.+.+. .E E E O. .X.%.&.&.%.} } [ &.z 1 > O .                   . F ^ / %.|  .} 5.0.0.5.} }  .+.+.+.X.X.X.*.&.&.&.",
"&.&.&.%.+.-. .{ ! {  .#. .#.%.%.@.' ' ' | @   $ K.I.P.L.J.J.J.x.x.] n n X   O E | | } >.<.,.>.} | ' X.=.*.=.*.=.#.#.#.#.",
"&.&.&.&.&.&.&.&.&.&.&.&.&. .| | ' _ ~ H K +   & Y.|.{.{.|.|.{.{.|.|.|.Y.%   + R } } } {  .| | | | ..' ..' #.;.;.-.| | | ",
"&.&.&.&.&.&.&.&.&.&.&.&.&. .| | ' ) 3     & & t Y.}.{.{.|.|.{.{.|.|.[.U.$   X 8 F K } | } | } } | | ' $.| ;.;.;.#.| | | ",
"&.&.&.&.&.&.&.&.&.&.&.&.&. .| | } Q *   $ I.}.~.Q.Q.R.E.!.!.Q.Q./.'.'.I.l k i . . @ / | | | |  .*.' | ..` #.;.;.%.| | | ",
"9.0.q.:.&.&.:.0.0.9.X...X. .| ( 6 5 +   X I.{.{.E.T.T.T.T.T.T.T.T.(.).^.g.f.r.X . - O.5.0.0.6.;.;.;.;.#.&.&.;.;.;.;.&.;.",
"0.0.0.:.&.&.:.q.9.9.X.X.O.| | x     b n v U.[.[.E.T.W.T.T.T.E.R.E.).).^.f.f.w.    > X.5.0.0.6.&.;.;.&.&.&.;.;.;.&.;.;.;.",
"9.0.0.:.&.&.:.9.9.9.>.X. . . .8     L.{. X`.).(.T.T.T.W.T.E.[.[.).Z.Z.Z.k.k.t.    1 ..5.0.9.6.;.;.;.&.&.%.&.;.;.;.;.;.;.",
"2.:.:. .{ } @.:.:.:.%.%.%.%.&.F     K.{.{.).).(.R.T.T.T.T.E.{.{.`.l.V.C.l.l.t.    4 ' X.1.>.,.&.&.&.&.;.;.*.$. .*.X.$.#.",
"&.&.&.{ ) ) { &.&.&.&.&.&.&.&.K     x. X X/.E.!.~.].(.!.!./.[.[.`.A.Z.m.V.V.t.    O % : U X.-.&.&.&.;.;.;.$...' | | | [ ",
"&.&.&.` ) ) { &.&.&.&.&.&.L P 8   . x. X X!.T.E.{. X{.).).).).).(.(./.T.V.V.g.w.w.0     F  .X.&.&.&.;.;.;.$.' $.| | | | ",
"&.&.&.$.{  .@.&.&.&.#.#.` +   $ y y J.[.[./.E.E.[.{.[.).).).).).).).).T.V.l.j.f.f.a     K X...*.#.=.;.=.=.=.,.=.*.| | | ",
"&.&.&.&.;.;.&.&.&.&. .} ~ O   y {.{.(.T.T.].[.[.E.H.W.H.T.W.T.T.T.^.E.N.i.d.s.g.g.w     T +.o.| $.' ` | | <.0.q.4.| | | ",
"&.&.&.;.;.;.&.&.&.#. .} ^ + . t {.{.).W.T.]. X{.H.G.G.G.G.G.G.G.G.G.G.v.h j i.V.V.q     ( +.o.| | | | | } <.0.0.<.| | | ",
"&.&.&.&.;.;.;.&.;.;.}  .^ @   t {.{.).T.T.).[.].H.G.G.G.G.G.G.G.G.G.G.c.j j d.C.l.q   . c x U | | | } | ` 5.0.6.<. .| | ",
"}  . .#.&.&.:.q.9.6. .| / @ . r }.|.).W.W.(.).(.H.D.G.G.G.G.G.G.G.G.G.c.j j h.S.V.j d 0 .   + / | } | | } X.o.o.X.&.%.%.",
"} } | @.&.&.:.q.0.9.| | [ * . , }.{.`.W.W./.).(.H.G.G.G.G.G.G.G.G.G.G.z.j j h.V.C.g.f.u.# . * _ | | | | | ..X... .&.&.%.",
" .| | #.&.&.:.0.0.9.| | } :   r }.{.[.(.(.n.b.b.G.G.G.G.G.G.G.G.G.G.G.z.j j d.k.h.g.f.u.X   * { } | } | |  .O.X. .&.&.&.",
"X.X.X.*. .| ,.0.9.9.-.#.#.> . % _.{.[.).).n.p.p.F.G.G.G.G.G.G.G.G.G.D.z.j h d d h h d s .   > } |  ...X...#.%.%.-.X.X.%.",
"+.+.o...| | =.0.9.9.;.&.&.2   & }.{.].D.G.m.g.s.v.n.M.B.M.N.F.F.N.D.D.D j j i i f f i 0     1 | | | X...X.%.%.&.%.X.X.X.",
"+.o.>...| | =.9.0.0.&.&.&.3   % Y.{.`.V.V.V.V.l.Z j j j l Z A A D D z.t.B B M j h s s 0     3 | | | X...X.%.&.&.%.X.X.X.",
"4.4.3.=.*.$.*.<.5.<.#.#.@.F 1 1 K.U.~.V.V.C.V.C.Z h j j j j j j j j j S u.u.u.u.r.j j w     7  . .#.>.>.-.%.&.&.%. . . .",
"0.0.6.2.;.;.;.| | | } } }  .| _ *   e V.S.t.d h w.e.w.w.S B B V N Z N B e.u.u.u.r.h j w     x ;.;.;.0.0.0.:.&.&.#.} | | ",
"0.0.0.2.;.;.;.| } | } } ' | | ' :   ; k.C.S i i e.p.u.u.u.u.u.a.u.u.u.h i h u.u.N # # g I P [ &.;.:.0.9.0.:.&.&.#.| | | ",
"0.0.0.<.;.;.*.' | } } } } | | | :   ; h.h.C i p r.u.p.p.u.u.u.u.p.p.u.k i d u.u.j     z &.&.;.;.:.;.0.q.9.:.&.&.#.} | | ",
"| | } ;.;.;.-.+.=.o.| | } #.&.&.>   = f.f.V i i u.u.u.u.u.u.u.u.u.u.r.d i s B B k     J L.q.7.&...X.:.;.;.&.&.&.%.X.X.X.",
"| | } %.;.;.:.+.+.+.| | | #.&.&.F 1 2 e.r.N i p e.u.u.u.u.u.u.u.u.u.u.d i s j h 0     Y 7.q.2.#...*.&.;.;.&.&.&.%.X.X...",
"| | | *.;.;.-.+.+.+.| | } #.&.&.#.} ~ + o 9 j j u.u.a.u.u.u.u.u.u.u.r.k a s h h 9     ( q.9.2.X.X.X.;.;.;.&.&.&.%.X.X.X.",
"} | | { ` ` #.6.5.5.-.#.#.#.$. .*.5.o.- X ; j j e.u.u.u.u.u.u.u.p.u.u.j j i     J >.O.=.-.>.*.&.-.&.;.;.;.-.*.#. ._ _ ) ",
"| | | _ E E } 0.0.9.&.&.&.$.} | =.9.6.3.P 8 # = 9 0 i s k j M V B S w.j j 0     Y 9.0.>.| |  .&.&.&.;.;.&.-.X.X.| E E E ",
"| | } Q E E | 0.0.9.&.&.&. . .} =.0.q.0.W m .               X X # # = # # 5 P G o.0.0.*.| |  .&.&.&.;.;.&.>.X...| E E E ",
"} } | ' ^ _ | 5.5.5.-.;.-.#. .$.;.q.0.0.Q P 6 5 5 4 < - * @ $ O .         8 &.&.0.0.0.>.| | $.&.&.&.2.2.<.*.} | ' Q E / ",
" . .| } | | | | | | o.o.>.-.&.&.:.0.0.0.| | | 5.0.0.7.@. . .3.+.O./ R L L [ &.%.0.0.0.*.} {  .;.;.:.9.0.0. ._ _ ' } } } ",
"} } | | | |  .| } ..o.o.+.;.&.&.:.q.0.0.| | | <.0.0.2.&.&.&.9.q.0.2.&.&.&.&.&.&.0.0.0.*.' '  .;.;.;.9.0.0.X._ ) ' ` | } ",
" . .| | | | | | } ..o.o.+.-.&.&.:.9.0.9.| | | 1.6.9.6.#.&.&.8.0.6.,.&.&.&.%.&.&.9.9.9.*.' }  .;.;.;.9.0.9. ._ _ ' ' } } ",
"&.%.#.#.X.X...' | | ..| | 4.q.0.8.+.1.+.| } |  . . .{ W W Q  .X.*...}  .=.0.0.9... . .' ) Q _ >.>.o.;.;.&. .| } _ Q W W ",
"&.&.&.#.X.X...| | | | | | 5.0.0.5.+.+.+.| | | | } } ' W E W  .X.X.| } } =.0.0.0.| | } Q W E _ +.o.3.&.&.&. .| | ' E E E ",
"&.&.&.*.X.X...| }  .} | | 5.0.0.9.+.+.>.| | | | | | [ W E Q  .X.X.| ` ' *.0.q.q.| | } Q E W ' +.+.=.&.&.&. .| | ' W W W ",
"&.&.&.,.5.5.,.X.X.X.| | | X.-.-.X.....X./ _ / ' | | } X...| -.-.-.*.;.=.$.....| ' _ ' Q E W ) ....X.&.&.&.@.} | } ' _ ' ",
"&.&.&.9.0.0.5.+.+.o. .| | } | | | | | } E E E ' | | ..o.+.+.;.;.;.;.;.;.$.E E W _ ^ _ E E E ) } | | %.&.&.@.| | | | | | ",
"&.&.&.9.0.0.6.>.+.o.| } | | | | | | | { E E E ' | | X.+.+.>.;.;.;.;.;.;.$.E E ) ) _ _ E E E _ | | | #.&.&. .| | | | | | ",
"&.#.&.&.,.-.-.-.-.X. .[ } | | } |  .@. .E E E { #. .*.>.>.>.;.-.%.&.;.;.%.| $.' ' ' ' ` ! _ {  .X...:.:.:. .| | } X. .X.",
"&.&.&.{ E E { &.&.&. .| | | | |  .&.&.&.E E E @.;.;.;.;.;.;.X.X.*.*.&.&.:.0.q.9.$...` #.&.&.-.+.+.3.0.q.0.-.| | X.+.+.+.",
"&.&.&.! E E ! &.&.%.| | } | | |  .&.&.&.E E E @.;.&.;.;.;.;.X.X...;.&.&.:.0.0.0.| | ..#.&.&.;.+.+.+.9.0.0.>.| | ..+.+.+.",
"&.&.&.! E E ! &.&.&.| | | | | |  .&.&.&.E E E @.;.;.;.;.;.;.X.X.X.#.&.&.:.q.0.9.| | | #.&.&.*.=.+.+.9.0.0.>.| | ..+.+.+."
};
