/* XPM */
static char *_934_505ad811b51eff0c7defedb28b3eaa8a5aab8008773aed67d8d892c1645f6429[] = {
/* columns rows colors chars-per-pixel */
"60 60 193 2 ",
"   c #072B25",
".  c #092B25",
"X  c #0D2E28",
"o  c #0E3127",
"O  c #0D332C",
"+  c #13332D",
"@  c #163B2B",
"#  c #193C2B",
"$  c #133527",
"%  c #0D3631",
"&  c #0D3C34",
"*  c #1A3A34",
"=  c #103F37",
"-  c #213F3B",
";  c #1C432E",
":  c #0E443B",
">  c #13453B",
",  c #20462F",
"<  c #254C32",
"1  c #2A4D35",
"2  c #2A4D38",
"3  c #224336",
"4  c #2B5435",
"5  c #335B36",
"6  c #335B3A",
"7  c #305533",
"8  c #376239",
"9  c #39643A",
"0  c #3F6A3C",
"q  c #406C3B",
"w  c #4A773E",
"e  c #124C42",
"r  c #125146",
"t  c #12564A",
"y  c #145A4E",
"u  c #1F5B42",
"i  c #155F52",
"p  c #324D48",
"a  c #2C4742",
"s  c #166255",
"d  c #176B5C",
"f  c #196D5E",
"g  c #1B6357",
"h  c #15705F",
"j  c #3F6442",
"k  c #187364",
"l  c #1C7768",
"z  c #1B7B6B",
"x  c #177364",
"c  c #1F7F71",
"v  c #207B6C",
"b  c #237567",
"n  c #486E45",
"m  c #4A7542",
"M  c #4D7840",
"N  c #457440",
"B  c #527E44",
"V  c #547E4E",
"C  c #4A605D",
"Z  c #566A67",
"A  c #5F7171",
"S  c #496C66",
"D  c #6B7B78",
"F  c #1B806E",
"G  c #1D8472",
"H  c #1D8A77",
"J  c #1E8C79",
"K  c #1F917F",
"L  c #238C7B",
"P  c #258576",
"I  c #388F7F",
"U  c #338A7B",
"Y  c #29907F",
"T  c #598747",
"R  c #5C8C46",
"E  c #5C8B4B",
"W  c #5F914B",
"Q  c #5F8651",
"!  c #568857",
"~  c #618E4C",
"^  c #61934B",
"/  c #699C4D",
"(  c #629047",
")  c #689752",
"_  c #6CA14E",
"`  c #73AE4A",
"'  c #70A44F",
"]  c #75B04C",
"[  c #79B24E",
"{  c #7FB84F",
"}  c #6DA051",
"|  c #72A653",
" . c #76AC52",
".. c #79AE54",
"X. c #7AA95A",
"o. c #77B351",
"O. c #7CB454",
"+. c #7EB952",
"@. c #7FB558",
"#. c #78A562",
"$. c #81B657",
"%. c #82BA54",
"&. c #81B759",
"*. c #83B95B",
"=. c #89BE5D",
"-. c #86BA60",
";. c #8BBC62",
":. c #8FBE6A",
">. c #89B669",
",. c #91BE6B",
"<. c #89C256",
"1. c #8DC45C",
"2. c #8AC358",
"3. c #90C65D",
"4. c #92CA5C",
"5. c #8EC263",
"6. c #8FC466",
"7. c #92C563",
"8. c #94CC61",
"9. c #99CE65",
"0. c #93C36A",
"q. c #96C96B",
"w. c #9ACC6D",
"e. c #99C56E",
"r. c #9CD06C",
"t. c #97C772",
"y. c #99C671",
"u. c #9CCD71",
"i. c #9FD173",
"p. c #A0D36E",
"a. c #A0CE74",
"s. c #A3D376",
"d. c #A5D579",
"f. c #A8D77B",
"g. c #1F9380",
"h. c #1F9E88",
"j. c #388E81",
"k. c #209782",
"l. c #219D87",
"z. c #219F89",
"x. c #2A9180",
"c. c #3F9588",
"v. c #3F9686",
"b. c #23A28C",
"n. c #2CA28E",
"m. c #25A992",
"M. c #2AAA94",
"N. c #27A994",
"B. c #32A491",
"V. c #35AF9B",
"C. c #35B39E",
"Z. c #39B59F",
"A. c #38B89F",
"S. c #39B7A2",
"D. c #3AB8A3",
"F. c #459B8D",
"G. c #7A8885",
"H. c #42AF9D",
"J. c #47A998",
"K. c #5CAEA0",
"L. c #49B7A6",
"P. c #5FB6A9",
"I. c #5AB5A6",
"U. c #6CBCAF",
"Y. c #64B4A7",
"T. c #6CBCB1",
"R. c #75BDB1",
"E. c #7CBEB2",
"W. c #71B9AD",
"Q. c #818D8B",
"!. c #959D9C",
"~. c #8E9897",
"^. c #84BFB4",
"/. c #8CBEB6",
"(. c #91BEB6",
"). c #99BCB7",
"_. c #A9ADAD",
"`. c #A6AFAC",
"'. c #A8B1AE",
"]. c #ABAFB0",
"[. c #AAB0B0",
"{. c #B1B5B4",
"}. c #B8BBBB",
"|. c #8CC0B6",
" X c #82C0B5",
".X c #92C1B8",
"XX c #9BC1BA",
"oX c #A2C1BC",
"OX c #A9C2BE",
"+X c #ADC2C0",
"@X c #BCC4C3",
"#X c #B5C3C1",
"$X c #C4C5C5",
/* pixels */
"4.4.4.=.&.&.2.8.8.9.s.s.f.f.f.d.q.` ` ` d.d.d.e.,.,.;.*.*.=.3.8.8.%.` ` +.4.8.8.&.&.&.*.*.*.=.4.4.1.*.&.*.=.&.*.2.1.4.4.",
"4.4.4.=.&.*.;.8.8.4.s.d.d.d.s.f.q.` ` ` d.d.d.e.:.,.:.*.*.*.4.8.4.%.` ` +.8.8.8.*.@.@.*.*.&.2.8.4.1.=.*.*.&.*.*.<.4.4.4.",
"4.4.4.=.*.*.2.8.8.9.d.d.d.d.s.d.t.` ` ` d.d.d.e.,.,.;.*.*.-.8.8.4.%.` ` %.9.8.8.&.+.*.*.&.=.=.4.4.4.=.&.&.*.*.&.<.1.4.4.",
"4.4.4.2.-.-.2.8.8.8.s.d.d.r.9.9.6.O.O.O.9.r.r.u.a.a.q.*.*.2.3.8.8.2.<.<.2.4.4.4.*.*.@.*.&.&.5.i.p.r.*.*.*.2.1.1.4.4.4.4.",
"4.4.4.3.;.;.;.4.4.4.s.d.d.9.4.4.1.+.*.*.8.8.8.s.d.d.w.&.*.-.8.8.8.4.4.4.4.4.4.4.*.*.@.-.*.+.6.d.d.s.=.*.*.1.4.4.4.4.4.4.",
"4.4.4.;.>.;.1.4.4.4.s.d.d.9.4.4.1.*.*.*.8.4.4.s.d.d.u.&.*.*.4.8.8.4.4.4.4.4.4.4.*.*.-.@.*.-.6.f.s.s.-.&.*.1.4.4.4.4.4.4.",
"4.4.4.7.;.;.;.3.1.3.e.u.w.9.9.r.q.;.-.;.7.1.3.q.w.u.q.;.*.=.6.6.7.3.1.1.3.1.1.1.2.=.=.2.5.2.6.r.i.r.2.-.2.1.4.4.4.1.1.1.",
"4.4.4.;.;.;.;.$.*.*.*.&.=.w.d.d.i.:.:.,.*.*.*.*.*.&.*.;.;.;.;.;.;.*.%.*.*.%.*.*.4.4.4.4.8.8.4.4.4.4.4.4.4.4.4.4.2.*.*.*.",
"4.4.4.=.;.;.=.*.*.*.*.*.*.u.d.d.a.,.,.0.=.*.*.&.*.*.*.;.;.;.;.;.;.-.*.*.*.&.*.%.4.4.4.4.8.8.4.4.4.4.4.4.4.4.4.4.3.*.*.*.",
"4.4.4.=.;.;.-.&.&.*.;.*.*.w.d.d.u.,.,.,.&.*.&.=.*.=.*.5.;.;.;.;.;.*.&.*.*.&.*.%.4.1.4.3.3.8.8.4.4.9.9.4.4.4.4.4.2.*.*.%.",
"` ` ] $.*.*.*.&.&.*.a.s.s.d.d.f.s.,.0.,.*.*.&.6.8.8.8.4.3.3.*.*.*.o.` ` +.1.4.4.=.*.=.*.*.;.6.s.d.d.d.d.d.9.4.4.3.*.*.*.",
"` ` ` $.*.*.*.*.*.;.s.d.d.d.d.s.u.,.,.,.*.*.&.6.8.8.3.3.4.4.*.*.*.o. .` %.4.4.4.*.*.*.&.=.&.6.d.d.d.d.d.f.4.4.4.1.*.*.*.",
"] ` ` $.*.%.*.*.*.;.s.d.d.f.d.d.a.0.,.,.*.*.*.@.9 6 6 7 1 < < < < ; @ @ ( 4.4.4.*.*.*.*.*.*.7.d.d.s.d.d.f.9.4.4.1.*.&.*.",
"%.<.<.;.:.;.=...o.O.,.0.0.q.9.9.0.*.;.*.4.1.1.O.O               .     . M 4.4.8.*.&.*.8.w.w.e.6.;.7.y.e.y.7.;.:.1.1.5.4.",
"4.4.4.7.,.,.*.` ` ] ;.;.=.3.4.4.1.&.&.&.3.1.2. .O                 . . . q  .` 1.*.*.*.u.d.d.w.&.*.*.:.,.,.;.;.;.;.4.4.4.",
"4.4.4.7.,.,.=.` ` ] -.=.;.3.4.4.1.&.&.%.%.5 6 1 + O O + + * * * * * - 3 * o   ) *.*.*.w.f.d.t.%.$.*.:.:.,.;.;.;.2.3.4.4.",
"3.4.4.4.7.7.1.%.%.$.=.1.=.1.3.1.<.&.@.@...O . + !._._._._.{.{.{.{.{.}.}.Z     w %.*.&.0.u.w.0.*.@.-.;.6.;.6.5.6.5.1.1.1.",
"4.4.4.4.3.4.4.4.4.4.4.4.4.=.&.*.$.o.` ' / X . + _.$X$X$X$X$X$X$X$X$X$X$XZ     5 E ^ @.*.*.*.*.*.@.*.@.*.@.1.8.8.3.*.*.*.",
"4.4.4.4.3.4.4.4.4.4.4.4.4.=.*.*.$._ ; ; @ X + * '.$X$X@X$X$X$XOX#X@X@X@XS & : O   . ^ &.*.*.*.*.-.*.*.*.*.8.8.8.1.*.*.*.",
"4.4.4.4.4.4.3.4.4.4.4.4.4.2.*.*.@./ O   * !.[.'./.^.^.^.^.^.^./. XXX+X+XJ.M.m.y   . B *.*.*.*.*.*.*.*.-.+.1.4.8.1.*.*.*.",
"d.d.d.9.4.4.9.f.d.i.;.;.;.=.*.X. .^ +   * {.$X$X^.E.E.E.E.E.E.E.E.XX+XXXL.N.m.r   . E u.d.d.r.8.8.8.8.4.4.8.8.8.8.4.8.8.",
"s.f.d.9.4.4.9.f.d.s.;.;.;.*.| , + $ + + a {.$X@X^.E.E.E.E.E.^.^.|.|. X.XH.M.M.r . X ) u.d.d.s.8.8.8.4.4.4.4.9.8.8.8.8.8.",
"d.d.s.9.3.4.9.d.s.d.;.;.;.*.' #   * !._.[.}.XXoX^.E.E.E.E.^.OX$X$XP.S.S.S.D.S.e . . ) u.d.d.i.8.8.8.4.4.4.8.8.8.8.8.8.8.",
"9.9.9.2.%.%.2.9.9.9.3.3.3.3.[ ;   * }.$X$XoXoXXX^.E.E.E.E./.OX$X$XL.S.D.S.S.S.> . . 1 6 Q 0.7.3.4.4.4.8.8.1.-.2.;.2.;.2.",
"8.4.4.+.O.O.+.4.4.4.4.4.4.4.%.< X * {.$X$XXXXX.X.XXX.X.X|.|.OXOX#XR.R.R.L.S.Z.L G z % . # X.;.4.4.4.8.8.8.2.@.@.*.*.*.%.",
"4.4.4.+.o.o.%.4.4.4.4.4.4.4.%.<   + ].$X$X X X XOX$X$XOXoXoXOXOXoXoXoXXXL.S.S.m.m.b.& . , X.7.4.4.4.8.8.8.2.@.-.*.*.*.*.",
"4.4.4.2.<.*.2.4.4.4.1.1.' ( w #   + '.$X@X XE. X$X$X$XOXoXoXoXoXoXoXoXXXL.S.S.m.m.z.% . 1 &.;.1.1.1.8.8.6.6.q.6.;.*.*.*.",
"1.4.4.4.8.8.4.4.4.4.*.*.9 . . p Z Z ).+XoXoXoXoXXX.X.X|.^.^.E.^.E.E.E.W.x.P G V.C.B.% . 4 >.:.&.*.*.@.@.+.u.d.d.u.*.*.*.",
"4.4.4.8.8.8.4.4.4.4.*.$.9   + ~.$X$X^. X X#X$X$XE.U.U.U.U.U.U.U.U.U.U.Y.v k z C.S.B.O   1 Q ~ $.*.*.*.*.*.u.d.s.w.*.*.*.",
"1.4.4.4.8.8.4.4.8.4.=.*.9   X Q.$X$X/.E.R.#X$X$XE.U.U.U.U.U.U.U.U.U.U.Y.v k v C.S.B.: : % . . T *.*.*.*.*.t.s.i.w.=.*.*.",
"2.*.=.1.4.4.9.d.d.u.*.*.9     G.$X$X/.E.E.{.OXOXR.T.U.U.U.U.U.U.U.U.U.Y.l k z S.S.C.m.m.k .   0 @.*.&.*.*.;.6.:.;.4.3.3.",
"*.&.&.2.4.4.r.d.f.s.*.*.q     G.$X$X/.E.E.XXoXoXR.U.U.U.U.U.U.U.U.U.U.Y.l k c C.S.C.m.m.s     N *.*.*.*.*.;.;.-.=.4.4.3.",
"*.*.*.1.4.4.9.s.d.s.*.*.N     D $X$X.XE.^.(.).(.R.T.T.T.U.U.U.T.U.U.U.K.l k z Y Y L P F r     T *.*.&.&.&.*.;.;.*.4.4.4.",
";.:.;.5.=.=.q.d.d.s.4.1.M X   D $X$X+XoXXXJ.n.n.P.T.U.U.U.U.U.U.T.U.T.K.k k d s i s y i :   . / *.*.;.;.=.6.3.3.7.;.;.3.",
":.:.:.-.*.*.5.d.d.s.8.4.T     A $X$X+X{.oXJ.h.z.P.T.U.T.U.U.U.T.U.U.T.K.l k x s s s s s + . X } *.*.;.;.;.3.4.4.3.;.;.;.",
",.:.0.-.*.&.7.d.d.d.3.4.R   X Z $X$X.X/.E.H.N.M.F.F.F.F.c.c.c.c.I I j.I g.K K J K F h k = . + | *.*.;.;.;.3.4.4.3.;.;.;.",
"y.y.t.6.=.2.6.w.u.w.1.2.^     Z $X$XR.S.S.S.S.S.c x x x x x k x x x x z h.b.b.b.z.F k k % . # @.=.2.0.0.q.4.4.4.3.=.=.=.",
"d.d.d.9.8.8.6.*.*.*.*.*.W     C $X$XR.S.S.S.V.V.G l l l z z z l z z z G J J g.h.z.d r r N M E 1.8.8.d.d.d.8.4.4.=.$.*.*.",
"d.d.d.r.8.8.6.*.*.*.*.@...^ ^ T p a U S.S.P f f g.z.l.l.h.z.h.l.h.z.z.J i i F h.l.: . # $.4.4.8.8.9.s.s.d.9.4.4.1.*.*.*.",
"d.d.f.w.8.8.1.&.*.&.@.*.*.*.*.E . . b S.S.b i i g.h.z.z.z.z.z.z.z.z.b.H s i H h.l.= . # =.4.4.9.8.9.d.d.s.9.4.4.1.*.*.*.",
"*.*.*.1.8.8.7.,.:.:.*.*.*.1.3.| .   g V.S.z i s k.z.z.z.z.z.z.z.h.z.h.G i i k z k O . 3 a.s.w.;.;.;.q.8.8.4.4.4.3.;.;.;.",
"*.*.&.7.8.4.8.,.,.:.*.&.&.1.4.|     i m.m.c i i g.z.z.z.z.z.z.z.b.h.b.G i i h x d O . 1 s.f.a.;.-.;.4.4.9.4.4.4.3.;.;.;.",
"*.*.*.4.8.9.q.,.,.,.-.*.*.1.4.`     i m.m.z s i g.z.z.z.z.z.z.z.z.z.z.G g s s i y 5 5 Q d.d.u.;.;.=.8.8.4.4.4.4.3.;.;.;.",
"&.*.&.$.%.+.=.s.u.u.3.1.1.1.=.%.) #.! e : i x h k.z.z.z.z.z.z.z.z.z.z.J x k O . 3 q.w.0.0.7.7.4.6.8.8.8.8.7.6.1.*.O.O.o.",
"*.*.*.o.` ` =.d.d.s.4.4.4.=.%.*.7.s.#.  . t k k k.z.z.z.z.z.z.z.z.z.b.H k h + X 2 a.d.6.&.*.=.4.4.4.9.8.8.7.;.;.*.` ` ` ",
"*.*.*.[ ` ` &.d.d.d.4.4.4.=.*.*.5.d.>.6 1 u y t d d d s i i i t t t e : = ; } ..,.d.f.6.&.*.=.4.4.4.8.8.4.:.;.;.*.` ` ` ",
"*.*.*.@.o.[ *.u.w.w.q.7.7.1.2.=.7.d.d.d.o.9 . X . . . . X . . . . . . . . # %.4.d.d.d.6.*.*.<.3.4.4.9.9.w.3.*.*.$.[ ` o.",
"*.*.&.*.&.*.*.*.*.*.;.0.,.7.4.4.9.d.d.d.&.T + # 2 2 2 7 7 7 n n n n w w w ( 4.4.d.d.f.6.@.@.2.4.8.9.d.d.d.;.o...@.&.&.&.",
"*.*.*.*.*.*.*.*.*.-.:.:.,.7.4.4.9.f.d.d.*.*.*.e.d.d.p.4.4.4.s.f.f.9.4.4.4.4.4.4.s.d.d.5.@.&.=.8.4.9.d.d.d.-.O.o.O.&.&.&.",
"*.=.*.*.*.*.*.*.*.*.:.:.,.7.4.4.9.d.d.d.*.*.*.w.i.s.w.4.3.3.s.s.s.9.3.3.4.4.4.4.d.i.s.5.&.@.*.8.8.8.s.s.s.2.O.O.@.&.&.&.",
"4.4.1.1.;.;.-.*.*.*.-.*.*.w.d.d.a.,.,.,.&.*.*.=.=.=.&.] ] [ ;.;.;.*.*.*.6.d.d.d.;.=.=.@. .] @.0.0.0.8.9.4.=.*.*.@.` ] ] ",
"4.4.4.3.;.;.-.*.*.*.*.*.*.u.d.d.a.,.,.,.*.*.*.*.*.&.+.` ` ] =.;.;.-.*.*.5.d.d.d.*.*.&.[ ` ` @.:.,.0.3.3.4.=.*.*.@.` ` ` ",
"4.4.3.6.;.;.*.*.&.*.*.*.*.u.d.f.a.,.,.,.*.*.*.*.*.*.@.] ` [ *.;.;.*.@.@.1.f.d.f.*.&.*.o.` ` @.,.6.0.4.4.4.=.*.*.@.` ] ` ",
"4.4.4.9.u.u.e.;.;.;.*.*.*.;.6.7.6.*.;.;.......$.*.*.&.;.*.*.7.6.7.3.6.1.2.-.*.-.@.O.@.` ` ` o.;.;.;.4.4.4.2.*.*.@.@.O.@.",
"4.4.4.r.d.d.u.,.,.:.*.*.*.&.*.*.*.*.*.*.` ` ` @.*.*.;.,.,.0.8.8.8.8.8.8.2.` `  .O...@.` ` ` o.*.&.*.1.4.1.2.&.*.*.*.*.*.",
"4.4.4.s.d.f.a.,.,.,.*.*.*.*.*.*.*.&.*.$.` ` ` +.*.&.;.,.,.0.8.8.8.8.8.8.2.` ` o.o.O.o.` ` ` o.&.*.*.4.3.4.=.*.*.*.*.*.*.",
"4.4.4.8.q.8.7.7.7.;.*.$.&.*.*.&.*.=.=.=.] ` ` %.2.=.5.q.0.0.8.8.3.3.4.8.1.*.=.*.@.O.O.+.%.{ %.;.;.;.8.9.9.;.&.*.*.;.-.;.",
"4.4.3.+.` ` %.4.4.4.=.*.*.*.*.*.=.4.4.4.` ` ` <.8.8.3.8.4.q.;.;.;.8.4.4.9.f.d.s.*.*.*.1.4.4.3.,.,.0.d.f.d.7.*.*.;.:.,.0.",
"4.4.3.%.` ` { 4.4.4.*.*.*.&.*.*.%.4.4.4.` ` ` 1.8.4.8.8.8.8.;.;.;.8.4.4.9.d.d.f.*.*.*.1.1.4.6.,.,.,.d.d.d.0.*.*.-.,.,.,.",
"4.4.4.{ ` ` { 4.4.4.%.*.*.*.*.*.=.4.4.4.` ` ` 2.8.9.8.8.8.8.;.;.;.1.4.4.8.f.f.s.&.*.&.4.4.4.4.0.,.,.d.d.d.7.*.*.-.,.,.,."
};
