/* XPM */
static char *_158_5aaad5e4ef8b53220a68ed7341798102be98e603f12bf3495978ebccbc611130[] = {
/* columns rows colors chars-per-pixel */
"60 60 194 2 ",
"   c #092723",
".  c #092823",
"X  c #0C2D28",
"o  c #072621",
"O  c #112F25",
"+  c #0C332C",
"@  c #113126",
"#  c #14352B",
"$  c #173929",
"%  c #1B3D2B",
"&  c #0D3A33",
"*  c #0D3733",
"=  c #193634",
"-  c #203F2D",
";  c #243E3B",
":  c #1D422D",
">  c #0F453D",
",  c #10483F",
"<  c #114238",
"1  c #22452D",
"2  c #254C2D",
"3  c #264A30",
"4  c #254631",
"5  c #2D5334",
"6  c #2E5438",
"7  c #2C5835",
"8  c #315635",
"9  c #345A34",
"0  c #355F3B",
"q  c #3B643A",
"w  c #3B653D",
"e  c #426B3E",
"r  c #45703F",
"t  c #46743B",
"y  c #114C42",
"u  c #12554A",
"i  c #13594E",
"p  c #115347",
"a  c #155D51",
"s  c #2D4642",
"d  c #374D4A",
"f  c #3D5350",
"g  c #375344",
"h  c #166356",
"j  c #166459",
"k  c #176B5C",
"l  c #196C5D",
"z  c #3F7043",
"x  c #186E61",
"c  c #1B7364",
"v  c #1A7866",
"b  c #1C7D6C",
"n  c #177260",
"m  c #247868",
"M  c #277F71",
"N  c #495D5B",
"B  c #405452",
"V  c #416541",
"C  c #457140",
"Z  c #4D7544",
"A  c #517C44",
"S  c #4D605E",
"D  c #586766",
"F  c #61716E",
"G  c #677674",
"H  c #717D7B",
"J  c #1B816D",
"K  c #1D8573",
"L  c #1F8B79",
"P  c #1E8B76",
"I  c #1F937D",
"U  c #258977",
"Y  c #208E7B",
"T  c #288D7C",
"R  c #288475",
"E  c #358778",
"W  c #20937E",
"Q  c #29907F",
"!  c #59824A",
"~  c #5E8D49",
"^  c #588745",
"/  c #5D9147",
"(  c #618F4C",
")  c #64934C",
"_  c #699A4D",
"`  c #678F53",
"'  c #6BA448",
"]  c #73AE4A",
"[  c #74A64F",
"{  c #75B04C",
"}  c #79B24E",
"|  c #7FB84F",
" . c #6EA251",
".. c #73A452",
"X. c #76AC51",
"o. c #79AC52",
"O. c #78A459",
"+. c #77B251",
"@. c #7CB454",
"#. c #7EB952",
"$. c #7FB558",
"%. c #74807E",
"&. c #81B657",
"*. c #81B954",
"=. c #81B759",
"-. c #83B95B",
";. c #89BE5D",
":. c #86BA60",
">. c #8BBC62",
",. c #8FBE6A",
"<. c #91BE6B",
"1. c #90BF61",
"2. c #89C256",
"3. c #8DC45C",
"4. c #87C057",
"5. c #91C65D",
"6. c #92CA5C",
"7. c #8EC262",
"8. c #8FC466",
"9. c #91C563",
"0. c #94CC61",
"q. c #99CE65",
"w. c #93C36B",
"e. c #96C96B",
"r. c #9ACC6D",
"t. c #99C56E",
"y. c #9CD06C",
"u. c #97C772",
"i. c #99C671",
"p. c #9CCD71",
"a. c #9FD173",
"s. c #A0D36E",
"d. c #A0CE74",
"f. c #A3D376",
"g. c #A5D579",
"h. c #A8D77B",
"j. c #1F9680",
"k. c #209680",
"l. c #2C9482",
"z. c #219A85",
"x. c #2C9986",
"c. c #239E89",
"v. c #2A9E8A",
"b. c #319D8A",
"n. c #3C9E8C",
"m. c #23A08A",
"M. c #2AA18C",
"N. c #3BA28F",
"B. c #2DA591",
"V. c #31A693",
"C. c #34A996",
"Z. c #36AB98",
"A. c #3BAA99",
"S. c #418F82",
"D. c #519D90",
"F. c #48988A",
"G. c #778180",
"H. c #41A696",
"J. c #41AC9A",
"K. c #58A497",
"L. c #5BA699",
"P. c #59A99C",
"I. c #61AB9E",
"U. c #64AEA2",
"Y. c #6BAFA3",
"T. c #78AFA7",
"R. c #66B1A4",
"E. c #6CB0A5",
"W. c #75B2A6",
"Q. c #76B4A9",
"!. c #7BB4AA",
"~. c #7EB0A7",
"^. c #878E8E",
"/. c #9A9E9D",
"(. c #9CA09F",
"). c #86AFA9",
"_. c #80AFA7",
"`. c #84B5AC",
"'. c #8CB4AD",
"]. c #93B4AE",
"[. c #96B6B1",
"{. c #9BB7B3",
"}. c #9CB8B4",
"|. c #97B8B1",
" X c #A6AAAA",
".X c #A3B6B4",
"XX c #ABB6B4",
"oX c #A4B8B6",
"OX c #ABB9B7",
"+X c #AFB9B8",
"@X c #B3B5B4",
"#X c #B2B9B9",
"$X c #BABABA",
"%X c #B8BAB7",
/* pixels */
"6.6.6.;.-.-.;.0.0.q.f.g.g.g.g.g.e.] ] ] g.g.g.t.<.<.>.-.-.;.0.0.0.*.] ] #.6.6.0.*.$.-.-.-.-.;.6.6.6.-.-.-.-.-.-.4.6.6.6.",
"6.6.6.;.-.-.;.0.0.0.f.g.g.g.g.g.e.{ ] ] g.g.g.t.<.<.>.-.-.:.6.0.0.*.] ] #.q.0.0.-.-.$.-.-.-.;.5.6.6.;.-.-.-.-.-.4.6.6.6.",
"6.6.6.;.-.-.4.0.0.q.f.g.g.g.g.g.e.] ] ] g.g.g.t.<.<.>.-.-.;.0.0.6.*.] ] #.0.0.0.$.-.$.*.-.-.4.6.6.6.-.-.-.-.-.-.2.6.6.6.",
"6.6.6.4.:.:.7.6.6.0.g.g.g.y.q.q.8.$.@.+.q.y.q.d.p.d.r.-.$.-.9.0.6.2.2.2.3.6.6.0.-.-.-.-.-.-.7.a.y.y.-.-.-.4.3.3.2.6.6.6.",
"6.6.6.5.>.>.>.6.6.6.f.g.g.q.6.6.3.*.-.-.0.0.0.f.g.g.p.-.-.;.0.0.0.6.6.6.6.6.6.6.-.-.-.-.-.$.8.g.g.a.-.-.-.3.6.6.6.6.6.6.",
"6.6.6.>.>.>.3.6.6.6.g.g.g.q.6.6.3.-.-.-.0.0.0.y.g.g.r.=.-.-.0.0.0.6.6.6.6.6.6.6.-.-.-.-.-.-.7.g.g.a.;.-.-.3.6.6.6.6.6.6.",
"6.6.6.9.>.>.>.3.3.5.r.p.r.r.q.q.0.>.>.>.7.3.7.e.p.p.e.;.:.:.7.9.9.5.3.5.6.2.3.3.4.4.;.4.7.4.9.a.a.y.3.;.;.2.6.6.5.3.5.3.",
"6.6.6.>.>.>.>.&.-.-.-.-.&.r.g.g.p.<.,.<.-.-.;.-.-.=.;.>.:.7.:.:.>.-.-.-.&.-.-.-.5.6.6.0.0.0.0.6.6.6.6.6.6.6.6.6.3.-.-.-.",
"6.6.6.;.>.>.:.&.-.-.-.-.-.p.g.g.p.<.<.<.$.:.-.$.-.=.-.:.>.>.>.>.>.:.-.-.-.-.-.*.6.6.6.0.0.6.0.6.6.6.6.6.6.6.6.6.3.-.-.-.",
"6.6.6.1.>.>.:.-.-.-.;.>.;.p.g.g.f.<.<.,.:.4.$.4.-.-.:.7.7.>.>.>.:.:.-.$.-.-.-.*.6.3.6.6.0.0.0.6.0.6.6.q.6.6.6.6.2.-.-.-.",
"{ ] ] &.-.-.-.-.-.-.p.f.f.f.g.g.p.<.,.w.:.$.-.9.0.0.5.5.6.3.-.-.-.+.] { #.3.6.6.-.-.-.;.-.-.w.f.g.g.h.g.g.q.6.6.3.-.-.-.",
"] ] ] @.-.-.-.-.-.>.f.g.g.g.g.g.f.<.,.w.:.4.$.6.0.0.0.6.6.6.:.-.-.+.] { #.6.6.6.-.-.-.-.-.-.7.g.g.g.g.h.h.6.6.6.3.-.-.-.",
"] ] ] &.&.-.-.-.-.>.f.g.g.g.g.g.a.<.<.u.$.-.-.8.0.0.0.6.6.6.-.-.-.} ' ' #.6.6.6.-.-.-.-.-.-.9.h.g.g.g.g.g.q.5.6.3.-.*.-.",
"2.2.;.>.>.>.-.+.@.@.9.w.w.e.q.q.w.-.:.-.5.5.3.6.7. .~ A Z r w 7 5 1 : : _ 6.6.6.-.-.-.w.p.r.e.>.1.1.u.i.i.9.9.>.3.3.5.5.",
"6.6.6.9.<.<.;.] ] X.:.>.>.3.6.6.3.=.=.=.6.6.6.6.) + . X . . o . .   . o t 6.6.6.-.-.-.r.g.g.p.&.=.-.<.<.<.,.>.>.3.6.6.6.",
"6.6.6.5.<.<.;.] ] ] >.;.>.5.6.6.3.=.=.=.6.6.6.6._ O . . . o . .   . o . e ) [ 6.-.-.-.r.g.g.p.&.=.&.,.<.<.>.>.>.:.6.6.6.",
"6.6.6.9.9.9.;.&.| *.3.>.1.3.3.5.;.&.&.$.3.3._ ~ q . . . . X = ; s f S D s o # X.*.-.-.w.p.r.w.-.$.:.8.8.7.8.7.7.3.3.3.3.",
"6.6.6.6.6.6.6.6.6.6.6.6.6.;.-.-.&.} @.+.-.$.: . . S /. X@X%X$X%X$X%X$X$XN o @ ^ ..$.-.-.-.-.&.-.:.$.$.:.$.3.0.0.7.-.-.-.",
"6.6.6.6.6.6.6.6.6.6.6.6.6.;.-.-.&.+.+.@.-.$.%   . F $X$X$X%X$X$X$X$X%X%XS X + + # ) $.-.&.-.-.-.$.:.4.$.-.9.0.0.3.-.-.-.",
"5.6.6.6.6.6.6.6.6.6.6.6.6.;.-.-.=.+.@./ C w @   . F $X#XOXOXoX}.[.{.oX.XF.L K + o w -.-.-.-.-.-.-.-.$.4.$.3.0.0.6.-.-.-.",
"g.f.g.q.6.6.q.g.g.f.>.>.>.;.&.-.-.-.-.w . . s (. X].Q.Q.Q.Q.Q.Q.W.`.{.{.H.m.I + . A >.p.f.g.y.q.0.0.0.6.6.6.0.0.0.0.6.q.",
"g.g.g.q.6.6.q.g.g.f.>.>.:.-.-.-.=.-.-.e . . f $X$X[.Q.Q.Q.Q.Q.Q.W.`.'.'.H.m.W X . ! >.p.g.g.f.0.0.0.6.6.6.0.0.0.6.0.0.0.",
"g.g.g.q.6.6.q.g.g.f.>.>.>.-.-.-...q 7 % . . f #X#X|.Q.Q.Q.Q.!.XXXX!.J.A.Z.Z.l.X . ! O.p.g.f.d.0.0.0.6.6.5.0.0.0.0.0.0.0.",
"q.q.0.3.*.*.3.q.q.q.5.5.6.3.3.5.) . . #  X@X#X[.|.'.Q.Q.Q.Q.`.%X%XW.V.V.Z.Z.l.+ * . o Z w.u.w.6.0.6.6.0.0.7.4.;.;.;.7.4.",
"6.6.6.*.@.@.*.6.6.6.6.6.6.3.6.6....   X $X$X+X{.[.`.Q.Q.!.!.`.XXXX`.Y.E.H.A.V.I z.&   3 >.>.7.6.6.6.0.0.0.4.:.$.-.-.-.-.",
"6.6.6.#.+.+.*.6.6.6.6.6.6.6.6.6.... . X $X$X+X`.`.[.OXOX[.'.].[.[.[.[.].J.Z.B.m.z.&   8 >.:.7.6.6.6.0.0.0.2.-.-.-.-.-.-.",
"6.6.5.2.4.*.2.6.6.6.3.3.2.6.6.6.o.    X $X$XOXQ.Q.|.$X%X[.[.[.].[.].'.'.N.x.x.M.b.*   0 >.1.>.3.3.3.8.8.9.8.8.8.>.-.-.-.",
"6.6.6.6.0.0.6.6.6.6.-.-.-.3...( t .     XX$X+X!.`.|.}.[.~.!.T.Y.Y.Y.Y.I.m k U Z.b.+   - e ` ,.-.$.4.$.4.$.r.g.h.r.-.-.-.",
"6.6.6.0.0.0.0.6.6.3.-.-.-.5.3   . d D G '.`.`.$X$X{.R.U.U.U.U.U.R.R.R.L.m k U Z.b.< < * o 1 >.-.-.-.-.-.-.p.g.g.p.=.-.-.",
"6.6.6.6.0.0.6.6.0.0.;.-.-.9.3 . . ^.$X$X!.Q.`.$X$X|.R.R.U.U.R.Y.Y.R.U.L.c k T Z.Z.c.m.a . % >.-.-.$.-.-.*.r.a.a.p.-.-.:.",
"$.-.-.5.6.6.q.h.f.a.;.-.-.9.3   . ^.$X$X!.Q.!.OXoX'.R.R.U.R.U.U.R.R.I.L.c l T Z.V.c.c.p . : +.-.-.-.-.-.-.:.w.,.1.6.5.6.",
"-.*.-.3.6.6.q.h.g.f.;.-.-.3.9 . . G.$X$X`.Q.!.[.[.~.R.U.U.R.R.R.R.R.R.K.c k m c l h i * . : +.-.-.-.-.-.-.:.>.>.;.6.6.6.",
"-.-.-.3.6.6.q.g.g.f.4.$.-.8.7 .   G.#X$X`.Q.!.'.).T.R.U.R.R.R.U.R.R.U.K.l k a i i i i + . 2 { -.-.-.-.=.-.-.>.>.;.6.6.6.",
"8.,.>.:.;.;.w.g.g.f.9.3.9.3.q . . %.$X$X|.].'.x.l.n.R.R.U.R.R.U.R.Y.R.K.c x h k j h h + . 0 4.-.-.-.:.>.;.7.9.5.5.>.1.;.",
",.<.w.:.-.-.7.g.g.a.6.6.6.4.q o   G $X$X}.[.'.k.I n.I.L.K.D.F.S.E E m m W Y W k.K k k + X w 7.-.-.-.>.>.>.5.6.6.5.>.>.>.",
"<.,.w.:.-.-.7.g.g.g.0.6.6.3.w o   H $X$X'.!.Y.v.v.l.m m l l l k k k k c k.W k.W J h h 0 t  .5.-.-.-.>.>.>.5.6.6.5.>.>.>.",
"i.i.u.7.;.4.8.p.p.r.5.3.3.;.r o . D $X$XP.Z.Z.Z.Z.l.x k j l k l c v b b n l Y W h . . 3.6.0.5.4.;.4.w.w.e.5.6.6.5.-.>.-.",
"g.g.g.y.0.0.7.-.$.-.-.-.-.-.! .   D $X%XP.V.V.x.U M b K P I I I j.j.W J i a W k.h . # 3.6.6.6.0.6.q.g.g.g.0.6.6.3.=.-.-.",
"g.g.g.y.0.0.7.;.-.-.-.$.$.-. .5 q g B s U Z.V.i a c j.j.I k.I I I I W J i a c v , . $ 3.6.6.6.0.0.q.f.f.f.q.6.6.3.-.-.-.",
"g.g.g.r.0.0.7.*.:.*.$.-.$.-.*.-.;.8     M Z.Z.i u x j.j.I k.W W z.W I J i i l k < . : 3.0.6.6.q.0.q.g.g.g.q.6.6.3.&.-.-.",
"-.-.-.7.6.q.e.<.w.,.-.-.-.3.6.6.3.5 . o m M.m.i u c k.k.W j.k.W W W W J i a u y z ~ ..r.g.g.y.>.:.>.q.0.0.6.6.6.5.>.>.>.",
"-.-.;.5.0.6.w.<.,.,.-.;.-.3.6.6.3.9 . . c c.m.i i x k.I L W I I W W W J l a . o ) -.-.r.g.g.p.>.:.7.0.0.0.6.6.6.5.>.>.>.",
"-.-.-.9.0.0.0.<.,.<.:.-.-.3.6.6.3.A o @ h J c h j v I W j.k.j.j.z.W W J l h $ 4  .-.-.r.g.g.p.>.>.>.0.6.0.6.6.6.5.>.>.>.",
"-.-.-.*.#.#.7.p.p.p.3.3.3.3.4.;.7.e.e.e.. . . l k b z.W L K b c k a , < X 5 2.3.q.p.u.w.7.w.9.6.7.6.q.0.0.5.7.7.;.@.+.+.",
"-.-.$.} ] ] *.g.g.f.0.6.6.2.-.-.9.f.g.g.7 % $ p y y > * # + . . . . o . o 9 6.6.h.g.g.8.-.-.;.6.6.6.0.0.0.9.>.>.-.] ] ] ",
"-.-.-.} ] ] ;.g.g.g.6.6.6.-.-.-.7.g.g.g.' _ t                 @ 1 7 e Z ( &.6.6.g.g.g.w.-.-.;.6.6.6.0.0.0.>.>.>.=.[ ] ] ",
"-.-.-.@.} X.-.p.r.p.0.9.9.3.;.4.w.g.g.g.} } ] 4 6 V Z ^ ) [ >.9.9.9.5.;.5.6.6.6.g.g.g.7.-.-.;.6.6.6.q.y.r.3.-.:.$.} } } ",
"-.-.-.-.-.-.-.-.-.-.>.,.w.9.6.6.q.g.g.g.-.*.-.t.g.h.s.6.6.6.g.g.g.q.6.6.6.6.6.6.g.g.g.7.$.&.3.0.0.q.g.g.h.:.+.@.@.=.=.$.",
"-.-.-.-.-.-.-.-.-.:.<.,.<.9.6.6.q.g.g.g.&.-.-.p.g.g.s.6.6.6.f.g.g.q.6.6.6.6.6.6.g.g.g.8.=.-.;.0.0.q.g.g.g.:.+.@.@.=.-.=.",
";.-.-.-.-.-.-.-.&.:.,.,.<.9.q.6.q.d.f.g.-.-.-.r.f.g.y.3.6.6.f.d.f.e.5.6.6.6.6.6.f.f.f.:.=.=.;.0.0.0.f.g.f.;.+.$.$.=.=.=.",
"6.6.3.3.>.>.:.-.-.-.:.-.;.r.g.f.d.<.<.w.-.-.-.-.-.:.-.{ { } >.1.>.-.-.-.8.f.g.f.-.;.;.$.] ] =.w.<.w.9.0.6.3.-.-.$.] { { ",
"6.6.6.3.>.>.:.-.-.-.-.-.-.p.g.g.d.<.<.<.-.-.-.-.-.*.$.] ] ] ;.>.>.:.-.-.7.g.g.h.-.-.-.+.] ] @.<.<.w.6.6.6.;.-.-.$.] ] ] ",
"6.6.6.7.>.>.:.-.-.-.-.-.-.p.g.g.d.,.<.<.:.-.-.-.-.-.$.{ ] ] :.:.7.-.$.$.7.g.g.h.-.-.-.} ] ] $.<.<.<.6.6.6.-.-.-.$.] { ] ",
"6.6.6.q.p.p.e.>.>.:.-.-.-.>.7.7.7.>.>.:.o.@.o.&.-.-.-.-.>.;.0.9.9.9.5.8.7.-.;.-.$.@.@.o.] ] +.>.>.-.6.6.6.;.-.-.$.$.@.$.",
"6.6.6.f.g.g.p.<.<.,.-.-.-.-.-.-.=.-.-.-.] ] ] $.-.-.>.,.<.<.0.0.0.0.0.0.4.] ] X.o.@.+.+.] ] +.-.-.-.6.6.6.;.*.-.-.-.-.-.",
"6.3.6.f.g.g.d.<.<.,.-.-.-.-.-.-.-.-.-.-.] ] ] @.-.=.>.<.<.w.9.0.0.0.0.0.4.] ] +.@.+.@.] ] ] +.-.-.-.3.6.6.3.-.-.-.=.-.-.",
"6.6.6.0.e.w.9.9.9.1.&.&.=.-.-.-.-.;.;.;.] ] ] *.3.;.7.w.w.w.9.0.5.6.0.0.6.#.-.$.$.$.$.#.| #.#.;.;.>.0.q.q.:.-.-.-.:.:.>.",
"6.6.6.| ] ] *.6.6.6.;.-.-.-.-.-.;.6.6.6.] ] ] 2.6.0.6.0.0.0.7.:.7.3.6.6.q.h.h.g.4.$.-.3.6.6.9.<.<.u.f.h.g.9.-.-.>.<.<.w.",
"6.6.6.| ] ] | 6.6.6.-.-.-.-.-.-.-.6.6.6.] ] ] 3.0.6.0.0.0.0.>.>.7.9.3.6.q.g.g.g.-.-.-.3.6.6.8.<.<.<.f.g.g.9.-.-.>.<.<.<.",
"6.6.6.| ] ] | 6.6.6.-.-.-.-.-.-.2.6.6.6.] ] ] 3.0.0.0.q.0.0.>.>.:.5.6.6.q.g.h.g.-.-.*.3.6.6.9.w.<.<.g.g.g.w.-.-.>.<.<.<."
};
