/* XPM */
static char *_2680_0cc24db242c9195ffbcad3b71dc1d28c4d21bc3033f5355b2bf160eef2edd081[] = {
/* columns rows colors chars-per-pixel */
"60 60 195 2 ",
"   c #06241F",
".  c #08231E",
"X  c #072521",
"o  c #082521",
"O  c #072A24",
"+  c #0B2A24",
"@  c #0C2D28",
"#  c #112D24",
"$  c #132F2B",
"%  c #0B342B",
"&  c #133225",
"*  c #13332A",
"=  c #19342F",
"-  c #1B3B29",
";  c #183A29",
":  c #0D3B33",
">  c #243B39",
",  c #293F3C",
"<  c #0E433A",
"1  c #10493E",
"2  c #1F4631",
"3  c #22442D",
"4  c #24492D",
"5  c #284935",
"6  c #2D5135",
"7  c #2B5639",
"8  c #345A36",
"9  c #395E36",
"0  c #335836",
"q  c #3B6335",
"w  c #3E653B",
"e  c #3A653B",
"r  c #436D3E",
"t  c #4B733F",
"y  c #0F4B41",
"u  c #104D43",
"i  c #115246",
"p  c #12564A",
"a  c #13594E",
"s  c #155E52",
"d  c #2D4340",
"f  c #344946",
"g  c #3F544F",
"h  c #3F5351",
"j  c #166154",
"k  c #16675A",
"l  c #1A6659",
"z  c #176D5D",
"x  c #196D5E",
"c  c #1A6256",
"v  c #20695D",
"b  c #1A7464",
"n  c #1B7B6A",
"m  c #1A7767",
"M  c #246E62",
"N  c #237C6C",
"B  c #277467",
"V  c #2D7F71",
"C  c #367E72",
"Z  c #425553",
"A  c #4D5D5C",
"S  c #515F5F",
"D  c #4A7641",
"F  c #4D7A42",
"G  c #517A41",
"H  c #52625F",
"J  c #576666",
"K  c #597974",
"L  c #626E6C",
"P  c #6E7877",
"I  c #56883F",
"U  c #1B826F",
"Y  c #1C8472",
"T  c #1E8A78",
"R  c #238272",
"E  c #228D7A",
"W  c #2B8C7B",
"Q  c #288877",
"!  c #2C917F",
"~  c #398175",
"^  c #568345",
"/  c #5C894A",
"(  c #598548",
")  c #5C9245",
"_  c #6B9E4E",
"`  c #669949",
"'  c #6C9E52",
"]  c #739F57",
"[  c #709D5A",
"{  c #628A4C",
"}  c #6BA547",
"|  c #73AE4A",
" . c #75B04C",
".. c #79B24E",
"X. c #7FB84F",
"o. c #72A453",
"O. c #76AC52",
"+. c #79AD56",
"@. c #79A45D",
"#. c #7BAA5A",
"$. c #77B351",
"%. c #7BB354",
"&. c #7EB952",
"*. c #7EB459",
"=. c #468B7F",
"-. c #77807F",
";. c #80AF5E",
":. c #81B657",
">. c #81B954",
",. c #81B759",
"<. c #83B95B",
"1. c #88BE5D",
"2. c #86BA60",
"3. c #8BBC62",
"4. c #8FBE6A",
"5. c #89B765",
"6. c #91BE6B",
"7. c #90BF61",
"8. c #8AC256",
"9. c #8DC45C",
"0. c #87C057",
"q. c #90C65D",
"w. c #92CA5C",
"e. c #8EC262",
"r. c #8FC466",
"t. c #91C563",
"y. c #94CC61",
"u. c #99CE65",
"i. c #93C36B",
"p. c #96C96B",
"a. c #9ACC6D",
"s. c #99C56E",
"d. c #9CD06C",
"f. c #97C772",
"g. c #99C671",
"h. c #9CCD71",
"j. c #9FD172",
"k. c #A0D36E",
"l. c #A0CE73",
"z. c #A3D476",
"x. c #A5D579",
"c. c #A8D77B",
"v. c #3D8F81",
"b. c #239480",
"n. c #2C9684",
"m. c #2E9987",
"M. c #2F9A89",
"N. c #349886",
"B. c #329B89",
"V. c #369788",
"C. c #4C978A",
"Z. c #439B8C",
"A. c #4A9688",
"S. c #53968A",
"D. c #55998D",
"F. c #599B8F",
"G. c #5A9E91",
"H. c #539D90",
"J. c #778180",
"K. c #639E93",
"L. c #6C9E95",
"P. c #7F9F99",
"I. c #5CA196",
"U. c #6EA79E",
"Y. c #6CA89E",
"T. c #66A499",
"R. c #73A197",
"E. c #73A39B",
"W. c #7CA19B",
"Q. c #74A89F",
"!. c #6FA7A0",
"~. c #6FA8A1",
"^. c #7CA7A1",
"/. c #77A9A1",
"(. c #7BA9A2",
"). c #878D8D",
"_. c #809F9A",
"`. c #899594",
"'. c #959A99",
"]. c #989C9D",
"[. c #85A29D",
"{. c #8CA39F",
"}. c #9CA19F",
"|. c #90A39F",
" X c #9B9FA0",
".X c #89A5A0",
"XX c #82AAA3",
"oX c #8DA9A5",
"OX c #87A7A2",
"+X c #92ABA7",
"@X c #9CABAA",
"#X c #98A7A5",
"$X c #A3A5A5",
"%X c #ACADAC",
"&X c #A4ACAB",
/* pixels */
"w.w.w.1.<.<.1.y.y.u.z.x.x.x.z.x.p.| | | x.x.z.s.6.6.3.<.<.<.y.y.y.&. .| X.y.y.y.*.<.*.<.<.<.0.w.w.w.<.<.<.<.<.<.0.w.w.w.",
"w.w.w.1.<.<.1.y.y.y.z.c.z.c.c.c.p.| | | x.c.x.s.4.6.3.<.<.1.y.y.y.>.| | &.y.y.y.<.*.>.<.<.<.1.w.w.w.<.<.<.<.<.<.0.w.w.w.",
"w.w.w.1.<.<.0.y.y.y.z.z.c.c.x.x.p.| | | x.x.x.a.6.6.3.<.<.1.y.y.y.&.| | &.w.y.y.<.>.<.<.<.<.<.w.w.q.<.<.<.<.<.<.0.w.w.w.",
"w.w.w.0.2.3.0.y.y.y.x.c.z.a.y.u.e.*.*.$.a.d.u.a.l.l.a.<.*.<.q.y.w.8.0.8.w.w.w.y.*.<.*.<.<.<.e.j.j.d.<.<.<.8.9.9.w.w.w.w.",
"w.w.w.q.3.5.e.w.w.y.z.z.x.u.w.w.9.<.<.<.y.y.u.z.z.c.a.<.<.2.y.y.y.w.w.w.w.w.w.w.<.<.<.<.<.*.r.c.x.x.2.<.<.8.w.w.w.w.w.w.",
"w.w.w.3.3.5.9.w.w.w.x.c.x.u.w.w.9.<.<.<.y.w.w.j.c.c.a.<.<.<.y.y.y.w.w.w.w.w.w.w.<.<.<.2.<.<.r.x.x.z.2.<.<.9.w.w.w.w.w.w.",
"w.w.w.t.3.1.3.9.9.q.a.a.a.u.u.u.y.3.2.3.t.e.q.p.p.h.i.3.1.2.e.y.t.q.9.9.8.w.9.9.0.1.1.0.0.e.r.d.d.d.8.0.<.w.w.w.q.8.9.9.",
"w.w.w.7.5.3.3.<.<.<.,.<.<.h.x.x.h.6.4.6.<.<.<.<.<.<.<.3.3.3.3.2.3.<.<.<.>.<.<.<.w.w.w.w.u.y.w.w.w.w.w.w.w.w.w.w.9.<.<.<.",
"w.w.w.1.3.3.1.,.,.<.<.<.<.g.x.c.h.6.6.6.<.<.<.*.<.*.<.3.3.3.3.3.3.2.<.<.<.<.<.>.q.w.w.w.y.w.y.w.w.w.w.w.w.w.w.w.9.<.<.<.",
"q.q.8.7.3.5.2.<.<.<.1.3.1.h.x.x.z.6.6.4.<.<.<.0.2.<.<.e.3.3.5.3.2.<.*.<.*.<.<.<.w.w.w.q.w.t.y.w.y.w.w.y.w.w.w.w.9.<.<.<.",
" .| ..>.<.<.<.<.<.<.l.z.z.x.x.x.l.6.4.i.2.<.<.r.y.y.y.w.q.9.2.<.2.$.|  .&.w.w.w.<.<.<.1.1.2.r.c.x.x.c.x.c.u.w.w.q.,.<.<.",
"| | | >.<.<.<.<.<.3.z.z.x.x.x.z.h.6.i.i.<.<.&.e.y.y.y.w.w.w.1.<.<.$.|  .>.w.w.w.<.<.<.<.<.<.e.c.x.x.c.x.x.w.w.w.9.,.<.<.",
"| | | :.,.<.<.<.<.3.z.x.x.x.x.x.l.6.6.i.*.0.2.e.y.y.y.w.w.w.<.*.O.` ) ) $.w.w.w.<.<.<.>.<.<.3.c.x.x.z.x.x.u.w.w.9.<.<.<.",
"8.8.1.1.5.3.<.%.$.%.t.i.i.p.u.u.p.<.2.2.9.9.9.w.y.<.' / F e 6 2 2 & O @ t w.w.w.<.<.<.p.h.a.a.3.4.7.g.g.g.t.t.3.9.9.q.9.",
"w.w.w.t.6.i.1.| | $.5.3.3.9.w.w.8.:.<.<.w.w.w.y.y.q O O O X   O   o o o q *.w.w.<.*.<.a.x.x.a.<.<.<.7.6.6.5.3.3.0.w.w.w.",
"w.w.w.t.6.6.<.| | | <.3.7.q.w.w.9.*.<.:.w.w.w.w.w.0 +   X X X   o o o   ; 3 ^ 9.<.<.<.h.x.x.a.>.:.<.6.6.6.4.3.5.e.w.w.w.",
"w.w.w.w.t.t.7.>.&.>.9.3.t.0.9.9.1.*.*.*.0.e.0.%.' 3 X X X + > f A L -.).J   * %.<.>.<.t.h.s.i.<.<.<.e.e.3.r.9.r.9.9.q.9.",
"w.w.q.w.q.w.w.w.w.w.w.w.w.1.<.<.:.%.$.$.<.<.( @ O @ J `.].%X%X%X%X%X%X%XJ + @ 4 t *.<.<.<.<.<.<.<.*.*.<.<.q.y.y.e.<.<.<.",
"w.w.w.w.q.w.w.w.w.w.w.w.w.1.<.<.:.$.%.$.<.<.G O X X P %X%X%X%X%X%X%X%X%XK j k O + _ <.<.<.<.<.<.<.<.<.<.<.r.y.y.9.<.<.<.",
"w.w.w.w.w.w.w.w.w.w.w.w.w.1.<.<.*.%.%.%.*.] D o X X J.%X&X@X+X+XOXQ.oXoXD.b.Y X + ' <.<.<.<.<.<.<.<.<.<.*.w.y.y.q.<.<.<.",
"x.x.x.u.w.w.u.x.x.l.3.3.3.<.<.<.<.<.<.*.O O X 5 P ).W.!.~.Y.Y.Y.E.Q.oXoXA.b.n   & +.1.h.x.x.k.y.y.y.y.w.w.w.y.y.y.y.w.u.",
"x.x.c.u.w.w.u.x.x.z.3.3.3.1.<.<.<.<.<.<.& +   g %X%X^.!.~.Q.Y.Q.E.Q.T.C.V.B.N . & ] 5.l.x.x.z.y.y.y.w.w.w.y.y.y.w.y.y.y.",
"x.c.z.a.w.w.u.z.c.z.4.3.3.<.<.<.<.<.*.' @   o g %X%XXXU.U.U.U.#X$X#XM.M.M.B.N . o & 6 6.x.x.j.y.y.y.w.q.r.y.y.y.y.y.y.y.",
"u.u.y.8.>.>.8.u.u.u.q.q.q.9.9.q.0.w @ O @ H P `.+X+X/.U.U.Y.Y.#X$X|.B.V.N.B.Q z x o . ] i.s.t.w.w.w.y.y.y.0.e.0.1.1.e.0.",
"w.w.w.&.%.%.>.w.w.w.w.w.w.w.w.w.9.9 o o = #X%X&XoX+X/.!.!./.L.'.{.{.W.W.Z.B.b.E n   . #.3.3.t.w.w.w.y.y.y.9.*.0.<.<.<.,.",
"w.w.w.&.$.$.>.w.w.w.w.w.w.w.w.w.9.r + o =  X%X&XXX(.oX@X@XOX[.OX[.{.[.[.Z.B.! E N . . +.3.3.e.w.w.w.y.y.y.0.2.*.,.<.<.<.",
"w.w.w.0.0.>.0.w.w.w.9.9.8.w.w.w.t.r o o $ ].%X@X/.~.+X%X$X_.[.P._.W.R.L.B l R N.N . . 6 / 5.3.q.9.9.9.q.e.r.r.r.3.<.<.<.",
"w.w.w.w.y.y.y.w.w.w.<.<.<.9.y.w.e.r o X $ ].%X@X~.!.oX|._.U.K.G.G.I.F.F.v c R n.N < u . # @.3.<.<.<.<.<.<.h.x.c.h.<.<.<.",
"w.w.w.w.y.y.y.w.q.w.<.<.<.9.q.o.^ 3 X X $ '.@X+X&X&XL.G.G.G.G.F.G.T.F.D.v s R n.n.T T   + @.e.<.<.<.<.<.&.h.x.x.a.<.<.<.",
"w.w.w.y.y.y.y.w.y.y.<.<.<.e.%.* + X Z `.$XQ.!.(.%X%XR.G.F.G.G.F.F.F.F.S.v j Q n.! T n   @ @.3.<.<.<.<.<.<.h.j.j.a.<.<.1.",
"<.1.0.9.y.w.u.z.x.j.1.<.<.y.<.* o o J %X%XQ.~.^.$X#XL.G.G.G.G.G.F.I.F.S.v s B b k p y   & } %.<.<.*.*.<.<.3.i.4.3.w.w.q.",
"<.<.<.8.w.w.u.z.x.j.2.<.<.9.<.3 o o Z %X%X^.Q.Q.OX{.L.G.G.G.G.G.F.I.G.S.l j i i i i < o - } $.<.<.<.<.<.<.2.3.2.9.w.w.q.",
"<.<.<.9.y.w.a.x.x.z.0.*.2.r.0.2 X o Z %X%X^.Y.Q._._.K.F.F.G.G.F.F.G.G.S.l j p p a a u . 4 } $.<.<.<.<.<.<.<.3.5.1.w.w.w.",
"3.3.4.3.0.1.t.c.x.z.q.q.e.9.*.6 o X Z %X%X^./.U.A.W A.F.G.G.G.F.G.D.A.C m U n U x j 1 . 9 >.8.<.<.<.2.3.3.9.q.q.t.7.t.1.",
"6.4.4.2.<.<.e.x.z.z.q.w.y.0.%.7 X o f %X%X+X+XW.R Y A.S.A.=.C B l c a c U Y T U j 1 7 O.y.y.t.<.<.<.3.3.3.q.q.w.q.1.3.3.",
"6.4.i.2.<.<.3.c.c.z.w.w.w.0.*.8 o X f %X%X@XOXL.R E V M c j j s j j j j b z U U <   r e.w.y.9.<.<.<.3.3.3.9.w.w.q.5.3.3.",
"g.g.f.e.0.0.r.h.a.p.9.9.9.<.<.8 o o d %X%XT.V.N.M.B.b s j j j z b n U m i p U U :   t 9.y.w.y.1.1.0.i.t.i.w.w.w.q.<.5.1.",
"x.x.x.a.y.y.9.<.<.<.<.<.*.<.<.w o o , &X%XD.B.n.n.W m b b U Y U U U U m i p x k @   G w.w.w.w.y.y.u.c.x.c.y.w.w.9.<.<.<.",
"x.x.x.d.y.w.r.<.<.<.<.*.<.<.<.D o o > $X'.S.m.W p i z U U T U U Y T U m i i a j O + ( 9.w.w.w.w.y.u.z.x.c.y.w.w.9.<.,.<.",
"x.x.x.d.y.p.w.<.<.<.*.<.*.<.<.$.9 w $ 5 * M m.W i i b U U T Y Y Y Y Y m i i i < / O.*.9.w.w.w.u.y.y.x.x.x.u.w.w.9.,.<.<.",
"<.<.,.w.y.y.t.6.i.4.<.<.<.9.w.w.9.o.& o   v m.W i i z U Y Y Y U Y R U b s i . . %.<.<.a.z.z.h.3.3.3.y.y.y.w.w.w.9.3.3.3.",
"<.<.<.t.y.y.u.6.4.4.<.<.<.9.w.w.9.o.& o   k E Y i i z U Y Y Y Y Y Y Y n s i - 8 <.<.<.h.x.x.h.3.3.3.w.y.y.w.w.w.q.3.3.3.",
"<.<.<.9.y.y.p.6.6.6.<.<.<.9.w.w.9.O.; X o j E U p p b U U Y Y U Y Y x a : 6 +.,.<.<.<.a.x.x.h.3.3.3.y.y.y.w.w.w.q.5.1.3.",
"<.<.<.:.>.&.0.h.l.h.9.9.9.8.8.1.e.h.[ 6 3 % : @ s j m U n m j u : o . . . 9 8.q.a.a.h.i.i.t.t.q.t.w.y.y.y.t.e.9.1.*.%.%.",
",.<.<.%.| | <.c.c.z.w.w.w.<.<.<.e.c.x.z.I + . O p i y : @ o   . . . 4 r / :.q.w.z.x.c.i.<.<.1.w.w.w.y.y.y.t.3.3.,.| | | ",
"<.<.<...| | <.c.z.c.w.w.w.1.<.<.t.x.x.c.| q q   O O X X . . ; 8 G ] ;.5.q.w.w.w.x.x.x.e.<.<.>.w.w.w.y.y.w.3.3.3.,.| | | ",
"<.<.<.&.O...<.h.a.h.p.w.t.9.0.0.t.x.x.x. ...%.9 . - 0 t ` :.4.t.t.t.1.7.q.q.w.w.z.x.c.e.<.<.8.y.w.w.u.a.d.t.<.<.*.......",
"<.<.<.<.<.<.<.<.<.<.3.4.6.p.w.w.u.x.c.c.<.<.<.s.5.s.l.w.w.w.z.x.x.u.q.w.w.w.w.w.c.x.c.e.:.<.1.y.y.u.x.x.c.1.$.%.*.*.<.*.",
"<.<.<.<.<.<.<.<.,.5.6.4.6.t.w.w.u.x.x.x.,.<.<.h.x.x.k.w.w.w.x.x.x.a.w.w.w.w.w.w.c.z.x.e.*.<.<.y.y.u.x.x.x.3.$.%.*.<.:.:.",
"<.<.<.<.<.<.<.<.,.2.i.3.i.t.w.y.u.x.x.x.,.<.<.a.z.x.a.w.q.q.z.l.z.p.w.w.w.w.w.w.z.j.z.3.*.*.1.y.y.y.z.x.z.0.%.%.*.>.<.*.",
"q.w.8.9.3.3.2.<.<.<.2.<.<.h.x.z.l.6.6.6.<.<.,.1.<.<.<. . ...1.7.3.1.<.<.e.x.z.z.1.1.1.%.$.O.*.i.i.i.y.y.y.8.<.<.*.|  . .",
"w.w.w.t.3.3.2.<.<.<.,.<.<.h.x.x.l.6.6.6.<.<.<.<.<.<.&.| |  .1.3.3.<.:.<.e.z.c.c.<.<.<...| | &.6.6.i.q.q.w.<.<.<.*.| |  .",
"w.w.w.9.3.3.<.<.<.<.<.<.<.h.x.c.l.6.6.6.<.<.<.<.<.<.*. .| | 1.3.3.<.&.&.e.x.x.x.<.<.<...| | *.6.4.i.w.w.w.1.<.<.*. . . .",
"w.w.w.p.h.h.p.3.3.3.<.,.<.3.e.e.3.3.3.1.+.+.+.:.<.<.<.<.3.<.t.r.t.y.r.e.e.<.2.2.%.%.%.+.| | %.2.2.3.w.w.w.8.<.<.*.*.$.*.",
"w.w.w.z.x.x.l.6.6.4.<.<.<.<.<.<.<.<.<.<.| | | &.<.<.3.4.6.6.y.y.y.y.y.y.0.| | $.+.%.%.| | | ..<.<.<.q.w.w.8.<.<.<.<.<.<.",
"q.w.w.z.x.c.l.6.6.4.<.<.<.<.<.<.<.<.<.<.| | | %.<.<.3.6.6.i.y.y.y.y.y.y.0.| | O.$.%.%.| | | $.<.<.<.9.w.w.<.<.<.<.<.<.<.",
"w.w.w.y.i.t.t.t.t.7.<.,.<.<.<.<.<.<.8.1.| | | <.0.0.t.i.i.i.q.y.r.w.w.y.w.<.<.&.*.*.&.&.X.&.>.3.3.3.y.u.y.0.<.<.<.3.3.2.",
"w.w.w.X.| | >.w.w.w.1.<.<.<.<.<.1.w.w.w.| | | 8.y.y.y.y.u.y.3.3.e.9.w.w.u.c.x.x.<.<.<.9.w.w.t.6.6.i.c.c.c.i.<.<.3.6.6.6.",
"w.w.w.X.| | X.w.w.w.<.<.<.<.<.,.<.w.w.w.| | | 9.y.y.p.w.w.y.e.3.3.q.w.w.u.z.x.c.<.<.<.9.w.w.r.6.6.6.z.x.x.e.<.<.5.6.6.6.",
"w.w.w.X.| | X.w.w.w.<.<.<.<.<.<.8.w.w.w. .| | 0.y.y.y.y.w.p.3.3.3.e.w.w.u.x.c.c.<.<.*.w.w.w.w.4.6.6.z.c.c.i.<.<.2.6.6.6."
};
