/* XPM */
static char *_0458_ea4bd552d50c912fbb719584d7d6669b49f1576264fcd0613536d2b1bd08779f[] = {
/* columns rows colors chars-per-pixel */
"60 60 190 2 ",
"   c #061F1B",
".  c #081E1B",
"X  c #07211E",
"o  c #08221E",
"O  c #0E2A1F",
"+  c #072420",
"@  c #092621",
"#  c #0A2A24",
"$  c #0A2F28",
"%  c #112B24",
"&  c #1A2F2D",
"*  c #132D2A",
"=  c #0E3127",
"-  c #0B332C",
";  c #0D382F",
":  c #133024",
">  c #113428",
",  c #1B322C",
"<  c #1B3B29",
"1  c #1D3F27",
"2  c #0C3C34",
"3  c #1E3432",
"4  c #253938",
"5  c #1A412F",
"6  c #0E473C",
"7  c #0F493C",
"8  c #10493E",
"9  c #10453D",
"0  c #284B2D",
"q  c #25422C",
"w  c #254D33",
"e  c #2A5336",
"r  c #2F5B38",
"t  c #345B34",
"y  c #345D38",
"u  c #315531",
"i  c #3A6338",
"p  c #436C3E",
"a  c #45733F",
"s  c #4A793B",
"d  c #0F4C41",
"f  c #114C43",
"g  c #135146",
"h  c #12564B",
"j  c #135A4E",
"k  c #1B594E",
"l  c #145D51",
"z  c #1C5E54",
"x  c #394A49",
"c  c #3D504E",
"v  c #156256",
"b  c #166659",
"n  c #176B5C",
"m  c #1C6B5D",
"M  c #1A6256",
"N  c #3E6840",
"B  c #23655B",
"V  c #176D60",
"C  c #197566",
"Z  c #1B7769",
"A  c #1A7D6B",
"S  c #226D61",
"D  c #2F6E65",
"F  c #227266",
"G  c #23776A",
"H  c #237B6C",
"J  c #2F7269",
"K  c #35756B",
"L  c #3A796E",
"P  c #3D756C",
"I  c #247F70",
"U  c #3E7C71",
"Y  c #505F5C",
"T  c #4B7441",
"R  c #527A41",
"E  c #547A49",
"W  c #50605D",
"Q  c #5C6766",
"!  c #546060",
"~  c #437F75",
"^  c #677271",
"/  c #737A7A",
"(  c #4F813C",
")  c #258474",
"_  c #298475",
"`  c #2B8778",
"'  c #2C897A",
"]  c #3A877A",
"[  c #5C8B49",
"{  c #5B8948",
"}  c #5C9244",
"|  c #608C4B",
" . c #689E49",
".. c #649648",
"X. c #6D9458",
"o. c #6FA24E",
"O. c #69A647",
"+. c #73AE4A",
"@. c #75B04C",
"#. c #79B24E",
"$. c #7FB84F",
"%. c #6EA152",
"&. c #72A352",
"*. c #76AB53",
"=. c #7AAF55",
"-. c #7AA659",
";. c #77B351",
":. c #7BB354",
">. c #7EB952",
",. c #7EB358",
"<. c #4E8B7F",
"1. c #438B7F",
"2. c #50857B",
"3. c #80AF5E",
"4. c #81B657",
"5. c #81B954",
"6. c #81B759",
"7. c #83B95B",
"8. c #88BE5D",
"9. c #8ABF57",
"0. c #87B761",
"q. c #86BA61",
"w. c #8BBC62",
"e. c #8FBE6A",
"r. c #91BE6B",
"t. c #90BF61",
"y. c #8AC256",
"u. c #8DC45C",
"i. c #8FC95A",
"p. c #87C057",
"a. c #91C65D",
"s. c #92CA5C",
"d. c #8EC262",
"f. c #8FC466",
"g. c #91C464",
"h. c #94CC61",
"j. c #99CE65",
"k. c #93C36B",
"l. c #99C66E",
"z. c #96C96B",
"x. c #9ACC6D",
"c. c #9CD06C",
"v. c #97C772",
"b. c #99C671",
"n. c #9CCD71",
"m. c #9FD173",
"M. c #A0D36E",
"N. c #A0CE74",
"B. c #A3D476",
"V. c #A5D579",
"C. c #A8D77B",
"Z. c #4E8C81",
"A. c #448C80",
"S. c #518D83",
"D. c #5B8D85",
"F. c #548780",
"G. c #5D9287",
"H. c #599187",
"J. c #6A8F89",
"K. c #7B8282",
"L. c #758E8A",
"P. c #7B8F8C",
"I. c #718785",
"U. c #64958C",
"Y. c #6A948C",
"T. c #65998F",
"R. c #689A8F",
"E. c #74918C",
"W. c #7A918E",
"Q. c #659A90",
"!. c #6B9B92",
"~. c #759691",
"^. c #7C9591",
"/. c #749A93",
"(. c #7C9C96",
"). c #7F9F98",
"_. c #828788",
"`. c #86908F",
"'. c #859593",
"]. c #849E9A",
"[. c #8B9D9B",
"{. c #8A9895",
"}. c #939594",
"|. c #939E9D",
" X c #9D9E9E",
".X c #979997",
"XX c #A09E9F",
"oX c #9DA09F",
"OX c #9F9FA1",
"+X c #A0A0A0",
/* pixels */
"s.s.s.8.7.7.8.h.h.j.B.B.V.V.V.V.z.+.+.+.V.V.V.l.r.r.w.7.7.8.s.h.h.5.@.+.$.h.h.h.7.7.4.7.6.7.8.s.s.i.8.7.7.7.7.7.u.s.s.s.",
"s.s.s.8.7.7.u.s.h.h.B.V.V.V.V.V.z.@.+.+.V.V.V.l.r.r.w.7.7.8.h.h.h.4.+.+.>.h.h.h.7.,.7.7.7.7.8.s.s.s.7.7.7.4.7.7.p.s.s.s.",
"s.s.s.8.7.6.8.h.h.j.B.V.V.V.V.V.z.@.+.+.V.V.B.l.r.r.w.7.7.7.h.h.s.>.+.+.>.s.h.h.,.7.>.7.7.7.8.s.s.a.7.7.7.7.7.7.p.s.s.s.",
"s.s.s.p.q.0.u.h.s.h.V.V.V.x.j.j.d.,.:.:.j.c.x.M.N.N.l.7.7.8.d.h.s.y.9.9.i.s.s.s.7.,.7.7.7.7.d.m.m.c.8.7.7.p.p.u.i.i.s.s.",
"s.s.s.g.q.w.w.s.s.s.B.V.V.j.s.s.u.>.7.7.h.h.z.M.V.V.x.7.7.7.h.h.h.s.s.s.s.s.s.s.7.7.7.7.,.7.f.V.C.B.q.6.7.u.s.s.s.s.s.i.",
"s.s.s.w.w.w.u.s.s.s.B.V.V.j.s.s.u.7.7.7.h.h.s.B.V.V.n.7.7.7.h.h.h.s.s.s.s.i.s.s.7.7.7.7.7.7.g.V.B.B.8.6.7.u.s.s.s.s.s.s.",
"s.s.s.t.w.w.w.u.a.a.x.x.x.x.j.j.z.q.q.q.a.g.u.z.x.n.z.q.7.w.d.h.a.g.u.a.i.i.u.u.p.u.8.u.u.u.f.c.m.c.u.u.8.s.s.s.s.u.u.i.",
"s.s.s.t.w.w.q.7.7.7.7.7.7.x.V.V.m.r.r.k.7.7.7.7.6.7.7.w.w.w.q.q.w.8.4.7.4.7.7.7.s.s.u.s.h.h.h.i.s.s.i.s.i.i.s.s.u.7.7.7.",
"s.s.s.t.w.w.0.7.7.7.7.7.7.n.V.V.n.r.r.r.7.7.7.7.7.7.7.w.w.w.w.w.w.q.7.7.7.6.7.7.s.s.s.s.h.s.s.s.s.s.s.s.s.s.s.s.u.6.7.7.",
"i.i.a.9.w.w.0.7.7.6.8.8.8.x.V.V.B.r.r.r.7.7.7.p.7.7.8.w.w.w.w.w.w.7.6.7.6.7.5.7.s.u.s.s.h.g.h.s.s.h.j.s.s.s.s.s.u.7.7.7.",
"@.@.#.4.7.7.7.7.7.q.N.N.B.V.V.V.N.r.e.k.q.7.7.u.z.h.h.s.s.u.8.7.7.;.@.+.:.i.i.s.7.8.7.8.7.8.f.V.B.V.V.V.B.j.s.s.u.6.7.7.",
"+.+.+.:.7.7.7.7.7.q.B.V.V.V.V.V.N.r.e.k.7.7.7.d.h.s.h.s.s.i.q.7.7.@.+.@.5.s.s.s.7.7.7.7.7.7.f.V.C.V.V.V.V.j.s.s.u.7.7.7.",
"@.+.+.4.6.7.7.7.7.w.B.V.V.V.V.V.N.r.r.v.7.>.7.d.h.h.h.u.s.s.7.6.:. .[ O.:.s.s.s.7.7.7.7.7.7.t.V.B.V.V.V.C.z.s.s.u.7.7.7.",
"y.y.9.8.w.w.7.;.;.:.k.k.k.z.j.j.g.8.7.0.u.i.u.s.h.h.h.0.&.{ N e 5 $ # < *.s.s.s.7.6.7.k.n.x.l.f.t.t.b.b.b.g.t.t.u.u.u.u.",
"i.s.s.g.r.r.q.+.+.@.q.w.8.a.s.s.y.7.,.7.s.s.h.s.h.[ 5 $ # @ + + X X o @ | y.s.s.7.7.7.x.V.V.x.7.7.7.r.r.r.w.w.w.d.s.s.s.",
"s.s.s.g.r.r.8.+.@.@.0.8.w.a.s.s.u.,.7.4.s.s.s.h.d.T @ + + X X X X X o % : i 9.s.7.7.7.x.V.V.x.4.6.7.w.r.r.w.w.w.u.u.s.s.",
"s.s.s.s.g.g.a.5.$.5.8.d.t.u.u.u.p.,.,.4.u.u.u.s.h.a @ + o X + 4 c Q 2._.& % +.9.7.7.7.k.x.x.k.7.,.7.q.e.d.d.d.f.d.u.a.u.",
"s.s.s.s.s.s.a.s.s.s.s.s.s.8.7.7.7.;.;.:.7.7.7.a e > $ c Q K..X XoXoXXXXX& O # 0 =.7.4.7.7.7.7.7.7.7.7.7.,.d.h.h.g.7.6.7.",
"s.s.s.s.a.s.s.s.s.s.s.s.s.8.7.7.6.:.;.:.7.7.7.> # o , }. X X X XoXoX|.{.D n # X &.6.4.7.7.7.7.7.7.7.7.7.7.d.h.h.u.7.7.7.",
"s.s.s.s.i.s.s.s.s.s.s.s.s.8.7.7.4.;.:.;.7.7.7.= @ X & }.OX X|.].(./.^.~.I F # o =.6.6.6.7.6.7.7.7.7.7.p.7.i.h.h.u.7.7.7.",
"V.V.B.j.s.s.j.C.V.B.w.q.q.7.7.7.7.7.7.7.O.a r # * 4 W ~.!.Q.Q.Q.U.Y.E.Y.) C @ X q.w.w.n.C.C.B.h.h.h.h.i.s.s.h.h.h.h.s.h.",
"V.V.V.j.s.s.j.V.V.B.t.q.d.q.7.7.7.7.7.7.s # @ + W  XOX!.Q.Q.Q.T.Y.Y.A.] ` G X o p -.w.n.V.C.B.h.h.h.s.s.s.h.h.h.s.h.h.h.",
"V.V.V.x.s.s.j.V.B.B.r.w.w.7.7.7.7.7.7.q.( $ + X ! OXOXT.Q.Q.U.^.}.E.` ' _ G # 2 . 1 3.n.B.V.n.h.h.h.i.s.i.s.h.h.h.h.h.h.",
"j.x.h.9.5.4.p.j.j.j.a.a.u.u.u.i.p.7.&.[ r # # 3 ^ |.].!.Q.U.U.^.}.E.] 1.` _ A C . , 4.t.v.k.g.s.s.h.h.h.h.d.8.8.u.q.u.u.",
"s.s.s.5.:.:.>.s.s.s.s.s.s.s.s.s.d.7.e # @ @ ^ .X|.).).Q.Q.U.U.W.W.W.L.J._ ) A n . 1 4.q.w.w.g.s.s.s.h.h.h.p.7.7.7.7.7.5.",
"s.s.s.>.;.#.5.s.s.s.s.s.s.s.s.s.u.7.5 # X o K.XX|.].).(.'.^.W.P.W.P.P.J.) G ) S . % | 7.w.q.t.s.s.s.h.h.h.u.7.7.7.7.7.7.",
"s.i.s.u.p.5.y.s.s.s.u.u.i.i.s.s.d.8.w # X X / +X].!.!. X.X`.W.L.J.J.D.1.g m _ S @ $ . R w.w.w.u.i.u.d.u.d.f.f.f.w.7.7.7.",
"s.s.s.s.h.h.s.s.s.u.8.7.7.u.h.h.u.7.y # o X /  X].Q.!.|.`.J.D.S.S.S.<.U j m ` I C j . E r.r.e.7.7.7.7.7.7.x.V.C.n.6.7.7.",
"s.s.s.h.h.h.h.i.s.u.u.7.8.u.h.h.i.,.i # X   / XX[./.].G.S.Z.S.S.S.S.<.U j m ' ) A h X E r.r.w.7.7.7.7.7.7.x.V.V.x.7.7.7.",
"i.s.s.s.h.h.s.s.h.h.7.,.7.d.h.h.%.T ; # & x I.!.(.XX{.S.S.<.S.S.S.S.Z.L h B I n j ; X | e.r.w.7.7.7.7.7.7.z.m.B.x.7.7.8.",
"8.7.7.u.s.s.j.C.m.m.u.7.7.d.h.s.w # @ 3 .X X/.R.(..X`.H.S.S.Z.S.S.S.Z.L h g 7 6 7 = . [ +.@.;.7.7.6.7.7.7.w.f.e.w.s.a.a.",
"7.7.8.y.s.s.j.C.V.m.q.7.7.u.h.s.w @ X 3 XX X(.R./.^.E.S.S.Z.S.<.S.S.S.K h g 7 7 d # . ..+.+.;.6.7.7.7.7.7.q.w.q.t.s.s.s.",
"7.7.7.u.s.s.x.V.V.B.d.,.7.d.h.h.w # + * OXOX).T.Y.^.L.S.S.Z.S.S.S.S.S.K l v n v h # %  .+.+.;.7.7.7.7.7.7.8.w.w.8.s.a.s.",
"w.w.w.d.8.9.g.V.V.B.u.u.u.u.d.p.w + X * OXOX(.U.U.D.U S.S.S.S.S.Z.K B m Z Z Z v 8 T &.8.9.p.9.7.7.8.q.q.q.u.g.a.t.t.g.8.",
"e.r.e.q.7.7.d.V.V.B.s.s.i.d.,.7.w #   *  X X].~.F.Z H A.Z.~ D z h h g b n C Z 2 @ &.7.g.h.h.d.7.7.7.w.q.w.a.s.s.a.w.w.q.",
"r.e.k.q.7.7.f.V.V.B.h.s.i.p.q.>.w @ X +  XOX[.'.2.Z Z K M h h h h l v l f b C 2 O *.7.u.h.h.a.7.7.7.q.q.w.a.s.s.a.w.w.w.",
"b.b.v.f.d.8.f.m.n.c.h.u.u.u.,.7.e # X X  X X[.D.] _ _ l h h l v V C C l 7 v b - % *.7.u.s.h.u.u.p.u.k.k.k.s.s.s.a.7.7.8.",
"C.C.m.c.h.h.u.7.,.7.,.>.,.7.7.7.r # X X OX XG.' ` ' H z n V Z Z Z Z C j 6 g h $ 0 ,.7.u.s.s.s.h.h.j.V.V.V.j.i.s.a.6.7.7.",
"C.V.V.c.h.s.d.7.7.7.,.7.,.q.7.7.y + o o .X.XG.' I z g C Z C Z C C C C j d d d [ ,.7.7.i.s.s.s.h.s.j.B.V.V.j.s.s.u.7.7.7.",
"B.C.m.x.h.h.d.7.7.7.7.7.,.,.p.7.T # o o _.^ P ` F f f C Z C C C C Z C j g # @  .7.7.7.u.s.s.h.h.j.h.V.V.V.j.s.s.u.7.6.7.",
"7.7.7.d.s.j.g.r.k.f.7.7.7.u.s.s.p.p y % o o k ` C d 7 C C C C Z C C C v g < t =.7.7.7.x.V.V.x.8.w.w.z.h.h.s.s.s.a.w.w.w.",
"8.7.7.h.j.s.z.r.e.e.7.7.7.u.s.s.u.6.&.> o @ g ) n 7 g V Z C Z C C C V h ; &.6.6.7.7.7.n.V.V.n.w.w.w.s.s.h.s.s.s.a.w.w.w.",
"7.7.7.u.h.h.g.r.e.r.q.7.7.u.s.i.u.4.&.> X X d A n f g C C C Z C n g - o   =.6.7.7.7.7.x.V.V.n.w.w.w.h.h.h.s.s.s.a.w.w.w.",
"7.7.7.4.>.>.u.m.N.n.d.u.u.u.p.p.d.n.r.w @ X 6 l 8 g j C C v f # X X @ q R u.p.u.x.x.x.k.g.g.g.g.h.s.h.h.h.a.d.d.8.:.;.;.",
"6.7.7.@.+.+.7.V.V.B.s.s.s.p.7.7.f.V.V.e.i % @ . - h f d $ o . . 5 s -.0.t.a.s.s.V.V.V.k.6.7.8.s.s.s.h.h.h.r.w.0.7.+.+.+.",
"7.7.7.#.+.+.7.B.V.V.s.s.s.p.7.7.g.V.V.V.@.s % + # - + . . o u [ +.8.w.w.a.s.s.s.V.V.C.g.7.7.9.s.s.s.h.h.s.t.w.w.7.+.+.+.",
"4.7.7.,.#.=.7.n.x.n.h.g.g.u.8.8.h.V.V.V.#.#.o.s O . % t | 7.t.g.g.w.t.t.a.s.s.s.V.V.V.f.7.7.8.s.s.s.j.c.c.d.8.7.:.@.+.=.",
"7.7.7.7.7.7.7.7.7.7.e.e.k.g.s.s.j.V.V.V.7.7.7.l.X.X.k.s.s.s.V.V.V.j.s.u.a.s.s.s.V.V.V.d.,.7.p.h.h.h.V.V.V.w.;.:.,.6.6.4.",
"7.7.7.7.7.7.7.7.6.0.e.e.r.h.s.s.j.V.V.V.7.7.7.b.V.V.M.s.s.s.B.V.V.c.s.s.s.s.s.s.V.V.V.d.6.6.9.h.h.j.V.V.V.w.:.;.,.4.7.7.",
"7.8.7.7.7.7.7.7.7.0.e.e.r.g.s.s.j.V.V.V.7.6.7.x.B.B.x.s.i.a.B.B.B.z.s.i.s.s.s.s.N.B.B.d.6.,.7.h.h.h.B.V.B.8.:.:.,.7.4.4.",
"s.s.i.u.w.w.q.7.7.7.7.7.7.x.V.V.N.r.r.k.6.7.7.8.8.7.7.#.#.#.w.w.w.8.7.7.d.V.V.V.8.q.8.:.*.@.,.k.k.k.z.s.s.p.7.7.:.+.@.@.",
"s.i.s.d.w.w.7.7.7.7.7.7.7.n.V.V.N.r.r.r.7.7.7.7.7.6.4.+.+.+.8.w.w.7.6.7.d.V.V.V.7.7.7.#.+.+.:.k.r.e.s.s.s.8.7.7.,.@.+.+.",
"s.s.s.d.w.w.q.7.7.7.7.7.7.n.V.V.N.r.r.r.7.7.7.7.7.7.4.+.+.#.q.q.q.u.7.,.d.V.V.C.7.7.7.#.+.+.4.r.r.k.s.s.s.8.7.7.,.+.@.@.",
"s.s.s.x.n.n.l.w.w.w.7.7.7.w.g.f.t.q.q.8.=.=.=.4.7.7.7.7.7.8.g.g.h.d.u.d.u.7.7.q.:.4.4.*.+.+.;.q.q.q.s.s.s.p.7.7.6.6.,.,.",
"i.s.s.c.V.V.n.r.r.e.7.7.7.6.7.7.7.7.7.7.+.+.+.:.7.7.q.r.r.r.h.h.h.h.h.h.p.+.+.;.;.;.=.+.+.+.;.7.7.7.s.s.i.8.7.7.7.7.7.7.",
"s.s.s.B.V.C.N.r.r.r.7.7.7.7.7.7.7.7.7.7.+.+.+.:.7.7.w.r.r.k.h.h.h.h.h.i.u.@.+.*.=.:.;.#.+.+.;.7.7.7.u.s.s.9.7.7.7.6.6.7.",
"s.s.s.j.k.z.g.a.k.t.4.7.7.6.7.7.7.9.8.8.+.+.+.4.u.u.d.f.k.k.d.h.d.s.s.h.i.7.7.7.>.:.,.>.$.:.5.q.w.q.j.j.j.8.7.7.7.w.q.w.",
"i.s.s.$.+.+.5.s.s.s.8.7.7.7.7.7.8.s.s.s.+.+.+.y.s.h.h.h.h.h.w.w.w.d.s.s.j.V.C.B.7.7.7.i.s.s.h.r.r.v.B.V.V.k.7.6.w.r.r.r.",
"s.s.s.$.+.+.$.s.s.s.7.7.6.7.7.7.8.s.s.s.@.+.+.u.h.h.h.h.h.h.w.w.w.u.i.s.j.C.V.V.7.7.7.u.s.s.d.r.r.l.B.V.V.g.6.7.q.e.k.r.",
"s.s.s.$.+.+.$.s.s.s.5.7.7.7.7.7.8.s.s.s.+.+.+.p.h.h.h.h.h.h.w.w.w.h.s.s.j.C.C.V.7.7.7.u.s.s.s.e.r.r.V.V.V.k.7.6.q.r.r.r."
};
