/* XPM */
static char *_9587_a023de19b6c2048efa691fe91b57f3e762e7fffc44da878698ccdc750c62bab0[] = {
/* columns rows colors chars-per-pixel */
"60 60 181 2 ",
"   c #061E1B",
".  c #081E1B",
"X  c #07211D",
"o  c #09231E",
"O  c #122B1F",
"+  c #072521",
"@  c #0A2521",
"#  c #072B26",
"$  c #092A25",
"%  c #0A2F28",
"&  c #132B22",
"*  c #1A2F2D",
"=  c #152A28",
"-  c #0C332A",
";  c #163222",
":  c #1A3524",
">  c #12352B",
",  c #1C302E",
"<  c #153A2C",
"1  c #1A3E2E",
"2  c #0D3631",
"3  c #0D3B33",
"4  c #1F3331",
"5  c #223633",
"6  c #273C39",
"7  c #1B412E",
"8  c #0F4339",
"9  c #0F483F",
"0  c #1F4530",
"q  c #11453C",
"w  c #12493D",
"e  c #24442C",
"r  c #2E4B2D",
"t  c #2D512D",
"y  c #30522D",
"u  c #264732",
"i  c #314E30",
"p  c #265639",
"a  c #355A33",
"s  c #345C3C",
"d  c #3A5F36",
"f  c #3E673B",
"g  c #436739",
"h  c #456B3A",
"j  c #417039",
"k  c #4C753D",
"l  c #557D3E",
"z  c #114E43",
"x  c #115145",
"c  c #13564A",
"v  c #13594C",
"b  c #1A584D",
"n  c #155D51",
"m  c #3C4D4C",
"M  c #156355",
"N  c #1D6356",
"B  c #166558",
"V  c #176D5E",
"C  c #196C5D",
"Z  c #1C6659",
"A  c #19705F",
"S  c #386440",
"D  c #25665A",
"F  c #176D60",
"G  c #196F62",
"H  c #1B7364",
"J  c #226D61",
"K  c #2F6B61",
"L  c #316D63",
"P  c #257C6D",
"I  c #287D6D",
"U  c #217365",
"Y  c #307769",
"T  c #3B746A",
"R  c #3F786F",
"E  c #367266",
"W  c #277D71",
"Q  c #44524E",
"!  c #495553",
"~  c #535D5C",
"^  c #4F7546",
"/  c #517A41",
"(  c #527C4B",
")  c #527441",
"_  c #417B6F",
"`  c #477C73",
"'  c #696F6F",
"]  c #7B7E7D",
"[  c #2A8071",
"{  c #338274",
"}  c #368378",
"|  c #5F874B",
" . c #58884A",
".. c #578744",
"X. c #5F904C",
"o. c #5F9849",
"O. c #628F4D",
"+. c #608648",
"@. c #649D46",
"#. c #62934B",
"$. c #6B9D4D",
"%. c #66994C",
"&. c #638A51",
"*. c #6C9F51",
"=. c #619250",
"-. c #6EAA4A",
";. c #73AE4A",
":. c #75B04C",
">. c #79B24E",
",. c #7FB84F",
"<. c #6DA051",
"1. c #71A452",
"2. c #76AC52",
"3. c #7AA859",
"4. c #77B251",
"5. c #7CB354",
"6. c #7EB952",
"7. c #7FB558",
"8. c #4A8176",
"9. c #4B8279",
"0. c #478175",
"q. c #54817A",
"w. c #5A857E",
"e. c #5B897F",
"r. c #63847F",
"t. c #78817E",
"y. c #7CA561",
"u. c #81B657",
"i. c #81BA54",
"p. c #81B759",
"a. c #83B95B",
"s. c #88BE5D",
"d. c #84B360",
"f. c #86BA60",
"g. c #8BBC62",
"h. c #8FBE6A",
"j. c #88B469",
"k. c #90BF61",
"l. c #91BE6B",
"z. c #87C057",
"x. c #89C256",
"c. c #8DC45C",
"v. c #90C65D",
"b. c #92CA5C",
"n. c #8EC262",
"m. c #8FC861",
"M. c #8EC06B",
"N. c #91C564",
"B. c #94CC61",
"V. c #99CE65",
"C. c #93C36B",
"Z. c #96C96B",
"A. c #9ACC6D",
"S. c #99C56E",
"D. c #9CD06C",
"F. c #97C772",
"G. c #99C671",
"H. c #9CCD71",
"J. c #9FD173",
"K. c #A0D26F",
"L. c #A0CE74",
"P. c #A3D476",
"I. c #A5D579",
"U. c #A8D77B",
"Y. c #7B7F80",
"T. c #5B8781",
"R. c #5C8A83",
"E. c #648680",
"W. c #6C8481",
"Q. c #648C85",
"!. c #6C8A85",
"~. c #718683",
"^. c #7C8484",
"/. c #728986",
"(. c #758C89",
"). c #7B8C8A",
"_. c #858C8B",
"`. c #8C8E8D",
"'. c #868686",
"]. c #908E8F",
"[. c #8B8F90",
/* pixels */
"b.b.b.s.a.a.s.B.B.V.P.I.I.I.I.I.Z.;.-.;.I.I.I.S.l.l.g.a.a.s.b.B.B.i.;.;.6.b.B.B.a.7.i.a.a.a.s.b.b.v.a.a.a.a.a.a.z.b.b.b.",
"b.b.b.s.a.a.s.B.B.B.P.I.I.I.I.I.Z.:.;.;.I.I.I.S.k.l.g.a.a.f.B.B.B.i.;.;.6.B.B.B.a.7.a.a.a.a.s.b.b.v.a.a.a.a.a.a.z.b.b.b.",
"b.b.b.s.a.a.z.B.B.V.P.I.I.I.I.I.Z.;.:.;.I.I.I.S.l.l.h.a.a.a.B.B.b.i.;.;.i.B.B.B.a.7.7.a.a.a.a.b.b.b.a.a.a.a.a.a.x.b.b.b.",
"b.b.b.z.f.f.n.b.b.B.P.I.I.D.V.V.m.7.5.5.D.A.V.A.L.L.Z.a.a.f.v.B.b.x.x.x.v.b.b.b.a.7.a.a.a.a.m.J.D.D.s.a.a.z.c.c.x.b.b.b.",
"b.b.b.n.g.g.g.b.b.b.I.I.I.V.b.b.c.7.a.a.B.B.V.P.I.I.A.a.a.a.B.B.B.b.b.b.b.b.b.b.a.a.a.a.a.7.n.U.I.P.s.p.a.x.b.b.b.b.b.b.",
"b.b.b.n.g.g.c.b.b.b.I.I.I.V.b.b.c.a.a.a.B.B.b.P.I.I.H.a.a.a.B.B.B.b.b.b.b.b.b.b.a.a.a.f.a.a.n.I.U.P.a.a.a.c.b.b.b.b.b.b.",
"b.b.b.k.s.g.g.c.c.v.A.H.A.V.V.V.B.g.g.g.c.m.c.Z.A.H.C.s.f.f.m.m.v.N.c.v.b.x.c.c.z.z.z.z.z.n.m.J.J.D.z.n.z.v.b.b.b.c.c.c.",
"b.b.v.k.g.g.g.a.a.a.a.a.a.H.I.I.H.l.h.l.a.a.a.a.p.a.a.g.g.g.g.g.g.a.a.a.i.a.a.a.v.b.B.b.B.B.B.b.b.v.b.b.b.b.b.b.c.a.a.a.",
"b.b.v.c.g.g.f.a.a.a.a.a.a.G.I.I.H.l.l.l.a.a.a.a.a.a.a.g.g.g.g.g.g.a.a.a.a.a.i.i.b.b.b.b.B.B.b.b.b.b.b.b.b.b.b.b.c.a.a.a.",
"v.b.v.s.g.g.f.a.a.a.s.a.s.A.I.I.P.l.l.l.a.a.a.a.a.a.s.g.g.g.g.g.g.a.p.p.p.a.a.s.v.v.b.b.v.B.B.B.b.b.b.V.b.b.b.b.c.a.a.a.",
":.;.:.i.a.a.a.a.a.a.L.L.P.I.I.I.L.l.l.C.a.a.a.c.V.B.m.v.b.v.a.a.a.5.;.:.i.v.b.x.a.a.s.a.a.f.N.U.I.I.I.I.P.V.b.b.c.a.a.a.",
";.;.;.u.a.a.a.a.a.g.P.U.I.I.I.I.L.l.h.C.a.a.a.m.B.B.B.b.b.b.a.a.a.4.;.;.i.v.b.b.a.a.a.a.a.a.n.I.U.I.I.I.I.V.b.b.c.a.a.a.",
";.;.;.u.a.a.a.a.a.g.P.I.I.I.I.I.L.l.l.F.7.a.a.m.B.B.b.b.b.b.a.a.4.o...@.,.b.b.b.a.a.a.a.a.a.N.I.I.I.I.I.I.V.b.b.c.a.a.a.",
"x.x.x.g.g.g.a.4.4.5.C.C.C.Z.V.V.N.s.f.a.v.v.c.b.B.B.B.C.n.3.( s 0 # # % $.b.b.b.a.a.a.B.G.A.A.g.N.k.G.G.G.N.g.k.c.c.c.c.",
"b.b.b.k.l.l.g.;.;.;.g.g.s.v.v.b.z.p.p.p.b.b.b.B.B.B.X.s < # # o X   . . l z.v.b.a.a.a.H.I.I.A.p.p.a.g.l.l.h.f.g.s.b.b.b.",
"b.b.b.v.l.l.a.;.;.>.f.f.k.v.b.b.c.p.p.p.b.b.b.b.B.B.7 % o X X X       & % a c.B.p.a.a.A.I.P.H.p.p.a.l.l.l.g.g.g.c.b.b.b.",
"b.b.b.N.k.v.k.i.,.i.c.n.g.c.c.c.z.u.u.u.c.n.c.m.B.b.1 $ X X X X * m ' ] , ; 4.x.a.a.u.C.G.A.N.a.7.f.n.g.g.g.m.m.c.c.c.v.",
"b.b.b.b.b.b.b.b.v.b.b.b.b.s.a.a.p.4.4.5.a.a.a.v.z.<.> # = 6 ~ Y.`.].`.`.4 % + a p.a.u.a.a.a.a.a.a.7.a.a.a.m.B.B.N.a.a.a.",
"v.b.b.b.b.b.b.b.b.b.b.b.b.s.a.a.7.5.5.5.a.a.a.a.0 % # o t.].`.].`.]._._.D M . y p.p.u.a.a.a.a.a.a.a.a.a.a.m.B.B.c.a.a.a.",
"b.b.b.b.b.b.b.b.b.b.b.b.b.s.a.a.7.4.5.5.a.a.a.7.< #   X _.].`.[.).!./.!.P M . y p.p.p.a.a.a.a.s.a.a.a.a.a.c.B.B.c.a.a.a.",
"I.I.I.V.b.b.V.I.I.P.g.g.g.a.a.a.a.a.7.a.;.;.:.3.> $ X @ '.(.Q.R.R.e./.!.I n . g g.g.g.H.I.I.D.B.B.B.m.b.B.b.B.B.B.b.B.B.",
"I.I.I.V.b.b.D.I.I.P.g.g.n.a.a.a.a.a.a.a.;.-.h 1 $ $ ! ] R.R.R.e.R.E.9.} W N   & ) f.g.H.I.U.P.B.B.B.b.b.b.b.B.B.B.B.B.B.",
"I.I.I.V.b.b.V.I.I.P.g.g.g.a.a.a.a.a.a.a.;.@.% $ X @ [.`.R.R.R.e./.'.[ I [ D 2 2 o 3.s.H.I.U.J.B.B.B.b.b.v.b.B.B.B.B.B.B.",
"V.V.V.z.i.i.z.V.V.V.v.v.c.v.v.v.c.a.a.a.Z.d.> @ . o `.[.R.R.e.w.).'.{ } [ P G q O 3.a.g.C.C.N.b.b.B.b.B.B.n.s.s.c.s.s.c.",
"b.b.b.a.4.4.6.b.b.b.b.b.b.b.b.b.c.a.a.a.j.( ; $ 4 Q ).).R.R.e.w.~.^.E.E.W P H q O 3.a.a.g.g.n.b.b.b.B.B.B.z.f.a.a.a.a.i.",
"b.b.b.6.5.4.z.b.b.b.b.b.b.b.b.b.c.a.a.#.< % + 4 Y.`.).(.R.R.E.E.Y.~.W.E.I U P q O g 1.s.g.s.g.b.b.b.B.B.B.z.a.a.a.a.a.a.",
"b.b.b.z.z.i.z.b.b.b.c.c.x.b.b.b.n.a.a. .% + X 4 ].].(.!._._./.~.W.W.T.` c Z W q 2 . d g.g.g.n.n.v.c.v.m.m.M.N.N.g.a.a.a.",
"b.b.b.b.B.B.b.b.b.b.a.a.a.c.B.b.m.a.a.O.% $ X 5 ].].Q.R.`.'.~.r.w.9.` R z D W H M . h g.l.l.g.a.a.a.a.7.7.H.I.I.H.a.a.a.",
"b.b.b.B.B.B.b.b.b.c.a.a.a.n.B.B.m.a.a.X.# $ X 4 ].].e.Q._.W.q.0.` 9.9.R z C W H n . h g.h.h.g.a.a.a.a.a.a.A.I.I.H.a.a.a.",
"b.b.b.b.B.B.B.b.B.B.a.a.a.m.B.B.c.a.a.#.% $ X 4 ].`.(.).9.9.9.0.9.9.9.R x C J n 3 . / g.h.h.g.a.a.a.a.7.a.A.J.J.A.a.a.a.",
"a.a.a.v.B.b.V.I.I.J.a.a.a.c.B.b.B.B.c. .# $ o m !.Q.`.'.9.9.9.9.9.9.9.T z z 8 3 - . +.7.:.:.5.a.a.7.a.a.a.g.M.M.k.v.v.b.",
"a.a.a.x.b.b.V.I.I.J.s.a.a.m.B.b.B.1.> $ # 5 )._.R.e._._.9.9.9.0.` 9.9.T x q 8 z 3 . &.3.;.:.4.a.a.a.a.a.a.s.g.g.s.b.b.b.",
"a.a.a.c.b.b.D.I.I.P.f.a.a.m.B.B.B.*.% #   4 ].[.R.R.(.W.9.9.9.0.0.9.8.E c v C x 3 : 3.7.;.;.4.a.a.a.a.a.a.g.g.g.g.b.b.b.",
"n.g.g.g.z.a.N.I.I.P.b.c.c.c.z.a.z.=.% + X 5 ]._.R.R.!.~.9.9.9.9.9.9.E D V H C 8 S p.f.z.z.z.z.a.a.a.g.a.g.c.v.v.v.g.g.c.",
"l.l.M.f.a.a.g.I.I.P.b.b.b.f.a.a.a.=.- o X 5 [._.T.T.q.Y 9.9.9.R L b x v V V M + h a.a.n.B.B.N.a.a.a.g.g.g.c.b.b.v.g.g.g.",
"l.C.M.f.a.a.C.I.I.I.B.b.b.z.a.a.7.o.% # X 4 ].[.Q.W.H H 9._ L b x x c v z B M X k a.a.m.B.B.m.a.a.a.f.g.g.c.b.b.v.g.g.g.",
"G.G.F.n.z.n.n.H.H.D.b.c.c.z.a.a.a.%.% o X , _.[.)./.G U D b x z x v C v 8 M c X l a.a.c.b.b.b.s.c.c.C.C.C.b.v.b.v.a.a.g.",
"I.U.I.D.B.m.m.a.7.a.7.7.7.a.a.a.z.%.% # X , '.[.!.q.P I x z c M V A V v 8 x 9 ; %.a.a.v.b.b.b.B.b.V.P.I.I.B.b.b.c.p.a.a.",
"I.I.I.V.B.B.v.a.a.a.7.a.7.a.a.7.s.$.% $ X * _._.} [ [ I c M V V V V V v 8 z p 1.a.a.a.c.b.b.b.B.B.V.P.I.I.V.b.b.c.a.a.a.",
"I.I.I.A.B.B.m.a.a.a.a.7.7.a.a.f.s.%.% $ . * '._.} [ G b V V V V V V F v 8 $ e 7.a.a.a.c.b.b.B.B.B.B.I.I.I.V.b.b.c.a.a.a.",
"a.a.a.c.B.B.N.l.M.M.a.a.a.c.b.b.x.%.% $ X = '.t.[ [ w 8 V V V C V V V n z O h p.a.a.a.Z.I.I.H.s.g.g.V.B.B.v.b.b.v.g.g.g.",
"a.a.a.N.B.B.V.l.h.M.a.a.a.c.b.b.c.<.< # X = Q > I [ w 8 H V V C V V V v w $.p.p.a.a.a.H.I.I.H.g.f.n.v.B.B.b.b.b.v.g.g.g.",
"a.a.a.v.B.B.N.l.l.l.a.a.a.c.b.b.c.7.<.f $ # X $ P P w 8 V V V C V V x > & a.p.p.a.a.a.A.I.I.H.g.g.g.B.B.B.b.b.b.N.g.g.g.",
"a.a.a.u.i.6.c.L.P.H.c.c.c.c.z.z.n.H.A.F.7 o X $ H H 8 q H V V C c - . o r c.c.v.A.A.A.C.N.N.N.N.N.b.B.B.B.b.n.n.s.5.4.5.",
"a.a.a.>.;.;.a.I.I.I.b.b.b.a.a.a.n.I.I.I.1 # + $ H B z x V V x $ . . i O.s.v.b.b.I.I.I.C.a.a.s.b.b.b.B.B.V.k.g.g.a.;.;.;.",
"a.a.a.>.;.;.a.I.P.I.b.b.b.s.a.i.n.I.I.I.p %   + 8 $ z x n < X . ; / p.g.k.b.b.b.I.I.U.n.a.a.a.b.b.b.V.B.B.g.g.g.p.;.-.;.",
"a.a.a.6.4.4.a.A.H.H.B.N.N.c.z.c.V.I.I.I.2...e + . . 3 # . . 6 +.g.n.g.N.v.b.b.b.I.I.I.N.a.a.z.b.b.b.V.D.A.c.a.a.u.>.;.4.",
"a.a.a.p.a.a.a.a.a.a.h.l.l.N.b.b.V.I.I.U.a.a.5.^ & X .   : +.A.I.I.V.b.v.b.b.b.b.I.I.I.n.a.a.z.B.B.B.I.I.I.g.5.5.5.p.p.p.",
"a.a.a.a.a.a.a.a.p.f.h.h.l.N.b.b.D.I.I.I.a.a.a.A.y.u $ l b.b.I.I.I.V.b.b.b.b.b.b.I.I.I.n.p.p.s.B.B.V.I.I.I.g.4.4.7.7.a.7.",
"a.a.a.s.a.a.a.a.a.f.h.h.l.N.b.b.V.P.I.I.a.a.a.S.P.L.C.v.b.v.P.L.P.Z.b.b.b.b.b.B.P.P.P.g.p.p.a.V.B.B.P.I.P.s.5.5.6.7.7.a.",
"b.v.b.s.g.g.f.a.a.a.a.a.s.A.I.I.K.l.l.l.a.a.a.s.a.s.p.:.;.>.s.k.g.a.a.a.n.I.P.P.g.a.s.5.;.;.p.C.C.C.B.B.b.s.a.a.7.2.:.2.",
"b.b.b.n.g.g.a.a.a.a.a.a.a.G.I.I.L.l.l.l.a.a.a.a.a.a.6.;.;.:.s.g.g.s.a.p.n.I.I.I.a.a.a.4.;.;.5.l.l.h.b.b.b.s.a.a.6.;.;.;.",
"b.b.b.N.g.g.g.a.a.a.a.a.a.A.I.I.L.l.l.l.a.a.a.a.a.a.5.:.;.;.g.g.g.a.7.7.n.U.I.U.a.a.a.>.;.;.5.l.l.h.b.b.b.z.a.a.7.;.:.;.",
"v.b.b.V.G.H.Z.g.g.g.a.a.a.g.C.N.k.f.f.s.2.5.2.u.a.a.a.f.g.a.m.m.B.m.m.m.n.a.a.f.5.5.u.2.;.;.5.g.s.s.b.b.b.s.a.a.7.7.5.6.",
"b.b.b.K.I.I.P.h.l.h.a.a.a.a.a.a.a.a.a.a.;.;.;.u.a.p.g.h.l.l.B.B.B.B.B.B.z.;.;.:.4.5.4.2.;.;.4.a.a.a.v.b.b.s.a.a.a.a.a.a.",
"b.b.b.P.I.I.H.l.l.h.a.a.a.a.a.a.a.a.a.a.;.;.;.5.a.a.g.l.l.l.b.B.B.B.B.B.z.;.;.2.5.4.5.;.;.;.4.a.a.a.v.b.b.s.a.a.a.a.a.a.",
"b.b.b.B.C.N.N.N.N.k.a.a.a.a.a.a.a.s.s.s.;.;.;.i.z.c.n.C.C.C.N.N.m.b.B.B.v.i.z.7.7.7.7.6.,.5.i.s.g.g.B.V.V.c.a.a.a.g.f.g.",
"b.b.b.,.;.;.i.b.b.b.s.a.a.p.p.a.s.b.b.b.;.;.;.x.B.B.B.b.B.B.n.g.g.m.b.v.V.I.U.I.a.a.7.c.b.b.N.l.l.C.I.I.I.C.a.a.g.h.l.l.",
"b.b.b.6.;.;.,.b.b.b.a.a.a.a.a.a.a.b.b.b.;.;.;.c.B.B.B.B.B.B.g.g.g.v.v.b.V.U.U.I.a.a.a.b.b.b.m.C.l.C.I.I.I.k.a.a.f.l.l.l.",
"b.b.b.,.;.;.,.b.b.v.i.a.a.a.a.a.s.b.b.b.;.;.;.c.B.B.B.B.B.B.g.g.g.c.b.b.V.U.I.I.a.a.a.x.b.b.m.M.l.l.I.I.I.C.a.a.f.l.l.l."
};
