/* XPM */
static char *_6526_d13921af5ede1a58e0c6d8f326caef0ba26a1a06583017feb46eee8f87b8b8d3[] = {
/* columns rows colors chars-per-pixel */
"60 60 173 2 ",
"   c #061D1A",
".  c #081E1B",
"X  c #07221D",
"o  c #0B221E",
"O  c #0F291E",
"+  c #142C1F",
"@  c #072521",
"#  c #092621",
"$  c #072B25",
"%  c #0A2B25",
"&  c #0A2F28",
"*  c #102422",
"=  c #142925",
"-  c #142C28",
";  c #1A2D2C",
":  c #0C322B",
">  c #153021",
",  c #1D302E",
"<  c #1C3824",
"1  c #0E3731",
"2  c #0D3A33",
"3  c #103933",
"4  c #193D31",
"5  c #143F39",
"6  c #203C26",
"7  c #2C3A3A",
"8  c #323D3F",
"9  c #17402E",
"0  c #1A412E",
"q  c #0E4037",
"w  c #0E443B",
"e  c #11443B",
"r  c #124B3F",
"t  c #184B38",
"y  c #1C4331",
"u  c #22432C",
"i  c #2F4E2C",
"p  c #2E502D",
"a  c #36592F",
"s  c #244A33",
"d  c #234431",
"f  c #33423F",
"g  c #2B5432",
"h  c #3B5E35",
"j  c #30543A",
"k  c #355E3B",
"l  c #37612F",
"z  c #3C6732",
"x  c #3C6539",
"c  c #3B673C",
"v  c #446D36",
"b  c #406434",
"n  c #557D3F",
"m  c #0F4B41",
"M  c #114C42",
"N  c #125046",
"B  c #13554A",
"V  c #18594E",
"C  c #1B5F53",
"Z  c #155D51",
"A  c #344240",
"S  c #384443",
"D  c #215A51",
"F  c #156255",
"G  c #166659",
"H  c #196659",
"J  c #176E5E",
"K  c #1C6B5C",
"L  c #3E6945",
"P  c #286055",
"I  c #2C655B",
"U  c #206C5F",
"Y  c #1A6F61",
"T  c #1B7262",
"R  c #2A6D62",
"E  c #386C62",
"W  c #227365",
"Q  c #257769",
"!  c #2B7568",
"~  c #26786A",
"^  c #377067",
"/  c #3D7067",
"(  c #465250",
")  c #495352",
"_  c #486D42",
"`  c #557E42",
"'  c #527E49",
"]  c #457B6E",
"[  c #43766D",
"{  c #467970",
"}  c #4A7A72",
"|  c #537B75",
" . c #5A7C76",
".. c #5E7C78",
"X. c #5A6A69",
"o. c #646867",
"O. c #636969",
"+. c #686C6D",
"@. c #68716E",
"#. c #617C76",
"$. c #697976",
"%. c #647D79",
"&. c #6A7E7C",
"*. c #767877",
"=. c #747E7D",
"-. c #7B7E7D",
";. c #558444",
":. c #5A8645",
">. c #5F9348",
",. c #628D48",
"<. c #65964D",
"1. c #689749",
"2. c #679849",
"3. c #648B54",
"4. c #6C9D52",
"5. c #6DA24C",
"6. c #6FAB49",
"7. c #73AE4B",
"8. c #79AC4F",
"9. c #72A24C",
"0. c #75B04C",
"q. c #79B24E",
"w. c #7FB84F",
"e. c #76AD50",
"r. c #79AC50",
"t. c #75A45B",
"y. c #73A252",
"u. c #77B351",
"i. c #7BB354",
"p. c #7EB952",
"a. c #7FB558",
"s. c #76807E",
"d. c #7C807F",
"f. c #81B657",
"g. c #81BA54",
"h. c #81B759",
"j. c #83B95B",
"k. c #88BE5D",
"l. c #82AF66",
"z. c #85B461",
"x. c #86BA60",
"c. c #8BBC62",
"v. c #8EBE6A",
"b. c #90BF61",
"n. c #91BE6B",
"m. c #87C057",
"M. c #8AC256",
"N. c #8DC45C",
"B. c #90C65D",
"V. c #92CA5C",
"C. c #8EC262",
"Z. c #8FC861",
"A. c #8EC06B",
"S. c #91C563",
"D. c #94CC61",
"F. c #99CE65",
"G. c #93C36B",
"H. c #99C56E",
"J. c #96C96B",
"K. c #9ACC6D",
"L. c #98D065",
"P. c #9CD06C",
"I. c #96C671",
"U. c #99C671",
"Y. c #9CCD71",
"T. c #9FD173",
"R. c #A0D36E",
"E. c #A0CE74",
"W. c #A3D476",
"Q. c #A5D579",
"!. c #A8D77B",
"~. c #737E80",
"^. c #808080",
/* pixels */
"V.V.V.k.j.j.k.D.D.D.Q.Q.Q.Q.Q.Q.J.7.6.0.Q.Q.Q.H.n.n.v.j.j.k.V.D.V.g.7.0.p.V.D.D.a.j.a.j.j.j.k.V.V.V.j.j.j.j.j.j.m.V.V.V.",
"V.V.V.k.j.j.N.V.D.D.Q.Q.Q.Q.Q.Q.J.0.0.6.Q.Q.Q.H.n.n.c.j.j.j.V.D.D.g.7.7.p.D.D.D.j.a.j.j.j.j.k.V.V.V.j.j.j.j.j.j.m.V.V.V.",
"V.V.V.k.j.h.k.D.D.F.W.Q.Q.Q.Q.Q.J.7.7.0.Q.Q.!.H.n.n.c.j.j.j.D.D.D.p.7.7.p.D.D.D.j.a.a.j.j.j.m.V.V.B.j.j.j.j.j.j.m.V.V.V.",
"V.V.V.m.x.x.N.D.V.D.Q.Q.Q.P.F.D.Z.a.i.i.P.P.F.K.E.E.J.j.j.j.D.D.V.M.M.M.V.V.V.V.j.j.a.j.j.j.C.W.P.P.k.j.j.N.m.N.M.V.V.V.",
"V.V.V.B.c.c.c.B.V.V.W.Q.W.F.V.V.N.a.j.j.D.D.D.W.Q.Q.H.j.h.x.D.D.V.V.V.V.V.V.V.V.j.j.j.j.j.j.C.Q.Q.W.j.j.j.M.V.V.V.V.V.V.",
"V.V.V.c.c.c.N.V.V.V.Q.Q.!.F.V.V.N.j.j.j.D.D.V.W.Q.Q.K.j.j.j.D.D.F.B.V.V.V.V.V.V.j.j.a.a.j.j.A.Q.Q.T.k.j.j.N.V.V.V.V.V.V.",
"V.V.V.S.c.c.c.N.N.B.K.K.K.K.F.F.D.c.c.c.B.C.N.J.K.Y.J.c.k.x.C.D.S.B.M.B.M.M.M.B.m.k.k.N.N.N.C.P.T.P.m.C.m.N.V.V.V.N.N.N.",
"V.V.V.c.c.c.c.j.j.j.j.j.j.K.!.W.Y.n.v.n.j.j.j.j.j.j.j.c.c.c.c.x.c.k.j.j.j.k.j.j.V.V.V.V.Z.D.D.V.V.V.V.V.V.V.V.V.N.a.j.j.",
"V.V.V.b.c.c.x.j.j.j.j.j.j.Y.W.W.Y.n.n.n.j.j.j.j.j.h.j.c.c.c.c.c.c.x.j.j.j.j.j.g.V.V.V.V.D.D.V.V.V.V.V.V.V.V.V.V.N.j.j.j.",
"M.V.V.k.c.c.x.j.j.j.k.j.k.K.!.!.W.n.n.n.j.j.j.j.j.j.k.x.c.c.c.c.c.j.h.j.j.j.j.j.V.N.V.V.D.D.D.V.D.V.V.D.V.V.V.V.N.j.j.j.",
"0.7.0.f.j.j.j.j.h.k.E.E.W.Q.Q.Q.E.n.n.G.j.j.j.N.D.D.D.V.V.N.j.j.j.u.7.7.f.M.B.V.j.j.j.k.j.k.C.Q.W.Q.!.!.W.F.V.V.N.h.j.j.",
"7.7.7.f.j.j.j.j.j.c.W.!.Q.Q.Q.Q.E.n.n.n.j.j.j.C.D.D.D.V.V.V.j.j.h.i.7.7.w.V.V.V.j.j.j.j.j.j.A.Q.!.Q.Q.Q.W.F.V.V.N.j.j.j.",
"7.7.7.f.j.f.j.j.j.c.W.W.Q.!.Q.Q.E.n.n.G.a.j.j.Z.D.D.V.V.V.B.j.j.y.>.2.7.p.V.V.V.j.j.j.j.j.h.C.Q.W.!.W.!.!.F.B.V.N.j.j.j.",
"M.M.k.k.c.c.j.u.r.i.S.G.G.J.F.F.S.k.x.x.V.N.N.V.D.D.D.b.S.x.' s : $ u 7.j.V.V.B.j.j.j.S.Y.Y.H.C.n.b.I.U.U.S.v.b.N.N.V.N.",
"V.V.V.S.n.n.k.7.7.0.x.c.c.B.B.V.M.j.j.j.V.V.V.F.D.V.v.3.k : % X     + ;.f.V.V.V.j.j.j.Y.Q.Q.Y.a.f.j.b.n.n.c.c.c.N.V.V.V.",
"V.V.V.B.n.n.x.7.0.0.x.c.c.B.V.V.N.f.a.a.V.V.V.V.D.D.4.& & X       . ; o :.V.V.V.j.j.j.K.Q.W.K.j.f.j.v.n.v.c.c.c.c.V.V.V.",
"V.V.V.S.b.S.k.g.g.g.k.N.S.C.N.N.k.a.f.a.N.N.N.V.D.D.<.% $     . A O.+.# h r.M.k.j.j.j.S.K.K.S.h.j.j.c.C.c.C.C.C.N.N.N.N.",
"V.V.V.V.V.V.V.V.V.V.V.V.V.k.j.j.a.q.u.u.j.j.j.Z.D.N.' % % ; ) -.^.d.@.3 $ h 7.7.f.f.j.j.j.j.j.j.a.a.j.j.j.Z.D.D.S.j.j.j.",
"V.V.V.V.V.V.V.V.V.V.V.V.V.j.j.j.a.i.i.i.j.j.j.C.Z.x & $ o -.^.^.d.s. .Y : z 6.7.j.j.j.j.j.j.j.j.j.j.j.j.j.Z.D.D.N.j.j.j.",
"V.V.V.V.V.V.B.V.V.V.V.V.V.k.j.j.j.u.i.i.j.j.j.C.N.0 % . o ^.^.&.....| T & v 0.7.a.a.f.j.j.j.j.j.j.j.j.j.j.N.D.D.B.j.j.j.",
"W.Q.W.F.V.V.F.!.W.W.c.c.c.j.j.j.j.j.j.a.7.0.7.D.I.d $ . ; $.| | { | / Q : i 4.V.c.c.c.Y.Q.Q.T.D.D.D.Z.V.V.D.D.D.D.D.V.F.",
"Q.Q.Q.F.V.V.F.!.Q.W.c.c.c.j.j.j.j.j.j.j.7.7.0.t.j & % ( *.| | | s.{ ~ ~ : $ i V.c.c.c.Y.Q.Q.T.D.D.D.V.V.V.V.D.D.V.D.D.D.",
"Q.Q.Q.F.V.V.F.W.W.W.n.k.c.j.j.a.j.j.j.j.7.7.7.g & %   O.d.| | | d.] ~ ~ K 3 a V.c.c.c.Y.Q.Q.T.D.D.D.V.V.V.D.D.Z.D.Z.D.D.",
"F.F.F.N.g.g.N.F.F.F.B.B.Z.N.N.V.k.j.j.j.J.J.J.L % @   O.s.| | | s.s.} ~ T : b V.j.a.h.c.G.J.J.V.V.V.D.D.D.N.x.N.k.N.k.N.",
"V.V.V.p.i.i.g.V.V.V.V.V.V.V.V.V.C.j.j.j.W.!.l.d % & ) $.&.| | %.&.&.| K W 1 > 1.f.f.j.j.c.c.S.V.V.D.D.D.D.N.a.j.j.j.j.f.",
"V.V.V.p.u.u.g.V.V.V.V.V.V.V.V.V.N.j.j.h.W.l.5 % @ A -.&.&.%.&.&.&.%.E M W e : n j.j.f.x.c.k.c.V.V.V.D.D.D.m.j.j.j.j.j.j.",
"V.V.V.m.j.j.m.V.V.V.N.N.M.V.V.V.S.j.h.j.Y.t.& $   S ^.&...^.=.%.| { I N W T q ` f.f.h.c.c.b.c.N.V.N.N.N.Z.C.A.C.c.j.j.h.",
"V.V.V.V.D.D.V.V.V.V.j.j.g.N.D.D.V.j.x.j.h.<.% $   f ^... .~.| { { { I N W H & ` h.h.h.c.n.n.c.j.j.j.j.j.j.T.Q.!.Y.j.j.j.",
"V.V.V.D.D.D.V.V.V.N.k.j.j.Z.D.D.Z.j.j.j.h.<.$ $   7 ^...%.} { { { { I M C 5 # ` j.h.h.c.v.n.v.j.j.j.j.j.j.K.Q.Q.Y.h.j.j.",
"V.V.V.V.D.D.V.V.D.D.j.j.j.N.D.D.Z.j.j.j.x.<.& $   7 s.s.-.] { ] { { I M 5 5 @ ` h.h.a.c.v.v.k.j.j.j.j.j.a.K.W.T.K.k.x.j.",
"j.j.k.N.V.V.L.!.Q.T.k.j.j.Z.D.D.D.V.S.D.e.v & % 8 X.| =.~.{ { { { { D m m m # ' n.v.n.a.0.0.u.j.j.a.j.j.j.c.v.v.b.V.V.B.",
"j.j.k.M.V.V.L.Q.Q.T.j.j.a.Z.D.V.D.D.D.D.y % % ; -.=.| &.&.{ { { { { I F F M ;.a.n.n.n.i.7.7.u.j.j.j.j.j.j.x.c.x.k.V.V.B.",
"j.j.j.N.V.V.F.W.Q.W.k.j.j.Z.D.D.D.D.D.Z.9 & X ; -.=.| %.&.[ { { [ I Z G G % 9.j.G.v.G.a.7.7.u.j.j.j.j.j.j.j.c.c.c.V.V.V.",
"c.c.v.c.k.k.J.W.Q.W.C.N.N.m.x.N.j.k.N.N.9 & X ; -.~.| | E [ { E V M B B F O 5.a.k.j.c.m.m.m.k.j.j.j.j.c.c.N.B.B.B.c.c.N.",
"n.n.v.x.j.j.C.Q.Q.Q.D.V.V.k.j.j.j.j.j.j.0 & X ; -.-...R H [ D m M B M e V = 5.r.j.j.j.C.D.D.S.j.j.j.c.c.c.B.B.V.B.c.c.c.",
"n.G.A.x.j.j.A.Q.Q.W.V.V.V.N.j.a.j.j.j.j.0 : X = -.~.$.R K B m M Z H M e w < e.i.j.j.j.S.D.V.S.j.j.j.c.c.c.B.V.V.B.c.c.c.",
"U.U.I.C.N.k.C.Y.T.K.V.N.N.k.a.a.j.k.k.M.4 & . = *.-.%.! W m B G G G M w t 4.r.a.j.a.j.V.V.D.V.N.k.k.G.G.J.V.M.V.B.j.j.k.",
"Q.Q.Q.P.D.Z.N.j.a.j.a.a.p.j.j.x.k.V.V.V.0 & @ = *.&.~ ~ Y F G H G G M 2 u j.a.j.j.j.j.N.V.V.V.D.D.F.W.!.W.L.V.V.B.h.j.j.",
"Q.Q.Q.P.D.V.C.j.j.j.a.j.a.j.j.j.k.V.V.V.4 & X = *.%.Q C M F G G G G N 2 h f.j.f.j.j.h.N.V.V.V.D.D.F.W.Q.!.F.V.V.N.j.j.j.",
"Q.Q.Q.F.D.D.D.j.j.j.j.a.j.a.j.j.k.V.V.V.s & X = *.#.Q M e H G G G G m L J.j.f.j.j.j.j.N.V.V.V.D.D.F.W.Q.W.F.V.V.N.j.j.h.",
"j.j.j.N.D.D.S.n.A.A.j.j.j.N.V.V.N.p.j.j.s % X O S e ~ M e G G G G B O v m.j.f.f.j.j.j.K.Q.Q.P.c.c.c.D.D.D.V.V.V.B.c.c.c.",
"j.j.j.S.D.D.F.n.v.v.j.j.j.N.V.V.N.j.a.j.<.x $ $ . 1 T e e G G G r X + ,.N.a.j.j.j.j.a.Y.Q.Q.Y.c.x.C.D.D.D.V.V.V.B.c.c.c.",
"j.j.j.B.D.D.S.n.n.n.j.j.j.N.V.V.N.g.a.a.u.e.4 $ . & J m N G F : X < 8.V.M.j.j.j.j.j.j.K.Q.W.Y.v.c.c.D.D.D.V.V.V.B.c.c.c.",
"j.j.j.g.f.p.N.E.T.Y.B.N.N.m.m.m.C.K.T.K.u.6.9 @ . & B r N N @ o h j.v.S.m.N.M.N.K.Y.K.G.G.C.S.B.C.V.D.D.D.B.C.C.c.r.u.u.",
"j.j.j.q.7.7.j.Q.Q.W.V.V.V.N.j.j.A.Q.Q.Q.7.7.c &   X X 2 :   = ,.j.x.c.c.S.V.V.V.Q.Q.Q.G.j.j.k.V.V.V.D.D.D.v.c.c.j.7.7.7.",
"j.j.j.q.7.7.j.Q.Q.Q.V.V.V.m.j.j.C.Q.Q.Q.7.7.7.;.- # X @   < 2.j.j.j.c.v.b.V.B.V.!.Q.!.C.j.j.g.V.V.V.F.D.V.C.c.c.j.7.6.7.",
"j.j.j.p.q.u.j.Y.K.K.D.S.S.N.k.k.S.Q.Q.Q.8.q.u.B.b._ & o h f.n.S.S.C.N.c.B.V.V.V.W.!.Q.S.j.j.m.V.V.V.F.L.P.C.j.j.f.7.0.u.",
"j.j.h.j.j.j.j.j.j.j.v.v.n.S.V.V.F.Q.Q.Q.j.j.j.Y.W.!.j.9.V.V.W.Q.Q.L.V.V.V.V.V.V.Q.W.Q.C.a.j.N.D.D.F.Q.Q.Q.c.i.r.a.j.f.j.",
"j.j.j.j.j.j.j.j.h.x.n.v.n.S.V.V.F.!.Q.Q.j.j.j.K.W.!.R.V.V.V.W.Q.Q.F.V.V.V.V.V.V.Q.Q.Q.C.j.a.k.D.D.F.Q.Q.Q.c.u.u.i.j.j.j.",
"j.j.k.j.j.j.j.j.j.j.v.v.n.S.D.V.F.W.Q.Q.j.j.j.H.W.W.K.V.B.B.E.W.W.J.M.V.V.V.V.V.W.T.W.c.a.j.j.D.D.D.W.W.Q.k.i.a.a.j.a.f.",
"V.V.B.k.c.c.j.j.j.j.x.j.j.K.W.E.E.n.n.n.j.j.j.k.j.j.j.q.q.q.k.v.v.j.j.j.C.Q.Q.Q.c.k.j.a.7.7.a.G.G.G.D.D.V.k.j.j.a.7.0.0.",
"V.V.V.C.c.c.x.j.j.j.j.j.j.E.!.!.E.n.n.n.j.j.j.j.j.j.p.7.6.q.k.c.c.j.j.j.C.Q.Q.Q.j.j.j.q.7.7.a.n.n.A.V.V.V.k.j.j.a.0.6.7.",
"V.V.V.c.c.c.x.j.j.j.j.j.j.Y.W.Q.W.n.n.n.j.j.h.j.j.j.a.7.7.0.c.c.c.j.a.a.C.Q.Q.!.j.j.j.u.7.7.i.n.n.n.V.V.V.k.g.j.a.7.7.7.",
"V.V.V.F.Y.Y.J.v.k.c.j.j.j.c.G.C.c.x.c.j.r.i.r.f.j.j.j.j.k.j.S.S.S.D.Z.N.C.j.j.k.a.a.a.7.7.7.u.c.c.k.V.V.V.k.j.j.j.a.i.a.",
"V.V.V.W.W.W.Y.n.n.v.j.j.j.j.j.j.j.j.j.j.7.7.7.a.j.j.c.v.n.n.D.D.D.D.D.D.N.6.0.u.i.r.u.r.7.7.u.j.j.j.M.V.V.k.j.j.j.j.j.j.",
"V.V.V.R.!.!.E.n.n.v.j.j.j.j.j.j.j.j.j.j.7.7.7.a.j.j.c.n.n.G.D.D.D.D.D.D.m.0.6.e.u.i.i.7.7.7.u.j.j.j.V.V.V.k.j.j.j.h.j.h.",
"V.V.V.D.J.J.S.b.S.b.j.f.j.j.j.j.j.k.k.k.7.7.7.g.N.N.C.G.G.A.Z.S.V.V.D.D.V.g.k.j.i.i.a.p.g.w.g.k.k.c.D.F.F.c.j.j.j.c.j.c.",
"V.V.V.w.7.7.g.V.V.V.k.j.j.j.j.j.k.V.V.V.7.6.7.M.D.D.V.D.D.D.C.c.c.C.V.V.L.!.Q.Q.j.j.j.N.V.V.S.n.n.I.W.!.Q.G.j.j.c.v.G.n.",
"V.V.V.p.7.7.w.V.V.B.j.j.g.j.j.j.g.V.V.V.7.7.7.N.D.V.D.D.D.D.c.c.c.C.V.V.L.!.Q.Q.j.j.j.N.V.V.S.n.n.n.W.W.W.S.j.j.x.n.n.n.",
"V.V.V.w.7.6.w.V.V.V.j.j.j.j.j.j.m.V.V.V.7.7.7.N.D.D.D.F.D.D.c.c.c.N.V.V.L.Q.Q.Q.j.k.j.M.V.V.N.v.n.n.Q.!.Q.G.j.j.c.n.n.n."
};
