/* XPM */
static char *xpm_[] = {
/* columns rows colors chars-per-pixel */
"60 60 137 2 ",
"   c #040405",
".  c #0A0505",
"X  c #070907",
"o  c #0A0907",
"O  c #050509",
"+  c #0A0709",
"@  c #070908",
"#  c #0D0B0B",
"$  c #120D0D",
"%  c #13100F",
"&  c #19100F",
"*  c #0E0D10",
"=  c #130E11",
"-  c #180F11",
";  c #151212",
":  c #1B1515",
">  c #1C1916",
",  c #1B1718",
"<  c #1D1919",
"1  c #211616",
"2  c #211917",
"3  c #201719",
"4  c #231C1B",
"5  c #281E1E",
"6  c #26211E",
"7  c #29211E",
"8  c #251E21",
"9  c #281F20",
"0  c #262121",
"q  c #2B2523",
"w  c #2E2926",
"e  c #2F2629",
"r  c #2F2A29",
"t  c #302625",
"y  c #302A27",
"u  c #302728",
"i  c #332D2A",
"p  c #392F2D",
"a  c #36312D",
"s  c #39312E",
"d  c #392F30",
"f  c #373332",
"g  c #3C3432",
"h  c #3E3935",
"j  c #3F3D39",
"k  c #413736",
"l  c #423936",
"z  c #403738",
"x  c #453B39",
"c  c #483D3D",
"v  c #46433C",
"b  c #47423E",
"n  c #45413C",
"m  c #47443F",
"M  c #45413C",
"N  c #49413E",
"B  c #48433F",
"V  c #49443E",
"C  c #4B403F",
"Z  c #484340",
"A  c #494440",
"S  c #484540",
"D  c #494641",
"F  c #4B4640",
"G  c #4B4642",
"H  c #4C4743",
"J  c #4D4341",
"K  c #4B4841",
"L  c #4B4843",
"P  c #4D4842",
"I  c #4D4844",
"U  c #4C4944",
"Y  c #4D4A45",
"T  c #4F4A44",
"R  c #4E4B44",
"E  c #4F4A46",
"W  c #4E4B46",
"Q  c #4F4C45",
"!  c #4F4C47",
"~  c #514544",
"^  c #504B45",
"/  c #504B47",
"(  c #504D46",
")  c #514E47",
"_  c #504A46",
"`  c #504D48",
"'  c #514E49",
"]  c #534E4A",
"[  c #524F4A",
"{  c #544F49",
"}  c #544F4B",
"|  c #554C4A",
" . c #594E4C",
".. c #535049",
"X. c #53504B",
"o. c #55504A",
"O. c #54514A",
"+. c #55524B",
"@. c #52514C",
"#. c #53524D",
"$. c #54514C",
"%. c #56534C",
"&. c #56534E",
"*. c #54544C",
"=. c #55554D",
"-. c #57544D",
";. c #57544F",
":. c #53524D",
">. c #58554C",
",. c #58554E",
"<. c #59564F",
"1. c #565550",
"2. c #595651",
"3. c #5A5750",
"4. c #585752",
"5. c #585850",
"6. c #595951",
"7. c #5B5851",
"8. c #5C5952",
"9. c #5D5A53",
"0. c #5B5A55",
"q. c #5D5854",
"w. c #5C5954",
"e. c #5D5A55",
"r. c #5E5B54",
"t. c #5E5B56",
"y. c #5D5D55",
"u. c #5F5C57",
"i. c #5D5A53",
"p. c #605B55",
"a. c #615E57",
"s. c #605D58",
"d. c #625F5A",
"f. c #61605B",
"g. c #6B6660",
"h. c #6A6762",
"j. c #6C6761",
/* pixels */
"# # # # . . .             # # $ # . .       .   # # # # @ . .         .           # $ X         . .   .         # # # # ",
"# # # # ; ; ; > > > > > > # # # # % ; > > > > > % # # # % ; ; : > > > > > > > > > # # = ; > > > : ; ; : , > > < # # # # ",
"# #   ; i g x #.0.2.<.9.f.:     o q j s.2.2.t.h.f       6 s k Z 7.7.9.t.9.5.;.7.h.0   6 g 7.u.u.O.l x l O.7.7.h.0   # # ",
"# # ; 6 g x P ..;.%.<.( [ 6 ; > 0 h S <.%.;.^ } h > > ; i g V T ;.[ T T U ..;.[ [ a > i g T T ^ S h S D #.1.[ ..s > # # ",
". ; g h N ..t.%.O.%.<.H x g s D [ u.7.O.O.%.b h b } h i j m 7.7.;.T x x h %.t.Q h N T D b x x x n j [ a.*.;.T g b [ >   ",
"X $ 7 w s j L ..;.%.t.h q 0 7 i h D T ;.%.%.h i f s i y h n D P 9.b 6 i s M T x i g s s s g s w y s x H [ t.D i s g ; . ",
"# # > 6 y s j ( ;.;.s.p $ : 4 q i h D 2.;.2.s q w y i y h b h n s.x $ 6 i g b g q y w w w i w : 6 w g j [ t.b q r i % . ",
"# # 4 0 y g x ( <.Q D y : 4 4 4 6 i g D b D q 4 < ; < 0 y s x x L s : 5 4 i s w 4 4 0 : ; ; ; = : 4 w s x T s 4 : ; # # ",
"# $ 4 q p k x #.9.( n y 2 5 4 3 4 w s x x x 0 2 : O : 5 q i b b b s : 4 2 y s q 2 4 4 = # # # * % 4 w i k D s 1 =   # # ",
"# # ; < 4 i h D [ b h 0 ; : : 2 4 y s b h h 4 : ; # ; : 7 w g h h y 2 : : 4 0 4 : > : ; = $ $ * ; : 5 t i g w : = # # # ",
"# # . @ . 4 i h b g s < + # * 4 0 y g D s i ; @ # = * # : 4 y i i w 5 ; # # # # o # X # $ $ % # # # : 5 : : - # # # # # ",
"# # # # # 4 0 i h w , ; # * * ; : 0 t k q : ; = ; - ; * ; : 7 0 q 4 ; ; = = # : q 4 6 6 6 % # ; = $ ; ; 0 w q 0 ; . # # ",
"# # # # # : 4 w s <   $ ; = = * ; < 7 s > . ; & ; - = * # # : 4 4 : # $ ; $ # 4 g i s s i $ $ = = $ # # q s i g :   # # ",
"# # # # = ; ; ; : ; % $ ; $ * * = ; ; : ; = ; ; ; ; = $ 8 w y q ; $ $ = $ : 2 4 4 w i i y w 5 $ ; # : < w i y i q q * @ ",
"# # # # ; $ # # # $ ; ; ; $ = $ # * # # = ; $ ; ; ; ; $ w g s q $ ; $ ; $ > 5 4 : q i y y s y $ ; $ : 5 w i y i p g ; . ",
"$ # X # % = $ # # $ = $ # < 4 # # = = = : 5 ; = - # : 4 w i y y y 4 # : 4 4 4 4 : q y g l c g # ; 5 4 > q y p k k c : . ",
"# # # # % ; ; : : : : ; # > 4 : ; % ; = : 4 ; $ ; ; : 4 w i i i g 0 o : 5 4 4 4 4 w i l x g r # ; 4 4 6 y p g x g g ; . ",
"# # $ % $ : 4 i s i s < # # ; g y o # $ # $ $ $ : 0 4 > q i l k ~ i . : 7 2 > 6 y s x c x ; # * $ # 0 g x N c H 6 o # # ",
"# # $ = * : 4 0 q w a 6 < ; $ 6 5 > > > 4 4 ; # ; : 4 0 i g l g i 4 # : : 5 6 w g g x p q ; $ = = # < 0 w u y y 4 $ # # ",
"# # ; $ # : 7 : ; 5 y i p : $   % g s p p s : # $ # 6 p h x J g o # $ # # w g h J c Z : . # # # # # + . # $ $ # = : # # ",
"# # # # $ ; ; 6 w y g s g > $ ; > 6 q i y i : $ = # 0 l k l q 4 % ; ; $ # > 4 4 0 9 0 ; % 4 6 6 0 4 5 0 ; $ ; ; $ # # # ",
"# # @ # ; $ # w s g x x c > # 5 5 : 6 i y i : = = . r ~ x h $ # $ = = $ # # # # # $ # $ ; i s i i p p s : o $ : # . # # ",
"# # # # # # = ; $ 0 N w : ; $ < 4 w p h g k : # = = : 3 < > $ : w q w q q 4 > : = = $ : 4 w i i y i y i q w 4 $ $ # # # ",
"# # # # # # $ # O 8  .7 . $ ; : 4 y p x l x : # % ; $ $ # # . ; s p i p p 7 5 > = = $ < 5 i i i i y i y i s 6 # # @ # # ",
"# $ $ # # # ; $ # < s < = # % 5 q p g k l x 1 # $ ; % % ; : > 4 i y y y y 4 : : : ; = < 5 q w i i i y i y i q 4 ; # # # ",
"# # # # . # $ # $ + . $ ; * = s g x l h x J 4 $ ; $ $ # < 0 s s i y w i g ; . ; 7 : $ < 4 : 4 i i y i y y y i g 5 $ # # ",
"# # # # # > 0 6 6 0 0 : $ = = : 6 x l x y 5 ; $ ; $ ; : 4 4 6 q r p k 0 < : $ ; : ; # 2 4 > 4 6 q i y w i y i i 4 $ # # ",
"# # # # $ 6 g i i i s 4 # = ; . ; x x Z 5 . = ; ; $ : 6 4 > : 4 w p N 9 . ; $ $ $ # # < 4 4 4 : 6 i w y y w y i < $ # # ",
"# # . $ < q i y y y i w q : $ % ; : : : ; $ = $ ; 4 4 2 q w q y l k C 5 . 6 w q q < $ ; ; < 4 w i k g h g g h x 8 $ # # ",
"# # X ; 5 q i y y i i i s < $ ; = $ $ $ $ - = # ; 5 4 4 w s i s l h x 5 # w s p g 4 $ * # 4 5 i d x x l x x l x 5 # # # ",
"# # 4 4 4 4 2 w i y y y i : = # : p w i < # = ; ; # 6 s k x c g & ; ; : > q w s H 0 # = ; w s x x l l l x Z i $ # @ # # ",
"@ $ 5 4 4 4 4 y p i p i s : $ $ : y i s 4 ; ; ; = # 4 r p s g y $ = # : 7 y s s l 5 $ = : 0 w p g l l l g g 0 + # # # # ",
"# # 6 4 : 0 i g x l l x J : $ 4 4 : 5 i w i : $ = ; $ = # O O # & = O 0 s x ~ i . = ; $ $ $ #   4 H c N 1 $ # . # # # # ",
"@ # : 4 7 y s h l l x p w : # : > 6 w g s g : $ ; = = = : < < , ; = : < 0 w p 5 $ ; $ < 4 4 > # < i t y : = $ # # # # # ",
"# # + 4 h g x l l x ~ 5   # * # ; i s x x H 4 $ $ $ $ # w g g w + : w ; . $ $ $ $ # # w g g w $ $ $ # # # # # $ +   # # ",
"# # # ; : p x k x p 4 4 : ; = # : g g x i 5 : # : 0 9 7 w i i y 7 4 % ; $ = $ ; : 4 6 w i i y 7 < = ; $ 4 0 4 5 4 4 # # ",
"# # X #   e N x C w   : 7 ; = # : N x N 5 . $ # 4 g p i i y i i g 6 # ; ; $ $ : 4 w s i w y i g 6 = $ $ t g s s i s ; . ",
"# # X # $ ; < < 4 : $ ; ; ; = % ; 4 2 < ; $ : < 4 4 q i i y i y i 0 $ ; ; ; $ : 4 4 5 w i y y s 6 + : 4 5 4 0 y s x ; . ",
"# # # # ; $ # $ $ $ # $ $ $ $ ; % # $ $ $ % < 5 4 : q s y i y y i 5 $ ; ; $ # ; 5 2 : q i w w g 5 O , 0 < : 5 w h ~ ; . ",
"# # # # # = ; $ $ : 4 4 4 4 4 - $ : : = ; $ > 4 4 4 9 q w i s p g q $ = ; : ; , 4 6 6 p g s i 7 4 ; : : 6 0 w g y y $ . ",
"# # # # . = ; $ . < g p i s i o $ 7 2 = = $ > 4 4 4 : : q i k x c y # ; % 4 6 4 : q i h x ~ g . ; w ; . w g h | 8 . # # ",
"# # # # # $ $ 4 0 q i y y i w 6 4 : ; % ; # : 4 4 3 6 q p g k l c y # ; $ 3 4 6 q i g k g 0 4 $ ; : ; * < 4 4 q : # # # ",
"# # # # ; $ $ w g i y i y y i g w # = ; % # < 4 4 3 q a l x l k N y $ = # < 4 7 i g x x h $ # - % $ $ $ $ $ # $ # @ # # ",
"# # # # $ : 2 4 5 q y y i y y y y w 4 $ ; = ; * < y p h h k x d : ; $ $ = ; # 5 x k x 5 : ; % $ > w q q q w 4 $ # @ # # ",
"# # # $ $ : 6 4 : 7 p y i y y y i s 6 $ - ; $ # < i g x k l x p O # - - ; # O 4 c h z : + ; ; # 4 g i p i s 0 - $ # # # ",
"# # # ; 4 4 4 4 2 0 s i y y y y y s 6 # : 5 ; = ; # y J x x N g = = $ : 4 ; $ = & = = ; ; $ ; < 0 p i i y i w p ;   # # ",
"# # ; : 5 4 4 4 2 7 w y y i i y y p 0 # : 4 ; $ = + 0 g p p g y $ ; $ 3 0 2 : : : ; : ; ; $ ; 4 0 w w w y y i s 4 # # # ",
"@ # 4 4 4 4 4 4 4 2 : 6 y w w w w i 5 = $ $ # # # $ $ # # # $ = # $ # 0 s i i i i i p ; # $ % 5 4 > 4 4 w i y w y i ; . ",
"# # 4 4 4 4 4 4 4 4 6 y g p p s s g 0 # ; : > < 4 4 : $ = $ ; - : ; % 6 i y y i i y i 6 < ; % : < 4 4 2 y y i s s g ; . ",
". $ 4 4 4 4 4 4 : 6 i g x x x l x ~ i . : 6 p g s g < # ; ; = $ 5 5 4 y p y i y y i y s i : = # ; 5 2 > q w s x x x ; . ",
"# # ; : 5 4 4 q q y g h l k l x s 0 < # 1 4 7 6 q p q 6 ; $ $ ; 4 4 4 5 7 w i y i y y i w : = # ; 4 7 q s g g l l x ; . ",
"X # # ; 4 4 4 w i g x x l l l c s # # $ : 6 < : 5 i i s : $ $ ; 4 4 4 2 : w i y y w y i i : = # ; 4 w p l x k l l x ; . ",
"# # # ; 4 4 4 w r p x l h k h 4 : = = $ ; = 0 w i k g k : $ : < 4 4 > q w g l g g h k 4 ; = = $ % # w k l l l l l x ; . ",
"# # # ; 0 4 1 q w p x h h x x $ # $ $ % $ # r g g x k x : # 4 4 4 4 : 0 i h x l k x x : # = % $ %   y ~ k h l l x J :   ",
"# # X # , 4 7 i s g x l l i q ; $ $ $ # # # 4 4 u x l x : # 4 4 4 4 6 w s h k l l l x : # # # $ $ # 4 y g k l x p t = . ",
"# # X # + 0 g k x k h x J : . ; % ; $ O # X # O 5 ~ c J > # 4 5 : 6 y g x l h l l x J 4 # # # ; = ; $ + g J c H 0 . # # ",
"# # # # # : < g x l x y 4 % # # # # # # # # # # : 0 6 5 $ # ; : q y g h k l l l x w > ; # # # $ # # $ % 4 0 9 q : # # # ",
"# # # # # # + f N x Z 4   # # # # # # # # # # # # # # # # # # : p g c x x x x x J <   @ # $ # # # + # ; $ # $ $ # @ $ # ",
"# # # # # # # % ; ; : # # # # # # # # # # # # # # # # # # # # # ; ; : ; ; ; ; ; : # # # # # # # # # # # # # # # # # # # ",
"# # # # # # # . . .   @ # # # # # # # # # # # # # # # # # # # # . . . . . . . . . # # # # # # # # # # # # # # # # # # # "
};
