/* XPM */
static char *xpm_[] = {
/* columns rows colors chars-per-pixel */
"60 60 238 2 ",
"   c #010002",
".  c #02010B",
"X  c #0C040B",
"o  c #0E0C0C",
"O  c #0A0103",
"+  c #110B0D",
"@  c #12070F",
"#  c #010014",
"$  c #0D0B13",
"%  c #03001C",
"&  c #09011F",
"*  c #0B0312",
"=  c #130E13",
"-  c #120D19",
";  c #151215",
":  c #181316",
">  c #16141A",
",  c #19151B",
"<  c #1B1B1D",
"1  c #17181A",
"2  c #101214",
"3  c #1B201C",
"4  c #22211E",
"5  c #050222",
"6  c #0B0424",
"7  c #0B0925",
"8  c #0D0B2A",
"9  c #070028",
"0  c #120D2C",
"q  c #100927",
"w  c #161423",
"e  c #1C1C22",
"r  c #14132D",
"t  c #19182B",
"y  c #161632",
"u  c #191632",
"i  c #161932",
"p  c #1A1A34",
"a  c #1B1C39",
"s  c #141738",
"d  c #0E0E31",
"f  c #231E21",
"g  c #1E2126",
"h  c #1E223A",
"j  c #1C2136",
"k  c #242424",
"l  c #23242A",
"z  c #262B2E",
"x  c #22243D",
"c  c #252C36",
"v  c #283133",
"b  c #363B39",
"n  c #3B3C3D",
"m  c #333735",
"M  c #29322F",
"N  c #3B403C",
"B  c #1C1C43",
"V  c #1E2143",
"C  c #1E2349",
"Z  c #222544",
"A  c #242A44",
"S  c #232649",
"D  c #252C4B",
"F  c #292E4D",
"G  c #2A2B42",
"H  c #27314D",
"J  c #2B334D",
"K  c #2D3B4C",
"L  c #283245",
"P  c #333B4D",
"I  c #363846",
"U  c #262F51",
"Y  c #282E51",
"T  c #242750",
"R  c #273151",
"E  c #2B3554",
"W  c #2D3955",
"Q  c #2D3759",
"!  c #2D3959",
"~  c #323D54",
"^  c #313D5A",
"/  c #303756",
"(  c #39434A",
")  c #324355",
"_  c #34445C",
"`  c #35495C",
"'  c #394B5D",
"]  c #384855",
"[  c #3D535C",
"{  c #39575E",
"}  c #2E4252",
"|  c #364661",
" . c #364D61",
".. c #3A4C62",
"X. c #3D5465",
"o. c #3D5A63",
"O. c #3D5369",
"+. c #3D5A6B",
"@. c #2D4D62",
"#. c #3F6468",
"$. c #454C5B",
"%. c #43585B",
"&. c #444444",
"*. c #5B675F",
"=. c #425565",
"-. c #415B64",
";. c #41566A",
":. c #435C6C",
">. c #4A5A67",
",. c #475E70",
"<. c #4C5464",
"1. c #436365",
"2. c #45616E",
"3. c #49636F",
"4. c #456C6B",
"5. c #5C6962",
"6. c #54686C",
"7. c #466371",
"8. c #496572",
"9. c #4C6A74",
"0. c #4D6C79",
"q. c #476976",
"w. c #516E79",
"e. c #556D72",
"r. c #4F747A",
"t. c #4D7776",
"y. c #52737C",
"u. c #547B7E",
"i. c #587577",
"p. c #666C6A",
"a. c #6E716E",
"s. c #70726F",
"d. c #6D7170",
"f. c #6A7B7D",
"g. c #647578",
"h. c #727272",
"j. c #55837E",
"k. c #738879",
"l. c #567B82",
"z. c #597D82",
"x. c #527581",
"c. c #707E81",
"v. c #568481",
"b. c #5A8483",
"n. c #5B8985",
"m. c #5E8C89",
"M. c #5D858A",
"N. c #5E928A",
"B. c #599988",
"V. c #648986",
"C. c #63948C",
"Z. c #639B8E",
"A. c #639488",
"S. c #699A91",
"D. c #768C8C",
"F. c #5CA28D",
"G. c #5DA791",
"H. c #63A48F",
"J. c #64A392",
"K. c #6AA494",
"L. c #65AB94",
"P. c #6CAB95",
"I. c #6DAB99",
"U. c #72AD9A",
"Y. c #78A69C",
"T. c #6CB29A",
"R. c #69B498",
"E. c #72B39D",
"W. c #7BB49E",
"Q. c #72BB9E",
"!. c #7FAFA2",
"~. c #7EB5A2",
"^. c #75BCA2",
"/. c #7CBBA2",
"(. c #71B5A0",
"). c #7AC3A5",
"_. c #78C6A8",
"`. c #7DD3AF",
"'. c #849C97",
"]. c #8C928E",
"[. c #89A39B",
"{. c #95AB9E",
"}. c #93ABA2",
"|. c #81B6A3",
" X c #82B9A4",
".X c #8BBAA7",
"XX c #97BBAB",
"oX c #8CA8A2",
"OX c #A1A6A0",
"+X c #8DC2AB",
"@X c #83CCAC",
"#X c #93C3AE",
"$X c #99C3AF",
"%X c #9BCBB5",
"&X c #95C8B2",
"*X c #88D5B4",
"=X c #8BD5B4",
"-X c #A5CAB8",
";X c #B2CDBC",
":X c #A9D3BD",
">X c #A5D8BC",
",X c #B3D4BD",
"<X c #A5E1BF",
"1X c #9BE3BE",
"2X c #ADD9C2",
"3X c #B3DBC3",
"4X c #BBDDC5",
"5X c #B8D8C4",
"6X c #97E8C5",
"7X c #BDE1C7",
"8X c #BDE2C9",
"9X c #B5E4C8",
"0X c #BEEDD0",
"qX c #A8E3C7",
"wX c #C2DDCA",
"eX c #C3E3CB",
"rX c #C9E6CD",
"tX c #CDE6D3",
"yX c #CDE9D3",
"uX c #C6E8D2",
"iX c #D2EBD5",
"pX c #D5EADA",
"aX c #CAF5D8",
"sX c #D3F7DB",
"dX c #D5FEE3",
"fX c #DCFEE3",
"gX c #DFFFEA",
"hX c #D6F4E0",
"jX c #E4FFE9",
"kX c #EBFFEB",
"lX c #E4FBE4",
"zX c #F2FFEF",
"xX c #EDFFF3",
"cX c #F3FEF2",
"vX c #FFFFFF",
"bX c #FEFFFD",
"nX c #FCFFFC",
"mX c #F7FFF8",
/* pixels */
"o O O                                           + o + o                                                             o + ",
"; ( %.5.5.5.p.h.a.5.p.*.p.s.d.a.5.5.d.h.s.d.h.d., o o < h.a.d.s.s.d.s.s.a.5.*.p.s.a.d.d.a.h.d.a.h.s.a.a.h.a.a.a.a.h.< o ",
"e Q.6XkXjXfXmXvXvXdXdXsXxXvXvXvXjXdXvXvXvXvXvXvXe     n vXvXvXvXvXvXvXvXvXdXsXvXvXvXvXvXvXvXvXvXvXvXvXvXvXvXvXvXvXvX&.  ",
"< t.C.+X+X X2XpXtX4X7X4XeXiXtXyX8X7XtXtXtXyXyXyXOX].k.[.pXyXtXyXtXtXyXiXtX4X4XuXiXyXtXtXtXyXtXyXtXtXtXtXtXyXtXtXlXcXn   ",
", =.y.L.J.B.#XrX8XeXeXeXeX7XeX4XeXeX7X8X8X4X3X3XvXvXgXsX4X7X8X7X7X8X8X8X8XeXeXeX8X4X4X3X4X7X8X8X7X8X8X7X7X8X4X,XpXmXI   ",
", J ..y.n.T.W.|.|.~.|. X X X~.|.|.~.~.~.W.#XrXeXtXwX XW.~.|.~.~. X|.W.|.|.~.W.W.~.3XeXeX5X~.~.~.|.~.|.|.~.U.%XeXhXmXI   ",
"> Z Q :.u.E.K.H.J.J.J.J.H.J.J.J.J.J.J.J.B.~.eX4X8X3XK.J.J.J.J.J.J.J.J.J.H.J.J.J.H.2XeXeX:XF.J.J.J.J.J.J.J.B.+XrXpXcXn   ",
"> D ^ 7.u.E.P.I.P.E.Z.9.w.8.C.E.I.P.P.I.I.I.U.U.5X4XI.P.P.I.E.n.2.Z.E.I.P.P.I.P.K.3XeXW.U.P.P.I.I.I.P.P.I.J.#XuXeXyXb O ",
"> D ^ 2.b.^.E.E.E.@XI.8.9.;.A.^.E.E.W.E.E.E.J.J.uXiX^.E.E.E.).n.X.J.^.E.E.E.E.E.T.eXuXE.L.E.E.(.W.E.E.E.E.L.&XrXyXsXn   ",
"> D ^ 9.r.m.n.m.v.%.[ | :.9.u.m.b.n.n.n.b.A.U.P.[.'.n.b.n.n.m.y.7.j.n.n.n.n.n.n.n..X&XV.v.n.b.n.n.n.n.n.n.t.oXsXXXY.v X ",
"> D _ y.0.8.9.x.:.O * S ` u.0.8.8.8.0.9.:.u.).^.q.O.8.8.8.7.:.8.9.8.8.8.8.:.2.:.:.J.L.7.:.0.q.:.3.8.8.8.2.` [.cXS.@.g = ",
"> F Q _ _ | K z z = e E / ` _ _ _ _ c c _  .+.+.` _ _ _ ^ ;.w.9.w..._ _  .9.9.9.0.u.v.y.:.g ( l.O.! ) _ 8.8.z.Y.,.! e = ",
", J Q F F E t O o + e Q R F F U Y F @ = F D C S D D F F Z _ y.9.w.^ D S E 9.0.9.9.7.7.x.%.  c M.| S D F 7.y.7.#.! S w ; ",
"$ , , > > - = . X ; , < w > > > ; - X X = = > - $ $ $ - w e g e < > - - - > 2 w , 1 , , > O $ > , , , > , w > > , < + o ",
"o ; , 1 < < k z l > > ; ; < < < e g k l < 3 e < k k k f ; = = = > < < e e f 4 < < < < f k z l 4 , ; > < < < e k , = + o ",
", A ^ 8.z.J.XXiX-Xp 0 7 J y.8.2.Z.Q.eX7XI.I.J.K.2XeXsX{.# 7 0 _ 9.Z.E.H.W.eXiX.XH.J.U.4XeXeX4XsXe.# X.u.K.L.$XjX$.. > : ",
"> H ^ +.y.T.%XgX;Xp r y ~ l.0.9.C.I.:X-XJ.K.E.T.:X4X0XXXP J 7 ] y.C.I.Z.U.-X2X!.Z.L.W.2X3X2X7XjXg.#  .9.Z.Z..XsXf.J e = ",
", F E B -.Q.%XlX;Xu s R ..y.9.8.8.8.:.:.:.u.^.E.R.T.G..XmX'.. _ u.8.7.7.8.2.:.2.7.K.^.T.L.B..XcXg.# Z R :.:.v.G.:XjXn O ",
"> F E S X.N.!.9X.Xu s U  .y.9.9.9.8.9.8.3.r.C.N.N.N.n.S.0XV.# _ x.9.8.9.8.8.9.8.9.n.C.m.C.J.|.9X6.% A Q 7.7.n.L.-XsXb O ",
", J E D _ :.v._.B.y p F  .r.0.y.y.y.y.y.y.w.:.,.9.w.8.z.`.t.# ' M.u.y.y.0.9.8.0.y.3.2.:.u.^.P.T.{ 5 A E 2.8.n.L.2XjXn O ",
"> H Q D _ 0.u.C.y.u p U ' y.X._  .`  . ._ X.0.9.~ J J } 1.K 8 A ~ K K _ X.9.w.=._ 8.9._ X.b.C.).{ & A W 2.7.n.Q.Y.[.v X ",
", F E D ` u.8.8.=.r a F ' b._ C D D D D S _ l.r.p 5 5 % # % 7 % # 5 0 Z ! y.u._ V 8.r.S R :.l.*Xo.% D E 8.9.A.@Xr. .g = ",
", J E H E / X.u.2.r p E W _ W R E J E J a x A A r h t.C.}.}.}.}.XX~ 9 p h A A F E ^ _ F ^ 9.0.m.) 7 D Q ~ ^ ` ' 2.y.l @ ",
"> E ^ W Q Z O.M.9.r a ! E U E W E E ^ F % # # # 7 c Q.1XcXgXfXfXcX$.% 7 5 # # V _ R R Y _ l.y.l.~ 6 F ! R R U B :.b.e O ",
"> A D D D Z W -.] y p D A A D D D A Z J >.<.<.<.p a u.A.oXXX:X-X9X] 5 K ] %.>.P Z A A Z J [ ..+.L q Z D A A A Z _ -.v l ",
"o r y 7 & % 5 # % % % & % & % # q u % I jXjXjXjXI 5 A T d +.`.Q._.L 5 K.=XsXmX$.  r r % % % # . % 6 % # # # # # # . =.i.",
"; r a ~ ] 1.1.o.1.f.g.o.-.o.i.D.G 0 y ) &X&X&X&X~ s Z Z a K 4.1.4.L V N. X4XyX'.i.x y -.1.o.6.D.6.{ i.c.f.f.f.f.f.f.( c ",
"> 7 h y.C.*X_.).=XzXsX_.).T.aXvX$.% S _ L.L.R.T.O.Y u r y 0 9 5 5 S _ K.@XtXeXdXjXI 8 ).*X_.<XnX2XL.aXkXjXjXfXdXfXjXm   ",
", x W 9.y.b.u.u.z.D.V.r.N.).i.<.h r ..8.b.r.=.:.A a w w w w w w , p V ' 9..X X3XyXI 8 u.b.r.C.&X~.K. X+X.X X-XeX8XuXb O ",
"> H _ 0.8.:.2.2.2.+.:.;.b.*X} . 8 p 0.y.0...B S u r ; ; ; : ; > ; r y B E J.F.>XsXJ 7 2.8.;.u.L.P.U.L.J.J.B.+XiXeXuXb O ",
"> D ^ w.9.9.0.0.9.9.8.y.X.A h r r r y a | E p a w > ; > > > > ; ; > > y V '  .W G 0 7 a K 0.y.u.y.r.y.u.t.9.A.E.:XsXb O ",
", D ^ 8.7.3.8.8.8.9.8.y.~ % r p a h j x R Z w y > ; ; > > > ; > > ; : w y Z D y 7 x x 7 h 0.2.:.2.7.,.:.2.:.j.G.%XyXm O ",
"> J E E Q E E J ~ y.8.W A r p r ' y.eX-Xy r ; > > > > > > > > > : > > ; , i 6 t.E.3X;Xp y W E F X.l.) U 8.8.N._.E./.M X ",
"> S F J F J R D Q 8.X.A Z r y r X.l.9X-Xy w : > > > > > > > > > > ; ; : , y 9 u._.uX4Xa y R F D ' 9.W D ;.:.y.Z.Z.J.z X ",
", r a / W Q W Q Q E D r y y y 0 -.z.T.N.y r ; > > > > > > > > > > > > > , y 5 j.@X8X5Xp y ! W / E E Q ! E R R S :.z.l @ ",
"; r a A A A A A A A x r u p y r ) 2.I.A.y r ; > > > > > > > > > : > > ; > y 8 +.n.3X5Xp y A A A A A A A Z A A Z } X.< = ",
"+ r r 7 5 % 7 u r r y y y y r y V R E.K.y r ; > > > > > > > > > > > > ; , i r a B 5XyXx 6 # % u r r 7 5 % & % # # # o o ",
"; h D ) [ t.K q i u y y i i p r S W m.y.y r ; > > > > > > > > > , > , ; , y r Z J |.#Xy x '.>.7 u r J ] 1.#.i.D.D.D.e o ",
"> F | y.C.6X1.. 7 y i i y p u y D / 0.:.9 6 ; > > > > > > > > > ; > ; ; > 8 9 Z Q J.T.5 ( vXoX  0 0 :.M.^._.qXkXfXjXN   ",
"> D ! :.y.^.3.x L p y u y y u r Z R :.:.P c ; > > > > > > > > > ; > ; > t A A D D n.A.7 P sX'.x x 8 ] 9.Z.Z..X4X4XuXb O ",
", J E D _ +.oXkX;Xp r y y y i y y y % G kX[.. 5 ; ; ; ; > ; > ; ; ; : 5 h I._.L . r i & A R.&XzXg.% A Q 7.7.b.L.:XfXb O ",
"> J E D ) :.Y.aXXXp r y y i u y y y a ] 9XoX] %.e - > > > > ; > ; , w h ) I.^.e.$.p r x ) B.!.aXe.% A E 2.7.n.L.#X3Xm . ",
", F E F _ 8.m._.Z.p r i y i u y r p 0.V.F.+XcXjXG # ; : ; ; : ; ; q y 7.b.E.L.0XcXI 6 l.l.;.u.`.o.% D W 2.3.n.E.I.R.v X ",
"> J E F _ 9.u.S.u.p r y p y y y y p _ :.v.S.-X&Xt.] t w w w w w w a Z :.y.n.v.|.>XL 8 ' :.8.y.K.] & D Q 2.7.n.Q.C.m.z X ",
", F E D ` l.9.3.=.i r y y y y y y i S ! ,.l.R.L.=X_.y 6 9 9 % 5 # S | 9.y.9.:.J._.c 7 Z ! u.9.0.J 7 S / 9.0.N.`.u.:.g @ ",
"> F E R W _ :.y.2.p r y p y y y u y a Z ) :.n.b.[ ) _ X.t.V.[.'.[.~ y _  ._ _ ] ] F Z R E _ O.l.K 7 D Q _ ^ 2.m.y.0.g @ ",
"> J Q E R Z ..z.7.p y s y u y y i y r y S W w.8.8 q 0.m.).>XkXsXxX$.% D R F E 0 % H ^ Q E C _ M.~ 7 D Q U Z  .0.0.y.l @ ",
"$ i p a p y a h a 8 q 0 0 8 r s y y y y a h A A y p W _ ' ..$.C.=XP 6 a a a a i y p p y y y i a y q r y y y y a a a = o ",
"+ y y y y p p y p x h a h x p y u y i y r r 0 0 r p D D Z C d 4.^.K q r r y r u y t p a a a p p p j a p j x p p p p $ o ",
"> D E S ) ,.b.L.U.rX:XB..XjX6.# y p i i u y s y y p i i p p p a h p y 5 9 y p y r X.y.K.P.F..XiXXXF.J.J.,XwX5X5X,X5Xm O ",
"> R Q F | 0.n.I.U.5X%XB..XsXe.d p y y y y p u y p y u r r r y y 0 r i P P p r p p :.u.K.P.J..XeX.XZ.I.E.2X8X9X4XuXsXn O ",
"> F Q F _ y.8.8.8.2.7.8.8.2.9.y.h 5 u p y y y s r y y i p y u r 8 7 r yXeXy 8 D W 2.0.8.8.8.7.7.8.:.J.^.T.T.L.B.:XfXb O ",
", J E F _ y.9.9.8.8.8.9.8.8.9.w.) A p y p y y y i s y y u i r x J A J -X$Xy 0 A E :.0.8.9.8.8.8.8.8.n.Z.N.C.S.J.#X3Xm . ",
"> F E F _ y.8.9.9.9.0.9.9.9.9.9.y.y.j r y y u y y y u u u y 6 ' M.x.u.L.N.r r A Q 7.w.0.9.9.9.9.9.0.7.:.7.;.b.^.L.L.c X ",
"> J Q D _ w.8.9.8.8.9.9.9.9.8.9.0.8.p r y p y y y i i i y y 8 ] y.8.9.E.Z.i r S Q 2.0.8.9.9.9.9.9.9.8.9.8.,.n.E.I.E.v X ",
"> R Q R E J O.u.8.W W R X.l...D 2.0.a u H J H H J H F J S _ y. .Y 2.y.u.8.r r D ^ W / / W R ..u.X.D 2.y._ F =.r.S.).v X ",
"> D R E R S ' 0.:.H D S _ y._ Z 2.9.p y Q E E E Q E E E F  .u._ C X.9.9.:.u r A R F F F F Z _ y._ C X.8.E C ` 8.m.E.c X ",
"> y a W E Q Q Q Q E ! Q Q Q Q E 0.l.a y ! ! Q ! Q Q Q Q Q Q W W Q Q ! x.0.r u y y R ! ! Q Q Q W ! Q Q W Q Y O.l.y.l.l o ",
"; r t A A A A A A A A A x Z A x ] [ t r A A A A A A A A A x A A A Z A %.] r r r r x A A A A A Z A A A A A x P -.[ [ w = ",
"o ; ; = ; = = = ; = = ; ; = = ; @ o o o + = = = = ; = = = = ; = = ; = = o + o ; ; ; = = ; ; = ; = = ; = ; ; = o @ o o o "
};
