/* XPM */
static char *exit_closed_601702918184[] = {
/* columns rows colors chars-per-pixel */
"60 60 117 2 ",
"   c #000000",
".  c #080A05",
"X  c #06040B",
"o  c #08050E",
"O  c #0B1106",
"+  c #0D130A",
"@  c #10160B",
"#  c #0A0613",
"$  c #0B0815",
"%  c #0F071C",
"&  c #0F081A",
"*  c #100718",
"=  c #11091D",
"-  c #141710",
";  c #171F10",
":  c #16220E",
">  c #172211",
",  c #1A2412",
"<  c #1F2F15",
"1  c #1E2918",
"2  c #212F16",
"3  c #222B19",
"4  c #253417",
"5  c #26331B",
"6  c #29351D",
"7  c #140C24",
"8  c #170D28",
"9  c #190E2C",
"0  c #1A0F31",
"q  c #1C1033",
"w  c #1F1339",
"e  c #201236",
"r  c #22133B",
"t  c #2A3620",
"y  c #261643",
"u  c #281646",
"i  c #291749",
"p  c #2B194B",
"a  c #311C57",
"s  c #341D5D",
"d  c #371E60",
"f  c #381F62",
"g  c #372066",
"h  c #3A2066",
"j  c #3D236C",
"k  c #3E2370",
"l  c #40246F",
"z  c #412573",
"x  c #44267A",
"c  c #48277D",
"v  c #45287C",
"b  c #48287D",
"n  c #62943F",
"m  c #659543",
"M  c #699947",
"N  c #6C9D4A",
"B  c #709E4E",
"V  c #759E53",
"C  c #72A24C",
"Z  c #79A74F",
"A  c #74AE4B",
"S  c #7DAD4E",
"D  c #74B04C",
"F  c #7AB34F",
"G  c #75A253",
"H  c #7AA554",
"J  c #7EAD52",
"K  c #7AA45A",
"L  c #7EA95A",
"P  c #77B251",
"I  c #7CB454",
"U  c #7FB658",
"Y  c #82AB5C",
"T  c #81B757",
"R  c #84BC55",
"E  c #81B759",
"W  c #83B95B",
"Q  c #89BD5E",
"!  c #82A762",
"~  c #82A862",
"^  c #86B263",
"/  c #8CB466",
"(  c #87BB61",
")  c #8BBC62",
"_  c #8EB768",
"`  c #8DBE6A",
"'  c #92BE6C",
"]  c #87C056",
"[  c #8CC25D",
"{  c #90C45F",
"}  c #92CA5C",
"|  c #8EC261",
" . c #92C565",
".. c #94CC62",
"X. c #9ACF67",
"o. c #92C469",
"O. c #97C96C",
"+. c #99CB6D",
"@. c #9CD16C",
"#. c #9AC772",
"$. c #98C872",
"%. c #9FD170",
"&. c #A6D577",
"*. c #A6D579",
"=. c #A8D679",
"-. c #482780",
";. c #4C2A85",
":. c #4E2C8B",
">. c #502C8D",
",. c #522E90",
"<. c #56319A",
"1. c #59339D",
"2. c #5B34A2",
"3. c #5E36A8",
"4. c #663AB6",
"5. c #653BB9",
"6. c #683BB9",
/* pixels */
"} } } [ E N +                                                                                             + C W [ } } } ",
"} } } Q E B +   7 ;.                    q x                     7 z #                   9 k X             + C E ] } } } ",
"} } } [ E V +   8 :.    X 7 X           w c     o 7             7 v $   # 9             q x X   X 8       + V E Q } } } ",
"} } } [ W V +           7 ,.$ o X         X     w ;.o o #         X     u 1.o X X               9 1.  o o + H [ ] } } } ",
"} } } | ) V +           X *   j a               X &   x z               X *   h f               X *   z v @ F } } } } } ",
"} } } [ ) V +                 7 =                     9 8                     8 7                     9 8 @ T } } } } } ",
"} } } | ) V +   $ p p $   X y $         = p p %   X y #         $ p p $     i =         & p p #     p $   @ Y } } [ [ [ ",
"} } } | ) V +   q 4.4.9   # 1.w         y 4.4.p   = 2.8         8 4.4.r     3.y         r 6.4.8     4.9   O S } [ W W Q ",
"} } } [ / V + c c $ $       $ X       j j $ $ X     o         b -.$ $       #         f x $ $       $ X   @ S } Q E W W ",
"} } } Q ( V + w q       = f $         9 9       7 f X         e w       w z X         9 9       7 l       @ T } [ T W W ",
"D A A I W B +           = f #                   7 d X                   0 z X                   7 j       @ Z } { W W W ",
"A A D I W B +                     X , , , , , , 1 , 1 , 1 , , , > > > > : , 3 , > ;                       @ S } [ E W W ",
"A A S I Q N +                     , ' o.W ( W | ......} } } E W W I A A R } } } Q G                       @ T } { T E E ",
"] R R Q _ V +   = j               , ( ( [ [ [ } .... . . . .) ` ` U I U ] } } } E G     7 a X             + H  .{ [ [ [ ",
"} } }  .' V -   7 c     X w X     , E E } } } ...... .' ' ' ' ' ' ) W U [ } } ..W G     9 j X   o r       @ G ) [ } } } ",
"} } } } o.K +           7 :.$ # X , E W } } } } .... .' ' ' ' ' ' ) W Q ] } } } W G             9 <.  $ $ + V ) { } } } ",
"} } } }  .H @             $   k s > U U | [ [ ........) ) ) o. ...[ [ Q ] ] ] ] E H               #   x v + H  .[ [ [ [ ",
"} } } } } S +                 % & > I P W U ] | ....[ U U W } } } } } } R A D A E G                   7 7 @ J ..} W W W ",
"} } } } } Z +   X w q X   X 8 $   > I I W W U } ....[ U E U ..} } } } } ] D A S E G     # q 0 X     q X   + J ..| W W W ",
"} } } } } S +   0 4.6.9   # 1.w   > I P W ( W | ..X.| U E U } } } } ..} R D D A E G     r 4.4.9   X 4.q   @ I ..| Q W W ",
"=.=.=.+.} S @ >.;.                , ( W A D D  .*.*.+.] W W ..X...%.=.*.@.} } } ) K   j v                 @ I ..........",
"=.=.&.+.} S + 8 7       = x $     , W W A A D  .*.*.+.W W W ......%.*.=.@.} } } ) K   = 7       7 ;.      @ J ........} ",
"=.=.=.X.} S +           7 b $     > W W A D D o.*.*.+.U W W } ....@.=.=.@.} } } ) K             7 ;.      @ P ....| ....",
"@.+.X.{ R N +                     , W W o.| | o.o.o.| W W U ] U U | o.o...} } } Q G               X       + G | | | | | ",
"} } } E P M .                   X > U ( *.*.*.o.W Q W W W W D A A I W W [ } } } E G                       + C W W W W W ",
"} } } R I M O   7 c               , W ] *.*.*.O.U W W U W W D A D U W W ] } } } E G     8 j X             + B W E W W W ",
"} } } [ R C +   = j     # y X     , W W O.+.+.| | | | ( ( ( P I I U E W [ } } } E G     7 s X   # u       + L o.` E W W ",
"} } } } ..J +           9 2.&     , W W W U W | ....o.` o.o.W W W W E U ] } } } U G             q 4.      @ ) =.+.W W E ",
"} } } ....J +             #   l s > W W W W E [ ....o.' ` o.W W W W U U ] } } ..E G               #   c -.- _ *.+.Q E W ",
"} } } } ..J +                 0 7 , Q E W W W | ....o.` ' ` E ( W U W W [ } } } W G                   w e @ _ *.+.Q Q E ",
"W W E [ } S O   $ p u #   X r $   , ....W W E Q ) Q W Q Q W A A D | *.&.O.W W E o.~     & y y #     i #   + H ) ) } } } ",
"W W W [ } S + o r 2.2.7   # :.w   , ....W E Q ( ) ) ( W W W A A A o.*.&.$.W W Q ' ~   X y 2.2.7     2.8   + G ) ) } } } ",
"Q E W [ } S @ >.;.                , ....Q E W Q ) / Q E Q W A A D  .=.=.+.W Q W ' ~   j v                 + V ) | } } } ",
"` ` ` Q [ B + r r       & d #     , [ [ [ | [ Q Q Q Q [ [ [ I I I Q o.o.) U U U ) H   9 q       & j       + H ..| | [  .",
"' ' ' ) W B +           = j #     , W W } } } [ W E [ } } } W W W W W W U I P I E G             7 c       @ F }  .) ( ) ",
"' ' ' Q W N +                     , W R } } } ] W R [ } } ..W W W W W W U P J I Q G                       @ S } { ) ) ) ",
"#.#.$.o.| G +                     , [ Q [ [ [ Q W W [ } } } W W W | o.o.) U U I W G                       @ S } [ Q Q Q ",
"=.=.%.@...P +   9 :.              , } } T E E W W E [ } } } E W U O.*.*.+.E Q E W G     9 c X             @ S } [ W W W ",
"=.&.*.+...J +   7 ;.    X q       1 } } E E E W Q E W } } [ E U U +.=.*.O.W U E E G     9 z X   o 9       @ S } [ E W W ",
"&.&.&.@...P +           9 2.=     , } } U E E E W W [ } } } W W W +.=.&.O.U U E W G             q 4.      @ S } [ W Q W ",
"Q W Q | ..J +                 -.j , R E I P I U W W | ......' ' ' ..} } [ T E E W G                   >.>.@ F } { ) ` ) ",
"U W E [ ..J +                 7 % > U W I P I E W E [ ......o.' '  .} } [ E E E W G                   7 7 @ S } { ) ( ) ",
"W W W | ..J +   X 9 9 X     7 X   , U W P I P E W W | } ....o.' '  .} } [ T R E W G     o 9 8 X     9 X   @ F } { ) ( ) ",
"E W W R R N + # w 1.1.8   # :.q   , $.O.P P P E [ [ [ Q [ [ ) ) ) ) Q { [ [ [ [ +.^ X X y 1.1.7     1.9   @ H | W T U U ",
"W W W I A n O k c = =       & X   1 *.&.A A A ] } } [ Q W W W E E ( ) ) { } } } =.'   s l * * X     *     + V ) E A A A ",
"W W E I A m O 0 8       = z o     1 *.*.A A A ] } } [ W W W E W W Q ) ) ) } } } =.'   7 7       7 c       + H ) E A A A ",
"W W E U J m O           * s #     1 *.&.F F I [ @.X...) [ ]  .o. . .)  .{ } } } &.'             = j       + B E E F P P ",
"W W W E W B +                     1 *.&.W R E $.=.=.@.} } } =.=.=.X.} } } } } ..=.'                       + M J T E E E ",
"W W W W W N +                     . t 6 2 2 < 6 t t 6 4 4 5 6 t 6 6 4 4 4 4 4 5 6 3                       + M P U E E E ",
"W W W W W G +   = z                     9 h                     % f #                   7 h X             + M I I E E E ",
"} } } [ Q G O   = k     # r X           9 h     $ r             % h #   = u             7 h X   $ y       + B W U A J A ",
"} } } | ( V +           7 ,.* X X               w >.# # o               p 2.X # X               9 2.  X o + C W I A A A ",
"} } } | ) V +                 v h                     >.;.                    x z                     :.>.+ V E U A A A ",
"} } } X.+.Y +                 w 9                     r r                     0 9                     w r @ C E E I I I ",
"} } } +.=./ @   o w w o     q #         $ r r $   X q X         X r w #     w #         $ w r o     w X   + B W W W W W ",
"} } ..%.*./ @ $ r 1.2.8   # :.q       # p 1.1.r   & :.7       o r <.<.q     >.w       # y 1.<.7   X 2.8   + B W E W W W ",
"} } } {  .H + c x # $     X X         j j $ $ X     #         x c $ #       $ X       f z $ $       $ X   + G W W ( ) ) ",
"} } } R A n O 7 =       = c #         & &       9 x #         7 7       r >.o         $ *       7 :.      + B E ) o.o.' ",
"} } { R D n O           7 x $                   9 z X                   r ;.X                   7 ;.      + C W ( ' ' ' ",
"} } } F D n O                                                                                             + B E ) ' ' ' "
};
