/* XPM */
static char *explosion_601702983950[] = {
/* columns rows colors chars-per-pixel */
"60 60 235 2 ",
"   c #7A0202",
".  c #7F0F0D",
"X  c #7B1511",
"o  c #7B2C16",
"O  c #773536",
"+  c #7D5430",
"@  c #7E6632",
"#  c #765251",
"$  c #786B6B",
"%  c #747373",
"&  c #7D7D7D",
"*  c #787674",
"=  c #777468",
"-  c #8A0101",
";  c #930101",
":  c #9C0100",
">  c #970B09",
",  c #97160A",
"<  c #971714",
"1  c #861918",
"2  c #A30000",
"3  c #AB0101",
"4  c #A60C06",
"5  c #B30100",
"6  c #BB0100",
"7  c #B80A06",
"8  c #BA1503",
"9  c #AF160F",
"0  c #8D2F14",
"q  c #B13117",
"w  c #9C3A3A",
"e  c #8E2828",
"r  c #B92C23",
"t  c #B83627",
"y  c #A8322B",
"u  c #C30101",
"i  c #C70904",
"p  c #C4130A",
"a  c #C71305",
"s  c #D31A03",
"d  c #D72806",
"f  c #DA3509",
"g  c #CD3411",
"h  c #E13C09",
"j  c #C33B21",
"k  c #85562B",
"l  c #904D30",
"z  c #A44538",
"x  c #AA532C",
"c  c #856734",
"v  c #966838",
"b  c #85783A",
"n  c #9B793A",
"m  c #B16C37",
"M  c #B05A1F",
"N  c #DB430D",
"B  c #DB4916",
"V  c #D95310",
"C  c #E54B0A",
"Z  c #E6490B",
"A  c #E8580D",
"S  c #E04610",
"D  c #E45A15",
"F  c #EE620E",
"G  c #EE6A0F",
"H  c #F1660E",
"J  c #F26E0F",
"K  c #F6750F",
"L  c #E86918",
"P  c #EB7817",
"I  c #F47411",
"U  c #F47B12",
"Y  c #FB7E12",
"T  c #F17719",
"R  c #F36B10",
"E  c #C65529",
"W  c #C84C24",
"Q  c #D06C2B",
"!  c #E16C23",
"~  c #E67A25",
"^  c #DE771B",
"/  c #A13F40",
"(  c #8C524C",
")  c #8A5655",
"_  c #855C5C",
"`  c #8F5151",
"'  c #897A42",
"]  c #8E735E",
"[  c #906B52",
"{  c #AB6653",
"}  c #9B6667",
"|  c #887977",
" . c #8C716A",
".. c #B25A5A",
"X. c #73AE4B",
"o. c #76B14C",
"O. c #7CB454",
"+. c #7FB658",
"@. c #7DAE5C",
"#. c #7B8B5E",
"$. c #FB8313",
"%. c #FC8C14",
"&. c #FB8D1A",
"*. c #F58716",
"=. c #FD9415",
"-. c #FE9B15",
";. c #FC971C",
":. c #EF8B17",
">. c #FEA416",
",. c #FFAB17",
"<. c #FDA41A",
"1. c #FFAD19",
"2. c #F6AB1A",
"3. c #FFB417",
"4. c #FEBC16",
"5. c #FFB31C",
"6. c #FFBA18",
"7. c #E9882A",
"8. c #EB9526",
"9. c #FB9B21",
"0. c #F39629",
"q. c #E99833",
"w. c #FCAC24",
"e. c #F9A929",
"r. c #FEB422",
"t. c #FEBB25",
"y. c #FDB22C",
"u. c #FDBD2C",
"i. c #F6BA24",
"p. c #EEAB39",
"a. c #E9A536",
"s. c #F2AC34",
"d. c #F5B837",
"f. c #EDA42F",
"g. c #D99034",
"h. c #FFC317",
"j. c #FECA17",
"k. c #FFC31A",
"l. c #FFCD19",
"z. c #FFD217",
"x. c #FFD31B",
"c. c #FEC42C",
"v. c #FECB2D",
"b. c #FFCA23",
"n. c #FFD623",
"m. c #FFD922",
"M. c #FFDC2A",
"N. c #FFD42B",
"B. c #FECD33",
"V. c #FBC436",
"C. c #FED135",
"Z. c #FFD639",
"A. c #FEDB3C",
"S. c #FCDA35",
"D. c #FFE22F",
"F. c #FEE433",
"G. c #FFEA3C",
"H. c #FEE639",
"J. c #81994B",
"K. c #93934E",
"L. c #82BB54",
"P. c #82B759",
"I. c #83B95B",
"U. c #88BC5F",
"Y. c #92B659",
"T. c #8FAB52",
"R. c #89936F",
"E. c #A78F76",
"W. c #8BBB63",
"Q. c #8CBB69",
"!. c #92BE6B",
"~. c #99B866",
"^. c #8FB574",
"/. c #99BB79",
"(. c #94AB67",
"). c #A2975C",
"_. c #C79040",
"`. c #8CC25D",
"'. c #91C55D",
"]. c #92CA5C",
"[. c #8EC262",
"{. c #92C564",
"}. c #94CC61",
"|. c #9ACE67",
" X c #92C46A",
".X c #9ACC6B",
"XX c #98C76C",
"oX c #9DD16C",
"OX c #9AC572",
"+X c #9CCA73",
"@X c #9EC17B",
"#X c #A1C779",
"$X c #A5D577",
"%X c #A6D579",
"&X c #A8D57A",
"*X c #A3C06E",
"=X c #FBD944",
"-X c #F6C844",
";X c #FEE443",
":X c #FFED44",
">X c #FCE74B",
",X c #FDEB4B",
"<X c #FFF146",
"1X c #FEF44D",
"2X c #FFF84F",
"3X c #FEF651",
"4X c #FFF951",
"5X c #848484",
"6X c #8C8D8C",
"7X c #959594",
"8X c #9B9B9B",
"9X c #989896",
"0X c #918D8D",
"qX c #A89494",
"wX c #A68C8B",
"eX c #9BB588",
"rX c #A2BC8A",
"tX c #A6B39C",
"yX c #A7B897",
"uX c #AEA09F",
"iX c #A4A4A4",
"pX c #ACACAB",
"aX c #ABA4A3",
"sX c #B0AEAF",
"dX c #ACB4A5",
"fX c #AEB2AB",
"gX c #ADB9A2",
"hX c #B0B0AE",
"jX c #B1AFB0",
"kX c #AFB1B0",
"lX c #B0B0B0",
"zX c #AFAFB1",
"xX c #9FC281",
"cX c #A6C687",
"vX c #ABC393",
/* pixels */
"].].].`.L.I.`.}.}.}.&X$X%X%X%X&X XX.X.o.$X$X%X+XQ. X' J.P.I.}.}.}.L.X.X.L.}.}.}.I.I.+.W.I.I.`.].].].I.I.I.I.I.I.`.].].].",
"].].].`.P.P.`.}.}.}.%X%X%X&X&X%X[.X.X.o.%X$X$XOX!.Q.' J.U.I.}.}.}.L.X.X.`.}.}.}.L.+.+.+.I.I.U.].].].I.I.I.I.I.I.`.].`.].",
"].].].U.P.P.[.}.}.}.$X$X%X&X%X$X XX.X.X.$X%X&X.X!.!.' J.I.I.}.}.}.yXdX@.+.}.}.}.+.I.+.I.I.I.`.].].].U.P.I.+.I.L.`.].].].",
"].].].`.W.W.`.].].}.$X$X%XoX.X|.[.O.+.O.oX|.$XyXyX+X' J.I.I.}.}.XXfXpXtX[.].].].I.I.I.I.I.U.[.oXoXoXI.I.I.`.`.[.`.].].].",
"].].].{.W.W.`.].].].$X$X&X|.].].[.I.I.+.}.}.eXfXjXcX' o I.P.}.xXdXkXlXlXOX].].].I.I.I.I.I.I. X%X%X%XL.+.I.`.].].].].].].",
"].].].[.W.W.`.'.'.'.$X$X&X|.'.].`.I.+.I.}.+XdXkXlXgX'   tXtXyXfXlXlXlXlXOX].].].I.I.+.+.+.I. X%X%X%XI.O.I.`.].].].].].].",
"].].].`.W.W.U.`.`.k T.XXXX|.|.|.}.W.W.W.[.OXzXzXjXlX}   } lXkXlXjXlXsXlXgX/.`.`.`.`.`.`.[.[.}.oXoXoX`.`.`.`.].].'.`.`.'.",
"].].].`.W.W.U.P.I.c X o I.XX&X&X+X X XQ.W.tXkXzXlXlX} 2 ..lXlXlXkXsXkXsXkXdXtX^.}.].].].}.}.].].].}.].].].].].].[.I.L.I.",
"].].].`.W.W.U.I.I.J.1 : x ' $X&X+XQ.Q. XeXfXlXlXlXlX} 3 r sXjXjXkXkXkXkXkXkXkXtXOX'.].].].}.].].].].].].].].].].`.I.I.I.",
"].].].U.U.Q.I.P.I.I.@ q 3 9 K.&X+X/.yXyXpXjXlXlXlXlX} 2 3 } zXjXiX7XiXiX9XzXkXkXrX].].{.}.|.].].}.].].].].].].].`.L.I.I.",
"X.X.X.O.P.U.I.I.P.W.%XT.v u q *X$XtXlXkXlXlXlXlXlXiX) : 6 1 qXkX6X% & 5X* 6XpXkXtXW.P.P.U.I.XX$X$X%X&X%X$X|.].].[.I.I.I.",
"X.X.X.O.I.I.I.I.P.I.%X&X).4 4 l E.fXlXlXlXlXjXiX0X| # > 6 -  .7X% % % % % % 5XiXjXeXeXeXW.J.W.%X&X&X%X&X$X|.].].`.I.I.I.",
"X.X.o.P.I.P.P.I.P.I.%X%X~.< 5 ; } sXsXhXsXpXiX6X% % $ X 5 : # $ ) ) ) $ % % % 9XjXjXsXaXK.k Y.%X%X%X%X%X%XoX].].`.P.P.I.",
"L.`.L.U.W.W.I.O.O.O.XXXXXXl 3 5 1 9XlXlXjX7X% % % % % O 6 2 . ) d d d { _ % % 6XjXuXwX` : q Q.Q. X}.OX+X+X{.{.[.`.`.`.`.",
"].].].'.!. XU.X.X.X.W.W.U.c 4 6 : w aXfX8X* % % % % % # 5 3 2 s %.%.$.$.B  .% % pX} - : 7 E.@XP.P.P. X!.Q.Q.W.W.`.].].].",
"].].].].!.!.I.X.X.X.W.W./.(.0 3 5 : } iX$ _ ) ) ) ) ( . 3 u a F 3.3.2.=.*.Q _ $ wX> 6 u w pXyX!.P.P.!.!. XQ.W.W.[.].].].",
"].].].'.{.{.`.L.L.O.{.!.hXfX[ 3 u 5 < | z d s d f d d : 5 i J 3.j.j.j.,.$.A 9 # - 5 6 9 qXjXjXpX^.+.W.[.[.[.[.[.`.[.`.[.",
"].].].].].].].].].].].rXfXpX} ; u u 2 # h Y $.>.,.%.K s 5 d $.j.3.4.4.h.%.Y s - 3 6 u ( kXjXjXjXkXQ.+.W.+.[.}.}.[.I.L.I.",
"].].].].].].].].].].XXhXlXlXaXe 5 6 2 N Y %.,.,.,.%.Y Y 6 J -.j.z.z.z.z.,.Y G 6 6 i 4 qXjXkXjXkXkXQ.+.+.+.}.}.}.`.`.+.I.",
"].].].].].].].].].].XXlXlXlXjX| 3 6 3 V =.,.,.,.C.3.-.Y h Y >.z.4X1Xx.z.,.Y H 6 3 i } jXkXjXkXlXzXQ.[.I.+.[.}.}.[.+.W.L.",
"&X&X$X|.].].}.$X$X%XtXsXzXzXpX& y 6 3 C >.3.,.,.,.,.,.$.h %.3.x.4X4XH.x.,.$.Y g 6 3 ( 5XzXzXkXlXkXtX].].}.].].}.}.}.}.}.",
"&X$X$X|.].].|.%X%X%XtXhXiX% % ` s V 5 C 4.z.z.l.x.l.,.,.Y %.H.G.4X4XH.M.x.=.Y f u e % % % 7XzXsXzXkXOX].].}.}.}.}.}.}.}.",
"      0 ].]..X%X%X%XtXlXiX% $ K.-.$.N y.4.j.k.M.<Xx.l.%.$.C.;X3X,X3X1Xm.h.N.9.Y Y q.p _ % & pXzXkXyX].].].].}.[.}.}.}.}.",
"k 4 5 , 0 b '.oXoX.XtXlX5X_ E 8.=.4.L w.1.h.v.:X1XG.x.k.%.C.t.L ! 3X3X:Xb.<.I 0.y.*.7.j _ * pXzXkXyX].].].`.[.[.[.[.[.[.",
"Y.K.M 6 6 , c ].].].yXkX$ W U >.h.l.C.y.;Xs.g f f f ~ :Xv.r.=.J i d.3Xc.<.$.d.<.1.-.&.7.y % 7XzXkXyX}.}.}.`.P.P.I.I.P.I.",
"].].T.m 6 6 9 T.].].yXkX_ A -.h.M.F.3X>X4Xp.h F F F D B ,X5.>.%.C q.1Xr.=.=.1.,.1.<.-.w.W % & pXlXfXOX}.}.`.I.I.P.I.I.I.",
"].].].Y.n 7 u 0 @ .XkXkX] U -.3.x.H.1X4X4XD J Y ;.>.*.s.4XC.,.%.F a.A.,.>.>.3.j.h.5.,.;.t % % iXlXlXOX[.[.[. X[.[.I.I.L.",
"].].].].T.4 5 6 , ) kX7X] *.;.4.H.1XB.;X4XB $.-.<.1.-.;.4X;X,.=.&.>XC.,.,.4.h.z.l.h.,.<.q.` & iXlXlX^.I.I..X%X%X+XI.I.L.",
"].].].}.Y.0 5 i 2 1 qX& ] *.=.h.G.2Xn.H.4XL =.>.,.1.>.-.4X,Xv.t.C.3XS.3.h.j.l.z.F.l.3.,.f._ #.iXkXkX Xb @ c v m v + k @ ",
"].].].].].K.t 6 5 ; w # ] U >.j.D.F.x.t.4X;.>.r.k.4.4.h.4X4X1X,X2X2Xp.2.z.z.D.G.4XF.n.t.a.* % iXkXqXk < ; 2 2 u : o @ @ ",
"U.U.I.`.'.@X..7 u 5 : 1 ] &.1.n.z.z.j.=.4X;.6.b.m.M.M.x.F.3X4X4X2X>X7.V.H.H.3X3X! L L w.e.] O ( ` w : 5 u 6 4 x v T.].].",
"P.P.I.`.].rXqX9 u 6 2 : l ;.1.v.m.x.j.=.4X-.v.x.D.<X<XH.A e.y.y.7.>Xd.1X4Xd.d.0.C C C -.1.M ; ; ; 5 6 u , v ' P.`.].].].",
"P.P.U.`.].rXpX..u u 3 3 , %.>.t.n.h.k.=.1X&.8.:.s.d.>Xd.d K Y Y S d.3X3X4X7.q.G $.;.$.-.*.q 3 3 3 6 i q + `.W.W.[.].].].",
"Q.Q.W.`.`.eXlXpX3 u 6 3 8 Y -.>.1.r.>.w.4XC s d d N p.N Y Y Y %.R d d.3X2Xp.d.1.-.c.%.-.f 6 3 3 u 6 z I.+.`.[.}.[.[.`.[.",
" XQ. XW.I.eXkXpX< 7 u 3 8 P >.=.r.u.;.=X=Xh F %.%.&.7.R Y %.=.,.%.A ~ 3X4X4X,X6.3.6.1.,.J 5 5 6 u w qX/.W.[.].].[.W.W.W.",
"!.!.Q.W.+.eXkXkX| 7 6 5 7 ^ >.%.1.r.y.4X7.U -.1.<.9.7.I $.>.,.,.1.r.a.-X1X2X1Xx.x.m.4.>.A 8 u u 9 qXzXsX^.[.].].[.W.W.[.",
"OXOX.X X`.[.dXkXzX9 3 u f %.=.%.1.A.1X;X$.>.>.,.,.d.~ &.<.1.3.6.6.5.c.C.;X2X4XD.z.D.4.-.g N g , ( pXpXsXdX'.].].`.U.U.U.",
"%XcX$XoX}.}.xXkXzX< 5 i Y $.8.2.,.5.;Xe.=.-.-.4.4.e.D *.C.4.m.x.m.4.<.1.:X2X4XD.z.z.3.-.G G =.0 $ pXjXsXgX|.].].`.I.I.I.",
"%X%X%XoX}.}.xXkX7X1 5 C Y <.N.,.h.x.A.Y $.>.k.z.z.A ! ;.,.l.G.3X3X,Xr.c.3X3X4XD.z.M.>.%.%.>.$.=.w pXkXkXfX@X].].`.I.I.I.",
"%X%X%XoX}..XfXkX7XX 8 Y $.,.,.4.m.2X;X-.<.,.4.x.x.G.1Xt.k.5.$.I $.u.r.:XB.F.z.z.z.,.h.z.j.,.-.=.w 5XjXlXjX@X].].`.I.I.U.",
"I.+.I.[.}.cXlXlX7X% r $.$.,.,.j.:X4X=X$.<.4.l.v.4X4X4X4X4X%.s.a =XI D ;Xc.k.l.x.z.,.4.x.z.l.,.Y w 6XsXpXfX@X].].`.Q.W.W.",
"I.W.L.'.}.XXgXhX7X% r Y %.>.,.j.G.4XD -.,.l.F.Z.4X4X4X4X4X&.;.e.$.$.Z B 4XC.t.c.,.P P ,XM.j.-.K w pXjXfX}.].].].{.W.W.W.",
"I.I.I.[.}.}.eXfXsX& r Y <.5.C.F.m.1X9.;.,.n.4X4X4X1X4X4X4Xp.*.z.j.B.%.A d.4X,X5.2XH.A.2X:Xj.$.J w pXsXxX}.].].].'.W.W.W.",
"I.I.I.L.L.+.eXzXsX& r U 5.3.r.C.n.1X9.u.c.m.G.4X:Xc.Z.4X4X>Xi.h.j.5.=.U ! ,X4X;X2X1X1X:Xx.>.$.P $ pXkXxX}.}.[.[.U.O.O.+.",
"I.I.I.O.X.X.^.zXlX9X} $.A.,.,.:.f q.9.5.5.l.G.3X;X,.B.4X2X:Xl.z.l.3.<.$.D q.3X4X1X:Xm.m.3.$.A [ % pXkXxX}.[.W.W.P.X.X.X.",
"I.+.+.O.X.X.Q.dXlX8X* Q ;.,.,.=.F e.=X<.,.j.H.3X;X1.1.t.1X<XG.<XG.j.,.$.0.d -X3XA.,Xb.5.=.J s _ 6XsXkXxX}.{.W.W.P.X.X.X.",
"I.I.I.+.O.o.I.dXjXzX& m $.=.-.$.$.v.,Xi.1.5.3.P ;.-.P d f =X1X4X<Xz.4.$.$.h d.4XA.r.<.P s.j ) * pXsXkXcX.X[.P.I.O.O.o.O.",
"I.L.I.I.I.I.I.dXkXsXR.z Y A U %.<.w.D f :Xf.d F $.$.$.*.N L 1X4X2XM.4.-.;.f.=X4X1Xh.<.A j _ * 8XsXkXkXvX&X[.O.O.O.P.P.L.",
"I.I.+.+.I.+.W.tXlXlX9X_ D D I r.G C L Z p.p.d I Y $.-.,.*.*.:X4X4XM.4.-.;.f.e.3X2Xx.,.I r $ 5XzXzXzXfXcX$X[.O.O.O.P.P.P.",
"I.I.+.`.I.`.^.fXlXlXpX% z D 0.Z.N C e.Y d.~ F $.$.-.<.,.,.3.F.4X4XM.4.<.&.D I F.F.x.3.=.j % 6XzXzXzXvX%X$X[.o.O.+.P.P.P.",
"}.].].`.W.W.eXkXkXkXpX% $ Q y.e.A -.,.%.4XS Y Y =.,.t.k.h.3.j.<X4XM.4.>.Y Z G 3.4.6.,.>.j % #.pXzXzXOX}.].`.I.I.+.X.X.X.",
"].].].[.W.W.tXkXkXkXiX% % _.u.U A ,.,.c.4XS Y Y -.3.b.H.z.3.N.m.1Xm.j.>.Y R s.w.-.-.,.%.g = #.zXzXzXrX`.].`.I.I.O.X.X.X.",
"].].].[.W.Q.dXkXlXlXpX% $ g.B.:.G r.v.;X4XS Y $.>.4.x.<Xm.1.N.z.F.z.j.5.$.R u.w.-.%.-.$.x % & pXhXlXdXXX].`.+.+.O.o.X.X.",
"].].]..X.X+XgXzXlXlX8X% ` P B.p.I C.4X2X4XS Y =.,.h.m.1X:X5.4.h.h.k.,.r.9.D :.6.4.%.Y P  .* 9XhXlXlXlX/.].`.I.I.+.+.+.O.",
"].].'.oX&X&XcXfXlXlX5X_ C ,.A.-X:.c.;X=X2XS $.>.5.z.G.4X4X1.;.,.1.1.r.;.*.~ i.D.z.3.%.W = | pXhXlXlXkX@X].`.I.I.I.I.P.P.",
"].].}.oX%X%X+XdXlXlX| t ,.5.;X4X0.-.<.e.2XS $.>.3.x.:X4X4Xr.&.t.u.5.u.=.T ~ 4X2Xx.j.>.f v 5XpXhXlXlXfX@X].`.I.I.I.I.I.P.",
"].].].'.].'.XXrXhXhX| Z -.r.C.4XD T e.e.3XP =.<.3.z.D.4X4X=XV.u.v.;.=.e.-Xp.3X4X:Xx.4.:.r 0XdXhXlXlXlXcXoX[.+.I.I.W.W.W.",
"].].].+.o.o.O.].hXfX| F ;.c.C.4X! 7.4X4X3X=X;.1.3.x.D.4X4X4X4Xu.;.&.9.;X4X4X3X3X4Xm.k.c.E | pXhXlXlXhXvX%X}.I.I.W. X XQ.",
"].].].O.X.X.L.].fX8X .,X=X<.u.,X>X,X>X3X>XV.s.w.3.j.S.,X>X>X3X,X,X>X>X>X>X,X>X>X>XS.C.c.E R.dXpXpXkXgX$X%X XP.U.W.!.!.!.",
"].].].L.X.o.O.].cXrXt p p 8 p p p p 7 q.a 8 p N S.6.^ p p p g.7 p p p p p p p p p p p p a r Y.!.!. X%X&X%X XP.P.W.!.!.!."
};
