/* XPM */
static char *floor_601702917470[] = {
/* columns rows colors chars-per-pixel */
"60 60 44 1 ",
"  c #73AE4B",
". c #75B04C",
"X c #79B24E",
"o c #7FB84F",
"O c #76AF50",
"+ c #77B352",
"@ c #7BB354",
"# c #7EB953",
"$ c #7FB558",
"% c #81B657",
"& c #81B955",
"* c #81B759",
"= c #83B95B",
"- c #88BE5D",
"; c #86BA60",
": c #8BBC62",
"> c #8EBE6A",
", c #90BF61",
"< c #91BE6B",
"1 c #87C057",
"2 c #89C256",
"3 c #8DC45C",
"4 c #90C65D",
"5 c #92CA5C",
"6 c #8EC362",
"7 c #8FC861",
"8 c #8EC06B",
"9 c #91C464",
"0 c #94CC61",
"q c #99CE65",
"w c #93C36A",
"e c #98C66E",
"r c #96C96B",
"t c #9ACC6E",
"y c #9CD06C",
"u c #97C772",
"i c #99C671",
"p c #9CCD71",
"a c #9FD173",
"s c #A0D36E",
"d c #A0CE74",
"f c #A3D476",
"g c #A5D579",
"h c #A8D67B",
/* pixels */
"555-==-00qggggggr.  ggge<<:===005&. o000=&$===-455======1555",
"555-==-005ggggggr.  ghge<<:==-005&. #000==$===-454======2555",
"555-==100qfgggggr   gggt<<:===00q&  #000&$====3555-=====2555",
"5551;;6500ffgy0q7$@+qyqtdde===5052&-2555==$=*=6ayy-==3133555",
"5559:::550gggq553$==000fggt===0005555555======6hgf===2555555",
"555:::-555gggq553===005fggt==;0005555555======6gga-==3555555",
"555,::-533tttqqq0:::663rppw--:6904335333-1-1166yay1613555243",
"554,:::**====pggp<<<=====*=::;:::===&&==45550005555555553==$",
"5554:::*=====pggd<<<=====*=:::::;=======55550055555555553===",
"525,::;**=-:-tggd<<<======-::-:::==*==&&54455005055055553===",
".  %======pfggggf<<w===3000454===@  $535=-=-=:8ggghggq553===",
"   @=====:fgggggp<<<===9000554===O  #555======6gghgggq553*==",
"   %*&===:fgghggd<<<===3005555==*@  #555===&==6ggggghq553===",
"22-->,=O@@,wwrqq0-;;3335000w9,>>>=$$&555===wppe6,,iii9::3344",
"5559<>:   :::3553***5550059<<<><<;==1555===tggp***<<<:::3555",
"5559<<=  .:;:4553**%5550009<<<><<;==3554===tgft**=,<>>:::555",
"555499-&o&-3:733-$$$3347000:>:8993--12--&**ett9*==68::673333",
"5555555555555-==%X@@===4004$$=3555551   &&&*====$=$$$7009===",
"4455555555555-==$@+@===6004=&=5555551  .***==========7003===",
"5555555555555-==$.@@===6007$*=4555552...*=**=========4003===",
"gggq55qhgf::;-===$=$  .rggp===405fggy455:::phga0007550000050",
"gggq55qggf:::=======   rggp$=-000aggs555:::pggf0005550005000",
"gggq55qggf::6======= . rggt===400aggs555:::pgga0005545000000",
"qqq1&&1qqq4943333===rrr8696===##$6696555*==:ew9555000361:-33",
"555&@@#5555555557===ggg8=====$.. $==-555**%=::95550001=$====",
"555&++&5555555553$==ggg0=====$.  $&=-555***::-65550003======",
"55511&25553335556===tpt661-;:=@+@$==&555%**::::3434376w7:===",
"5555005555==$4007====$=375r><8====**1555***:<<>*=====pggp===",
"5550000554===3007======6009<<8-==**==554*%*>><:====$=aggp===",
"55550055001==3006======3509<<:======-554*=%:>>:=====$uaat===",
"===455qgaa6==7000000===:::=-==O  9fft=;=>>>$ .@==$===:8:,454",
"=&=455qgga=$=7050000===::::==*.  tggt=*;<<<@  +======->:-555",
"===655qggf===7070007=$=;:::==$...rfgp==*<<<$ .@===***=:::555",
"::>3--rgff434361--16433-;=-343#$#686:@$$----11-==-:::6444:,-",
"<<>;==6ggg4556$$====5556==-555======*OO@===6006===:::3554:::",
"<>8;==6ggg0551===*==5551==1554-=====*@@O===6004=**:::5554:::",
"iiu6166ppy7331$;=--1335===1554===:9,:%@%=&=45551-3www5554=:-",
"ghfy706=$=$=$$$;-555%%%===-554=&$tggp***===3550000ggg0553**=",
"gggr004===$$$;==-555%***==-555$$&tggp***===355500qffgq553===",
"gggy007====$$$1=-555*%***=-455=$*tggp***===355000qggfq553*==",
"===7009<8>===3553=%%@+@$==3005<<<9553%*%===rggt:::0005553:::",
"===400q<>>===3553*=$+@+===-0009<<4553***===pggp:;60005554:::",
"===60q9<<<===3551*$$+@+*==-000<<<0552=**===tgga:::0005554:::",
"===%#o3pfp3331117tatO O=133---:::-:93223tttw999495q50466-@@@",
"*==X  =ggf555-==wggg   1553===*==:::9555ggh9==-555000,::*   ",
"===X  =gfg5551==6ggg   1554======:::,555ggh8==-555000:::*   ",
"&==$@X=ppp900---9ggfXX@3yq5---6ww6-,4555ggg6==-555qyy6=;%XOO",
"*======*==><<055qggg-==pggs555fggq555555ggg6=*1500ggg:@O$***",
"========*;>><955qggg*==dggy555gggq555555fgh6$$-00qggg:@+@*=*",
"==-=====*;>><905qggg*==eafy554dffr553555fff:$==000fff-@@$**%",
"555-::;*==;=-pgfd<<<*====-=..X:,:===6fgg:-=@O $ww>005-==$ . ",
"5556::;=====*pggd<<<======$   -::;==6ggg===@  @<<u555-==$   ",
"5556::;======tggd<<<-==*==@.  -::=$$6ggh===   @<<<555&==$   ",
"555qppe:::=-=:w9::::@O@%===;:-9906776=-;$@$O  @-::555-==$$$$",
"555fggp<<:========*=   @=;:<<<0000001  O@@OO  +===355-======",
"555sghd<<<=========%   %==:<<,0000001  OO@@   +===5551===$==",
"5550r99999%*=====---   &136www0935504&1$$$$#&o&:-:5qq3===:;:",
"355o  &554====&*-555   2005000:::955qggg==$3554<<ughgw==;<<<",
"555#  o555======&555   3000050:::555qggg===3556w<<ggg9==;<<<",
"555o  o555======-555   3000000:::655qhhg==$55578<<fggw==:<<<"
};
