/* XPM */
static char *result[] = {
/* columns rows colors chars-per-pixel */
"60 60 10 1 ",
"  c black",
". c #000101",
"X c #000202",
"o c #000203",
"O c #050501",
"+ c #6D740B",
"@ c #6D750D",
"# c #6F760C",
"$ c #DAE817",
"% c None",
/* pixels */
"%%%%%%%%%%%%%%%%%%%%%%%%%%%%%%%%%%%%%%%%%%%%%%%%%%%%%%%%%%%%",
"%%%%%%%%%%%%%%%%%%%%%%%%%%%%%%%%%%%%%%%%%%%%%%%%%%%%%%%%%%%%",
"%%%%%%%%%%%%%%%%%%%%%%%%%%%%%%%%%%%%%%%%%%%%%%%%%%%%%%%%%%%%",
"%%%%%%%%%%%%%%%%%%%%%%%%%%%%%%%%%%%%%%%%%%%%%%%%%%%%%%%%%%%%",
"%%%%%%%%%%%%%%%%%%%%%%%%%%%%%%%%%%%%%%%%%%%%%%%%%%%%%%%%%%%%",
"%%%%%%%%%%%%%%%%%%%%%%%%%%%%%%%%%%%%%%%%%%%%%%%%%%%%%%%%%%%%",
"%%%%%%%%%%%%%%%%%%%%%%          .oo   %%%%%%%%%%%%%%%%%%%%%%",
"%%%%%%%%%%%%%%%%%%%%%%          .oo   %%%%%%%%%%%%%%%%%%%%%%",
"%%%%%%%%%%%%%%%%%%%%%%          .oo   %%%%%%%%%%%%%%%%%%%%%%",
"%%%%%%%%%%%%%%%%%Xoooo@$$$$$$$$$$$$$$+     %%%%%%%%%%%%%%%%%",
"%%%%%%%%%%%%%%%%%Xoooo@$$$$$$$$$$$$$$+     %%%%%%%%%%%%%%%%%",
"%%%%%%%%%%%%%%%%%Xoooo@$$$$$$$$$$$$$$+     %%%%%%%%%%%%%%%%%",
"%%%%%%%%%%%%%%%oo@$$$$$$$$$$$$$$$$$$$$$$$$+  %%%%%%%%%%%%%%%",
"%%%%%%%%%%%%%%%oo@$$$$$$$$$$$$$$$$$$$$$$$$+  %%%%%%%%%%%%%%%",
"%%%%%%%%%%%%%%%oo@$$$$$$$$$$$$$$$$$$$$$$$$+  %%%%%%%%%%%%%%%",
"%%%%%%%%%%%%Xoo$$$$$$$$$$$$$$$$$$$$$$$$$$$$$$   %%%%%%%%%%%%",
"%%%%%%%%%%%%Xoo$$$$$$$$$$$$$$$$$$$$$$$$$$$$$$   %%%%%%%%%%%%",
"%%%%%%%%%%%%Xoo$$$$$$$$$$$$$$$$$$$$$$$$$$$$$$   %%%%%%%%%%%%",
"%%%%%%%%%%%%Xoo$$$$$$$$$$$$$$$$$$$$$$$$$$$$$$   %%%%%%%%%%%%",
"%%%%%%%%%%%%Xoo$$$$$$$$$$$$$$$$$$$$$$$$$$$$$$   %%%%%%%%%%%%",
"%%%%%%%%%%%%Xoo$$$$$$$$$$$$$$$$$$$$$$$$$$$$$$   %%%%%%%%%%%%",
"%%%%%%%%%%ooooo                                   %%%%%%%%%%",
"%%%%%%%%%%ooooo                                   %%%%%%%%%%",
"%%%%%%%%%%ooooo                                   %%%%%%%%%%",
"%%%%%%%%%%oo@$$   %%%%           %%%%     +$$$$+  %%%%%%%%%%",
"%%%%%%%%%%oo@$$   %%%%           %%%%     +$$$$+  %%%%%%%%%%",
"%%%%%%%%%%oo@$$   %%%%           %%%%     +$$$$+  %%%%%%%%%%",
"%%%%%%%%%%oo@$$   %%       +$$   %%       +$$$$+  %%%%%%%%%%",
"%%%%%%%%%%oo@$$   %%       +$$   %%       +$$$$+  %%%%%%%%%%",
"%%%%%%%%%%oo@$$   %%       +$$   %%       +$$$$+  %%%%%%%%%%",
"%%%%%%%%%%oo@$$$$+       $$$$$$$+       $$$$$$$+  %%%%%%%%%%",
"%%%%%%%%%%oo@$$$$+       $$$$$$$+       $$$$$$$+  %%%%%%%%%%",
"%%%%%%%%%%oo@$$$$+       $$$$$$$+       $$$$$$$+  %%%%%%%%%%",
"%%%%%%%%%%oo@$$$$$$$$$$$$$$$$$$$$$$$$$$$$$$$$$$+  %%%%%%%%%%",
"%%%%%%%%%%oo@$$$$$$$$$$$$$$$$$$$$$$$$$$$$$$$$$$+  %%%%%%%%%%",
"%%%%%%%%%%oo@$$$$$$$$$$$$$$$$$$$$$$$$$$$$$$$$$$+  %%%%%%%%%%",
"%%%%%%%%%%%%   $$$$$$$$$$$$$$$$$$$$OO#$$$$$$$   %%%%%%%%%%%%",
"%%%%%%%%%%%%   $$$$$$$$$$$$$$$$$$$$OO#$$$$$$$   %%%%%%%%%%%%",
"%%%%%%%%%%%%   $$$$$$$$$$$$$$$$$$$$OO#$$$$$$$   %%%%%%%%%%%%",
"%%%%%%%%%%%%   $$$$$$$$$$          $$$$$$$$$$   %%%%%%%%%%%%",
"%%%%%%%%%%%%   $$$$$$$$$$          $$$$$$$$$$   %%%%%%%%%%%%",
"%%%%%%%%%%%%   $$$$$$$$$$          $$$$$$$$$$   %%%%%%%%%%%%",
"%%%%%%%%%%%%%%%  +$$$$$$$$$$$$$$$$$$$$$$$$+  %%%%%%%%%%%%%%%",
"%%%%%%%%%%%%%%%  +$$$$$$$$$$$$$$$$$$$$$$$$+  %%%%%%%%%%%%%%%",
"%%%%%%%%%%%%%%%  +$$$$$$$$$$$$$$$$$$$$$$$$+  %%%%%%%%%%%%%%%",
"%%%%%%%%%%%%%%%%%     +$$$$$$$$$$$$$$+     %%%%%%%%%%%%%%%%%",
"%%%%%%%%%%%%%%%%%     +$$$$$$$$$$$$$$+     %%%%%%%%%%%%%%%%%",
"%%%%%%%%%%%%%%%%%     +$$$$$$$$$$$$$$+     %%%%%%%%%%%%%%%%%",
"%%%%%%%%%%%%%%%%%%%%%%                %%%%%%%%%%%%%%%%%%%%%%",
"%%%%%%%%%%%%%%%%%%%%%%                %%%%%%%%%%%%%%%%%%%%%%",
"%%%%%%%%%%%%%%%%%%%%%%                %%%%%%%%%%%%%%%%%%%%%%",
"%%%%%%%%%%%%%%%%%%%%%%%%%%%%%%%%%%%%%%%%%%%%%%%%%%%%%%%%%%%%",
"%%%%%%%%%%%%%%%%%%%%%%%%%%%%%%%%%%%%%%%%%%%%%%%%%%%%%%%%%%%%",
"%%%%%%%%%%%%%%%%%%%%%%%%%%%%%%%%%%%%%%%%%%%%%%%%%%%%%%%%%%%%",
"%%%%%%%%%%%%%%%%%%%%%%%%%%%%%%%%%%%%%%%%%%%%%%%%%%%%%%%%%%%%",
"%%%%%%%%%%%%%%%%%%%%%%%%%%%%%%%%%%%%%%%%%%%%%%%%%%%%%%%%%%%%",
"%%%%%%%%%%%%%%%%%%%%%%%%%%%%%%%%%%%%%%%%%%%%%%%%%%%%%%%%%%%%",
"%%%%%%%%%%%%%%%%%%%%%%%%%%%%%%%%%%%%%%%%%%%%%%%%%%%%%%%%%%%%",
"%%%%%%%%%%%%%%%%%%%%%%%%%%%%%%%%%%%%%%%%%%%%%%%%%%%%%%%%%%%%",
"%%%%%%%%%%%%%%%%%%%%%%%%%%%%%%%%%%%%%%%%%%%%%%%%%%%%%%%%%%%%"
};
