/* XPM */
static char *xpm_[] = {
/* columns rows colors chars-per-pixel */
"60 60 200 2 ",
"   c #020202",
".  c #0A0605",
"X  c #060807",
"o  c #0A0906",
"O  c #070709",
"+  c #0A0709",
"@  c #070909",
"#  c #0C0B0B",
"$  c #100F00",
"%  c #120D0D",
"&  c #0E100F",
"*  c #141305",
"=  c #13110E",
"-  c #1B1B0D",
";  c #18170A",
":  c #0E0D10",
">  c #120E10",
",  c #180F10",
"<  c #0E1213",
"1  c #151212",
"2  c #1B1515",
"3  c #161816",
"4  c #1B1916",
"5  c #1C1A19",
"6  c #1B1718",
"7  c #211817",
"8  c #211718",
"9  c #231C1B",
"0  c #221616",
"q  c #26211E",
"w  c #29211E",
"e  c #1C1E20",
"r  c #281F20",
"t  c #241E20",
"y  c #1D2123",
"u  c #262222",
"i  c #2B2523",
"p  c #2E2A26",
"a  c #262A2D",
"s  c #2B2A2B",
"d  c #282629",
"f  c #312A26",
"g  c #302728",
"h  c #332D2A",
"j  c #392F2E",
"k  c #302625",
"l  c #35322D",
"z  c #39322E",
"x  c #303227",
"c  c #2B2F32",
"v  c #262E30",
"b  c #2D3234",
"n  c #353432",
"m  c #3C3432",
"M  c #3E3A35",
"N  c #3B3E3D",
"B  c #323539",
"V  c #7A142C",
"C  c #413736",
"Z  c #413936",
"A  c #443B39",
"S  c #483E3D",
"D  c #413738",
"F  c #3A403E",
"G  c #45413D",
"H  c #49423E",
"J  c #494541",
"K  c #4C4341",
"L  c #4E4A45",
"P  c #4E4A44",
"I  c #454841",
"U  c #514544",
"Y  c #514B46",
"T  c #524E49",
"R  c #544F4A",
"E  c #53514A",
"W  c #55534D",
"Q  c #56544D",
"!  c #54524B",
"~  c #59564F",
"^  c #575651",
"/  c #595651",
"(  c #5C5751",
")  c #5B5851",
"_  c #5D5952",
"`  c #5C5A55",
"'  c #575B5C",
"]  c #605D56",
"[  c #615D58",
"{  c #5D625D",
"}  c #66635D",
"|  c #5D6163",
" . c #5F6867",
".. c #626564",
"X. c #656A6B",
"o. c #696D6D",
"O. c #676765",
"+. c #666D72",
"@. c #6D6E71",
"#. c #6D7374",
"$. c #677278",
"%. c #6B757B",
"&. c #6F797B",
"*. c #717575",
"=. c #747877",
"-. c #737679",
";. c #757A7B",
":. c #797B7C",
">. c #8A3649",
",. c #995466",
"<. c #A06A7C",
"1. c #7C807F",
"2. c #77807F",
"3. c #89867F",
"4. c #7B7E81",
"5. c #717D82",
"6. c #7C8284",
"7. c #7D868A",
"8. c #768082",
"9. c #7F8C92",
"0. c #818586",
"q. c #848A8B",
"w. c #858B8D",
"e. c #93928C",
"r. c #898E91",
"t. c #848E93",
"y. c #8C9295",
"u. c #8A969D",
"i. c #8D999E",
"p. c #83939B",
"a. c #919B9D",
"s. c #8B9AA2",
"d. c #8997A2",
"f. c #929FAA",
"g. c #94A3AD",
"h. c #98A6AE",
"j. c #95A4AB",
"k. c #96A3B1",
"l. c #9CAAB6",
"z. c #ADB9BE",
"x. c #D5BCA6",
"c. c #DCC1AC",
"v. c #EFCBAB",
"b. c #EDD4BE",
"n. c #F2D4B6",
"m. c #F5D8B9",
"M. c #AEBDCC",
"N. c #A9B8C0",
"B. c #B2BFCF",
"V. c #AFC1CD",
"C. c #B4C5CB",
"Z. c #B9C8CA",
"A. c #B5C4C9",
"S. c #B4C4D4",
"D. c #B7CAD3",
"F. c #BBCCD4",
"G. c #B7C6D9",
"H. c #BCCCDC",
"J. c #BED0DE",
"K. c #BED0D4",
"L. c #BCCFE0",
"P. c #BFD0E2",
"I. c #C1CFDC",
"U. c #D2CFD8",
"Y. c #C6D9DD",
"T. c #C7D7DE",
"R. c #D4D3DC",
"E. c #F5DDC3",
"W. c #FBE7C5",
"Q. c #FFF0CC",
"!. c #FFEED4",
"~. c #FFF8D4",
"^. c #C4D5E4",
"/. c #CBDCEC",
"(. c #C9DAE5",
"). c #CEE1E5",
"_. c #D3E5EA",
"`. c #DAECEF",
"'. c #D3E7EA",
"]. c #CEE1F2",
"[. c #D2E2F4",
"{. c #D7EBF0",
"}. c #DAECF3",
"|. c #D8EBFC",
" X c #DEF1F6",
".X c #DEF1F8",
"XX c #DFF8FF",
"oX c #EEEFEF",
"OX c #E6F0EF",
"+X c #E4EEF0",
"@X c #EEEFF1",
"#X c #E3F4F6",
"$X c #E9F4F4",
"%X c #E3F6FC",
"&X c #E5F9FE",
"*X c #EBFEFE",
"=X c #E9F7F8",
"-X c #F3FEFE",
";X c #FDFFFE",
":X c #F3F6F7",
/* pixels */
"# # # # . . .     . .     # # % # . .   .       # # # # # . .   .                 # % X .       . .   .         # % # # ",
"# # # # 1 1 1 4 5 5 4 4 4 # # # # 1 3 5 4 5 4 5 = # # # = 1 1 3 4 4 4 4 4 5 4 5 5 # # > 1 4 4 5 2 1 1 3 5 5 5 5 # # # # ",
"# #   1 h m A ! _ / / _ } 2     X i M [ _ ~ _ } n       q l C J ( / _ _ _ ` / _ O.i   q m ` ` [ ! Z A Z ! _ ` O.u   # # ",
"# # 1 q m A P E Q Q Q T T q 1 5 i M J / ! Q Y R M 4 5 2 h m H L Q T L L L E / T R l 4 h m L L Y J M J J ! ^ T E l 4 # # ",
". 1 m M H E ] Q Q Q / J A m z J T [ / ! E Q G M G R M h M H ` ` / L A A M E _ Y M H L J G A A A G A T ] Q Q L m G T 4   ",
"X = w p z N P E Q Q ` M i w w j m J Y Q ! Q M h n z h f M G J P _ G q j l G L A j m z l l m l p f z A K T _ J h z m 1 . ",
"# # 4 q f z M Y Q Q ] h % 6 2     # J / Q ^ l i p f h f M G M G L     # p M G m i f p p p h p 2 q p m M T _ G i p h = . ",
"# # 9 u f m A Y / L H f 2 9 2     . M J G H i 9 5 1 5 u f z A S M     . 9 f m p 9 9 u 2 1 1 1 > 2 9 p l A L z 9 2 1 # # ",
"# % 9 i j C A ! ` Y S p 6 9 6 % : = h C M G u 9 2 O 2 9 i h C A l X O # 7 p j p 7 9 9 > # # # : = 9 p h C J l 0 >   # # ",
"# # 1 5 9 h M J E G M 5     b OX@Xz.  . # M 9 2 1 # 1           5 ;.4.'     o 9 2 4 2 1 > % % : 1 2 9 k h m p 6 > # # # ",
"# # . # . 9 h C G m z 3     v ;X;XF.    # h 1 O : % #           1 w.r...      # o # X # % % = # # # 2 9 2 2 , # # # # # ",
"# # # # # 9 u h m d 2 = # % N -X;XA.    . 2 1 % % > # O O # # # u 6.0.|       2 i 9 q q q = # 1 > % 1 1 u p i u 1 . # # ",
"# # # # # 2 9 p p     f m.v.b.*X;XC.                3 :.X.3.n.n.x.%.0.|       9 m h l l h % % > > % # # i z h m 2   # # ",
"# # # # > 1 1 1 >     z ~.W.!.*X;XD.                % 7.+.e.Q.~.n.$.q...    . 9 9 p h h f p 9 % 1 # 2 5 p h f h i i 1 # ",
"# # # # 1 % # # #     f W.n.E..X:XA.. . # # & : > : d q.&.e.m.E.c.#.7.|     . 9 6 i h f f z f % 1 % 6 9 p h f h j m 1 . ",
"% # X # = > % # #     5 q.1.1.6.0.2.#.X.q. X{.{.{.{.}.#X=XT.=.1.4.:.0.|     O 9 6 i f m C S m # 1 9 9 4 i f j C C S 2 . ",
"# # # # % 1 1 2 1     5 8.#.%.*.#.-.4.#.a.-X-X-X-X-X-X*X;X_...+.#.*.4.'     . 9 9 p j M A m g % 1 9 9 q f j m A m m 1 . ",
"# # 1 > # 2 9 h p     5 6.;.:.;.;.;.:.o.y.*X&X%X.X.X.X.X=X(.=.6.6.6.r. .    . 9 f m A S A 1 # : % # u m A H S K q o # # ",
"# # , % # 6 9 i 9     5 7.=.:.;.:.:.:.o.y.*X-X).;.6.6.6.*.i.#X.X.X.X:XA.    X p z m A j p 1 > : > # 5 u p g f f 8 % # # ",
"# # > 1 # 6 u 4 =     1 q.6.4.-.;.;.#...y.-X-X_.#.-.-.*...y.-X-X*X*X;XD.    # C K S H 2 . # # # # # O . # % % # , 2 # # ",
"# # # # % 1 1 q 5 X X e :.#.*.;.;.;.6.*.i.=X=XY.o.#.*.:.o.y.#X.X#X&X;XD.# = & 9 9 9 u 1 = 9 q 9 u 9 9 u 1 % 1 1 % # # # ",
"# # X # 1 %     5 :.;...4 - l 6.@.y.#X=XY.;.q.o.- - l 6.;.;.6.*.a.*X&X%X}.oXN.      # % 1 h l l h j j z 6 o % 2 # . # # ",
"# # # # # #     5 7.7...* * p :...r.-X-X).X.;.{ * o p 6.;.-.*...r.*X&X&X*X;XK.      % 6 9 p h h f h f h i p 9 % % # # # ",
"# # # # X #     5 q.w.o.; * x q.*.i.*X-X(.#.6...; * x 6.;.:.:.o.y.*X&X&X&X;XC.      % 5 q h h f h f h f h z q # # X # # ",
"# # % # # #     n :X:XZ.o . I =X.X#X&X-X).#.6.X.; * x 6.;.;.;.o.y.*X&X&X&X;XA.      % 5 9 u p f h h f h f h i 9 1 # # # ",
"# # # # # #     b ;X;XF.    G -X*X*X*X-X_.X.4.{ * $ p 4.:.-.*...r.*X&X&X&X-XA.      # 5 9 6 9 j h f h f f f h m 9 % # # ",
"# # # # # 4     n -X-XF.4 1 Q -X&X%X}.$XT.;.q.o.- ; l 6.;.:.6.-.a.*X&X&X&X;XA.      : 5 9 9 9 q i h f p h f h h 9 % # # ",
"# # # # % q     b -X&X%X`.{.}.&X*XR.>.>.<.#X=XY.X.#.*.:.o.y.=X.X#X&X&X&X&X-XA.      # 5 9 9 9 6 q h p f f p f h 5 % # # ",
"# # . > 4 i     b ;X*X*X*X-X*X&X*XU.V V ,.-X-X_.@.-.-.#...r.-X*X*X&X&X&X&X;XA.    . > 1 1 8 9 i h C m M m m M S r % # # ",
"# # O 1 9 i     c +X}.}.&X&X&X&X*XR.>.>.<.*X-X).;.6.6.6.#.a.*X&X&X&X&X%X%X;XA.# # # % # : 9 q h j A A C A A C A 9 % # # ",
". # 9 9 9 9 4 u q & # F -X&X&X&X&X&X+X}.#X&X&X%X.X.X.X.X.X#X&X&X&X&X*X.XH.I.H.S.^.d.    . f z A A C C C A J h % # X # # ",
"# % 9 9 9 9 9 f i     a ;X-X*X&X&X*X*X*X*X&X&X&X*X*X*X*X*X*X&X&X&X&X*X.XG.H.H.^.|.l.      i p j m C C C m m u + # # # # ",
"# # q 9 6 u h m j     b $X`.}.&X&X&X&X&X&X&X&X&X&X&X&X&X&X&X&X&X&X%X&X}.H.H.H.H.[.k.      # %   r U A H 8 # # # # # # # ",
"X # 2 9 w f z M A m M i # & N -X&X&X&X&X&X&X&X&X&X&X&X&X&X&X&X*X.XH.H.H.H.H.H.H.].k.    . 9 5 # 5 h g p 2 > = # # # # # ",
"# # O 9 M m A C C Z U 5     s ;X-X*X&X&X&X&X*X&X&X&X*X&X&X&X*X*X.XG.H.H.H.H.H.H.].f.    # z p % # % % % % # # # O   # # ",
"# # # 1 2 j A C Z j 9 2     c +X}.}.XX%X%X%X%X%X%X%X%X%X%X%X%X&X}.H.H.H.H.J.H.H.[.k.    # h k u 5 , , % 9 q q q 9 9 # # ",
"# # X #   g H A J p   6 q 1 % = : B /.J.H.H.J.H.H.H.H.H.H.H.H.J.H.H.G.^.&X%X%X%X-XA.    O h h m q % > % p m j j h z 1 . ",
"# # X # % 1 5 5 9 2 = 1 2 1 %     y /.H.H.H.H.H.H.H.H.H.H.H.H.H.H.H.G.^.*X&X&X*X;XZ.    # f p h 9 # 2 9 9 9 i h z Z 1 . ",
"# # # # 1 % # % % % # % % % #     a (.H.H.G.H.H.H.H.H.H.H.H.H.H.H.H.G.^.*X&X&X&X;XA.    X p p z u   5 r 6 2 9 p M U 1 . ",
"# # # # # > 1 % % 1 9 9 9 9 2     e g.i.s.u.s.d.s.p.g.I.H.H.H.H.H.H.H.^.*X&X&X&X;XA.    # z h w 9 1 1     X p z f f % . ",
"# # # # . > 1 % . 4 m j h l u     y j.s.i.s.s.s.s.p.h.P.H.H.H.H.H.H.H.^.&X&X&X&X;XA.    # K m O 2 i ,     # M Y r . # # ",
"# # # # # % % 9 9 i h f f h q     e u.9.9.9.t.9.9.7.i.^.H.H.H.H.H.H.G.^.&X&X&X&X;XA.    # u 7 % 1 2 % # # # 5 i 1 # # # ",
"# # # # 1 % % p m j f f h p f l i o # X # X # # # O c /.H.H.H.H.H.H.G.^.*X&X&X&X;XA.                3 ;.4.'       X # # ",
"# # # # % 2 9 9 9 u h f p h f h f q                 d /.H.H.H.H.H.H.G.^.*X&X*X&X;XA.                < y.y.X.      X # # ",
"# # # % % 6 q 9 6 w j f h h f f h p                 a /.H.H.H.H.H.H.G.^.%X%X%X%X-XZ.# # # # : # # > u ;.1.'       # # # ",
"# # # 1 9 9 9 9 7 u l h h f h f f j 9 + 2 9 2 %     a /.H.H.H.H.H.H.H.H.H.H.H.H.J.H.C.M.V.B.M.G.`.$Xz.X . # p f 1   # # ",
"# # 1 6 9 9 9 9 4 q p p f h f h h x q # 2 9 1 %     a /.H.H.H.H.H.H.H.H.H.H.H.^.^.^.].].]././.|.;X;XY.    . f m 9 # # # ",
"X # 9 9 9 9 9 9 9 9 2 u f p p p f f 9 % % % # #     a /.H.H.H.H.H.H.H.H.H.H.H.C.S.C.M.S.S.S.M.D.`.oXN.    # p p f h = . ",
"# # 9 9 9 9 9 9 9 9 q f m j j l j m u # 1 2 4 2     a /.H.H.H.H.H.H.H.H.H.[.k.# # # # # # # # # # : % 6 p p h z l m 1 . ",
". % 9 9 9 9 9 9 6 q h m A A A C A Y h . 6 9 j p     a /.H.^.^.^.^.^.^.^.H.[.g.                        4 i p l A A A 1 . ",
"# # 1 2 9 9 9 i i f m M C C C A m u 9 # 6 9 r 5     a ^.H.G.B.C.S.S.B.S.L.[.g.                      X i z m m C C A 1 . ",
"X # # 1 9 9 9 p h m A A C C C S j o % % 6 9 7 =     y j.h.5.# # # # # B /.[.k.    X p f p 1 % # 1 9 i h C A D C C A 1 . ",
"# # # 1 9 9 9 p p j A C C C C 9 6 % % % 1 1 u q     5 s.g.$.          y /.[.g.    # M 9 1 % > > 1 # p A C C C C C A 1 . ",
"# # # 1 u 9 0 i p j A M C S A % # % % 1 % # f p     y j.h.%.          a /.[.g.    # S 6 # % = , > . h U A C C C A K 3 . ",
"# # X # 6 9 w h z m A C C h i 1 > = % # # # 5 4     5 f.h.%.          s /.[.g.    # A 5 # % # % > # 9 f m A C A j k > . ",
"# # X # + u m C A C M A K 2 . 1 = 1 # X # # # .     y h.l.5.          c |.|.l.    # K 9 # # # 1 1 2 % o m K S U u . # # ",
"# # # # # 3 5 m A C A f 9 = # # # # # # # # # .     5 u.s.+.          a H.^.d.    # 5 1 # # # # # # % = 9 u r i 2 # # # ",
"# # # # # # O n H A K 9   # # # # # # # # # # # # # X X # X # 1 h z A h # # 1 C S 5   X # # # # # . # 1 % # % % # # % # ",
"# # # # # # # = 1 1 3 # # # # # # # # # # # # # # # #       # # 1 1 1 =       1 3 # # # # # # # # # # # # # # # # # # # ",
"# # # # # # # . . .   X # # # # # # # # # # # # # # X       # # . . .         . . # # # # # # # # # # # # # # # # # # # "
};
