/* XPM */
static char *xpm_[] = {
/* columns rows colors chars-per-pixel */
"60 60 188 2 ",
"   c #020202",
".  c #0A0505",
"X  c #070806",
"o  c #0A0A06",
"O  c #050609",
"+  c #0A0709",
"@  c #070908",
"#  c #0C0B0C",
"$  c #120D0D",
"%  c #120E03",
"&  c #0E100E",
"*  c #141305",
"=  c #13110F",
"-  c #18100E",
";  c #1A1B0D",
":  c #0E0F11",
">  c #120E11",
",  c #180F10",
"<  c #0F1110",
"1  c #151212",
"2  c #1B1515",
"3  c #161817",
"4  c #1C1916",
"5  c #151619",
"6  c #1C1719",
"7  c #15181A",
"8  c #1C1A1A",
"9  c #211716",
"0  c #211A15",
"q  c #231C1B",
"w  c #291E1E",
"e  c #1E2013",
"r  c #222215",
"t  c #25211D",
"y  c #29211E",
"u  c #27291B",
"i  c #2A291C",
"p  c #1B1C20",
"a  c #231F20",
"s  c #281F20",
"d  c #262221",
"f  c #2B2523",
"g  c #2D2925",
"h  c #2D2A29",
"j  c #302625",
"k  c #302A27",
"l  c #302728",
"z  c #332C2A",
"x  c #392F2F",
"c  c #35312D",
"v  c #39322F",
"b  c #353827",
"n  c #373332",
"m  c #3C3432",
"M  c #3E3A36",
"N  c #791329",
"B  c #413636",
"V  c #413936",
"C  c #443B39",
"Z  c #493E3C",
"A  c #45413D",
"S  c #49423E",
"D  c #4A4441",
"F  c #4D4A45",
"G  c #464241",
"H  c #504544",
"J  c #514A47",
"K  c #524E49",
"L  c #55514B",
"P  c #55524D",
"I  c #56544D",
"U  c #53504B",
"Y  c #58554E",
"T  c #575651",
"R  c #5A5750",
"E  c #585753",
"W  c #5B5851",
"Q  c #5C5952",
"!  c #5D5A55",
"~  c #5D5C55",
"^  c #615E59",
"/  c #615E57",
"(  c #64645D",
")  c #6B6661",
"_  c #686860",
"`  c #666A6D",
"'  c #6A6E6E",
"]  c #73726D",
"[  c #6A6E71",
"{  c #6E7374",
"}  c #6F7578",
"|  c #707475",
" . c #727579",
".. c #757A7B",
"X. c #797C7C",
"o. c #767875",
"O. c #893546",
"+. c #893448",
"@. c #965163",
"#. c #7D807E",
"$. c #7B7E82",
"%. c #737E82",
"&. c #7C8283",
"*. c #79858A",
"=. c #79868C",
"-. c #7F8C94",
";. c #7D8790",
":. c #828686",
">. c #828A8B",
",. c #838889",
"<. c #808D96",
"1. c #888D90",
"2. c #839195",
"3. c #86939B",
"4. c #8A989F",
"5. c #88959B",
"6. c #8B9AA2",
"7. c #929FA7",
"8. c #91A0A7",
"9. c #94A3AB",
"0. c #9DABB4",
"q. c #A6B4BF",
"w. c #E7C7AE",
"e. c #E8C6AC",
"r. c #F2CEB4",
"t. c #EFD5B7",
"y. c #F1D4BA",
"u. c #F7DDBF",
"i. c #FEDDBE",
"p. c #A7B4C3",
"a. c #AFBFCD",
"s. c #B1BECE",
"d. c #B2BFD0",
"f. c #B3C1CE",
"g. c #ADC3D1",
"h. c #B3C2D1",
"j. c #BBCAD7",
"k. c #B7C8D8",
"l. c #BCCCDC",
"z. c #B9C8D9",
"x. c #BED0DE",
"c. c #BFD0E0",
"v. c #C9DBDF",
"b. c #C0D2DE",
"n. c #FFE2C2",
"m. c #FEEAC9",
"M. c #FFF3D1",
"N. c #C4D5E5",
"B. c #CADBE2",
"V. c #C4D6E9",
"C. c #C6D8EB",
"Z. c #CADAEA",
"A. c #CEDFF2",
"S. c #D3E4EA",
"D. c #D7EAEF",
"F. c #D9EAED",
"G. c #D9E7EA",
"H. c #CEE0F2",
"J. c #D0E1F2",
"K. c #D7EAF1",
"L. c #DAECF2",
"P. c #D9ECFB",
"I. c #DEF1F6",
"U. c #DEF2F9",
"Y. c #E4E3E3",
"T. c #E9E6E6",
"R. c #EEEEEE",
"E. c #EEF0EF",
"W. c #F0F1EE",
"Q. c #E3EEF4",
"!. c #F1EFF2",
"~. c #E3F2F4",
"^. c #E9F5F6",
"/. c #E3F5FC",
"(. c #E9F6FB",
"). c #E5F9FE",
"_. c #EBFEFE",
"`. c #F1F1F1",
"'. c #F6F5F5",
"]. c #F2F1F1",
"[. c #F2FFFF",
"{. c #FFFFFD",
"}. c #FEFEFC",
"|. c white",
" X c #FEFEFE",
".X c #FDFDFE",
"XX c #FEFFFF",
"oX c #F8F7F7",
/* pixels */
"# # # # X O X       X   1 Y.W.].].W.R.].].Y.1   @ # # # @ X X   X         X       # $ X X       X X X X X       @ $ # # ",
"# # # # 1 1 3 3 3 3 3 3 q .X|.|.|.|.|.|.|.|.f 8 = # # # = 1 1 3 3 3 3 3 3 3 3 8 8 $ # > 1 3 3 3 2 1 1 3 3 3 3 8 # # # # ",
"# #   1 z m C P ! Q ^ ( ] ].|.|.|.|.|.|.|.'.( ) n       t c V G W E Q Q Q E E Q ) f   w m E ~ ^ L V C V L Q W ) f   # # ",
"# # 2 t m C F U I ! R.'.'.|.|.|.|.|.|.|.|.'.E K M 3 8 2 z m S F I U F F F L Y K L c 3 z m F F J D M D D U T K U c 3 # # ",
"X = m M S U ~ P P T }.|.|.|.|.|.|.|.|.|.|.'.K M A K M z M S W W E F C C M P ! K M S F D A C C C A C K / I I F m S K 3   ",
"O = y g v C F ! ~ _ '.|.|.|.|.|.|.|.|.].].T.D z n v z k M A D F Q A t z m C D M x v v v v n c g k v C D K ! D z v m 1 X ",
"@ $ 4 t g m D R.oX'.|.|.|.|.|.|.|.|.].8 # 1 c f g k z k M A M A ^ C $ t h X   X f k g g g z g 2 t g m M K ! A f k z = X ",
"@ # q d z m A .X|.|.|.|.|.|.|.|.|.|.oX      g q 8 1 8 d k v V C D c 2 q q       q w a 2 1 2 1 > 2 w g c C F v q 2 1 # # ",
"@ $ q g V D E '.|.|.|.|.|.|.|.|.].W.Y.8 # 1 q 9 2 O 2 w f z C V C z 2 4 2 @ @ @ 2 0 q > # # # # = q g z V D c 9 >   # # ",
"# # 1 f Y.].'.|.|.|.|.|.|.|.|.].8 # 8 B.^.B.#     # 1 2 t g c X X       @ ` X.` @     > : > > : 1 2 w j z m g 2 > @ # # ",
"# # X 3 .X|.|.|.|.|.|.|.|.|.|.oX      I.|.U.>     > # # 6 w k             ..1...X     # # > $ # # # 2 w 2 2 , # # @ # # ",
"# # @ 3 ].|.|.|.|.|.|.|.|.].].Y.8 # 3 L..XK.:     $ # # 1 2 q + O @ o $ = | &.{ X     t t $ $ > > $ 1 1 d g f d 1 X # # ",
"# # @ 3 ].|.|.|.|.|.|.|.].8 # 3 e.t.y.(._.D.#               X ` { o.w.t.e.$.%.{ X   X x z = # > > $ # @ f v z m 2   # # ",
"# # @ # ].|.|.|.|.|.|.|.R.      i.M.m._.[.P.@                 { ..&.n.M.n.&...{ X     g g g t > 1 # 2 8 g z k z f f 1 @ ",
"# 3 3 h ].|.|.|.|.|.|.|.].#   # e.u.y.Q.^.S.1 O o : # # : : 5 ..&.:.r.u.r.#...{ X     k z v g > 1 $ 2 w g z k z x m 1 X ",
"$ Y.E.].|.|.|.|.|.|.|.|.].1   X ..:.#.&.&.&.{ [ ..S.I.D.K.K.K.I./.K.:.X.#...$.{ +     m V Z m # 2 w q 4 f k x V V Z 2 X ",
"# |.|.|.|.|.|.|.|.|.|.|.].#   X [ ..} { |  .&...>._.[._.[.[.[.[.[._...` [ { ..' X     m V m l # 1 q q t k x m C m m 1 X ",
"@ ].|.|.|.|.|.|.|.|.|.|.].#   X { &...........| &./._.).U.I.U.U./.F.>...&.&.:...X     C V 1 $ : $ # d m C S Z D t . @ @ ",
"@ ].|.|.|.|.|.|.|.|.|.|.R.#   X { &...........{ &.U._.I.,...&.&...>.K.~.I.U.^.S.#   X k f 1 $ > > # 8 d g l k k q $ # @ ",
"@ ].|.|.|.|.|.|.|.|.|.|.|.@      .&.X.......| ' X.(.[./.&.{ ..| ' X.).[._._.[.L.    X 2 X # # $ @ # + X # $ $ $ > 2 # @ ",
"# ].|.|.|.|.|.|.|.|.].R.Y.3 X # [ ..{ ......&.X.>.K.^.K.X.' | ..| &.K./.I.(.[.K.8 : & - $ q d t d q w d 2 $ 1 1 $ # # # ",
"# ].|.|.|.|.|.|.|.].8 # 3 ' X.' i ; i | ..&.K.(.K.>.&...u 4 u | ....&...>.I._./.F.Q.B.:   X c x z x x v 2 # $ 2 # X # # ",
"# ].|.|.|.|.|.|.|.R.      { :.{ e * 4 ' { ../.[.)...{ [ 4 % 0 | $...{ ' ..U._.).[..X/.1     g z k z k z f g q $ $ @ # # ",
"# ].|.|.|.|.|.|.|.R.#   O ..>...r * r ..&.>.I.[.U.&.o.| r * r { $.....| &.U._.(.).[.K.&     z k z k z k z v t # # @ # # ",
"# ].|.|.|.|.|.|.|.!.#   : S.'.S.g o g S.^.U.)._.I.&.X.{ r * r { $...X. .&.U._.).).[.K.<     f k z z k z k z f q 1 # # # ",
"# ].|.|.|.|.|.|.|.].#   # I.|.I.r   r U.[._._.[.)...{ { 0 * 0 | $...| ' ..I._.).)._.K.#     0 c z k z k k k z m w $ # @ ",
"# ].|.|.|.|.|.|.|.].&   # K..XL.b 2 b L._.(.I.~.G.,.&...i ; i | X...&.X.>.L._.).).[.K.#     q d f z k g z k z z q $ # @ ",
"# ].|.|.|.|.|.|.|.].:   $ K.[.).L.K.L.)._.L.@.O.@.F.^.K...' } ..| &.K.~.U.).).).).[.K.:     0 2 t z g k k g k z 8 $ # @ ",
"# ].|.|.|.|.|.|.|.R.      /..X[.[._._.)._.Q.O.N +./.[./.&.| ..{ [ ../._._.).).).).[.L.1     q g z V m M m m M C s $ # @ ",
"# ].|.|.|.|.|.|.|.].8 : p B.~.K.).).).)._.Q.@.+.@./._.U.>...&.&...>.L._.).).).)./._.D.#     w z m C C B C C B C w $ # @ ",
"@ ].|.|.|.|.|.|.|.|.].E.Y.8 # 8 K._.).).).).L.L.Q.).).).U.U./.U.U.I.).).).).)./.x.N.h.#     z C V B B B C G z $ # @ # # ",
"@ oX|.|.|.|.|.|.|.|.|.|.oX      /.|._.).).)._._._.).).)._._._._._._.).).).)._.).l.N.s.#     g x m B B B m m d + # @ # # ",
"@ Y.].].|.|.|.|.|.|.|.|.].8 1 8 B.~.K.(.).).).).).).).).).).).).).).).).)./.)./.l.V.f.#     # X a H Z G 6 # # @ # # # # ",
"@ 3 d n ].|.|.|.|.|.|.|.|.].R.Y.8 # 8 K.[.).).).).).).).).).).).).).).)./.N.l.l.l.N.d.#     6 # 8 z j k 2 > $ # # @ # # ",
"@ @ @ a ].|.|.|.|.|.|.|.|.|.|.oXX     /..X[.[._.[.).).)._._.).).)._.)._.).l.z.z.l.N.s.      f $ $ # $ $ $ # # $ +   # # ",
"# # @ d ].|.|.|.|.|.|.|.|.|.|.].#   : v.~.D.K.K.K.)./.(.(.(././.(././.)./.l.z.l.l.Z.h.7 : & f w q $ 1 > q t d t q q # @ ",
"# # @ 3 ].|.|.|.|.|.|.|.|.|.|.].&     # # : # & 3 h.C.l.l.x.l.l.x.l.l.l.l.l.l.x./.)./.D.~.B.=     $ > # k m c z z v 1 X ",
"# # @ 8 |.|.|.|.|.|.|.|.|.|.|.R.                  s.V.z.l.z.z.z.z.z.z.z.z.z.k.l.)._._.[..X/.      # 2 q q q y z v V 1 X ",
"# # @ 3 Y.].].|.|.|.|.|.|.|.|.].8 # > # # # # # 3 f.N.l.l.l.z.l.l.l.l.l.l.x.l.N./.).).).[.K.8 # : O 2 w q 2 q g B H 1 X ",
"# # @ # 8 q h ].|.|.|.|.|.|.|.|.].].R.h.s.s.f.h.h.l.l.l.l.l.l.l.l.l.l.z.l./.).).).).).).).).K.Q.v.#     q y g m z k $ o ",
"# # $ # X # 6 oX|.|.|.|.|.|.|.|.|.|.|.Z.N.Z.Z.Z.C.c.l.l.l.l.x.l.l.l.l.z.x.)._._.).).).).).).[..X/.X     h v M J s X @ @ ",
"# # @ # # 1 q Y.].].|.|.|.|.|.|.|.|..Xl.k.z.z.z.z.z.z.z.j.z.z.l.l.l.l.z.x./.).(.(./.(.).).).).[.K.8 : # 2 8 8 f 2 @ # # ",
"$ # @ # 1 = $ n A D '.|.|.|.|.|.|.|.oX8.3.4.4.4.6.4.4.6.4.5.6.j.N.l.l.z.l.l.l.l.l.l.b./.).).).).U.f.k.p.#     $ # @ # # ",
"# # @ # $ 2 8 q q g .X|.|.|.|.|.|.|.oX7.5.6.6.6.4.6.6.6.6.4.6.N.C.V.l.l.l.z.z.z.z.k.l.)._._.)._.).B.Z.z.      $ # @ # # ",
"# # @ $ $ 2 q q 2 z T.].'.|.|.|.|.|.oX5.=.-.<.-.-.-.-.-.-.;.<.s.h.f.z.l.l.l.l.l.l.z.c./.)./.(.(./.l.V.h.5 # # $ # @ # # ",
"@ # # 1 q q q q 0 f V M G ].|.|.|.|.].5 # @ @ @ @ @ @ @ o X @ # # 7 f.V.l.z.l.l.l.l.l.l.x.x.l.l.l.l.l.l.f.z.p.#     # $ ",
"@ $ 1 2 q q q q 4 t k k z }.|.|.|.|.].@                             l.J.N.l.z.l.l.l.l.l.z.k.l.z.z.N.N.N.V.A.z.      # # ",
"@ $ w q q q q q q q 2 d M Y.].].].].Y.>                           # p.z.h.l.l.l.l.l.l.z.l.l.z.l.z.h.a.h.z.N.h.5 # # $ X ",
"@ # q q q q q q q w t k m C V C C S x # 1 1 4 8 4 q 2 $ $ $ $ > 2 1 # # 3 h.N.l.l.l.l.l.l.l.j.N.h.5 # 5 g.N.z.f.z.p.@   ",
"X $ w q q q q q 2 t z m C V C B C J z . 2 w x m c m q # 1 1 > 1 t q       h.Z.l.l.x.l.N.N.V.l.V.s.      z.J.V.A.P.N.#   ",
"@ # 1 2 w q q f f k m m B B B C m y q # 2 q w t f x f t 2 $ $ 1 q 4     # a.N.z.z.z.k.h.h.f.l.N.h.5 # 5 p.k.h.s.z.p.#   ",
"o @ # 1 q q q g z m C B B B B Z v . $ $ 4 t 0 2 w z z c 2 $ $ = q 8     @ <.7.6.6.8.2.1 # 7 h.N.l.h.z.p.7 # # # # @     ",
"# # @ 1 q q q g h x C B V V B q 2 > $ > 1 = d k z V m B 2 $ 2 8 q 4     @ 2.8.6.3.6.;.      z.H.V.V.A.z.                ",
"# # @ 1 d q 9 f g x V M V Z C $ # = = = $ # h m m C V C 2 # q q q 8     # *.3.<.3.6.<.@   # p.z.f.z.N.a.#         X     ",
"# # o # 6 q y z v m V V B z f 2 1 $ $ # # # 8 q k C B C 2 # q q 8 w q g z # @ 1 -.9.-.@     # # 7 h.H.a.#     m z g $ X ",
"# # X # + d m V C V M C D 2   > = 1 $ @ @ @ # X w H Z D 4 @ q q 2 w z m C       3.0.3.o           z.P.l.#     D d X # @ ",
"# # # # @ 3 8 m C B C k q = @ # # # # # # # # @ 2 d t w > # 1 2 f k m B M X   @ *.6.*.@         # p.N.p.#     d 2 # @ # ",
"# # # # @ @ + n S C D q   @ @ @ @ @ # # # # @ @ # # # # @ @ @ 3 c m Z C V B B m # @ @ X @ # # o @ # # # # $ $ $ # @ $ # ",
"# # # # # # # = 1 1 3 $ @ # # # # # # # # # # # # # # # # # @ # = 1 2 1 1 1 1 3       # # # # # #       @ # # # # # # # ",
"# # # # # # @ X X X   @ @ # # # # # # # # # # # # @ @ @ # # @ @ O O X X X X X X       # # # # # #       @ @ @ @ # # # # "
};
