/* XPM */
static char *xpm_[] = {
/* columns rows colors chars-per-pixel */
"60 60 191 2 ",
"   c #020202",
".  c #0A0606",
"X  c #060807",
"o  c #0A0906",
"O  c #050608",
"+  c #0A0709",
"@  c #070909",
"#  c #0C0B0C",
"$  c #130F03",
"%  c #120D0D",
"&  c #0E100F",
"*  c #121304",
"=  c #13110E",
"-  c #1C1C0E",
";  c #0E0E11",
":  c #120E11",
">  c #180F10",
",  c #151212",
"<  c #1B1515",
"1  c #1B1916",
"2  c #17171A",
"3  c #1B1718",
"4  c #15181C",
"5  c #1C1A19",
"6  c #221616",
"7  c #201A16",
"8  c #231C1B",
"9  c #20171A",
"0  c #1E2111",
"q  c #232216",
"w  c #25211E",
"e  c #29221E",
"r  c #28281D",
"t  c #27281A",
"y  c #231F20",
"u  c #281F20",
"i  c #262121",
"p  c #2B2523",
"a  c #2E2926",
"s  c #2E2929",
"d  c #302625",
"f  c #302A27",
"g  c #302728",
"h  c #332D2A",
"j  c #392F2E",
"k  c #36322D",
"l  c #39322F",
"z  c #373231",
"x  c #3C3432",
"c  c #3E3935",
"v  c #3F3D39",
"b  c #791329",
"n  c #413636",
"m  c #413936",
"M  c #443B39",
"N  c #493E3D",
"B  c #45413D",
"V  c #45413C",
"C  c #48423F",
"Z  c #4A413E",
"A  c #484540",
"S  c #4A4641",
"D  c #4C4341",
"F  c #4E4A45",
"G  c #4D4A44",
"H  c #474340",
"J  c #524645",
"K  c #514C46",
"L  c #524E4A",
"P  c #544F4A",
"I  c #524F4A",
"U  c #534749",
"Y  c #53504A",
"T  c #54514A",
"R  c #56534C",
"E  c #55524D",
"W  c #57544D",
"Q  c #53524D",
"!  c #58554E",
"~  c #595751",
"^  c #5A5851",
"/  c #5D5A53",
"(  c #5D5A55",
")  c #5D5B56",
"_  c #565550",
"`  c #615D56",
"'  c #615E59",
"]  c #61605B",
"[  c #6B6761",
"{  c #676C6D",
"}  c #6A6D6E",
"|  c #64676C",
" . c #6C706F",
".. c #666E71",
"X. c #6A6E71",
"o. c #6E7375",
"O. c #6D747A",
"+. c #717475",
"@. c #727578",
"#. c #757B7C",
"$. c #797C7E",
"%. c #767873",
"&. c #893547",
"*. c #893549",
"=. c #955162",
"-. c #77807F",
";. c #7D807F",
":. c #7A7E81",
">. c #767E81",
",. c #7C8182",
"<. c #798489",
"1. c #78858A",
"2. c #7E8C93",
"3. c #838685",
"4. c #818589",
"5. c #82898A",
"6. c #828D94",
"7. c #898D90",
"8. c #849197",
"9. c #86949B",
"0. c #8A999F",
"q. c #8A9396",
"w. c #8997A0",
"e. c #8798A0",
"r. c #8B9AA2",
"t. c #929FA9",
"y. c #93A2AA",
"u. c #91A0A7",
"i. c #9DACB3",
"p. c #E6C6AB",
"a. c #F1CFB4",
"s. c #EFD1B6",
"d. c #F0D5B7",
"f. c #F7DDBE",
"g. c #F9D8BD",
"h. c #A6B4C2",
"j. c #A8B5C3",
"k. c #AFBFCD",
"l. c #B1BECE",
"z. c #AFBED1",
"x. c #B2C0CE",
"c. c #B2C2D1",
"v. c #B7C9D7",
"b. c #B9CAD7",
"n. c #BCCCDC",
"m. c #B9C8D8",
"M. c #BED0DD",
"N. c #BECDE0",
"B. c #C0D1DF",
"V. c #C9DBDF",
"C. c #FEE3C2",
"Z. c #FDECCE",
"A. c #FFF2CD",
"S. c #FDF5D0",
"D. c #C3D4E5",
"F. c #C9DCE2",
"G. c #C5D6E9",
"H. c #C7D8E9",
"J. c #C9D9E9",
"K. c #C7D8E9",
"L. c #CEDFF1",
"P. c #D2E4E9",
"I. c #D6EAEE",
"U. c #D9EAEE",
"Y. c #D5E5EA",
"T. c #CFE1F0",
"R. c #D7EAF0",
"E. c #D9EBF2",
"W. c #D9EBFE",
"Q. c #D0E1F3",
"!. c #DEF1F6",
"~. c #DFF2F8",
"^. c #E5E4E3",
"/. c #ECECEB",
"(. c #E9E8E6",
"). c #E6F0EF",
"_. c #F0F0EE",
"`. c #E1EEF4",
"'. c #ECEFF1",
"]. c #F1EFF2",
"[. c #E3F2F4",
"{. c #EAF7F7",
"}. c #E3F5FC",
"|. c #E9F7FA",
" X c #E5F9FE",
".X c #EBFEFE",
"XX c #E8F9F6",
"oX c #F2F2F2",
"OX c #F3FFFF",
"+X c #FEFFFF",
"@X c #F4F8F7",
/* pixels */
"# # # # . . .             # # % # . .       .   # # # # # . .         .           # % X .       . .   .         # % # # ",
"# # # # , , , 1 1 5 1 1 5 # # # # = , 1 1 5 1 1 = # # # = , , 2 1 5 1 1 1 1 1 1 5 # # : , 1 1 5 < , , 2 2 5 5 5 # # # # ",
"# #   , h x M Q ( ~ ! / ] <     o p v ' ~ ~ ) [ z       w k n H ^ ^ / ) / ^ ! ^ [ p   w z ^ ) ' T m M m T / ^ [ i   # # ",
"# # , w x M G Y W R ! K I w , 5 p c S ! R W K P c 1 5 < h x C F W I F F F T ! I P k 1 h x F F K S c A S Q _ I Y k 1 # # ",
". , x c Z Y ` R T R ! G M x k S I ) ^ T T R B c B P c h v C ^ ^ W F M M n R ) F c Z F S B M M M V M I ' W W F x B I 1   ",
"X % e a l v G Y W R ) c p i e h c S F W R R c h z l h f c B S G / B w h k V F M j z l k k x k s f l M G P ) S h l x , . ",
"# # 1 w f k v K W W ' k % 1 9 p h c S ~ W ~ k p a f h f c B c V ' M % e h x B x p f a a a h s < w a x v I ) B p f h = . ",
"# # 9 i f x M K ! F S f < 8 9 8 w h x S B S p 8 5 , 5 i f l M M G k < 8 8 h l a 9 8 i < , < , : < 8 a k M F l 9 < , # # ",
"# % 8 p j n M Q ) F M f 1 8 8 1 8 f j M M B e 9 1 . < 8 a h V B B j 1 8 9 f k d 9 8 8 % # # # # = 9 s h n S k 6 :   # # ",
"# # , 5 8 h c S I B c i , 2 1 9 8 a k .   . 9 < , # , 3 i s x x c h 7 5 <       < 1 1 , : : : ; , < 8 d h x s 1 : # # # ",
"# # . # . 8 h n V x k 5 @ # ; 9 e f k       , @ # : # # < 8 f h h p 8 , #       # # # # # , : # # # < 8 < < > # # # # # ",
"# # # # # 9 i h c s 3 , # % : , < 8 p ; : # , % % > : ; , < e i i 1 = = % X # X 8 y 8 w w , % = : % , , i s p i , . # # ",
"# # # # # < 8 a k 8 O % = % : #     # F.'.V.#     > : ; # # 1           # ..:.{ #   . h h % # % : % # # p l h x <   # # ",
"# # # # : , , , 2 , > , , : % ;     O }.+X}.,     , : # w a a             @.7.@..     a f s 8 % , # < 5 a h f h p p , @ ",
"# # # # , % # # # % , > , , % # # # 1 E.OXR.;     % = % s h f X . @ # # , +.,.o..     a h l s % , % 1 8 a h f h j z , . ",
"% # X # = : % # # % % : #     # p.d.s.|..XR.&               # { O.%.p.d.p.$.#.o.+     z n N z # < 8 9 1 p f j n n N < . ",
"# # # # = , , < < < 1 , #     # g.A.Z..XOXE.@                 +.#.,.C.S.C.,.#.o.X     x n x f # , 9 8 8 f j x M x z , . ",
"# # % = % 1 8 h z h l 5 #     # p.f.g.`.{.P.2 @ X ; # % , ; 2 #.<.3.a.f.s.$.#.o..     M M < # # % # i z M Z N G w . # # ",
"# # % : ; 1 8 i p a h w 1     . @.3.;.,.;.,.o.} #.P.`.R.I.I.I.~.[.I.3.$.;.@.,.o..     h s , % : : # 5 i s g f f 9 % # # ",
"# # , % # 1 e 1 < 8 a h h     X X.#.O.o.@.+.,.#.5..XOXOXOXOXOXOXOX.X@.| ..o.#.X..   . , . # # # # # + . # % % # > , # # ",
"# # # # % , , w p s x l x     . o.,.#.#.$.#.#.o.,.~..X X~.~.!.~.[.I.5.$.,.,.5.#.X     , = 8 w w i 8 8 i < % , , % # # # ",
"# # @ # , % # a z x M M M     . o.:.#.#.#.#.#.+.,.!.OX!.5.#.,.,.$.5.R. X!.!.|.P.&     % = h l j h j j l 1 o % , # . # # ",
"# # # # # # : , : i D s <       @.4.:.#.#.#.o.} #.}.OX X,.o.@.o.} #..XOXOX.XOX!.      < 8 f h f f h f h p a 8 % % # # # ",
"# # # # # # % #   y U u . X X # } #.@.#.#.$.,.$.5.E.{.R.#.} @.#.@.,.E.[.~. XOXR.5 # # 1 8 f h f h f h f h l w # # @ # # ",
"% # % # @ # , : # < .   . { $.} t - r @.#.,.E.{.R.5.,.#.r - t @.:.#.,.#.5.!..X XU.[.F.#   . p f h h f h f h p 9 , # # # ",
"# # # # # # # # % #     . +.4.+.1 $ 1 X.o.#.}.OX}.#.o.} 7 $ 0 @.:.#.o.} #.~..X X.XOX}.,     9 k h f h f f f h x 8 % # # ",
"# # # # # 5 p h h z #   . #.5.#.q * q #.,.5.!.OX~.:.#.@.q * q @.:.#.#.+.,.!..X X XOXI.&     9 w p h f a h f h h 9 % # # ",
"# # # % % w M (.oXoX,   ; P.@XP.p o a P.XX~. X.X!.,.@.@.q * q @.:.#.#.o.,.~..X X X.XE.#     7 < w h a f f a f h 5 % # # ",
"# # . : 1 p l +X+XoX;   & E.+X[.q   q !.OX.X.X.X X$.o. .- * 0 @.-.#.@.} #.!..X X XOXR.&     8 p h n x x x x x M u % # # ",
"# # # , a k H oX+X].=   # E.OXE.k - k U..X X`.[.U.4.,.#.r 1 t @.:.#.,.$.5.[..X X XOXI.&     8 h x M M m M M n M 8 # # # ",
"# # 9 s ^.oXoX+X+X].#   ; E.OX XE.E.E. X.X[.=.&.=.U.XXE.#.} +.#.@.,.U.[.!. X X X X.XR.&     j M M n n n M H h % # @ # # ",
"@ % 8 f +X+X+X+X+X_.%   , [.OX.X.X.XOX X.X`.*.b &.}.OX}.,.o.#.o.} #.}..X.X}. X X XOXE.#     d k x n n n z x i + # # # # ",
"@ # 8 s oX+X+X+X+X/..   , V.[.I. X X}. X.X`.=.*.=.`.OX!.5.#.,.,.#.5.[..X X X X X}..XI.;     %   y U M Z 9 % % @ # # # # ",
"# # < s oX+X+X+X+X/.n f p # ; 5 E..X X X X}.`.`.`.}. X X[.~.~.~.!.~. X X X X X}.M.K.c.#     1 # 1 h d f < > %       # # ",
"# # . y oX+X+X+X+XoXK 8       . }.+XOX X}. X.X.X.X X X X.X.X.X.X.X.X X X X X.X Xn.D.z.#     s % % % # # # # #       # # ",
"# 3 2 s oX+X+X+X+XoXf 9 <     # F.`.E. X X X X X X X X X X X X X X X X X X}. X}.n.D.l.;     p 8 5 % , % 5 w 8 X + # # # ",
"# ^.oXoX+X+X+X+X+XoX: < i , % # # & 5 U.OX X X X X X X X X X X X X X X X}.M.n.n.n.G.x.#           % % % .   # } $.{ @   ",
"# +X+X+X+X+X+X+X+XoX5 , < , , :     O }.OXOXOXOX.X.X X X X X X X X.X X.X Xn.b.n.b.G.k.            # < 7       >.q.$.#   ",
"# oX+X+X+X+X+X+X+XoX5 % % % % ,     # F.`.E.R.R.E.}. X}.}.}.}.}.}.}.}. X}.n.b.n.n.H.c.5 & & # # #   < 8 ; , , { $.{ #   ",
"# oX+X+X+X+X+X+X+X].s 9 8 8 9 %       # # ; # ; 5 c.K.n.n.M.n.n.M.M.n.n.n.n.b.n.}. X~.E.I.R.E.[.F.;   # F.'.F.2 + # # . ",
"# oX+X+X+X+X+X+X+XoXc h k k h o                   l.G.b.b.b.n.b.b.b.b.b.b.n.b.n. X.X{.OXOXOXOXOX}.@   . .X+X.X#     # # ",
"# oX+X+X+X+X+X+X+XoXS c c a a 8 # ; # # # # # # 4 c.D.n.b.n.n.n.n.n.n.n.n.n.b.n.}. X X X X X X.XE.5 ; 5 F.'.V.%     # # ",
"# oX+X+X+X+X+X+X+X+XoXoX^.=   # h.b.x.c.k.c.c.l.x.n.n.b.n.n.n.n.n.n.n.n.n.n.n.n.}. X X X X X X X}.c.v.j.4 % # # # @ # # ",
"# +X+X+X+X+X+X+X+X+X+X+XoX#   # D.W.L.K.K.H.K.H.K.D.n.n.n.B.n.n.n.n.n.n.n.n.b.n. X.X X X X X X.X XH.L.b.      % # @ # # ",
"# ^.oXoX+X+X+X+X+X+X+X+X/.    # j.b.x.v.b.b.b.b.b.b.m.b.b.b.b.n.n.n.n.n.n.n.n.n.}. X}. X X X}. X}.n.D.k.#     % % # # # ",
"# 5 5 h oX+X+X+X+X+X+X+X/.h s s # # 2 6.t.r.r.r.w.r.w.r.0.9.r.v.N.n.n.n.n.n.n.n.n.n.B.}..X}.D.n.n.N.K.c.#     f <   # # ",
"# # = 5 +X+X+X+X+X+X+X+X+Xj f a       8.u.0.r.r.0.r.r.0.r.9.r.D.H.K.n.n.n.n.b.n.b.b.n. X.X Xn.v.n.K.T.n.#     j 8 % # # ",
"@ # 8 s ^.oXoXoXoXoXoXoX(.x a a .   # <.9.2.6.2.6.2.2.2.2.2.6.k.c.c.b.n.n.n.n.n.n.b.n.}. X}.n.b.b.c.b.h.#     p a j = . ",
"@ # 8 8 s a a g d f h c M l j k h l 8 # @ # # # # @ # @ # # X # # 2 c.K.b.n.n.n.n.n.n.N.n.n.n.K.c.2 # #       h k z , . ",
"@ # 8 8 9 8 8 7 < w h x M n M n M U f                             . b.Q.G.N.N.n.n.n.n.D.K.D.n.G.l.            M M M , . ",
"X # , < 8 9 5 p p f x x n n n M x i 5                             # h.b.l.b.b.b.b.b.v.x.x.x.n.K.c.2 # #       x n M , . ",
"# # # , 8 8 9 a h z M n n n n N l . : % < 8 1 < 8 f a h < % % % 7 7 ; # 2 8.u.0.e.t.8.2 # 4 c.K.b.c.v.j.;     x n M , . ",
"# # # , 8 9 9 a s j M n n M x 8 < : : : % % i s h n x x 1 # 1 1 8 5       8.t.r.9.w.1.      b.T.D.G.L.n.;     x n M , . ",
"# # . , e 9 6 p a j M n n N M % # : = , ; # s l x M n M 1 % 9 8 8 5     @ <.9.2.9.r.2.#   # h.b.c.n.G.x.#     x M D 2 . ",
"# # X % < 8 e h l z M n n f p , % % % # # # 8 8 s M n M 1 # 9 8 9 8 8 s h # # , 6.y.2.@     # # 2 x.T.x.#     x j d : . ",
"# # X # + p c n M M x M D < . : , , # # X o # O 8 U M D 1 # 8 8 < w f x M       9.i.9.#           b.W.b.#     D i . # # ",
"# # # # # 2 5 z M n M f 8 = # # # # # # # # # # < i w 8 % # , < p f x n x .   # <.e.<.#         # h.D.h.#     i < # # # ",
"# # # # # # + z Z M D 8   # # # # # # # # # # # # # # # + # # 2 k x N M n n n x # # @ . # # # X # # # # # % % % # @ % # ",
"# # # # # # # = , , 2 # # # # # # # # # # # # # # # # # # # # # = , < , , , , 2       # # # # # #       # # # # # # # # ",
"# # # # # # # . . .   @ # # # # # # # # # # # # # # # # # # # # @ @ . . . . . .       # # # # # #       # # # @ # # # # "
};
