/* XPM */
static char *xpm_[] = {
/* columns rows colors chars-per-pixel */
"60 60 186 2 ",
"   c #020202",
".  c #0A0606",
"X  c #060807",
"o  c #0A0906",
"O  c #060609",
"+  c #090709",
"@  c #070909",
"#  c #0C0B0C",
"$  c #120D0D",
"%  c #120E02",
"&  c #0E100F",
"*  c #121001",
"=  c #13110E",
"-  c #19100F",
";  c #1C1B0F",
":  c #0E0E10",
">  c #130E11",
",  c #180F10",
"<  c #0D1011",
"1  c #151212",
"2  c #1B1515",
"3  c #1C1916",
"4  c #151619",
"5  c #191718",
"6  c #161A1B",
"7  c #1D1A19",
"8  c #211916",
"9  c #201719",
"0  c #231C1B",
"q  c #281E1D",
"w  c #231717",
"e  c #1E2013",
"r  c #232216",
"t  c #26211E",
"y  c #29211E",
"u  c #29291D",
"i  c #27291E",
"p  c #241E20",
"a  c #281F20",
"s  c #262121",
"d  c #2B2523",
"f  c #2E2926",
"g  c #2F2A29",
"h  c #302625",
"j  c #312A27",
"k  c #302728",
"l  c #332D2A",
"z  c #392F2D",
"x  c #36312D",
"c  c #39312E",
"v  c #35382D",
"b  c #373332",
"n  c #3C3432",
"m  c #3E3935",
"M  c #3F3D39",
"N  c #7A1229",
"B  c #413635",
"V  c #413936",
"C  c #403738",
"Z  c #443B3A",
"A  c #493E3D",
"S  c #45413D",
"D  c #45413D",
"F  c #48423F",
"G  c #4B413E",
"H  c #484540",
"J  c #4A4641",
"K  c #4C4341",
"L  c #4E4A45",
"P  c #4D4943",
"I  c #514543",
"U  c #504D46",
"Y  c #524F4A",
"T  c #514E49",
"R  c #544F4A",
"E  c #524F4A",
"W  c #594E4C",
"Q  c #53504A",
"!  c #54514A",
"~  c #55524B",
"^  c #56534C",
"/  c #55524D",
"(  c #57544D",
")  c #53524D",
"_  c #58554E",
"`  c #595751",
"'  c #5B5851",
"]  c #595951",
"[  c #5D5A53",
"{  c #5D5A55",
"}  c #5D5B55",
"|  c #565550",
" . c #615D56",
".. c #615E59",
"X. c #61605B",
"o. c #6B6761",
"O. c #666B6C",
"+. c #6A6D6D",
"@. c #6B6F71",
"#. c #6E7474",
"$. c #6B7476",
"%. c #717474",
"&. c #757975",
"*. c #727679",
"=. c #757A7C",
"-. c #7A7D7D",
";. c #8A3447",
":. c #893647",
">. c #974F63",
",. c #955264",
"<. c #7E807F",
"1. c #777E81",
"2. c #797E81",
"3. c #7B8283",
"4. c #77858B",
"5. c #7F868A",
"6. c #838685",
"7. c #83878A",
"8. c #82898B",
"9. c #818F98",
"0. c #829199",
"q. c #889296",
"w. c #8B9AA1",
"e. c #9AA9B0",
"r. c #98A7AC",
"t. c #A7B3BF",
"y. c #EECEB6",
"u. c #EFCFB8",
"i. c #F1CFB6",
"p. c #F7D0B1",
"a. c #F6DDBD",
"s. c #FDDDBE",
"d. c #E9C7AC",
"f. c #A6B4C2",
"g. c #ABBAC9",
"h. c #B2BFCF",
"j. c #AEC0CE",
"k. c #B2C0CE",
"l. c #B4C3D2",
"z. c #BAC7D7",
"x. c #B6C9D7",
"c. c #B8C8D7",
"v. c #B7C6DA",
"b. c #B7C8D9",
"n. c #BCCCDC",
"m. c #BFD1DE",
"M. c #BFD2E1",
"N. c #C1CFDD",
"B. c #C9DBDF",
"V. c #FDDDC3",
"C. c #F4D5C1",
"Z. c #FEE4C3",
"A. c #FEECC8",
"S. c #C3D4E4",
"D. c #C7D9E7",
"F. c #C9DBE2",
"G. c #C6D6E9",
"H. c #C7D9E8",
"J. c #C8D9EB",
"K. c #CDDFF2",
"L. c #CFE4E7",
"P. c #D2E4EA",
"I. c #D9E6EF",
"U. c #D7EAEE",
"Y. c #DAEAED",
"T. c #CFE1F1",
"R. c #D7EAF1",
"E. c #DAEBF1",
"W. c #D8EBFD",
"Q. c #D0E1F3",
"!. c #DEF1F6",
"~. c #DEF2F9",
"^. c #DEF9FF",
"/. c #ECF0EF",
"(. c #E2F1EE",
"). c #E1EEF4",
"_. c #EBEFF0",
"`. c #E3F2F4",
"'. c #EAF3F4",
"]. c #E8F8F7",
"[. c #E3F6FC",
"{. c #E9F7F8",
"}. c #E5F9FE",
"|. c #EBFDFF",
" X c #F3FFFF",
".X c #FCFFFE",
/* pixels */
"# # # # X X X             # # $ # X X       X   # # # # # X X O       X           # $ X X       X X X X X       # $ # # ",
"# # # # 1 1 1 3 3 7 3 3 7 # # # # = 1 3 3 7 3 3 = # # # = 1 1 2 3 7 3 3 3 3 3 3 7 # # > 1 3 3 7 2 1 1 2 7 7 7 7 # # # # ",
"# #   1 l n Z ) { ` _ [ X.2     o d M ..` ` { o.b       t c B H ' ' [ { [ ' _ ' o.d   t n ' } } ! V Z V ! ' ' o.s   # # ",
"# # 1 t n Z P Q ( ^ _ U Y t 1 7 d m J _ ^ ( U R m 3 7 2 l n F L ( Y L L L ! _ Y R x 3 l n L L U H m J J ) | Y Q c 3 # # ",
"X 1 n m F !  .^ ! ^ _ P Z n c J Y } ' ! ! ^ S m S R m l M F ' ' ( L Z Z B ^ { L m F L J S Z Z Z D Z Y ..) ( L n S Y 3   ",
"X $ y f c M P Q ( ^ { m d s y l m J L ( ^ ^ m l b c l h m S J P [ S t l c D L Z l n c c c n c f j c Z P Y { J l c n 1 X ",
"# # 3 t h c M U ( ( ..c $ 2 9 d l m J ` ( ` c d f j l j m D m D ..Z $ y l n S n d h f f f l f 2 t f n M Y { S d j l = X ",
"# # 9 s j n Z U _ L J j 2 0 9 0 t l n J S J d 0 7 1 7 s h c Z Z P c 2 q 0 l c f 9 0 s 2 1 2 1 > 2 q f c Z L c 9 2 1 # # ",
"# $ 0 d z B Z ) [ U S j 8 q 0 9 0 f c Z Z Z s 8 2 O 2 q d l S S S c 2 0 8 h c d 8 0 0 > # # # : = 9 f l B J c w >   # # ",
"# # 1 7 0 l m J Y S m s 1 2 2 8 0 j c S m m 0 2 1 # 1 2 y f n m m h 8 2 2 0 s 9 2 3 2 1 > $ $ : 1 2 q h l n f 2 > # # # ",
"# # X # X 0 l B S n c 7 + # : 9 s j n J c l 1 @ # > : # 2 0 h l l f q 1 # # # # o # X # $ $ = # # # 2 q 2 2 , # # # # # ",
"# # # # # 9 s l m f 5 1 $ : : 1 2 s h B d 2 1 > 1 , 1 : 1 2 y s d 0 1 1 > > # 2 d 0 t t t = # 1 > $ 1 1 s f d s 1 X # # ",
"# # # # # 2 0 f c 7 O $ 1 > > : 1 7 y c 7 X 1 - 1 , > : # # 2 9 0 2 # $ 1 $ # 9 n l c c l $ $ > > $ # # d c l n 2   # # ",
"# # # # > 1 1 1 2 1 = $ 1 $ : : > 1 1 2 1 > 1 1 1 1 > $ p f j d 1 $ $ > $ 2 8 9 0 f l l h f q $ 1 # 2 7 f l h l d d 1 # ",
"# # # # 1 $ # # # $ 1 1 1 $ > $ # : # # > 2 $ 1 1 1 1 $ f n c d $ 1 = 1 $ 3 q 9 2 d l j j c h $ 1 $ 2 q f l j l z n 1 X ",
"$ # X # = > $ # # $ > $ # 7 0 # # > > > 2 q 2 > , # 2 0 f l h h h 0 # 2 0 0 9 9 2 d h n V A n # 2 q 9 3 d h z B B A 2 X ",
"# # # # = 1 1 2 2 2 2 1 # 3 9 2 1 = 1 > 2 0 1 $ 1 1 2 0 f l l l n s o 2 q 0 9 0 0 f l V Z n g # 1 9 0 q j z n Z n n 1 X ",
"# # $ = $ 2 0 l c l c 7 # # 1 n j . # $ # $ $ $ 2 s 0 3 d l V B I l . 2 y 8 3 t j c Z A Z 2 # : $ # s n Z F A P t . # # ",
"# # $ > : 2 0 s d f x t 7 1 $ t q 3 3 3 0 9 1 # 1 2 0 s l n V n l 0 # 2 2 q t f n n Z z d 1 $ > > # 7 s f k h j 9 $ # # ",
"# # 1 $ # 2 y 2 2 q h j z 2 $   = n c z z c 2 # $ # t z m Z K n . # $ # # f n m K A H 2 . # # # # # + X # $ $ # $ 2 # # ",
"# # # # $ 1 1 t f j n c n 3 $ 2 3 t d l h l 2 $ > # s V B V d 9 = 1 1 $ # 3 9 0 s a s 1 = 0 t t s 0 q s 2 $ 1 1 $ # # # ",
"# # @ # 1 $ # f c n Z Z A 3 # q q 2 t l h l 2 > > X g I Z m $ # $ > > $ # # # # # $ # $ 1 l c l l z z c 2 o $ 2 # X # # ",
"# # # # # # > 1 $ s F f 2 1 $ 7 0 f z m n B 2 # > > 2 9 7 3 $ 2 f d f d d 0 3 2 > > $ 2 0 f l l h l h l d f 0 $ $ # # # ",
"# # # # # # $ # O p W y . $ 1 2 0 h z Z V Z 2 # $ 1 $ $ # # . 1 c z l z z y q 3 > > $ 7 q l l l l j l j l c t # # @ # # ",
"# # # # X $ $       l 9 $ > $ q d z n B V Z 2 # $ O     - 2 3 0 j l f l j 9 2 2 2 1 > 7 q d f l l l h l h l d 9 1 # # # ",
"# # # # # # $       O $ 1 # 1 l n Z B m Z F 9 $ =       3 y c n l f f l n 2 . 2 y 2 $ 7 0 2 0 l l j l h h j l n q $ # # ",
"$ # # # # 2 q $ # : q 2 $ $ > 2 q Z B Z j q 2 $ $ . # X 2 9 0 d g l V s 7 1 $ 1 2 1 # 8 0 3 0 t d l j f l j l x 9 $ # # ",
"# # X #     1 B.'.F.>     $ = O 2 Z Z H q O     # O.2.O.X     9 f z K q . $ $ $ $ # # 7 0 0 9 2 t l f j l f h l 7 $ # # ",
"# # X $     # ^..X^.      2 $ $ 2 2 2 2 2 >       $.5.#.      h V V K a . t f d d 7 $ 1 1 7 0 f l B n m n n m Z a $ # # ",
"# # # =     : U..XY.7 & < 2 $ 1 > $ # # $ > + @ $ &.8.&.# . # j n n Z q o f c l n 0 $ : # 9 q l c Z Z B Z Z V Z q $ # # ",
"+ # 0 3     $ u.Z.V.Y.).F.#               # O.$.&.y.s.y.&.$.O.#     = 2 3 f f c K s # > 2 f c Z Z V V V Z H l $ # @ # # ",
"@ # q 9     # p.Z.Z. X.X}.#                 %.=.<.s.A.V.6.3.*.O     # 2 y j c l V q $ > 2 d f z n V V V n n s + # # # # ",
"X # q 9     # d.a.C.`.].P.2 X X : & # < & 2 =.3.6.i.a.i.<.=.#.#     O t n Z I l . $ 1 $ $ # # O p I Z F 9 $ # X # # # # ",
"# # 2 7     X &.6.-.3.3.3.%.+.=.P.E.Y.R.R.R.!.].E.6.=.-.=.3.%.X     1 3 s f z q # $ > 8 0 0 7 # 7 l h j 2 $ $ # # # # $ ",
"# # + 7     X @.=.$.%.#.%.2.=.7.|. X X X.X X|. X}.=.O.@.%.=.+.#     d 1 O # $ $ $ $ # f n n f $ $ $ $ $ # # $ $ X   # # ",
"# # # =     X #.2.=.=.=.=.=.*.3.!.|.}.~.~.!.!.[.Y.7.=.3.3.7.=.O     = 1 > $ $ 1 2 9 0 f f f f s 9 > > = 0 t t 0 0 0 # # ",
"$ # X @     O #.3.=.=.=.=.=.%.3.[.|.!.7.=.3.3.=.8.U.[.~.!.{.L.#     . = -           X       f n s $ 1 $ f n l     X 1 X ",
"# # # #       *.6.2.=.=.*.$.+.-.[. X[.3.%.*.%.+.-.}. X|.|. XE.      $ 1 2                   h z q # 2 8 q 0 y       1 X ",
"# # X # + X # @.=.%.=.=.=.3.=.7.E.{.R.-.+.%.=.%.3.R.[.[.}. XE.7 : : $ 1 > # # # : & : < & & d c 0   3 y 3 2 9 # # # 1 X ",
"#     O O.=.#.u ; u %.=.3.U.].R.7.3.=.u ; u $.-.=.-.-.7.!.|.}.E.`.B.#   # f.v.l.P.E.E.U.`.B.<     1 2 2 O   # +.-.O.X   ",
"#     X $.5.%.3 % 3 +.%.=.[..X[.=.#.@.3 * 8 $.3.=.#.+.=.~.|.}.|..X[.X   O c.K.J.|. X X X.X[.X     d 2 O       2.q.1.+   ",
"$     X =.8.-.r = r =.2.8.!. X!.3.=.*.r = r %.-.=.-.#.3.~.|.}.}. XR.6 # 4 k.S.m.[.}.}.}. XE.6 # # 2 $ # = : 1 +.-.O.X   ",
"#     & P..XP.u o u P.].[.}.|.!.3.=.$.r = r %.2.=.=.%.3.!.|.}.}.}.[.l.h.l.c.n.n.}.}.}.}.}.[.l.c.f.#   # F._.F.2 # . # # ",
"#     # !..X!.r   r !. X|.|.|.}.1.#.+.3 * e %.2.=.$.+.=.!.|.}.}.|.}.D.S.S.n.c.n.}.|.}.}.}.[.H.K.c.    X |..X|.#     # # ",
"#     : E. XY.v 2 v E. X}.E.`.I.7.-.-.u ; i %.2.=.3.-.7.!.|.}.}.|.}.n.n.n.n.n.S.[.}.}.}.}.[.n.S.l.5 # 7 F./.F.#     # # ",
"#     # R. X}.Y.U.E.}.|.).,.:.>.E.{.U.=.+.%.=.#.3.U.].!.[.}.}.}.}.[.n.b.n.[.}.[.}.}.}.}.}.[.m.n.c.l.c.f.7 : = f 1   # # ",
"@     : [..X|. X X X}.|.).;.N :.`. X}.3.%.=.#.+.-.}.|.|.}.}.}.|.|.}.n.c.n.}.|.}.}.}.}.}.|.}.n.c.n.T.W.S.      c 7 # # # ",
"+     $ F.(.E.[.}.}.}.|.).,.;.,.`.|.!.7.=.3.3.=.7.!.|.}.}.}.}.[.[.[.S.c.M.[.|.}.}.}.}.}.[.[.n.n.c.k.c.f.#     d h l = X ",
"@ # 9 3 # # 7 R.|.}.}.}.}.).E.).}.}.}.~.~.!.!.~.~.}.}.}.}.}.[.m.c.S.[.}.}.}.}.}.}.|.[.S.n.n.n.S.k.4 # # d g j c c n 1 X ",
"@ $ q 0       [..X|.}.}.}.|.|.|.}.}.}.|.|.|.|.|.|.}.}.}.}.|.}.n.v.n.}.|.|.|.}.}.}.|.}.n.c.c.S.T.c.O     d f c Z Z Z 1 X ",
"X # 1 2     < B.`.U.}.}.}.}.}.}.}.}.}.}.}.}.}.}.}.}.}.}.}.}.[.n.c.n.[.}.[.[.}.[.}.}.[.N.c.n.k.n.f.#   O l n n B V Z 1 X ",
"# # # 1 9 9 2 < # 7 R. X}.}.}.}.}.}.}.}.}.}.}.}.}.}.}.[.m.n.n.n.n.n.n.n.n.N.n.m.n.m.n.n.S.k.4 # # 3 d l V Z V V V Z 1 X ",
"# # @ 1 0 0 3       [..X X|. X X X|. X X X|.|.|.|.}.|.}.n.b.c.n.n.n.S.S.S.n.n.n.S.S.S.n.G.j.      # f Z B C V V V Z 1 X ",
"# # X = y 9 2 O   < F.`.U.U.U.E.Y.R.E.R.U.Y.[.}.[.[.[.[.n.c.n.n.n.n.k.h.k.x.c.z.k.k.k.n.G.k.#     O l I B m B V Z K 2 X ",
"# # # $ 2 0 t l l z 1 # : > # : # < # # # 6 l.H.m.n.m.n.c.n.n.n.S.l.4 # 2 9.r.9.1 # 4 k.K.l.#     # 0 j n Z B V z h > X ",
"# # @ # + s B B Z V                         z.K.S.S.S.S.G.S.S.G.Q.c.      0.e.0.      c.W.c.:     = $ + n G Z I s . # # ",
"# # # # # 2 7 n Z m +                     # t.c.k.k.k.k.j.j.j.j.c.t.:   # 4.w.4.#   # f.S.f.#     # $ 1 0 s a s 2 # # # ",
"# # # # # # + b F Z A 9   # # + # @ # # # # # # # # # # # # # # # # V B n # # # Z 5   # # # # + # + # 1 $ $ $ $ # @ $ # ",
"# # # # # # # = 1 1 2 $ # # # # # # # # # #                         2 1 1       2 # #       # # # # # # # # # # # # # # ",
"# # # # # # # X X X X X # # # # # # # $ # #                         X X X       X # #       # # # # # # # # # @ # # # # "
};
