/* XPM */
static char *xpm_[] = {
/* columns rows colors chars-per-pixel */
"60 60 223 2 ",
"   c #040405",
".  c #0A0405",
"X  c #050807",
"o  c #0A0907",
"O  c #040508",
"+  c #090709",
"@  c #070908",
"#  c #0C0B0C",
"$  c #120D0D",
"%  c #13110F",
"&  c #1F140E",
"*  c #0E0D10",
"=  c #120F10",
"-  c #1A0E13",
";  c #0E1312",
":  c #0C161A",
">  c #141313",
",  c #1B1515",
"<  c #1B1916",
"1  c #1B1518",
"2  c #161919",
"3  c #1C1A19",
"4  c #141519",
"5  c #0E130F",
"6  c #2A0E17",
"7  c #330D16",
"8  c #231515",
"9  c #221916",
"0  c #23131A",
"q  c #2C141D",
"w  c #231C1B",
"e  c #291615",
"r  c #33151D",
"t  c #3B151E",
"y  c #3B1A19",
"u  c #361A0F",
"i  c #1E201D",
"p  c #25211E",
"a  c #28211E",
"s  c #281F20",
"d  c #291920",
"f  c #321521",
"g  c #3B1621",
"h  c #1E2422",
"j  c #262221",
"k  c #2B2523",
"l  c #2E2926",
"z  c #222A29",
"x  c #2E2B2A",
"c  c #282828",
"v  c #322423",
"b  c #312A27",
"n  c #312729",
"m  c #332D2A",
"M  c #392E2D",
"N  c #36312E",
"B  c #39312E",
"V  c #382F30",
"C  c #363432",
"Z  c #3C3432",
"A  c #3E3935",
"S  c #3D3B38",
"D  c #363738",
"F  c #293432",
"G  c #431D16",
"H  c #4D1D16",
"J  c #451B1A",
"K  c #4B1D1A",
"L  c #431519",
"P  c #5A1D16",
"I  c #631E17",
"U  c #4B2119",
"Y  c #472115",
"T  c #512016",
"R  c #6C2219",
"E  c #6D291C",
"W  c #7A2719",
"Q  c #431522",
"!  c #4A1624",
"~  c #5B1529",
"^  c #591527",
"/  c #491729",
"(  c #63162B",
")  c #6C162D",
"_  c #6C192C",
"`  c #681A27",
"'  c #75172E",
"]  c #7C1A2A",
"[  c #7A1B27",
"{  c #761631",
"}  c #7C1632",
"|  c #771A30",
" . c #7C1933",
".. c #413635",
"X. c #423936",
"o. c #443B39",
"O. c #483D3C",
"+. c #4A3934",
"@. c #583938",
"#. c #512E2D",
"$. c #6B2E25",
"%. c #772C25",
"&. c #73332B",
"*. c #6E3B36",
"=. c #3C413E",
"-. c #45413D",
";. c #45413D",
":. c #4A413E",
">. c #57463F",
",. c #493D42",
"<. c #494540",
"1. c #4C4441",
"2. c #4E4A45",
"3. c #4C4943",
"4. c #474945",
"5. c #504D46",
"6. c #534E4A",
"7. c #544745",
"8. c #56534C",
"9. c #57544D",
"0. c #54514B",
"q. c #5A554E",
"w. c #565451",
"e. c #595751",
"r. c #5A5851",
"t. c #5D5A54",
"y. c #575852",
"u. c #555050",
"i. c #674B45",
"p. c #605E59",
"a. c #645B56",
"s. c #60514A",
"d. c #61615C",
"f. c #596D64",
"g. c #6A6761",
"h. c #686A65",
"j. c #786D67",
"k. c #6D736D",
"l. c #7C7871",
"z. c #88281C",
"x. c #99291B",
"c. c #AE2C1D",
"v. c #A5281C",
"b. c #BB2E1E",
"n. c #B12B1E",
"m. c #B6301E",
"M. c #871A2E",
"N. c #921D2E",
"B. c #9A1E2E",
"V. c #841634",
"C. c #8B1734",
"Z. c #851933",
"A. c #8C1933",
"S. c #8B1638",
"D. c #921A33",
"F. c #9B1A35",
"G. c #971838",
"H. c #A71E32",
"J. c #892724",
"K. c #9A222B",
"L. c #872234",
"P. c #94292D",
"I. c #A5212B",
"U. c #AA232B",
"Y. c #A92924",
"T. c #BC2C23",
"R. c #B4232E",
"E. c #BC262B",
"W. c #BB2A29",
"Q. c #B22928",
"!. c #BE3120",
"~. c #B12131",
"^. c #BB2330",
"/. c #CA2819",
"(. c #DF2B1A",
"). c #CD311F",
"_. c #C3321C",
"`. c #D4341F",
"'. c #DD331E",
"]. c #EA2F1E",
"[. c #E4351E",
"{. c #F9341D",
"}. c #C42D24",
"|. c #CB2E24",
" X c #C72A2C",
".X c #D22E27",
"XX c #C23122",
"oX c #CC3222",
"OX c #D33422",
"+X c #DB3522",
"@X c #DB3821",
"#X c #E23623",
"$X c #E73723",
"%X c #F73923",
"&X c #E04435",
"*X c #D34434",
"=X c #837D74",
"-X c #A27771",
";X c #DD5645",
":X c #C35443",
">X c #F15E56",
",X c #CD777D",
"<X c #E97B67",
"1X c #CD6250",
"2X c #89837B",
"3X c #90867D",
"4X c #958C84",
"5X c #9A958E",
"6X c #829091",
"7X c #A49D95",
"8X c #A5A39A",
"9X c #ABAAA1",
"0X c #B8B5AE",
"qX c #D68291",
"wX c #FF9782",
"eX c #D08AA6",
"rX c #C7C4BB",
"tX c #DBD8CE",
"yX c #FFD9C6",
"uX c #EEEADA",
"iX c #F5E5D8",
"pX c #FFFFFA",
"aX c #FDFFEF",
/* pixels */
"# # # # . . .             # # $ # . .       .   # # # # # . .         .           # $ o .       . .   .         # $ # # ",
"# # # # > > > < < < < < < # # # # % > < < < < < % # # # % > > , < < < < < < < < 3 # # = > < < < , > > , 2 < < 3 # # # # ",
"# #   > m Z o.0.t.e.q.t.d.,     o k A p.e.e.t.g.D       p B ..<.r.r.t.t.t.r.q.r.g.j   p Z r.t.p.0.X.o.X.0.t.r.g.j   # # ",
"# # > p Z o.3.0.9.8.q.5.6.p > 3 k A <.q.8.9.5.6.A < < > m Z :.2.9.6.2.2.2.0.q.6.6.N < m Z 2.2.5.<.A <.<.0.y.6.0.B < # # ",
". > Z A :.0.a.8.0.8.q.3.o.Z B <.6.t.r.0.0.8.-.A -.6.A m S -.r.r.9.2.o.o.A 0.t.2.S :.2.<.-.o.o.o.;.o.6.p.9.9.2.Z -.6.<   ",
"X $ a l B S 3.0.9.8.t.A k j a m A <.2.9.8.8.A m C B m b A ;.<.3.t.-.p m B ;.2.o.m Z B B B Z B l b B o.3.6.t.<.m B Z > . ",
"# # < p b N S 5.9.9.p.M $ , w k m A <.e.9.e.B k l b m b A -.A ;.p.o.$ a m Z -.Z k b l b l m l , p l Z S 6.t.-.k b m % . ",
"# # w j b Z o.5.q.2.<.b , w w w p m Z <.-.<.k w 3 > 3 j b B o.o.3.B , w w m B l w w j , > > > = , w l B o.2.B w , > # # ",
"# $ w k M ..o.0.t.5.-.b 9 w w 0 w l B o.o.-.j w , . , w l B o.-.:.M , w w b B l 9 w w = # # * * % w l m ..<.B 8 =   # # ",
"# # > 3 w m A <.6.-.A j > , , 9 w b B -.A Z w , > # > 1 p l Z Z A b 9 3 , w j w , , , > $ $ # * > , w v m Z l , = # # # ",
"# # . # . w m ..-.Z B 3 + # = w a b Z <.Z m > # # = # # , w b p < w w > + # # # # o # # $ $ % # # # , w , , - # # # # # ",
"# # # # # w j m A l < > $ = = > < a b ..k < > $ % = > > > , w < < 3 > > > $ $ , p p p p p $ $ = = $ > > j l k j > . # # ",
"# # # # # , w l B 3   $ > = = * > 3 a B < . = > > > > > # # , , w , # = > $ $ , m M m B m $ # = = $ # # k B m Z ,   # # ",
"# # # # = > > > , > % $ > $ * * = > > < > $ > > > > > > w j < 3 > > > = = , , , w l m m l k w $ > # , 3 l m b m k k > @ ",
"# # # # > # # # # $ > > > $ = $ $ = # # = > $ - > > > ; 3 k < < > > > > > > < w , k m b b Z l $ > $ , w l m b m M Z > . ",
"$ # o # % = $ # # $ = $ # 3 w # $ > > > , 3 > $ > > > > , , > , , > > > > > < w , k b Z ..O.Z # > w w < k b M ....O., . ",
"# # # # % > > , 1 , , > $ < 3 , > > > > > , > > > > 8 J T J 7 6 7 y K U L 6 1 < w l m B n k j # , w w w b m Z o.Z Z > . ",
"# # $ % $ , w m B M B w # # > B b # > > > > > > ; > K c.`.Q.L. .Z.Y.b.XXQ.| f , k M A k 2 > $ = $ # j Z o.:.O.3.p . # # ",
"# # $ = * , w j k l M p w > # w w , , > ; > > > ; ; K OX{.&X,XeXqX;X'.[.>X,X,.; < p j , > > = = = # 3 j l n n m w $ # # ",
"# # > $ # , a 8 > w m b l 1 = o > > ; , 1 , ; 1 , > K b.(.;XyXpXaX<X/./.wXiXh.= $ , > % > $ # # # # + o # $ # # $ , # # ",
"# # # # $ > > p k b Z Z 3 > > > > 5 ; 8 ! g 1 t ! 0 G b.(.;XyXpXaX<X/./.wXuXf.8 Q Q > ; > w p p j w w j , = > > $ # # # ",
"# # @ # > $ # l V Z o.o.j , > > 0 q > 0 ] J.I _ ( 1 Y ).{.*X-X6X4X:X].].1X=XF e [ M.g 1 > l m k l m B B , # $ > # . # # ",
"# # # # # # = > = j 1.k , % > > t ) t u x.+X}.U.( q G n.+Xx.v : 3 E OXoXE w : y Y. X[ q , k p < p l b m l l w $ $ # # # ",
"# # # # # # $ # O w 6.j . % > > g C.J.z._.$X#X|.P.~ J J U u # X # e T U & # - ` T.$XQ.J > 3 < > p l m b m Z w # # @ # # ",
"# $ $ # # # > $ # 3 V w $ $ > > 0 ^ I.}.}.}.oXOX|.I.~ 0 1 1 0 0 0 0 0 1 1 0 ( U.|.$X!.K > ; > < k l b m b m k w > # # # ",
"# # # # . # $ # # # . $ > = > , > q ` H.F.I.oX`.OX.XK.( ^ ^ ( ( ( ~ ^ ^ ^ _ K.|.OX$X!.K > ; , l b b m b m b m Z w $ # # ",
"# # # # # < j p p p j , $ > > > , t ( C.H.W.oX@X#X+X|.E.R.R.^.R.R.R.E.R.~.E.|.`.#X%XoXH > > 3 a k m b b m l m M w $ # # ",
"# # # # $ p Z m m m Z w # > > > q ( V.D.U.oX`.oXXXOXoXT.|.|.}.}.oX}.b.|.|.T.oXOX_.oXc.G , < w , p m l b b l l m 3 $ # # ",
"# # . $ 3 k m b m b m l 3 > > > 1 L ' } I z.XXz.E m.x.P x.b.I W _.W I b.x.P x.b.I L J 9 > , w k m ..Z A Z Z A o.s $ # # ",
"# # o > w k m b b m b m 3 > > > ; , Q ! 0 G W y 8 R &.+.&.%.#.#.J.@.@.J.$.B $.J.+.z , > > 3 j m Z o.o...o.o...o.w $ # # ",
"# # w w w w 9 l m l b l k , > > > > 1 1 > , e , $ 8 a.7Xs.+.3Xj...j.4X+.q.5X7.+.4Xk.2 # > k B O.o.......o.<.m $ # @ # # ",
"@ $ w w w w w b M m m m B , $ % , 3 > ; > ; ; ; * ; <.l.D =.tX8Xz 0.g.z k.uXh.z h.d.3 * > a b V Z ......Z Z j # # # # # ",
"# # p w , j m Z X...o.o.1., $ w w , < , > > > > > > 2 3 # S 0X4Xi ; 4 > g.rXp.> , < , > $ $ # O s 1.O.:., $ # @ # # # # ",
"@ # , w a b B A ......M n , # , < w k j , > > > , > # # # p 4.o., # @ ; N 5.x # # # > 3 w w 3 # 3 m b b , $ $ # # # # # ",
"# # + w A Z o.....o.7.w   # = # > b B Z w > > > > > > , > > > ; > > > > > $ > > > % # l C Z l $ $ $ # $ # # $ $ +   # # ",
"# # # > , M o...X.M w w , > = # , Z ..A , > > > > > > > > > # > > , > > ; * * > , < p b m m l a 3 $ = $ w j p p w w # # ",
"# # o #   n :.o.:.l   , j , > # 1 <.o.o., > > > > > > > > > > > > > > > > > > > > 3 Z b b m m Z j $ $ $ l Z B B m B > . ",
"# # o # $ > 3 3 w , $ > > > > > > w w , > > > > > > , > > ; > > > > , > > , > ; > , w l m m m m w # , w w w k m B X.> . ",
"# # # # > $ # $ $ $ # $ $ = > > > # $ > > > > > > > > > # # > > > > > > > > # # > , > p m l k p < # < j 9 > w l A 7.> . ",
"# # # # # = > $ = > w w w < > > > , > > > > > , > # # , x N 3 # # > > # # , x x 3 # # w b l w > > > , , w j l Z b b $ . ",
"# # # # . = > $   3 Z m B m j > > , > > > ; > > > > # 3 l.5XC # * > > > # i =X5XC # * < 3 3 , 4 > a , o l Z A 7.s . # # ",
"# # # # # $ $ w w k m b b k w , > > , > ; > > # j t.D z 9XtX=.z y.F h 0.D z 9XtX=.c t.D > # , = > , > * , w w k , # # # ",
"# # # # > $ $ l Z m b b l w , > > > > > , > > # Z 8Xl.M 2X8X..0.8X6.A 5Xj.M 2X8XD w.9Xy.> # $ > = $ $ $ $ $ # $ # @ # # ",
"# # # # $ , w w w k m b l 3 > > > ; > 0 Q q > 6 #.u.i.%.@.>.$.*.q.*.&.s.i.%.@.,./ @.9.F > > > # 3 l k k k l w $ # @ # # ",
"# # # $ $ , p w , p m b l p < > , 8 > w [ [ J ` [ L R m.R H v.z.G z.v.H R m.R L [ ` 6 > = > % # w Z m M m B j $ $ # # # ",
"# # # > w w w w 0 j B m m l j < r ^ q e z.|.Y.T.T.x.c.`.c.v.).b.v.T.|.v.n.).c.v.T.I.^ 0 > = > 3 j M m m m b b M >   # # ",
"# # > , w w w w 3 p l b m b l < Q V.( K J.E.E.|.+X#X@XOX+X#XOXOX+XOXOX+XOXOX+X#X@X.XK.t > # > w j l l l l m m B w # # # ",
"@ # w w w w w w w 9 , a b b k , r ) Z. .Z.Z.B.T.OX@XOXOX`.oXOXOX`.OX).OXOXOXOXOX`.#XT.J = $ > w w < w 3 l m b l b m > . ",
"# # w w w w w w w w w b B B m 3 , r ) C.S.N.Q.oXOXOX@XoXQ.U.|.@X`.OXoXoXOX`.OXOXOX$XXXU > > > , < w w w b m m B B Z > . ",
". $ w w w w w w , p m Z o.A b < > 0 ^ V.C.B.W.}.T.T.}.W.N.A.U.T.T.oXOX`.oXT.T.}.OX[.XXK ; ; > # > w w < k l B o.o.o.> . ",
"# # > , w w w k k b Z A ..l < , q ~  .Z.C.M.N.D.N.N.D.D.Z.V.A.N.B.T.@X`.W.D.Z.I.}.$X!.K > ; > > > w a k B Z A ....o.> . ",
"o # # > w w w l m B o...l < ; ; t A.F.Z.Z.V.V.} V.C.S.S.D.A.S.V.A.U.E.R.B.V.} Z.I. XU.L > > > > > w l m ..o.......o.> . ",
"# # # > w w w l l B o..., , > > r ' A.C.Z.Z.V.M.V.} { { { ' ' { { | ] Z.Z.V.V.C.A.D.' r > > > > > # l o...........o.> . ",
"# # # > j w 8 k l M o.A > 3 m > > r _ A.A.Z.C.D. .Q f f r r r f r f Q ' S.C.Z.A.C.( r , $ = % > = . b 7...A ....o.1., . ",
"# # o # < w a m B Z ....j j k > = > r ) V.D.D.} ! w 3 3 > ; , > > > 0 ! | Z.A.S.) t w < # $ # = % # s b Z ....o.M v = . ",
"# # X # + j Z ..o...A o.o., . > > > > r ) G.V.! , Z A .., # < w , w p w ! Z.G.) f p o.w # o # > > > $ + Z 1.O.1.j . # # ",
"# # # # # , 3 Z o...o.b w % # # # # # 8 _ C.! > > j w j $ # > , k b M < t Z.| t j j 3 > # # # # # # $ % w j s k , # # # ",
"# # # # # # + C :.o.1.w   # # # # # # 0 ~ ^ , # # # # # # # # , B Z Z < g ( t < X.3   X # $ # # # o # > $ # $ $ # # $ # ",
"# # # # # # # % > > , # # # # # # # > , q 0 ; # # # # # # # # # % > > > 0 q 1 ; , # # # # # # # # # # # # # # # # # # # ",
"# # # # # # # . . .   @ # # # # # # > > > > > $ # # # # # # # # @ X + # > > > # X # # # # # # # # # # # # # # # # # # # "
};
