/* XPM */
static char *xpm_[] = {
/* columns rows colors chars-per-pixel */
"60 60 219 2 ",
"   c #040405",
".  c #0A0505",
"X  c #060807",
"o  c #0A0907",
"O  c #060608",
"+  c #0A070A",
"@  c #070909",
"#  c #0C0B0C",
"$  c #120D0D",
"%  c #0D110F",
"&  c #13110F",
"*  c #0E0E11",
"=  c #120F10",
"-  c #180F11",
";  c #0E1212",
":  c #0C1B1E",
">  c #141313",
",  c #1A1515",
"<  c #161816",
"1  c #1B1916",
"2  c #1B1519",
"3  c #1D1A19",
"4  c #13191A",
"5  c #290D16",
"6  c #320E1A",
"7  c #221415",
"8  c #2B1615",
"9  c #221916",
"0  c #22141A",
"q  c #2B141C",
"w  c #231C1B",
"e  c #2A1816",
"r  c #331A15",
"t  c #33151D",
"y  c #3A141E",
"u  c #3C1A19",
"i  c #381917",
"p  c #1A201E",
"a  c #25211E",
"s  c #28211E",
"d  c #251E20",
"f  c #281F20",
"g  c #3D1422",
"h  c #361421",
"j  c #1E2122",
"k  c #1C2829",
"l  c #262221",
"z  c #2B2523",
"x  c #2E2926",
"c  c #2E2B29",
"v  c #28292A",
"b  c #302A27",
"n  c #312729",
"m  c #332D2A",
"M  c #392E2D",
"N  c #302625",
"B  c #2D312D",
"V  c #36312D",
"C  c #39312E",
"Z  c #363432",
"A  c #3C3432",
"S  c #3E3935",
"D  c #3C3B38",
"F  c #2F3334",
"G  c #441A1A",
"H  c #481B15",
"J  c #531E1A",
"K  c #591C1A",
"L  c #701B18",
"P  c #482017",
"I  c #5C2219",
"U  c #622219",
"Y  c #6B241A",
"T  c #782418",
"R  c #421522",
"E  c #4A1524",
"W  c #4B1822",
"Q  c #49142A",
"!  c #541625",
"~  c #5B1629",
"^  c #551824",
"/  c #4E1D30",
"(  c #6A1325",
")  c #6B162D",
"_  c #651929",
"`  c #74172F",
"'  c #74192C",
"]  c #7A192A",
"[  c #751631",
"{  c #7C1631",
"}  c #761830",
"|  c #413635",
" . c #423936",
".. c #413738",
"X. c #443B39",
"o. c #4A3D3C",
"O. c #532C32",
"+. c #7A2C24",
"@. c #68352A",
"#. c #743428",
"$. c #673B34",
"%. c #713733",
"&. c #3E403F",
"*. c #45413D",
"=. c #44413D",
"-. c #49413F",
";. c #5B443E",
":. c #644339",
">. c #75443B",
",. c #473C41",
"<. c #3B4747",
"1. c #494540",
"2. c #4C4341",
"3. c #4E4A45",
"4. c #4D4A44",
"5. c #494B47",
"6. c #514544",
"7. c #524C46",
"8. c #534E4A",
"9. c #5C4F49",
"0. c #56534C",
"q. c #57544D",
"w. c #54514B",
"e. c #59544D",
"r. c #595651",
"t. c #5A5851",
"y. c #5D5A54",
"u. c #565550",
"i. c #4C534C",
"p. c #615E59",
"a. c #685C55",
"s. c #6F4D43",
"d. c #5E605B",
"f. c #6A625C",
"g. c #6A6761",
"h. c #696964",
"j. c #776D66",
"k. c #7E7872",
"l. c #62776E",
"z. c #8B261A",
"x. c #922318",
"c. c #AC2B1D",
"v. c #A7291B",
"b. c #B32D1D",
"n. c #BB2D1D",
"m. c #B8321D",
"M. c #8D1C2E",
"N. c #851A2B",
"B. c #931D2E",
"V. c #9A1D2E",
"C. c #841734",
"Z. c #8A1635",
"A. c #851933",
"S. c #8C1833",
"D. c #8D1639",
"F. c #921B32",
"G. c #971837",
"H. c #A81F2F",
"J. c #852323",
"K. c #962425",
"L. c #9D2425",
"P. c #8F3328",
"I. c #AB242A",
"U. c #A42724",
"Y. c #B42B24",
"T. c #BD2C24",
"R. c #B2252B",
"E. c #BA272C",
"W. c #AB3122",
"Q. c #B02929",
"!. c #CA291A",
"~. c #CF321F",
"^. c #C2311E",
"/. c #DB351F",
"(. c #D1341F",
"). c #DE2918",
"_. c #E5361D",
"`. c #EC301B",
"'. c #C32D24",
"]. c #CA2F24",
"[. c #C72B29",
"{. c #D82E26",
"}. c #CD3223",
"|. c #C33221",
" X c #D43421",
".X c #DB3423",
"XX c #E33623",
"oX c #E33822",
"OX c #ED3822",
"+X c #F13823",
"@X c #E02E20",
"#X c #DA4637",
"$X c #807C76",
"%X c #DD5844",
"&X c #D94B47",
"*X c #D46451",
"=X c #C8656F",
"-X c #EC675B",
";X c #69847B",
":X c #90897F",
">X c #F88772",
",X c #C7718A",
"<X c #8D8B82",
"1X c #9B9994",
"2X c #959289",
"3X c #A39F98",
"4X c #B09188",
"5X c #AEA79F",
"6X c #ADAAA3",
"7X c #B2A9A0",
"8X c #ADB0AB",
"9X c #C2BBB3",
"0X c #FCC9B8",
"qX c #DDD8CC",
"wX c #ECE5DA",
"eX c #FEE2CD",
"rX c #FFF2E4",
"tX c #FFFFFF",
"yX c #F4D8CC",
/* pixels */
"# # # # O O O             # # # # O O       O   # # # # # O O         O           # $ X O       O O O O O       # $ # # ",
"# # # # > > > 1 1 1 1 1 1 # # # # & > 1 1 1 1 1 & # # # & > > < 1 1 1 1 1 1 1 1 3 # # = > 1 1 1 , > > < 1 1 1 3 # # # # ",
"# #   > m A X.w.y.r.e.y.f.,     o z S p.r.r.y.g.Z       a C | 1.t.t.y.y.y.t.e.t.g.z   a A t.y.p.w. .X. .w.y.t.g.l   # # ",
"# # > a A X.4.w.q.0.e.7.8.a > 1 z S 1.e.0.q.7.8.S 1 3 , m A -.3.q.8.3.3.3.w.e.8.8.V 1 m A 3.3.7.1.S 1.1.w.u.8.w.C 1 # # ",
"O > A S -.w.p.0.w.0.e.4.X.A C 1.8.y.t.w.w.q.*.S *.8.S m S -.t.t.q.3.X.X.| 0.y.3.S -.3.1.*.X.X.X.=.X.8.p.q.q.3.A *.8.1   ",
"X & s x C D 4.w.q.0.y.S z l s m A 1.3.q.q.0.S m Z C m b S =.1.4.y.*.a m C =.3.X.m A C C C A C z b C X.4.8.y.1.m C A > O ",
"# # 1 a b V S 7.q.q.p.M $ 2 w z m S 1.r.q.r.C z x b m b S *.S =.p.X.$ s m A *.A z b x x x m z , a x A S 8.y.*.z b m & O ",
"# # w l b A X.7.e.3.1.b , w w w a m A 1.*.1.z w 3 > 3 l b C X.X.4.C , w w m C x w w l , > , > = , w x C X.3.C w , > # # ",
"# $ w z M | X.w.y.3.X.b 9 w w 0 w z C X.X.*.l 9 , O 2 w z m X.c 3 l , w w b V z w w w = # # # # & w z m | 1.C 7 =   # # ",
"# # > 3 w m S 1.8.*.S l > < 2 9 w x C *.S A w > > # > , w z c l d a 1 1 < w w 3 , 2 3 > = = # * > , w N m A z 2 = # # # ",
"# # O # O w m | *.A C 3 + # * w s b A 1.A m > @ = * > & , w 3 1 z z w > # # * > # # o # # $ = $ # # , w , , - # # # # # ",
"# # # # # w l m S x , > # * * > 2 s b S z 2 > $ = > > > > < 2 1 z 3 > > > > = < w l a a w & $ $ = $ > > l z z l > O # # ",
"# # # # # , w x C 3   $ $ $ $ # > 3 w M < O > , > > > > * * > > 3 > ; = > > $ 3 A M C C m & # = = $ # # z C m A ,   # # ",
"# # # # = > > > < > > = > & = > > > > > > > > > > > > ; 4 < < > & > ; ; > ; , w w z m b x x w = > # , 3 x m b m z z > # ",
"# # # # > $ # # # $ > > > $ > > > > > < > > > > > > 9 i G i 5 5 5 t u u i 5 0 3 , w z l z C b = > $ 2 w x m b m M A > O ",
"$ # X # & = $ # # $ = $ # 3 w # > > > > < > > > > > H v.^.U.] ) ' K.b.b.U.' t > > < 1 < w A A # , w w 1 z b M | | o., O ",
"# # # # & > > , , , 2 > * , 1 < > ; ; 2 h 7 > q q , J  X+X#X=X,X,X&X_._.%X=X,.2 5 q > ; > w l $ , 3 w w m m A X.A A > O ",
"# # $ & $ 2 w m C m m 1 $ & > > , < ; q ) ^ t ~ ^ 0 P n.).%X0XtXrX-X!.!.>XyXl.q ^ _ q > > > > * $ o s A X.-.o.6.a . # # ",
"# # $ = * 2 w l z z 3 < < > > > t R 2 e K.Y.K.B.~ 0 P n.).%XeXtXtX>X!.!.>XrX;Xe L R._ q < > = $ = # 1 l z n n m 0 $ # # ",
"# # > $ # 2 s 2 , w 1 1 1 > > > E { ^ I m.OX.XH.Q , H ~.+X#X4X8X7X*X@X).*X4X<.e z.{.I.W & # # # # # + O # $ # # $ , # # ",
"# # # # $ > > a z b M m M , # > R S.U.m.~._.{.H.! 2 H |.+XW.O.k c +./.XXP.b : e z.+X}.K > ; 1 w a w w l , $ > > $ # # # ",
"# # @ # > $ # x C C X.X.o.2 & > 2 W K.E.R.T.}.'.N.E G I Y H $   @ 8 Y Y r # * W U.OX XU > ; > 3 w m M C 2 $ $ , # O # # ",
"# # # # # $ = > = l 2.z , > > > > q _ F.V.R. X.X[.V.! 9 , 2 2 > , 2 7 0 , 7 E F.].OX XU > ; > < 1 m b m z c w $ $ # # # ",
"# # # # # # $ #   d 8.a . > ; > q ! [ F.R.[. X/.XX[.M.! g E ! ~ ! E E R Q ~ B.'..X+X.XU < 3 l a l b m b m C a # # @ # # ",
"# $ $ # # # > $ # 3 M w $ > > > t ) Z.M.K.m. XY.W.(.U.( N.V.( ] V.] ( B.N.( L.}.v.x.z.H , w z m m m b m b m z w > # # # ",
"# # # # O # $ # $ # . $ > > > > , t ) _ G T Y.I I c.z.u +.L.G K U._ G K.z.u T b.K e 7 , < , w m m b m b b b m A w $ # # ",
"# # # # # 1 l a a w z 2 $ > > > ; < y h > r K e , J >.f.>.#.9.:.#.s.a.#.@.0.@.#.a.5.: # > 2 w l z m b x m b m m w $ # # ",
"# # # # $ a A m M C A w # > > > > < < < > > > > # > f.5X8.X.7X:XM j.1XS e.9Xf.Z <X2Xl # < 1 9 2 a m x b b x b m 3 $ # # ",
"# # O $ 3 z m b b m b x l > > > > < > ; > ; ; > * ; Z q.l <.qX6Xv F 1.j h.wX$Xp =.8.3 > > 2 w z m | A S A A S X.w $ # # ",
"# # X > w z m b m b b m m > > > - # > > > > > > > > > # # Z 2Xk.3 # # # 8.3Xp.> # > > > * w a m C X.X...X.X.| X.w $ # # ",
"# # w w w w 9 z b x x x b , $ # , c 3 > & > > > > > > # * 3 B v < # # > l m l > # > $ = > x M o.X.| | | X.1.m $ # @ # # ",
"@ $ w w w w w b M m m m C , $ $ 2 N 3 < < > > > > > > > > ; # # > < > > % # * < w 1 $ = , z n M A | | | A A l + # # # # ",
"# # a w 2 l m A X.| ..X.2.1 # w w , , 1 z a > > > > > > > > # > > < > < > > > < # = , $ $ $ $ O d 6.X.-.2 $ # O # # # # ",
"@ # , w s b C S | | | M z , $ , 1 a l N M z > > > > > > > > > > > < > > < 3 1 > # > $ 1 w w 2 # 3 m n b , = $ # # # # # ",
"# # + w S A X.| S X.6.w   # = # , b C X.o.c < > $ $ > > > > > < > > < > # # $ > $ # o x A A x $ $ # $ $ # $ $ # +   # # ",
"# # # > , M X.| X.M w w 2 > $ # 1 A | X.b 3 > $ , a 1 < > < > > > > > > = $ $ > , w a x m m x s 3 $ > $ w a a a w w # # ",
"# # X #   n -.X.-.z   , a , = # 1 o.X.1.w # > $ w m w < > > > > > > > > > $ $ < w x A b b b m A a $ $ $ x A C m m C > O ",
"# # X # $ , 3 3 w , $ > , - = > > 3 3 w > > > , 3 , > > > > > > > > > > > > = > 3 w w b m b m m w + , w w w l b C  .> O ",
"# # # # > $ # $ $ $ # $ $ $ > > - # $ $ $ = > , < > < > > > > > > > > > > > > > , 2 , z m b z z 1 O , z 9 , w x S 6.> O ",
"# # # # # = > $ $ , w w 3 < < $ $ , > > > & > > < > > > # # > < > > > > < > # # > , w m C M w > > > < , w l n A b b $ O ",
"# # # # O = > $ . 1 A C c 1 > & # f < > > > > > > > > > ; # > > > > > > < > # = > > 3 M ..M 1 > > z > O x A S 7.f . # # ",
"# # # # # $ $ w a l m b x a 1 > < , > > > > > > > # # < A X.j # # # ; # # < A =.l # # 3 x < < > > , > * 3 w d z , # # # ",
"# # # # > $ $ x A M x b b x l < < > > > > > > > > < # j <X6XS # > < > < # 1 $X7X=.* > 1 < > > > > $ $ $ $ $ # $ # # # # ",
"# # # # $ , 9 w w z m m x z 3 < > > > > > > > # c h.&.v 6XqX<.c h.D j d.5.k 1XwXi.v g.3.> # > # 3 z z z z b w $ # # # # ",
"# # # $ $ 2 a 9 2 s m b z 3 > > > > > , 2 > * # ,.3Xj.M k.1X .9.3Xe.| 2X$XC j.1XX.2.3Xh.> # > # w A m m m C l $ $ # # # ",
"# # # > w w 9 w 3 l m m x 2 > > > ; ; 0 E t > t O.6.:.+.O.o.#.%.7.%.#.;.$.+.@.../ O.2.B > $ > 3 l m m m b m c M >   # # ",
"# # > 2 w w w w 0 s b x x w 1 < 0 7 > q J.+.J ] ] H T T.Y J c.z.H z.c.J U T.T H ] ] 6 = > = , w l x x x x b m C w # # # ",
"@ # w w w w w w w w , l b z a < R ~ q i L.].Y.T.T.v.n.~.n.b.}.^.c.'.~.c.b. Xn.c.T.R.( 6 > $ > w w 3 w w z m b x b m > O ",
"# # w w w w w w w w s x C M x 1 ! Z._ ^ K.E.E.]./.oX.X X.XXX X X.X X X.X.X X.XoX.X.XR.^ < % > , 3 w w 9 b m m C C C > O ",
"O $ w w w w w w 2 a b A X.| m 1 t ) A.A.A.S.V.T. X X X}.}.}. X X X(.(. X X X X X XXX}.I < % > # > w w 1 z x M X.| X.> O ",
"# # > , w w w z z m A | | z 3 < , t ) D.C.B.Y.}. X X/.}.I.I.'. X(.(. X}. X X X X XXX XU > ; > > > w s z C A S | | X.> O ",
"X # # > w w w x m A X.A x 1 > > , q _ C.Z.L.T.'.T.T.T.Y.B.M.I.T.T.].(. X}.T.Y.T.}.oX}.U > > > > > w z m | X...| | X.> O ",
"# # # > w w w x b M | z 1 > ; > t ) A.A.A.S.F.F.F.F.B.F.A.A.S.M.F.Y. X XT.V.S.V.T.XX}.I > > & = > # x X.| | | ..| X.> O ",
"# # # > l w 7 z x M | b l z 3 < E G.G.A.A.A.C.{ C.D.D.D.D.Z.Z.Z.Z.H.E.R.V.C.{ A.L.[.R.K > > = & = O b 6.X.S | | X.2.< O ",
"# # X # 2 w s m C A X.| S b a > y } F.Z.A.A.C.Z.A.} [ [ } } ` ` } } { A.Z.C.A.A.S.G.} g = * # $ = # w b A | | X.M N = O ",
"# # X # + l A | X.| S X.4., . & , y [ F.S.A.Z.F.` R q t t t t t t q g ` D.Z.A.Z.D.) h 2 $ # # - = > $ . A 2.o.6.l . # # ",
"# # # # # < 3 A X.| X.b w & # # # > g ` S.G.S.} E 2 > < > > > < < < w W } S.G.S.` R < > # # # # # # $ & w l f z , # # # ",
"# # # # # # + Z -.X.2.w   # # # # # > y ` G.{ R , # # $ # # # > x m C w R { G.` y , O # # # # # # . # > $ # $ $ # # $ # ",
"# # # # # # # & > > > # # # # # # # % 2 R ! R , # # # # # # # # > > > > 0 R ~ R , # # # # # # # # # # # # # # # # # # # ",
"# # # # # # # O O O   @ # # # # # # % > > , > $ # # # # # # # # O O X # > > , = # # # # # # # # # # # # # # # # # # # # "
};
