/* XPM */
static char *xpm_[] = {
/* columns rows colors chars-per-pixel */
"60 60 222 2 ",
"   c #040405",
".  c #0B0506",
"X  c #0A0907",
"o  c #060509",
"O  c #0A0709",
"+  c #070908",
"@  c #0C0B0C",
"#  c #070907",
"$  c #120D0D",
"%  c #0E100E",
"&  c #12110F",
"*  c #0E0E11",
"=  c #120E11",
"-  c #1A0E13",
";  c #0D1212",
":  c #021010",
">  c #141313",
",  c #1B1515",
"<  c #1B1916",
"1  c #161518",
"2  c #1B1519",
"3  c #1D1A1A",
"4  c #151918",
"5  c #390B19",
"6  c #211516",
"7  c #221917",
"8  c #221419",
"9  c #2B141B",
"0  c #231C1B",
"q  c #2A1818",
"w  c #3D1C16",
"e  c #33141D",
"r  c #3A141F",
"t  c #371A17",
"y  c #2E1414",
"u  c #1C201E",
"i  c #25211E",
"p  c #28201E",
"a  c #3E2016",
"s  c #2E1420",
"d  c #221D20",
"f  c #281F20",
"g  c #331320",
"h  c #3B1421",
"j  c #371A23",
"k  c #1B282A",
"l  c #262221",
"z  c #2B2523",
"x  c #2E2926",
"c  c #2D2628",
"v  c #2C2C29",
"b  c #232728",
"n  c #312725",
"m  c #302A27",
"M  c #302728",
"N  c #332D2A",
"B  c #392F2E",
"V  c #36312D",
"C  c #39312E",
"Z  c #363332",
"A  c #3C3432",
"S  c #363834",
"D  c #3E3935",
"F  c #3F3C3A",
"G  c #2F342E",
"H  c #421E16",
"J  c #42111D",
"K  c #4E1B1A",
"L  c #461D19",
"P  c #551C1B",
"I  c #450F1C",
"U  c #7B1C1A",
"Y  c #4B2018",
"T  c #5C2219",
"R  c #63231B",
"E  c #69241D",
"W  c #78251C",
"Q  c #4D1623",
"!  c #401820",
"~  c #451624",
"^  c #531525",
"/  c #5E1829",
"(  c #5C1727",
")  c #4A0F21",
"_  c #6A172B",
"`  c #6A1A29",
"'  c #65172A",
"]  c #74192C",
"[  c #7B182E",
"{  c #741629",
"}  c #7D1632",
"|  c #7D1831",
" . c #671430",
".. c #552933",
"X. c #413636",
"o. c #423937",
"O. c #443B39",
"+. c #483D3D",
"@. c #4F3538",
"#. c #4C2836",
"$. c #7D2221",
"%. c #65322A",
"&. c #662D24",
"*. c #3E413E",
"=. c #45413D",
"-. c #45413C",
";. c #49413E",
":. c #6A433B",
">. c #5C3D43",
",. c #693F49",
"<. c #494540",
"1. c #4C4441",
"2. c #4E4A45",
"3. c #4C4A44",
"4. c #434243",
"5. c #504D46",
"6. c #534E4A",
"7. c #574446",
"8. c #54514A",
"9. c #56534C",
"0. c #57544D",
"q. c #53514B",
"w. c #58554E",
"e. c #595751",
"r. c #5A5851",
"t. c #5D5A55",
"y. c #5D5A54",
"u. c #575450",
"i. c #475651",
"p. c #634B4A",
"a. c #66514C",
"s. c #605D56",
"d. c #615E59",
"f. c #725C5D",
"g. c #70584E",
"h. c #50635D",
"j. c #65625B",
"k. c #74675F",
"l. c #6D5E61",
"z. c #5C6C6C",
"x. c #6B6761",
"c. c #6A6965",
"v. c #736F6C",
"b. c #776665",
"n. c #77736C",
"m. c #7E7B76",
"M. c #952419",
"N. c #80261E",
"B. c #A42B1B",
"V. c #A82C1E",
"C. c #B62C1E",
"Z. c #8A1C2D",
"A. c #951D2D",
"S. c #9C1D2E",
"D. c #831633",
"F. c #8B1735",
"G. c #851833",
"H. c #8C1933",
"J. c #8B1638",
"K. c #8B1639",
"L. c #931B33",
"P. c #961937",
"I. c #872620",
"U. c #992426",
"Y. c #8E2B3B",
"T. c #A62229",
"R. c #AD2629",
"E. c #A72924",
"W. c #B12E22",
"Q. c #BC2C24",
"!. c #BB2A29",
"~. c #B62728",
"^. c #B43120",
"/. c #BA3025",
"(. c #B92332",
"). c #AB2131",
"_. c #C9291B",
"`. c #D92918",
"'. c #CB321E",
"]. c #D4321F",
"[. c #D8371E",
"{. c #E7331D",
"}. c #FA331D",
"|. c #E22B19",
" X c #C32D24",
".X c #CA2F24",
"XX c #CA2B2A",
"oX c #CC3222",
"OX c #C43124",
"+X c #D33422",
"@X c #DB3522",
"#X c #C63932",
"$X c #E13524",
"%X c #E93822",
"&X c #F33920",
"*X c #B2483A",
"=X c #E1473B",
"-X c #902846",
";X c #835E55",
":X c #B75343",
">X c #877B78",
",X c #DD5843",
"<X c #E05B4C",
"1X c #E2745D",
"2X c #F17666",
"3X c #88857E",
"4X c #99958D",
"5X c #9D9C95",
"6X c #8E8B84",
"7X c #A4A39A",
"8X c #B6B3AB",
"9X c #EF9287",
"0X c #FFA289",
"qX c #E29FA6",
"wX c #E1AABF",
"eX c #C48D90",
"rX c #CAC5B8",
"tX c #F2CCB9",
"yX c #D7D3C6",
"uX c #E9E7D9",
"iX c #FCE8D6",
"pX c #FFFEFD",
/* pixels */
"@ @ @ @ # # #             @ @ $ @ # #       #   @ @ @ @ @ # #         #           @ $ # #       # # # # #       @ $ @ @ ",
"@ @ @ @ > > > < < < < < < @ @ @ @ & > < < < < < & @ @ @ & > > > < < < < < < < < 3 @ @ = > < < < , > > > < < < 3 @ @ @ @ ",
"@ @   > N A O.q.y.e.w.y.j.,     X z D d.e.e.t.x.S       i V X.<.r.r.y.t.y.r.w.r.x.z   i Z r.y.d.8.o.O.o.8.y.r.x.l   @ @ ",
"@ @ > i A O.3.8.0.9.w.5.6.i > 3 z D <.w.9.0.5.6.D < 3 , N A ;.2.0.6.2.2.2.8.w.6.6.V < N A 2.2.5.<.D <.<.q.u.6.8.V < @ @ ",
"# > A D ;.8.s.9.8.9.w.3.O.A V <.6.y.r.8.8.9.-.D -.6.D N F =.r.r.0.2.O.O.X.9.t.2.D ;.2.<.-.O.O.O.-.O.6.s.9.0.2.A -.6.<   ",
"# $ p x C F 3.8.0.9.t.D z l p N A <.2.0.9.9.D N Z C N n D -.<.3.y.-.i N V -.2.O.B Z C V V A V x m C O.3.6.t.<.N C A > # ",
"@ @ < i n C F 5.0.0.d.B $ 2 0 z N D <.e.0.e.V z x m N m D -.D -.d.O.$ p N A -.A z n x x x N x , i x A F 6.t.-.z m N & # ",
"@ @ 0 l m A O.5.w.2.<.n , 0 0 0 i N A <.-.<.z 0 3 > 3 l n C O.O.3.V , 0 0 N C x 0 0 l , > > > = , 0 x V O.2.C 0 , > @ @ ",
"@ $ 0 z B X.O.q.t.2.-.n 6 0 0 8 0 z V O.O.-.l 0 , + , 0 x N O.-.;.B 2 0 0 x C z 6 0 0 $ @ @ @ @ & 0 x N X.<.V 6 =   @ @ ",
"@ @ > 3 0 N D <.6.=.D l > , , 7 0 n V -.D D 0 , , @ > , l n Z l 3 i 7 2 , 0 l 0 , , < > = = > @ > , 0 n N A x 2 = # @ @ ",
"@ @ # @ # 0 N X.-.A V 3 + @ @ 0 l m A <.A m > O @ = > * , 0 i 0 l z 0 > @ @ * @ @ @ @ @ $ = = $ @ @ , 0 , , - @ @ @ @ @ ",
"@ @ @ @ @ 0 l N D x < > @ * = > 2 0 l N 3 , > $ = > > ; ; > > > 0 3 > > > & = > i l i i 0 > $ $ = $ > > l x z l > # @ @ ",
"@ @ @ @ @ , 0 x V 0   @ & $ @ @ > > > , > = > > > & > > > > > > > > ; > > > $ 3 C N N V N $ @ = = $ @ @ z C N A ,   @ @ ",
"@ @ @ @ = > > > > > = > > $ $ > > > > , e g > ; ; ; q P E P J 5 5 K T T K 5 6 < < 3 i 0 l z i $ > @ , 3 x N n N z z > @ ",
"@ @ @ @ > $ @ @ @ $ , > > & & > > > ; 8 ' / 2 > 1 ; L /.$XOXY.-X-X!.oX].#XY.j > > , > > < v x $ > $ 2 0 x N m N B Z > # ",
"$ @ # @ & = $ @ @ $ $ = @ < > > > > ; q U.$.6 s ! 2 L '.}.=X9XwXqX<X`.|.2XeX4.8 J e > ; > 0 M @ > 0 0 < z n B X.X.+., # ",
"@ @ @ @ & > > , , , 2 > $ > > > > > 2 K W.B.P '  .9 a C.`.,XiXpXpX2X_._.0XuXh.y { ( > 3 3 > 0 @ > 0 0 i m B A O.A Z > # ",
"@ @ $ & $ 2 0 N Z N V 3 > > > N i > h [ Q.'.Q.T.' 8 w C.|.,XtXpXiX1X_._.0XyXi.t M.W 0 N m > = * $ @ l Z O.;.+.3.i . @ @ ",
"@ @ $ = * 2 0 l z x N i > > = 0 < > 8 Q Z. X@X(.( 1 H '.}.#X;Xz.k.*X{.{.:Xy.k t B.W < 3 0 > $ $ = @ 3 l x M n m 8 $ @ @ ",
"@ @ > $ @ 2 p 6 > 0 n N V 2 & $ > > 1 9 ] (.+X!._ s L M.OXN.q : > R /.^.T > = P Q.W > ; & @ $ $ @ @ O # @ $ $ $ $ , @ @ ",
"@ @ @ @ $ > > i z x D A A , > > > > g ` T..X+XoXR.{ Q t t q $ + @ 6 w t > = e U.oXW > ; > > 3 0 f 0 0 l > $ > > $ @ @ @ ",
"@ @ + @ > $ @ x V A O.O.V > > > > > e / $.V.@X&X$X(.) @ - 8 $ - e - @ 8 - = ^ S.U t > ; > > 0 N N B B C 2 X $ , @ # @ @ ",
"@ @ @ @ @ @ = > & p 1.x > > > > > > , 2 , Y W.@X XS.~ d h ^ q h / g q ^ h 0 ( ] j < > , < , 0 x n N n N z x 0 $ $ @ @ @ ",
"@ @ @ @ @ @ $ @ o l 6.i > > > > 2 > > ; ; 2 K T K J 7.>X,...f.p...f.b...>.b.@.@.v.i.> , 0 l c m N m N m N C i @ @ + @ @ ",
"@ $ $ @ @ @ > $ @ 3 B 0 > > > 0 l , > > > > ; > @ * u.7X3.O.rX4Xv v.3Xv v.yXr.S 4Xc.> , 0 l x n N N n N n N z 0 > @ @ @ ",
"@ @ @ @ # @ $ @ $ @ . $ > > > N m , > > > > ; ; @ ; b S 4 *.yX7Xl b v 4 m.uXj.4 V z = < 0 2 0 V N m N n n m N A 0 $ @ @ ",
"@ @ @ @ @ < l i 0 i z 2 > $ = , 3 z < > > > > > > > = @ @ v n.s.< O O > 3.m.F @ @ > @ 3 0 0 0 p z N m x N m N V 0 $ @ @ ",
"@ @ @ @ $ i A N V V A 0 $ > $ + > O.z > > > > > > > > $ > 1 3 3 > > > > < 3 < > = * * 3 0 0 0 , i N x m N x n N 3 $ @ @ ",
"@ @ # $ 3 z N n n m N x z , $ $ > 2 , > > > > > > > > > > % @ @ > > > > @ @ * > 0 , $ = > 0 0 x N X.A D A A D O.f $ @ @ ",
"@ @ # > 0 z N n n N x N C 2 $ > > $ & & > > > > > > > > > > > > > > > > > > > 3 B 0 $ * $ 3 p N A O.O.X.O.O.X.O.0 $ @ @ ",
"@ @ 0 0 0 0 7 x N x n x N 2 $ @ > N 3 < , @ > > > > > > > > > > > > > > > > > < +.l @ = > m V O.O.X.X.X.O.<.N $ @ + @ @ ",
"+ $ 0 0 0 0 0 m B N N N V 2 $ $ 2 N l l 0 > > > > > > > > > > > > & & > > 3 > < B 0 $ = > l n B A X.X.X.Z A l O $ @ @ @ ",
"@ @ i 0 2 l N A O.X.X.O.1.2 $ 0 0 , 0 v v i > > > > > > > > > > > > @ , l Z x 3 @ > > $ $ $ $ # 0 3.+.;.6 $ @ # @ @ @ @ ",
"+ @ , 0 p m C D X.X.O.B x , $ , < i x C B z > = > > > > > > > > > > > < d c x 0 $ > $ 3 0 0 < @ 3 N n n , = $ @ @ @ @ @ ",
"@ @ O 0 D A O.X.X.O.2.0   @ = @ , m C O.+.D 2 $ = $ & $ 0 > > 3 . > x > # $ $ $ $ @ @ x Z Z x $ $ $ $ @ @ @ @ $ O   @ @ ",
"@ @ @ > , B O.X.o.B 0 0 2 > = @ , A X.O.m 0 , $ , i 0 0 0 > > 3 i 0 > > = = > > 2 0 i x N N n l 3 = > $ 0 l 0 0 0 0 @ @ ",
"@ @ # @   c ;.O.;.x   , l > > @ < +.O.<.0 . = @ 0 D N l < > > < z i @ > > & & > 0 x A N n n N A i = $ $ n A V V N C > # ",
"@ @ # @ $ > 3 3 8 , $ = > > > $ > 0 3 3 > > > , 0 0 0 > > > > > , 3 $ > > $ $ , 0 0 0 x N n n N i O , 0 0 0 l n C o.> # ",
"@ @ @ @ > $ @ $ $ $ @ $ $ $ = > $ $ $ = = = > > , > 2 > > > > > > 2 > > > $ $ > 0 7 2 z N x n Z 0 o 2 l 3 , 0 x D 2.> # ",
"@ @ @ @ @ = > $ $ , 0 0 0 0 3 > $ 2 > > > & > > > > > > > > > > > > > > > > > > 0 i p N N m x p 0 > , , i l x C m m $ # ",
"@ @ @ @ # = > $   < A B N l < @ @ l , > > > > > > > > > > > > > > > > > > > > > , z N D B i z . > x > # x Z D 7.f . @ @ ",
"@ @ @ @ @ $ $ 0 i z N N x 0 > < 3 2 > > > > > > > > > > @ @ ; > > > > > > > @ @ 3 i z D N 1 2 = > , > * 3 0 0 z , @ @ @ ",
"@ @ @ @ > $ $ x A B x n x l > > < $ > > > > > > > @ @ > 3 l 1 > @ > > > $ > l i > = , V n > $ > & $ $ $ $ $ $ $ @ @ @ @ ",
"@ @ @ @ $ , 7 0 0 z N N n x l < > 2 > > > > > 1 > @ @ < c.>XN @ @ = > @ @ d v.m.b @ @ > > > > @ < x z z z x 0 $ @ @ @ @ ",
"@ @ @ $ $ 2 i 0 2 p B n n x l < > > > > ; > > % u 4.v k 7XyX*.u -.b 3 *.b b 8XrXS i <.v > > > @ 0 Z N B N C l - $ @ @ @ ",
"@ @ @ > 0 0 0 0 7 l V N x l , > > > > > > > > @ Z 5Xn.v 6X8XF 6.7X3.A 4Xx.N 5X8XS r.7X3.% @ > 8 l B N N n N x B >   @ @ ",
"@ @ > 2 0 0 0 0 < p x m x 3 > > > ; ; 2 r 9 ; - #.l.g.%.7.a.%.:.x.:.%.k.a.&.p.6.#.7.c.G % > > 0 l x x x m n N V 0 @ @ @ ",
"+ @ 0 0 0 0 0 0 0 0 , p x i > > > , > 6 ` ` t ( ` ! R V.R Y U.W L I.U.L E V.T ! { / 2 > > @ > 0 0 < 0 0 x N n x n N > # ",
"@ @ 0 0 0 0 0 0 0 0 p m V N z < 9 Q 9 6 I. XE.R.R.M.B.oXB.M.OXC.M.C.'.M.B.oXB.M.~.A.I 2 > > - , 3 0 0 7 n m N C V Z > # ",
"# $ 0 0 0 0 0 0 , i N A O.O.O.i e | / ~ I. X X.X+X@X+X+X@X$X].+X@X+X+X@X@X+X+X@X+XXXA.e 4 > > * > 0 7 < z x V O.O.O.> # ",
"@ @ > , 0 0 0 z z x A A X.X.Z 3 s ] G.[ G.L.A.!.+X@X+X+X+X+X+X+X+X+X+X+X+XoX+X@X].$XW.w ; > > > > 0 p z V A A X.X.O.> # ",
"# @ @ > 0 0 0 x N C O.O.l l l < > e ' F.J.H.T..X+X@X[.+X~.R..X+X+X+X+XoX+X+X+X+X+X{.^.w ; ; > = > 0 x B X.O.X.X.X.O.> # ",
"@ @ @ > 0 0 0 x m C O.X.< > > > > 2 ^ D.K.S.Q..X X X.XQ.A.L.R. X XoX+X+XoX X!. X+X%X^.H ; ; > $ & @ x X.X.X.X.X.X.O.> # ",
"@ @ @ > l 0 6 z x V O.X.m l > ; 8 ^ ] G.F.H.A.S.L.L.A.A.H.G.Z.A.U.Q.[.+X!.A.Z.T.oX%XC.w * = $ & &   m 2.X.D X.X.O.1.> # ",
"@ @ # @ 2 0 p N C A X.X.O.z 2 ; e G.P.G.G.D.D.D.G.F.J.F.K.K.F.J.H.). X!.U.D.} Z.R.XXT.w ; $ $ = $ @ 0 m A X.X.O.B n = # ",
"@ @ # @ O l A X.O.X.X.O.<., # ; 9 ] P.H.G.D.G.G.G.| } [ | | [ | | | G.H.H.D.D.G.F.L.] 9 ; @ @ $ = > $ O A 1.+.1.l . @ @ ",
"@ @ @ @ @ > 3 Z O.X.O.n 0 & @ $ > e ` F.F.G.G.L.| Q e g r r r r e e ~ } F.G.G.F.F.' e , @ @ @ @ @ @ $ & 0 l f z , @ @ @ ",
"@ @ @ @ @ @ O Z ;.O.1.0   @ @ @ @ ; e _ G.H.H.| ^ 2 % > & > > > < 4 0 ^ | G.F.G._ e @ @ @ @ @ @ @ O @ > $ @ $ $ @ @ $ @ ",
"@ @ @ @ @ @ @ & > > > @ @ @ @ @ @ @ > e ' P.G.Q 2 @ @ @ @ @ @ @ & > > 2 Q G.P.' e > @ @ @ @ @ @ @ @ @ @ @ @ @ @ @ @ @ @ ",
"@ @ @ @ @ @ @ # # # # + @ @ @ @ @ @ @ 8 / F.| h > @ @ @ @ $ @ @ # . @ > r | F.( 8 % @ @ @ $ @ @ @ @ @ @ @ @ @ @ @ @ @ @ "
};
