/* XPM */
static char *xpm_[] = {
/* columns rows colors chars-per-pixel */
"60 60 224 2 ",
"   c #040405",
".  c #0B0505",
"X  c #040807",
"o  c #0A0907",
"O  c #090709",
"+  c #070A09",
"@  c #0C0B0C",
"#  c #050609",
"$  c #120D0D",
"%  c #0D110F",
"&  c #13110F",
"*  c #1A130F",
"=  c #0E0D10",
"-  c #130E11",
";  c #1A0E11",
":  c #0D1212",
">  c #081214",
",  c #141313",
"<  c #1B1515",
"1  c #1B1916",
"2  c #161418",
"3  c #1C1518",
"4  c #1D1A1A",
"5  c #151917",
"6  c #230F13",
"7  c #221516",
"8  c #221816",
"9  c #2C1A14",
"0  c #25141A",
"q  c #2B141C",
"w  c #231C1B",
"e  c #2A1817",
"r  c #33151E",
"t  c #371818",
"y  c #25211E",
"u  c #28211E",
"i  c #181F21",
"p  c #281F20",
"a  c #261A20",
"s  c #361422",
"d  c #3C1324",
"f  c #1C2323",
"g  c #262221",
"h  c #2B2523",
"j  c #2E2926",
"k  c #2E2A28",
"l  c #282829",
"z  c #312A27",
"x  c #302728",
"c  c #332D2A",
"v  c #392F2D",
"b  c #302625",
"n  c #36312D",
"m  c #39312E",
"M  c #2C3231",
"N  c #363432",
"B  c #3C3432",
"V  c #3E3935",
"C  c #3A3938",
"Z  c #30312D",
"A  c #4E1D17",
"S  c #4E1E19",
"D  c #441A18",
"F  c #541E19",
"G  c #4C2017",
"H  c #56201A",
"J  c #66221A",
"K  c #6B231A",
"L  c #74251B",
"P  c #78291A",
"I  c #431522",
"U  c #4A1524",
"Y  c #471625",
"T  c #521625",
"R  c #581626",
"E  c #6C162D",
"W  c #651727",
"Q  c #75162F",
"!  c #7D172F",
"~  c #75192B",
"^  c #7A1A2A",
"/  c #741631",
"(  c #7C1632",
")  c #482835",
"_  c #413736",
"`  c #413937",
"'  c #443C3A",
"]  c #493E3D",
"[  c #5B3A3A",
"{  c #512C32",
"}  c #6D2F28",
"|  c #742A23",
" . c #67352D",
".. c #6A3B32",
"X. c #75342B",
"o. c #45413D",
"O. c #45413D",
"+. c #49413E",
"@. c #5C413A",
"#. c #72463D",
"$. c #483D45",
"%. c #3B4442",
"&. c #494540",
"*. c #4B4442",
"=. c #4E4A45",
"-. c #4D4944",
";. c #414847",
":. c #504D46",
">. c #534E4A",
",. c #544745",
"<. c #56534C",
"1. c #57544D",
"2. c #54514B",
"3. c #58554E",
"4. c #555651",
"5. c #595751",
"6. c #5A5851",
"7. c #5D5A54",
"8. c #595C57",
"9. c #575052",
"0. c #6A4A43",
"q. c #625D59",
"w. c #655A55",
"e. c #62514A",
"r. c #5F645E",
"t. c #61605B",
"y. c #5B6864",
"u. c #686963",
"i. c #76746D",
"p. c #776E67",
"a. c #85261C",
"s. c #882718",
"d. c #9C2C1E",
"f. c #98271A",
"g. c #A3261B",
"h. c #A22B1D",
"j. c #AC2D1E",
"k. c #A12617",
"l. c #B22B1D",
"z. c #BC2C1D",
"x. c #BB301D",
"c. c #881B2D",
"v. c #931C2E",
"b. c #9A1E2E",
"n. c #841633",
"m. c #8A1735",
"M. c #851832",
"N. c #8B1933",
"B. c #8E1738",
"V. c #931C31",
"C. c #981A34",
"Z. c #A41E2E",
"A. c #A11938",
"S. c #8B2224",
"D. c #9A2227",
"F. c #8F3529",
"G. c #A62B21",
"H. c #AA242B",
"J. c #AB2827",
"K. c #B52C24",
"L. c #BB2B24",
"P. c #BB262A",
"I. c #BB2929",
"U. c #B2262B",
"Y. c #AD2131",
"T. c #B73423",
"R. c #CB2719",
"E. c #CA2818",
"W. c #CB2816",
"Q. c #DE2C1B",
"!. c #D62B17",
"~. c #CD321F",
"^. c #D3341F",
"/. c #D9351F",
"(. c #DE391D",
"). c #E3341F",
"_. c #F4331E",
"`. c #E32C18",
"'. c #C52E23",
"]. c #CB2E26",
"[. c #C52B29",
"{. c #C92C2A",
"}. c #C5272C",
"|. c #CC3223",
" X c #C23023",
".X c #D33422",
"XX c #DB3522",
"oX c #DA3426",
"OX c #D8362D",
"+X c #E33523",
"@X c #E73823",
"#X c #F43725",
"$X c #D54E3A",
"%X c #B6586F",
"&X c #DB5541",
"*X c #DD5845",
"=X c #CC4C4F",
"-X c #E24A47",
";X c #E3725E",
":X c #E47764",
">X c #D2634F",
",X c #7F807B",
"<X c #85817B",
"1X c #F98A76",
"2X c #FF957F",
"3X c #98938C",
"4X c #8A8780",
"5X c #A5A29B",
"6X c #A9A399",
"7X c #ACAAA2",
"8X c #BBBBB8",
"9X c #C0B2A7",
"0X c #DCA99C",
"qX c #F6C8B7",
"wX c #E5C3BA",
"eX c #D9D5CB",
"rX c #E6D5C8",
"tX c #FBD6C8",
"yX c #EEE8DA",
"uX c #F9EADD",
"iX c #FEF9EB",
"pX c #FFFFFF",
"aX c #FFFFF3",
"sX c #F9EAF1",
/* pixels */
"@ @ @ @                   @ @ $ @               @ @ @ @ @                         @ $ o                         @ $ @ @ ",
"@ @ @ @ , , , 1 1 1 1 1 1 @ @ @ @ & , 1 1 1 1 1 & @ @ @ & , , < 1 1 1 1 1 1 1 1 1 @ @ - , 1 1 1 < , , < 1 1 1 4 @ @ @ @ ",
"@ @   , c B ' <.7.5.3.7.t.<     o h V q.5.5.7.u.N       y m _ &.6.6.7.7.7.6.3.6.u.g   y B 6.7.q.2.` ' ` 2.7.6.u.g   @ @ ",
"@ @ , y B ' -.2.1.<.3.:.>.y , 4 h V &.3.<.1.:.>.V 1 4 < c B +.=.1.>.=.=.=.2.3.>.>.n 1 c B =.=.:.&.V &.&.<.4.>.2.m 1 @ @ ",
"  , B V +.2.q.<.2.<.3.-.' B m &.>.7.6.2.2.<.o.V o.>.V c V +.6.6.1.=.' ' _ <.7.=.V +.=.&.o.' ' ' O.' >.q.<.1.=.B +.>.1   ",
"X $ u j m V -.2.1.<.7.V h g u c V &.=.1.<.<.V c N m c z V o.&.-.7.o.y c m o.=.' c B m m m B m j z m ' -.>.7.&.c m B ,   ",
"@ @ 1 y z m V :.1.1.q.v $ < w h c V &.5.1.5.m h j z c z V o.V O.q.' $ u c B o.B h z j z j c j < y j B V >.7.o.h z c &   ",
"@ @ w g z B ' :.3.=.&.z < w w w y c B &.o.&.h w 4 , 4 g z m ' ' -.m < w w c m j w w g < , , , - < w j m ' =.m w < , @ @ ",
"@ $ w h v _ ' <.7.:.o.z 8 w w 8 w j m ' ' ] g 8 < # < w j v ' o.+.m < w 8 z m h 8 w w - @ @ @ = & w j c _ &.m 7 -   @ @ ",
"@ @ , 4 w c V &.>.o.V g , < < 8 w z m o.V V w < , = < < g j B V V z 8 < < w g w < 1 < , - $ $ = , < w b c B j < - @ @ @ ",
"@ @   @   w c _ o.B m 4 O @ - w g z B &.m c , @ @ - @ @ 3 w z c z h w , @ @ @ @ o @ o @ $ $ & @ @ @ < w < < ; @ @ @ @ @ ",
"@ @ @ @ @ w g c V j 3 , $ - - , < g b _ h < , - - $ = = , < w g h 4 , , $ $ @ < h w y y y & @ , - $ , , g j h g ,   @ @ ",
"@ @ @ @ @ < w j m 4   $ , - - = , 4 u m 1   , ; , , , = @ @ < 4 w < @ - , $ @ 4 B c m m c $ $ - - $ @ @ h m c B <   @ @ ",
"@ @ @ @ - , , , < , & $ , $ = = - , , < , - , , , , - @ g g 4 1 ; , & , $ < 8 w w j c c z j w $ , @ < 4 j c z c h h , @ ",
"@ @ @ @ , @ @ @ @ $ , , , $ - $ @ = @ @ - , $ , , , , $ j k 1 4 - , , , - 4 w w < h c z z m z $ , $ < w j c z c v B ,   ",
"$ @ o @ & - $ @ @ $ - $ @ 4 w @ @ - - - < w , - $ @ < < y h < 1 j w @ < 1 , 1 w < h z B _ ] B @ , w w 1 h z v _ _ ] <   ",
"@ @ @ @ & , , < < < < , @ 1 w < , & , - < w , $ , , < < g j 4 w m w @ 3 4 < < w w j v V _ B k @ , w w y z v B ' B B ,   ",
"@ @ $ & $ < w c m c m 4 @ @ , B z . @ $ @ $ $ $ * < < , 4 g 4 g ' w @ < 1 < , w z B ' ] ' , @ = $ @ g B ' +.] -.y . @ @ ",
"@ @ $ - = < w g h j n y 4 , $ y w 1 1 1 w w , @ < < , : 5 4 5 5 1 : : : , , 4 j B B ' v j , - - - @ 4 g j x z z w $ @ @ ",
"@ @ , $ @ < u < , w z z v 7 $   & B m v v m < @ = , < 9 9 e 6 ; 6 e 9 9 e 7 g B ] ] &.< . @ @ @ @ @ O   @ $ $ @ - < @ @ ",
"@ @ @ @ $ , , y j z B m B 1 $ , 1 y h c z c < $ & , t S.j.S.E R W S.h.h.S.W q 5 w w g , & w y w g w w g , $ , , $ @ @ @ ",
"@ @ + @ , $ @ j m B ' ' ] 1 @ w w < y c z c < - - : H .X_.OX=X%X%X$X+X).-X%X_ : @ @ $ $ , c m v c v v m < o $ < @   @ @ ",
"@ @ @ @ @ @ - , $ g +.j < , $ 4 w j v V B _ < @ , , S '.`.&XqXsXtX;X!.!.1XwX8., - - $ < w z c z z c z c h j w $ $ @ @ @ ",
"@ @ @ @ @ @ $ @ # p <.u . $ , < w z v ' _ ' < @ , , A z.Q.*XtXpXaX:XE.R.2XyXy., $ $ $ 4 w c c k c z c z c m y @ @ + @ @ ",
"@ $ $ @ @ @ , $ @ 4 m 4 - $ & w h c v B _ ' 3 $ , : S z.`.&XqXpXuX:XE.W.1XrXy., , , $ < w g j z z c c z c c h w , @ @ @ ",
"@ @ @ @   @ $ @ $ @ . $ , - , v B _ h y B *.w $ & , S z.Q.&XqXpXuX;XR.E.1XrXy.& w < $ 1 w < w v c z z z c j c B w $ @ @ ",
"@ @ @ @ @ 1 g y y w g < , , , < w _ w 2 w w < $ , , G z.Q.&XqXpXuX:XE.W.1XrXy., < , @ < 1 8 w g h c z z k j c v w $ @ @ ",
"@ @ @ @ $ y B c m c B 1 , , , @ , ' h 5 , $ $ , & : S z.Q.&XqXpXiX:XE.W.1XrXu., @ @ - < < 4 w < y c j j z c z c 4 $ @ @ ",
"@ @   $ 4 h c z j j c h w , , , , < , , , , , , , : S z.Q.*XtXpXaX:XW.E.2XuXu., h < , , , < w j c _ B V B B V ' p $ @ @ ",
"@ @ o , w h c z z c z c m < , 5 , $ - , % , , , > : S E._.$X0X8X9X>XQ.Q.:X6X;.< g 1 , < , 1 y c B ' _ _ ' _ _ ' w $ @ @ ",
"@ @ w w w w 8 j c j j j c , , , , 1 < , , , 5 , > : A E.#XT.{ M B F.).).F.m i 5 1 < , , , g m ] ' _ _ _ ' *.c $ @ + @ @ ",
"+ $ w w w w w z v c c c m < , : : , 0 d r 3 , e D t Y J P A $ X + t L L t @ ; d s 7 , : , g h h c _ _ _ B B g . @ @ @ @ ",
"@ @ y w < g c B ' _ B ' +.< , < , , U N.N.Y 8 K L.D.T 0 < < , , , < 7 3 , , U N.N.U < , , $ $ - 1 ,.' +.7 $ @ @ @ @ @ @ ",
"+ @ < w u z m V _ B j h j , 3 I a < F }.{.D.a.j.+X].c.I s d U U Y I d d d T S.{.{.c.T Y d 3 , , < c x z < - $ @ @ @ @ @ ",
"@ @ O w V B ' _ B m 1 < @ = q E W D a./.(..X.X.X^.^.I.b.V.b.b.b.v.C.V.v.V.b.L.^..XI.Z.Z.~ 0 : , $ $ $ $ @ @ @ $ O   @ @ ",
"@ @ @ , < v ' _ _ x < , < : 0 E D.G.x..XXXoXXX.X|..X|.].[.{.'.'.{.{.].'.[.[.|..X^..X].oXD.e : , < - , $ w y y y w w @ @ ",
"@ @ o @   x +.' +.h @ < , , < r ~ P.I.H.H.I.|..X.X|..X.X^.^..XoX.X.X.X.X.X^..X~..X.XXX@Xd.9 : : 4 $ $ $ b B v c c m ,   ",
"@ @ o @ $ , 4 4 w < @ , , , , 3 I M.C.V.V.H.|.XX.X.X.X.X.X.X.X.X.X.X.X.X.X.X.X.X.X.XXX@Xd.e : < 4 @ < w w w g c m ` ,   ",
"@ @ @ @ , $ @ $ $ $ @ $ , : < d W n.Z.P.}.}.|.XXXX.X.XXX.X.X/.XX.XXXXX.X.XXX.X.XXX+X@X#XG.9 5 h w   3 g 1 < w j V ,.,   ",
"@ @ @ @ @ - , $ $ < 4 1 , 5 < T ( N.D.d.d.x..XK.j.|.L.f.z.'.g.j.~.j.f.'.z.f.L.~.g.s.d.j.L 8 4 y w , < < y u j B z z $   ",
"@ @ @ @   - , $   4 B h < , , 7 T ! R 9 9 L K.J G G.a.D a.h.A J G.J A h.a.D a.j.A 7 q 9 e < y # , j , # j B V ,.p . @ @ ",
"@ @ @ @ @ $ $ w y h c j w < : : 0 d 0 > > t H 9 , A #.w...} ,.@.} 0.w.}  .>. .X.w.%.5 + : 5 < - , < , = 4 w w g < @ @ @ ",
"@ @ @ @ , $ $ j B c j j h w < < , , , , , , < , @ , q.7X=.V 6X4Xc i.3XB q.8X5.m 3X,X1 + , , $ , , @ $ $ $ $ $ $ @ @ @ @ ",
"@ @ @ @ $ < w w w g p w 4 y g h 4 5 : , , : > , = : N 2.4 N eX7Xg M O.f i.yXr.5 &.&.1 % , , , @ 1 j h h h k w $ @ @ @ @ ",
"@ @ @ $ $ < y w < w 4 , , 4 h h w < , , , , , , , @ @ % p 7.5Xu.< # @ @ &.5Xi.k , @ @ $ , - , @ w m c c c m g $ $ @ @ @ ",
"@ @ @ , w w w w 8 y j y , < 1 1 < , < 5 , , , , & , + < i.6X4.4 , @ @ - 2 V 3X3Xj   @ < , - & 4 y m c c z z z v ,   @ @ ",
"@ @ , < w w w w 1 y z h < < , , , , : % % , : = g 7.C l 7XeXN i 4.M f <.M i 5XeX%.l 8.N , , , w g j g g j z c m w @ @ @ ",
"+ @ w w w w w w w 4 < 4 < , , : , , 2 2 < 2 : @ V 5Xi.v <X5XV ,.5X2.V 3Xp.z <X6XV <.7X6.@ @ , w w < , < j c j j z c ,   ",
"@ @ w w w w w w < < 1 < < : : , : < r R T s - 0 { 9.0.| [ ,.} ..7...X.e.0.| [ $.) [ 4.M : @ , , < < , , j c c v m B ,   ",
"  $ w w w w w w < < , , , < q e , , T Y.Y.W D W ~ D K l.J S h.s.D a.G.S J K.K D ^ W 0 < q 0 < , , , < < h j m ' ' ' ,   ",
"@ @ , < w w w h w g 3 : , I Q ~ s 3 J ].oXK.j.L.L.g.l.~.l.g.|.z.k.L.'.h.l.~.l.g.L.D.W R E E d , : , 4 g m B B _ _ ' ,   ",
"o @ @ , w w w j c m k 4 < R C.A.W U | K.I.U.P.]./.+XXX.XXX+XoXoXXX.X.XXXXX.XXX+XXX'.U.H.P.U.R < , 1 w h _ ' _ _ _ ' ,   ",
"@ @ @ , w w w j j m ' k < Y ( N.M.M.M.N.N.N.b.I.^.XX.X.X|.|..X^..X.X|..X.X.X.X.X.X.X.X|.XXoXK < , @ 3 4 V _ _ _ _ ' ,   ",
"@ @ @ , g w 7 h 4 y _ v 3 < t Q V.V.m.( ( v.J.|..X.XXX|.U.H. X/..X.X|.~..X.X.X.X.X^..X.X+X/.L < : @ , , _ _ _ _ ' *.<   ",
"@ @ o @ 3 w u c < < j h < < r E N.m.M.n.n.b.I.'.L.L.'.I.V.N.H.L.L.|..X^.|.L.I.'..XXX.X^.+X/.L < : , < 4 B _ _ ' v b -   ",
"@ @ X @ O g B _ 5 , < 5 < t E M.m.M.M.n.M.N.v.v.v.v.V.v.N.M.V.V.b.K..X.XK.V.N.D.'..X.X|.XX.XL < : , - @ B *.] ,.g . @ @ ",
"@ @ @ @ @ < 4 B h w , : < R C.A.N.M.n.M.M.n.( ( n.m.B.B.B.V.B.n.B.H.P.U.b.n.( N.H.U.J.U.}.}.W < % @ $ - w g p g < @ @ @ ",
"@ @ @ @ @ @ O N ' B y : < Y ( ( ! M.M.M.M.M.n.n.n.( / / Q ( ( / Q Q ! M.N.n.n.M.m.N.M.n.M.! Y , @ @ @ , $ $ $ $ @ @ $ @ ",
"@ @ @ @ @ @ @ & < , < , < 0 r r T ( N.M.M.M.m.m./ Y q r r r r r r q d E m.M.M.M.n.n.( U q q 8 , @ @ @ @ @ @ @ @ @ @ @ @ ",
"@ @ @ @ @ @ @         @ , , 5 , s Q M.( ( ( M.M.W q , , , < , , , , 0 W M.! ( ( ! n./ s , , < , $ @ @ @ @ @ @ @ @ @ @ @ "
};
