/* XPM */
static char *_304_2a73c84f45e297337bae9f184495208001e35d9e5273b41ef7cbcbc271103e20[] = {
/* columns rows colors chars-per-pixel */
"60 60 198 2 ",
"   c #010100",
".  c #020E0E",
"X  c #0A0A0A",
"o  c #0D0905",
"O  c #140D07",
"+  c #0D1309",
"@  c #191007",
"#  c #1B100A",
"$  c #0B0D18",
"%  c #05141A",
"&  c #161616",
"*  c #14151A",
"=  c #231306",
"-  c #2A1709",
";  c #28180F",
":  c #2A1911",
">  c #372418",
",  c #27381B",
"<  c #3C260F",
"1  c #071725",
"2  c #121328",
"3  c #121327",
"4  c #041F30",
"5  c #161835",
"6  c #100F24",
"7  c #0E3837",
"8  c #083C3A",
"9  c #042439",
"0  c #353732",
"q  c #1D2915",
"w  c #4C290D",
"e  c #432616",
"r  c #4A2B1A",
"t  c #442B15",
"y  c #52311E",
"u  c #5A331B",
"i  c #543723",
"p  c #683E26",
"a  c #1A4237",
"s  c #2E492F",
"d  c #30491F",
"f  c #6E441E",
"g  c #46532B",
"h  c #6D422A",
"j  c #794E24",
"k  c #74462D",
"l  c #764A25",
"z  c #7C5127",
"x  c #45662D",
"c  c #4C6C35",
"v  c #567638",
"b  c #59783A",
"n  c #506731",
"m  c #1D1D41",
"M  c #052E46",
"N  c #063550",
"B  c #252554",
"V  c #37377D",
"C  c #36367A",
"Z  c #163E6F",
"A  c #0A5654",
"S  c #185E5C",
"D  c #175E5D",
"F  c #074166",
"G  c #196D6B",
"H  c #0E7675",
"J  c #434343",
"K  c #494949",
"L  c #484846",
"P  c #44455A",
"I  c #5A7741",
"U  c #607D47",
"Y  c #894D29",
"T  c #844825",
"R  c #815228",
"E  c #995F36",
"W  c #95542E",
"Q  c #A45C34",
"!  c #9B6137",
"~  c #A5673C",
"^  c #AD643B",
"/  c #B3693F",
"(  c #AB6C41",
")  c #B36D43",
"_  c #BC6F45",
"`  c #BB7146",
"'  c #BF7449",
"]  c #B9774B",
"[  c #B97158",
"{  c #A9675B",
"}  c #AC6960",
"|  c #C4764B",
" . c #C8774A",
".. c #C6784C",
"X. c #C9784D",
"o. c #C37547",
"O. c #C77751",
"+. c #59813D",
"@. c #658B3E",
"#. c #11807E",
"$. c #5B8241",
"%. c #668D44",
"&. c #688D46",
"*. c #668947",
"=. c #6B9346",
"-. c #699349",
";. c #689947",
":. c #709C4D",
">. c #739554",
",. c #6F9057",
"<. c #72A14E",
"1. c #72AE4A",
"2. c #7CAB4E",
"3. c #75B04C",
"4. c #7FB84F",
"5. c #79B34F",
"6. c #7BAC51",
"7. c #78A555",
"8. c #77B352",
"9. c #7CB354",
"0. c #7EB952",
"q. c #7FB558",
"w. c #82AD58",
"e. c #83B356",
"r. c #82BA54",
"t. c #81B759",
"y. c #83B95B",
"u. c #89BE5D",
"i. c #89BE56",
"p. c #83AA61",
"a. c #8CB465",
"s. c #86BA61",
"d. c #8BBC62",
"f. c #8FBE6A",
"g. c #86B661",
"h. c #91BE6B",
"j. c #90BF61",
"k. c #C8805C",
"l. c #CE8B67",
"z. c #89C256",
"x. c #8DC45C",
"c. c #87C056",
"v. c #91C65D",
"b. c #92CA5C",
"n. c #8EC362",
"m. c #8FC466",
"M. c #91C464",
"N. c #94CC61",
"B. c #99CE65",
"V. c #93C36A",
"C. c #96C96B",
"Z. c #9ACC6D",
"A. c #98C66E",
"S. c #9CD06C",
"D. c #99C671",
"F. c #9BCC71",
"G. c #97C772",
"H. c #9FD173",
"J. c #A0CE74",
"K. c #A3D476",
"L. c #A5D579",
"P. c #A8D77B",
"I. c #383880",
"U. c #363A82",
"Y. c #095A8B",
"T. c #0F5F80",
"R. c #1D599C",
"E. c #2A4A8F",
"W. c #2C4487",
"Q. c #344284",
"!. c #274D91",
"~. c #245395",
"^. c #0A669A",
"/. c #0B6FAD",
"(. c #0A69A3",
"). c #1267A7",
"_. c #0D74AC",
"`. c #0E77AB",
"'. c #734A84",
"]. c #77528D",
"[. c #0F8685",
"{. c #108483",
"}. c #228786",
"|. c #218887",
" X c #238989",
".X c #0D80AF",
"XX c #16A9A7",
"oX c #18B1AE",
"OX c #16BFBC",
"+X c #18BEBC",
"@X c #15B4B1",
"#X c #17C0BD",
"$X c #BBA3BB",
"%X c #DCA98E",
"&X c #B9A5C0",
"*X c #E9DEDC",
"=X c #F4E6DD",
"-X c #F5EBE6",
/* pixels */
"b.b.b.u.r.y.u.N.N.B.K.K.L.L.L.L.C.1.1.1.L.L.L.A.h.h.d.y.y.y.N.N.N.r.1.1.0.b.N.N.r.q.r.y.y.q.u.v.b.b.u.y.y.y.y.y.c.b.b.b.",
"b.b.v.u.y.y.u.N.N.N.L.L.L.L.L.L.C.1.1.1.L.L.L.Z.h.h.d.y.y.y.b.N.N.r.1.1.0.B.N.N.y.q.y.y.y.y.u.b.b.b.y.y.y.y.y.y.c.b.b.b.",
"b.b.b.u.y.y.c.N.N.B.L.L.L.L.L.L.C.1.1.1.L.L.K.A.h.h.j.y.y.y.N.N.N.0.1.3.0.B.N.N.q.y.q.y.y.y.u.b.b.b.u.y.y.y.y.y.c.b.b.b.",
"b.b.b.x.s.y.n.N.b.N.L.L.L.S.B.B.n.q.9.9.S.B.Z.J.J.J.A.y.y.u.v.N.N.z.c.z.z.b.N.b.y.q.y.y.y.y.n.K.S.S.y.y.y.c.x.x.z.b.b.b.",
"b.b.b.n.d.a.x.v.b.b.K.L.L.B.b.b.x.y.y.u.N.N.N.K.L.L.Z.y.y.y.N.N.b.b.b.b.b.b.b.b.y.y.y.y.y.q.m.L.P.K.d.y.y.z.b.b.b.b.b.b.",
"b.b.b.n.d.d.x.v.b.b.K.L.L.B.b.b.c.+.+.b %.%.&.-.>.>.&.+.+.+.%.%.&.@.@.@.@.@.@.9.y.y.y.s.y.y.m.P.L.H.y.q.y.x.b.b.b.b.b.b.",
"b.b.b.n.d.d.n.x.x.b.Z.Z.Z.Z.B.B.9.                                            v c.c.c.c.n.u.n.S.H.S.c.n.c.v.b.b.b.x.v.x.",
"b.b.b.d.d.d.d.t.y.y.y.y.y.Z.L.L.a.  o t t t t t t t t t t t t t t < - - - O   c b.v.N.N.N.N.b.b.b.b.b.b.b.v.b.b.x.y.y.y.",
"b.b.b.j.d.d.s.y.y.y.y.y.y.F.L.L.d.  O j j l j j j j j j j j j j j f w w w =   c b.b.v.N.N.N.N.b.b.b.b.b.b.b.b.b.v.y.y.y.",
"b.z.b.u.d.d.s.y.y.y.u.y.u.Z.L.L.a.  @ j j j j j j j j j j j j j j f w w w =   c b.v.v.b.v.N.N.b.b.N.B.b.b.b.b.b.x.t.y.y.",
"3.1.3.e.y.y.y.y.y.d.J.K.K.L.L.L.a.  @ j j j j j j j j j j j j j j f w w w =   v y.c.y.u.y.u.V.K.K.L.L.L.K.B.b.b.x.y.y.y.",
"1.1.1.e.y.y.y.y.y.y.L.L.L.L.L.L.a.  O l E ] ` ` ` ` ` ` ` ` ` ) j f w w w =   v y.q.y.y.y.y.n.L.P.L.L.L.L.N.b.b.x.t.y.y.",
"1.1.1.q.y.r.y.y.y.y.L.L.L.L.L.L.a.  @ j ! O.X.X.O.X.X.X.......| j l w w w =   b y.y.y.y.y.y.n.L.K.L.L.L.L.B.b.b.b.y.y.y.",
"z.z.z.d.f.f.y.6.9.9.j.V.V.C.B.B.e.  ; ) ] | X.X...X.X.......O.O.` / W l w =   v y.y.y.C.F.F.A.n.j.M.G.D.D.M.n.d.x.x.x.b.",
"b.b.b.M.f.f.y.1.1.8.g.d.d.x.b.b.2.  : | l.l.k.[ ] O.....[ [ l.l.X._ Q Y w =   v y.y.y.C.L.L.Z.q.t.t.h.h.h.d.d.d.u.b.b.b.",
"b.b.b.v.h.h.u.1.1.3.d.u.d.v.b.b.6.  : | %X-X&X'.} X.....].].*X-XO._ Q Y w =   v y.y.y.F.L.K.F.y.y.t.h.h.h.f.d.d.u.v.b.b.",
"b.b.b.v.h.M.v.r.0.0.x.n.n.x.n.b.6.  ; | %X-X$X'.{ | ..| '.].*X=XO._ Q Y w =   c y.y.r.V.Z.Z.n.y.q.s.d.m.s.n.n.n.x.x.x.x.",
"b.b.b.b.b.b.b.b.b.b.v.b.v.u.y.y.:.  : | ..X.X.X.^ Q Q Q ....O.X...o.Q Y w =   x t.y.y.y.y.y.y.y.q.s.q.q.q.N.b.N.n.y.y.y.",
"b.b.b.b.b.b.b.b.b.b.b.b.b.u.y.q.:.  : | ..X.' ` ^ ^ ~ Q ) ` X.O.X.` Q Y u -   x t.q.t.y.y.y.y.y.s.y.c.s.y.m.N.N.b.y.y.y.",
"b.b.b.b.b.b.b.b.v.b.b.b.v.c.y.y.:.  ; | ....~ j ( X.....z R | X.X.` Q Q Q r   x e.y.t.y.y.y.y.u.q.y.q.s.0.b.N.N.x.y.y.y.",
"K.L.L.B.b.b.B.L.L.K.n.d.d.u.y.y.<.  : | O.X.~ j ! ~ ~ ~ z R ' X.X._ Q Q Q r   v d.d.d.F.K.L.H.N.N.N.N.b.b.b.N.N.N.N.N.N.",
"L.L.L.B.b.v.B.L.L.K.d.s.d.s.q.s.<.  ; | O.| ~ z j j j j j R ' X.X.` Q Q Q r   v d.d.d.F.L.P.H.N.N.N.b.b.b.N.N.N.b.N.N.N.",
"L.K.K.B.b.b.S.K.K.K.j.d.n.q.q.c.<.  # h h h i t t t t t t t h h h p u u u ;   b d.s.d.F.K.K.H.N.N.N.b.b.b.N.N.N.N.N.N.N.",
"B.B.B.x.r.r.z.B.B.B.M.v.x.b.n.z.7.                                            b y.y.y.d.G.V.C.b.N.b.N.N.n.n.n.c.u.u.n.c.",
"b.b.b.0.8.8.r.v.b.b.b.b.b.v.b.b.u.$.+.I g   8 {.{.{.{.{.{.{.{.#.S S S S S S S s , :.e.u.g.d.j.b.b.b.N.N.N.c.y.q.y.y.y.y.",
"b.b.b.0.8.9.r.b.b.b.b.b.b.b.b.b.x.y.y.y.U   A OX#X#XOX#XOXOXOXOX X X|. X}.}.}.7   &.t.u.d.d.n.b.b.b.N.N.N.x.q.c.y.y.y.y.",
"b.b.b.c.c.y.z.b.b.b.x.b.z.b.N.b.x.y.y.y.I   A OX#X+X#XOXOXOXOXOXoXXX X X X X}.7 o -.t.u.d.d.u.x.z.x.n.n.m.m.C.m.d.y.y.y.",
"b.b.b.N.N.N.b.b.b.b.y.y.y.x.N.N.n.y.y.y.c   A OXOX#XOXOXOXOXOXOX#XoX X X}. X}.7   -.t.f.h.h.f.y.c.y.y.y.q.F.L.L.F.y.y.y.",
"b.b.b.b.N.N.N.b.b.b.y.y.u.n.N.N.b.y.;.+ o   A OXOXOXOXOXOX#XOX@X. > ] ] ] ( ! >   -.y.d.h.h.f.y.y.y.y.y.y.F.L.K.F.y.y.y.",
"b.v.b.N.N.N.N.b.N.b.y.q.y.x.N.N.n.y.-.      A OXOXOXOXOXOXOXOXoX  > ....X.) Q e   -.q.d.f.f.d.t.y.y.y.y.y.Z.H.H.Z.u.y.y.",
"y.y.y.b.b.b.B.K.L.H.u.y.y.b.N.N.v.N.<.      A OXOXOXOXOXOXOXOXoX  > ....X./ Q e   >.f.q.1.8.8.y.y.q.y.y.y.d.V.m.d.v.b.b.",
"y.y.u.z.b.b.B.L.L.H.s.y.q.n.N.v.N.x.:.#     A OXOXOXOXOXOXOX@XXXo t  ... ./ Q e X >.h.q.1.1.8.y.y.y.y.y.y.s.d.s.u.b.b.b.",
"y.q.s.x.v.b.S.L.L.K.c.s.y.n.N.N.e.  : ' k   A OXOXOXOXOX#X@X% X | ......o./ Q e   >.h.e.1.1.2.y.y.y.y.y.y.d.a.d.u.b.b.b.",
"n.d.d.n.u.u.M.L.K.K.n.x.x.x.y.-.+.< u ..k   A OXOXOX+XOX[.#., e  . ...o. ./ Q e   :.u.u.x.x.u.y.y.y.d.y.d.x.v.v.v.d.n.n.",
"f.f.f.s.y.y.n.L.K.K.N.b.v.c.:.+ @  . .o.k   A #XOXOXOXOX. O ) .. . . ...o./ Q e   -.u.v.b.N.x.y.y.y.d.d.d.x.b.b.v.d.d.d.",
"h.f.V.s.y.y.n.L.P.K.N.b.b.u.:.+ @ o.k...k   A #XOXOXOXOX. O ) .. ...o.o.o.^ Q e   -.y.M.N.N.b.y.y.y.s.s.d.x.b.b.v.g.d.d.",
"G.G.G.n.c.d.m.Z.F.C.x.x.x.y.:.+ # .. .o.k   A #XOXOXOX+X. O ( .... .o.` Q Q Q e   -.y.x.b.N.x.c.x.x.V.V.V.b.b.b.v.u.d.y.",
"P.P.K.S.N.N.n.y.y.y.y.q.q.u.:.+ # .. . .k   A OXOXOXOX+X. O ) o. .o./ ^ Q l r g c 8.y.b.b.b.N.N.b.B.L.L.L.N.b.b.x.e.y.y.",
"P.L.L.Z.N.b.n.y.y.y.y.e.y.y.:.+ # ......k   A OXOXOXOXOX. o / o. .` ~ Q Q r   c y.y.s.z.b.b.b.N.b.B.L.L.L.B.b.b.x.y.y.y.",
"P.L.L.C.N.N.N.y.y.y.q.y.q.y.8.v n y y y :   A OXOXOXOXOXH G i y y r e e e @   c y.y.q.x.b.b.N.N.B.N.L.K.L.B.b.b.x.y.y.t.",
"y.y.y.b.N.N.M.h.f.d.u.y.y.x.v.b.6.          A OXOXOXOXOXOX@X%             o   c q.y.y.Z.L.L.Z.d.d.d.N.N.N.v.b.b.x.d.d.d.",
"y.y.y.M.N.N.B.f.f.h.y.y.y.x.b.b.c.-.v   9 Y.(..X.X.X.X.X`.`.Y.Y.Y.Y.Y.G G G G a q :.y.F.L.L.Z.d.s.n.N.N.N.b.b.b.v.d.d.d.",
"y.y.y.n.N.N.M.V.h.h.y.y.y.x.b.b.x.y.-.o M /./././././././././././././.`. X|.{.7   -.g.Z.L.L.F.d.d.d.N.N.N.v.b.b.x.d.d.d.",
"y.y.y.r.0.0.n.H.K.F.x.x.x.c.i.x.n.C.7.  M _._./././.!.U.1 % % 1 /./././.`.~.U.5   7.F.V.V.M.M.v.n.b.N.N.N.x.M.n.i.q.9.9.",
"y.y.y.8.1.1.0.L.L.K.v.b.b.c.s.y.n.K.p.  M /././././.W.C & + + + (.(./././.~.I.5   p.K.V.y.y.i.v.b.b.N.N.B.d.d.d.y.1.1.1.",
"y.y.y.3.1.1.s.L.L.L.b.b.b.c.y.y.V.K.p.  M /././.~.U.5 X -.:.:.-.% M /././.~.I.5   p.P.n.y.y.c.b.b.b.B.N.N.n.d.d.y.1.1.1.",
"t.y.y.9.8.2.u.F.Z.F.N.M.M.n.y.c.n.a.,.1 N _././.E.I.6   e.u.M.g.  4 /././.~.I.m $ >.a.d.y.y.c.N.b.b.B.S.S.x.s.y.y.3.1.8.",
"y.y.y.y.y.y.y.y.y.y.f.f.V.N.b.v.r.  1 /././././.E.I.6   i.b.K.D.  4 /././.~.V I.C * o 7.q.q.x.N.N.B.L.L.K.d.8.6.9.q.y.q.",
"y.y.y.y.y.y.y.y.t.g.h.f.h.M.b.b.e.  1 /./././.).E.V 3   z.b.K.D.  4 /./.).!.I.I.V $   7.y.y.u.b.N.B.L.L.L.u.8.8.9.y.q.q.",
"u.y.y.y.y.y.y.y.y.s.V.f.h.M.B.b.e.  1 (././.~.V V V 6   i.v.K.D.  4 /.R.U.U.I.I.V $   7.q.q.u.N.N.N.K.K.L.x.9.9.9.q.y.y.",
"v.v.b.x.d.d.d.y.t.y.s.y.y.Z.L.K.a.  1 /.).~.E.V B B 0 d 1.5.d.g.s s F Z I.I.I.I.V $   ;.2.1.q.h.V.V.N.B.N.i.y.y.q.2.3.3.",
"b.b.b.x.d.d.s.y.y.y.y.y.y.F.L.L.a.  1 /.R.U.U.U.3   +.3.1.1.u.d.h.*.  2 I.I.I.I.V $   ;.1.1.9.f.f.V.x.v.v.u.y.y.q.1.1.1.",
"b.b.b.n.d.d.s.y.y.y.y.y.y.F.L.L.a.  1 ~.!.I.I.I.2   +.3.1.3.u.d.d.*.  3 I.I.I.I.V $   ;.1.1.9.h.f.V.b.b.v.c.y.y.q.1.3.1.",
"b.b.b.B.F.F.A.d.d.d.y.y.y.d.M.d.7.  $ V U.I.I.I.2   $.d.s.u.n.n.M.&.  3 I.I.I.I.V $   ;.1.1.8.s.s.u.b.b.b.x.y.y.q.9.q.q.",
"b.b.b.H.L.L.F.h.h.f.y.y.y.t.y.y.<.  $ P P P P P *   *.h.h.h.N.N.N.=.  * P P P P P $   ;.1.1.8.y.y.y.v.b.v.u.y.y.y.y.y.y.",
"b.b.b.K.L.P.F.h.h.h.y.y.y.y.y.y.:.  O K K K K K *   *.f.j.V.N.N.N.=.  * K K K K K X   ;.1.1.8.y.y.y.v.b.b.u.y.y.y.y.y.y.",
"b.b.b.N.C.M.M.M.M.j.y.y.y.y.7.d , 0 0 K K K K K *   &.V.V.m.n.N.M.=.  & K K K K K 0 0 , d <.0.d.d.d.N.B.B.x.y.y.y.d.s.d.",
"b.b.v.4.1.1.r.b.b.b.y.y.y.y.:.+ X J J J J J J J &   =.N.N.N.d.d.d.%.  & J J J J J J J X + 2.b.h.V.V.L.L.L.V.y.y.s.h.h.h.",
"b.b.v.4.1.1.4.b.b.v.u.y.y.y.:.+   X X X X X X X     =.N.N.B.d.d.f.&.    X X X X X X X   + 2.M.h.h.h.L.L.L.n.y.y.s.h.h.h.",
"b.b.b.4.1.3.4.b.b.b.y.y.y.y.:.+                     =.N.b.N.d.d.d.&.                    + 6.m.h.h.h.L.L.L.V.y.y.d.h.h.h."
};
