/* XPM */
static char *_735_97b26d1bf03d17375f751511ced7e150a7d1b2bea2d9caed16bf70f50350b6e8[] = {
/* columns rows colors chars-per-pixel */
"60 60 205 2 ",
"   c #000100",
".  c #0A0905",
"X  c #09090A",
"o  c #050C0D",
"O  c #150D08",
"+  c #0D1309",
"@  c #0B1107",
"#  c #1A1006",
"$  c #11160C",
"%  c #1B110A",
"&  c #161E0F",
"*  c #090911",
"=  c #060E17",
"-  c #031216",
";  c #191F11",
":  c #231306",
">  c #23150B",
",  c #2B190F",
"<  c #25190D",
"1  c #2B1911",
"2  c #351E12",
"3  c #192112",
"4  c #1D281B",
"5  c #19250F",
"6  c #3E220C",
"7  c #362315",
"8  c #3B2517",
"9  c #25341C",
"0  c #26261C",
"q  c #041624",
"w  c #131329",
"e  c #1A282A",
"r  c #042539",
"t  c #153835",
"y  c #0D3534",
"u  c #282828",
"i  c #232627",
"p  c #383837",
"a  c #2E2E2C",
"s  c #4C290D",
"d  c #432616",
"f  c #4A2B19",
"g  c #472C1B",
"h  c #573213",
"j  c #633F1D",
"k  c #5D3824",
"l  c #703E23",
"z  c #364C26",
"x  c #3A4D29",
"c  c #274939",
"v  c #64401E",
"b  c #6E441E",
"n  c #794E24",
"m  c #75472D",
"M  c #764922",
"N  c #7E5127",
"B  c #45662D",
"V  c #496934",
"C  c #577638",
"Z  c #577839",
"A  c #4E7034",
"S  c #4A502A",
"D  c #201F47",
"F  c #113049",
"G  c #22214B",
"H  c #2E2E69",
"J  c #253E77",
"K  c #38387E",
"L  c #37377D",
"P  c #30306C",
"I  c #0A5654",
"U  c #0B514F",
"Y  c #074166",
"T  c #1F7F7E",
"R  c #1A7777",
"E  c #494949",
"W  c #444444",
"Q  c #44455A",
"!  c #884C28",
"~  c #84542A",
"^  c #89562B",
"/  c #925C32",
"(  c #94532D",
")  c #A45C34",
"_  c #96603C",
"`  c #A4663B",
"'  c #AC653C",
"]  c #A06336",
"[  c #B4693F",
"{  c #AC6C43",
"}  c #B36B42",
"|  c #B86D43",
" . c #BD7046",
".. c #BF744A",
"X. c #B77046",
"o. c #B46E5B",
"O. c #B57853",
"+. c #AA6651",
"@. c #8F5872",
"#. c #96657B",
"$. c #A86761",
"%. c #C3764B",
"&. c #C6784C",
"*. c #C6774B",
"=. c #C17551",
"-. c #59803F",
";. c #658B3E",
":. c #2C857F",
">. c #668C44",
",. c #668A45",
"<. c #619541",
"1. c #6A944A",
"2. c #6D9B4B",
"3. c #679348",
"4. c #719D4E",
"5. c #70964D",
"6. c #759958",
"7. c #73A14E",
"8. c #72AE4A",
"9. c #7BA94E",
"0. c #75B14C",
"q. c #78B24E",
"w. c #7FB84F",
"e. c #7BAB53",
"r. c #7AA755",
"t. c #77B351",
"y. c #7CB355",
"u. c #7EB952",
"i. c #7FB558",
"p. c #81AE53",
"a. c #82B656",
"s. c #81B954",
"d. c #81B759",
"f. c #83B95B",
"g. c #88BE5D",
"h. c #8ABF55",
"j. c #8BB466",
"k. c #86BA60",
"l. c #8BBC62",
"z. c #8EBD6A",
"x. c #91BE6B",
"c. c #90BF61",
"v. c #CC845C",
"b. c #CA896B",
"n. c #D39572",
"m. c #8AC256",
"M. c #8DC45C",
"N. c #87C05A",
"B. c #91C65C",
"V. c #92CA5C",
"C. c #8EC262",
"Z. c #8FC861",
"A. c #92C563",
"S. c #94CC61",
"D. c #99CE65",
"F. c #93C36B",
"G. c #96C96B",
"H. c #9ACC6D",
"J. c #99C56E",
"K. c #9CD06C",
"L. c #99C671",
"P. c #9CCD71",
"I. c #97C772",
"U. c #9FD173",
"Y. c #A0CE74",
"T. c #A3D476",
"R. c #A5D579",
"E. c #A8D77B",
"W. c #393780",
"Q. c #363A83",
"!. c #383880",
"~. c #373781",
"^. c #0A5B8F",
"/. c #0A5F95",
"(. c #1E589A",
"). c #274D92",
"_. c #235396",
"`. c #224A85",
"'. c #0A649B",
"]. c #0F678B",
"[. c #0B6EAD",
"{. c #0B6CA1",
"}. c #1365A6",
"|. c #106AA9",
" X c #0C72AD",
".X c #0C7AAF",
"XX c #0E73A7",
"oX c #1176A4",
"OX c #6C4A90",
"+X c #178889",
"@X c #139B99",
"#X c #318682",
"$X c #1BA09D",
"%X c #14AAA8",
"&X c #16B2AF",
"*X c #16BFBC",
"=X c #16B7B5",
"-X c #17C0BD",
";X c #BF9597",
":X c #E0AE95",
">X c #DEBCB0",
",X c #E8C6B3",
"<X c #BAABCC",
"1X c #FCF8F7",
"2X c #EFEAF1",
/* pixels */
"V.V.V.g.f.f.g.V.S.D.T.R.R.R.R.R.G.8.8.8.R.R.R.J.x.x.l.f.f.k.S.S.S.u.8.8.u.V.S.S.f.u.d.f.f.f.g.V.V.V.g.f.f.f.d.g.m.V.V.V.",
"V.V.V.g.f.f.N.S.S.V.T.R.R.R.R.R.G.0.8.8.R.R.R.J.x.x.C.f.f.f.V.S.S.u.8.8.u.D.S.S.f.f.d.f.f.f.g.V.V.V.f.f.f.d.f.f.N.V.V.V.",
"V.V.V.g.f.f.N.D.S.D.T.R.R.R.R.R.G.8.8.8.R.T.R.J.x.x.l.f.f.f.S.S.S.u.8.8.u.S.S.S.i.i.d.f.f.f.g.V.V.B.g.f.f.f.f.f.m.V.V.V.",
"V.V.V.N.k.l.N.S.S.S.R.R.R.K.D.D.Z.i.y.y.D.K.K.H.T.P.J.f.f.f.S.S.S.m.m.m.M.V.V.V.f.f.d.f.f.f.N.T.U.K.f.f.f.N.m.m.m.V.V.V.",
"V.V.V.C.l.l.g.V.V.V.R.R.R.D.V.V.M.i.f.f.S.D.D.T.R.R.H.f.f.k.S.S.S.V.V.V.V.V.V.V.f.f.f.f.f.i.C.R.E.T.k.f.f.M.V.V.V.V.V.V.",
"V.V.V.C.j.l.B.V.V.V.T.R.R.D.V.V.M.f.f.f.Z.S.V.T.R.R.P.d.f.f.V.S.S.V.V.V.V.V.V.V.f.f.f.f.f.f.F.R.T.T.g.f.f.M.V.V.V.V.V.V.",
"V.V.V.c.l.l.l.M.M.B.H.H.H.D.D.D.S.l.l.l.A.M.M.G.H.P.G.l.k.k.C.S.B.M.m.M.M.M.m.M.g.g.g.N.N.N.G.K.U.K.N.g.m.M.V.V.V.M.V.M.",
"V.V.V.l.l.l.l.f.f.f.f.f.f.P.R.R.P.x.z.x.f.f.f.f.f.f.f.l.l.l.l.k.l.g.g.d.d.g.f.f.V.V.V.V.S.S.V.V.V.V.V.V.V.V.V.V.m.f.i.f.",
"V.V.V.B.j.l.g.f.f.f.f.f.f.P.R.R.Y.x.x.x.k.f.f.f.f.f.f.l.l.l.l.l.l.f.f.f.f.f.f.f.V.V.V.S.S.S.V.V.V.V.V.V.V.V.V.V.M.f.f.f.",
"B.m.B.c.l.l.f.f.f.f.g.g.g.H.R.R.F.x x x z z z z z z z x x x x x x z z z z z z >.V.V.V.V.V.A.S.S.V.S.V.S.V.V.V.V.M.s.f.f.",
"0.0.0.a.f.f.f.f.f.k.P.T.T.R.R.R.j.                                            C f.f.f.f.f.g.C.R.R.R.R.R.T.D.V.V.M.f.f.f.",
"8.8.8.y.f.f.f.f.f.l.T.R.R.R.R.R.j.  O v v j v v j v j v j v v j v h 6 6 6 #   Z f.f.f.f.f.f.F.R.R.R.R.E.R.D.V.V.M.f.f.f.",
"0.8.8.i.f.d.f.f.f.g.T.T.R.R.R.R.j.  % M n n n n n n n n n n n n n b s s s :   C f.f.f.f.f.f.C.R.R.R.R.R.R.D.V.V.M.f.f.f.",
"m.m.h.g.z.z.f.y.e.y.F.F.F.G.D.D.p.  # n n n n n n n n n n n n n n b s s s :   Z i.f.f.F.P.P.G.C.c.c.F.L.L.A.l.c.M.M.C.m.",
"V.V.V.A.x.z.f.8.8.0.k.l.l.M.V.V.e.  # n N ^ ~ ~ ~ ~ ~ ~ ~ ^ ^ ~ n b s s s :   C f.f.f.H.R.R.P.u.f.f.x.x.x.z.l.g.M.V.V.V.",
"V.V.V.B.x.x.f.8.0.0.l.k.l.B.V.V.9.  # n / ....%.............%.X.n b s s s :   C f.f.f.H.R.T.H.f.d.f.z.x.x.z.l.j.C.V.V.V.",
"V.V.V.A.c.A.B.s.w.s.g.C.C.M.M.M.9.  % ~ ` &.&.&.&.&.&.&.&.&.&.&.~ M h h s :   A f.f.f.A.H.H.F.i.f.i.C.C.l.C.C.C.M.M.M.M.",
"V.V.V.V.V.V.V.V.V.V.V.V.V.g.f.f.4.  1 %.&.&.&.&.&.&.&.&.&.&.=.&.*. .) ! s :   B a.d.d.f.i.f.f.f.k.k.i.i.f.Z.S.S.C.f.f.f.",
"V.V.V.V.V.V.V.V.V.V.V.V.V.g.f.f.2.  1 %.b.n.o.o.=.&.&.&.o.o.n.n.*. .) ! s :   B d.d.d.f.f.f.f.f.i.f.f.f.f.C.S.S.V.f.f.f.",
"V.V.V.B.V.V.V.V.V.V.V.V.V.g.d.f.7.  1 %.:X1X<XOX$.&.&.&.OXOX2X1X*. .) ! s :   B f.d.d.f.f.f.f.g.f.f.f.f.i.V.S.S.M.f.f.f.",
"T.R.R.D.V.V.D.R.R.T.l.l.l.f.f.f.7.  1 %.n.,X;X@.+.| | | #.#.>X,X%.%.) ! s >   C l.l.l.P.T.T.U.S.S.S.Z.V.V.S.S.S.S.S.V.S.",
"R.R.R.D.V.V.D.R.R.T.l.l.C.k.f.f.4.  1 %.&.&.&.&.' ) ) ) &.&.&.&.*.| ) ! s :   Z l.l.l.P.R.R.U.S.S.S.V.V.V.V.S.S.V.S.S.S.",
"E.T.R.D.V.V.D.R.R.T.l.l.k.f.f.f.7.  1 %.&.&.O.` ' } | } ) { =.&.%.%.) ( l 2   Z l.l.l.P.E.T.U.S.S.S.V.V.V.S.S.D.S.S.S.S.",
"D.D.D.m.d.d.m.D.D.D.B.B.M.M.V.M.r.  1 %.&.&.` n } *.&.=.N ! *.*.*.%.) ) ) f   Z d.f.f.l.I.F.G.V.V.V.S.S.S.C.N.N.k.N.C.N.",
"V.V.V.s.y.t.s.V.V.V.V.V.V.V.V.V.r.  1 %.&.&.` n ^ / / / n N ..&.&. .) ) ) f   Z d.d.d.l.l.l.C.V.V.V.S.S.S.N.f.f.f.f.f.d.",
"V.V.V.u.t.y.s.V.V.V.V.V.V.V.V.V.e.  1 %.&.&.` n n n n n n ~ ..&.&. .) ) ) f   Z a.i.d.g.l.g.C.V.V.V.S.S.S.N.f.f.f.f.f.f.",
"V.V.V.N.N.s.m.V.V.V.M.M.m.V.V.V.e.  X 7 8 7 1 > > > > > > < 7 7 7 2 , 2 , O   3 9 2.d.k.l.l.l.C.V.M.Z.Z.Z.C.F.C.l.f.f.f.",
"V.V.V.Z.S.S.V.V.V.V.f.f.f.V.Z.S.y.                                                3.d.l.x.x.l.f.f.f.i.f.f.P.R.R.P.f.f.f.",
"V.V.V.S.S.S.V.V.V.V.i.f.f.M.S.S.M.e.e.y.V   U &X&X&X&X&X&X&X&X&X&X%XT :.:.:.].y   3.d.l.x.x.l.f.f.f.f.f.f.H.E.T.P.f.f.f.",
"m.V.V.V.S.S.S.V.S.V.f.f.f.C.S.S.B.f.f.r.B   I *X*X*X*X*X-X-X-X-X&X$X:.:.#X#X:.t . 3.f.l.z.z.z.f.f.f.f.f.f.J.U.U.P.f.f.f.",
"g.g.g.M.V.V.D.R.E.U.k.f.f.C.S.V.S.S.7.$ X   I *X*X*X*X*X-X*X-X&X- 9 O.O.O.` / g   6.z.i.0.0.y.f.f.i.f.f.f.C.F.z.l.V.V.B.",
"f.f.g.m.V.V.D.R.E.U.k.i.f.V.S.S.S.S.9.      I *X*X*X*X*X*X*X-X&X  6 %.%.v.{ ) d   6.x.y.8.8.t.f.f.f.f.i.f.k.l.k.M.V.V.B.",
"f.f.f.M.V.V.D.R.R.T.k.f.f.C.S.S.S.V.7.      I *X*X*X*X*X-X-X-X&X  7 &.*.&.[ ) d   6.F.i.0.8.t.f.f.f.d.d.f.f.l.l.l.V.V.V.",
"l.l.l.C.g.g.A.R.R.T.Z.M.M.M.N.N.f.>.Z 8 >   I *X*X*X-X*X-X-X+X:.0 k *.&.&.[ ) s   2.k.N.m.m.g.f.f.f.g.l.l.C.B.B.B.l.g.C.",
"x.z.z.k.f.f.C.R.T.T.S.V.V.N.f.f.7.  < %.m   I *X-X*X*X*X-X%X- . v.*.&.&.*.[ ] d   3.f.M.S.S.C.f.f.f.l.l.l.B.V.V.B.l.l.l.",
"x.z.F.k.f.f.F.R.R.E.V.V.V.f.y.,.C 8 k ..m   I *X-X*X*X*X:.R a g [ *.*.*.*.[ ) 8 . 3.f.Z.S.S.M.f.f.f.l.l.l.M.V.V.B.l.l.l.",
"I.I.I.C.k.N.C.P.P.H.M.m.M.g.2.+ % *.&.&.m   I *X-X*X*X=Xo O } *.*.*.*.*.&.[ ) s   3.f.M.V.S.V.N.N.C.F.F.A.B.V.V.B.l.l.f.",
"R.E.T.K.S.S.C.f.f.f.f.i.i.f.4.+ % *.&.&.m   I *X*X-X*X*Xo O { *.*.*.*. .[ ' ] 6   3.f.V.V.V.V.S.V.D.T.R.R.D.V.V.m.a.f.f.",
"R.R.R.K.S.S.Z.f.f.f.i.f.i.f.4.+ % *.*.*.m   I *X*X*X*X*Xo O { *.&.&.&. .) ) ) s   2.f.m.V.V.V.S.S.D.R.R.R.D.V.V.M.f.f.f.",
"E.R.R.H.S.S.B.f.f.f.f.i.f.f.4.+ % *.*.*.m   I *X*X-X*X*Xo $ } *.&. .[ ' ) b s S A e.f.Z.V.V.V.D.S.S.R.R.R.D.V.V.M.f.f.f.",
"f.f.f.C.V.S.G.x.z.z.f.f.f.M.p.$ > %.%.%.m   I *X*X*X*X*Xo $ { %.%.| ) ) ) f   A f.f.f.H.R.R.H.l.l.l.G.S.S.V.V.V.M.l.l.l.",
"f.f.f.B.S.V.D.x.F.z.f.f.f.M.m.9.>., , , O   I *X*X*X*X*X@X+X0 , , > > > > .   A f.f.f.H.R.R.P.l.k.C.V.V.S.V.V.V.B.l.l.l.",
"f.f.f.S.S.S.G.x.x.x.f.f.f.M.V.V.e.          I *X*X*X*X*X*X%X-                 A f.f.k.H.R.R.U.l.l.l.S.S.S.V.V.V.M.l.l.l.",
"f.f.f.s.s.y.N.P.P.P.B.M.M.m.g.h.l.j.1.  r '.{..X.X.X.X.X.X.X'././././.].R R R t & r.I.F.A.F.A.B.C.S.S.S.S.B.C.C.g.i.y.y.",
"f.f.f.y.8.8.f.R.R.T.V.V.V.g.f.f.F.x.6.* F [.[.[.[. X[.|.}.'.'.{.[.[.[.oX+X#X+XF * 6.x.l.f.f.g.V.V.V.S.S.D.l.l.l.f.8.8.8.",
"d.f.f.q.8.8.f.T.R.R.V.V.V.h.f.f.r.; t /.{.[. X[.[.[.).Q.q = - q [.[.[. XXXXX X).P i ; y.f.f.h.V.V.V.S.S.S.C.l.l.d.8.8.8.",
"s.f.f.y.t.y.f.P.P.H.S.A.S.N.N.g.r.  q [.[.[.[.}.|.}.J P 3 3 ; 4 ^.'.[.[.[.[.[.).K =   r.f.f.g.V.V.V.D.K.K.M.f.f.a.0.8.e.",
"f.f.f.f.f.f.f.f.f.f.z.x.x.A.V.V.d.  q [.[.[._.~.Q.Q.w   a.B.Y.L.  r [.[.[.[.[.).W.=   r.i.i.N.S.S.D.R.R.T.l.y.t.i.i.f.i.",
"f.f.f.f.f.f.f.f.f.k.z.z.F.A.M.9.2.= r [.[.}._.W.P H e 5 m.V.R.L.4 t /.'.[.|.}.).!.w = ,.2.i.g.V.S.D.T.R.R.k.y.t.y.d.d.d.",
"f.f.f.f.f.f.f.f.f.f.z.z.x.A.p.+ - [.[.[.(.W.W.W.w   5.V.M.V.T.T.T.5.  r [.).K K !.!.W.* X 2.g.G.S.S.T.T.R.l.y.y.i.d.d.d.",
"V.V.B.M.l.l.k.f.f.f.f.f.f.P.j.$ = [.[.(.).W.H G p z 2.0.q.q.g.l.z.5.x c Y J K K !.!.!.X + <.u.F.F.F.Z.S.S.g.f.f.i.8.t.8.",
"V.V.V.A.l.l.k.d.f.f.f.f.f.P.j.$ - [.}.~.K !.D   -.f.i.0.8.0.g.l.l.f.a.Z   D !.K !.!.!.* + ;.u.x.z.F.V.V.V.m.f.f.i.8.8.8.",
"V.V.V.C.l.l.f.f.f.f.f.f.f.P.j.$ = _._.!.W.~.D   -.f.i.0.8.8.g.k.l.k.i.Z   D !.K K K W.* + ;.i.x.x.z.V.V.V.N.f.f.i.8.0.8.",
"V.V.V.D.P.P.J.l.l.l.f.f.f.C.r.+ * W.W.W.W.W.D   -.f.f.k.l.g.A.A.A.S.Z.,.  D !.W.K `.W.* + ;.y.k.l.g.V.V.V.g.f.f.i.y.i.i.",
"V.V.V.U.R.R.T.z.x.x.f.f.f.f.4.+ o Q Q Q Q Q i   -.f.l.z.x.x.S.S.S.S.S.,.  u Q Q Q Q Q o + ;.t.f.f.f.V.V.V.N.f.d.f.f.f.f.",
"V.V.V.T.R.E.P.x.x.x.f.f.f.f.4.X X E E E E E u   Z f.l.x.x.x.S.S.S.S.D.,.  u E E E E E @ + <.t.f.f.f.M.V.V.g.f.f.f.f.f.f.",
"V.V.V.S.F.G.A.A.A.A.f.a.a.z 9 p p E E E E E u   ,.g.l.F.F.F.V.S.Z.V.S.>.  u E E E E E p p 9 z f.g.l.S.D.S.g.f.f.f.l.l.g.",
"B.V.V.w.8.8.s.V.B.V.g.f.i.& X p W W W W W W i   ;.S.D.V.S.S.l.l.l.C.V.;.  u W W W W W W p X & j.x.F.R.E.R.A.f.f.l.x.x.x.",
"V.V.V.w.8.8.w.V.V.V.f.f.i.&   X X X X X X X     3.S.S.V.S.S.l.l.l.M.V.;.    X X X X   X X   ; j.x.x.R.R.R.F.f.f.k.x.x.x.",
"V.V.V.w.8.8.w.V.V.V.f.f.i.&                     >.S.S.S.V.S.l.l.l.V.V.;.                    3 z.x.x.R.R.R.F.f.f.l.x.x.x."
};
