/* XPM */
static char *_0609_0ae631ddaaae1a59ee211d80e42231a719239d6cf317680b32ea82f71e4e4c38[] = {
/* columns rows colors chars-per-pixel */
"60 60 199 2 ",
"   c #010100",
".  c #020E0E",
"X  c #0A0A0A",
"o  c #0C0906",
"O  c #140D07",
"+  c #0D1309",
"@  c #191007",
"#  c #1B100A",
"$  c #161E0F",
"%  c #0B0D18",
"&  c #05141A",
"*  c #161616",
"=  c #14151A",
"-  c #231306",
";  c #2A1709",
":  c #28180F",
">  c #2A1911",
",  c #182011",
"<  c #1D2915",
"1  c #372418",
"2  c #253419",
"3  c #2F2B12",
"4  c #071725",
"5  c #121328",
"6  c #121327",
"7  c #041F30",
"8  c #161835",
"9  c #100F24",
"0  c #0E3837",
"q  c #083C3A",
"w  c #042439",
"e  c #353732",
"r  c #4C290D",
"t  c #432616",
"y  c #4A2B1A",
"u  c #442B15",
"i  c #52311E",
"p  c #5A331B",
"a  c #543723",
"s  c #683E26",
"d  c #1A4237",
"f  c #354B25",
"g  c #284B39",
"h  c #30491F",
"j  c #6E441E",
"k  c #46532B",
"l  c #6D422A",
"z  c #794E24",
"x  c #74462D",
"c  c #764A25",
"v  c #7C5127",
"b  c #45662D",
"n  c #4C6C35",
"m  c #567638",
"M  c #59783A",
"N  c #506731",
"B  c #1D1D41",
"V  c #052E46",
"C  c #063550",
"Z  c #252554",
"A  c #37377D",
"S  c #36367A",
"D  c #163E6F",
"F  c #0A5654",
"G  c #185E5C",
"H  c #175E5D",
"J  c #074166",
"K  c #196D6B",
"L  c #0E7675",
"P  c #494949",
"I  c #444444",
"U  c #44455A",
"Y  c #5A7741",
"T  c #607D47",
"R  c #894D29",
"E  c #844825",
"W  c #815228",
"Q  c #995F36",
"!  c #95542E",
"~  c #A45C34",
"^  c #9B6137",
"/  c #A5673C",
"(  c #AD643B",
")  c #B3693F",
"_  c #B36D43",
"`  c #BC6F45",
"'  c #BB7146",
"]  c #BF7449",
"[  c #B9774B",
"{  c #B97158",
"}  c #AA6A4A",
"|  c #AC6960",
" . c #C4764B",
".. c #C8774A",
"X. c #C6784C",
"o. c #C9784D",
"O. c #C37547",
"+. c #C77751",
"@. c #59813D",
"#. c #658B3E",
"$. c #11807E",
"%. c #5B8241",
"&. c #668D44",
"*. c #688D46",
"=. c #668947",
"-. c #6B9346",
";. c #699349",
":. c #689947",
">. c #709D4D",
",. c #739554",
"<. c #6F9057",
"1. c #72A04E",
"2. c #72AE4A",
"3. c #7BAA4F",
"4. c #75B04C",
"5. c #7FB84F",
"6. c #79B34F",
"7. c #7BAC51",
"8. c #78A556",
"9. c #77B352",
"0. c #7CB354",
"q. c #7EB952",
"w. c #7FB558",
"e. c #82AD58",
"r. c #82B356",
"t. c #82BA54",
"y. c #81B759",
"u. c #83B95B",
"i. c #89BE5D",
"p. c #89BE56",
"a. c #83AA61",
"s. c #8CB465",
"d. c #86BA61",
"f. c #8BBC62",
"g. c #8EBD6A",
"h. c #86B661",
"j. c #91BE6B",
"k. c #90BF61",
"l. c #C8805C",
"z. c #CE8B67",
"x. c #89C256",
"c. c #8DC45C",
"v. c #87C056",
"b. c #91C65D",
"n. c #92CA5C",
"m. c #8EC362",
"M. c #8FC466",
"N. c #91C464",
"B. c #94CC61",
"V. c #99CE65",
"C. c #93C36A",
"Z. c #96C96B",
"A. c #9ACC6D",
"S. c #98C66E",
"D. c #9CD06C",
"F. c #99C671",
"G. c #9BCC71",
"H. c #97C772",
"J. c #9FD173",
"K. c #A0CE74",
"L. c #A3D476",
"P. c #A5D579",
"I. c #A8D77B",
"U. c #383880",
"Y. c #363A82",
"T. c #095A8B",
"R. c #0F5F80",
"E. c #1D599C",
"W. c #2A4A8F",
"Q. c #2C4487",
"!. c #344284",
"~. c #274D91",
"^. c #245395",
"/. c #0A669A",
"(. c #0B6FAD",
"). c #0A69A3",
"_. c #1267A7",
"`. c #0D74AC",
"'. c #0E77AB",
"]. c #734A84",
"[. c #77528D",
"{. c #0F8685",
"}. c #108483",
"|. c #228786",
" X c #218887",
".X c #238989",
"XX c #0D80AF",
"oX c #16A9A7",
"OX c #18B1AE",
"+X c #16BFBC",
"@X c #18BEBC",
"#X c #15B4B1",
"$X c #17C0BD",
"%X c #BBA3BB",
"&X c #DCA98E",
"*X c #B9A5C0",
"=X c #E9DEDC",
"-X c #F4E6DD",
";X c #F5EBE6",
/* pixels */
"n.n.n.i.y.y.c.B.B.V.J.P.I.L.P.P.Z.2.2.2.P.P.P.S.j.j.M.u.u.u.B.B.B.t.4.2.q.B.B.B.t.q.y.u.u.u.i.n.n.b.y.u.u.i.y.u.v.B.n.n.",
"n.n.n.i.y.y.i.B.V.n.L.L.I.I.P.P.Z.2.2.2.P.I.L.S.j.j.f.u.u.u.B.B.B.q.2.2.q.B.B.B.u.u.y.u.u.u.i.n.n.n.i.u.u.y.u.u.v.n.n.n.",
"n.n.n.i.y.y.v.B.B.V.L.P.L.P.P.L.M.2.2.2.P.P.P.S.j.j.k.u.u.u.n.B.B.5.2.2.q.B.B.B.w.u.y.u.u.u.i.n.n.n.u.y.u.u.u.y.v.n.n.n.",
"n.n.n.c.d.d.m.B.n.V.L.P.I.D.V.V.M.w.w.w.V.D.V.G.K.K.S.y.y.y.B.B.B.x.v.v.x.n.B.n.u.w.u.u.y.y.c.L.J.D.i.y.u.v.c.b.c.n.n.n.",
"n.n.n.b.f.s.c.n.n.n.P.P.P.V.n.n.c.w.i.u.B.B.V.L.P.P.A.y.u.u.B.B.V.n.n.n.n.n.n.n.u.u.u.u.u.u.M.P.I.P.d.u.u.c.n.n.n.n.n.n.",
"n.n.n.f.f.f.c.n.n.n.P.P.I.V.n.n.v.@.@.M &.&.*.;.,.,.;.@.@.%.&.&.&.#.#.#.#.#.#.0.u.u.w.d.u.u.M.P.P.J.v.w.u.c.n.n.n.n.n.n.",
"n.n.n.m.f.f.f.c.c.b.A.F.A.V.V.V.w.                                            m v.v.i.v.v.m.M.D.J.D.v.m.v.c.n.n.n.x.n.c.",
"n.n.n.f.f.f.f.u.u.u.u.u.u.G.P.P.s.  o u u u u u u u u u u u u u r 1 ; ; ; O   n n.n.n.B.B.B.B.n.n.b.n.n.n.n.n.n.b.y.w.u.",
"n.n.n.c.f.f.u.y.u.y.u.u.u.G.P.P.s.  O z z z z z z z z z z z z z z j r r r -   n n.n.n.n.B.B.n.n.n.n.n.n.n.n.n.n.c.u.u.u.",
"b.b.b.i.f.f.d.u.u.u.i.f.i.A.P.P.s.  @ z z z z z z z z z z z z z z j r r r -   n n.n.n.n.n.B.B.n.V.n.V.n.n.n.n.n.c.t.u.u.",
"2.2.4.t.u.h.u.u.u.u.G.L.L.L.P.P.s.  @ z z z z z z z z z z z z z z j r r r -   m u.u.u.u.u.f.M.L.L.P.P.P.L.V.n.n.c.u.u.u.",
"2.2.2.r.u.u.u.u.u.f.L.P.P.P.P.P.s.  O z Q ' ' [ ' ' ' ' ' ' ' _ z j r r r -   m u.u.u.u.u.u.M.P.P.P.P.P.P.V.n.n.c.u.u.u.",
"4.2.2.r.u.y.u.u.u.f.L.P.P.P.P.P.s.  @ z ^ +.+.o.+.o.+.X.X.X.X.X.z j r r r -   M u.u.u.u.y.u.M.P.I.L.P.P.I.V.n.n.c.u.y.u.",
"x.x.x.i.g.f.u.9.9.0.N.S.C.Z.V.V.r.  : _ [ +.+.o.X.o.o.X.X.X.+.X.' _ ! E r -   m u.u.u.C.G.A.Z.M.f.N.H.F.F.N.f.M.c.c.c.c.",
"n.n.n.N.j.g.i.2.2.9.f.f.f.b.n.n.7.  > X.+.z.z.{ [ o.+.X.{ { z.z.X.` ~ R r -   m y.u.u.A.I.P.G.y.u.u.f.j.j.f.f.f.c.n.n.n.",
"n.n.n.N.j.j.i.2.2.4.u.h.f.b.n.n.7.  : X.&X;X*X].| X.X.X.[.[.=X;X+.` ~ R r -   M u.u.u.A.P.P.A.y.y.u.j.j.j.s.f.f.m.n.n.n.",
"n.n.n.N.k.N.i.t.5.q.c.m.f.c.m.c.3.  >  .&X;X%X].|  . . .U [.;X;X+.` ~ R r -   n u.u.u.C.A.G.M.y.u.u.d.M.m.M.m.m.c.c.b.c.",
"n.n.n.n.n.n.n.n.n.n.n.n.n.c.y.u.>.  >  .X.X.o.+.( ~ ~ ~ +.+.+.o.o.` ~ R r -   b t.y.y.y.u.u.u.y.w.w.d.u.w.c.B.B.B.u.u.y.",
"b.n.n.n.n.n.n.n.n.n.n.n.n.i.u.u.>.  >  .X.o.] ' ( / ( ( _ ` o.o.o.] ~ R p ;   b y.y.y.u.y.u.y.w.d.u.u.u.w.B.B.B.c.u.u.u.",
"n.n.n.n.n.n.n.n.b.n.n.n.n.i.y.u.1.  :  .X.X./ z _  . . .W R +.o.o.' ~ ~ ~ y   b y.y.y.u.y.i.u.i.u.u.w.v.w.M.B.B.c.y.u.u.",
"L.P.P.V.n.n.V.I.P.L.f.f.d.u.u.u.1.  >  . .+./ z ^ / / / v W  .X.o.` ~ ~ ~ y   M f.f.f.G.L.P.J.V.B.B.B.n.n.B.B.B.V.B.n.V.",
"P.P.P.V.n.n.V.P.P.L.f.f.M.d.u.u.>.  >  .X.+./ v z z z z c W ] X.o.' ~ ~ ~ y   M f.f.f.G.P.P.J.B.B.B.n.n.n.B.B.B.n.B.B.B.",
"L.L.P.V.n.n.V.P.P.L.f.f.m.w.v.w.1.  O l l l a u u u u u u y s x l s p p p :   M f.f.f.G.P.L.J.B.B.B.n.n.b.n.B.B.B.B.B.B.",
"D.V.V.c.t.t.c.V.V.V.b.b.b.c.c.c.7.                                            M y.y.u.M.C.S.Z.n.B.n.n.B.B.m.v.m.u.i.m.v.",
"n.n.n.t.9.9.t.n.n.n.n.n.n.n.n.n.i.%.@.Y k   q }.}.}.}.}.}.}.}.$.G G G G G G G g 2 >.w.i.f.f.m.n.n.n.B.B.n.v.v.w.u.u.u.u.",
"n.n.n.q.9.0.t.n.n.n.n.n.n.n.n.n.c.u.u.u.T   F +X$X$X$X+X+X+X+X+X.X.X.X.X|..X|.0   ;.y.i.f.f.m.n.n.n.B.B.B.c.m.w.u.u.u.u.",
"n.n.n.v.v.u.v.n.n.n.b.c.x.n.B.n.c.y.u.u.Y   F +X$X@X$X+X+X+X+X+XOXoX.X{..X|.|.0 o :.y.f.f.f.f.c.c.c.c.M.m.M.M.M.f.u.u.u.",
"n.n.n.n.B.B.n.n.n.n.u.u.w.b.B.B.m.i.u.u.n   F +X+X$X+X+X+X+X+X+X@XOX.X.X.X.X.X0   ;.y.s.j.j.g.u.u.u.u.u.u.H.P.P.G.u.u.u.",
"n.n.n.n.B.B.B.n.n.n.u.u.u.N.B.B.b.w.:.+ o   F +X+X+X+X+X+X$X+X#X. 1 [ [ ] } ^ 1   ;.y.f.C.g.f.u.u.u.w.u.u.G.P.P.G.u.u.u.",
"n.n.n.n.B.B.B.n.V.m.u.t.y.c.B.B.M.v.;.      F +X+X+X+X+X+X+X+XOX  1 o.o..._ ~ t   ;.u.f.g.g.f.u.u.u.u.u.w.A.L.J.G.u.u.u.",
"y.u.u.n.n.n.V.P.P.J.i.y.u.N.B.B.B.B.1.o     F +X+X+X+X+X+X+X+XOX  1 ....X.) ~ t   ,.g.w.4.4.0.u.u.u.u.u.u.d.C.M.k.b.b.n.",
"u.u.i.x.n.n.V.P.P.J.i.y.i.c.B.n.B.p.>.X     F +X+X+X+X+X+X+X#XoXo u ..X...) ~ u X ,.g.w.2.4.9.w.u.u.u.u.u.i.s.d.i.n.n.n.",
"u.y.u.c.n.n.V.P.P.L.d.u.u.m.B.B.r.  > O.x   F $X+X+X$X+X$XOX& O  . .X...O.) ~ t   ,.j.r.2.2.2.u.u.u.u.u.u.f.f.s.c.n.n.n.",
"f.g.f.m.i.i.C.I.L.L.B.c.c.c.y.;.M 3 p  .x   F $X+X+X@X+X{.$.2 t  . .......) ~ t   >.i.i.c.c.i.u.u.u.f.u.f.c.b.b.m.f.f.c.",
"j.j.g.d.u.u.M.P.L.L.B.n.b.c.>.+ @ ......x   F $X+X+X+X+X. O _ X.X.X...O.O.) ~ t   ;.i.b.n.n.b.y.u.u.f.f.f.c.n.n.b.f.f.f.",
"j.g.C.d.u.y.M.P.P.L.n.n.n.v.>.+ @ l.O.X.x   F $X+X+X+X@X. + _ X...X...O.O.( ~ t   ;.u.N.B.V.N.u.y.u.d.f.f.c.n.n.b.f.f.f.",
"H.H.H.M.v.m.M.D.G.A.c.c.x.i.>.+ # X.X...x   F $X+X+X+X+X. O _ ] X.X...` ~ ~ ~ t   ;.w.c.n.B.b.v.i.c.C.C.N.b.n.n.b.u.i.u.",
"I.I.J.D.B.B.m.y.u.u.y.w.y.u.>.+ # ..X.X.x   F $X+X+X+X+X. O _ X...] ) ( ~ c y k n 9.u.n.n.n.B.B.B.V.L.P.P.V.n.n.c.u.u.u.",
"P.P.P.D.B.n.m.i.u.u.u.y.w.u.>.+ # X.X.X.x   F $X+X+X+X+XX o ) ] ..) / ~ ~ y   n u.u.u.c.n.n.n.B.n.V.L.P.P.V.n.n.c.y.u.u.",
"P.P.P.A.B.B.m.y.u.u.w.u.w.u.7.m N i i i >   F $X+X+X+X+XL K a i i y u u t @   n u.u.w.c.B.n.n.V.B.V.P.P.P.V.n.n.c.u.u.u.",
"u.u.u.c.B.B.N.j.C.g.i.y.y.c.n.n.7.          F $X+X+X+X+X$XoX&                 n w.u.i.A.P.P.D.f.f.f.B.B.B.n.n.n.b.f.f.f.",
"u.u.u.N.B.B.V.j.g.g.y.i.u.c.n.n.x.;.m   w T.).'.XXXXXXXXXX'.T.T.T.T.T.K K K K d < >.y.G.P.P.G.f.d.m.n.B.V.n.n.n.b.f.f.f.",
"u.u.u.m.B.V.N.j.g.C.u.u.y.m.n.n.b.y.;.  V (.`.(.(.(.(.(.(.(.(.(.(.(.(.'..X.X|.0   ;.u.G.P.P.A.f.f.f.B.B.B.n.n.n.b.f.f.f.",
"i.y.u.t.q.5.c.J.L.F.c.c.c.c.v.v.N.A.8.  V `.(.(.(.(.~.Y.4 & & 4 (.(.(.(.'.^.!.8   8.F.C.N.C.N.b.m.B.B.B.B.c.m.m.i.9.0.9.",
"y.u.y.9.2.2.i.P.P.L.n.n.n.v.u.u.M.L.a.  V (.(.(.(.(.Q.S * + + + ).).(.(.(.^.U.8   a.P.M.y.u.c.n.n.n.B.B.B.f.f.f.u.2.2.2.",
"y.u.i.9.2.2.y.P.L.L.B.n.n.v.u.u.M.L.a.  V (.(.(.^.Y.8 X ;.>.>.;.4 V (.(.(.^.U.8   a.P.M.u.u.i.n.n.n.V.n.B.N.f.f.u.2.2.2.",
"u.u.u.q.9.9.i.F.G.G.N.B.N.c.i.v.M.s.<.4 C `.(.(.W.U.9   r.i.N.h.  7 (.(.(.^.U.B % ,.s.f.u.u.p.n.n.n.D.A.A.b.u.h.y.4.2.7.",
"u.u.u.y.u.u.y.u.u.u.g.g.C.N.n.B.t.  4 (.(.(.(.(.W.U.9   i.n.L.F.  7 (.(.(.~.A A S = X 8.w.w.v.B.n.V.P.P.P.i.9.9.w.y.y.y.",
"u.u.u.u.u.u.u.u.w.d.g.g.C.N.n.n.r.  4 (.(.(.(._.Q.U.5   p.n.P.S.  7 (.(._.~.U.U.A %   8.y.y.i.n.B.V.L.P.P.d.0.9.w.r.y.y.",
"u.u.u.u.u.u.u.u.u.d.g.g.j.N.n.B.r.  4 (.(.(.^.S Y.A 9   t.n.L.F.  7 (.E.U.U.U.U.A %   8.y.y.i.B.N.B.L.L.P.i.9.0.w.y.w.y.",
"n.n.b.c.f.f.d.u.u.u.d.u.u.G.P.L.s.  4 _._.E.~.A Z Z f h 3.6.f.h.f g J D U.Y.U.U.A %   :.2.2.r.C.C.C.B.B.n.i.u.u.0.9.9.4.",
"n.n.n.m.f.f.u.u.u.u.u.y.u.G.P.P.s.  4 (.E.U.U.Y.5   Y 2.2.2.i.f.g.=.  5 U.U.U.A A %   :.2.2.0.j.C.g.B.n.n.i.u.i.w.2.2.2.",
"n.n.n.N.s.f.f.y.y.y.u.i.u.A.P.I.s.  & ^.W.U.U.U.5   @.4.2.4.d.f.f.=.  5 U.U.U.U.A %   :.2.2.w.j.g.C.n.n.n.i.y.u.w.2.4.2.",
"n.n.n.V.G.G.Z.M.f.f.u.u.u.f.C.N.8.  % A U.U.U.U.5   %.f.d.i.m.B.B.*.  5 U.U.U.U.A %   :.2.2.9.h.d.f.n.n.n.i.i.y.w.w.w.0.",
"n.n.n.J.P.P.G.j.j.C.u.u.u.y.u.u.1.  % U U U U U =   =.C.j.N.N.B.B.*.  = U U U U U %   :.2.2.9.u.y.i.b.n.n.v.y.u.u.u.u.u.",
"n.n.n.J.I.P.K.j.j.j.u.u.u.u.y.y.>.  + P P P P P =   =.g.j.j.n.B.B.-.  * P P P P P X   :.2.2.9.u.u.y.c.n.n.i.i.y.u.u.u.u.",
"n.n.n.b.C.V.N.N.N.N.t.u.r.f 2 2 2 e e P P P P P =   =.C.M.C.m.B.N.-.  * P P P P P k e 2 2 < f u.f.s.V.B.V.c.u.u.u.f.d.f.",
"n.n.n.5.2.2.t.n.b.n.u.u.w.$     X P I I I I I I *   -.V.B.B.f.f.f.&.  * I I I I I Z I o     $ g.C.C.L.I.P.C.u.u.d.j.j.j.",
"n.n.n.q.2.2.5.n.n.b.i.u.w.$       X X X X X X X     -.n.V.B.f.f.s.*.    X X X X X X o       $ g.j.C.L.P.P.f.u.u.d.j.C.j.",
"n.n.n.5.2.2.5.n.n.n.u.u.r.$                         :.V.n.B.f.f.M.*.                        $ s.j.C.I.P.P.C.u.u.d.j.j.j."
};
