/* XPM */
static char *_365_deb2d9a0217ad3c1d78ed38cc379801fe6ec09b49480b835c6e7c7a5a1dceb33[] = {
/* columns rows colors chars-per-pixel */
"60 60 211 2 ",
"   c #010100",
".  c #0A0A0A",
"X  c #070A08",
"o  c #140D06",
"O  c #150E09",
"+  c #190C04",
"@  c #0D1309",
"#  c #191007",
"$  c #1B100A",
"%  c #141A0D",
"&  c #0B0D17",
"*  c #081519",
"=  c #161616",
"-  c #14151A",
";  c #231306",
":  c #23150B",
">  c #26180B",
",  c #2A170C",
"<  c #2A1911",
"1  c #331F14",
"2  c #192112",
"3  c #1E2A15",
"4  c #282A15",
"5  c #362417",
"6  c #253419",
"7  c #081625",
"8  c #121328",
"9  c #121327",
"0  c #041F30",
"q  c #161835",
"w  c #110F24",
"e  c #062525",
"r  c #0E3837",
"t  c #0B3B3B",
"y  c #103E3C",
"u  c #353935",
"i  c #4C290D",
"p  c #432616",
"a  c #482E15",
"s  c #4A2B19",
"d  c #442918",
"f  c #49361C",
"g  c #59331A",
"h  c #60361E",
"j  c #593622",
"k  c #4F3D29",
"l  c #663D24",
"z  c #723F24",
"x  c #30491F",
"c  c #1D4338",
"v  c #354B25",
"b  c #3B542A",
"n  c #304B34",
"m  c #6D441E",
"M  c #774D23",
"N  c #794E24",
"B  c #74462D",
"V  c #7B4829",
"C  c #7D5127",
"Z  c #754730",
"A  c #4C6C35",
"S  c #486531",
"D  c #557536",
"F  c #577738",
"G  c #59773C",
"H  c #45672C",
"J  c #1D1D41",
"K  c #042E46",
"L  c #09364B",
"P  c #252554",
"I  c #37377D",
"U  c #353579",
"Y  c #163E6F",
"T  c #0A5654",
"R  c #095855",
"E  c #145151",
"W  c #074166",
"Q  c #0D6B69",
"!  c #0D716F",
"~  c #17716F",
"^  c #434343",
"/  c #494949",
"(  c #484846",
")  c #44455A",
"_  c #617E47",
"`  c #894C29",
"'  c #84542A",
"]  c #94532B",
"[  c #A45C34",
"{  c #A85E37",
"}  c #A95F38",
"|  c #996035",
" . c #A5673C",
".. c #AE673D",
"X. c #B4693F",
"o. c #977D5A",
"O. c #866E4F",
"+. c #AF6941",
"@. c #B26C43",
"#. c #BB6F47",
"$. c #BD7045",
"%. c #BD7349",
"&. c #B77046",
"*. c #BE7354",
"=. c #AB695D",
"-. c #C3764B",
";. c #C6784B",
":. c #C8794E",
">. c #C47847",
",. c #C87B52",
"<. c #C67A54",
"1. c #5B843D",
"2. c #628B3D",
"3. c #5F8642",
"4. c #658A46",
"5. c #6B9345",
"6. c #699349",
"7. c #689848",
"8. c #709D4E",
"9. c #71974E",
"0. c #739554",
"q. c #6F9057",
"w. c #71A04F",
"e. c #72AE4A",
"r. c #7AA94F",
"t. c #74B04C",
"y. c #7FB84F",
"u. c #79B34F",
"i. c #7CAC53",
"p. c #78A555",
"a. c #77B351",
"s. c #7CB354",
"d. c #7EB952",
"f. c #7FB558",
"g. c #82B456",
"h. c #82BA54",
"j. c #81B759",
"k. c #83B95B",
"l. c #89BE5D",
"z. c #89BE56",
"x. c #82AE57",
"c. c #83AA61",
"v. c #8BB465",
"b. c #86BA61",
"n. c #8BBC62",
"m. c #8EBD6A",
"M. c #86B661",
"N. c #91BE6B",
"B. c #90BF61",
"V. c #CD845E",
"C. c #CE8660",
"Z. c #89C156",
"A. c #8DC45C",
"S. c #87C057",
"D. c #90C65D",
"F. c #92CA5C",
"G. c #8EC262",
"H. c #8FC466",
"J. c #91C464",
"K. c #94CC61",
"L. c #99CE65",
"P. c #92C36A",
"I. c #96C96B",
"U. c #9ACC6D",
"Y. c #98C66E",
"T. c #9CD06C",
"R. c #99C671",
"E. c #9BCD71",
"W. c #97C772",
"Q. c #9FD074",
"!. c #A0CE74",
"~. c #A3D476",
"^. c #A5D579",
"/. c #A8D77B",
"(. c #393780",
"). c #383880",
"_. c #353A83",
"`. c #1D599C",
"'. c #09598A",
"]. c #2A498F",
"[. c #2C4487",
"{. c #344284",
"}. c #274E92",
"|. c #245495",
" X c #0E6D9B",
".X c #0B6FAD",
"XX c #0B69A3",
"oX c #1267A7",
"OX c #0C71AD",
"+X c #0E7CAD",
"@X c #1176A4",
"#X c #0D7FB1",
"$X c #754B83",
"%X c #7E598D",
"&X c #805A8D",
"*X c #208786",
"=X c #218887",
"-X c #218988",
";X c #0D80AF",
":X c #0E81B0",
">X c #17A9A7",
",X c #16B2AE",
"<X c #16BFBC",
"1X c #18BEBC",
"2X c #15B5B3",
"3X c #17C0BD",
"4X c #BBA1B9",
"5X c #DAA78B",
"6X c #E9DADA",
"7X c #F3E2D9",
"8X c #F7EAE2",
/* pixels */
"F.F.F.l.j.j.A.K.K.K.^.^.^.^.^.^.I.e.e.e.^.^.^.Y.N.N.m.k.k.k.K.K.K.h.t.e.d.F.K.K.k.j.j.j.k.k.l.F.F.F.l.j.k.k.k.k.S.D.F.F.",
"F.F.F.l.j.j.l.K.K.K.^.^.^.^.^./.I.e.e.e.^.^.~.Y.N.N.n.k.k.k.K.K.F.h.t.e.d.K.F.K.j.j.f.l.k.k.l.D.F.F.j.k.k.j.k.k.S.F.F.F.",
"F.F.F.l.k.k.S.K.K.K.~.^./.^.^.^.I.t.e.e.^.^.~.Y.N.N.B.g.k.k.D.K.K.h.e.t.d.K.F.K.j.j.j.j.k.k.l.F.F.D.l.k.j.j.k.k.S.F.F.F.",
"F.F.F.A.b.k.G.K.K.K.^.^.^.T.K.L.l.F 1.1.9.9.9.0.0.0.6.4.3.3.6.5.5.2.1.1.2.7.5.g.k.j.j.k.k.j.A.Q.T.T.l.k.k.A.A.A.Z.F.F.F.",
"F.F.F.G.n.v.A.D.F.K.~.^.^.L.F.F.u.                                            F k.k.k.k.k.k.H.^.^.~.b.f.k.Z.F.F.F.F.F.F.",
"F.F.F.G.n.n.A.D.F.F.~.^./.L.F.F.i.    > > > > , > > > > > > > > > : + + + .   F k.k.k.k.k.k.H.^.^.Q.G.f.j.F.F.F.F.F.F.F.",
"F.F.F.G.n.n.G.A.D.D.U.E.U.L.L.L.x.  # M N N N N N N N N N N N N N m i i i ;   D S.S.A.S.S.G.H.T.T.T.A.G.S.A.F.F.K.F.A.A.",
"F.F.F.n.n.n.n.j.k.j.j.k.k.U.^.^.v.  # M N N N N N N N N N N N N N m i i i ;   A D.F.D.K.K.K.K.F.F.F.F.F.F.F.F.F.Z.k.h.k.",
"F.F.F.z.n.n.k.j.k.k.k.k.j.E./.^.v.  # M N N M M N N N N N N N N N m i i i ;   A D.F.F.F.K.K.F.F.F.D.F.F.F.F.F.F.D.k.k.k.",
"D.F.D.B.n.n.n.k.k.k.n.k.l.U.^.^.M.  # M ]  . . . . . . . . . . .N m i i i ;   A F.F.F.D.F.K.K.F.K.K.K.F.F.F.F.F.Z.k.k.k.",
"t.e.t.g.k.k.k.k.k.k.~.~.~.^.^.^.v.  O M | ;.:.:.;.:.:.-.;.;.:.-.N m i i i ;   D l.k.k.l.k.n.H.~.^.^./.^.^.L.F.F.A.k.k.k.",
"e.e.e.d.k.k.k.k.k.b.~.~.^.^.^.^.v.  < &.%.;.:.<.;.:.:.:.;.;.;.-.$...] V i ;   F k.j.k.k.k.j.H.^.^.^.^.^.^.K.F.F.A.k.k.k.",
"e.t.e.g.k.j.k.k.k.n.~.^.^./.^.^.v.  < :.<.<.<.-.:.-.:.-.-.,.<.<.:.#.[ ` i ;   F k.k.k.k.k.k.J.^.^.^.^.^./.L.D.F.A.k.k.k.",
"Z.Z.z.l.m.n.k.a.s.s.J.Y.P.I.L.L.g.  < -.5X8X4X$X=.-.:.:.$X&X6X7X,.$.[ ` i ;   F k.j.j.I.E.U.Y.H.B.J.R.R.R.J.J.n.A.A.J.Z.",
"F.F.F.J.N.m.k.e.e.t.n.n.n.A.F.F.i.  < -.5X8X4X$X=.-.-.-.$X%X6X7X,.#.[ ` i ;   F k.k.j.U.^.^.U.j.j.k.m.N.N.n.n.n.A.F.F.F.",
"F.F.F.J.N.N.n.e.e.t.M.k.n.D.F.F.i.  < -.<.V.<.<...[ [ { *.<.C.V.;.$.[ ` i ;   F k.k.k.U.^.^.U.j.j.j.m.N.N.n.n.n.G.F.F.F.",
"D.F.F.D.J.J.A.g.d.d.A.G.G.G.D.A.r.  < -.,.:.-.%...{ } } &.%.:.-.:.#.[ ` g ;   D j.j.j.P.U.U.P.j.b.f.G.H.G.G.G.H.G.A.D.A.",
"F.F.F.F.D.F.F.F.F.F.D.F.D.S.k.b.8.  < -.;.;. .N +.:.;.:.C ' %.,.:.#.[ [ [ s   H j.g.j.j.k.k.k.k.f.f.f.f.f.H.K.K.D.l.j.k.",
"F.F.F.F.F.F.F.F.F.F.F.F.F.S.f.k.8.  < -.;.;. .N  .#.&.&.N C %.:.:.$.[ [ [ s   H j.f.j.l.j.k.k.k.G.f.G.f.f.K.K.K.A.k.k.k.",
"F.F.F.F.F.F.F.F.F.D.F.D.K.S.k.k.8.  < -.;.;. .C N N N N N ' -.:.:.$.[ { [ s   H k.j.j.j.j.k.k.k.b.f.f.S.f.A.K.K.D.k.j.k.",
"^.^.^.L.F.F.L././.^.G.n.b.b.f.k.w.  O B Z Z j a a a a a a s B Z Z B g h l <   G n.n.n.E.^.^.Q.K.K.K.K.F.F.F.K.K.K.F.K.K.",
"^.^./.K.F.F.L././.Q.n.b.G.b.k.k.w.                                            G n.n.n.E.^.^.~.K.K.K.F.F.F.K.K.K.K.K.K.K.",
"^.^.^.L.F.F.L.^.^.~.n.n.G.f.f.d.i.b b b 3   e T T T T T T T T T y y y y y y y b A i.n.E.^.^.Q.K.K.K.A.F.A.F.K.K.K.K.K.K.",
"L.L.L.A.h.h.Z.L.L.L.D.D.A.A.K.F.G.k.j.j.G   R 3X<X<X<X<X<X<X<X1X-X-X-X-X-X-X-Xr   6.k.H.W.P.J.F.K.K.K.K.K.A.G.k.G.S.G.S.",
"D.F.F.d.s.a.d.F.F.F.F.F.F.F.F.F.A.k.k.k._   T <X<X<X3X<X<X<X<X<X,X>X*X=X=X=X-Xr   6.j.n.n.n.G.F.F.F.K.K.K.S.f.b.k.k.k.k.",
"F.F.F.d.a.s.h.F.F.F.F.F.F.F.F.F.A.k.k.k._   T <X<X<X1X<X<X3X<X<X<X,X*X=X*X=X-Xr   6.j.k.k.n.G.D.F.F.K.K.K.S.k.k.k.j.k.k.",
"F.F.F.S.k.S.S.F.F.F.A.A.Z.F.K.F.J.k.8.6 2   T <X<X<X<X<X<X<X<X2Xr n o.o.o.O.O.5   6.j.n.n.n.G.A.F.A.K.K.H.H.H.H.n.k.k.k.",
"F.F.F.F.K.K.F.F.F.J.S.k.k.A.K.K.J.k.6.      T <X<X1X<X3X<X3X<X,X  5 ;.-.;.X.[ p   6.k.m.N.P.m.k.h.f.f.k.f.E.^.^.E.j.k.k.",
"F.F.F.K.K.K.F.F.F.F.k.k.j.G.K.K.D.f.7.      T <X<X<X3X<X<X<X<X,X  5 ;.;.;.X.[ p   6.j.n.P.m.n.k.k.k.k.k.k.E.^.^.E.j.k.k.",
"F.F.F.F.K.K.K.F.K.J.S.f.j.A.K.K.A.p.4.% .   T <X3X<X<X<X<X<X>X>Xo d ;.>.-.@.[ p   6.k.n.m.m.n.j.k.k.k.k.k.U.^.Q.U.l.k.l.",
"k.k.S.A.F.F.L.^.~.~.l.k.l.G.K.L.g.. 4 +.l   T <X<X<X<X<X<X,Xe @ X.$.;.;.;.X.[ p   0.N.f.t.t.s.k.k.f.k.k.k.b.H.G.n.D.D.F.",
"k.k.k.A.F.F.L./.^.~.k.k.j.D.F.z.r.o 1 -.B   T 3X<X<X<X<X,X>X* O >.>.;.;.;.X.[ p X 0.N.s.e.e.a.k.k.k.k.k.k.b.b.b.A.F.F.F.",
"k.k.k.A.D.F.L.^.^.Q.k.f.S.H.a.@ $ >.>.;.V   T <X<X3X<X<X* @ ..>.;.;.;.;.>...[ p   0.N.s.t.e.t.k.j.k.j.k.k.k.n.n.l.F.F.F.",
"G.n.n.n.l.l.I.^.^.^.K.D.H.A.w.@ $ ;.;.;.B   T 3X<X<X<X<XX o +.;.>.;.>.>.$...[ p   8.l.A.A.A.l.k.j.l.n.k.n.J.D.D.J.l.n.B.",
"N.N.P.b.k.k.G.^.^.~.F.F.F.l.8.@ $ >.>.;.B   T <X<X1X<X1X* . @.>.;.-.;.$.[ [  .d   6.k.A.K.K.A.j.k.k.n.n.n.D.F.F.D.n.n.n.",
"N.m.P.b.k.k.H.^.^.Q.F.F.F.A.8.@ $ ;.;.;.B   T 3X<X<X1X1XX O @.-.-.>.$.X.[ ` z f 6 p.k.J.K.K.G.k.k.j.n.n.n.D.F.F.D.n.n.n.",
"W.W.W.G.G.k.H.U.E.T.D.Z.Z.l.8.@ $ -.;.;.B   T <X<X1X<X<XX . +.-.>.$.[ [ [ s   S k.k.k.A.F.K.F.S.l.A.P.P.I.F.F.F.D.k.k.n.",
"^.^.~.T.K.K.K.f.k.k.j.j.j.k.i.A S j j j 5   T <X1X<X<X<XQ Q k j j g s s s :   A k.k.k.D.F.F.F.K.K.K.^.^.^.K.F.F.A.j.k.k.",
"^.^.^.T.K.F.J.k.k.k.h.j.j.j.k.k.r.          T <X<X<X<X<X1X>X* X               A k.k.k.Z.F.F.F.K.K.L.^.^.^.L.F.F.D.j.k.j.",
"^.^.^.U.K.K.J.k.k.k.k.j.j.k.k.k.j.F F F 6   T <X<X<X<X<X<X2X! ! ! Q E E E e   A k.k.k.A.F.F.F.L.K.K.^.^.^.K.F.F.A.j.l.j.",
"k.k.k.J.K.K.J.N.m.m.k.j.k.A.F.F.A.h.j.s.S   T <X<X<X<X<X<X<X<X<X3X,X=X=X*XE   A f.k.k.U./.^.T.n.n.n.I.K.K.F.F.F.D.n.n.n.",
"k.k.j.A.K.F.L.N.m.m.k.k.k.D.F.F.A.j.9.3 L '. X;X;X;X;X;X+X#X#X#X;X+X@X@X*X~ ~ c 3 8.j.U.^.^.E.n.b.n.F.F.K.F.F.F.D.n.n.n.",
"k.k.k.K.K.K.I.N.N.N.k.j.k.A.F.F.A.g.6.  L .X.X.X.X.X.X.X.X.X.X.X.XOX.X@X*X*X-Xr   6.k.U.^./.U.n.n.G.K.K.K.F.F.F.D.n.n.n.",
"k.j.j.h.g.d.A.E.~.E.G.F.A.A.S.S.G.E.p.X K OX.XOX.X.X}._.* * * 7 .X.X.X.X@X}._.q X p.W.P.J.J.J.D.A.J.K.K.K.J.A.G.k.s.s.a.",
"k.k.k.a.e.e.k.^.^.^.F.F.D.S.k.k.H.~.c.  K .X.X.X.X.X[.U = @ @ @  XXXXX.X.X}.(.q   c.^.J.k.k.l.F.F.F.K.K.K.n.n.n.k.e.e.e.",
"k.k.k.u.e.e.l.^.^.^.F.F.F.S.k.k.G.^.c.  K .X.X.X|._.q X 6.8.8.6.& K .X.X.X|.(.q   c.^.n.k.k.l.F.F.F.L.K.K.H.n.n.k.e.e.e.",
"j.k.k.d.a.a.j.E.U.U.I.D.J.A.l.S.n.v.q.7 L OX.X.X].).7   g.l.J.M.  0 .X.X.X|.).J - q.v.n.k.j.l.F.F.F.L.L.T.A.k.k.j.t.t.i.",
"k.k.k.k.k.k.k.k.k.k.m.m.H.I.F.D.f.X 7 .X.XOX.X.X].I w   z.F.~.R.  0 .X.X.X|.).).U - X i.f.f.A.F.K.L./.^.^.n.a.s.f.j.j.f.",
"k.k.k.k.k.k.k.k.j.b.m.m.N.J.F.F.x.  7 .X.X.X.XoX].I w   Z.F.^.Y.  0 .X.XoX}.).).I &   p.j.j.z.F.K.L.^.^.^.A.a.a.s.j.j.j.",
"l.k.k.k.k.k.k.k.j.M.H.m.m.I.F.F.g.  7 oX.X.X`.I I I w   z.D.!.Y.  0 .X`.)._.).).).&   p.j.j.l.I.K.K.^.^.^.l.s.s.f.k.j.j.",
"D.D.F.A.n.n.n.k.k.k.b.k.k.U./.~.v.  7 OXoX`.].I P P u v e.u.n.v.b n W Y ).).).).I &   7.e.t.j.m.P.P.K.K.F.l.k.k.f.e.a.t.",
"F.F.F.A.n.n.b.k.k.k.k.k.k.E.^.^.v.  7 OX`.).I I 9   1.e.e.e.l.n.n.4.  8 ).).).).I &   7.e.e.d.N.m.P.A.D.F.l.k.k.s.e.e.e.",
"F.F.F.A.n.n.b.j.j.l.j.k.k.U.^.^.v.  & `.].).).).8   1.e.e.t.l.n.n.4.  8 ).).).).I &   7.e.t.s.N.N.P.F.F.F.l.j.j.f.t.t.t.",
"F.F.F.L.E.E.Y.n.n.n.k.k.k.G.P.J.p.  & U ).).).).8   3.b.b.l.G.J.J.4.  8 ).).).).).&   7.e.e.s.b.n.k.F.F.F.l.k.k.f.f.s.s.",
"F.F.F.~.^.^.E.N.N.m.k.k.k.j.k.k.w.  & ) ) ) ) ) -   4.N.N.N.K.K.K.5.  - ) ) ) ) ) &   2.e.e.s.j.k.k.F.F.F.l.k.k.k.k.k.k.",
"F.F.F.~.^./.!.N.N.N.k.k.k.k.j.j.8.  = ( / / / / =   4.m.N.H.K.F.K.5.  = / / / / / @   7.e.e.a.j.k.k.Z.F.F.A.k.k.k.k.k.k.",
"D.F.F.K.I.I.J.D.J.G.j.k.j.v 6 6 6 u u / / / / / =   4.P.P.P.G.K.J.6.  = / / / / / u u 6 6 3 v k.n.n.K.L.L.l.k.k.k.n.k.n.",
"F.F.D.y.e.e.h.F.D.F.k.k.g.2     . ^ ^ ^ ^ ^ ^ ^ =   5.K.K.K.n.n.n.6.  = ^ ^ ^ ^ ^ ^ ^ .     % m.N.P.^././.J.k.k.n.N.N.N.",
"F.F.D.y.e.e.y.F.F.F.l.k.s.%       . . . . . . .     5.K.K.K.G.n.m.4.    . . . . . . .       % m.N.N.^.^.^.m.k.k.n.N.P.N.",
"F.F.F.y.e.t.y.F.F.F.k.k.j.%                         5.K.K.K.n.n.n.4.                        2 v.N.N.^.^./.J.k.k.M.N.N.N."
};
