/* XPM */
static char *xpm_[] = {
/* columns rows colors chars-per-pixel */
"60 60 172 2 ",
"   c #010101",
".  c #060807",
"X  c #050609",
"o  c #07090B",
"O  c #0A0C0D",
"+  c #070D10",
"@  c #0A0D10",
"#  c #0D1215",
"$  c #0E1619",
"%  c #111415",
"&  c #111619",
"*  c #12191D",
"=  c #151D22",
"-  c #191E22",
";  c #172024",
":  c #1A2327",
">  c #16232B",
",  c #1B262C",
"<  c #1D282D",
"1  c #1D2730",
"2  c #1E2B32",
"3  c #1F313B",
"4  c #212D34",
"5  c #222E38",
"6  c #25333C",
"7  c #28353E",
"8  c #253640",
"9  c #2A3742",
"0  c #273943",
"q  c #2A3B45",
"w  c #2C3D49",
"e  c #303E47",
"r  c #313F49",
"t  c #2C4047",
"y  c #2E414C",
"u  c #31434E",
"i  c #324551",
"p  c #344855",
"a  c #364C59",
"s  c #3C4F5D",
"d  c #36505F",
"f  c #3A515F",
"g  c #3C5362",
"h  c #3E5965",
"j  c #3E5968",
"k  c #415B6B",
"l  c #466376",
"z  c #4A6677",
"x  c #476679",
"c  c #496779",
"v  c #47687B",
"b  c #4A697B",
"n  c #516E7E",
"m  c #4D6E81",
"M  c #516F83",
"N  c #4F7083",
"B  c #527286",
"V  c #537489",
"C  c #557A8D",
"Z  c #567C93",
"A  c #5B7E95",
"S  c #5C8195",
"D  c #5D859E",
"F  c #5E859D",
"G  c #5F889E",
"H  c #618699",
"J  c #61869E",
"K  c #65889E",
"L  c #63889F",
"P  c #5F87A1",
"I  c #5E88A0",
"U  c #6186A0",
"Y  c #628BA1",
"T  c #6189A2",
"R  c #648AA1",
"E  c #678DA2",
"W  c #658BA3",
"Q  c #688CA2",
"!  c #6B8FA7",
"~  c #6A8EA4",
"^  c #6D91A5",
"/  c #6C90A8",
"(  c #6F93AA",
")  c #7093A7",
"_  c #7195AA",
"`  c #779AAE",
"'  c #7A9BAE",
"]  c #7C9BAD",
"[  c #7C9BAF",
"{  c #7B9BAE",
"}  c #7D9CB1",
"|  c #7FA0B3",
" . c #81A2B3",
".. c #81A0B2",
"X. c #86A3B3",
"o. c #85A2B2",
"O. c #87A4B6",
"+. c #84A3B4",
"@. c #88A5B7",
"#. c #8BA8B7",
"$. c #87A3B8",
"%. c #8AA5B8",
"&. c #8AA6B9",
"*. c #89A8BC",
"=. c #8FAABD",
"-. c #8DAABC",
";. c #8EAABB",
":. c #93AFBD",
">. c #92ADBE",
",. c #92ACBC",
"<. c #98AEBC",
"1. c #95B0BF",
"2. c #99B1BE",
"3. c #93AEC0",
"4. c #97B3C1",
"5. c #96B1C0",
"6. c #9AB1C3",
"7. c #99B5C3",
"8. c #9CB5C3",
"9. c #9DB8C6",
"0. c #9DB7C8",
"q. c #9EB8C9",
"w. c #A4B7C5",
"e. c #A0B7C5",
"r. c #A3B9C4",
"t. c #A2B9C7",
"y. c #A6BCC9",
"u. c #A9BECB",
"i. c #ACC3CB",
"p. c #ABC1CE",
"a. c #ADC1CC",
"s. c #ADC1CC",
"d. c #B1C3CF",
"f. c #B2C4CF",
"g. c #B0C3D2",
"h. c #B3C6D4",
"j. c #B7C7D4",
"k. c #B5C7D2",
"l. c #B7C9D3",
"z. c #B6C8D3",
"x. c #BBCCD6",
"c. c #BECCD7",
"v. c #BBCCD5",
"b. c #BDCED8",
"n. c #BFD0DA",
"m. c #C1CFD9",
"M. c #C5D3DC",
"N. c #C9D6DE",
"B. c #CBD8DE",
"V. c #D1DADF",
"C. c #CAD7E0",
"Z. c #CCD9E1",
"A. c #D3DCE2",
"S. c #D6E1E5",
"D. c #DAE2E7",
"F. c #DAE3EA",
"G. c #DDE4EA",
"H. c #DEE6EC",
"J. c #DFE8ED",
"K. c #E0E4ED",
"L. c #E4EAEE",
"P. c #E9EEEF",
"I. c #E5EAF0",
"U. c #E5ECF2",
"Y. c #E6EDF1",
"T. c #E9EEF1",
"R. c #F1EFF2",
"E. c #EEF2F5",
"W. c #F3F4F6",
"Q. c #F4F6F9",
"!. c #F5F9FB",
"~. c #FCFCFC",
/* pixels */
"@ O @ @ O @ O O O @ O O O @ @ O @ O O O O O O O @ @ @ O O O O O @ O O O O O O O O O O @ O O @ O O @ O O @ O O O O @ @ O ",
"@ @ @ O O X X X X X o X X X X O @ o X X X X X X X X X o X X X X X X X X X X X X o o o O O X X X X X X X X X X o O @ @ O ",
"@ @ @ O @ , 1 , , < , 4 < < , @ o = < : < , < < , , < < , < , , 1 < < < < < < < < 1 = o @ : < < < < < < < < : @ O @ @ O ",
"O O @ o # w w y i u u y u i w #   4 p y y y y u y y y i y u u y y y y y y y y y y p 4   # w i y y y u i y w w # o @ @ O ",
"@ @ O o # 6 q 6 4 6 2 4 4 6 4 @ X ; 6 4 4 4 5 4 6 6 5 5 6 6 4 4 4 5 4 4 4 4 4 4 4 6 :   @ 2 3 4 4 4 6 4 6 0 7 # o @ @ O ",
"@ @ O o # 6 w < X o o o o o o O O o O o o o o o o o o o o o o o o o O O O o O O o o O O O o o o O O o X < w 6 # o O @ O ",
"O @ @ o # 6 w 1 o @ @ @           o O @ @ @           X O @ @ @           X O O @ O X         o O @ O o 1 w 6 # o O @ O ",
"O @ O o # 6 w < o O O o : 6 4 : , $ o O o O , 6 2 : , * o o o O > 6 4 : , * o O O o * 6 4 , < $ O o o o < w 6 # o O @ O ",
"@ @ @ o # 6 t ,         D d.>.A T 6         ! h.-.A T i         m c.&.C R g         p v.>.D ( 6         : r 6 # o O O @ ",
"O O @ o # 7 w ,         Z w.X.V S 5         Q r.X.C H g         x a.] N A d         i s.X.C K 6         : w 6 # o O O @ ",
"O O O o # 6 y >         E F.l...4.r         =.G.p.' 7.b         S Y.g.] =.x         h I.j...6.u         : w 6 # o O O @ ",
"@ @ @ o # 6 y <         ) W.B.:.s.u         1.W.j.&.p.c         K ~.M.;.y.b         k ~.A.3.s.i         , w 6 # o O O @ ",
"@ @ @ o @ 6 w ,         ^ T.M.=.y.i         >.E.k.+.y.c         J W.v.@.8.c         f S.p.;.y.i         : w 6 @ o O O @ ",
"O O @ o # 6 y ,         ^ T.M.-.y.i         >.E.k.+.y.c         I W.c.@.e.v         y 6.} #.s.i         : y 8 # o O O @ ",
"O O @ o # 6 q ;         ^ T.M.,.y.i         ,.R.k.+.y.c         P W.v.@.9.c         i d.;.#.a.i         ; w 6 # o O O @ ",
"+ @ @ O O @ # O         ^ Y.M.;.y.u         3.E.k.+.y.c         G W.v.X.0.z         j E.M.,.y.i         O # @ O O O O @ ",
"@ O O @ O X   X         ^ T.M.&.r.i         >.W.k.+.y.c         G W.c.$.8.c         k !.M.,.y.i         X   X @ O @ @ O ",
"O O @ o # , 4 =         ) T.N.8.d.p         >.E.k.+.y.c         J Q.v.X.9.c         k Q.M.,.u.i         = 4 < # o @ @ O ",
"O @ @ o # q p 1         ' L.N.Z.!.k         >.E.k.+.y.c         J Q.v.X.6.c         k Q.M.,.u.i         1 p q # o @ @ O ",
"O @ @ o # 8 w :         } I.B.M.P.j         >.E.k.+.t.c         D E.M.x.A.C         k W.M.;.y.i         : y 8 # o O @ O ",
"@ @ O o # 6 q :         } L.M.<.y.u         >.E.k.+.t.c         D T.C.D.W.A         k W.M.,.y.i         : w 7 # o O @ @ ",
"@ O O o # 6 w :         } L.M.&.t.y         ,.E.k.+.y.x         J W.M.a.M.V         j Q.M.;.y.i         : w 6 # o O @ O ",
"O @ O o # 6 w ,         { L.M.=.y.i   X # o 2.T.k.+.y.c     O   J W.l.[ 5.l     o   k W.M.;.y.i   X @ o 1 w 6 # o @ @ O ",
"O @ @ o # 6 w ,         | L.M.#.t.i   X & o 2.T.k.+.y.c     &   ! W.j.&.e.A     %   z E.M.;.u.i   X * & 1 q 6 # o @ @ O ",
"@ @ @ o # 6 w <       o r.H.M.=.y.i   X & o 4.T.k.+.y.z     &   ! W.v.@.t.E     #   c E.M.#.r.y   X * & 1 w 8 # o O @ O ",
"@ @ @ o # 6 w <       o y.G.M.=.y.i   X & o 4.T.k.+.t.m   @ X   L Q.v.@.r.L     %   c E.M.c.K.k   @ X X < q 6 # o O @ O ",
"@ @ @ o # 6 q <       o e.J.M.=.t.i   X & o 4.T.z.X.r.m   &     F !.v.@.r.L     @   c T.M.Z.W.b   #     : w 6 # o O @ O ",
"@ @ @ o # 6 q ,       o u.G.M.;.y.u   X & o 4.T.k.X.t.M   $ o   T W.v.&.r.L     #   x E.M.M.E.z   # o o < q 6 # o O @ O ",
"@ @ @ o # 6 q <       X >.L.M.;.y.u   X & o 4.T.k.@.6.k   & &   ! W.v.@.9.E o # $   c E.N.B.W.c   & * $ 4 q 8 # o O @ O ",
"@ @ @ o # 6 q <         ^ T.M.;.y.u   X & o 4.T.b.=.3.h   & $   Q W.v.@.8.E @ & &   c E.M.M.Y.x   & $ # 4 q 6 # o O @ O ",
"@ @ @ o # 6 q <         ( T.M.;.y.i   X & o 4.T.b.*.e.n   & $   E W.v.@.9.E O & &   c E.M.>.y.f   & & # 4 q 6 # o O @ O ",
"@ @ @ o # 6 q <         _ T.M.;.y.i   X & o 4.T.c.*.r.B   & *   L W.v.@.9.E O # $   b E.M.;.q.s   & & # 4 q 6 # o O @ O ",
"@ O O o # 6 w <         ) Y.M.;.y.i   X & o 4.T.c.;.r.N   $ %   D Q.v.&.9.K O $ &   c E.M.;.r.f   & $ # 1 q 6 # o O @ @ ",
"@ @ O o # 6 q 4 & #     ) Y.M.;.r.f   # & o 1.T.b.;.t.N   $     F Q.v.@.8.V o $ &   c E.M.;.r.f   & & # 1 q 6 # o O @ O ",
"O O @ o # 6 0 1 & &     ) Y.M.;.r.f   & & o 4.T.b.;.r.m   $     J Q.v.@.8.B o & &   c E.M.;.r.f   & & # 1 q 8 # o @ @ O ",
"O @ @ o # 6 w 1 & +     ( T.M.;.r.f   & $ o 4.T.c.;.r.N   $     D Q.v.@.8.V o $ &   c E.M.;.r.f   $ * # 4 w 6 # o @ @ O ",
"O O @ o # 7 w 2 & @     ) T.M.;.r.g   & $ o 1.T.b.;.r.m   #     J Q.v.@.9.B o $ &   c E.M.;.r.f   $ $ # 4 e 7 # o @ @ O ",
"@ @ @ O O = : & # &     ) T.M.;.r.f   & & o 4.T.m.;.r.m   $     J Q.v.@.8.B o $ &   c E.M.;.r.f   & & # & : = O O @ @ O ",
"@ O O @ O O o O & &     ^ T.M.;.r.f   & $ o 4.Y.m.;.9.N   $     L Q.c.&.8.V o & &   c E.M.;.r.f   & & & O o o O O @ @ O ",
"@ O O @ O o o O * #     Q T.M.;.r.f   & # o 4.L.N.>.2.m   $     J Q.v.@.8.B o $ &   c E.M.;.r.f   $ & $ O . o @ O @ @ O ",
"@ @ O O @ 2 6 : # &     ' T.M.;.r.g   & $ o 4.L.N.n.D.T   &     J Q.v.@.9.B o & &   c W.M.;.r.f   & & % : 6 2 @ o @ @ O ",
"@ @ O o # 9 u 4 # &     +.L.M.;.r.f   & $ o 4.L.N.A.~.)   #     J Q.v.@.9.B o & &   c W.M.;.r.g   & $ # 4 u 7 # o @ @ O ",
"@ @ O o # 6 q 1 # &     | T.M.;.r.f   & $ o 1.L.C.f.C.A   &     P Q.v.@.9.V o & &   c W.M.;.r.a   @ $ # 1 0 6 # o @ @ O ",
"@ @ O o # 6 q 1 # &     | T.M.,.r.g   & $ o 4.L.N.=.3.m   #     U !.c.@.8.B o & &   x Q.M.;.y.y     & # 1 q 6 # o @ @ O ",
"@ @ O o # 7 q 1 # &     } T.M.;.r.f   & # o 4.L.N.:.9.M   &     L Q.v.&.8.V o # &   c W.M.;.y.i   X & # 1 q 6 # o @ @ O ",
"@ @ O o # 6 q 1 # & # . ^ T.M.;.r.f   & $ o 1.L.M.<.e.M   & &   Q Q.v.@.8.B o # &   c W.M.;.r.f   & $ # 1 q 6 # o @ @ O ",
"@ @ O o # 6 q 1 # & # o ! P.M.;.r.f   & $ o 7.L.C.3.9.m   & $   ! W.v.&.8.m o & &   c W.M.;.r.g   & $ # 1 q 6 # o @ @ O ",
"@ @ O o # 6 q 1 # & # X ` !.M.;.r.f   & $ o u.T.B.3.8.M   & $   ` !.v.@.8.m o & &   B ~.M.;.r.f   & $ # 1 q 6 # o @ @ O ",
"O @ O o @ 6 q 1 $ & & o i H.A.&.d.h   * & X Q E.M.1.u.V   & * o c E.c.+.t.C O & * o y L.A.@.g.h   & & & 1 w 6 # o @ @ O ",
"O @ @ o # 6 w 4 @ # # #   ( W.z.' , o # #   - C.T.y.} 6 X # # o O y.T.>.8.u X # # #   _ !.l.} , o # # @ 4 q 6 # o @ @ O ",
"@ @ @ o # 6 w :           ; V.1.&             0 M.;.=             = u.9.i             o 7.r.*           : q 6 # o @ @ O ",
"@ @ @ o # 6 q ;             # X                 o O                 X #                   X             ; q 6 # o @ @ O ",
"O O O o # 6 0 6 4 4 1 5 4 4 *   X = 6 2 1 4 2 1 = = 2 2 2 4 4 4 2 2 ; = 1 2 4 4 1 3 ;     = 4 1 1 2 4 4 6 0 6 # o @ @ O ",
"O O O o # 6 0 0 w w e q w y w % X 1 i q w w q q w w q w q w q w q q w w q w t w w u 1 X # 0 y w w w w q 0 0 6 # o @ @ O ",
"O O O o # 6 q 0 q 0 0 q 0 w 9 @ X < y q 0 0 q q 0 0 0 0 q 9 0 0 0 q 0 q q q w 9 0 w <   @ 6 q q 0 0 0 0 q q 6 # o @ @ O ",
"@ @ O O O # $ & $ & & & & $ & O O # $ & & $ $ $ $ & $ * & $ $ & $ $ & & $ & & & & * # O @ # & $ & & $ $ & $ # O O @ @ O ",
"@ @ @ O O O o o o o o o o o o O O o o o o o o o o o o o o o o o o o o o o o o o o o o @ @ o o o o o o o o o o O @ @ @ @ ",
"@ @ @ O @ O O O @ @ @ @ @ @ @ @ @ @ @ @ @ @ O O @ @ @ @ @ @ @ @ O O O O O O O O O O O @ @ O O O @ @ @ @ @ @ @ @ @ @ @ @ ",
"O O O O O O O O @ @ @ @ @ @ @ @ @ @ @ @ @ @ @ @ @ @ @ @ @ @ @ @ @ @ @ @ @ @ @ @ O O O @ @ O O O @ @ @ @ @ @ @ @ @ @ @ @ ",
"O O O O O O O O O O O O O O O O O O O O O O O O O O O O O O O O O O O O O O O O @ @ @ O O @ @ @ O O O O O O O O @ @ @ @ "
};
