/* XPM */
static char *xpm_[] = {
/* columns rows colors chars-per-pixel */
"60 60 162 2 ",
"   c #010101",
".  c #060807",
"X  c #050609",
"o  c #09070A",
"O  c #07090B",
"+  c #0A0C0D",
"@  c #060E10",
"#  c #0A0D10",
"$  c #0D1215",
"%  c #0E1619",
"&  c #0E181A",
"*  c #111516",
"=  c #111619",
"-  c #12191C",
";  c #141C22",
":  c #181F25",
">  c #172125",
",  c #1A2327",
"<  c #16232B",
"1  c #1B252B",
"2  c #1D282E",
"3  c #1D2730",
"4  c #1E2B32",
"5  c #1F313B",
"6  c #212C34",
"7  c #212F38",
"8  c #25333C",
"9  c #28353E",
"0  c #253640",
"q  c #2A3740",
"w  c #273943",
"e  c #2A3B45",
"r  c #2C3E49",
"t  c #303E47",
"y  c #303E49",
"u  c #2C4047",
"i  c #2E414C",
"p  c #31434E",
"a  c #2F4250",
"s  c #324451",
"d  c #344955",
"f  c #364C5B",
"g  c #3A515F",
"h  c #3B5462",
"j  c #3F5A67",
"k  c #3F5A69",
"l  c #415A67",
"z  c #425C6C",
"x  c #4A6677",
"c  c #4A6679",
"v  c #4B697A",
"b  c #506D7F",
"n  c #4E6E82",
"m  c #506F83",
"M  c #4F7083",
"N  c #527286",
"B  c #527589",
"V  c #557A8D",
"C  c #5B7E94",
"Z  c #5C8094",
"A  c #5E8499",
"S  c #5C859B",
"D  c #5E869D",
"F  c #5F889E",
"G  c #608699",
"H  c #61869D",
"J  c #62889F",
"K  c #628BA1",
"L  c #6388A2",
"P  c #608AA2",
"I  c #638AA1",
"U  c #688CA2",
"Y  c #6A8EA4",
"T  c #6A8FA9",
"R  c #6A90A7",
"E  c #6D90A4",
"W  c #6A90A7",
"Q  c #7494A9",
"!  c #7194A9",
"~  c #779AAE",
"^  c #7A9BAD",
"/  c #7C9BAF",
"(  c #7A9AAD",
")  c #7D9DB0",
"_  c #7FA0B3",
"`  c #809FB3",
"'  c #86A3B3",
"]  c #81A0B4",
"[  c #83A4B5",
"{  c #87A4B4",
"}  c #84A3B5",
"|  c #88A5B6",
" . c #8BA8B6",
".. c #87A6B8",
"X. c #8AA7B9",
"o. c #8CA7BC",
"O. c #8AA6B8",
"+. c #8FA9BA",
"@. c #8DAABC",
"#. c #8EAABB",
"$. c #92AFBD",
"%. c #93AEBF",
"&. c #93ADBC",
"*. c #94B0BE",
"=. c #95B0BF",
"-. c #92AFC1",
";. c #8FB0C3",
":. c #97B1C0",
">. c #9AB4C3",
",. c #98B4C2",
"<. c #9CB5C4",
"1. c #9EB8C6",
"2. c #9FB9C8",
"3. c #A1B7C4",
"4. c #A0B7C5",
"5. c #A3B9C4",
"6. c #A2B9C6",
"7. c #AABDC7",
"8. c #A6BCC9",
"9. c #A9BDCA",
"0. c #AEC2CD",
"q. c #ACC2CF",
"w. c #ADC1CD",
"e. c #B1C5CF",
"r. c #AFC2D1",
"t. c #B1C4D2",
"y. c #B3C6D4",
"u. c #B4C6D1",
"i. c #B9C7D4",
"p. c #B7C9D5",
"a. c #B7C8D2",
"s. c #BECCD5",
"d. c #BCCDD7",
"f. c #BBCCD5",
"g. c #BCCDD9",
"h. c #BFD0D9",
"j. c #C1CFD9",
"k. c #C5D3DC",
"l. c #C9D6DD",
"z. c #CED8DE",
"x. c #CCD7E0",
"c. c #CEDAE0",
"v. c #D0DBE1",
"b. c #D5DFE8",
"n. c #D8E3E7",
"m. c #D8E1EA",
"M. c #DCE5EA",
"N. c #DFE6EC",
"B. c #E1E6EA",
"V. c #E3EAEE",
"C. c #E8EEEE",
"Z. c #E4EBF1",
"A. c #E7EAF1",
"S. c #E6EEF2",
"D. c #E9EEF2",
"F. c #F1EFF2",
"G. c #EDF2F5",
"H. c #F2F5F6",
"J. c #F8F8F6",
"K. c #F3F6F9",
"L. c #F6F9FB",
"P. c #FCFCFD",
/* pixels */
"# + # # + # + + + # + + + # # + # + + + + + + + # # # + + + + + # + + + + + + + + + + # + + # + + # + + # + + + + # # + ",
"# # # + + X X X X X o X X X X + # O X X X X X X X X X o X X X X X X X X X X X X o o O + + X X X X X X   X X X O + # # + ",
"# # # + # 1 3 1 1 2 1 6 2 2 1 # o ; 2 , 2 1 2 2 1 1 2 2 1 2 1 1 3 2 2 2 2 2 2 2 2 3 ; o # , 2 2 2 2 2 2 2 2 , # + # # + ",
"+ + # O $ r r i s p p i p p r $   6 d i i i i p i i i s i p p i i i i i i i i i i d 6   $ r s i i i p s i r r $ O # # + ",
"# # + O $ 8 e 8 6 8 4 6 6 8 6 # X > 8 6 6 6 7 6 8 8 7 7 8 8 6 6 6 7 6 6 6 6 6 6 6 8 ,   # 4 5 6 6 6 8 6 8 w 9 $ O # # + ",
"# # + O $ 8 r 2 X O O O O O O + + O + O O O O O O O O O O O O O O O + + + O + + O O + + + O O O + + O X 2 r 8 $ O + # + ",
"+ # # O $ 8 r 3 O # # #           O + # # #           X + # # #           X + + # + X         O + # + O 3 r 8 $ O + # + ",
"+ # + O $ 8 r 2 o + + O , 8 6 , 1 % O + O + 1 8 4 , 1 - O O O + < 8 6 , 1 - O + + O - 8 6 1 2 % + O O O 2 r 8 $ O + # + ",
"# # # O $ 8 u 1         S t.%.C P 8         R y.o.C P s         n d.X.V P h         d d.%.S E 8         , y 8 $ O + + # ",
"+ + # O $ 9 r 1         C 3.{ B C 7         U 6.' V G h         c w./ N C f         p q.[ V P 8         , r 8 $ O + + # ",
"+ + + O $ 8 i <         Q m.p.` =.t         @.M.q.( ,.v         Z A.r.( +.z         h A.i.[ ,.p         , r 8 $ O + + # ",
"# # # O $ 8 i 2         ' G.x.%.q.p         =.H.p.X.q.c         P P.j.+.8.Z         z P.l.=.e.s         1 r 8 $ O + + # ",
"# # # o # 8 r 1       O 1.M.k.+.6.s         %.G.u.[ 8.v         J K.d.| 6.U         k K.k. .6.s         , r 8 # O + + # ",
"+ + # O $ 8 i 1       O 8.B.k.+.6.a         %.G.u.[ 8.c         D K.p.{ 6.J         z H.k.g.V.h         , i 0 $ O + + # ",
"+ + # O $ 8 e >       o 6.B.k.+.6.s         &.F.u.[ 9.c         J H.d.X.6.P         k H.l.c.J.z         > r 8 $ O + + # ",
"@ # # + + # $ +       O 8.N.k.+.8.s         -.G.e.[ 9.v         F K.d.{ 6.J         l K.k.l.H.j         + $ # + + + + # ",
"# + + # + X   X         ;.B.k.@.8.p         %.G.a.| <.h         G K.d.| 6.P         z H.k.z.H.k         X   X # + # # + ",
"+ + # O $ 1 6 ;         Y D.k.@.8.p         %.D.d.@.:.f         J K.d.| 6.P         z H.k.k.G.j         ; 6 2 $ O # # + ",
"+ # # O $ e d 3         ! D.k.@.8.p         %.D.d.X.6.x         J K.d.| 6.P         k K.k.&.q.s         3 d e $ O # # + ",
"+ # # O $ 0 r ,         ! D.k.@.8.s         %.D.d.X.8.v         D K.d.X.6.U         l K.k.X.6.p         , i 0 $ O + # + ",
"# # + O $ 8 e ,         ! D.k.@.8.s         &.D.d.+.9.c         J K.d.| 6.G         l L.k.&.8.s         , r 9 $ O + # # ",
"# + + O $ 8 r ,         ! D.k.@.8.s         &.D.d.+.8.v         D K.d.X.1.M         k H.k.+.8.s         , r 8 $ O + # + ",
"+ # + O $ 8 r 1         ! D.k.@.8.s   X # X =.D.d.+.8.c     #   J K.d.| <.n     O   z H.k.&.7.s   X # O 3 r 8 $ O # # + ",
"+ # # O $ 8 r 1         ! D.k.@.8.p   X = O :.C.d.@.8.x     %   Y K.d.X.<.m     $   c G.k.@.8.p   X - = 3 e 8 $ O # # + ",
"# # # O $ 8 r 2         ! D.k.+.8.s   X = O =.S.d.+.8.c     =   Y H.d.X.<.M     $   c G.k.+.8.s   X - = 3 r 8 $ O + # + ",
"# # # O $ 8 r 2         ! D.k.+.8.s   X = O :.S.j.@.6.n   $ X   J K.p.| 3.M     $   c G.k.+.6.f   #   X 2 e 8 $ O + # + ",
"# # # O $ 8 e 2         Y D.k.+.8.p   X = O :.S.j.@.<.M   =     D L.d.| 3.n     $   c G.k.+.6.h X $     , i 8 $ O + # + ",
"# # # O $ 8 e 1         U D.k.+.8.p   X = O :.V.l.%.>.n   % O   U K.d.X.<.M     $   c G.k.+.6.g   $ O O 2 e 8 $ O + # + ",
"# # # O $ 8 e 2         ~ D.k.+.8.p   X = O :.V.l.h.n.J   % -   R H.d.| >.N o $ =   c K.k.+.6.g   = - % 6 e 0 $ O + # + ",
"# # # O $ 8 e 2         [ C.k.+.8.p   X = O :.V.l.b.P.!   % =   U H.d.X.<.N + = =   v H.k.+.6.h   = % $ 6 e 8 $ O + # + ",
"# # # O $ 8 e 2         _ C.k.+.8.s   X = O :.V.x.u.z.Z   & *   U H.d.| <.B O % =   c H.k.+.6.g   = = $ 6 e 8 $ O + # + ",
"# # # O $ 8 e 2         _ C.k.+.9.s   X = O :.V.l.@.%.n   = -   P K.d.X.<.N O = %   c K.k.+.6.h   = = $ 6 e 0 $ O + # + ",
"# + + O $ 8 r 2         ) S.l.@.9.d   X % O :.V.l.%.1.N   % $   J L.d.' <.B o * %   c G.k.+.6.h   = % $ 6 e 8 $ O + # # ",
"# # + O $ 8 e 6 = $     Y G.k.+.6.g   = % + :.V.k.-.<.m   %     G L.s.X.,.m O % =   c H.k.+.6.g   = % $ 6 e 8 $ O + # + ",
"+ + # O $ 8 w 3 & %     T D.k.+.6.g   = = X :.C.x.%.1.n   %     J L.s...<.v O = =   c H.k.&.6.g   = % $ 3 w 8 $ O # # + ",
"+ # # O $ 8 r 3 = +     Q L.k.+.6.g   % % O 9.D.l.%.<.m   =     ! P.p.| :.b O % *   B P.d.+.6.g   = = $ 6 e 8 $ O # # + ",
"+ + # O $ 9 r 4 % #     w B.v.X.t.k   % %   Y G.k.%.7.B   %     k G.h.{ 2.B O % - o p B.c.| q.j   = = $ 6 r 9 $ O # # + ",
"# # # + + ; , = % % X     U K.u.( , + = - X ; c.S.6.) w O %       6.D.@.<.d O = % -   / J.e.( , # = = $ - , - + + # # + ",
"# + + # + + o + = -       > c.&.;   = = = *   d l.@.1 . = %       ; w.6.d X % = = % O $ 1.6.- X = = % = O O O + + # # + ",
"# + + # + O O + - % X       - - O & = & = = - O , > # % % %         + 6 # $ = = = = - O = ; O = = = = = # o O # + # # + ",
"# # + + # 4 8 , $ = X         $ = = = = = = = = O + = = = %           O = = = % = % % = + + = % % = % % , 8 4 # O # # + ",
"# # + o $ q p 7 $ = X       + - = = = = = = = = = = % % % =         X = = = = % = = = = = = = - - = % $ 7 p w $ O # # + ",
"# # + O $ 8 e 3 $ = X       $ = = = = = = = = = % = % % = =         X = % = % % = = = = % = # # + # = $ 3 w 8 $ O # # + ",
"# # + O $ 8 e 3 $ = X     . = = = = = = = = = = % = % = = =         o = = = = = % = = = = =         = $ 6 e 8 $ O # # + ",
"# # + O $ 9 e 3 $ = X     $ - = = = = = = = = = = = = = = %         $ = = = % = % = = = = = X     X = $ 3 r 8 $ O # # + ",
"# # + O $ 8 e 3 $ % * % = = % % = = = = = = = = % = % = % % % * = * * % % = = = = = = = % % = = % = % $ 3 e 8 $ O # # + ",
"# # + O $ 8 e 3 $ % = % % = % = = = = = = = = = % = % = % % = = % = = % % = = = = = = = = % % % = = % $ 3 e 8 $ O # # + ",
"# # + O $ 8 e 3 $ % = % % = % = = = = = = = = = % = = = = % = = % = = = = = = = = % % = = * = % = = % % 3 w 8 $ O # # + ",
"+ # + O # 8 e 3 = = = = - % - = = % - = = = = % = = = = = = = = = = = = = = = = = = % = = = = = = = % % 6 e 8 $ O # # + ",
"+ # # O $ 8 r 6 # $ $ $ $ $ $ $ $ $ $ $ $ $ $ $ $ $ $ $ $ $ $ $ $ $ $ $ $ $ $ $ $ $ $ $ $ $ $ $ $ $ $ $ 6 e 8 # O # # + ",
"# # # O $ 8 r ,                                                                                         , r 8 $ O # # + ",
"# # # O $ 8 e >                                                                                         : e 8 $ O # # + ",
"+ + + O $ 8 w 8 4 6 4 4 4 7 6 +   ; 8 3 6 6 4 6 6 6 6 6 6 6 6 6 6 6 6 6 6 6 6 6 4 7 : X + 2 6 6 4 6 6 3 8 w 8 $ O # # + ",
"+ + + O $ 8 w w e r r i r i e $ X 2 p r r e r e e e e e e e e e e e e e r r i r r s 3   * w i r r r e r w w 8 # O # # + ",
"+ + + O $ 8 e w w w e w w r w # X 3 r e w e e e w w w w w w w w w e w w e e e e e r 3 X $ 8 r w w w w w e e 8 $ O # # + ",
"# # + + + $ % = % = % % = % % + O $ % = * = = = = = = = = = = = = = = = = = = = = = $ + # = = = = = % = = = $ + + # # + ",
"# # # + + + O O O O O O O O O + + O O O O O O o O O O O O O O O O O O O O O O O O o O # # O o O O O O O O O O + # # # # ",
"# # # + + + + + # # # # # # # # # # # # # # + + # # # # # # # # + + + + + + + + + + + # # + + + # # # # # # # # # # # # ",
"+ + + + + + + + # # # # # # # # # # # # # # # # # # # # # # # # # # # # # # # # + + + # # + + + # # # # # # # # # # # # ",
"+ + + + + + + + + + + + + + + + + + + + + + + + + + + + + + + + + + + + + + + + # # # + + # # # + + + + + + + + # # # # "
};
