/* XPM */
static char *xpm_[] = {
/* columns rows colors chars-per-pixel */
"60 60 155 2 ",
"   c #010101",
".  c #060807",
"X  c #050609",
"o  c #07090B",
"O  c #0A0C0D",
"+  c #060E10",
"@  c #0A0D10",
"#  c #0D1215",
"$  c #0E1619",
"%  c #0E181A",
"&  c #111516",
"*  c #111619",
"=  c #12191C",
"-  c #141C21",
";  c #181F25",
":  c #172125",
">  c #192227",
",  c #16222A",
"<  c #1B262C",
"1  c #1D282E",
"2  c #1D2730",
"3  c #1E2B32",
"4  c #1F313B",
"5  c #212C34",
"6  c #222F38",
"7  c #25333C",
"8  c #28353E",
"9  c #263741",
"0  c #2A3740",
"q  c #273942",
"w  c #2A3B45",
"e  c #2C3E49",
"r  c #303E49",
"t  c #2C4047",
"y  c #2E414C",
"u  c #31434E",
"i  c #2F4551",
"p  c #324551",
"a  c #344956",
"s  c #3B4E5F",
"d  c #3B5563",
"f  c #3D5967",
"g  c #415B6A",
"h  c #466576",
"j  c #4A6576",
"k  c #47667A",
"l  c #496779",
"z  c #47687B",
"x  c #4B697A",
"c  c #50707F",
"v  c #4E6E82",
"b  c #506F83",
"n  c #4F7083",
"m  c #537385",
"M  c #53768C",
"N  c #567B8E",
"B  c #587B8E",
"V  c #577B93",
"C  c #5B7F93",
"Z  c #5A7F99",
"A  c #5D8095",
"S  c #5C8599",
"D  c #5E849B",
"F  c #5E869D",
"G  c #5F889E",
"H  c #62869C",
"J  c #628B9F",
"K  c #5F87A0",
"L  c #6186A1",
"P  c #6488A0",
"I  c #648AA1",
"U  c #698CA2",
"Y  c #6A8EA4",
"T  c #6B8FA7",
"R  c #6A8EA4",
"E  c #6D8FA8",
"W  c #6C90A6",
"Q  c #6E94AB",
"!  c #7295AA",
"~  c #7C9BAD",
"^  c #7B9CAF",
"/  c #7A9BAE",
"(  c #7F9EB0",
")  c #7C9DB1",
"_  c #7FA0B3",
"`  c #809FB3",
"'  c #84A1B1",
"]  c #84A4B3",
"[  c #81A0B4",
"{  c #86A3B5",
"}  c #84A2B5",
"|  c #88A5B7",
" . c #87A6BA",
".. c #8BA6B9",
"X. c #89A6B9",
"o. c #88A9BA",
"O. c #8DAABC",
"+. c #8EAABB",
"@. c #91ACBD",
"#. c #93AFBF",
"$. c #92ADBD",
"%. c #97B1BF",
"&. c #95AFC0",
"*. c #93AFC0",
"=. c #96B1C2",
"-. c #98B2C3",
";. c #98B3C4",
":. c #9EB6C3",
">. c #9DB8C6",
",. c #A4B7C5",
"<. c #A0B6C4",
"1. c #A2BAC4",
"2. c #A4B9C6",
"3. c #A6BCCA",
"4. c #A8BDCA",
"5. c #A7C1CE",
"6. c #ABC2CA",
"7. c #AFC1CB",
"8. c #ACC2CF",
"9. c #ADC1CD",
"0. c #B1C5CE",
"q. c #B0C6D3",
"w. c #B2C4D2",
"e. c #B3C6D4",
"r. c #B4C6D4",
"t. c #B9C7D4",
"y. c #B7C8D2",
"u. c #B8CAD4",
"i. c #BBCCD4",
"p. c #BBCDD7",
"a. c #BCCCD6",
"s. c #BDD0D6",
"d. c #C3CFDB",
"f. c #C5D3DB",
"g. c #C9D6DF",
"h. c #CBD8DF",
"j. c #CBD7E0",
"k. c #CCDAE2",
"l. c #D1DBE3",
"z. c #D7E0E5",
"x. c #D9E2E9",
"c. c #DBE4EB",
"v. c #DFE6EB",
"b. c #E1E6EA",
"n. c #E5EAEE",
"m. c #E7ECEF",
"M. c #E8ECEF",
"N. c #E4EBF1",
"B. c #E7EEF2",
"V. c #EAEEF1",
"C. c #EDF1F4",
"Z. c #F3F5F5",
"A. c #F5F7F9",
"S. c #F6F9FA",
"D. c #FAFCFD",
/* pixels */
"@ O @ @ O @ O O O @ O O O @ @ O @ O O O O O O O @ @ @ O O O O O @ O O O O O O O O O O @ O O @ O O @ O O @ O O O O @ @ O ",
"@ @ @ O O X X X X X X X X X X O @ o X X X X X X X X X X X X X X X X X X X X X X X X o O O X X X X X X X X X X o O @ @ O ",
"@ @ @ O @ < 2 < < 1 < 5 < < < @ X - 1 > 1 < 1 1 < < 1 < < 1 < < 2 < 1 1 < < < 1 < 2 - X @ > 1 < < < 1 < < < > @ O @ @ O ",
"O O @ o # e e y p u u y u p e #   5 a y y y y u y y y p y u u y y y y y y y y y y a 5   # e p y y y u p y e e # o @ @ O ",
"@ @ O o # 7 w 7 5 7 3 5 5 7 5 @ X : 7 5 5 5 6 5 7 7 6 6 7 7 5 5 5 6 5 5 5 5 5 5 5 7 >   @ 3 4 5 5 5 7 5 7 q 8 # o @ @ O ",
"@ @ O o # 7 e < X o o o o o o O O o O o o o o o o o o o o o o o o o O O O o O O o o O O O o o o O O o X < e 7 # o O @ O ",
"O @ @ o # 7 e 2 o @ @ @           o O @ @ @           X O @ @ @           X O O @ O X         o O @ O o 2 e 7 # o O @ O ",
"O @ O o # 7 e < X O O o > 7 5 > < $ o O o O < 7 3 > < = o o o O , 7 5 > < = o O O o = 7 5 < < $ O o o o < e 7 # o O @ O ",
"@ @ @ o # 7 t <         D w.#.C J 7         R w.o.C I a         v p.X.N I d         a p.#.D E 7         > r 7 # o O O @ ",
"O O @ o # 8 e <         V ,.] M A 3         U 1.' M H d         l 7.^ m C s         i 6.} N I 7         > e 7 # o O O @ ",
"O O O o # 7 y ,         R x.u.( &.e         +.c.e.` ;.x         A N.9.^ #.l         d m.t.[ -.y         > e 7 # o O O @ ",
"@ @ @ o # 7 y <         ! C.h.$.9.u         %.Z.d.&.8.l         H D.f.O.4.m         g D.g.#.9.i         < e 7 # o O O @ ",
"@ @ @ X @ 7 e <         ! V.f.O.3.p         #.C.a.+.3.l         H A.p.| :.b         g A.f.+.3.p         > e 7 @ o O O @ ",
"O O @ o # 7 y <         Q V.f.O.3.i         #.V.a.+.3.k         G A.p.| <.n         g A.f.O.4.p         > y 9 # o O O @ ",
"O O @ o # 7 w :         W V.f.+.3.p         @.V.f.+.3.l         L S.i. .<.v         g Z.f.+.3.p         : e 7 # o O O @ ",
"+ @ @ O O @ # O         R B.f.+.3.p         *.N.g.#.:.h         G A.a.X.>.c         g A.f.@.3.u         O # @ O O O O @ ",
"@ O O @ O X   X         ^ N.f.O.3.p         #.m.j.a.v.Z         L A.i.| :.v         g S.f.+.3.u         X   X @ O @ @ O ",
"O O @ o # < 5 -         _ V.f.+.3.p         #.m.g.z.D.U         K S.a.X.>.v         g S.f.+.3.p         - 5 < # o @ @ O ",
"O @ @ o # w a 2         ( V.f.+.3.p         #.m.j.y.l.B         K S.i.| :.b         g A.f.+.4.p         2 a w # o @ @ O ",
"O @ @ o # 9 e >         [ m.f.+.3.u         #.m.j.O.=.h         G S.p.| :.b         g A.f.+.3.u         > y 9 # o O @ O ",
"@ @ O o # 7 w >         ) M.f.+.3.p         #.V.f.$.1.j         H S.p.{ :.v         g A.f.+.3.p         > e 8 # o O @ @ ",
"@ O O o # 7 e >         U C.f.@.4.p         #.V.f.$.3.l         D S.p.| <.x         f S.f.+.3.p         > e 7 # o O @ O ",
"O @ O o # 7 e <         R C.f.+.4.a     # X %.m.h.*.1.z     @   H Z.u.X.:.l     o   g Z.f.+.4.p   X @ o 2 e 7 # o @ @ O ",
"O @ @ o # 7 e <         ! D.f.+.4.p     * o 5.V.j.#.1.l     *   ) D.i.X.:.l     #   m D.f.+.3.p   X = * 2 w 7 # o @ @ O ",
"@ @ @ o # 7 e <         q b.l.X.y.a     $   R Z.f.#.7.v     * X h V.s.} 2.m     # o p v.k.X.r.a   X * # 3 w 7 # o O @ O ",
"@ @ @ o # 7 e 1           R A.y.( =     *   - k.N.3.) 9 o # X     1.V.@.1.t     # -   / D.0./ ; @ @ X   < w 7 # o O @ O ",
"@ @ @ o # 7 w <           : l.&.$     X * *   a g.+.< o * *       - 4.1.p       # * O $ :.1.= X = #     > e 7 # o O @ O ",
"@ @ @ o # 7 w <             $ X       X * * * o > , O $ * * o o X   o *         # * = O * - o % * # o X 2 w 7 # o O @ O ",
"@ @ @ o # 7 w <                       X * * * $ o @ * % * * = = * X       # # # $ * $ $ @ O $ * * $ = * 3 w 7 # o O @ O ",
"@ @ @ o # 7 w <                         $ % * * $ * $ * * $ * * * #     O = * * * * $ % * * * $ * $ * # 2 w 7 # o O @ O ",
"@ @ @ O # 7 w <                       X $ % $ * * * * % * $ $ $ # O O @ $ * * * * * * $ * * * * $ * $ # 2 w 7 # o O @ O ",
"@ @ @ o # 7 w 1                         * * * * * $ $ * * * = * X   @ = $ * * $ $ $ * * * $ * * * * * # 3 w 7 # o O @ O ",
"@ O O o # 7 e <                       X * * $ $ * * $ * $ $ & o     O * $ * * * * * * * * * * * $ * * # 2 w 7 # o O @ @ ",
"@ @ O o # 7 w 5 * #           o * # * # * * * * * * * * $ #         o * $ * * * * * * * * * * * * * * # 2 w 7 # o O @ O ",
"O O @ o # 7 q 2 * * X         # = $ $ $ $ * * * * * $ * * *         X * $ * * * * * * * * * * * * * * # 2 q 7 # o @ @ O ",
"O @ @ o # 7 e 2 * @           * * * * * * * * * * * $ * * #           * $ * * * * * * * * * * * * $ * # 5 e 7 # o @ @ O ",
"O O @ o # 8 e 3 * @           * * * * * * * * * * * $ * * *         X * $ * * * * * * * * * * * * $ * # 5 e 8 # o @ @ O ",
"@ @ @ O O - > * $ * X         # $ $ $ * * * * * * * $ * $ *         X * $ * * * * * * * * * * * * $ * # * > = O O @ @ O ",
"@ O O @ O O X O $ * X         # $ $ $ $ * * * * * * $ * $ #         X * $ * * * * * * * * * * * * * * * O o o @ O @ @ O ",
"@ O O @ O o o O * # X       X * * * * * * * * * * * $ * $ *         X * $ * * * * * * * * * * * * $ * $ @ . o @ O @ @ O ",
"@ @ O O @ 3 7 > # * X       @ = * * * * * * * * $ * * * $ *         X * * * * * * * * * * * * * $ * $ # > 7 3 @ o @ @ O ",
"@ @ O X # 0 u 6 # * X       O = * * * * * * * * * * * * * #         X * * * * * * * * * $ $ * = = * $ # 6 u 9 # o @ @ O ",
"@ @ O o # 7 w 2 # * X       # * * * * * * * * * * * $ * * *         X * $ * * * * * * $ $ * @ @ O @ * # 2 9 7 # o @ @ O ",
"@ @ O o # 7 w 2 # * X     X * * * * * * * * * * * * $ * * #         X * $ * * * * * $ * # *         * # 5 w 7 # o @ @ O ",
"@ @ O o # 8 w 2 # * X     # * $ * * * * * * * * * * $ * * #         # * $ * # * * * $ * * * X     X * # 2 e 7 # o @ @ O ",
"@ @ O o # 7 w 2 # $ * * # * $ $ * * * * * * * * * * $ * * * * * * * * * $ * * * * * * $ $ * # # # * % # 2 w 7 # o @ @ O ",
"@ @ O o # 7 w 2 # * * $ $ * * # * * * * * * * * $ * $ * * $ * * * * * $ $ * * $ * * * * $ $ $ $ * * $ # 2 w 7 # o @ @ O ",
"@ @ O o # 7 w 2 # * * $ $ * $ * * * * * * * * * $ * $ * * $ * $ $ * * $ $ * * $ * * * * * * * * * * $ # 2 q 7 # o @ @ O ",
"O @ O o @ 7 w 2 * * * * * % * * * $ * * * * * % * * * * * * * * * * * * * * * * * * $ * * * * * * * $ $ 5 w 7 # o @ @ O ",
"O @ @ o # 7 e 5 @ # # # # # # # # # # # # # # # # # # # # # # # # # # # # # # # # # # # # # # # # # # # 5 w 7 @ o @ @ O ",
"@ @ @ o # 7 e >                                                                                         > e 7 # o @ @ O ",
"@ @ @ o # 7 w :                                                                                         ; w 7 # o @ @ O ",
"O O O o # 7 9 7 3 5 3 3 3 6 5 O   - 7 2 5 5 3 5 5 5 5 5 5 5 5 5 5 5 5 5 5 5 5 5 3 7 ; X O < 5 5 3 5 5 2 7 9 7 # o @ @ O ",
"O O O o # 7 q 9 w e e y e y w # X 1 u e e w e w w w w w w w w w w w w w e e y e e p 2   & q y e e e w e 9 9 7 @ o @ @ O ",
"O O O o # 7 w q q q w q q e 9 @ X 2 e w q w w w q q q q q q q q q w q q w w w w w e 2 X # 7 e q q q q q w w 7 # o @ @ O ",
"@ @ O O O # % * $ * $ $ * $ $ O o # % * * * * * * * * * * * * * * * * * * * * * * * # O @ * * * * * $ * * * # O O @ @ O ",
"@ @ @ O O O o o o o o o o o o O O o o o o o o X o o o o o o o o o o o o o o o o o X o @ @ o X o o o o o o o o O @ @ @ @ ",
"@ @ @ O O O O O @ @ @ @ @ @ @ @ @ @ @ @ @ @ O O @ @ @ @ @ @ @ @ O O O O O O O O O O O @ @ O O O @ @ @ @ @ @ @ @ @ @ @ @ ",
"O O O O O O O O @ @ @ @ @ @ @ @ @ @ @ @ @ @ @ @ @ @ @ @ @ @ @ @ @ @ @ @ @ @ @ @ O O O @ @ O O O @ @ @ @ @ @ @ @ @ @ @ @ ",
"O O O O O O O O O O O O O O O O O O O O O O O O O O O O O O O O O O O O O O O O @ @ @ O O @ @ @ O O O O O O O O @ @ @ @ "
};
