/* XPM */
static char *xpm_[] = {
/* columns rows colors chars-per-pixel */
"60 60 132 2 ",
"   c #010101",
".  c #060807",
"X  c #060609",
"o  c #07090B",
"O  c #0A0C0D",
"+  c #060E10",
"@  c #0A0D10",
"#  c #0D1215",
"$  c #0F1619",
"%  c #101415",
"&  c #111619",
"*  c #12191D",
"=  c #151C22",
"-  c #181F25",
";  c #162125",
":  c #1A2327",
">  c #16232B",
",  c #1B252B",
"<  c #1D282E",
"1  c #1D2730",
"2  c #1E2B32",
"3  c #1F313B",
"4  c #212C34",
"5  c #222F38",
"6  c #25333C",
"7  c #28353E",
"8  c #253741",
"9  c #2A3740",
"0  c #273943",
"q  c #2A3B45",
"w  c #2C3E49",
"e  c #313F4A",
"r  c #2C4047",
"t  c #2E414C",
"y  c #30434E",
"u  c #324552",
"i  c #344855",
"p  c #364D5A",
"a  c #3B535F",
"s  c #3B5562",
"d  c #3F5968",
"f  c #47636F",
"g  c #476678",
"h  c #48677B",
"j  c #4C6A7B",
"k  c #4D6D81",
"l  c #507085",
"z  c #527489",
"x  c #567A8D",
"c  c #5A7F94",
"v  c #5A7F99",
"b  c #5D8194",
"n  c #5E839D",
"m  c #5F849E",
"M  c #5F859A",
"N  c #63879F",
"B  c #60829B",
"V  c #6389A0",
"C  c #648AA1",
"Z  c #678BA1",
"A  c #638CA2",
"S  c #648DA3",
"D  c #698FA6",
"F  c #6D8FA8",
"G  c #6E93A6",
"H  c #6C90A8",
"J  c #7597AC",
"K  c #7A9AAF",
"L  c #7C9DAE",
"P  c #7B9BB2",
"I  c #7B9BB0",
"U  c #809FB1",
"Y  c #81A1B0",
"T  c #81A1B5",
"R  c #86A1B6",
"E  c #87A2B7",
"W  c #86A1B4",
"Q  c #8AA7B7",
"!  c #88A3B8",
"~  c #8AA7B9",
"^  c #8AA7B9",
"/  c #8CA9BB",
"(  c #8FAABB",
")  c #8FABB9",
"_  c #92A9BB",
"`  c #93ADBC",
"'  c #96ADBF",
"]  c #92ACBC",
"[  c #9BB1BE",
"{  c #94AFC0",
"}  c #96B3C3",
"|  c #96B3C3",
" . c #9CB3C3",
".. c #9AB4C5",
"X. c #9FB9C6",
"o. c #A0B7C7",
"O. c #A2B6C5",
"+. c #A5B8C6",
"@. c #A5BCC9",
"#. c #AABEC9",
"$. c #ABC1CE",
"%. c #ACC1CE",
"&. c #B1C5CE",
"*. c #B2C4CE",
"=. c #AFC2D0",
"-. c #B1C5D0",
";. c #B3C7D2",
":. c #B7C6D3",
">. c #B6C9D3",
",. c #B8C8D5",
"<. c #BBCCD6",
"1. c #BECDD4",
"2. c #BDCED6",
"3. c #BECFD7",
"4. c #BBCBD8",
"5. c #BFD0D8",
"6. c #C7D6DB",
"7. c #C8D5DD",
"8. c #D0DBDF",
"9. c #CEDCE4",
"0. c #D2DDE3",
"q. c #DAE3E8",
"w. c #DEE3E9",
"e. c #E2E7EA",
"r. c #E3E8EB",
"t. c #E6EEF1",
"y. c #E8EDF0",
"u. c #E9EDF2",
"i. c #EDF2F5",
"p. c #F0F4F5",
"a. c #F2F7F9",
"s. c #FFFEFD",
/* pixels */
"@ O @ @ O @ O O O @ O O O @ @ O @ O O O O O O O @ @ @ O O O O O @ O O O O O O O O O O @ O O @ O O @ O O @ O O O O @ @ O ",
"@ @ @ O O X X X X X X X X X X O @ o X X X X X X X X X X X X X X X X X X X X X X X X o O O X X X X X X X X X X o O @ @ O ",
"@ @ @ O @ , 1 , , < , 4 , , , @ X = < : < , < < , , < , , < , , 1 , < < , , , < , 1 = X @ : < , , , < , , , : @ O @ @ O ",
"O O @ o # w w t u y y t y u w #   4 i t t t t y t t t u t y y t t t t t t t t t t i 4   # w u t t t y u t w w # o @ @ O ",
"@ @ O o # 6 q 6 4 6 2 4 4 6 4 @ X ; 6 4 4 4 5 4 6 6 5 5 6 6 4 4 4 5 4 4 4 4 4 4 4 6 :   @ 2 3 4 4 4 6 4 6 9 7 # o @ @ O ",
"@ @ O o # 6 w , X o o o o o o O O o O o o o o o o o o o o o o o o o O O O o O O o o O O O o o o O O o X , w 6 # o O @ O ",
"O @ @ o # 6 w 1 o @ @ @           o O @ @ @           X O @ @ @           X O O @ O X         o O @ O o 1 w 6 # o O @ O ",
"O @ O o # 6 w , X O O o : 6 4 : , $ o O o O , 6 2 : , * o o o O > 6 4 : , * o O O o * 6 4 , , $ O o o o , w 6 # o O @ O ",
"@ @ @ o # 6 r ,         n -.' c Z 6         H -./ b A u         k 2.~ x N s         i <.` M F 6         : e 6 # o O O @ ",
"O O @ o # 7 w ,         c o.R z c 2         S +.T x m a         g $.I l b p         u $.R x V 6         : w 6 # o O O @ ",
"O O O o # 6 t >         Z w.4.Y } e         _ q.2.! [ j         v u.*.K / f         s t.,.T  .t         : w 6 # o O O @ ",
"@ @ @ o # 6 t ,         J s.7.{ *.i         $.a.9...@.h         J s.2./ @.j         j s.6.{ =.u         , w 6 # o O O @ ",
"@ @ @ X @ 6 w ,         9 e.9.~ >.p         B p.6.` %.k         d i.5.R @.z         8 r.0.Q :.i         : w 6 @ o O O @ ",
"O O @ o # 6 t ,           D a.>.I *         @ 8.u.@.U 5           X.u.` O.t           G s.:.L *         : t 8 # o O O @ ",
"O O @ o # 6 q ;           : 0.{ &             0 7.] =             - #.o.u             O } @.$           ; w 6 # o O O @ ",
"+ @ @ O O @ # O             $ X                 @ @                 . &                 X o             O # @ O O O O @ ",
"@ O O @ O X   X                                                                                         X   X @ O @ @ O ",
"O O @ o # , 4 =                                                                                         = 4 , # o @ @ O ",
"O @ @ o # q i 1                                                                                         1 i q # o @ @ O ",
"O @ @ o # 8 w :                                                                                         : t 8 # o O @ O ",
"@ @ O o # 6 q :                                                                                         : w 7 # o O @ @ ",
"@ O O o # 6 w :                                                                                         : w 6 # o O @ O ",
"O @ O o # 6 w ,                       X # # # # # X         O @ X               o O o # & o       X @ o 1 w 6 # o @ @ O ",
"O @ @ o # 6 w ,                       X * $ * * * #         & * & X             # * $ $ * %       X * & 1 q 6 # o @ @ O ",
"@ @ @ o # 6 w ,                       X $ & & & & & o       & * #               # & $ $ & * X       * & 2 w 6 # o O @ O ",
"@ @ @ o # 6 w <                       X $ & & & & & # # # @ X X                 # & & $ $ & # # # @ X X , w 6 # o O @ O ",
"@ @ @ o # 6 q ,                       X $ & & & & & $ * * &                     # & & & $ & & & * #     : w 6 # o O @ O ",
"@ @ @ o # 6 q ,                       X $ & & & & & & & & # o o X               # & & & $ $ $ & & # o X 1 q 6 # o O @ O ",
"@ @ @ o # 6 q ,                       X $ & & & & & & & & & * * & X       # # # $ & & & & & & & & & * & 2 q 6 # o O @ O ",
"@ @ @ o # 6 q ,                       X $ & & & & & & & & & & & $ # X   o * & & $ $ $ & & & & & $ $ & # 2 9 6 # o O @ O ",
"@ @ @ O # 6 q ,                       X $ & & & & & $ $ $ & & $ # O O O & & $ & & & & & & & & & $ & & # 2 q 6 # o O @ O ",
"@ @ @ o # 6 q <                       X $ & & & & & & & & & * $ X   @ * & & & & & & & & & $ $ $ & & & # 2 q 6 # o O @ O ",
"@ O O o # 6 w 1                       X & & $ $ & & $ & $ $ % o     O & $ & & & & & & & & & & & $ & & # 1 q 6 # o O @ @ ",
"@ @ O o # 6 q 4 % #           o & # & # & & & & & & * & $ #         o & $ & & & & & & & & & & & & & & # 1 q 6 # o O @ O ",
"O O @ o # 6 9 1 & & X         # * $ $ $ $ & & & & & $ & * &         X & $ & & & & & & & & & & & & & & # 1 0 6 # o @ @ O ",
"O @ @ o # 6 w 1 & @           & & & & & & & & & & & $ & & #           & $ & & & & & & & & & & & & $ * # 4 w 6 # o @ @ O ",
"O O @ o # 7 w 2 & @           % & & & & & & & & & & $ & & &         X & $ & & & & & & & & & & & & $ & # 4 w 7 # o @ @ O ",
"@ @ @ O O = : & $ & X         # $ $ $ & & & & & & & $ & $ &         X & $ & & & & & & & & & & & & $ & # & : * O O @ @ O ",
"@ O O @ O O X O $ & X         # $ $ $ $ & & & & & & $ & $ #         X & $ & & & & & & & & & & & & & & & O o o @ O @ @ O ",
"@ O O @ O o o O & $ X       X & & & & & & & & & & & $ & $ &         X & $ & & & & & & & & & & & & $ & $ @ . o @ O @ @ O ",
"@ @ O O @ 2 6 : # & X       @ * & & & & & & & & $ & & & $ &         X & & & & & & & & & & & & & $ & $ # : 6 2 @ o @ @ O ",
"@ @ O X # 9 y 5 # & X       O * & & & & & & & & & & & & & #         X & & & & & & & & & $ $ * * * & $ # 5 y 0 # o @ @ O ",
"@ @ O o # 6 q 1 # & X       # & & & & & & & & & & & $ & & &         X & $ & & & & & & $ $ & @ @ O @ & # 1 0 6 # o @ @ O ",
"@ @ O o # 6 q 1 # & X     X * & & & & & & & & & & & $ & & #         X & $ & & & & & $ & # &         & # 4 q 6 # o @ @ O ",
"@ @ O o # 7 q 1 # & X     # * $ & & & & & & & & & & $ & & #         # & $ & # & & & $ & & & X     X & # 1 w 6 # o @ @ O ",
"@ @ O o # 6 q 1 # $ % & # & $ $ & & & & & & & & & & $ & & & % % & % & & $ & & & & & & $ $ & # # # & $ # 1 q 6 # o @ @ O ",
"@ @ O o # 6 q 1 # & & $ $ & * # & & & & & & & & $ & $ & & $ & & & & & $ $ & & $ & & & & $ $ $ $ & & $ # 1 q 6 # o @ @ O ",
"@ @ O o # 6 q 1 # & & $ $ & $ & & & & & & & & & $ & $ & & $ & $ $ & & $ $ & & $ & & & & & & & & & & $ # 1 9 6 # o @ @ O ",
"O @ O o @ 6 q 1 & & & & * $ * & & $ * & & & & $ & & & & & & & & & & & & & & & & & & $ & & & & & & & $ $ 4 q 6 # o @ @ O ",
"O @ @ o # 6 w 4 @ # # # # # # # # # # # # # # # # # # # # # # # # # # # # # # # # # # # # # # # # # # # 4 q 6 @ o @ @ O ",
"@ @ @ o # 6 w :                                                                                         : w 6 # o @ @ O ",
"@ @ @ o # 6 q ;                                                                                         - q 6 # o @ @ O ",
"O O O o # 6 0 6 2 4 2 2 2 5 4 O   = 6 1 4 4 2 4 4 4 4 4 4 4 4 4 4 4 4 4 4 4 4 4 2 6 - X O , 4 4 2 4 4 1 6 0 6 # o @ @ O ",
"O O O o # 6 0 0 q w w t w t q # X < y w w q w q q q q q q q q q q q q q w w t w w u 1   % 9 t w w w q w 0 0 6 @ o @ @ O ",
"O O O o # 6 q 9 9 9 q 9 9 w 0 @ X 1 w q 9 q q q 9 9 9 9 9 9 9 9 9 q 9 9 q q q q q w 1 X # 6 w 9 9 9 9 9 q q 6 # o @ @ O ",
"@ @ O O O # $ & $ & $ $ & $ $ O o # $ & % & & & & & & & & & & & & & & & & & & & & & # O @ & & & & & $ & & & # O O @ @ O ",
"@ @ @ O O O o o o o o o o o o O O o o o o o o X o o o o o o o o o o o o o o o o o X o @ @ o X o o o o o o o o O @ @ @ @ ",
"@ @ @ O O O O O @ @ @ @ @ @ @ @ @ @ @ @ @ @ O O @ @ @ @ @ @ @ @ O O O O O O O O O O O @ @ O O O @ @ @ @ @ @ @ @ @ @ @ @ ",
"O O O O O O O O @ @ @ @ @ @ @ @ @ @ @ @ @ @ @ @ @ @ @ @ @ @ @ @ @ @ @ @ @ @ @ @ O O O @ @ O O O @ @ @ @ @ @ @ @ @ @ @ @ ",
"O O O O O O O O O O O O O O O O O O O O O O O O O O O O O O O O O O O O O O O O @ @ @ O O @ @ @ O O O O O O O O @ @ @ @ "
};
